G04 #@! TF.GenerationSoftware,KiCad,Pcbnew,5.1.6+dfsg1-1~bpo10+1*
G04 #@! TF.CreationDate,2020-08-19T15:46:29+03:00*
G04 #@! TF.ProjectId,CompactBeamspringP1,436f6d70-6163-4744-9265-616d73707269,0.0.3*
G04 #@! TF.SameCoordinates,Original*
G04 #@! TF.FileFunction,Profile,NP*
%FSLAX46Y46*%
G04 Gerber Fmt 4.6, Leading zero omitted, Abs format (unit mm)*
G04 Created by KiCad (PCBNEW 5.1.6+dfsg1-1~bpo10+1) date 2020-08-19 15:46:29*
%MOMM*%
%LPD*%
G01*
G04 APERTURE LIST*
G04 #@! TA.AperFunction,Profile*
%ADD10C,0.050000*%
G04 #@! TD*
G04 APERTURE END LIST*
D10*
X154900000Y-110850000D02*
X154900000Y-106550000D01*
X154300000Y-105950000D02*
G75*
G02*
X154900000Y-106550000I0J-600000D01*
G01*
X155500000Y-111450000D02*
G75*
G02*
X154900000Y-110850000I0J600000D01*
G01*
X263900000Y-111450000D02*
X155500000Y-111450000D01*
X269900000Y-103000000D02*
X269900000Y-110850000D01*
X269900000Y-110850000D02*
G75*
G02*
X269300000Y-111450000I-600000J0D01*
G01*
X269300000Y-112650000D02*
G75*
G02*
X269300000Y-111450000I0J600000D01*
G01*
X267500000Y-111450000D02*
G75*
G02*
X267500000Y-112650000I0J-600000D01*
G01*
X265700000Y-111450000D02*
G75*
G02*
X265700000Y-112650000I0J-600000D01*
G01*
X267500000Y-112650000D02*
G75*
G02*
X267500000Y-111450000I0J600000D01*
G01*
X265700000Y-112650000D02*
G75*
G02*
X265700000Y-111450000I0J600000D01*
G01*
X263900000Y-111450000D02*
G75*
G02*
X263900000Y-112650000I0J-600000D01*
G01*
X107650000Y-103000000D02*
X107650000Y-105350000D01*
X107650000Y-103000000D02*
G75*
G02*
X108250000Y-102400000I600000J0D01*
G01*
X108250000Y-105950000D02*
G75*
G02*
X107650000Y-105350000I0J600000D01*
G01*
X269300000Y-102400000D02*
G75*
G02*
X269900000Y-103000000I0J-600000D01*
G01*
X113650000Y-105950000D02*
X154300000Y-105950000D01*
X111850000Y-105950000D02*
G75*
G02*
X111850000Y-107150000I0J-600000D01*
G01*
X110050000Y-105950000D02*
G75*
G02*
X110050000Y-107150000I0J-600000D01*
G01*
X113650000Y-107150000D02*
G75*
G02*
X113650000Y-105950000I0J600000D01*
G01*
X111850000Y-107150000D02*
G75*
G02*
X111850000Y-105950000I0J600000D01*
G01*
X108250000Y-105950000D02*
G75*
G02*
X108250000Y-107150000I0J-600000D01*
G01*
X110050000Y-107150000D02*
G75*
G02*
X110050000Y-105950000I0J600000D01*
G01*
X269300000Y-102400000D02*
X108250000Y-102400000D01*
X150000000Y-112650000D02*
G75*
G02*
X149400000Y-112050000I0J600000D01*
G01*
X148800000Y-107150000D02*
G75*
G02*
X149400000Y-107750000I0J-600000D01*
G01*
X107650000Y-107750000D02*
G75*
G02*
X108250000Y-107150000I600000J0D01*
G01*
X108250000Y-125900000D02*
G75*
G02*
X107650000Y-125300000I0J600000D01*
G01*
X269900000Y-125300000D02*
G75*
G02*
X269300000Y-125900000I-600000J0D01*
G01*
X269300000Y-112650000D02*
G75*
G02*
X269900000Y-113250000I0J-600000D01*
G01*
X149400000Y-112050000D02*
X149400000Y-107750000D01*
X113650000Y-107150000D02*
X148800000Y-107150000D01*
X107650000Y-125300000D02*
X107650000Y-107750000D01*
X158650000Y-125900000D02*
X108250000Y-125900000D01*
X239900000Y-112650000D02*
X150000000Y-112650000D01*
X263900000Y-112650000D02*
X239900000Y-112650000D01*
X269900000Y-125300000D02*
X269900000Y-113250000D01*
X169150000Y-125900000D02*
X269300000Y-125900000D01*
X158650000Y-125900000D02*
X169150000Y-125900000D01*
M02*
