G04 #@! TF.GenerationSoftware,KiCad,Pcbnew,5.1.6+dfsg1-1~bpo10+1*
G04 #@! TF.CreationDate,2020-08-19T09:24:11+03:00*
G04 #@! TF.ProjectId,CompactBeamspringP1,436f6d70-6163-4744-9265-616d73707269,0.0.3*
G04 #@! TF.SameCoordinates,PX66a9bd0PY78114e0*
G04 #@! TF.FileFunction,Paste,Bot*
G04 #@! TF.FilePolarity,Positive*
%FSLAX46Y46*%
G04 Gerber Fmt 4.6, Leading zero omitted, Abs format (unit mm)*
G04 Created by KiCad (PCBNEW 5.1.6+dfsg1-1~bpo10+1) date 2020-08-19 09:24:11*
%MOMM*%
%LPD*%
G01*
G04 APERTURE LIST*
%ADD10R,0.800000X0.500000*%
%ADD11R,0.800000X0.400000*%
G04 APERTURE END LIST*
G36*
G01*
X30675000Y10799999D02*
X30675000Y11700001D01*
G75*
G02*
X30924999Y11950000I249999J0D01*
G01*
X31575001Y11950000D01*
G75*
G02*
X31825000Y11700001I0J-249999D01*
G01*
X31825000Y10799999D01*
G75*
G02*
X31575001Y10550000I-249999J0D01*
G01*
X30924999Y10550000D01*
G75*
G02*
X30675000Y10799999I0J249999D01*
G01*
G37*
G36*
G01*
X28625000Y10799999D02*
X28625000Y11700001D01*
G75*
G02*
X28874999Y11950000I249999J0D01*
G01*
X29525001Y11950000D01*
G75*
G02*
X29775000Y11700001I0J-249999D01*
G01*
X29775000Y10799999D01*
G75*
G02*
X29525001Y10550000I-249999J0D01*
G01*
X28874999Y10550000D01*
G75*
G02*
X28625000Y10799999I0J249999D01*
G01*
G37*
G36*
G01*
X29800000Y13700001D02*
X29800000Y12799999D01*
G75*
G02*
X29550001Y12550000I-249999J0D01*
G01*
X28899999Y12550000D01*
G75*
G02*
X28650000Y12799999I0J249999D01*
G01*
X28650000Y13700001D01*
G75*
G02*
X28899999Y13950000I249999J0D01*
G01*
X29550001Y13950000D01*
G75*
G02*
X29800000Y13700001I0J-249999D01*
G01*
G37*
G36*
G01*
X31850000Y13700001D02*
X31850000Y12799999D01*
G75*
G02*
X31600001Y12550000I-249999J0D01*
G01*
X30949999Y12550000D01*
G75*
G02*
X30700000Y12799999I0J249999D01*
G01*
X30700000Y13700001D01*
G75*
G02*
X30949999Y13950000I249999J0D01*
G01*
X31600001Y13950000D01*
G75*
G02*
X31850000Y13700001I0J-249999D01*
G01*
G37*
G36*
G01*
X139282959Y4247480D02*
X140182961Y4247480D01*
G75*
G02*
X140432960Y3997481I0J-249999D01*
G01*
X140432960Y3347479D01*
G75*
G02*
X140182961Y3097480I-249999J0D01*
G01*
X139282959Y3097480D01*
G75*
G02*
X139032960Y3347479I0J249999D01*
G01*
X139032960Y3997481D01*
G75*
G02*
X139282959Y4247480I249999J0D01*
G01*
G37*
G36*
G01*
X139282959Y6297480D02*
X140182961Y6297480D01*
G75*
G02*
X140432960Y6047481I0J-249999D01*
G01*
X140432960Y5397479D01*
G75*
G02*
X140182961Y5147480I-249999J0D01*
G01*
X139282959Y5147480D01*
G75*
G02*
X139032960Y5397479I0J249999D01*
G01*
X139032960Y6047481D01*
G75*
G02*
X139282959Y6297480I249999J0D01*
G01*
G37*
G36*
G01*
X133527320Y3290741D02*
X133527320Y2390739D01*
G75*
G02*
X133277321Y2140740I-249999J0D01*
G01*
X132627319Y2140740D01*
G75*
G02*
X132377320Y2390739I0J249999D01*
G01*
X132377320Y3290741D01*
G75*
G02*
X132627319Y3540740I249999J0D01*
G01*
X133277321Y3540740D01*
G75*
G02*
X133527320Y3290741I0J-249999D01*
G01*
G37*
G36*
G01*
X135577320Y3290741D02*
X135577320Y2390739D01*
G75*
G02*
X135327321Y2140740I-249999J0D01*
G01*
X134677319Y2140740D01*
G75*
G02*
X134427320Y2390739I0J249999D01*
G01*
X134427320Y3290741D01*
G75*
G02*
X134677319Y3540740I249999J0D01*
G01*
X135327321Y3540740D01*
G75*
G02*
X135577320Y3290741I0J-249999D01*
G01*
G37*
G36*
G01*
X137742021Y5518320D02*
X136842019Y5518320D01*
G75*
G02*
X136592020Y5768319I0J249999D01*
G01*
X136592020Y6418321D01*
G75*
G02*
X136842019Y6668320I249999J0D01*
G01*
X137742021Y6668320D01*
G75*
G02*
X137992020Y6418321I0J-249999D01*
G01*
X137992020Y5768319D01*
G75*
G02*
X137742021Y5518320I-249999J0D01*
G01*
G37*
G36*
G01*
X137742021Y3468320D02*
X136842019Y3468320D01*
G75*
G02*
X136592020Y3718319I0J249999D01*
G01*
X136592020Y4368321D01*
G75*
G02*
X136842019Y4618320I249999J0D01*
G01*
X137742021Y4618320D01*
G75*
G02*
X137992020Y4368321I0J-249999D01*
G01*
X137992020Y3718319D01*
G75*
G02*
X137742021Y3468320I-249999J0D01*
G01*
G37*
G36*
G01*
X160652821Y10722780D02*
X159752819Y10722780D01*
G75*
G02*
X159502820Y10972779I0J249999D01*
G01*
X159502820Y11622781D01*
G75*
G02*
X159752819Y11872780I249999J0D01*
G01*
X160652821Y11872780D01*
G75*
G02*
X160902820Y11622781I0J-249999D01*
G01*
X160902820Y10972779D01*
G75*
G02*
X160652821Y10722780I-249999J0D01*
G01*
G37*
G36*
G01*
X160652821Y8672780D02*
X159752819Y8672780D01*
G75*
G02*
X159502820Y8922779I0J249999D01*
G01*
X159502820Y9572781D01*
G75*
G02*
X159752819Y9822780I249999J0D01*
G01*
X160652821Y9822780D01*
G75*
G02*
X160902820Y9572781I0J-249999D01*
G01*
X160902820Y8922779D01*
G75*
G02*
X160652821Y8672780I-249999J0D01*
G01*
G37*
G36*
G01*
X158346501Y10716540D02*
X157446499Y10716540D01*
G75*
G02*
X157196500Y10966539I0J249999D01*
G01*
X157196500Y11616541D01*
G75*
G02*
X157446499Y11866540I249999J0D01*
G01*
X158346501Y11866540D01*
G75*
G02*
X158596500Y11616541I0J-249999D01*
G01*
X158596500Y10966539D01*
G75*
G02*
X158346501Y10716540I-249999J0D01*
G01*
G37*
G36*
G01*
X158346501Y8666540D02*
X157446499Y8666540D01*
G75*
G02*
X157196500Y8916539I0J249999D01*
G01*
X157196500Y9566541D01*
G75*
G02*
X157446499Y9816540I249999J0D01*
G01*
X158346501Y9816540D01*
G75*
G02*
X158596500Y9566541I0J-249999D01*
G01*
X158596500Y8916539D01*
G75*
G02*
X158346501Y8666540I-249999J0D01*
G01*
G37*
G36*
G01*
X139032340Y7681559D02*
X139032340Y8581561D01*
G75*
G02*
X139282339Y8831560I249999J0D01*
G01*
X139932341Y8831560D01*
G75*
G02*
X140182340Y8581561I0J-249999D01*
G01*
X140182340Y7681559D01*
G75*
G02*
X139932341Y7431560I-249999J0D01*
G01*
X139282339Y7431560D01*
G75*
G02*
X139032340Y7681559I0J249999D01*
G01*
G37*
G36*
G01*
X136982340Y7681559D02*
X136982340Y8581561D01*
G75*
G02*
X137232339Y8831560I249999J0D01*
G01*
X137882341Y8831560D01*
G75*
G02*
X138132340Y8581561I0J-249999D01*
G01*
X138132340Y7681559D01*
G75*
G02*
X137882341Y7431560I-249999J0D01*
G01*
X137232339Y7431560D01*
G75*
G02*
X136982340Y7681559I0J249999D01*
G01*
G37*
G36*
G01*
X114332539Y5116160D02*
X115232541Y5116160D01*
G75*
G02*
X115482540Y4866161I0J-249999D01*
G01*
X115482540Y4216159D01*
G75*
G02*
X115232541Y3966160I-249999J0D01*
G01*
X114332539Y3966160D01*
G75*
G02*
X114082540Y4216159I0J249999D01*
G01*
X114082540Y4866161D01*
G75*
G02*
X114332539Y5116160I249999J0D01*
G01*
G37*
G36*
G01*
X114332539Y7166160D02*
X115232541Y7166160D01*
G75*
G02*
X115482540Y6916161I0J-249999D01*
G01*
X115482540Y6266159D01*
G75*
G02*
X115232541Y6016160I-249999J0D01*
G01*
X114332539Y6016160D01*
G75*
G02*
X114082540Y6266159I0J249999D01*
G01*
X114082540Y6916161D01*
G75*
G02*
X114332539Y7166160I249999J0D01*
G01*
G37*
G36*
G01*
X81831719Y5116160D02*
X82731721Y5116160D01*
G75*
G02*
X82981720Y4866161I0J-249999D01*
G01*
X82981720Y4216159D01*
G75*
G02*
X82731721Y3966160I-249999J0D01*
G01*
X81831719Y3966160D01*
G75*
G02*
X81581720Y4216159I0J249999D01*
G01*
X81581720Y4866161D01*
G75*
G02*
X81831719Y5116160I249999J0D01*
G01*
G37*
G36*
G01*
X81831719Y7166160D02*
X82731721Y7166160D01*
G75*
G02*
X82981720Y6916161I0J-249999D01*
G01*
X82981720Y6266159D01*
G75*
G02*
X82731721Y6016160I-249999J0D01*
G01*
X81831719Y6016160D01*
G75*
G02*
X81581720Y6266159I0J249999D01*
G01*
X81581720Y6916161D01*
G75*
G02*
X81831719Y7166160I249999J0D01*
G01*
G37*
G36*
G01*
X152273361Y5988220D02*
X151373359Y5988220D01*
G75*
G02*
X151123360Y6238219I0J249999D01*
G01*
X151123360Y6888221D01*
G75*
G02*
X151373359Y7138220I249999J0D01*
G01*
X152273361Y7138220D01*
G75*
G02*
X152523360Y6888221I0J-249999D01*
G01*
X152523360Y6238219D01*
G75*
G02*
X152273361Y5988220I-249999J0D01*
G01*
G37*
G36*
G01*
X152273361Y3938220D02*
X151373359Y3938220D01*
G75*
G02*
X151123360Y4188219I0J249999D01*
G01*
X151123360Y4838221D01*
G75*
G02*
X151373359Y5088220I249999J0D01*
G01*
X152273361Y5088220D01*
G75*
G02*
X152523360Y4838221I0J-249999D01*
G01*
X152523360Y4188219D01*
G75*
G02*
X152273361Y3938220I-249999J0D01*
G01*
G37*
G36*
G01*
X47092139Y5116160D02*
X47992141Y5116160D01*
G75*
G02*
X48242140Y4866161I0J-249999D01*
G01*
X48242140Y4216159D01*
G75*
G02*
X47992141Y3966160I-249999J0D01*
G01*
X47092139Y3966160D01*
G75*
G02*
X46842140Y4216159I0J249999D01*
G01*
X46842140Y4866161D01*
G75*
G02*
X47092139Y5116160I249999J0D01*
G01*
G37*
G36*
G01*
X47092139Y7166160D02*
X47992141Y7166160D01*
G75*
G02*
X48242140Y6916161I0J-249999D01*
G01*
X48242140Y6266159D01*
G75*
G02*
X47992141Y6016160I-249999J0D01*
G01*
X47092139Y6016160D01*
G75*
G02*
X46842140Y6266159I0J249999D01*
G01*
X46842140Y6916161D01*
G75*
G02*
X47092139Y7166160I249999J0D01*
G01*
G37*
G36*
G01*
X129460780Y3290741D02*
X129460780Y2390739D01*
G75*
G02*
X129210781Y2140740I-249999J0D01*
G01*
X128560779Y2140740D01*
G75*
G02*
X128310780Y2390739I0J249999D01*
G01*
X128310780Y3290741D01*
G75*
G02*
X128560779Y3540740I249999J0D01*
G01*
X129210781Y3540740D01*
G75*
G02*
X129460780Y3290741I0J-249999D01*
G01*
G37*
G36*
G01*
X131510780Y3290741D02*
X131510780Y2390739D01*
G75*
G02*
X131260781Y2140740I-249999J0D01*
G01*
X130610779Y2140740D01*
G75*
G02*
X130360780Y2390739I0J249999D01*
G01*
X130360780Y3290741D01*
G75*
G02*
X130610779Y3540740I249999J0D01*
G01*
X131260781Y3540740D01*
G75*
G02*
X131510780Y3290741I0J-249999D01*
G01*
G37*
G36*
G01*
X85310780Y9046640D02*
X85610780Y9046640D01*
G75*
G02*
X85760780Y8896640I0J-150000D01*
G01*
X85760780Y7246640D01*
G75*
G02*
X85610780Y7096640I-150000J0D01*
G01*
X85310780Y7096640D01*
G75*
G02*
X85160780Y7246640I0J150000D01*
G01*
X85160780Y8896640D01*
G75*
G02*
X85310780Y9046640I150000J0D01*
G01*
G37*
G36*
G01*
X86580780Y9046640D02*
X86880780Y9046640D01*
G75*
G02*
X87030780Y8896640I0J-150000D01*
G01*
X87030780Y7246640D01*
G75*
G02*
X86880780Y7096640I-150000J0D01*
G01*
X86580780Y7096640D01*
G75*
G02*
X86430780Y7246640I0J150000D01*
G01*
X86430780Y8896640D01*
G75*
G02*
X86580780Y9046640I150000J0D01*
G01*
G37*
G36*
G01*
X87850780Y9046640D02*
X88150780Y9046640D01*
G75*
G02*
X88300780Y8896640I0J-150000D01*
G01*
X88300780Y7246640D01*
G75*
G02*
X88150780Y7096640I-150000J0D01*
G01*
X87850780Y7096640D01*
G75*
G02*
X87700780Y7246640I0J150000D01*
G01*
X87700780Y8896640D01*
G75*
G02*
X87850780Y9046640I150000J0D01*
G01*
G37*
G36*
G01*
X89120780Y9046640D02*
X89420780Y9046640D01*
G75*
G02*
X89570780Y8896640I0J-150000D01*
G01*
X89570780Y7246640D01*
G75*
G02*
X89420780Y7096640I-150000J0D01*
G01*
X89120780Y7096640D01*
G75*
G02*
X88970780Y7246640I0J150000D01*
G01*
X88970780Y8896640D01*
G75*
G02*
X89120780Y9046640I150000J0D01*
G01*
G37*
G36*
G01*
X90390780Y9046640D02*
X90690780Y9046640D01*
G75*
G02*
X90840780Y8896640I0J-150000D01*
G01*
X90840780Y7246640D01*
G75*
G02*
X90690780Y7096640I-150000J0D01*
G01*
X90390780Y7096640D01*
G75*
G02*
X90240780Y7246640I0J150000D01*
G01*
X90240780Y8896640D01*
G75*
G02*
X90390780Y9046640I150000J0D01*
G01*
G37*
G36*
G01*
X91660780Y9046640D02*
X91960780Y9046640D01*
G75*
G02*
X92110780Y8896640I0J-150000D01*
G01*
X92110780Y7246640D01*
G75*
G02*
X91960780Y7096640I-150000J0D01*
G01*
X91660780Y7096640D01*
G75*
G02*
X91510780Y7246640I0J150000D01*
G01*
X91510780Y8896640D01*
G75*
G02*
X91660780Y9046640I150000J0D01*
G01*
G37*
G36*
G01*
X92930780Y9046640D02*
X93230780Y9046640D01*
G75*
G02*
X93380780Y8896640I0J-150000D01*
G01*
X93380780Y7246640D01*
G75*
G02*
X93230780Y7096640I-150000J0D01*
G01*
X92930780Y7096640D01*
G75*
G02*
X92780780Y7246640I0J150000D01*
G01*
X92780780Y8896640D01*
G75*
G02*
X92930780Y9046640I150000J0D01*
G01*
G37*
G36*
G01*
X94200780Y9046640D02*
X94500780Y9046640D01*
G75*
G02*
X94650780Y8896640I0J-150000D01*
G01*
X94650780Y7246640D01*
G75*
G02*
X94500780Y7096640I-150000J0D01*
G01*
X94200780Y7096640D01*
G75*
G02*
X94050780Y7246640I0J150000D01*
G01*
X94050780Y8896640D01*
G75*
G02*
X94200780Y9046640I150000J0D01*
G01*
G37*
G36*
G01*
X94200780Y4096640D02*
X94500780Y4096640D01*
G75*
G02*
X94650780Y3946640I0J-150000D01*
G01*
X94650780Y2296640D01*
G75*
G02*
X94500780Y2146640I-150000J0D01*
G01*
X94200780Y2146640D01*
G75*
G02*
X94050780Y2296640I0J150000D01*
G01*
X94050780Y3946640D01*
G75*
G02*
X94200780Y4096640I150000J0D01*
G01*
G37*
G36*
G01*
X92930780Y4096640D02*
X93230780Y4096640D01*
G75*
G02*
X93380780Y3946640I0J-150000D01*
G01*
X93380780Y2296640D01*
G75*
G02*
X93230780Y2146640I-150000J0D01*
G01*
X92930780Y2146640D01*
G75*
G02*
X92780780Y2296640I0J150000D01*
G01*
X92780780Y3946640D01*
G75*
G02*
X92930780Y4096640I150000J0D01*
G01*
G37*
G36*
G01*
X91660780Y4096640D02*
X91960780Y4096640D01*
G75*
G02*
X92110780Y3946640I0J-150000D01*
G01*
X92110780Y2296640D01*
G75*
G02*
X91960780Y2146640I-150000J0D01*
G01*
X91660780Y2146640D01*
G75*
G02*
X91510780Y2296640I0J150000D01*
G01*
X91510780Y3946640D01*
G75*
G02*
X91660780Y4096640I150000J0D01*
G01*
G37*
G36*
G01*
X90390780Y4096640D02*
X90690780Y4096640D01*
G75*
G02*
X90840780Y3946640I0J-150000D01*
G01*
X90840780Y2296640D01*
G75*
G02*
X90690780Y2146640I-150000J0D01*
G01*
X90390780Y2146640D01*
G75*
G02*
X90240780Y2296640I0J150000D01*
G01*
X90240780Y3946640D01*
G75*
G02*
X90390780Y4096640I150000J0D01*
G01*
G37*
G36*
G01*
X89120780Y4096640D02*
X89420780Y4096640D01*
G75*
G02*
X89570780Y3946640I0J-150000D01*
G01*
X89570780Y2296640D01*
G75*
G02*
X89420780Y2146640I-150000J0D01*
G01*
X89120780Y2146640D01*
G75*
G02*
X88970780Y2296640I0J150000D01*
G01*
X88970780Y3946640D01*
G75*
G02*
X89120780Y4096640I150000J0D01*
G01*
G37*
G36*
G01*
X87850780Y4096640D02*
X88150780Y4096640D01*
G75*
G02*
X88300780Y3946640I0J-150000D01*
G01*
X88300780Y2296640D01*
G75*
G02*
X88150780Y2146640I-150000J0D01*
G01*
X87850780Y2146640D01*
G75*
G02*
X87700780Y2296640I0J150000D01*
G01*
X87700780Y3946640D01*
G75*
G02*
X87850780Y4096640I150000J0D01*
G01*
G37*
G36*
G01*
X86580780Y4096640D02*
X86880780Y4096640D01*
G75*
G02*
X87030780Y3946640I0J-150000D01*
G01*
X87030780Y2296640D01*
G75*
G02*
X86880780Y2146640I-150000J0D01*
G01*
X86580780Y2146640D01*
G75*
G02*
X86430780Y2296640I0J150000D01*
G01*
X86430780Y3946640D01*
G75*
G02*
X86580780Y4096640I150000J0D01*
G01*
G37*
G36*
G01*
X85310780Y4096640D02*
X85610780Y4096640D01*
G75*
G02*
X85760780Y3946640I0J-150000D01*
G01*
X85760780Y2296640D01*
G75*
G02*
X85610780Y2146640I-150000J0D01*
G01*
X85310780Y2146640D01*
G75*
G02*
X85160780Y2296640I0J150000D01*
G01*
X85160780Y3946640D01*
G75*
G02*
X85310780Y4096640I150000J0D01*
G01*
G37*
D10*
X153305720Y9011820D03*
D11*
X153305720Y9811820D03*
D10*
X153305720Y11411820D03*
D11*
X153305720Y10611820D03*
D10*
X155105720Y9011820D03*
D11*
X155105720Y10611820D03*
X155105720Y9811820D03*
D10*
X155105720Y11411820D03*
G36*
G01*
X133671380Y4651620D02*
X133671380Y4951620D01*
G75*
G02*
X133821380Y5101620I150000J0D01*
G01*
X135471380Y5101620D01*
G75*
G02*
X135621380Y4951620I0J-150000D01*
G01*
X135621380Y4651620D01*
G75*
G02*
X135471380Y4501620I-150000J0D01*
G01*
X133821380Y4501620D01*
G75*
G02*
X133671380Y4651620I0J150000D01*
G01*
G37*
G36*
G01*
X133671380Y5921620D02*
X133671380Y6221620D01*
G75*
G02*
X133821380Y6371620I150000J0D01*
G01*
X135471380Y6371620D01*
G75*
G02*
X135621380Y6221620I0J-150000D01*
G01*
X135621380Y5921620D01*
G75*
G02*
X135471380Y5771620I-150000J0D01*
G01*
X133821380Y5771620D01*
G75*
G02*
X133671380Y5921620I0J150000D01*
G01*
G37*
G36*
G01*
X133671380Y7191620D02*
X133671380Y7491620D01*
G75*
G02*
X133821380Y7641620I150000J0D01*
G01*
X135471380Y7641620D01*
G75*
G02*
X135621380Y7491620I0J-150000D01*
G01*
X135621380Y7191620D01*
G75*
G02*
X135471380Y7041620I-150000J0D01*
G01*
X133821380Y7041620D01*
G75*
G02*
X133671380Y7191620I0J150000D01*
G01*
G37*
G36*
G01*
X133671380Y8461620D02*
X133671380Y8761620D01*
G75*
G02*
X133821380Y8911620I150000J0D01*
G01*
X135471380Y8911620D01*
G75*
G02*
X135621380Y8761620I0J-150000D01*
G01*
X135621380Y8461620D01*
G75*
G02*
X135471380Y8311620I-150000J0D01*
G01*
X133821380Y8311620D01*
G75*
G02*
X133671380Y8461620I0J150000D01*
G01*
G37*
G36*
G01*
X128721380Y8461620D02*
X128721380Y8761620D01*
G75*
G02*
X128871380Y8911620I150000J0D01*
G01*
X130521380Y8911620D01*
G75*
G02*
X130671380Y8761620I0J-150000D01*
G01*
X130671380Y8461620D01*
G75*
G02*
X130521380Y8311620I-150000J0D01*
G01*
X128871380Y8311620D01*
G75*
G02*
X128721380Y8461620I0J150000D01*
G01*
G37*
G36*
G01*
X128721380Y7191620D02*
X128721380Y7491620D01*
G75*
G02*
X128871380Y7641620I150000J0D01*
G01*
X130521380Y7641620D01*
G75*
G02*
X130671380Y7491620I0J-150000D01*
G01*
X130671380Y7191620D01*
G75*
G02*
X130521380Y7041620I-150000J0D01*
G01*
X128871380Y7041620D01*
G75*
G02*
X128721380Y7191620I0J150000D01*
G01*
G37*
G36*
G01*
X128721380Y5921620D02*
X128721380Y6221620D01*
G75*
G02*
X128871380Y6371620I150000J0D01*
G01*
X130521380Y6371620D01*
G75*
G02*
X130671380Y6221620I0J-150000D01*
G01*
X130671380Y5921620D01*
G75*
G02*
X130521380Y5771620I-150000J0D01*
G01*
X128871380Y5771620D01*
G75*
G02*
X128721380Y5921620I0J150000D01*
G01*
G37*
G36*
G01*
X128721380Y4651620D02*
X128721380Y4951620D01*
G75*
G02*
X128871380Y5101620I150000J0D01*
G01*
X130521380Y5101620D01*
G75*
G02*
X130671380Y4951620I0J-150000D01*
G01*
X130671380Y4651620D01*
G75*
G02*
X130521380Y4501620I-150000J0D01*
G01*
X128871380Y4501620D01*
G75*
G02*
X128721380Y4651620I0J150000D01*
G01*
G37*
G36*
G01*
X117342720Y4096640D02*
X117642720Y4096640D01*
G75*
G02*
X117792720Y3946640I0J-150000D01*
G01*
X117792720Y2296640D01*
G75*
G02*
X117642720Y2146640I-150000J0D01*
G01*
X117342720Y2146640D01*
G75*
G02*
X117192720Y2296640I0J150000D01*
G01*
X117192720Y3946640D01*
G75*
G02*
X117342720Y4096640I150000J0D01*
G01*
G37*
G36*
G01*
X118612720Y4096640D02*
X118912720Y4096640D01*
G75*
G02*
X119062720Y3946640I0J-150000D01*
G01*
X119062720Y2296640D01*
G75*
G02*
X118912720Y2146640I-150000J0D01*
G01*
X118612720Y2146640D01*
G75*
G02*
X118462720Y2296640I0J150000D01*
G01*
X118462720Y3946640D01*
G75*
G02*
X118612720Y4096640I150000J0D01*
G01*
G37*
G36*
G01*
X119882720Y4096640D02*
X120182720Y4096640D01*
G75*
G02*
X120332720Y3946640I0J-150000D01*
G01*
X120332720Y2296640D01*
G75*
G02*
X120182720Y2146640I-150000J0D01*
G01*
X119882720Y2146640D01*
G75*
G02*
X119732720Y2296640I0J150000D01*
G01*
X119732720Y3946640D01*
G75*
G02*
X119882720Y4096640I150000J0D01*
G01*
G37*
G36*
G01*
X121152720Y4096640D02*
X121452720Y4096640D01*
G75*
G02*
X121602720Y3946640I0J-150000D01*
G01*
X121602720Y2296640D01*
G75*
G02*
X121452720Y2146640I-150000J0D01*
G01*
X121152720Y2146640D01*
G75*
G02*
X121002720Y2296640I0J150000D01*
G01*
X121002720Y3946640D01*
G75*
G02*
X121152720Y4096640I150000J0D01*
G01*
G37*
G36*
G01*
X122422720Y4096640D02*
X122722720Y4096640D01*
G75*
G02*
X122872720Y3946640I0J-150000D01*
G01*
X122872720Y2296640D01*
G75*
G02*
X122722720Y2146640I-150000J0D01*
G01*
X122422720Y2146640D01*
G75*
G02*
X122272720Y2296640I0J150000D01*
G01*
X122272720Y3946640D01*
G75*
G02*
X122422720Y4096640I150000J0D01*
G01*
G37*
G36*
G01*
X123692720Y4096640D02*
X123992720Y4096640D01*
G75*
G02*
X124142720Y3946640I0J-150000D01*
G01*
X124142720Y2296640D01*
G75*
G02*
X123992720Y2146640I-150000J0D01*
G01*
X123692720Y2146640D01*
G75*
G02*
X123542720Y2296640I0J150000D01*
G01*
X123542720Y3946640D01*
G75*
G02*
X123692720Y4096640I150000J0D01*
G01*
G37*
G36*
G01*
X124962720Y4096640D02*
X125262720Y4096640D01*
G75*
G02*
X125412720Y3946640I0J-150000D01*
G01*
X125412720Y2296640D01*
G75*
G02*
X125262720Y2146640I-150000J0D01*
G01*
X124962720Y2146640D01*
G75*
G02*
X124812720Y2296640I0J150000D01*
G01*
X124812720Y3946640D01*
G75*
G02*
X124962720Y4096640I150000J0D01*
G01*
G37*
G36*
G01*
X126232720Y4096640D02*
X126532720Y4096640D01*
G75*
G02*
X126682720Y3946640I0J-150000D01*
G01*
X126682720Y2296640D01*
G75*
G02*
X126532720Y2146640I-150000J0D01*
G01*
X126232720Y2146640D01*
G75*
G02*
X126082720Y2296640I0J150000D01*
G01*
X126082720Y3946640D01*
G75*
G02*
X126232720Y4096640I150000J0D01*
G01*
G37*
G36*
G01*
X126232720Y9046640D02*
X126532720Y9046640D01*
G75*
G02*
X126682720Y8896640I0J-150000D01*
G01*
X126682720Y7246640D01*
G75*
G02*
X126532720Y7096640I-150000J0D01*
G01*
X126232720Y7096640D01*
G75*
G02*
X126082720Y7246640I0J150000D01*
G01*
X126082720Y8896640D01*
G75*
G02*
X126232720Y9046640I150000J0D01*
G01*
G37*
G36*
G01*
X124962720Y9046640D02*
X125262720Y9046640D01*
G75*
G02*
X125412720Y8896640I0J-150000D01*
G01*
X125412720Y7246640D01*
G75*
G02*
X125262720Y7096640I-150000J0D01*
G01*
X124962720Y7096640D01*
G75*
G02*
X124812720Y7246640I0J150000D01*
G01*
X124812720Y8896640D01*
G75*
G02*
X124962720Y9046640I150000J0D01*
G01*
G37*
G36*
G01*
X123692720Y9046640D02*
X123992720Y9046640D01*
G75*
G02*
X124142720Y8896640I0J-150000D01*
G01*
X124142720Y7246640D01*
G75*
G02*
X123992720Y7096640I-150000J0D01*
G01*
X123692720Y7096640D01*
G75*
G02*
X123542720Y7246640I0J150000D01*
G01*
X123542720Y8896640D01*
G75*
G02*
X123692720Y9046640I150000J0D01*
G01*
G37*
G36*
G01*
X122422720Y9046640D02*
X122722720Y9046640D01*
G75*
G02*
X122872720Y8896640I0J-150000D01*
G01*
X122872720Y7246640D01*
G75*
G02*
X122722720Y7096640I-150000J0D01*
G01*
X122422720Y7096640D01*
G75*
G02*
X122272720Y7246640I0J150000D01*
G01*
X122272720Y8896640D01*
G75*
G02*
X122422720Y9046640I150000J0D01*
G01*
G37*
G36*
G01*
X121152720Y9046640D02*
X121452720Y9046640D01*
G75*
G02*
X121602720Y8896640I0J-150000D01*
G01*
X121602720Y7246640D01*
G75*
G02*
X121452720Y7096640I-150000J0D01*
G01*
X121152720Y7096640D01*
G75*
G02*
X121002720Y7246640I0J150000D01*
G01*
X121002720Y8896640D01*
G75*
G02*
X121152720Y9046640I150000J0D01*
G01*
G37*
G36*
G01*
X119882720Y9046640D02*
X120182720Y9046640D01*
G75*
G02*
X120332720Y8896640I0J-150000D01*
G01*
X120332720Y7246640D01*
G75*
G02*
X120182720Y7096640I-150000J0D01*
G01*
X119882720Y7096640D01*
G75*
G02*
X119732720Y7246640I0J150000D01*
G01*
X119732720Y8896640D01*
G75*
G02*
X119882720Y9046640I150000J0D01*
G01*
G37*
G36*
G01*
X118612720Y9046640D02*
X118912720Y9046640D01*
G75*
G02*
X119062720Y8896640I0J-150000D01*
G01*
X119062720Y7246640D01*
G75*
G02*
X118912720Y7096640I-150000J0D01*
G01*
X118612720Y7096640D01*
G75*
G02*
X118462720Y7246640I0J150000D01*
G01*
X118462720Y8896640D01*
G75*
G02*
X118612720Y9046640I150000J0D01*
G01*
G37*
G36*
G01*
X117342720Y9046640D02*
X117642720Y9046640D01*
G75*
G02*
X117792720Y8896640I0J-150000D01*
G01*
X117792720Y7246640D01*
G75*
G02*
X117642720Y7096640I-150000J0D01*
G01*
X117342720Y7096640D01*
G75*
G02*
X117192720Y7246640I0J150000D01*
G01*
X117192720Y8896640D01*
G75*
G02*
X117342720Y9046640I150000J0D01*
G01*
G37*
G36*
G01*
X141792760Y8630080D02*
X142092760Y8630080D01*
G75*
G02*
X142242760Y8480080I0J-150000D01*
G01*
X142242760Y6830080D01*
G75*
G02*
X142092760Y6680080I-150000J0D01*
G01*
X141792760Y6680080D01*
G75*
G02*
X141642760Y6830080I0J150000D01*
G01*
X141642760Y8480080D01*
G75*
G02*
X141792760Y8630080I150000J0D01*
G01*
G37*
G36*
G01*
X143062760Y8630080D02*
X143362760Y8630080D01*
G75*
G02*
X143512760Y8480080I0J-150000D01*
G01*
X143512760Y6830080D01*
G75*
G02*
X143362760Y6680080I-150000J0D01*
G01*
X143062760Y6680080D01*
G75*
G02*
X142912760Y6830080I0J150000D01*
G01*
X142912760Y8480080D01*
G75*
G02*
X143062760Y8630080I150000J0D01*
G01*
G37*
G36*
G01*
X144332760Y8630080D02*
X144632760Y8630080D01*
G75*
G02*
X144782760Y8480080I0J-150000D01*
G01*
X144782760Y6830080D01*
G75*
G02*
X144632760Y6680080I-150000J0D01*
G01*
X144332760Y6680080D01*
G75*
G02*
X144182760Y6830080I0J150000D01*
G01*
X144182760Y8480080D01*
G75*
G02*
X144332760Y8630080I150000J0D01*
G01*
G37*
G36*
G01*
X145602760Y8630080D02*
X145902760Y8630080D01*
G75*
G02*
X146052760Y8480080I0J-150000D01*
G01*
X146052760Y6830080D01*
G75*
G02*
X145902760Y6680080I-150000J0D01*
G01*
X145602760Y6680080D01*
G75*
G02*
X145452760Y6830080I0J150000D01*
G01*
X145452760Y8480080D01*
G75*
G02*
X145602760Y8630080I150000J0D01*
G01*
G37*
G36*
G01*
X146872760Y8630080D02*
X147172760Y8630080D01*
G75*
G02*
X147322760Y8480080I0J-150000D01*
G01*
X147322760Y6830080D01*
G75*
G02*
X147172760Y6680080I-150000J0D01*
G01*
X146872760Y6680080D01*
G75*
G02*
X146722760Y6830080I0J150000D01*
G01*
X146722760Y8480080D01*
G75*
G02*
X146872760Y8630080I150000J0D01*
G01*
G37*
G36*
G01*
X148142760Y8630080D02*
X148442760Y8630080D01*
G75*
G02*
X148592760Y8480080I0J-150000D01*
G01*
X148592760Y6830080D01*
G75*
G02*
X148442760Y6680080I-150000J0D01*
G01*
X148142760Y6680080D01*
G75*
G02*
X147992760Y6830080I0J150000D01*
G01*
X147992760Y8480080D01*
G75*
G02*
X148142760Y8630080I150000J0D01*
G01*
G37*
G36*
G01*
X149412760Y8630080D02*
X149712760Y8630080D01*
G75*
G02*
X149862760Y8480080I0J-150000D01*
G01*
X149862760Y6830080D01*
G75*
G02*
X149712760Y6680080I-150000J0D01*
G01*
X149412760Y6680080D01*
G75*
G02*
X149262760Y6830080I0J150000D01*
G01*
X149262760Y8480080D01*
G75*
G02*
X149412760Y8630080I150000J0D01*
G01*
G37*
G36*
G01*
X149412760Y3680080D02*
X149712760Y3680080D01*
G75*
G02*
X149862760Y3530080I0J-150000D01*
G01*
X149862760Y1880080D01*
G75*
G02*
X149712760Y1730080I-150000J0D01*
G01*
X149412760Y1730080D01*
G75*
G02*
X149262760Y1880080I0J150000D01*
G01*
X149262760Y3530080D01*
G75*
G02*
X149412760Y3680080I150000J0D01*
G01*
G37*
G36*
G01*
X148142760Y3680080D02*
X148442760Y3680080D01*
G75*
G02*
X148592760Y3530080I0J-150000D01*
G01*
X148592760Y1880080D01*
G75*
G02*
X148442760Y1730080I-150000J0D01*
G01*
X148142760Y1730080D01*
G75*
G02*
X147992760Y1880080I0J150000D01*
G01*
X147992760Y3530080D01*
G75*
G02*
X148142760Y3680080I150000J0D01*
G01*
G37*
G36*
G01*
X146872760Y3680080D02*
X147172760Y3680080D01*
G75*
G02*
X147322760Y3530080I0J-150000D01*
G01*
X147322760Y1880080D01*
G75*
G02*
X147172760Y1730080I-150000J0D01*
G01*
X146872760Y1730080D01*
G75*
G02*
X146722760Y1880080I0J150000D01*
G01*
X146722760Y3530080D01*
G75*
G02*
X146872760Y3680080I150000J0D01*
G01*
G37*
G36*
G01*
X145602760Y3680080D02*
X145902760Y3680080D01*
G75*
G02*
X146052760Y3530080I0J-150000D01*
G01*
X146052760Y1880080D01*
G75*
G02*
X145902760Y1730080I-150000J0D01*
G01*
X145602760Y1730080D01*
G75*
G02*
X145452760Y1880080I0J150000D01*
G01*
X145452760Y3530080D01*
G75*
G02*
X145602760Y3680080I150000J0D01*
G01*
G37*
G36*
G01*
X144332760Y3680080D02*
X144632760Y3680080D01*
G75*
G02*
X144782760Y3530080I0J-150000D01*
G01*
X144782760Y1880080D01*
G75*
G02*
X144632760Y1730080I-150000J0D01*
G01*
X144332760Y1730080D01*
G75*
G02*
X144182760Y1880080I0J150000D01*
G01*
X144182760Y3530080D01*
G75*
G02*
X144332760Y3680080I150000J0D01*
G01*
G37*
G36*
G01*
X143062760Y3680080D02*
X143362760Y3680080D01*
G75*
G02*
X143512760Y3530080I0J-150000D01*
G01*
X143512760Y1880080D01*
G75*
G02*
X143362760Y1730080I-150000J0D01*
G01*
X143062760Y1730080D01*
G75*
G02*
X142912760Y1880080I0J150000D01*
G01*
X142912760Y3530080D01*
G75*
G02*
X143062760Y3680080I150000J0D01*
G01*
G37*
G36*
G01*
X141792760Y3680080D02*
X142092760Y3680080D01*
G75*
G02*
X142242760Y3530080I0J-150000D01*
G01*
X142242760Y1880080D01*
G75*
G02*
X142092760Y1730080I-150000J0D01*
G01*
X141792760Y1730080D01*
G75*
G02*
X141642760Y1880080I0J150000D01*
G01*
X141642760Y3530080D01*
G75*
G02*
X141792760Y3680080I150000J0D01*
G01*
G37*
G36*
G01*
X50964900Y4096640D02*
X51264900Y4096640D01*
G75*
G02*
X51414900Y3946640I0J-150000D01*
G01*
X51414900Y2296640D01*
G75*
G02*
X51264900Y2146640I-150000J0D01*
G01*
X50964900Y2146640D01*
G75*
G02*
X50814900Y2296640I0J150000D01*
G01*
X50814900Y3946640D01*
G75*
G02*
X50964900Y4096640I150000J0D01*
G01*
G37*
G36*
G01*
X52234900Y4096640D02*
X52534900Y4096640D01*
G75*
G02*
X52684900Y3946640I0J-150000D01*
G01*
X52684900Y2296640D01*
G75*
G02*
X52534900Y2146640I-150000J0D01*
G01*
X52234900Y2146640D01*
G75*
G02*
X52084900Y2296640I0J150000D01*
G01*
X52084900Y3946640D01*
G75*
G02*
X52234900Y4096640I150000J0D01*
G01*
G37*
G36*
G01*
X53504900Y4096640D02*
X53804900Y4096640D01*
G75*
G02*
X53954900Y3946640I0J-150000D01*
G01*
X53954900Y2296640D01*
G75*
G02*
X53804900Y2146640I-150000J0D01*
G01*
X53504900Y2146640D01*
G75*
G02*
X53354900Y2296640I0J150000D01*
G01*
X53354900Y3946640D01*
G75*
G02*
X53504900Y4096640I150000J0D01*
G01*
G37*
G36*
G01*
X54774900Y4096640D02*
X55074900Y4096640D01*
G75*
G02*
X55224900Y3946640I0J-150000D01*
G01*
X55224900Y2296640D01*
G75*
G02*
X55074900Y2146640I-150000J0D01*
G01*
X54774900Y2146640D01*
G75*
G02*
X54624900Y2296640I0J150000D01*
G01*
X54624900Y3946640D01*
G75*
G02*
X54774900Y4096640I150000J0D01*
G01*
G37*
G36*
G01*
X56044900Y4096640D02*
X56344900Y4096640D01*
G75*
G02*
X56494900Y3946640I0J-150000D01*
G01*
X56494900Y2296640D01*
G75*
G02*
X56344900Y2146640I-150000J0D01*
G01*
X56044900Y2146640D01*
G75*
G02*
X55894900Y2296640I0J150000D01*
G01*
X55894900Y3946640D01*
G75*
G02*
X56044900Y4096640I150000J0D01*
G01*
G37*
G36*
G01*
X57314900Y4096640D02*
X57614900Y4096640D01*
G75*
G02*
X57764900Y3946640I0J-150000D01*
G01*
X57764900Y2296640D01*
G75*
G02*
X57614900Y2146640I-150000J0D01*
G01*
X57314900Y2146640D01*
G75*
G02*
X57164900Y2296640I0J150000D01*
G01*
X57164900Y3946640D01*
G75*
G02*
X57314900Y4096640I150000J0D01*
G01*
G37*
G36*
G01*
X58584900Y4096640D02*
X58884900Y4096640D01*
G75*
G02*
X59034900Y3946640I0J-150000D01*
G01*
X59034900Y2296640D01*
G75*
G02*
X58884900Y2146640I-150000J0D01*
G01*
X58584900Y2146640D01*
G75*
G02*
X58434900Y2296640I0J150000D01*
G01*
X58434900Y3946640D01*
G75*
G02*
X58584900Y4096640I150000J0D01*
G01*
G37*
G36*
G01*
X59854900Y4096640D02*
X60154900Y4096640D01*
G75*
G02*
X60304900Y3946640I0J-150000D01*
G01*
X60304900Y2296640D01*
G75*
G02*
X60154900Y2146640I-150000J0D01*
G01*
X59854900Y2146640D01*
G75*
G02*
X59704900Y2296640I0J150000D01*
G01*
X59704900Y3946640D01*
G75*
G02*
X59854900Y4096640I150000J0D01*
G01*
G37*
G36*
G01*
X59854900Y9046640D02*
X60154900Y9046640D01*
G75*
G02*
X60304900Y8896640I0J-150000D01*
G01*
X60304900Y7246640D01*
G75*
G02*
X60154900Y7096640I-150000J0D01*
G01*
X59854900Y7096640D01*
G75*
G02*
X59704900Y7246640I0J150000D01*
G01*
X59704900Y8896640D01*
G75*
G02*
X59854900Y9046640I150000J0D01*
G01*
G37*
G36*
G01*
X58584900Y9046640D02*
X58884900Y9046640D01*
G75*
G02*
X59034900Y8896640I0J-150000D01*
G01*
X59034900Y7246640D01*
G75*
G02*
X58884900Y7096640I-150000J0D01*
G01*
X58584900Y7096640D01*
G75*
G02*
X58434900Y7246640I0J150000D01*
G01*
X58434900Y8896640D01*
G75*
G02*
X58584900Y9046640I150000J0D01*
G01*
G37*
G36*
G01*
X57314900Y9046640D02*
X57614900Y9046640D01*
G75*
G02*
X57764900Y8896640I0J-150000D01*
G01*
X57764900Y7246640D01*
G75*
G02*
X57614900Y7096640I-150000J0D01*
G01*
X57314900Y7096640D01*
G75*
G02*
X57164900Y7246640I0J150000D01*
G01*
X57164900Y8896640D01*
G75*
G02*
X57314900Y9046640I150000J0D01*
G01*
G37*
G36*
G01*
X56044900Y9046640D02*
X56344900Y9046640D01*
G75*
G02*
X56494900Y8896640I0J-150000D01*
G01*
X56494900Y7246640D01*
G75*
G02*
X56344900Y7096640I-150000J0D01*
G01*
X56044900Y7096640D01*
G75*
G02*
X55894900Y7246640I0J150000D01*
G01*
X55894900Y8896640D01*
G75*
G02*
X56044900Y9046640I150000J0D01*
G01*
G37*
G36*
G01*
X54774900Y9046640D02*
X55074900Y9046640D01*
G75*
G02*
X55224900Y8896640I0J-150000D01*
G01*
X55224900Y7246640D01*
G75*
G02*
X55074900Y7096640I-150000J0D01*
G01*
X54774900Y7096640D01*
G75*
G02*
X54624900Y7246640I0J150000D01*
G01*
X54624900Y8896640D01*
G75*
G02*
X54774900Y9046640I150000J0D01*
G01*
G37*
G36*
G01*
X53504900Y9046640D02*
X53804900Y9046640D01*
G75*
G02*
X53954900Y8896640I0J-150000D01*
G01*
X53954900Y7246640D01*
G75*
G02*
X53804900Y7096640I-150000J0D01*
G01*
X53504900Y7096640D01*
G75*
G02*
X53354900Y7246640I0J150000D01*
G01*
X53354900Y8896640D01*
G75*
G02*
X53504900Y9046640I150000J0D01*
G01*
G37*
G36*
G01*
X52234900Y9046640D02*
X52534900Y9046640D01*
G75*
G02*
X52684900Y8896640I0J-150000D01*
G01*
X52684900Y7246640D01*
G75*
G02*
X52534900Y7096640I-150000J0D01*
G01*
X52234900Y7096640D01*
G75*
G02*
X52084900Y7246640I0J150000D01*
G01*
X52084900Y8896640D01*
G75*
G02*
X52234900Y9046640I150000J0D01*
G01*
G37*
G36*
G01*
X50964900Y9046640D02*
X51264900Y9046640D01*
G75*
G02*
X51414900Y8896640I0J-150000D01*
G01*
X51414900Y7246640D01*
G75*
G02*
X51264900Y7096640I-150000J0D01*
G01*
X50964900Y7096640D01*
G75*
G02*
X50814900Y7246640I0J150000D01*
G01*
X50814900Y8896640D01*
G75*
G02*
X50964900Y9046640I150000J0D01*
G01*
G37*
M02*
