G04 #@! TF.GenerationSoftware,KiCad,Pcbnew,5.1.6+dfsg1-1~bpo10+1*
G04 #@! TF.CreationDate,2020-08-19T20:33:55+03:00*
G04 #@! TF.ProjectId,CompactBeamspringP1,436f6d70-6163-4744-9265-616d73707269,0.0.3*
G04 #@! TF.SameCoordinates,PX66a9bd0PY78114e0*
G04 #@! TF.FileFunction,Legend,Bot*
G04 #@! TF.FilePolarity,Positive*
%FSLAX46Y46*%
G04 Gerber Fmt 4.6, Leading zero omitted, Abs format (unit mm)*
G04 Created by KiCad (PCBNEW 5.1.6+dfsg1-1~bpo10+1) date 2020-08-19 20:33:55*
%MOMM*%
%LPD*%
G01*
G04 APERTURE LIST*
%ADD10C,0.150000*%
%ADD11C,0.300000*%
%ADD12C,0.125000*%
%ADD13C,0.120000*%
G04 APERTURE END LIST*
D10*
X157242857Y17547620D02*
X156909523Y16547620D01*
X156576190Y17547620D01*
X155480952Y16547620D02*
X155480952Y17547620D01*
X155147619Y16833334D01*
X154814285Y17547620D01*
X154814285Y16547620D01*
X154195238Y16547620D02*
X154290476Y16595239D01*
X154338095Y16642858D01*
X154385714Y16738096D01*
X154385714Y17023810D01*
X154338095Y17119048D01*
X154290476Y17166667D01*
X154195238Y17214286D01*
X154052380Y17214286D01*
X153957142Y17166667D01*
X153909523Y17119048D01*
X153861904Y17023810D01*
X153861904Y16738096D01*
X153909523Y16642858D01*
X153957142Y16595239D01*
X154052380Y16547620D01*
X154195238Y16547620D01*
X153433333Y16547620D02*
X153433333Y17214286D01*
X153433333Y17023810D02*
X153385714Y17119048D01*
X153338095Y17166667D01*
X153242857Y17214286D01*
X153147619Y17214286D01*
X152433333Y16595239D02*
X152528571Y16547620D01*
X152719047Y16547620D01*
X152814285Y16595239D01*
X152861904Y16690477D01*
X152861904Y17071429D01*
X152814285Y17166667D01*
X152719047Y17214286D01*
X152528571Y17214286D01*
X152433333Y17166667D01*
X152385714Y17071429D01*
X152385714Y16976191D01*
X152861904Y16880953D01*
X151338095Y17214286D02*
X150957142Y17214286D01*
X151195238Y17547620D02*
X151195238Y16690477D01*
X151147619Y16595239D01*
X151052380Y16547620D01*
X150957142Y16547620D01*
X150480952Y16547620D02*
X150576190Y16595239D01*
X150623809Y16642858D01*
X150671428Y16738096D01*
X150671428Y17023810D01*
X150623809Y17119048D01*
X150576190Y17166667D01*
X150480952Y17214286D01*
X150338095Y17214286D01*
X150242857Y17166667D01*
X150195238Y17119048D01*
X150147619Y17023810D01*
X150147619Y16738096D01*
X150195238Y16642858D01*
X150242857Y16595239D01*
X150338095Y16547620D01*
X150480952Y16547620D01*
X149576190Y16547620D02*
X149671428Y16595239D01*
X149719047Y16642858D01*
X149766666Y16738096D01*
X149766666Y17023810D01*
X149719047Y17119048D01*
X149671428Y17166667D01*
X149576190Y17214286D01*
X149433333Y17214286D01*
X149338095Y17166667D01*
X149290476Y17119048D01*
X149242857Y17023810D01*
X149242857Y16738096D01*
X149290476Y16642858D01*
X149338095Y16595239D01*
X149433333Y16547620D01*
X149576190Y16547620D01*
X148671428Y16547620D02*
X148766666Y16595239D01*
X148814285Y16690477D01*
X148814285Y17547620D01*
X148290476Y16547620D02*
X148290476Y17214286D01*
X148290476Y17547620D02*
X148338095Y17500000D01*
X148290476Y17452381D01*
X148242857Y17500000D01*
X148290476Y17547620D01*
X148290476Y17452381D01*
X147814285Y17214286D02*
X147814285Y16547620D01*
X147814285Y17119048D02*
X147766666Y17166667D01*
X147671428Y17214286D01*
X147528571Y17214286D01*
X147433333Y17166667D01*
X147385714Y17071429D01*
X147385714Y16547620D01*
X146480952Y17214286D02*
X146480952Y16404762D01*
X146528571Y16309524D01*
X146576190Y16261905D01*
X146671428Y16214286D01*
X146814285Y16214286D01*
X146909523Y16261905D01*
X146480952Y16595239D02*
X146576190Y16547620D01*
X146766666Y16547620D01*
X146861904Y16595239D01*
X146909523Y16642858D01*
X146957142Y16738096D01*
X146957142Y17023810D01*
X146909523Y17119048D01*
X146861904Y17166667D01*
X146766666Y17214286D01*
X146576190Y17214286D01*
X146480952Y17166667D01*
X145242857Y16547620D02*
X145242857Y17547620D01*
X144814285Y16547620D02*
X144814285Y17071429D01*
X144861904Y17166667D01*
X144957142Y17214286D01*
X145100000Y17214286D01*
X145195238Y17166667D01*
X145242857Y17119048D01*
X144195238Y16547620D02*
X144290476Y16595239D01*
X144338095Y16642858D01*
X144385714Y16738096D01*
X144385714Y17023810D01*
X144338095Y17119048D01*
X144290476Y17166667D01*
X144195238Y17214286D01*
X144052380Y17214286D01*
X143957142Y17166667D01*
X143909523Y17119048D01*
X143861904Y17023810D01*
X143861904Y16738096D01*
X143909523Y16642858D01*
X143957142Y16595239D01*
X144052380Y16547620D01*
X144195238Y16547620D01*
X143290476Y16547620D02*
X143385714Y16595239D01*
X143433333Y16690477D01*
X143433333Y17547620D01*
X142528571Y16595239D02*
X142623809Y16547620D01*
X142814285Y16547620D01*
X142909523Y16595239D01*
X142957142Y16690477D01*
X142957142Y17071429D01*
X142909523Y17166667D01*
X142814285Y17214286D01*
X142623809Y17214286D01*
X142528571Y17166667D01*
X142480952Y17071429D01*
X142480952Y16976191D01*
X142957142Y16880953D01*
X142100000Y16595239D02*
X142004761Y16547620D01*
X141814285Y16547620D01*
X141719047Y16595239D01*
X141671428Y16690477D01*
X141671428Y16738096D01*
X141719047Y16833334D01*
X141814285Y16880953D01*
X141957142Y16880953D01*
X142052380Y16928572D01*
X142100000Y17023810D01*
X142100000Y17071429D01*
X142052380Y17166667D01*
X141957142Y17214286D01*
X141814285Y17214286D01*
X141719047Y17166667D01*
X140052380Y16547620D02*
X140052380Y17071429D01*
X140100000Y17166667D01*
X140195238Y17214286D01*
X140385714Y17214286D01*
X140480952Y17166667D01*
X140052380Y16595239D02*
X140147619Y16547620D01*
X140385714Y16547620D01*
X140480952Y16595239D01*
X140528571Y16690477D01*
X140528571Y16785715D01*
X140480952Y16880953D01*
X140385714Y16928572D01*
X140147619Y16928572D01*
X140052380Y16976191D01*
X139671428Y17214286D02*
X139433333Y16547620D01*
X139195238Y17214286D01*
X138385714Y16547620D02*
X138385714Y17071429D01*
X138433333Y17166667D01*
X138528571Y17214286D01*
X138719047Y17214286D01*
X138814285Y17166667D01*
X138385714Y16595239D02*
X138480952Y16547620D01*
X138719047Y16547620D01*
X138814285Y16595239D01*
X138861904Y16690477D01*
X138861904Y16785715D01*
X138814285Y16880953D01*
X138719047Y16928572D01*
X138480952Y16928572D01*
X138385714Y16976191D01*
X137909523Y16547620D02*
X137909523Y17214286D01*
X137909523Y17547620D02*
X137957142Y17500000D01*
X137909523Y17452381D01*
X137861904Y17500000D01*
X137909523Y17547620D01*
X137909523Y17452381D01*
X137290476Y16547620D02*
X137385714Y16595239D01*
X137433333Y16690477D01*
X137433333Y17547620D01*
X136480952Y16547620D02*
X136480952Y17071429D01*
X136528571Y17166667D01*
X136623809Y17214286D01*
X136814285Y17214286D01*
X136909523Y17166667D01*
X136480952Y16595239D02*
X136576190Y16547620D01*
X136814285Y16547620D01*
X136909523Y16595239D01*
X136957142Y16690477D01*
X136957142Y16785715D01*
X136909523Y16880953D01*
X136814285Y16928572D01*
X136576190Y16928572D01*
X136480952Y16976191D01*
X136004761Y16547620D02*
X136004761Y17547620D01*
X136004761Y17166667D02*
X135909523Y17214286D01*
X135719047Y17214286D01*
X135623809Y17166667D01*
X135576190Y17119048D01*
X135528571Y17023810D01*
X135528571Y16738096D01*
X135576190Y16642858D01*
X135623809Y16595239D01*
X135719047Y16547620D01*
X135909523Y16547620D01*
X136004761Y16595239D01*
X134957142Y16547620D02*
X135052380Y16595239D01*
X135100000Y16690477D01*
X135100000Y17547620D01*
X134195238Y16595239D02*
X134290476Y16547620D01*
X134480952Y16547620D01*
X134576190Y16595239D01*
X134623809Y16690477D01*
X134623809Y17071429D01*
X134576190Y17166667D01*
X134480952Y17214286D01*
X134290476Y17214286D01*
X134195238Y17166667D01*
X134147619Y17071429D01*
X134147619Y16976191D01*
X134623809Y16880953D01*
X132814285Y16547620D02*
X132909523Y16595239D01*
X132957142Y16642858D01*
X133004761Y16738096D01*
X133004761Y17023810D01*
X132957142Y17119048D01*
X132909523Y17166667D01*
X132814285Y17214286D01*
X132671428Y17214286D01*
X132576190Y17166667D01*
X132528571Y17119048D01*
X132480952Y17023810D01*
X132480952Y16738096D01*
X132528571Y16642858D01*
X132576190Y16595239D01*
X132671428Y16547620D01*
X132814285Y16547620D01*
X132052380Y17214286D02*
X132052380Y16547620D01*
X132052380Y17119048D02*
X132004761Y17166667D01*
X131909523Y17214286D01*
X131766666Y17214286D01*
X131671428Y17166667D01*
X131623809Y17071429D01*
X131623809Y16547620D01*
X130528571Y17214286D02*
X130147619Y17214286D01*
X130385714Y17547620D02*
X130385714Y16690477D01*
X130338095Y16595239D01*
X130242857Y16547620D01*
X130147619Y16547620D01*
X129814285Y16547620D02*
X129814285Y17547620D01*
X129385714Y16547620D02*
X129385714Y17071429D01*
X129433333Y17166667D01*
X129528571Y17214286D01*
X129671428Y17214286D01*
X129766666Y17166667D01*
X129814285Y17119048D01*
X128528571Y16595239D02*
X128623809Y16547620D01*
X128814285Y16547620D01*
X128909523Y16595239D01*
X128957142Y16690477D01*
X128957142Y17071429D01*
X128909523Y17166667D01*
X128814285Y17214286D01*
X128623809Y17214286D01*
X128528571Y17166667D01*
X128480952Y17071429D01*
X128480952Y16976191D01*
X128957142Y16880953D01*
X127147619Y16547620D02*
X127242857Y16595239D01*
X127290476Y16642858D01*
X127338095Y16738096D01*
X127338095Y17023810D01*
X127290476Y17119048D01*
X127242857Y17166667D01*
X127147619Y17214286D01*
X127004761Y17214286D01*
X126909523Y17166667D01*
X126861904Y17119048D01*
X126814285Y17023810D01*
X126814285Y16738096D01*
X126861904Y16642858D01*
X126909523Y16595239D01*
X127004761Y16547620D01*
X127147619Y16547620D01*
X126528571Y17214286D02*
X126147619Y17214286D01*
X126385714Y17547620D02*
X126385714Y16690477D01*
X126338095Y16595239D01*
X126242857Y16547620D01*
X126147619Y16547620D01*
X125814285Y16547620D02*
X125814285Y17547620D01*
X125385714Y16547620D02*
X125385714Y17071429D01*
X125433333Y17166667D01*
X125528571Y17214286D01*
X125671428Y17214286D01*
X125766666Y17166667D01*
X125814285Y17119048D01*
X124528571Y16595239D02*
X124623809Y16547620D01*
X124814285Y16547620D01*
X124909523Y16595239D01*
X124957142Y16690477D01*
X124957142Y17071429D01*
X124909523Y17166667D01*
X124814285Y17214286D01*
X124623809Y17214286D01*
X124528571Y17166667D01*
X124480952Y17071429D01*
X124480952Y16976191D01*
X124957142Y16880953D01*
X124052380Y16547620D02*
X124052380Y17214286D01*
X124052380Y17023810D02*
X124004761Y17119048D01*
X123957142Y17166667D01*
X123861904Y17214286D01*
X123766666Y17214286D01*
X122719047Y16595239D02*
X122623809Y16547620D01*
X122433333Y16547620D01*
X122338095Y16595239D01*
X122290476Y16690477D01*
X122290476Y16738096D01*
X122338095Y16833334D01*
X122433333Y16880953D01*
X122576190Y16880953D01*
X122671428Y16928572D01*
X122719047Y17023810D01*
X122719047Y17071429D01*
X122671428Y17166667D01*
X122576190Y17214286D01*
X122433333Y17214286D01*
X122338095Y17166667D01*
X121861904Y16547620D02*
X121861904Y17214286D01*
X121861904Y17547620D02*
X121909523Y17500000D01*
X121861904Y17452381D01*
X121814285Y17500000D01*
X121861904Y17547620D01*
X121861904Y17452381D01*
X120957142Y16547620D02*
X120957142Y17547620D01*
X120957142Y16595239D02*
X121052380Y16547620D01*
X121242857Y16547620D01*
X121338095Y16595239D01*
X121385714Y16642858D01*
X121433333Y16738096D01*
X121433333Y17023810D01*
X121385714Y17119048D01*
X121338095Y17166667D01*
X121242857Y17214286D01*
X121052380Y17214286D01*
X120957142Y17166667D01*
X120100000Y16595239D02*
X120195238Y16547620D01*
X120385714Y16547620D01*
X120480952Y16595239D01*
X120528571Y16690477D01*
X120528571Y17071429D01*
X120480952Y17166667D01*
X120385714Y17214286D01*
X120195238Y17214286D01*
X120100000Y17166667D01*
X120052380Y17071429D01*
X120052380Y16976191D01*
X120528571Y16880953D01*
D11*
X155407142Y22071429D02*
X156550000Y21642858D01*
X155407142Y21214286D01*
X153764285Y22571429D02*
X152907142Y22571429D01*
X153335714Y21071429D02*
X153335714Y22571429D01*
X152192857Y21071429D02*
X152335714Y21142858D01*
X152407142Y21214286D01*
X152478571Y21357143D01*
X152478571Y21785715D01*
X152407142Y21928572D01*
X152335714Y22000000D01*
X152192857Y22071429D01*
X151978571Y22071429D01*
X151835714Y22000000D01*
X151764285Y21928572D01*
X151692857Y21785715D01*
X151692857Y21357143D01*
X151764285Y21214286D01*
X151835714Y21142858D01*
X151978571Y21071429D01*
X152192857Y21071429D01*
X150835714Y21071429D02*
X150978571Y21142858D01*
X151050000Y21214286D01*
X151121428Y21357143D01*
X151121428Y21785715D01*
X151050000Y21928572D01*
X150978571Y22000000D01*
X150835714Y22071429D01*
X150621428Y22071429D01*
X150478571Y22000000D01*
X150407142Y21928572D01*
X150335714Y21785715D01*
X150335714Y21357143D01*
X150407142Y21214286D01*
X150478571Y21142858D01*
X150621428Y21071429D01*
X150835714Y21071429D01*
X149478571Y21071429D02*
X149621428Y21142858D01*
X149692857Y21285715D01*
X149692857Y22571429D01*
X148907142Y21071429D02*
X148907142Y22071429D01*
X148907142Y22571429D02*
X148978571Y22500000D01*
X148907142Y22428572D01*
X148835714Y22500000D01*
X148907142Y22571429D01*
X148907142Y22428572D01*
X148192857Y22071429D02*
X148192857Y21071429D01*
X148192857Y21928572D02*
X148121428Y22000000D01*
X147978571Y22071429D01*
X147764285Y22071429D01*
X147621428Y22000000D01*
X147550000Y21857143D01*
X147550000Y21071429D01*
X146192857Y22071429D02*
X146192857Y20857143D01*
X146264285Y20714286D01*
X146335714Y20642858D01*
X146478571Y20571429D01*
X146692857Y20571429D01*
X146835714Y20642858D01*
X146192857Y21142858D02*
X146335714Y21071429D01*
X146621428Y21071429D01*
X146764285Y21142858D01*
X146835714Y21214286D01*
X146907142Y21357143D01*
X146907142Y21785715D01*
X146835714Y21928572D01*
X146764285Y22000000D01*
X146621428Y22071429D01*
X146335714Y22071429D01*
X146192857Y22000000D01*
X144335714Y21071429D02*
X144335714Y22571429D01*
X144335714Y21857143D02*
X143478571Y21857143D01*
X143478571Y21071429D02*
X143478571Y22571429D01*
X142550000Y21071429D02*
X142692857Y21142858D01*
X142764285Y21214286D01*
X142835714Y21357143D01*
X142835714Y21785715D01*
X142764285Y21928572D01*
X142692857Y22000000D01*
X142550000Y22071429D01*
X142335714Y22071429D01*
X142192857Y22000000D01*
X142121428Y21928572D01*
X142050000Y21785715D01*
X142050000Y21357143D01*
X142121428Y21214286D01*
X142192857Y21142858D01*
X142335714Y21071429D01*
X142550000Y21071429D01*
X141192857Y21071429D02*
X141335714Y21142858D01*
X141407142Y21285715D01*
X141407142Y22571429D01*
X140050000Y21142858D02*
X140192857Y21071429D01*
X140478571Y21071429D01*
X140621428Y21142858D01*
X140692857Y21285715D01*
X140692857Y21857143D01*
X140621428Y22000000D01*
X140478571Y22071429D01*
X140192857Y22071429D01*
X140050000Y22000000D01*
X139978571Y21857143D01*
X139978571Y21714286D01*
X140692857Y21571429D01*
X93728571Y22421429D02*
X93728571Y21350000D01*
X93800000Y21135715D01*
X93942857Y20992858D01*
X94157142Y20921429D01*
X94300000Y20921429D01*
X92300000Y20921429D02*
X93014285Y20921429D01*
X93014285Y22421429D01*
X90942857Y21064286D02*
X91014285Y20992858D01*
X91228571Y20921429D01*
X91371428Y20921429D01*
X91585714Y20992858D01*
X91728571Y21135715D01*
X91800000Y21278572D01*
X91871428Y21564286D01*
X91871428Y21778572D01*
X91800000Y22064286D01*
X91728571Y22207143D01*
X91585714Y22350000D01*
X91371428Y22421429D01*
X91228571Y22421429D01*
X91014285Y22350000D01*
X90942857Y22278572D01*
X89871428Y22421429D02*
X89871428Y21350000D01*
X89942857Y21135715D01*
X90085714Y20992858D01*
X90300000Y20921429D01*
X90442857Y20921429D01*
X88442857Y20921429D02*
X89157142Y20921429D01*
X89157142Y22421429D01*
X87085714Y21064286D02*
X87157142Y20992858D01*
X87371428Y20921429D01*
X87514285Y20921429D01*
X87728571Y20992858D01*
X87871428Y21135715D01*
X87942857Y21278572D01*
X88014285Y21564286D01*
X88014285Y21778572D01*
X87942857Y22064286D01*
X87871428Y22207143D01*
X87728571Y22350000D01*
X87514285Y22421429D01*
X87371428Y22421429D01*
X87157142Y22350000D01*
X87085714Y22278572D01*
X86014285Y22421429D02*
X86014285Y21350000D01*
X86085714Y21135715D01*
X86228571Y20992858D01*
X86442857Y20921429D01*
X86585714Y20921429D01*
X84585714Y20921429D02*
X85300000Y20921429D01*
X85300000Y22421429D01*
X83228571Y21064286D02*
X83300000Y20992858D01*
X83514285Y20921429D01*
X83657142Y20921429D01*
X83871428Y20992858D01*
X84014285Y21135715D01*
X84085714Y21278572D01*
X84157142Y21564286D01*
X84157142Y21778572D01*
X84085714Y22064286D01*
X84014285Y22207143D01*
X83871428Y22350000D01*
X83657142Y22421429D01*
X83514285Y22421429D01*
X83300000Y22350000D01*
X83228571Y22278572D01*
X82157142Y22421429D02*
X82157142Y21350000D01*
X82228571Y21135715D01*
X82371428Y20992858D01*
X82585714Y20921429D01*
X82728571Y20921429D01*
X80728571Y20921429D02*
X81442857Y20921429D01*
X81442857Y22421429D01*
X79371428Y21064286D02*
X79442857Y20992858D01*
X79657142Y20921429D01*
X79800000Y20921429D01*
X80014285Y20992858D01*
X80157142Y21135715D01*
X80228571Y21278572D01*
X80300000Y21564286D01*
X80300000Y21778572D01*
X80228571Y22064286D01*
X80157142Y22207143D01*
X80014285Y22350000D01*
X79800000Y22421429D01*
X79657142Y22421429D01*
X79442857Y22350000D01*
X79371428Y22278572D01*
X21114285Y22621429D02*
X20257142Y22621429D01*
X20685714Y21121429D02*
X20685714Y22621429D01*
X19542857Y21121429D02*
X19685714Y21192858D01*
X19757142Y21264286D01*
X19828571Y21407143D01*
X19828571Y21835715D01*
X19757142Y21978572D01*
X19685714Y22050000D01*
X19542857Y22121429D01*
X19328571Y22121429D01*
X19185714Y22050000D01*
X19114285Y21978572D01*
X19042857Y21835715D01*
X19042857Y21407143D01*
X19114285Y21264286D01*
X19185714Y21192858D01*
X19328571Y21121429D01*
X19542857Y21121429D01*
X18185714Y21121429D02*
X18328571Y21192858D01*
X18400000Y21264286D01*
X18471428Y21407143D01*
X18471428Y21835715D01*
X18400000Y21978572D01*
X18328571Y22050000D01*
X18185714Y22121429D01*
X17971428Y22121429D01*
X17828571Y22050000D01*
X17757142Y21978572D01*
X17685714Y21835715D01*
X17685714Y21407143D01*
X17757142Y21264286D01*
X17828571Y21192858D01*
X17971428Y21121429D01*
X18185714Y21121429D01*
X16828571Y21121429D02*
X16971428Y21192858D01*
X17042857Y21335715D01*
X17042857Y22621429D01*
X16257142Y21121429D02*
X16257142Y22121429D01*
X16257142Y22621429D02*
X16328571Y22550000D01*
X16257142Y22478572D01*
X16185714Y22550000D01*
X16257142Y22621429D01*
X16257142Y22478572D01*
X15542857Y22121429D02*
X15542857Y21121429D01*
X15542857Y21978572D02*
X15471428Y22050000D01*
X15328571Y22121429D01*
X15114285Y22121429D01*
X14971428Y22050000D01*
X14900000Y21907143D01*
X14900000Y21121429D01*
X13542857Y22121429D02*
X13542857Y20907143D01*
X13614285Y20764286D01*
X13685714Y20692858D01*
X13828571Y20621429D01*
X14042857Y20621429D01*
X14185714Y20692858D01*
X13542857Y21192858D02*
X13685714Y21121429D01*
X13971428Y21121429D01*
X14114285Y21192858D01*
X14185714Y21264286D01*
X14257142Y21407143D01*
X14257142Y21835715D01*
X14185714Y21978572D01*
X14114285Y22050000D01*
X13971428Y22121429D01*
X13685714Y22121429D01*
X13542857Y22050000D01*
X11685714Y21121429D02*
X11685714Y22621429D01*
X11685714Y21907143D02*
X10828571Y21907143D01*
X10828571Y21121429D02*
X10828571Y22621429D01*
X9900000Y21121429D02*
X10042857Y21192858D01*
X10114285Y21264286D01*
X10185714Y21407143D01*
X10185714Y21835715D01*
X10114285Y21978572D01*
X10042857Y22050000D01*
X9900000Y22121429D01*
X9685714Y22121429D01*
X9542857Y22050000D01*
X9471428Y21978572D01*
X9400000Y21835715D01*
X9400000Y21407143D01*
X9471428Y21264286D01*
X9542857Y21192858D01*
X9685714Y21121429D01*
X9900000Y21121429D01*
X8542857Y21121429D02*
X8685714Y21192858D01*
X8757142Y21335715D01*
X8757142Y22621429D01*
X7400000Y21192858D02*
X7542857Y21121429D01*
X7828571Y21121429D01*
X7971428Y21192858D01*
X8042857Y21335715D01*
X8042857Y21907143D01*
X7971428Y22050000D01*
X7828571Y22121429D01*
X7542857Y22121429D01*
X7400000Y22050000D01*
X7328571Y21907143D01*
X7328571Y21764286D01*
X8042857Y21621429D01*
X5542857Y22121429D02*
X4400000Y21692858D01*
X5542857Y21264286D01*
D12*
X138361904Y998810D02*
X138195238Y498810D01*
X138028571Y998810D01*
X137790476Y498810D02*
X137838095Y522620D01*
X137861904Y546429D01*
X137885714Y594048D01*
X137885714Y736905D01*
X137861904Y784524D01*
X137838095Y808334D01*
X137790476Y832143D01*
X137719047Y832143D01*
X137671428Y808334D01*
X137647619Y784524D01*
X137623809Y736905D01*
X137623809Y594048D01*
X137647619Y546429D01*
X137671428Y522620D01*
X137719047Y498810D01*
X137790476Y498810D01*
X137195238Y832143D02*
X137195238Y498810D01*
X137409523Y832143D02*
X137409523Y570239D01*
X137385714Y522620D01*
X137338095Y498810D01*
X137266666Y498810D01*
X137219047Y522620D01*
X137195238Y546429D01*
X137028571Y832143D02*
X136838095Y832143D01*
X136957142Y998810D02*
X136957142Y570239D01*
X136933333Y522620D01*
X136885714Y498810D01*
X136838095Y498810D01*
X156258333Y998810D02*
X156091666Y498810D01*
X155925000Y998810D01*
X155686904Y498810D02*
X155734523Y522620D01*
X155758333Y546429D01*
X155782142Y594048D01*
X155782142Y736905D01*
X155758333Y784524D01*
X155734523Y808334D01*
X155686904Y832143D01*
X155615476Y832143D01*
X155567857Y808334D01*
X155544047Y784524D01*
X155520238Y736905D01*
X155520238Y594048D01*
X155544047Y546429D01*
X155567857Y522620D01*
X155615476Y498810D01*
X155686904Y498810D01*
X155234523Y498810D02*
X155282142Y522620D01*
X155305952Y570239D01*
X155305952Y998810D01*
X155115476Y832143D02*
X154925000Y832143D01*
X155044047Y998810D02*
X155044047Y570239D01*
X155020238Y522620D01*
X154972619Y498810D01*
X154925000Y498810D01*
X154544047Y498810D02*
X154544047Y760715D01*
X154567857Y808334D01*
X154615476Y832143D01*
X154710714Y832143D01*
X154758333Y808334D01*
X154544047Y522620D02*
X154591666Y498810D01*
X154710714Y498810D01*
X154758333Y522620D01*
X154782142Y570239D01*
X154782142Y617858D01*
X154758333Y665477D01*
X154710714Y689286D01*
X154591666Y689286D01*
X154544047Y713096D01*
X154091666Y832143D02*
X154091666Y427381D01*
X154115476Y379762D01*
X154139285Y355953D01*
X154186904Y332143D01*
X154258333Y332143D01*
X154305952Y355953D01*
X154091666Y522620D02*
X154139285Y498810D01*
X154234523Y498810D01*
X154282142Y522620D01*
X154305952Y546429D01*
X154329761Y594048D01*
X154329761Y736905D01*
X154305952Y784524D01*
X154282142Y808334D01*
X154234523Y832143D01*
X154139285Y832143D01*
X154091666Y808334D01*
X153663095Y522620D02*
X153710714Y498810D01*
X153805952Y498810D01*
X153853571Y522620D01*
X153877380Y570239D01*
X153877380Y760715D01*
X153853571Y808334D01*
X153805952Y832143D01*
X153710714Y832143D01*
X153663095Y808334D01*
X153639285Y760715D01*
X153639285Y713096D01*
X153877380Y665477D01*
X156750000Y1673810D02*
X156464285Y1673810D01*
X156607142Y1173810D02*
X156607142Y1673810D01*
X156297619Y1173810D02*
X156297619Y1673810D01*
X156083333Y1173810D02*
X156083333Y1435715D01*
X156107142Y1483334D01*
X156154761Y1507143D01*
X156226190Y1507143D01*
X156273809Y1483334D01*
X156297619Y1459524D01*
X155845238Y1173810D02*
X155845238Y1507143D01*
X155845238Y1411905D02*
X155821428Y1459524D01*
X155797619Y1483334D01*
X155750000Y1507143D01*
X155702380Y1507143D01*
X155345238Y1197620D02*
X155392857Y1173810D01*
X155488095Y1173810D01*
X155535714Y1197620D01*
X155559523Y1245239D01*
X155559523Y1435715D01*
X155535714Y1483334D01*
X155488095Y1507143D01*
X155392857Y1507143D01*
X155345238Y1483334D01*
X155321428Y1435715D01*
X155321428Y1388096D01*
X155559523Y1340477D01*
X155130952Y1197620D02*
X155083333Y1173810D01*
X154988095Y1173810D01*
X154940476Y1197620D01*
X154916666Y1245239D01*
X154916666Y1269048D01*
X154940476Y1316667D01*
X154988095Y1340477D01*
X155059523Y1340477D01*
X155107142Y1364286D01*
X155130952Y1411905D01*
X155130952Y1435715D01*
X155107142Y1483334D01*
X155059523Y1507143D01*
X154988095Y1507143D01*
X154940476Y1483334D01*
X154702380Y1173810D02*
X154702380Y1673810D01*
X154488095Y1173810D02*
X154488095Y1435715D01*
X154511904Y1483334D01*
X154559523Y1507143D01*
X154630952Y1507143D01*
X154678571Y1483334D01*
X154702380Y1459524D01*
X154178571Y1173810D02*
X154226190Y1197620D01*
X154250000Y1221429D01*
X154273809Y1269048D01*
X154273809Y1411905D01*
X154250000Y1459524D01*
X154226190Y1483334D01*
X154178571Y1507143D01*
X154107142Y1507143D01*
X154059523Y1483334D01*
X154035714Y1459524D01*
X154011904Y1411905D01*
X154011904Y1269048D01*
X154035714Y1221429D01*
X154059523Y1197620D01*
X154107142Y1173810D01*
X154178571Y1173810D01*
X153726190Y1173810D02*
X153773809Y1197620D01*
X153797619Y1245239D01*
X153797619Y1673810D01*
X153321428Y1173810D02*
X153321428Y1673810D01*
X153321428Y1197620D02*
X153369047Y1173810D01*
X153464285Y1173810D01*
X153511904Y1197620D01*
X153535714Y1221429D01*
X153559523Y1269048D01*
X153559523Y1411905D01*
X153535714Y1459524D01*
X153511904Y1483334D01*
X153464285Y1507143D01*
X153369047Y1507143D01*
X153321428Y1483334D01*
X138245238Y1223810D02*
X138245238Y1723810D01*
X138126190Y1723810D01*
X138054761Y1700000D01*
X138007142Y1652381D01*
X137983333Y1604762D01*
X137959523Y1509524D01*
X137959523Y1438096D01*
X137983333Y1342858D01*
X138007142Y1295239D01*
X138054761Y1247620D01*
X138126190Y1223810D01*
X138245238Y1223810D01*
X137769047Y1366667D02*
X137530952Y1366667D01*
X137816666Y1223810D02*
X137650000Y1723810D01*
X137483333Y1223810D01*
X137030952Y1271429D02*
X137054761Y1247620D01*
X137126190Y1223810D01*
X137173809Y1223810D01*
X137245238Y1247620D01*
X137292857Y1295239D01*
X137316666Y1342858D01*
X137340476Y1438096D01*
X137340476Y1509524D01*
X137316666Y1604762D01*
X137292857Y1652381D01*
X137245238Y1700000D01*
X137173809Y1723810D01*
X137126190Y1723810D01*
X137054761Y1700000D01*
X137030952Y1676191D01*
D10*
X46640476Y3046429D02*
X46497619Y2998810D01*
X46450000Y2951191D01*
X46402380Y2855953D01*
X46402380Y2713096D01*
X46450000Y2617858D01*
X46497619Y2570239D01*
X46592857Y2522620D01*
X46973809Y2522620D01*
X46973809Y3522620D01*
X46640476Y3522620D01*
X46545238Y3475000D01*
X46497619Y3427381D01*
X46450000Y3332143D01*
X46450000Y3236905D01*
X46497619Y3141667D01*
X46545238Y3094048D01*
X46640476Y3046429D01*
X46973809Y3046429D01*
X45545238Y2522620D02*
X45545238Y3046429D01*
X45592857Y3141667D01*
X45688095Y3189286D01*
X45878571Y3189286D01*
X45973809Y3141667D01*
X45545238Y2570239D02*
X45640476Y2522620D01*
X45878571Y2522620D01*
X45973809Y2570239D01*
X46021428Y2665477D01*
X46021428Y2760715D01*
X45973809Y2855953D01*
X45878571Y2903572D01*
X45640476Y2903572D01*
X45545238Y2951191D01*
X45116666Y2570239D02*
X45021428Y2522620D01*
X44830952Y2522620D01*
X44735714Y2570239D01*
X44688095Y2665477D01*
X44688095Y2713096D01*
X44735714Y2808334D01*
X44830952Y2855953D01*
X44973809Y2855953D01*
X45069047Y2903572D01*
X45116666Y2998810D01*
X45116666Y3046429D01*
X45069047Y3141667D01*
X44973809Y3189286D01*
X44830952Y3189286D01*
X44735714Y3141667D01*
X43878571Y2570239D02*
X43973809Y2522620D01*
X44164285Y2522620D01*
X44259523Y2570239D01*
X44307142Y2665477D01*
X44307142Y3046429D01*
X44259523Y3141667D01*
X44164285Y3189286D01*
X43973809Y3189286D01*
X43878571Y3141667D01*
X43830952Y3046429D01*
X43830952Y2951191D01*
X44307142Y2855953D01*
X42973809Y2522620D02*
X42973809Y3522620D01*
X42973809Y2570239D02*
X43069047Y2522620D01*
X43259523Y2522620D01*
X43354761Y2570239D01*
X43402380Y2617858D01*
X43450000Y2713096D01*
X43450000Y2998810D01*
X43402380Y3094048D01*
X43354761Y3141667D01*
X43259523Y3189286D01*
X43069047Y3189286D01*
X42973809Y3141667D01*
X41592857Y2522620D02*
X41688095Y2570239D01*
X41735714Y2617858D01*
X41783333Y2713096D01*
X41783333Y2998810D01*
X41735714Y3094048D01*
X41688095Y3141667D01*
X41592857Y3189286D01*
X41450000Y3189286D01*
X41354761Y3141667D01*
X41307142Y3094048D01*
X41259523Y2998810D01*
X41259523Y2713096D01*
X41307142Y2617858D01*
X41354761Y2570239D01*
X41450000Y2522620D01*
X41592857Y2522620D01*
X40830952Y3189286D02*
X40830952Y2522620D01*
X40830952Y3094048D02*
X40783333Y3141667D01*
X40688095Y3189286D01*
X40545238Y3189286D01*
X40450000Y3141667D01*
X40402380Y3046429D01*
X40402380Y2522620D01*
X39021428Y2522620D02*
X39116666Y2570239D01*
X39164285Y2617858D01*
X39211904Y2713096D01*
X39211904Y2998810D01*
X39164285Y3094048D01*
X39116666Y3141667D01*
X39021428Y3189286D01*
X38878571Y3189286D01*
X38783333Y3141667D01*
X38735714Y3094048D01*
X38688095Y2998810D01*
X38688095Y2713096D01*
X38735714Y2617858D01*
X38783333Y2570239D01*
X38878571Y2522620D01*
X39021428Y2522620D01*
X38259523Y2522620D02*
X38259523Y3189286D01*
X38259523Y2998810D02*
X38211904Y3094048D01*
X38164285Y3141667D01*
X38069047Y3189286D01*
X37973809Y3189286D01*
X37640476Y2522620D02*
X37640476Y3189286D01*
X37640476Y3522620D02*
X37688095Y3475000D01*
X37640476Y3427381D01*
X37592857Y3475000D01*
X37640476Y3522620D01*
X37640476Y3427381D01*
X36735714Y3189286D02*
X36735714Y2379762D01*
X36783333Y2284524D01*
X36830952Y2236905D01*
X36926190Y2189286D01*
X37069047Y2189286D01*
X37164285Y2236905D01*
X36735714Y2570239D02*
X36830952Y2522620D01*
X37021428Y2522620D01*
X37116666Y2570239D01*
X37164285Y2617858D01*
X37211904Y2713096D01*
X37211904Y2998810D01*
X37164285Y3094048D01*
X37116666Y3141667D01*
X37021428Y3189286D01*
X36830952Y3189286D01*
X36735714Y3141667D01*
X36259523Y2522620D02*
X36259523Y3189286D01*
X36259523Y3522620D02*
X36307142Y3475000D01*
X36259523Y3427381D01*
X36211904Y3475000D01*
X36259523Y3522620D01*
X36259523Y3427381D01*
X35783333Y3189286D02*
X35783333Y2522620D01*
X35783333Y3094048D02*
X35735714Y3141667D01*
X35640476Y3189286D01*
X35497619Y3189286D01*
X35402380Y3141667D01*
X35354761Y3046429D01*
X35354761Y2522620D01*
X34450000Y2522620D02*
X34450000Y3046429D01*
X34497619Y3141667D01*
X34592857Y3189286D01*
X34783333Y3189286D01*
X34878571Y3141667D01*
X34450000Y2570239D02*
X34545238Y2522620D01*
X34783333Y2522620D01*
X34878571Y2570239D01*
X34926190Y2665477D01*
X34926190Y2760715D01*
X34878571Y2855953D01*
X34783333Y2903572D01*
X34545238Y2903572D01*
X34450000Y2951191D01*
X33830952Y2522620D02*
X33926190Y2570239D01*
X33973809Y2665477D01*
X33973809Y3522620D01*
X46640476Y1539286D02*
X46450000Y872620D01*
X46259523Y1348810D01*
X46069047Y872620D01*
X45878571Y1539286D01*
X45354761Y872620D02*
X45450000Y920239D01*
X45497619Y967858D01*
X45545238Y1063096D01*
X45545238Y1348810D01*
X45497619Y1444048D01*
X45450000Y1491667D01*
X45354761Y1539286D01*
X45211904Y1539286D01*
X45116666Y1491667D01*
X45069047Y1444048D01*
X45021428Y1348810D01*
X45021428Y1063096D01*
X45069047Y967858D01*
X45116666Y920239D01*
X45211904Y872620D01*
X45354761Y872620D01*
X44592857Y872620D02*
X44592857Y1539286D01*
X44592857Y1348810D02*
X44545238Y1444048D01*
X44497619Y1491667D01*
X44402380Y1539286D01*
X44307142Y1539286D01*
X43973809Y872620D02*
X43973809Y1872620D01*
X43878571Y1253572D02*
X43592857Y872620D01*
X43592857Y1539286D02*
X43973809Y1158334D01*
X42402380Y872620D02*
X42402380Y1872620D01*
X42402380Y1491667D02*
X42307142Y1539286D01*
X42116666Y1539286D01*
X42021428Y1491667D01*
X41973809Y1444048D01*
X41926190Y1348810D01*
X41926190Y1063096D01*
X41973809Y967858D01*
X42021428Y920239D01*
X42116666Y872620D01*
X42307142Y872620D01*
X42402380Y920239D01*
X41592857Y1539286D02*
X41354761Y872620D01*
X41116666Y1539286D02*
X41354761Y872620D01*
X41450000Y634524D01*
X41497619Y586905D01*
X41592857Y539286D01*
X40069047Y872620D02*
X39545238Y1539286D01*
X40069047Y1539286D02*
X39545238Y872620D01*
X39259523Y1539286D02*
X39069047Y872620D01*
X38878571Y1348810D01*
X38688095Y872620D01*
X38497619Y1539286D01*
X38116666Y872620D02*
X38116666Y1872620D01*
X37688095Y872620D02*
X37688095Y1396429D01*
X37735714Y1491667D01*
X37830952Y1539286D01*
X37973809Y1539286D01*
X38069047Y1491667D01*
X38116666Y1444048D01*
X36783333Y872620D02*
X36783333Y1396429D01*
X36830952Y1491667D01*
X36926190Y1539286D01*
X37116666Y1539286D01*
X37211904Y1491667D01*
X36783333Y920239D02*
X36878571Y872620D01*
X37116666Y872620D01*
X37211904Y920239D01*
X37259523Y1015477D01*
X37259523Y1110715D01*
X37211904Y1205953D01*
X37116666Y1253572D01*
X36878571Y1253572D01*
X36783333Y1301191D01*
X36450000Y1539286D02*
X36069047Y1539286D01*
X36307142Y1872620D02*
X36307142Y1015477D01*
X36259523Y920239D01*
X36164285Y872620D01*
X36069047Y872620D01*
X35783333Y920239D02*
X35688095Y872620D01*
X35497619Y872620D01*
X35402380Y920239D01*
X35354761Y1015477D01*
X35354761Y1063096D01*
X35402380Y1158334D01*
X35497619Y1205953D01*
X35640476Y1205953D01*
X35735714Y1253572D01*
X35783333Y1348810D01*
X35783333Y1396429D01*
X35735714Y1491667D01*
X35640476Y1539286D01*
X35497619Y1539286D01*
X35402380Y1491667D01*
X34926190Y872620D02*
X34926190Y1539286D01*
X34926190Y1872620D02*
X34973809Y1825000D01*
X34926190Y1777381D01*
X34878571Y1825000D01*
X34926190Y1872620D01*
X34926190Y1777381D01*
X34592857Y1539286D02*
X34211904Y1539286D01*
X34450000Y1872620D02*
X34450000Y1015477D01*
X34402380Y920239D01*
X34307142Y872620D01*
X34211904Y872620D01*
X4450000Y15011905D02*
X4402380Y15107143D01*
X4402380Y15250000D01*
X4450000Y15392858D01*
X4545238Y15488096D01*
X4640476Y15535715D01*
X4830952Y15583334D01*
X4973809Y15583334D01*
X5164285Y15535715D01*
X5259523Y15488096D01*
X5354761Y15392858D01*
X5402380Y15250000D01*
X5402380Y15154762D01*
X5354761Y15011905D01*
X5307142Y14964286D01*
X4973809Y14964286D01*
X4973809Y15154762D01*
X5402380Y14535715D02*
X4402380Y14535715D01*
X5402380Y13964286D01*
X4402380Y13964286D01*
X5402380Y13488096D02*
X4402380Y13488096D01*
X4402380Y13250000D01*
X4450000Y13107143D01*
X4545238Y13011905D01*
X4640476Y12964286D01*
X4830952Y12916667D01*
X4973809Y12916667D01*
X5164285Y12964286D01*
X5259523Y13011905D01*
X5354761Y13107143D01*
X5402380Y13250000D01*
X5402380Y13488096D01*
X7902380Y14947620D02*
X7426190Y15280953D01*
X7902380Y15519048D02*
X6902380Y15519048D01*
X6902380Y15138096D01*
X6950000Y15042858D01*
X6997619Y14995239D01*
X7092857Y14947620D01*
X7235714Y14947620D01*
X7330952Y14995239D01*
X7378571Y15042858D01*
X7426190Y15138096D01*
X7426190Y15519048D01*
X7854761Y14566667D02*
X7902380Y14423810D01*
X7902380Y14185715D01*
X7854761Y14090477D01*
X7807142Y14042858D01*
X7711904Y13995239D01*
X7616666Y13995239D01*
X7521428Y14042858D01*
X7473809Y14090477D01*
X7426190Y14185715D01*
X7378571Y14376191D01*
X7330952Y14471429D01*
X7283333Y14519048D01*
X7188095Y14566667D01*
X7092857Y14566667D01*
X6997619Y14519048D01*
X6950000Y14471429D01*
X6902380Y14376191D01*
X6902380Y14138096D01*
X6950000Y13995239D01*
X6902380Y13709524D02*
X6902380Y13138096D01*
X7902380Y13423810D02*
X6902380Y13423810D01*
X113204761Y4967858D02*
X113252380Y4920239D01*
X113395238Y4872620D01*
X113490476Y4872620D01*
X113633333Y4920239D01*
X113728571Y5015477D01*
X113776190Y5110715D01*
X113823809Y5301191D01*
X113823809Y5444048D01*
X113776190Y5634524D01*
X113728571Y5729762D01*
X113633333Y5825000D01*
X113490476Y5872620D01*
X113395238Y5872620D01*
X113252380Y5825000D01*
X113204761Y5777381D01*
X112633333Y4872620D02*
X112728571Y4920239D01*
X112776190Y4967858D01*
X112823809Y5063096D01*
X112823809Y5348810D01*
X112776190Y5444048D01*
X112728571Y5491667D01*
X112633333Y5539286D01*
X112490476Y5539286D01*
X112395238Y5491667D01*
X112347619Y5444048D01*
X112300000Y5348810D01*
X112300000Y5063096D01*
X112347619Y4967858D01*
X112395238Y4920239D01*
X112490476Y4872620D01*
X112633333Y4872620D01*
X111871428Y4872620D02*
X111871428Y5539286D01*
X111871428Y5444048D02*
X111823809Y5491667D01*
X111728571Y5539286D01*
X111585714Y5539286D01*
X111490476Y5491667D01*
X111442857Y5396429D01*
X111442857Y4872620D01*
X111442857Y5396429D02*
X111395238Y5491667D01*
X111300000Y5539286D01*
X111157142Y5539286D01*
X111061904Y5491667D01*
X111014285Y5396429D01*
X111014285Y4872620D01*
X110538095Y5539286D02*
X110538095Y4539286D01*
X110538095Y5491667D02*
X110442857Y5539286D01*
X110252380Y5539286D01*
X110157142Y5491667D01*
X110109523Y5444048D01*
X110061904Y5348810D01*
X110061904Y5063096D01*
X110109523Y4967858D01*
X110157142Y4920239D01*
X110252380Y4872620D01*
X110442857Y4872620D01*
X110538095Y4920239D01*
X109204761Y4872620D02*
X109204761Y5396429D01*
X109252380Y5491667D01*
X109347619Y5539286D01*
X109538095Y5539286D01*
X109633333Y5491667D01*
X109204761Y4920239D02*
X109300000Y4872620D01*
X109538095Y4872620D01*
X109633333Y4920239D01*
X109680952Y5015477D01*
X109680952Y5110715D01*
X109633333Y5205953D01*
X109538095Y5253572D01*
X109300000Y5253572D01*
X109204761Y5301191D01*
X108300000Y4920239D02*
X108395238Y4872620D01*
X108585714Y4872620D01*
X108680952Y4920239D01*
X108728571Y4967858D01*
X108776190Y5063096D01*
X108776190Y5348810D01*
X108728571Y5444048D01*
X108680952Y5491667D01*
X108585714Y5539286D01*
X108395238Y5539286D01*
X108300000Y5491667D01*
X108014285Y5539286D02*
X107633333Y5539286D01*
X107871428Y5872620D02*
X107871428Y5015477D01*
X107823809Y4920239D01*
X107728571Y4872620D01*
X107633333Y4872620D01*
X107300000Y5253572D02*
X106538095Y5253572D01*
X105728571Y5396429D02*
X105585714Y5348810D01*
X105538095Y5301191D01*
X105490476Y5205953D01*
X105490476Y5063096D01*
X105538095Y4967858D01*
X105585714Y4920239D01*
X105680952Y4872620D01*
X106061904Y4872620D01*
X106061904Y5872620D01*
X105728571Y5872620D01*
X105633333Y5825000D01*
X105585714Y5777381D01*
X105538095Y5682143D01*
X105538095Y5586905D01*
X105585714Y5491667D01*
X105633333Y5444048D01*
X105728571Y5396429D01*
X106061904Y5396429D01*
X104680952Y4920239D02*
X104776190Y4872620D01*
X104966666Y4872620D01*
X105061904Y4920239D01*
X105109523Y5015477D01*
X105109523Y5396429D01*
X105061904Y5491667D01*
X104966666Y5539286D01*
X104776190Y5539286D01*
X104680952Y5491667D01*
X104633333Y5396429D01*
X104633333Y5301191D01*
X105109523Y5205953D01*
X103776190Y4872620D02*
X103776190Y5396429D01*
X103823809Y5491667D01*
X103919047Y5539286D01*
X104109523Y5539286D01*
X104204761Y5491667D01*
X103776190Y4920239D02*
X103871428Y4872620D01*
X104109523Y4872620D01*
X104204761Y4920239D01*
X104252380Y5015477D01*
X104252380Y5110715D01*
X104204761Y5205953D01*
X104109523Y5253572D01*
X103871428Y5253572D01*
X103776190Y5301191D01*
X103300000Y4872620D02*
X103300000Y5539286D01*
X103300000Y5444048D02*
X103252380Y5491667D01*
X103157142Y5539286D01*
X103014285Y5539286D01*
X102919047Y5491667D01*
X102871428Y5396429D01*
X102871428Y4872620D01*
X102871428Y5396429D02*
X102823809Y5491667D01*
X102728571Y5539286D01*
X102585714Y5539286D01*
X102490476Y5491667D01*
X102442857Y5396429D01*
X102442857Y4872620D01*
X102014285Y4920239D02*
X101919047Y4872620D01*
X101728571Y4872620D01*
X101633333Y4920239D01*
X101585714Y5015477D01*
X101585714Y5063096D01*
X101633333Y5158334D01*
X101728571Y5205953D01*
X101871428Y5205953D01*
X101966666Y5253572D01*
X102014285Y5348810D01*
X102014285Y5396429D01*
X101966666Y5491667D01*
X101871428Y5539286D01*
X101728571Y5539286D01*
X101633333Y5491667D01*
X101157142Y5539286D02*
X101157142Y4539286D01*
X101157142Y5491667D02*
X101061904Y5539286D01*
X100871428Y5539286D01*
X100776190Y5491667D01*
X100728571Y5444048D01*
X100680952Y5348810D01*
X100680952Y5063096D01*
X100728571Y4967858D01*
X100776190Y4920239D01*
X100871428Y4872620D01*
X101061904Y4872620D01*
X101157142Y4920239D01*
X100252380Y4872620D02*
X100252380Y5539286D01*
X100252380Y5348810D02*
X100204761Y5444048D01*
X100157142Y5491667D01*
X100061904Y5539286D01*
X99966666Y5539286D01*
X99633333Y4872620D02*
X99633333Y5539286D01*
X99633333Y5872620D02*
X99680952Y5825000D01*
X99633333Y5777381D01*
X99585714Y5825000D01*
X99633333Y5872620D01*
X99633333Y5777381D01*
X99157142Y5539286D02*
X99157142Y4872620D01*
X99157142Y5444048D02*
X99109523Y5491667D01*
X99014285Y5539286D01*
X98871428Y5539286D01*
X98776190Y5491667D01*
X98728571Y5396429D01*
X98728571Y4872620D01*
X97823809Y5539286D02*
X97823809Y4729762D01*
X97871428Y4634524D01*
X97919047Y4586905D01*
X98014285Y4539286D01*
X98157142Y4539286D01*
X98252380Y4586905D01*
X97823809Y4920239D02*
X97919047Y4872620D01*
X98109523Y4872620D01*
X98204761Y4920239D01*
X98252380Y4967858D01*
X98300000Y5063096D01*
X98300000Y5348810D01*
X98252380Y5444048D01*
X98204761Y5491667D01*
X98109523Y5539286D01*
X97919047Y5539286D01*
X97823809Y5491667D01*
X107490476Y3222620D02*
X107823809Y3698810D01*
X108061904Y3222620D02*
X108061904Y4222620D01*
X107680952Y4222620D01*
X107585714Y4175000D01*
X107538095Y4127381D01*
X107490476Y4032143D01*
X107490476Y3889286D01*
X107538095Y3794048D01*
X107585714Y3746429D01*
X107680952Y3698810D01*
X108061904Y3698810D01*
X106680952Y3270239D02*
X106776190Y3222620D01*
X106966666Y3222620D01*
X107061904Y3270239D01*
X107109523Y3365477D01*
X107109523Y3746429D01*
X107061904Y3841667D01*
X106966666Y3889286D01*
X106776190Y3889286D01*
X106680952Y3841667D01*
X106633333Y3746429D01*
X106633333Y3651191D01*
X107109523Y3555953D01*
X106300000Y3889286D02*
X106061904Y3222620D01*
X105823809Y3889286D01*
X104919047Y3222620D02*
X105490476Y3222620D01*
X105204761Y3222620D02*
X105204761Y4222620D01*
X105300000Y4079762D01*
X105395238Y3984524D01*
X105490476Y3936905D01*
X104490476Y3317858D02*
X104442857Y3270239D01*
X104490476Y3222620D01*
X104538095Y3270239D01*
X104490476Y3317858D01*
X104490476Y3222620D01*
X104109523Y4222620D02*
X103490476Y4222620D01*
X103823809Y3841667D01*
X103680952Y3841667D01*
X103585714Y3794048D01*
X103538095Y3746429D01*
X103490476Y3651191D01*
X103490476Y3413096D01*
X103538095Y3317858D01*
X103585714Y3270239D01*
X103680952Y3222620D01*
X103966666Y3222620D01*
X104061904Y3270239D01*
X104109523Y3317858D01*
X79142976Y7942858D02*
X79190595Y7895239D01*
X79333452Y7847620D01*
X79428690Y7847620D01*
X79571547Y7895239D01*
X79666785Y7990477D01*
X79714404Y8085715D01*
X79762023Y8276191D01*
X79762023Y8419048D01*
X79714404Y8609524D01*
X79666785Y8704762D01*
X79571547Y8800000D01*
X79428690Y8847620D01*
X79333452Y8847620D01*
X79190595Y8800000D01*
X79142976Y8752381D01*
X78571547Y7847620D02*
X78666785Y7895239D01*
X78714404Y7942858D01*
X78762023Y8038096D01*
X78762023Y8323810D01*
X78714404Y8419048D01*
X78666785Y8466667D01*
X78571547Y8514286D01*
X78428690Y8514286D01*
X78333452Y8466667D01*
X78285833Y8419048D01*
X78238214Y8323810D01*
X78238214Y8038096D01*
X78285833Y7942858D01*
X78333452Y7895239D01*
X78428690Y7847620D01*
X78571547Y7847620D01*
X77809642Y8514286D02*
X77809642Y7847620D01*
X77809642Y8419048D02*
X77762023Y8466667D01*
X77666785Y8514286D01*
X77523928Y8514286D01*
X77428690Y8466667D01*
X77381071Y8371429D01*
X77381071Y7847620D01*
X77047738Y8514286D02*
X76666785Y8514286D01*
X76904880Y8847620D02*
X76904880Y7990477D01*
X76857261Y7895239D01*
X76762023Y7847620D01*
X76666785Y7847620D01*
X76333452Y7847620D02*
X76333452Y8514286D01*
X76333452Y8323810D02*
X76285833Y8419048D01*
X76238214Y8466667D01*
X76142976Y8514286D01*
X76047738Y8514286D01*
X75714404Y7847620D02*
X75714404Y8514286D01*
X75714404Y8847620D02*
X75762023Y8800000D01*
X75714404Y8752381D01*
X75666785Y8800000D01*
X75714404Y8847620D01*
X75714404Y8752381D01*
X75238214Y7847620D02*
X75238214Y8847620D01*
X75238214Y8466667D02*
X75142976Y8514286D01*
X74952500Y8514286D01*
X74857261Y8466667D01*
X74809642Y8419048D01*
X74762023Y8323810D01*
X74762023Y8038096D01*
X74809642Y7942858D01*
X74857261Y7895239D01*
X74952500Y7847620D01*
X75142976Y7847620D01*
X75238214Y7895239D01*
X73904880Y8514286D02*
X73904880Y7847620D01*
X74333452Y8514286D02*
X74333452Y7990477D01*
X74285833Y7895239D01*
X74190595Y7847620D01*
X74047738Y7847620D01*
X73952500Y7895239D01*
X73904880Y7942858D01*
X73571547Y8514286D02*
X73190595Y8514286D01*
X73428690Y8847620D02*
X73428690Y7990477D01*
X73381071Y7895239D01*
X73285833Y7847620D01*
X73190595Y7847620D01*
X72714404Y7847620D02*
X72809642Y7895239D01*
X72857261Y7942858D01*
X72904880Y8038096D01*
X72904880Y8323810D01*
X72857261Y8419048D01*
X72809642Y8466667D01*
X72714404Y8514286D01*
X72571547Y8514286D01*
X72476309Y8466667D01*
X72428690Y8419048D01*
X72381071Y8323810D01*
X72381071Y8038096D01*
X72428690Y7942858D01*
X72476309Y7895239D01*
X72571547Y7847620D01*
X72714404Y7847620D01*
X71952500Y7847620D02*
X71952500Y8514286D01*
X71952500Y8323810D02*
X71904880Y8419048D01*
X71857261Y8466667D01*
X71762023Y8514286D01*
X71666785Y8514286D01*
X71381071Y7895239D02*
X71285833Y7847620D01*
X71095357Y7847620D01*
X71000119Y7895239D01*
X70952500Y7990477D01*
X70952500Y8038096D01*
X71000119Y8133334D01*
X71095357Y8180953D01*
X71238214Y8180953D01*
X71333452Y8228572D01*
X71381071Y8323810D01*
X71381071Y8371429D01*
X71333452Y8466667D01*
X71238214Y8514286D01*
X71095357Y8514286D01*
X71000119Y8466667D01*
X70523928Y7942858D02*
X70476309Y7895239D01*
X70523928Y7847620D01*
X70571547Y7895239D01*
X70523928Y7942858D01*
X70523928Y7847620D01*
X70523928Y8466667D02*
X70476309Y8419048D01*
X70523928Y8371429D01*
X70571547Y8419048D01*
X70523928Y8466667D01*
X70523928Y8371429D01*
X78047738Y7197620D02*
X78047738Y6959524D01*
X78285833Y7054762D02*
X78047738Y6959524D01*
X77809642Y7054762D01*
X78190595Y6769048D02*
X78047738Y6959524D01*
X77904880Y6769048D01*
X76666785Y6864286D02*
X76666785Y5864286D01*
X76666785Y6816667D02*
X76571547Y6864286D01*
X76381071Y6864286D01*
X76285833Y6816667D01*
X76238214Y6769048D01*
X76190595Y6673810D01*
X76190595Y6388096D01*
X76238214Y6292858D01*
X76285833Y6245239D01*
X76381071Y6197620D01*
X76571547Y6197620D01*
X76666785Y6245239D01*
X75333452Y6197620D02*
X75333452Y6721429D01*
X75381071Y6816667D01*
X75476309Y6864286D01*
X75666785Y6864286D01*
X75762023Y6816667D01*
X75333452Y6245239D02*
X75428690Y6197620D01*
X75666785Y6197620D01*
X75762023Y6245239D01*
X75809642Y6340477D01*
X75809642Y6435715D01*
X75762023Y6530953D01*
X75666785Y6578572D01*
X75428690Y6578572D01*
X75333452Y6626191D01*
X74857261Y6864286D02*
X74857261Y6197620D01*
X74857261Y6769048D02*
X74809642Y6816667D01*
X74714404Y6864286D01*
X74571547Y6864286D01*
X74476309Y6816667D01*
X74428690Y6721429D01*
X74428690Y6197620D01*
X73523928Y6197620D02*
X73523928Y7197620D01*
X73523928Y6245239D02*
X73619166Y6197620D01*
X73809642Y6197620D01*
X73904880Y6245239D01*
X73952500Y6292858D01*
X74000119Y6388096D01*
X74000119Y6673810D01*
X73952500Y6769048D01*
X73904880Y6816667D01*
X73809642Y6864286D01*
X73619166Y6864286D01*
X73523928Y6816667D01*
X73047738Y6197620D02*
X73047738Y6864286D01*
X73047738Y6673810D02*
X73000119Y6769048D01*
X72952500Y6816667D01*
X72857261Y6864286D01*
X72762023Y6864286D01*
X72047738Y6245239D02*
X72142976Y6197620D01*
X72333452Y6197620D01*
X72428690Y6245239D01*
X72476309Y6340477D01*
X72476309Y6721429D01*
X72428690Y6816667D01*
X72333452Y6864286D01*
X72142976Y6864286D01*
X72047738Y6816667D01*
X72000119Y6721429D01*
X72000119Y6626191D01*
X72476309Y6530953D01*
X71666785Y6864286D02*
X71476309Y6197620D01*
X71285833Y6673810D01*
X71095357Y6197620D01*
X70904880Y6864286D01*
X78047738Y5547620D02*
X78047738Y5309524D01*
X78285833Y5404762D02*
X78047738Y5309524D01*
X77809642Y5404762D01*
X78190595Y5119048D02*
X78047738Y5309524D01*
X77904880Y5119048D01*
X76523928Y4547620D02*
X76619166Y4595239D01*
X76666785Y4690477D01*
X76666785Y5547620D01*
X76142976Y4547620D02*
X76142976Y5214286D01*
X76142976Y5547620D02*
X76190595Y5500000D01*
X76142976Y5452381D01*
X76095357Y5500000D01*
X76142976Y5547620D01*
X76142976Y5452381D01*
X75714404Y4595239D02*
X75619166Y4547620D01*
X75428690Y4547620D01*
X75333452Y4595239D01*
X75285833Y4690477D01*
X75285833Y4738096D01*
X75333452Y4833334D01*
X75428690Y4880953D01*
X75571547Y4880953D01*
X75666785Y4928572D01*
X75714404Y5023810D01*
X75714404Y5071429D01*
X75666785Y5166667D01*
X75571547Y5214286D01*
X75428690Y5214286D01*
X75333452Y5166667D01*
X75000119Y5214286D02*
X74619166Y5214286D01*
X74857261Y5547620D02*
X74857261Y4690477D01*
X74809642Y4595239D01*
X74714404Y4547620D01*
X74619166Y4547620D01*
X74142976Y4547620D02*
X74238214Y4595239D01*
X74285833Y4642858D01*
X74333452Y4738096D01*
X74333452Y5023810D01*
X74285833Y5119048D01*
X74238214Y5166667D01*
X74142976Y5214286D01*
X74000119Y5214286D01*
X73904880Y5166667D01*
X73857261Y5119048D01*
X73809642Y5023810D01*
X73809642Y4738096D01*
X73857261Y4642858D01*
X73904880Y4595239D01*
X74000119Y4547620D01*
X74142976Y4547620D01*
X73523928Y5214286D02*
X73142976Y5214286D01*
X73381071Y4547620D02*
X73381071Y5404762D01*
X73333452Y5500000D01*
X73238214Y5547620D01*
X73142976Y5547620D01*
X72666785Y4547620D02*
X72762023Y4595239D01*
X72809642Y4642858D01*
X72857261Y4738096D01*
X72857261Y5023810D01*
X72809642Y5119048D01*
X72762023Y5166667D01*
X72666785Y5214286D01*
X72523928Y5214286D01*
X72428690Y5166667D01*
X72381071Y5119048D01*
X72333452Y5023810D01*
X72333452Y4738096D01*
X72381071Y4642858D01*
X72428690Y4595239D01*
X72523928Y4547620D01*
X72666785Y4547620D01*
X71904880Y5214286D02*
X71904880Y4214286D01*
X71904880Y5166667D02*
X71809642Y5214286D01*
X71619166Y5214286D01*
X71523928Y5166667D01*
X71476309Y5119048D01*
X71428690Y5023810D01*
X71428690Y4738096D01*
X71476309Y4642858D01*
X71523928Y4595239D01*
X71619166Y4547620D01*
X71809642Y4547620D01*
X71904880Y4595239D01*
X71142976Y5214286D02*
X70762023Y5214286D01*
X71000119Y5547620D02*
X71000119Y4690477D01*
X70952500Y4595239D01*
X70857261Y4547620D01*
X70762023Y4547620D01*
X70428690Y4547620D02*
X70428690Y5214286D01*
X70428690Y5547620D02*
X70476309Y5500000D01*
X70428690Y5452381D01*
X70381071Y5500000D01*
X70428690Y5547620D01*
X70428690Y5452381D01*
X69809642Y4547620D02*
X69904880Y4595239D01*
X69952500Y4642858D01*
X70000119Y4738096D01*
X70000119Y5023810D01*
X69952500Y5119048D01*
X69904880Y5166667D01*
X69809642Y5214286D01*
X69666785Y5214286D01*
X69571547Y5166667D01*
X69523928Y5119048D01*
X69476309Y5023810D01*
X69476309Y4738096D01*
X69523928Y4642858D01*
X69571547Y4595239D01*
X69666785Y4547620D01*
X69809642Y4547620D01*
X69047738Y5214286D02*
X69047738Y4547620D01*
X69047738Y5119048D02*
X69000119Y5166667D01*
X68904880Y5214286D01*
X68762023Y5214286D01*
X68666785Y5166667D01*
X68619166Y5071429D01*
X68619166Y4547620D01*
X68190595Y4595239D02*
X68095357Y4547620D01*
X67904880Y4547620D01*
X67809642Y4595239D01*
X67762023Y4690477D01*
X67762023Y4738096D01*
X67809642Y4833334D01*
X67904880Y4880953D01*
X68047738Y4880953D01*
X68142976Y4928572D01*
X68190595Y5023810D01*
X68190595Y5071429D01*
X68142976Y5166667D01*
X68047738Y5214286D01*
X67904880Y5214286D01*
X67809642Y5166667D01*
X78047738Y3897620D02*
X78047738Y3659524D01*
X78285833Y3754762D02*
X78047738Y3659524D01*
X77809642Y3754762D01*
X78190595Y3469048D02*
X78047738Y3659524D01*
X77904880Y3469048D01*
X76666785Y2897620D02*
X76666785Y3897620D01*
X76571547Y3278572D02*
X76285833Y2897620D01*
X76285833Y3564286D02*
X76666785Y3183334D01*
X75857261Y2897620D02*
X75857261Y3564286D01*
X75857261Y3469048D02*
X75809642Y3516667D01*
X75714404Y3564286D01*
X75571547Y3564286D01*
X75476309Y3516667D01*
X75428690Y3421429D01*
X75428690Y2897620D01*
X75428690Y3421429D02*
X75381071Y3516667D01*
X75285833Y3564286D01*
X75142976Y3564286D01*
X75047738Y3516667D01*
X75000119Y3421429D01*
X75000119Y2897620D01*
X74523928Y3564286D02*
X74523928Y2897620D01*
X74523928Y3469048D02*
X74476309Y3516667D01*
X74381071Y3564286D01*
X74238214Y3564286D01*
X74142976Y3516667D01*
X74095357Y3421429D01*
X74095357Y2897620D01*
X73476309Y2897620D02*
X73571547Y2945239D01*
X73619166Y2992858D01*
X73666785Y3088096D01*
X73666785Y3373810D01*
X73619166Y3469048D01*
X73571547Y3516667D01*
X73476309Y3564286D01*
X73333452Y3564286D01*
X73238214Y3516667D01*
X73190595Y3469048D01*
X73142976Y3373810D01*
X73142976Y3088096D01*
X73190595Y2992858D01*
X73238214Y2945239D01*
X73333452Y2897620D01*
X73476309Y2897620D01*
X72809642Y3564286D02*
X72571547Y2897620D01*
X72333452Y3564286D01*
X72000119Y3802381D02*
X71952500Y3850000D01*
X71857261Y3897620D01*
X71619166Y3897620D01*
X71523928Y3850000D01*
X71476309Y3802381D01*
X71428690Y3707143D01*
X71428690Y3611905D01*
X71476309Y3469048D01*
X72047738Y2897620D01*
X71428690Y2897620D01*
X70809642Y3897620D02*
X70714404Y3897620D01*
X70619166Y3850000D01*
X70571547Y3802381D01*
X70523928Y3707143D01*
X70476309Y3516667D01*
X70476309Y3278572D01*
X70523928Y3088096D01*
X70571547Y2992858D01*
X70619166Y2945239D01*
X70714404Y2897620D01*
X70809642Y2897620D01*
X70904880Y2945239D01*
X70952500Y2992858D01*
X71000119Y3088096D01*
X71047738Y3278572D01*
X71047738Y3516667D01*
X71000119Y3707143D01*
X70952500Y3802381D01*
X70904880Y3850000D01*
X70809642Y3897620D01*
X69523928Y2897620D02*
X70095357Y2897620D01*
X69809642Y2897620D02*
X69809642Y3897620D01*
X69904880Y3754762D01*
X70000119Y3659524D01*
X70095357Y3611905D01*
X69190595Y3897620D02*
X68523928Y3897620D01*
X68952500Y2897620D01*
X78047738Y2247620D02*
X78047738Y2009524D01*
X78285833Y2104762D02*
X78047738Y2009524D01*
X77809642Y2104762D01*
X78190595Y1819048D02*
X78047738Y2009524D01*
X77904880Y1819048D01*
X76809642Y1914286D02*
X76428690Y1914286D01*
X76666785Y2247620D02*
X76666785Y1390477D01*
X76619166Y1295239D01*
X76523928Y1247620D01*
X76428690Y1247620D01*
X75714404Y1295239D02*
X75809642Y1247620D01*
X76000119Y1247620D01*
X76095357Y1295239D01*
X76142976Y1390477D01*
X76142976Y1771429D01*
X76095357Y1866667D01*
X76000119Y1914286D01*
X75809642Y1914286D01*
X75714404Y1866667D01*
X75666785Y1771429D01*
X75666785Y1676191D01*
X76142976Y1580953D01*
X75238214Y1914286D02*
X75238214Y1247620D01*
X75238214Y1819048D02*
X75190595Y1866667D01*
X75095357Y1914286D01*
X74952500Y1914286D01*
X74857261Y1866667D01*
X74809642Y1771429D01*
X74809642Y1247620D01*
X74476309Y1914286D02*
X74095357Y1914286D01*
X74333452Y2247620D02*
X74333452Y1390477D01*
X74285833Y1295239D01*
X74190595Y1247620D01*
X74095357Y1247620D01*
X73333452Y1247620D02*
X73333452Y1771429D01*
X73381071Y1866667D01*
X73476309Y1914286D01*
X73666785Y1914286D01*
X73762023Y1866667D01*
X73333452Y1295239D02*
X73428690Y1247620D01*
X73666785Y1247620D01*
X73762023Y1295239D01*
X73809642Y1390477D01*
X73809642Y1485715D01*
X73762023Y1580953D01*
X73666785Y1628572D01*
X73428690Y1628572D01*
X73333452Y1676191D01*
X73000119Y1914286D02*
X72619166Y1914286D01*
X72857261Y2247620D02*
X72857261Y1390477D01*
X72809642Y1295239D01*
X72714404Y1247620D01*
X72619166Y1247620D01*
X72142976Y1247620D02*
X72238214Y1295239D01*
X72285833Y1342858D01*
X72333452Y1438096D01*
X72333452Y1723810D01*
X72285833Y1819048D01*
X72238214Y1866667D01*
X72142976Y1914286D01*
X72000119Y1914286D01*
X71904880Y1866667D01*
X71857261Y1819048D01*
X71809642Y1723810D01*
X71809642Y1438096D01*
X71857261Y1342858D01*
X71904880Y1295239D01*
X72000119Y1247620D01*
X72142976Y1247620D01*
X71381071Y1247620D02*
X71381071Y1914286D01*
X71381071Y1723810D02*
X71333452Y1819048D01*
X71285833Y1866667D01*
X71190595Y1914286D01*
X71095357Y1914286D01*
D12*
X162104761Y5208929D02*
X162128571Y5185120D01*
X162200000Y5161310D01*
X162247619Y5161310D01*
X162319047Y5185120D01*
X162366666Y5232739D01*
X162390476Y5280358D01*
X162414285Y5375596D01*
X162414285Y5447024D01*
X162390476Y5542262D01*
X162366666Y5589881D01*
X162319047Y5637500D01*
X162247619Y5661310D01*
X162200000Y5661310D01*
X162128571Y5637500D01*
X162104761Y5613691D01*
X161890476Y5161310D02*
X161890476Y5661310D01*
X161890476Y5423215D02*
X161604761Y5423215D01*
X161604761Y5161310D02*
X161604761Y5661310D01*
X161390476Y5304167D02*
X161152380Y5304167D01*
X161438095Y5161310D02*
X161271428Y5661310D01*
X161104761Y5161310D01*
X160961904Y5185120D02*
X160890476Y5161310D01*
X160771428Y5161310D01*
X160723809Y5185120D01*
X160700000Y5208929D01*
X160676190Y5256548D01*
X160676190Y5304167D01*
X160700000Y5351786D01*
X160723809Y5375596D01*
X160771428Y5399405D01*
X160866666Y5423215D01*
X160914285Y5447024D01*
X160938095Y5470834D01*
X160961904Y5518453D01*
X160961904Y5566072D01*
X160938095Y5613691D01*
X160914285Y5637500D01*
X160866666Y5661310D01*
X160747619Y5661310D01*
X160676190Y5637500D01*
X160485714Y5185120D02*
X160414285Y5161310D01*
X160295238Y5161310D01*
X160247619Y5185120D01*
X160223809Y5208929D01*
X160200000Y5256548D01*
X160200000Y5304167D01*
X160223809Y5351786D01*
X160247619Y5375596D01*
X160295238Y5399405D01*
X160390476Y5423215D01*
X160438095Y5447024D01*
X160461904Y5470834D01*
X160485714Y5518453D01*
X160485714Y5566072D01*
X160461904Y5613691D01*
X160438095Y5637500D01*
X160390476Y5661310D01*
X160271428Y5661310D01*
X160200000Y5637500D01*
X159985714Y5161310D02*
X159985714Y5661310D01*
X159771428Y5185120D02*
X159700000Y5161310D01*
X159580952Y5161310D01*
X159533333Y5185120D01*
X159509523Y5208929D01*
X159485714Y5256548D01*
X159485714Y5304167D01*
X159509523Y5351786D01*
X159533333Y5375596D01*
X159580952Y5399405D01*
X159676190Y5423215D01*
X159723809Y5447024D01*
X159747619Y5470834D01*
X159771428Y5518453D01*
X159771428Y5566072D01*
X159747619Y5613691D01*
X159723809Y5637500D01*
X159676190Y5661310D01*
X159557142Y5661310D01*
X159485714Y5637500D01*
X161330952Y4762500D02*
X161378571Y4786310D01*
X161450000Y4786310D01*
X161521428Y4762500D01*
X161569047Y4714881D01*
X161592857Y4667262D01*
X161616666Y4572024D01*
X161616666Y4500596D01*
X161592857Y4405358D01*
X161569047Y4357739D01*
X161521428Y4310120D01*
X161450000Y4286310D01*
X161402380Y4286310D01*
X161330952Y4310120D01*
X161307142Y4333929D01*
X161307142Y4500596D01*
X161402380Y4500596D01*
X161092857Y4286310D02*
X161092857Y4786310D01*
X160807142Y4286310D01*
X160807142Y4786310D01*
X160569047Y4286310D02*
X160569047Y4786310D01*
X160450000Y4786310D01*
X160378571Y4762500D01*
X160330952Y4714881D01*
X160307142Y4667262D01*
X160283333Y4572024D01*
X160283333Y4500596D01*
X160307142Y4405358D01*
X160330952Y4357739D01*
X160378571Y4310120D01*
X160450000Y4286310D01*
X160569047Y4286310D01*
D13*
X157460000Y9888748D02*
X157460000Y10411252D01*
X156040000Y9888748D02*
X156040000Y10411252D01*
X162160000Y9888748D02*
X162160000Y10411252D01*
X160740000Y9888748D02*
X160740000Y10411252D01*
X159810000Y9888748D02*
X159810000Y10411252D01*
X158390000Y9888748D02*
X158390000Y10411252D01*
X155110000Y9888748D02*
X155110000Y10411252D01*
X153690000Y9888748D02*
X153690000Y10411252D01*
X151487760Y5180080D02*
X151487760Y3230080D01*
X151487760Y5180080D02*
X151487760Y7130080D01*
X142617760Y5180080D02*
X142617760Y3230080D01*
X142617760Y5180080D02*
X142617760Y8630080D01*
X152413360Y5276968D02*
X152413360Y5799472D01*
X153833360Y5276968D02*
X153833360Y5799472D01*
X155850000Y2425000D02*
G75*
G03*
X155850000Y2425000I-700000J0D01*
G01*
X140000000Y1175000D02*
G75*
G03*
X140000000Y1175000I-700000J0D01*
G01*
X34668880Y15627100D02*
X34668880Y18227100D01*
X37268880Y15627100D02*
X34668880Y15627100D01*
X42408880Y13027100D02*
X42408880Y18227100D01*
X34668880Y18227100D02*
X42408880Y18227100D01*
X37268880Y13027100D02*
X42408880Y13027100D01*
X35998880Y13027100D02*
X34668880Y13027100D01*
X34668880Y13027100D02*
X34668880Y14357100D01*
X37268880Y13027100D02*
X37268880Y15627100D01*
D10*
X31556900Y18343380D02*
X31556900Y563380D01*
X31556900Y563380D02*
X1076900Y563380D01*
X1076900Y563380D02*
X1076900Y5643380D01*
X1076900Y5643380D02*
X-1463100Y5643380D01*
X-1463100Y5643380D02*
X-1463100Y13263380D01*
X-1463100Y13263380D02*
X1076900Y13263380D01*
X1076900Y13263380D02*
X1076900Y18343380D01*
X1076900Y18343380D02*
X31556900Y18343380D01*
D13*
X29138748Y8615000D02*
X29661252Y8615000D01*
X29138748Y10035000D02*
X29661252Y10035000D01*
X29661252Y14035000D02*
X29138748Y14035000D01*
X29661252Y12615000D02*
X29138748Y12615000D01*
D11*
X163700000Y1850000D02*
G75*
G03*
X163700000Y1850000I-2000000J0D01*
G01*
D13*
X29138748Y10615000D02*
X29661252Y10615000D01*
X29138748Y12035000D02*
X29661252Y12035000D01*
X141742960Y4958732D02*
X141742960Y4436228D01*
X140322960Y4958732D02*
X140322960Y4436228D01*
X135538572Y2130740D02*
X135016068Y2130740D01*
X135538572Y3550740D02*
X135016068Y3550740D01*
X137882020Y4807068D02*
X137882020Y5329572D01*
X139302020Y4807068D02*
X139302020Y5329572D01*
X157113360Y5276968D02*
X157113360Y5799472D01*
X158533360Y5276968D02*
X158533360Y5799472D01*
X154763360Y5276968D02*
X154763360Y5799472D01*
X156183360Y5276968D02*
X156183360Y5799472D01*
X139621088Y8841560D02*
X140143592Y8841560D01*
X139621088Y7421560D02*
X140143592Y7421560D01*
X116792540Y5827412D02*
X116792540Y5304908D01*
X115372540Y5827412D02*
X115372540Y5304908D01*
X84291720Y5827412D02*
X84291720Y5304908D01*
X82871720Y5827412D02*
X82871720Y5304908D01*
X49552140Y5827412D02*
X49552140Y5304908D01*
X48132140Y5827412D02*
X48132140Y5304908D01*
X131472032Y2130740D02*
X130949528Y2130740D01*
X131472032Y3550740D02*
X130949528Y3550740D01*
X96265780Y5596640D02*
X96265780Y3646640D01*
X96265780Y5596640D02*
X96265780Y7546640D01*
X86145780Y5596640D02*
X86145780Y3646640D01*
X86145780Y5596640D02*
X86145780Y9046640D01*
X133471380Y4146620D02*
X130021380Y4146620D01*
X133471380Y4146620D02*
X135421380Y4146620D01*
X133471380Y9266620D02*
X131521380Y9266620D01*
X133471380Y9266620D02*
X135421380Y9266620D01*
X118177720Y5596640D02*
X118177720Y9046640D01*
X118177720Y5596640D02*
X118177720Y3646640D01*
X128297720Y5596640D02*
X128297720Y7546640D01*
X128297720Y5596640D02*
X128297720Y3646640D01*
X51799900Y5596640D02*
X51799900Y9046640D01*
X51799900Y5596640D02*
X51799900Y3646640D01*
X61919900Y5596640D02*
X61919900Y7546640D01*
X61919900Y5596640D02*
X61919900Y3646640D01*
D10*
X156833333Y12038096D02*
X157100000Y12419048D01*
X157290476Y12038096D02*
X157290476Y12838096D01*
X156985714Y12838096D01*
X156909523Y12800000D01*
X156871428Y12761905D01*
X156833333Y12685715D01*
X156833333Y12571429D01*
X156871428Y12495239D01*
X156909523Y12457143D01*
X156985714Y12419048D01*
X157290476Y12419048D01*
X156452380Y12038096D02*
X156300000Y12038096D01*
X156223809Y12076191D01*
X156185714Y12114286D01*
X156109523Y12228572D01*
X156071428Y12380953D01*
X156071428Y12685715D01*
X156109523Y12761905D01*
X156147619Y12800000D01*
X156223809Y12838096D01*
X156376190Y12838096D01*
X156452380Y12800000D01*
X156490476Y12761905D01*
X156528571Y12685715D01*
X156528571Y12495239D01*
X156490476Y12419048D01*
X156452380Y12380953D01*
X156376190Y12342858D01*
X156223809Y12342858D01*
X156147619Y12380953D01*
X156109523Y12419048D01*
X156071428Y12495239D01*
X162014285Y12038096D02*
X162280952Y12419048D01*
X162471428Y12038096D02*
X162471428Y12838096D01*
X162166666Y12838096D01*
X162090476Y12800000D01*
X162052380Y12761905D01*
X162014285Y12685715D01*
X162014285Y12571429D01*
X162052380Y12495239D01*
X162090476Y12457143D01*
X162166666Y12419048D01*
X162471428Y12419048D01*
X161252380Y12038096D02*
X161709523Y12038096D01*
X161480952Y12038096D02*
X161480952Y12838096D01*
X161557142Y12723810D01*
X161633333Y12647620D01*
X161709523Y12609524D01*
X160947619Y12761905D02*
X160909523Y12800000D01*
X160833333Y12838096D01*
X160642857Y12838096D01*
X160566666Y12800000D01*
X160528571Y12761905D01*
X160490476Y12685715D01*
X160490476Y12609524D01*
X160528571Y12495239D01*
X160985714Y12038096D01*
X160490476Y12038096D01*
X159464285Y12038096D02*
X159730952Y12419048D01*
X159921428Y12038096D02*
X159921428Y12838096D01*
X159616666Y12838096D01*
X159540476Y12800000D01*
X159502380Y12761905D01*
X159464285Y12685715D01*
X159464285Y12571429D01*
X159502380Y12495239D01*
X159540476Y12457143D01*
X159616666Y12419048D01*
X159921428Y12419048D01*
X158702380Y12038096D02*
X159159523Y12038096D01*
X158930952Y12038096D02*
X158930952Y12838096D01*
X159007142Y12723810D01*
X159083333Y12647620D01*
X159159523Y12609524D01*
X157940476Y12038096D02*
X158397619Y12038096D01*
X158169047Y12038096D02*
X158169047Y12838096D01*
X158245238Y12723810D01*
X158321428Y12647620D01*
X158397619Y12609524D01*
X154864285Y12038096D02*
X155130952Y12419048D01*
X155321428Y12038096D02*
X155321428Y12838096D01*
X155016666Y12838096D01*
X154940476Y12800000D01*
X154902380Y12761905D01*
X154864285Y12685715D01*
X154864285Y12571429D01*
X154902380Y12495239D01*
X154940476Y12457143D01*
X155016666Y12419048D01*
X155321428Y12419048D01*
X154102380Y12038096D02*
X154559523Y12038096D01*
X154330952Y12038096D02*
X154330952Y12838096D01*
X154407142Y12723810D01*
X154483333Y12647620D01*
X154559523Y12609524D01*
X153607142Y12838096D02*
X153530952Y12838096D01*
X153454761Y12800000D01*
X153416666Y12761905D01*
X153378571Y12685715D01*
X153340476Y12533334D01*
X153340476Y12342858D01*
X153378571Y12190477D01*
X153416666Y12114286D01*
X153454761Y12076191D01*
X153530952Y12038096D01*
X153607142Y12038096D01*
X153683333Y12076191D01*
X153721428Y12114286D01*
X153759523Y12190477D01*
X153797619Y12342858D01*
X153797619Y12533334D01*
X153759523Y12685715D01*
X153721428Y12761905D01*
X153683333Y12800000D01*
X153607142Y12838096D01*
X151686904Y1447620D02*
X151686904Y638096D01*
X151639285Y542858D01*
X151591666Y495239D01*
X151496428Y447620D01*
X151305952Y447620D01*
X151210714Y495239D01*
X151163095Y542858D01*
X151115476Y638096D01*
X151115476Y1447620D01*
X150686904Y1352381D02*
X150639285Y1400000D01*
X150544047Y1447620D01*
X150305952Y1447620D01*
X150210714Y1400000D01*
X150163095Y1352381D01*
X150115476Y1257143D01*
X150115476Y1161905D01*
X150163095Y1019048D01*
X150734523Y447620D01*
X150115476Y447620D01*
X147269047Y447620D02*
X147745238Y447620D01*
X147745238Y1447620D01*
X146935714Y447620D02*
X146935714Y1447620D01*
X146602380Y733334D01*
X146269047Y1447620D01*
X146269047Y447620D01*
X145888095Y1447620D02*
X145269047Y1447620D01*
X145602380Y1066667D01*
X145459523Y1066667D01*
X145364285Y1019048D01*
X145316666Y971429D01*
X145269047Y876191D01*
X145269047Y638096D01*
X145316666Y542858D01*
X145364285Y495239D01*
X145459523Y447620D01*
X145745238Y447620D01*
X145840476Y495239D01*
X145888095Y542858D01*
X144935714Y1447620D02*
X144316666Y1447620D01*
X144650000Y1066667D01*
X144507142Y1066667D01*
X144411904Y1019048D01*
X144364285Y971429D01*
X144316666Y876191D01*
X144316666Y638096D01*
X144364285Y542858D01*
X144411904Y495239D01*
X144507142Y447620D01*
X144792857Y447620D01*
X144888095Y495239D01*
X144935714Y542858D01*
X143840476Y447620D02*
X143650000Y447620D01*
X143554761Y495239D01*
X143507142Y542858D01*
X143411904Y685715D01*
X143364285Y876191D01*
X143364285Y1257143D01*
X143411904Y1352381D01*
X143459523Y1400000D01*
X143554761Y1447620D01*
X143745238Y1447620D01*
X143840476Y1400000D01*
X143888095Y1352381D01*
X143935714Y1257143D01*
X143935714Y1019048D01*
X143888095Y923810D01*
X143840476Y876191D01*
X143745238Y828572D01*
X143554761Y828572D01*
X143459523Y876191D01*
X143411904Y923810D01*
X143364285Y1019048D01*
X142983333Y733334D02*
X142507142Y733334D01*
X143078571Y447620D02*
X142745238Y1447620D01*
X142411904Y447620D01*
X153283333Y7514286D02*
X153321428Y7476191D01*
X153435714Y7438096D01*
X153511904Y7438096D01*
X153626190Y7476191D01*
X153702380Y7552381D01*
X153740476Y7628572D01*
X153778571Y7780953D01*
X153778571Y7895239D01*
X153740476Y8047620D01*
X153702380Y8123810D01*
X153626190Y8200000D01*
X153511904Y8238096D01*
X153435714Y8238096D01*
X153321428Y8200000D01*
X153283333Y8161905D01*
X153016666Y8238096D02*
X152521428Y8238096D01*
X152788095Y7933334D01*
X152673809Y7933334D01*
X152597619Y7895239D01*
X152559523Y7857143D01*
X152521428Y7780953D01*
X152521428Y7590477D01*
X152559523Y7514286D01*
X152597619Y7476191D01*
X152673809Y7438096D01*
X152902380Y7438096D01*
X152978571Y7476191D01*
X153016666Y7514286D01*
X26466666Y8822620D02*
X26800000Y9298810D01*
X27038095Y8822620D02*
X27038095Y9822620D01*
X26657142Y9822620D01*
X26561904Y9775000D01*
X26514285Y9727381D01*
X26466666Y9632143D01*
X26466666Y9489286D01*
X26514285Y9394048D01*
X26561904Y9346429D01*
X26657142Y9298810D01*
X27038095Y9298810D01*
X25895238Y9394048D02*
X25990476Y9441667D01*
X26038095Y9489286D01*
X26085714Y9584524D01*
X26085714Y9632143D01*
X26038095Y9727381D01*
X25990476Y9775000D01*
X25895238Y9822620D01*
X25704761Y9822620D01*
X25609523Y9775000D01*
X25561904Y9727381D01*
X25514285Y9632143D01*
X25514285Y9584524D01*
X25561904Y9489286D01*
X25609523Y9441667D01*
X25704761Y9394048D01*
X25895238Y9394048D01*
X25990476Y9346429D01*
X26038095Y9298810D01*
X26085714Y9203572D01*
X26085714Y9013096D01*
X26038095Y8917858D01*
X25990476Y8870239D01*
X25895238Y8822620D01*
X25704761Y8822620D01*
X25609523Y8870239D01*
X25561904Y8917858D01*
X25514285Y9013096D01*
X25514285Y9203572D01*
X25561904Y9298810D01*
X25609523Y9346429D01*
X25704761Y9394048D01*
X26466666Y12822620D02*
X26800000Y13298810D01*
X27038095Y12822620D02*
X27038095Y13822620D01*
X26657142Y13822620D01*
X26561904Y13775000D01*
X26514285Y13727381D01*
X26466666Y13632143D01*
X26466666Y13489286D01*
X26514285Y13394048D01*
X26561904Y13346429D01*
X26657142Y13298810D01*
X27038095Y13298810D01*
X25609523Y13822620D02*
X25800000Y13822620D01*
X25895238Y13775000D01*
X25942857Y13727381D01*
X26038095Y13584524D01*
X26085714Y13394048D01*
X26085714Y13013096D01*
X26038095Y12917858D01*
X25990476Y12870239D01*
X25895238Y12822620D01*
X25704761Y12822620D01*
X25609523Y12870239D01*
X25561904Y12917858D01*
X25514285Y13013096D01*
X25514285Y13251191D01*
X25561904Y13346429D01*
X25609523Y13394048D01*
X25704761Y13441667D01*
X25895238Y13441667D01*
X25990476Y13394048D01*
X26038095Y13346429D01*
X26085714Y13251191D01*
X26466666Y10872620D02*
X26800000Y11348810D01*
X27038095Y10872620D02*
X27038095Y11872620D01*
X26657142Y11872620D01*
X26561904Y11825000D01*
X26514285Y11777381D01*
X26466666Y11682143D01*
X26466666Y11539286D01*
X26514285Y11444048D01*
X26561904Y11396429D01*
X26657142Y11348810D01*
X27038095Y11348810D01*
X26133333Y11872620D02*
X25466666Y11872620D01*
X25895238Y10872620D01*
X141191666Y1847620D02*
X141525000Y2323810D01*
X141763095Y1847620D02*
X141763095Y2847620D01*
X141382142Y2847620D01*
X141286904Y2800000D01*
X141239285Y2752381D01*
X141191666Y2657143D01*
X141191666Y2514286D01*
X141239285Y2419048D01*
X141286904Y2371429D01*
X141382142Y2323810D01*
X141763095Y2323810D01*
X140286904Y2847620D02*
X140763095Y2847620D01*
X140810714Y2371429D01*
X140763095Y2419048D01*
X140667857Y2466667D01*
X140429761Y2466667D01*
X140334523Y2419048D01*
X140286904Y2371429D01*
X140239285Y2276191D01*
X140239285Y2038096D01*
X140286904Y1942858D01*
X140334523Y1895239D01*
X140429761Y1847620D01*
X140667857Y1847620D01*
X140763095Y1895239D01*
X140810714Y1942858D01*
X134366666Y872620D02*
X134700000Y1348810D01*
X134938095Y872620D02*
X134938095Y1872620D01*
X134557142Y1872620D01*
X134461904Y1825000D01*
X134414285Y1777381D01*
X134366666Y1682143D01*
X134366666Y1539286D01*
X134414285Y1444048D01*
X134461904Y1396429D01*
X134557142Y1348810D01*
X134938095Y1348810D01*
X133509523Y1539286D02*
X133509523Y872620D01*
X133747619Y1920239D02*
X133985714Y1205953D01*
X133366666Y1205953D01*
X138741666Y2222620D02*
X139075000Y2698810D01*
X139313095Y2222620D02*
X139313095Y3222620D01*
X138932142Y3222620D01*
X138836904Y3175000D01*
X138789285Y3127381D01*
X138741666Y3032143D01*
X138741666Y2889286D01*
X138789285Y2794048D01*
X138836904Y2746429D01*
X138932142Y2698810D01*
X139313095Y2698810D01*
X138408333Y3222620D02*
X137789285Y3222620D01*
X138122619Y2841667D01*
X137979761Y2841667D01*
X137884523Y2794048D01*
X137836904Y2746429D01*
X137789285Y2651191D01*
X137789285Y2413096D01*
X137836904Y2317858D01*
X137884523Y2270239D01*
X137979761Y2222620D01*
X138265476Y2222620D01*
X138360714Y2270239D01*
X138408333Y2317858D01*
X157983333Y7438096D02*
X158250000Y7819048D01*
X158440476Y7438096D02*
X158440476Y8238096D01*
X158135714Y8238096D01*
X158059523Y8200000D01*
X158021428Y8161905D01*
X157983333Y8085715D01*
X157983333Y7971429D01*
X158021428Y7895239D01*
X158059523Y7857143D01*
X158135714Y7819048D01*
X158440476Y7819048D01*
X157678571Y8161905D02*
X157640476Y8200000D01*
X157564285Y8238096D01*
X157373809Y8238096D01*
X157297619Y8200000D01*
X157259523Y8161905D01*
X157221428Y8085715D01*
X157221428Y8009524D01*
X157259523Y7895239D01*
X157716666Y7438096D01*
X157221428Y7438096D01*
X155583333Y7438096D02*
X155850000Y7819048D01*
X156040476Y7438096D02*
X156040476Y8238096D01*
X155735714Y8238096D01*
X155659523Y8200000D01*
X155621428Y8161905D01*
X155583333Y8085715D01*
X155583333Y7971429D01*
X155621428Y7895239D01*
X155659523Y7857143D01*
X155735714Y7819048D01*
X156040476Y7819048D01*
X154821428Y7438096D02*
X155278571Y7438096D01*
X155050000Y7438096D02*
X155050000Y8238096D01*
X155126190Y8123810D01*
X155202380Y8047620D01*
X155278571Y8009524D01*
X140051546Y8947898D02*
X140099165Y8900279D01*
X140242022Y8852660D01*
X140337260Y8852660D01*
X140480118Y8900279D01*
X140575356Y8995517D01*
X140622975Y9090755D01*
X140670594Y9281231D01*
X140670594Y9424088D01*
X140622975Y9614564D01*
X140575356Y9709802D01*
X140480118Y9805040D01*
X140337260Y9852660D01*
X140242022Y9852660D01*
X140099165Y9805040D01*
X140051546Y9757421D01*
X139194403Y9852660D02*
X139384880Y9852660D01*
X139480118Y9805040D01*
X139527737Y9757421D01*
X139622975Y9614564D01*
X139670594Y9424088D01*
X139670594Y9043136D01*
X139622975Y8947898D01*
X139575356Y8900279D01*
X139480118Y8852660D01*
X139289641Y8852660D01*
X139194403Y8900279D01*
X139146784Y8947898D01*
X139099165Y9043136D01*
X139099165Y9281231D01*
X139146784Y9376469D01*
X139194403Y9424088D01*
X139289641Y9471707D01*
X139480118Y9471707D01*
X139575356Y9424088D01*
X139622975Y9376469D01*
X139670594Y9281231D01*
X116274606Y2727438D02*
X116322225Y2679819D01*
X116465082Y2632200D01*
X116560320Y2632200D01*
X116703178Y2679819D01*
X116798416Y2775057D01*
X116846035Y2870295D01*
X116893654Y3060771D01*
X116893654Y3203628D01*
X116846035Y3394104D01*
X116798416Y3489342D01*
X116703178Y3584580D01*
X116560320Y3632200D01*
X116465082Y3632200D01*
X116322225Y3584580D01*
X116274606Y3536961D01*
X115369844Y3632200D02*
X115846035Y3632200D01*
X115893654Y3156009D01*
X115846035Y3203628D01*
X115750797Y3251247D01*
X115512701Y3251247D01*
X115417463Y3203628D01*
X115369844Y3156009D01*
X115322225Y3060771D01*
X115322225Y2822676D01*
X115369844Y2727438D01*
X115417463Y2679819D01*
X115512701Y2632200D01*
X115750797Y2632200D01*
X115846035Y2679819D01*
X115893654Y2727438D01*
X83699106Y2475978D02*
X83746725Y2428359D01*
X83889582Y2380740D01*
X83984820Y2380740D01*
X84127678Y2428359D01*
X84222916Y2523597D01*
X84270535Y2618835D01*
X84318154Y2809311D01*
X84318154Y2952168D01*
X84270535Y3142644D01*
X84222916Y3237882D01*
X84127678Y3333120D01*
X83984820Y3380740D01*
X83889582Y3380740D01*
X83746725Y3333120D01*
X83699106Y3285501D01*
X82841963Y3047406D02*
X82841963Y2380740D01*
X83080059Y3428359D02*
X83318154Y2714073D01*
X82699106Y2714073D01*
X48903646Y2483598D02*
X48951265Y2435979D01*
X49094122Y2388360D01*
X49189360Y2388360D01*
X49332218Y2435979D01*
X49427456Y2531217D01*
X49475075Y2626455D01*
X49522694Y2816931D01*
X49522694Y2959788D01*
X49475075Y3150264D01*
X49427456Y3245502D01*
X49332218Y3340740D01*
X49189360Y3388360D01*
X49094122Y3388360D01*
X48951265Y3340740D01*
X48903646Y3293121D01*
X48522694Y3293121D02*
X48475075Y3340740D01*
X48379837Y3388360D01*
X48141741Y3388360D01*
X48046503Y3340740D01*
X47998884Y3293121D01*
X47951265Y3197883D01*
X47951265Y3102645D01*
X47998884Y2959788D01*
X48570313Y2388360D01*
X47951265Y2388360D01*
X131329186Y852918D02*
X131376805Y805299D01*
X131519662Y757680D01*
X131614900Y757680D01*
X131757758Y805299D01*
X131852996Y900537D01*
X131900615Y995775D01*
X131948234Y1186251D01*
X131948234Y1329108D01*
X131900615Y1519584D01*
X131852996Y1614822D01*
X131757758Y1710060D01*
X131614900Y1757680D01*
X131519662Y1757680D01*
X131376805Y1710060D01*
X131329186Y1662441D01*
X130376805Y757680D02*
X130948234Y757680D01*
X130662520Y757680D02*
X130662520Y1757680D01*
X130757758Y1614822D01*
X130852996Y1519584D01*
X130948234Y1471965D01*
X96295844Y1531620D02*
X96295844Y722096D01*
X96248225Y626858D01*
X96200606Y579239D01*
X96105368Y531620D01*
X95914892Y531620D01*
X95819654Y579239D01*
X95772035Y626858D01*
X95724416Y722096D01*
X95724416Y1531620D01*
X94819654Y1198286D02*
X94819654Y531620D01*
X95057749Y1579239D02*
X95295844Y864953D01*
X94676797Y864953D01*
X93235096Y1531620D02*
X92568429Y1531620D01*
X92997000Y531620D01*
X91758905Y1198286D02*
X91758905Y531620D01*
X91997000Y1579239D02*
X92235096Y864953D01*
X91616048Y864953D01*
X91282715Y817334D02*
X90806524Y817334D01*
X91377953Y531620D02*
X91044620Y1531620D01*
X90711286Y531620D01*
X90377953Y531620D02*
X90377953Y1531620D01*
X90377953Y1055429D02*
X89806524Y1055429D01*
X89806524Y531620D02*
X89806524Y1531620D01*
X88758905Y626858D02*
X88806524Y579239D01*
X88949381Y531620D01*
X89044620Y531620D01*
X89187477Y579239D01*
X89282715Y674477D01*
X89330334Y769715D01*
X89377953Y960191D01*
X89377953Y1103048D01*
X89330334Y1293524D01*
X89282715Y1388762D01*
X89187477Y1484000D01*
X89044620Y1531620D01*
X88949381Y1531620D01*
X88806524Y1484000D01*
X88758905Y1436381D01*
X87854143Y1531620D02*
X88330334Y1531620D01*
X88377953Y1055429D01*
X88330334Y1103048D01*
X88235096Y1150667D01*
X87997000Y1150667D01*
X87901762Y1103048D01*
X87854143Y1055429D01*
X87806524Y960191D01*
X87806524Y722096D01*
X87854143Y626858D01*
X87901762Y579239D01*
X87997000Y531620D01*
X88235096Y531620D01*
X88330334Y579239D01*
X88377953Y626858D01*
X87330334Y531620D02*
X87139858Y531620D01*
X87044620Y579239D01*
X86997000Y626858D01*
X86901762Y769715D01*
X86854143Y960191D01*
X86854143Y1341143D01*
X86901762Y1436381D01*
X86949381Y1484000D01*
X87044620Y1531620D01*
X87235096Y1531620D01*
X87330334Y1484000D01*
X87377953Y1436381D01*
X87425572Y1341143D01*
X87425572Y1103048D01*
X87377953Y1007810D01*
X87330334Y960191D01*
X87235096Y912572D01*
X87044620Y912572D01*
X86949381Y960191D01*
X86901762Y1007810D01*
X86854143Y1103048D01*
X85949381Y1531620D02*
X86425572Y1531620D01*
X86473191Y1055429D01*
X86425572Y1103048D01*
X86330334Y1150667D01*
X86092239Y1150667D01*
X85997000Y1103048D01*
X85949381Y1055429D01*
X85901762Y960191D01*
X85901762Y722096D01*
X85949381Y626858D01*
X85997000Y579239D01*
X86092239Y531620D01*
X86330334Y531620D01*
X86425572Y579239D01*
X86473191Y626858D01*
D12*
X136957142Y10028572D02*
X136957142Y9542858D01*
X136928571Y9485715D01*
X136900000Y9457143D01*
X136842857Y9428572D01*
X136728571Y9428572D01*
X136671428Y9457143D01*
X136642857Y9485715D01*
X136614285Y9542858D01*
X136614285Y10028572D01*
X136014285Y9428572D02*
X136357142Y9428572D01*
X136185714Y9428572D02*
X136185714Y10028572D01*
X136242857Y9942858D01*
X136300000Y9885715D01*
X136357142Y9857143D01*
X135285714Y9428572D02*
X135285714Y10028572D01*
X135085714Y9600000D01*
X134885714Y10028572D01*
X134885714Y9428572D01*
X134257142Y9485715D02*
X134285714Y9457143D01*
X134371428Y9428572D01*
X134428571Y9428572D01*
X134514285Y9457143D01*
X134571428Y9514286D01*
X134600000Y9571429D01*
X134628571Y9685715D01*
X134628571Y9771429D01*
X134600000Y9885715D01*
X134571428Y9942858D01*
X134514285Y10000000D01*
X134428571Y10028572D01*
X134371428Y10028572D01*
X134285714Y10000000D01*
X134257142Y9971429D01*
X134000000Y9428572D02*
X134000000Y10028572D01*
X133771428Y10028572D01*
X133714285Y10000000D01*
X133685714Y9971429D01*
X133657142Y9914286D01*
X133657142Y9828572D01*
X133685714Y9771429D01*
X133714285Y9742858D01*
X133771428Y9714286D01*
X134000000Y9714286D01*
X133142857Y9828572D02*
X133142857Y9428572D01*
X133285714Y10057143D02*
X133428571Y9628572D01*
X133057142Y9628572D01*
X132800000Y9428572D02*
X132685714Y9428572D01*
X132628571Y9457143D01*
X132600000Y9485715D01*
X132542857Y9571429D01*
X132514285Y9685715D01*
X132514285Y9914286D01*
X132542857Y9971429D01*
X132571428Y10000000D01*
X132628571Y10028572D01*
X132742857Y10028572D01*
X132800000Y10000000D01*
X132828571Y9971429D01*
X132857142Y9914286D01*
X132857142Y9771429D01*
X132828571Y9714286D01*
X132800000Y9685715D01*
X132742857Y9657143D01*
X132628571Y9657143D01*
X132571428Y9685715D01*
X132542857Y9714286D01*
X132514285Y9771429D01*
X132285714Y9971429D02*
X132257142Y10000000D01*
X132200000Y10028572D01*
X132057142Y10028572D01*
X132000000Y10000000D01*
X131971428Y9971429D01*
X131942857Y9914286D01*
X131942857Y9857143D01*
X131971428Y9771429D01*
X132314285Y9428572D01*
X131942857Y9428572D01*
X131371428Y9428572D02*
X131714285Y9428572D01*
X131542857Y9428572D02*
X131542857Y10028572D01*
X131600000Y9942858D01*
X131657142Y9885715D01*
X131714285Y9857143D01*
X131114285Y9657143D02*
X130657142Y9657143D01*
X130371428Y9742858D02*
X130171428Y9742858D01*
X130085714Y9428572D02*
X130371428Y9428572D01*
X130371428Y10028572D01*
X130085714Y10028572D01*
D10*
X128218564Y1541780D02*
X128218564Y732256D01*
X128170945Y637018D01*
X128123326Y589399D01*
X128028088Y541780D01*
X127837612Y541780D01*
X127742374Y589399D01*
X127694755Y637018D01*
X127647136Y732256D01*
X127647136Y1541780D01*
X127266183Y1541780D02*
X126599517Y1541780D01*
X127028088Y541780D01*
X125548976Y1541780D02*
X124882309Y1541780D01*
X125310880Y541780D01*
X124072785Y1208446D02*
X124072785Y541780D01*
X124310880Y1589399D02*
X124548976Y875113D01*
X123929928Y875113D01*
X123596595Y827494D02*
X123120404Y827494D01*
X123691833Y541780D02*
X123358500Y1541780D01*
X123025166Y541780D01*
X122691833Y541780D02*
X122691833Y1541780D01*
X122691833Y1065589D02*
X122120404Y1065589D01*
X122120404Y541780D02*
X122120404Y1541780D01*
X121072785Y637018D02*
X121120404Y589399D01*
X121263261Y541780D01*
X121358500Y541780D01*
X121501357Y589399D01*
X121596595Y684637D01*
X121644214Y779875D01*
X121691833Y970351D01*
X121691833Y1113208D01*
X121644214Y1303684D01*
X121596595Y1398922D01*
X121501357Y1494160D01*
X121358500Y1541780D01*
X121263261Y1541780D01*
X121120404Y1494160D01*
X121072785Y1446541D01*
X120168023Y1541780D02*
X120644214Y1541780D01*
X120691833Y1065589D01*
X120644214Y1113208D01*
X120548976Y1160827D01*
X120310880Y1160827D01*
X120215642Y1113208D01*
X120168023Y1065589D01*
X120120404Y970351D01*
X120120404Y732256D01*
X120168023Y637018D01*
X120215642Y589399D01*
X120310880Y541780D01*
X120548976Y541780D01*
X120644214Y589399D01*
X120691833Y637018D01*
X119644214Y541780D02*
X119453738Y541780D01*
X119358500Y589399D01*
X119310880Y637018D01*
X119215642Y779875D01*
X119168023Y970351D01*
X119168023Y1351303D01*
X119215642Y1446541D01*
X119263261Y1494160D01*
X119358500Y1541780D01*
X119548976Y1541780D01*
X119644214Y1494160D01*
X119691833Y1446541D01*
X119739452Y1351303D01*
X119739452Y1113208D01*
X119691833Y1017970D01*
X119644214Y970351D01*
X119548976Y922732D01*
X119358500Y922732D01*
X119263261Y970351D01*
X119215642Y1017970D01*
X119168023Y1113208D01*
X118263261Y1541780D02*
X118739452Y1541780D01*
X118787071Y1065589D01*
X118739452Y1113208D01*
X118644214Y1160827D01*
X118406119Y1160827D01*
X118310880Y1113208D01*
X118263261Y1065589D01*
X118215642Y970351D01*
X118215642Y732256D01*
X118263261Y637018D01*
X118310880Y589399D01*
X118406119Y541780D01*
X118644214Y541780D01*
X118739452Y589399D01*
X118787071Y637018D01*
X61952504Y1595120D02*
X61952504Y785596D01*
X61904885Y690358D01*
X61857266Y642739D01*
X61762028Y595120D01*
X61571552Y595120D01*
X61476314Y642739D01*
X61428695Y690358D01*
X61381076Y785596D01*
X61381076Y1595120D01*
X61000123Y1595120D02*
X60381076Y1595120D01*
X60714409Y1214167D01*
X60571552Y1214167D01*
X60476314Y1166548D01*
X60428695Y1118929D01*
X60381076Y1023691D01*
X60381076Y785596D01*
X60428695Y690358D01*
X60476314Y642739D01*
X60571552Y595120D01*
X60857266Y595120D01*
X60952504Y642739D01*
X61000123Y690358D01*
X58922236Y1595120D02*
X58255569Y1595120D01*
X58684140Y595120D01*
X57446045Y1261786D02*
X57446045Y595120D01*
X57684140Y1642739D02*
X57922236Y928453D01*
X57303188Y928453D01*
X56969855Y880834D02*
X56493664Y880834D01*
X57065093Y595120D02*
X56731760Y1595120D01*
X56398426Y595120D01*
X56065093Y595120D02*
X56065093Y1595120D01*
X56065093Y1118929D02*
X55493664Y1118929D01*
X55493664Y595120D02*
X55493664Y1595120D01*
X54446045Y690358D02*
X54493664Y642739D01*
X54636521Y595120D01*
X54731760Y595120D01*
X54874617Y642739D01*
X54969855Y737977D01*
X55017474Y833215D01*
X55065093Y1023691D01*
X55065093Y1166548D01*
X55017474Y1357024D01*
X54969855Y1452262D01*
X54874617Y1547500D01*
X54731760Y1595120D01*
X54636521Y1595120D01*
X54493664Y1547500D01*
X54446045Y1499881D01*
X53541283Y1595120D02*
X54017474Y1595120D01*
X54065093Y1118929D01*
X54017474Y1166548D01*
X53922236Y1214167D01*
X53684140Y1214167D01*
X53588902Y1166548D01*
X53541283Y1118929D01*
X53493664Y1023691D01*
X53493664Y785596D01*
X53541283Y690358D01*
X53588902Y642739D01*
X53684140Y595120D01*
X53922236Y595120D01*
X54017474Y642739D01*
X54065093Y690358D01*
X53017474Y595120D02*
X52826998Y595120D01*
X52731760Y642739D01*
X52684140Y690358D01*
X52588902Y833215D01*
X52541283Y1023691D01*
X52541283Y1404643D01*
X52588902Y1499881D01*
X52636521Y1547500D01*
X52731760Y1595120D01*
X52922236Y1595120D01*
X53017474Y1547500D01*
X53065093Y1499881D01*
X53112712Y1404643D01*
X53112712Y1166548D01*
X53065093Y1071310D01*
X53017474Y1023691D01*
X52922236Y976072D01*
X52731760Y976072D01*
X52636521Y1023691D01*
X52588902Y1071310D01*
X52541283Y1166548D01*
X51636521Y1595120D02*
X52112712Y1595120D01*
X52160331Y1118929D01*
X52112712Y1166548D01*
X52017474Y1214167D01*
X51779379Y1214167D01*
X51684140Y1166548D01*
X51636521Y1118929D01*
X51588902Y1023691D01*
X51588902Y785596D01*
X51636521Y690358D01*
X51684140Y642739D01*
X51779379Y595120D01*
X52017474Y595120D01*
X52112712Y642739D01*
X52160331Y690358D01*
M02*
