M48
; DRILL file {KiCad 5.1.6+dfsg1-1~bpo10+1} date Wed Aug 19 15:46:34 2020
; FORMAT={-:-/ absolute / inch / decimal}
; #@! TF.CreationDate,2020-08-19T15:46:34+03:00
; #@! TF.GenerationSoftware,Kicad,Pcbnew,5.1.6+dfsg1-1~bpo10+1
FMAT,2
INCH
T1C0.0100
T2C0.0118
T3C0.0200
T4C0.0315
T5C0.0394
T6C0.0433
T7C0.0591
T8C0.0454
%
G90
G05
T1
X4.8484Y-4.4134
X4.9429Y-4.5748
X5.0276Y-4.6555
X5.061Y-4.4252
X5.0925Y-4.7264
X5.0985Y-4.4548
X5.1004Y-4.5669
X5.1659Y-4.7527
X5.2106Y-4.6811
X5.2283Y-4.4252
X5.2756Y-4.7441
X5.2835Y-4.6437
X5.3091Y-4.7461
X5.3315Y-4.6568
X5.3484Y-4.7972
X5.5008Y-4.7441
X5.5161Y-4.2919
X5.5457Y-4.7742
X5.5492Y-4.3917
X5.5709Y-4.6811
X5.6335Y-4.7596
X5.6949Y-4.7559
X5.711Y-4.5701
X5.717Y-4.4612
X5.7174Y-4.8797
X5.7665Y-4.6947
X5.853Y-4.4799
X5.8804Y-4.9084
X6.0089Y-4.4799
X6.0384Y-4.6972
X6.096Y-4.9082
X6.1648Y-4.4799
X6.1788Y-4.6972
X6.2518Y-4.7628
X6.3207Y-4.4799
X6.3503Y-4.7466
X6.4505Y-4.7487
X6.4766Y-4.4799
X6.5008Y-4.7496
X6.6325Y-4.4799
X6.6598Y-4.6579
X6.6611Y-4.8112
X6.7331Y-4.7944
X6.7884Y-4.4799
X6.791Y-4.6649
X6.9105Y-4.6521
X6.9443Y-4.4799
X6.9516Y-4.7902
X7.0503Y-4.669
X7.1002Y-4.4799
X7.1139Y-4.6736
X7.1845Y-4.7953
X7.2299Y-4.6668
X7.2561Y-4.4799
X7.3798Y-4.7956
X7.412Y-4.4799
X7.4168Y-4.6657
X7.5486Y-4.6635
X7.5492Y-4.7953
X7.5679Y-4.4799
X7.7028Y-4.7626
X7.7239Y-4.4799
X7.7528Y-4.759
X7.803Y-4.762
X7.8531Y-4.7632
X7.8798Y-4.4799
X7.9297Y-4.7738
X7.9994Y-4.6684
X8.0208Y-4.788
X8.0357Y-4.4799
X8.1432Y-4.6681
X8.1916Y-4.4799
X8.2784Y-4.6675
X8.3475Y-4.4799
X8.3669Y-4.7874
X8.3892Y-4.6681
X8.5034Y-4.4799
X8.5097Y-4.6701
X8.5923Y-4.6691
X8.6593Y-4.4799
X8.6982Y-4.6522
X8.8152Y-4.4799
X8.8229Y-4.6614
X8.8268Y-4.7835
X8.9638Y-4.7717
X8.9711Y-4.4799
X9.0634Y-4.7669
X9.1134Y-4.7641
X9.127Y-4.4799
X9.147Y-4.6972
X9.2614Y-4.7846
X9.2689Y-4.6429
X9.2748Y-4.7148
X9.2829Y-4.4799
X9.3954Y-4.9147
X9.4223Y-4.7193
X9.425Y-4.6601
X9.4744Y-4.7894
X9.4757Y-4.7181
X9.6087Y-4.637
X9.6811Y-4.4685
X9.7293Y-4.9154
X9.7323Y-4.5807
X9.7397Y-4.6807
X9.7461Y-4.4823
X9.8257Y-4.7763
X9.8263Y-4.728
X9.8771Y-4.7782
X9.8777Y-4.725
X9.9862Y-4.5827
X9.9961Y-4.75
X10.0522Y-4.5915
X10.065Y-4.7598
X10.1043Y-4.5768
X10.1732Y-4.6122
X10.2106Y-4.8809
X10.2136Y-4.8386
X10.2205Y-4.565
X10.2825Y-4.7795
X10.2889Y-4.7267
X10.3327Y-4.876
X10.3594Y-4.4628
X10.4349Y-4.4635
X10.44Y-4.7972
X10.4882Y-4.5531
X10.498Y-4.6909
X10.5541Y-4.7436
T2
X4.5394Y-4.7302
X4.5867Y-4.7302
X4.6339Y-4.7302
X4.5835Y-4.3702
X4.6308Y-4.3702
X4.678Y-4.3702
T3
X4.7123Y-4.6312
X5.1949Y-4.5256
X9.9262Y-4.7303
X9.9262Y-4.7766
X10.1467Y-4.7795
X10.1506Y-4.7323
T5
X5.6043Y-4.2915
X5.6043Y-4.3915
X5.7043Y-4.2915
X5.7043Y-4.3915
X5.8043Y-4.2915
X5.8043Y-4.3915
T6
X4.3306Y-4.2845
X4.3306Y-4.8845
X4.4306Y-4.2845
X4.4306Y-4.8845
X4.5306Y-4.2845
X4.5306Y-4.8845
X4.6306Y-4.2845
X4.6306Y-4.8845
X4.7306Y-4.2845
X4.7306Y-4.8845
X4.8306Y-4.2845
X4.8306Y-4.8845
X4.9306Y-4.2845
X4.9306Y-4.8845
X5.0306Y-4.2845
X5.0306Y-4.8845
X5.1306Y-4.2845
X5.1306Y-4.8845
X5.2306Y-4.2845
X5.2306Y-4.8845
X5.3306Y-4.2845
X5.3306Y-4.8845
X5.4306Y-4.2845
X5.4306Y-4.8845
T7
X10.5531Y-4.8839
T8
X10.4134Y-4.8878
X10.4134Y-4.1063
X4.3366Y-4.7717
X4.3366Y-4.1063
T4
G00X5.6568Y-4.5227
M15
G01X5.582Y-4.5227
M16
G05
G00X5.8127Y-4.5227
M15
G01X5.7379Y-4.5227
M16
G05
G00X5.9686Y-4.5227
M15
G01X5.8938Y-4.5227
M16
G05
G00X6.1245Y-4.5227
M15
G01X6.0497Y-4.5227
M16
G05
G00X6.2804Y-4.5227
M15
G01X6.2056Y-4.5227
M16
G05
G00X6.4363Y-4.5227
M15
G01X6.3615Y-4.5227
M16
G05
G00X6.5922Y-4.5227
M15
G01X6.5174Y-4.5227
M16
G05
G00X6.7481Y-4.5227
M15
G01X6.6733Y-4.5227
M16
G05
G00X6.904Y-4.5227
M15
G01X6.8292Y-4.5227
M16
G05
G00X7.0599Y-4.5227
M15
G01X6.9851Y-4.5227
M16
G05
G00X7.2158Y-4.5227
M15
G01X7.141Y-4.5227
M16
G05
G00X7.3717Y-4.5227
M15
G01X7.2969Y-4.5227
M16
G05
G00X7.5276Y-4.5227
M15
G01X7.4528Y-4.5227
M16
G05
G00X7.6835Y-4.5227
M15
G01X7.6087Y-4.5227
M16
G05
G00X7.8394Y-4.5227
M15
G01X7.7646Y-4.5227
M16
G05
G00X7.9953Y-4.5227
M15
G01X7.9205Y-4.5227
M16
G05
G00X8.1512Y-4.5227
M15
G01X8.0764Y-4.5227
M16
G05
G00X8.3072Y-4.5227
M15
G01X8.2323Y-4.5227
M16
G05
G00X8.4631Y-4.5227
M15
G01X8.3883Y-4.5227
M16
G05
G00X8.619Y-4.5227
M15
G01X8.5442Y-4.5227
M16
G05
G00X8.7749Y-4.5227
M15
G01X8.7001Y-4.5227
M16
G05
G00X8.9308Y-4.5227
M15
G01X8.856Y-4.5227
M16
G05
G00X9.0867Y-4.5227
M15
G01X9.0119Y-4.5227
M16
G05
G00X9.2426Y-4.5227
M15
G01X9.1678Y-4.5227
M16
G05
G00X9.3985Y-4.5227
M15
G01X9.3237Y-4.5227
M16
G05
G00X9.5544Y-4.5227
M15
G01X9.4796Y-4.5227
M16
G05
G00X9.7103Y-4.5227
M15
G01X9.6355Y-4.5227
M16
G05
G00X9.8662Y-4.5227
M15
G01X9.7914Y-4.5227
M16
G05
G00X10.0221Y-4.5227
M15
G01X9.9473Y-4.5227
M16
G05
G00X10.178Y-4.5227
M15
G01X10.1032Y-4.5227
M16
G05
T0
M30
