G04 #@! TF.GenerationSoftware,KiCad,Pcbnew,5.1.6+dfsg1-1~bpo10+1*
G04 #@! TF.CreationDate,2020-08-19T20:33:55+03:00*
G04 #@! TF.ProjectId,CompactBeamspringP1,436f6d70-6163-4744-9265-616d73707269,0.0.3*
G04 #@! TF.SameCoordinates,PX66a9bd0PY78114e0*
G04 #@! TF.FileFunction,Soldermask,Bot*
G04 #@! TF.FilePolarity,Negative*
%FSLAX46Y46*%
G04 Gerber Fmt 4.6, Leading zero omitted, Abs format (unit mm)*
G04 Created by KiCad (PCBNEW 5.1.6+dfsg1-1~bpo10+1) date 2020-08-19 20:33:55*
%MOMM*%
%LPD*%
G01*
G04 APERTURE LIST*
%ADD10C,0.100000*%
G04 APERTURE END LIST*
D10*
G36*
X162152352Y3341204D02*
G01*
X162152355Y3341203D01*
X162152354Y3341203D01*
X162434580Y3224301D01*
X162688578Y3054585D01*
X162904585Y2838578D01*
X163074301Y2584580D01*
X163117931Y2479247D01*
X163191204Y2302352D01*
X163250800Y2002741D01*
X163250800Y1697259D01*
X163191204Y1397648D01*
X163191203Y1397646D01*
X163074301Y1115420D01*
X162904585Y861422D01*
X162688578Y645415D01*
X162434580Y475699D01*
X162235014Y393036D01*
X162152352Y358796D01*
X161852741Y299200D01*
X161547259Y299200D01*
X161247648Y358796D01*
X161164986Y393036D01*
X160965420Y475699D01*
X160711422Y645415D01*
X160495415Y861422D01*
X160325699Y1115420D01*
X160208797Y1397646D01*
X160208796Y1397648D01*
X160149200Y1697259D01*
X160149200Y2002741D01*
X160208796Y2302352D01*
X160282069Y2479247D01*
X160325699Y2584580D01*
X160495415Y2838578D01*
X160711422Y3054585D01*
X160965420Y3224301D01*
X161247646Y3341203D01*
X161247645Y3341203D01*
X161247648Y3341204D01*
X161547259Y3400800D01*
X161852741Y3400800D01*
X162152352Y3341204D01*
G37*
G36*
X139460662Y1704633D02*
G01*
X139560902Y1663113D01*
X139651114Y1602834D01*
X139727834Y1526114D01*
X139788113Y1435902D01*
X139829633Y1335662D01*
X139850800Y1229249D01*
X139850800Y1120751D01*
X139829633Y1014338D01*
X139788113Y914098D01*
X139727834Y823886D01*
X139651114Y747166D01*
X139560902Y686887D01*
X139460662Y645367D01*
X139354249Y624200D01*
X139245751Y624200D01*
X139139338Y645367D01*
X139039098Y686887D01*
X138948886Y747166D01*
X138872166Y823886D01*
X138811887Y914098D01*
X138770367Y1014338D01*
X138749200Y1120751D01*
X138749200Y1229249D01*
X138770367Y1335662D01*
X138811887Y1435902D01*
X138872166Y1526114D01*
X138948886Y1602834D01*
X139039098Y1663113D01*
X139139338Y1704633D01*
X139245751Y1725800D01*
X139354249Y1725800D01*
X139460662Y1704633D01*
G37*
G36*
X158211183Y2346177D02*
G01*
X158342943Y2291600D01*
X158461523Y2212367D01*
X158562367Y2111523D01*
X158641600Y1992943D01*
X158696177Y1861183D01*
X158724000Y1721308D01*
X158724000Y1578692D01*
X158696177Y1438817D01*
X158641600Y1307057D01*
X158562367Y1188477D01*
X158461523Y1087633D01*
X158342943Y1008400D01*
X158211183Y953823D01*
X158071308Y926000D01*
X157928692Y926000D01*
X157788817Y953823D01*
X157657057Y1008400D01*
X157538477Y1087633D01*
X157437633Y1188477D01*
X157358400Y1307057D01*
X157303823Y1438817D01*
X157276000Y1578692D01*
X157276000Y1721308D01*
X157303823Y1861183D01*
X157358400Y1992943D01*
X157437633Y2111523D01*
X157538477Y2212367D01*
X157657057Y2291600D01*
X157788817Y2346177D01*
X157928692Y2374000D01*
X158071308Y2374000D01*
X158211183Y2346177D01*
G37*
G36*
X15295069Y2651485D02*
G01*
X15449905Y2587349D01*
X15589254Y2494240D01*
X15707760Y2375734D01*
X15800869Y2236385D01*
X15865005Y2081549D01*
X15897700Y1917177D01*
X15897700Y1749583D01*
X15865005Y1585211D01*
X15800869Y1430375D01*
X15707760Y1291026D01*
X15589254Y1172520D01*
X15449905Y1079411D01*
X15295069Y1015275D01*
X15130697Y982580D01*
X14963103Y982580D01*
X14798731Y1015275D01*
X14643895Y1079411D01*
X14504546Y1172520D01*
X14386040Y1291026D01*
X14292931Y1430375D01*
X14228795Y1585211D01*
X14196100Y1749583D01*
X14196100Y1917177D01*
X14228795Y2081549D01*
X14292931Y2236385D01*
X14386040Y2375734D01*
X14504546Y2494240D01*
X14643895Y2587349D01*
X14798731Y2651485D01*
X14963103Y2684180D01*
X15130697Y2684180D01*
X15295069Y2651485D01*
G37*
G36*
X3197700Y982580D02*
G01*
X1496100Y982580D01*
X1496100Y2684180D01*
X3197700Y2684180D01*
X3197700Y982580D01*
G37*
G36*
X5135069Y2651485D02*
G01*
X5289905Y2587349D01*
X5429254Y2494240D01*
X5547760Y2375734D01*
X5640869Y2236385D01*
X5705005Y2081549D01*
X5737700Y1917177D01*
X5737700Y1749583D01*
X5705005Y1585211D01*
X5640869Y1430375D01*
X5547760Y1291026D01*
X5429254Y1172520D01*
X5289905Y1079411D01*
X5135069Y1015275D01*
X4970697Y982580D01*
X4803103Y982580D01*
X4638731Y1015275D01*
X4483895Y1079411D01*
X4344546Y1172520D01*
X4226040Y1291026D01*
X4132931Y1430375D01*
X4068795Y1585211D01*
X4036100Y1749583D01*
X4036100Y1917177D01*
X4068795Y2081549D01*
X4132931Y2236385D01*
X4226040Y2375734D01*
X4344546Y2494240D01*
X4483895Y2587349D01*
X4638731Y2651485D01*
X4803103Y2684180D01*
X4970697Y2684180D01*
X5135069Y2651485D01*
G37*
G36*
X7675069Y2651485D02*
G01*
X7829905Y2587349D01*
X7969254Y2494240D01*
X8087760Y2375734D01*
X8180869Y2236385D01*
X8245005Y2081549D01*
X8277700Y1917177D01*
X8277700Y1749583D01*
X8245005Y1585211D01*
X8180869Y1430375D01*
X8087760Y1291026D01*
X7969254Y1172520D01*
X7829905Y1079411D01*
X7675069Y1015275D01*
X7510697Y982580D01*
X7343103Y982580D01*
X7178731Y1015275D01*
X7023895Y1079411D01*
X6884546Y1172520D01*
X6766040Y1291026D01*
X6672931Y1430375D01*
X6608795Y1585211D01*
X6576100Y1749583D01*
X6576100Y1917177D01*
X6608795Y2081549D01*
X6672931Y2236385D01*
X6766040Y2375734D01*
X6884546Y2494240D01*
X7023895Y2587349D01*
X7178731Y2651485D01*
X7343103Y2684180D01*
X7510697Y2684180D01*
X7675069Y2651485D01*
G37*
G36*
X10215069Y2651485D02*
G01*
X10369905Y2587349D01*
X10509254Y2494240D01*
X10627760Y2375734D01*
X10720869Y2236385D01*
X10785005Y2081549D01*
X10817700Y1917177D01*
X10817700Y1749583D01*
X10785005Y1585211D01*
X10720869Y1430375D01*
X10627760Y1291026D01*
X10509254Y1172520D01*
X10369905Y1079411D01*
X10215069Y1015275D01*
X10050697Y982580D01*
X9883103Y982580D01*
X9718731Y1015275D01*
X9563895Y1079411D01*
X9424546Y1172520D01*
X9306040Y1291026D01*
X9212931Y1430375D01*
X9148795Y1585211D01*
X9116100Y1749583D01*
X9116100Y1917177D01*
X9148795Y2081549D01*
X9212931Y2236385D01*
X9306040Y2375734D01*
X9424546Y2494240D01*
X9563895Y2587349D01*
X9718731Y2651485D01*
X9883103Y2684180D01*
X10050697Y2684180D01*
X10215069Y2651485D01*
G37*
G36*
X12755069Y2651485D02*
G01*
X12909905Y2587349D01*
X13049254Y2494240D01*
X13167760Y2375734D01*
X13260869Y2236385D01*
X13325005Y2081549D01*
X13357700Y1917177D01*
X13357700Y1749583D01*
X13325005Y1585211D01*
X13260869Y1430375D01*
X13167760Y1291026D01*
X13049254Y1172520D01*
X12909905Y1079411D01*
X12755069Y1015275D01*
X12590697Y982580D01*
X12423103Y982580D01*
X12258731Y1015275D01*
X12103895Y1079411D01*
X11964546Y1172520D01*
X11846040Y1291026D01*
X11752931Y1430375D01*
X11688795Y1585211D01*
X11656100Y1749583D01*
X11656100Y1917177D01*
X11688795Y2081549D01*
X11752931Y2236385D01*
X11846040Y2375734D01*
X11964546Y2494240D01*
X12103895Y2587349D01*
X12258731Y2651485D01*
X12423103Y2684180D01*
X12590697Y2684180D01*
X12755069Y2651485D01*
G37*
G36*
X17835069Y2651485D02*
G01*
X17989905Y2587349D01*
X18129254Y2494240D01*
X18247760Y2375734D01*
X18340869Y2236385D01*
X18405005Y2081549D01*
X18437700Y1917177D01*
X18437700Y1749583D01*
X18405005Y1585211D01*
X18340869Y1430375D01*
X18247760Y1291026D01*
X18129254Y1172520D01*
X17989905Y1079411D01*
X17835069Y1015275D01*
X17670697Y982580D01*
X17503103Y982580D01*
X17338731Y1015275D01*
X17183895Y1079411D01*
X17044546Y1172520D01*
X16926040Y1291026D01*
X16832931Y1430375D01*
X16768795Y1585211D01*
X16736100Y1749583D01*
X16736100Y1917177D01*
X16768795Y2081549D01*
X16832931Y2236385D01*
X16926040Y2375734D01*
X17044546Y2494240D01*
X17183895Y2587349D01*
X17338731Y2651485D01*
X17503103Y2684180D01*
X17670697Y2684180D01*
X17835069Y2651485D01*
G37*
G36*
X20375069Y2651485D02*
G01*
X20529905Y2587349D01*
X20669254Y2494240D01*
X20787760Y2375734D01*
X20880869Y2236385D01*
X20945005Y2081549D01*
X20977700Y1917177D01*
X20977700Y1749583D01*
X20945005Y1585211D01*
X20880869Y1430375D01*
X20787760Y1291026D01*
X20669254Y1172520D01*
X20529905Y1079411D01*
X20375069Y1015275D01*
X20210697Y982580D01*
X20043103Y982580D01*
X19878731Y1015275D01*
X19723895Y1079411D01*
X19584546Y1172520D01*
X19466040Y1291026D01*
X19372931Y1430375D01*
X19308795Y1585211D01*
X19276100Y1749583D01*
X19276100Y1917177D01*
X19308795Y2081549D01*
X19372931Y2236385D01*
X19466040Y2375734D01*
X19584546Y2494240D01*
X19723895Y2587349D01*
X19878731Y2651485D01*
X20043103Y2684180D01*
X20210697Y2684180D01*
X20375069Y2651485D01*
G37*
G36*
X22915069Y2651485D02*
G01*
X23069905Y2587349D01*
X23209254Y2494240D01*
X23327760Y2375734D01*
X23420869Y2236385D01*
X23485005Y2081549D01*
X23517700Y1917177D01*
X23517700Y1749583D01*
X23485005Y1585211D01*
X23420869Y1430375D01*
X23327760Y1291026D01*
X23209254Y1172520D01*
X23069905Y1079411D01*
X22915069Y1015275D01*
X22750697Y982580D01*
X22583103Y982580D01*
X22418731Y1015275D01*
X22263895Y1079411D01*
X22124546Y1172520D01*
X22006040Y1291026D01*
X21912931Y1430375D01*
X21848795Y1585211D01*
X21816100Y1749583D01*
X21816100Y1917177D01*
X21848795Y2081549D01*
X21912931Y2236385D01*
X22006040Y2375734D01*
X22124546Y2494240D01*
X22263895Y2587349D01*
X22418731Y2651485D01*
X22583103Y2684180D01*
X22750697Y2684180D01*
X22915069Y2651485D01*
G37*
G36*
X27995069Y2651485D02*
G01*
X28149905Y2587349D01*
X28289254Y2494240D01*
X28407760Y2375734D01*
X28500869Y2236385D01*
X28565005Y2081549D01*
X28597700Y1917177D01*
X28597700Y1749583D01*
X28565005Y1585211D01*
X28500869Y1430375D01*
X28407760Y1291026D01*
X28289254Y1172520D01*
X28149905Y1079411D01*
X27995069Y1015275D01*
X27830697Y982580D01*
X27663103Y982580D01*
X27498731Y1015275D01*
X27343895Y1079411D01*
X27204546Y1172520D01*
X27086040Y1291026D01*
X26992931Y1430375D01*
X26928795Y1585211D01*
X26896100Y1749583D01*
X26896100Y1917177D01*
X26928795Y2081549D01*
X26992931Y2236385D01*
X27086040Y2375734D01*
X27204546Y2494240D01*
X27343895Y2587349D01*
X27498731Y2651485D01*
X27663103Y2684180D01*
X27830697Y2684180D01*
X27995069Y2651485D01*
G37*
G36*
X30535069Y2651485D02*
G01*
X30689905Y2587349D01*
X30829254Y2494240D01*
X30947760Y2375734D01*
X31040869Y2236385D01*
X31105005Y2081549D01*
X31137700Y1917177D01*
X31137700Y1749583D01*
X31105005Y1585211D01*
X31040869Y1430375D01*
X30947760Y1291026D01*
X30829254Y1172520D01*
X30689905Y1079411D01*
X30535069Y1015275D01*
X30370697Y982580D01*
X30203103Y982580D01*
X30038731Y1015275D01*
X29883895Y1079411D01*
X29744546Y1172520D01*
X29626040Y1291026D01*
X29532931Y1430375D01*
X29468795Y1585211D01*
X29436100Y1749583D01*
X29436100Y1917177D01*
X29468795Y2081549D01*
X29532931Y2236385D01*
X29626040Y2375734D01*
X29744546Y2494240D01*
X29883895Y2587349D01*
X30038731Y2651485D01*
X30203103Y2684180D01*
X30370697Y2684180D01*
X30535069Y2651485D01*
G37*
G36*
X25455069Y2651485D02*
G01*
X25609905Y2587349D01*
X25749254Y2494240D01*
X25867760Y2375734D01*
X25960869Y2236385D01*
X26025005Y2081549D01*
X26057700Y1917177D01*
X26057700Y1749583D01*
X26025005Y1585211D01*
X25960869Y1430375D01*
X25867760Y1291026D01*
X25749254Y1172520D01*
X25609905Y1079411D01*
X25455069Y1015275D01*
X25290697Y982580D01*
X25123103Y982580D01*
X24958731Y1015275D01*
X24803895Y1079411D01*
X24664546Y1172520D01*
X24546040Y1291026D01*
X24452931Y1430375D01*
X24388795Y1585211D01*
X24356100Y1749583D01*
X24356100Y1917177D01*
X24388795Y2081549D01*
X24452931Y2236385D01*
X24546040Y2375734D01*
X24664546Y2494240D01*
X24803895Y2587349D01*
X24958731Y2651485D01*
X25123103Y2684180D01*
X25290697Y2684180D01*
X25455069Y2651485D01*
G37*
G36*
X147282654Y3727756D02*
G01*
X147310779Y3719224D01*
X147336695Y3705372D01*
X147359409Y3686729D01*
X147378052Y3664015D01*
X147391904Y3638099D01*
X147400436Y3609974D01*
X147403560Y3578249D01*
X147403560Y1831911D01*
X147400436Y1800186D01*
X147391904Y1772061D01*
X147378052Y1746145D01*
X147359409Y1723431D01*
X147336695Y1704788D01*
X147310779Y1690936D01*
X147282654Y1682404D01*
X147250929Y1679280D01*
X146854591Y1679280D01*
X146822866Y1682404D01*
X146794741Y1690936D01*
X146768825Y1704788D01*
X146746111Y1723431D01*
X146727468Y1746145D01*
X146713616Y1772061D01*
X146705084Y1800186D01*
X146701960Y1831911D01*
X146701960Y3578249D01*
X146705084Y3609974D01*
X146713616Y3638099D01*
X146727468Y3664015D01*
X146746111Y3686729D01*
X146768825Y3705372D01*
X146794741Y3719224D01*
X146822866Y3727756D01*
X146854591Y3730880D01*
X147250929Y3730880D01*
X147282654Y3727756D01*
G37*
G36*
X146012654Y3727756D02*
G01*
X146040779Y3719224D01*
X146066695Y3705372D01*
X146089409Y3686729D01*
X146108052Y3664015D01*
X146121904Y3638099D01*
X146130436Y3609974D01*
X146133560Y3578249D01*
X146133560Y1831911D01*
X146130436Y1800186D01*
X146121904Y1772061D01*
X146108052Y1746145D01*
X146089409Y1723431D01*
X146066695Y1704788D01*
X146040779Y1690936D01*
X146012654Y1682404D01*
X145980929Y1679280D01*
X145584591Y1679280D01*
X145552866Y1682404D01*
X145524741Y1690936D01*
X145498825Y1704788D01*
X145476111Y1723431D01*
X145457468Y1746145D01*
X145443616Y1772061D01*
X145435084Y1800186D01*
X145431960Y1831911D01*
X145431960Y3578249D01*
X145435084Y3609974D01*
X145443616Y3638099D01*
X145457468Y3664015D01*
X145476111Y3686729D01*
X145498825Y3705372D01*
X145524741Y3719224D01*
X145552866Y3727756D01*
X145584591Y3730880D01*
X145980929Y3730880D01*
X146012654Y3727756D01*
G37*
G36*
X144742654Y3727756D02*
G01*
X144770779Y3719224D01*
X144796695Y3705372D01*
X144819409Y3686729D01*
X144838052Y3664015D01*
X144851904Y3638099D01*
X144860436Y3609974D01*
X144863560Y3578249D01*
X144863560Y1831911D01*
X144860436Y1800186D01*
X144851904Y1772061D01*
X144838052Y1746145D01*
X144819409Y1723431D01*
X144796695Y1704788D01*
X144770779Y1690936D01*
X144742654Y1682404D01*
X144710929Y1679280D01*
X144314591Y1679280D01*
X144282866Y1682404D01*
X144254741Y1690936D01*
X144228825Y1704788D01*
X144206111Y1723431D01*
X144187468Y1746145D01*
X144173616Y1772061D01*
X144165084Y1800186D01*
X144161960Y1831911D01*
X144161960Y3578249D01*
X144165084Y3609974D01*
X144173616Y3638099D01*
X144187468Y3664015D01*
X144206111Y3686729D01*
X144228825Y3705372D01*
X144254741Y3719224D01*
X144282866Y3727756D01*
X144314591Y3730880D01*
X144710929Y3730880D01*
X144742654Y3727756D01*
G37*
G36*
X149822654Y3727756D02*
G01*
X149850779Y3719224D01*
X149876695Y3705372D01*
X149899409Y3686729D01*
X149918052Y3664015D01*
X149931904Y3638099D01*
X149940436Y3609974D01*
X149943560Y3578249D01*
X149943560Y1831911D01*
X149940436Y1800186D01*
X149931904Y1772061D01*
X149918052Y1746145D01*
X149899409Y1723431D01*
X149876695Y1704788D01*
X149850779Y1690936D01*
X149822654Y1682404D01*
X149790929Y1679280D01*
X149394591Y1679280D01*
X149362866Y1682404D01*
X149334741Y1690936D01*
X149308825Y1704788D01*
X149286111Y1723431D01*
X149267468Y1746145D01*
X149253616Y1772061D01*
X149245084Y1800186D01*
X149241960Y1831911D01*
X149241960Y3578249D01*
X149245084Y3609974D01*
X149253616Y3638099D01*
X149267468Y3664015D01*
X149286111Y3686729D01*
X149308825Y3705372D01*
X149334741Y3719224D01*
X149362866Y3727756D01*
X149394591Y3730880D01*
X149790929Y3730880D01*
X149822654Y3727756D01*
G37*
G36*
X151092654Y3727756D02*
G01*
X151120779Y3719224D01*
X151146695Y3705372D01*
X151169409Y3686729D01*
X151188052Y3664015D01*
X151201904Y3638099D01*
X151210436Y3609974D01*
X151213560Y3578249D01*
X151213560Y1831911D01*
X151210436Y1800186D01*
X151201904Y1772061D01*
X151188052Y1746145D01*
X151169409Y1723431D01*
X151146695Y1704788D01*
X151120779Y1690936D01*
X151092654Y1682404D01*
X151060929Y1679280D01*
X150664591Y1679280D01*
X150632866Y1682404D01*
X150604741Y1690936D01*
X150578825Y1704788D01*
X150556111Y1723431D01*
X150537468Y1746145D01*
X150523616Y1772061D01*
X150515084Y1800186D01*
X150511960Y1831911D01*
X150511960Y3578249D01*
X150515084Y3609974D01*
X150523616Y3638099D01*
X150537468Y3664015D01*
X150556111Y3686729D01*
X150578825Y3705372D01*
X150604741Y3719224D01*
X150632866Y3727756D01*
X150664591Y3730880D01*
X151060929Y3730880D01*
X151092654Y3727756D01*
G37*
G36*
X143472654Y3727756D02*
G01*
X143500779Y3719224D01*
X143526695Y3705372D01*
X143549409Y3686729D01*
X143568052Y3664015D01*
X143581904Y3638099D01*
X143590436Y3609974D01*
X143593560Y3578249D01*
X143593560Y1831911D01*
X143590436Y1800186D01*
X143581904Y1772061D01*
X143568052Y1746145D01*
X143549409Y1723431D01*
X143526695Y1704788D01*
X143500779Y1690936D01*
X143472654Y1682404D01*
X143440929Y1679280D01*
X143044591Y1679280D01*
X143012866Y1682404D01*
X142984741Y1690936D01*
X142958825Y1704788D01*
X142936111Y1723431D01*
X142917468Y1746145D01*
X142903616Y1772061D01*
X142895084Y1800186D01*
X142891960Y1831911D01*
X142891960Y3578249D01*
X142895084Y3609974D01*
X142903616Y3638099D01*
X142917468Y3664015D01*
X142936111Y3686729D01*
X142958825Y3705372D01*
X142984741Y3719224D01*
X143012866Y3727756D01*
X143044591Y3730880D01*
X143440929Y3730880D01*
X143472654Y3727756D01*
G37*
G36*
X148552654Y3727756D02*
G01*
X148580779Y3719224D01*
X148606695Y3705372D01*
X148629409Y3686729D01*
X148648052Y3664015D01*
X148661904Y3638099D01*
X148670436Y3609974D01*
X148673560Y3578249D01*
X148673560Y1831911D01*
X148670436Y1800186D01*
X148661904Y1772061D01*
X148648052Y1746145D01*
X148629409Y1723431D01*
X148606695Y1704788D01*
X148580779Y1690936D01*
X148552654Y1682404D01*
X148520929Y1679280D01*
X148124591Y1679280D01*
X148092866Y1682404D01*
X148064741Y1690936D01*
X148038825Y1704788D01*
X148016111Y1723431D01*
X147997468Y1746145D01*
X147983616Y1772061D01*
X147975084Y1800186D01*
X147971960Y1831911D01*
X147971960Y3578249D01*
X147975084Y3609974D01*
X147983616Y3638099D01*
X147997468Y3664015D01*
X148016111Y3686729D01*
X148038825Y3705372D01*
X148064741Y3719224D01*
X148092866Y3727756D01*
X148124591Y3730880D01*
X148520929Y3730880D01*
X148552654Y3727756D01*
G37*
G36*
X155310662Y2954633D02*
G01*
X155410902Y2913113D01*
X155501114Y2852834D01*
X155577834Y2776114D01*
X155638113Y2685902D01*
X155679633Y2585662D01*
X155700800Y2479249D01*
X155700800Y2370751D01*
X155679633Y2264338D01*
X155638113Y2164098D01*
X155577834Y2073886D01*
X155501114Y1997166D01*
X155410902Y1936887D01*
X155310662Y1895367D01*
X155204249Y1874200D01*
X155095751Y1874200D01*
X154989338Y1895367D01*
X154889098Y1936887D01*
X154798886Y1997166D01*
X154722166Y2073886D01*
X154661887Y2164098D01*
X154620367Y2264338D01*
X154599200Y2370751D01*
X154599200Y2479249D01*
X154620367Y2585662D01*
X154661887Y2685902D01*
X154722166Y2776114D01*
X154798886Y2852834D01*
X154889098Y2913113D01*
X154989338Y2954633D01*
X155095751Y2975800D01*
X155204249Y2975800D01*
X155310662Y2954633D01*
G37*
G36*
X134682046Y3586620D02*
G01*
X134727682Y3572776D01*
X134769747Y3550292D01*
X134806615Y3520035D01*
X134836872Y3483167D01*
X134859356Y3441102D01*
X134873200Y3395466D01*
X134878120Y3345514D01*
X134878120Y2335966D01*
X134873200Y2286014D01*
X134859356Y2240378D01*
X134836872Y2198313D01*
X134806615Y2161445D01*
X134769747Y2131188D01*
X134727682Y2108704D01*
X134682046Y2094860D01*
X134632094Y2089940D01*
X133872546Y2089940D01*
X133822594Y2094860D01*
X133776958Y2108704D01*
X133734893Y2131188D01*
X133698025Y2161445D01*
X133667768Y2198313D01*
X133645284Y2240378D01*
X133631440Y2286014D01*
X133626520Y2335966D01*
X133626520Y3345514D01*
X133631440Y3395466D01*
X133645284Y3441102D01*
X133667768Y3483167D01*
X133698025Y3520035D01*
X133734893Y3550292D01*
X133776958Y3572776D01*
X133822594Y3586620D01*
X133872546Y3591540D01*
X134632094Y3591540D01*
X134682046Y3586620D01*
G37*
G36*
X132665506Y3586620D02*
G01*
X132711142Y3572776D01*
X132753207Y3550292D01*
X132790075Y3520035D01*
X132820332Y3483167D01*
X132842816Y3441102D01*
X132856660Y3395466D01*
X132861580Y3345514D01*
X132861580Y2335966D01*
X132856660Y2286014D01*
X132842816Y2240378D01*
X132820332Y2198313D01*
X132790075Y2161445D01*
X132753207Y2131188D01*
X132711142Y2108704D01*
X132665506Y2094860D01*
X132615554Y2089940D01*
X131856006Y2089940D01*
X131806054Y2094860D01*
X131760418Y2108704D01*
X131718353Y2131188D01*
X131681485Y2161445D01*
X131651228Y2198313D01*
X131628744Y2240378D01*
X131614900Y2286014D01*
X131609980Y2335966D01*
X131609980Y3345514D01*
X131614900Y3395466D01*
X131628744Y3441102D01*
X131651228Y3483167D01*
X131681485Y3520035D01*
X131718353Y3550292D01*
X131760418Y3572776D01*
X131806054Y3586620D01*
X131856006Y3591540D01*
X132615554Y3591540D01*
X132665506Y3586620D01*
G37*
G36*
X130615506Y3586620D02*
G01*
X130661142Y3572776D01*
X130703207Y3550292D01*
X130740075Y3520035D01*
X130770332Y3483167D01*
X130792816Y3441102D01*
X130806660Y3395466D01*
X130811580Y3345514D01*
X130811580Y2335966D01*
X130806660Y2286014D01*
X130792816Y2240378D01*
X130770332Y2198313D01*
X130740075Y2161445D01*
X130703207Y2131188D01*
X130661142Y2108704D01*
X130615506Y2094860D01*
X130565554Y2089940D01*
X129806006Y2089940D01*
X129756054Y2094860D01*
X129710418Y2108704D01*
X129668353Y2131188D01*
X129631485Y2161445D01*
X129601228Y2198313D01*
X129578744Y2240378D01*
X129564900Y2286014D01*
X129559980Y2335966D01*
X129559980Y3345514D01*
X129564900Y3395466D01*
X129578744Y3441102D01*
X129601228Y3483167D01*
X129631485Y3520035D01*
X129668353Y3550292D01*
X129710418Y3572776D01*
X129756054Y3586620D01*
X129806006Y3591540D01*
X130565554Y3591540D01*
X130615506Y3586620D01*
G37*
G36*
X136732046Y3586620D02*
G01*
X136777682Y3572776D01*
X136819747Y3550292D01*
X136856615Y3520035D01*
X136886872Y3483167D01*
X136909356Y3441102D01*
X136923200Y3395466D01*
X136928120Y3345514D01*
X136928120Y2335966D01*
X136923200Y2286014D01*
X136909356Y2240378D01*
X136886872Y2198313D01*
X136856615Y2161445D01*
X136819747Y2131188D01*
X136777682Y2108704D01*
X136732046Y2094860D01*
X136682094Y2089940D01*
X135922546Y2089940D01*
X135872594Y2094860D01*
X135826958Y2108704D01*
X135784893Y2131188D01*
X135748025Y2161445D01*
X135717768Y2198313D01*
X135695284Y2240378D01*
X135681440Y2286014D01*
X135676520Y2335966D01*
X135676520Y3345514D01*
X135681440Y3395466D01*
X135695284Y3441102D01*
X135717768Y3483167D01*
X135748025Y3520035D01*
X135784893Y3550292D01*
X135826958Y3572776D01*
X135872594Y3586620D01*
X135922546Y3591540D01*
X136682094Y3591540D01*
X136732046Y3586620D01*
G37*
G36*
X95880674Y4144316D02*
G01*
X95908799Y4135784D01*
X95934715Y4121932D01*
X95957429Y4103289D01*
X95976072Y4080575D01*
X95989924Y4054659D01*
X95998456Y4026534D01*
X96001580Y3994809D01*
X96001580Y2248471D01*
X95998456Y2216746D01*
X95989924Y2188621D01*
X95976072Y2162705D01*
X95957429Y2139991D01*
X95934715Y2121348D01*
X95908799Y2107496D01*
X95880674Y2098964D01*
X95848949Y2095840D01*
X95452611Y2095840D01*
X95420886Y2098964D01*
X95392761Y2107496D01*
X95366845Y2121348D01*
X95344131Y2139991D01*
X95325488Y2162705D01*
X95311636Y2188621D01*
X95303104Y2216746D01*
X95299980Y2248471D01*
X95299980Y3994809D01*
X95303104Y4026534D01*
X95311636Y4054659D01*
X95325488Y4080575D01*
X95344131Y4103289D01*
X95366845Y4121932D01*
X95392761Y4135784D01*
X95420886Y4144316D01*
X95452611Y4147440D01*
X95848949Y4147440D01*
X95880674Y4144316D01*
G37*
G36*
X122832614Y4144316D02*
G01*
X122860739Y4135784D01*
X122886655Y4121932D01*
X122909369Y4103289D01*
X122928012Y4080575D01*
X122941864Y4054659D01*
X122950396Y4026534D01*
X122953520Y3994809D01*
X122953520Y2248471D01*
X122950396Y2216746D01*
X122941864Y2188621D01*
X122928012Y2162705D01*
X122909369Y2139991D01*
X122886655Y2121348D01*
X122860739Y2107496D01*
X122832614Y2098964D01*
X122800889Y2095840D01*
X122404551Y2095840D01*
X122372826Y2098964D01*
X122344701Y2107496D01*
X122318785Y2121348D01*
X122296071Y2139991D01*
X122277428Y2162705D01*
X122263576Y2188621D01*
X122255044Y2216746D01*
X122251920Y2248471D01*
X122251920Y3994809D01*
X122255044Y4026534D01*
X122263576Y4054659D01*
X122277428Y4080575D01*
X122296071Y4103289D01*
X122318785Y4121932D01*
X122344701Y4135784D01*
X122372826Y4144316D01*
X122404551Y4147440D01*
X122800889Y4147440D01*
X122832614Y4144316D01*
G37*
G36*
X121562614Y4144316D02*
G01*
X121590739Y4135784D01*
X121616655Y4121932D01*
X121639369Y4103289D01*
X121658012Y4080575D01*
X121671864Y4054659D01*
X121680396Y4026534D01*
X121683520Y3994809D01*
X121683520Y2248471D01*
X121680396Y2216746D01*
X121671864Y2188621D01*
X121658012Y2162705D01*
X121639369Y2139991D01*
X121616655Y2121348D01*
X121590739Y2107496D01*
X121562614Y2098964D01*
X121530889Y2095840D01*
X121134551Y2095840D01*
X121102826Y2098964D01*
X121074701Y2107496D01*
X121048785Y2121348D01*
X121026071Y2139991D01*
X121007428Y2162705D01*
X120993576Y2188621D01*
X120985044Y2216746D01*
X120981920Y2248471D01*
X120981920Y3994809D01*
X120985044Y4026534D01*
X120993576Y4054659D01*
X121007428Y4080575D01*
X121026071Y4103289D01*
X121048785Y4121932D01*
X121074701Y4135784D01*
X121102826Y4144316D01*
X121134551Y4147440D01*
X121530889Y4147440D01*
X121562614Y4144316D01*
G37*
G36*
X120292614Y4144316D02*
G01*
X120320739Y4135784D01*
X120346655Y4121932D01*
X120369369Y4103289D01*
X120388012Y4080575D01*
X120401864Y4054659D01*
X120410396Y4026534D01*
X120413520Y3994809D01*
X120413520Y2248471D01*
X120410396Y2216746D01*
X120401864Y2188621D01*
X120388012Y2162705D01*
X120369369Y2139991D01*
X120346655Y2121348D01*
X120320739Y2107496D01*
X120292614Y2098964D01*
X120260889Y2095840D01*
X119864551Y2095840D01*
X119832826Y2098964D01*
X119804701Y2107496D01*
X119778785Y2121348D01*
X119756071Y2139991D01*
X119737428Y2162705D01*
X119723576Y2188621D01*
X119715044Y2216746D01*
X119711920Y2248471D01*
X119711920Y3994809D01*
X119715044Y4026534D01*
X119723576Y4054659D01*
X119737428Y4080575D01*
X119756071Y4103289D01*
X119778785Y4121932D01*
X119804701Y4135784D01*
X119832826Y4144316D01*
X119864551Y4147440D01*
X120260889Y4147440D01*
X120292614Y4144316D01*
G37*
G36*
X119022614Y4144316D02*
G01*
X119050739Y4135784D01*
X119076655Y4121932D01*
X119099369Y4103289D01*
X119118012Y4080575D01*
X119131864Y4054659D01*
X119140396Y4026534D01*
X119143520Y3994809D01*
X119143520Y2248471D01*
X119140396Y2216746D01*
X119131864Y2188621D01*
X119118012Y2162705D01*
X119099369Y2139991D01*
X119076655Y2121348D01*
X119050739Y2107496D01*
X119022614Y2098964D01*
X118990889Y2095840D01*
X118594551Y2095840D01*
X118562826Y2098964D01*
X118534701Y2107496D01*
X118508785Y2121348D01*
X118486071Y2139991D01*
X118467428Y2162705D01*
X118453576Y2188621D01*
X118445044Y2216746D01*
X118441920Y2248471D01*
X118441920Y3994809D01*
X118445044Y4026534D01*
X118453576Y4054659D01*
X118467428Y4080575D01*
X118486071Y4103289D01*
X118508785Y4121932D01*
X118534701Y4135784D01*
X118562826Y4144316D01*
X118594551Y4147440D01*
X118990889Y4147440D01*
X119022614Y4144316D01*
G37*
G36*
X86990674Y4144316D02*
G01*
X87018799Y4135784D01*
X87044715Y4121932D01*
X87067429Y4103289D01*
X87086072Y4080575D01*
X87099924Y4054659D01*
X87108456Y4026534D01*
X87111580Y3994809D01*
X87111580Y2248471D01*
X87108456Y2216746D01*
X87099924Y2188621D01*
X87086072Y2162705D01*
X87067429Y2139991D01*
X87044715Y2121348D01*
X87018799Y2107496D01*
X86990674Y2098964D01*
X86958949Y2095840D01*
X86562611Y2095840D01*
X86530886Y2098964D01*
X86502761Y2107496D01*
X86476845Y2121348D01*
X86454131Y2139991D01*
X86435488Y2162705D01*
X86421636Y2188621D01*
X86413104Y2216746D01*
X86409980Y2248471D01*
X86409980Y3994809D01*
X86413104Y4026534D01*
X86421636Y4054659D01*
X86435488Y4080575D01*
X86454131Y4103289D01*
X86476845Y4121932D01*
X86502761Y4135784D01*
X86530886Y4144316D01*
X86562611Y4147440D01*
X86958949Y4147440D01*
X86990674Y4144316D01*
G37*
G36*
X88260674Y4144316D02*
G01*
X88288799Y4135784D01*
X88314715Y4121932D01*
X88337429Y4103289D01*
X88356072Y4080575D01*
X88369924Y4054659D01*
X88378456Y4026534D01*
X88381580Y3994809D01*
X88381580Y2248471D01*
X88378456Y2216746D01*
X88369924Y2188621D01*
X88356072Y2162705D01*
X88337429Y2139991D01*
X88314715Y2121348D01*
X88288799Y2107496D01*
X88260674Y2098964D01*
X88228949Y2095840D01*
X87832611Y2095840D01*
X87800886Y2098964D01*
X87772761Y2107496D01*
X87746845Y2121348D01*
X87724131Y2139991D01*
X87705488Y2162705D01*
X87691636Y2188621D01*
X87683104Y2216746D01*
X87679980Y2248471D01*
X87679980Y3994809D01*
X87683104Y4026534D01*
X87691636Y4054659D01*
X87705488Y4080575D01*
X87724131Y4103289D01*
X87746845Y4121932D01*
X87772761Y4135784D01*
X87800886Y4144316D01*
X87832611Y4147440D01*
X88228949Y4147440D01*
X88260674Y4144316D01*
G37*
G36*
X89530674Y4144316D02*
G01*
X89558799Y4135784D01*
X89584715Y4121932D01*
X89607429Y4103289D01*
X89626072Y4080575D01*
X89639924Y4054659D01*
X89648456Y4026534D01*
X89651580Y3994809D01*
X89651580Y2248471D01*
X89648456Y2216746D01*
X89639924Y2188621D01*
X89626072Y2162705D01*
X89607429Y2139991D01*
X89584715Y2121348D01*
X89558799Y2107496D01*
X89530674Y2098964D01*
X89498949Y2095840D01*
X89102611Y2095840D01*
X89070886Y2098964D01*
X89042761Y2107496D01*
X89016845Y2121348D01*
X88994131Y2139991D01*
X88975488Y2162705D01*
X88961636Y2188621D01*
X88953104Y2216746D01*
X88949980Y2248471D01*
X88949980Y3994809D01*
X88953104Y4026534D01*
X88961636Y4054659D01*
X88975488Y4080575D01*
X88994131Y4103289D01*
X89016845Y4121932D01*
X89042761Y4135784D01*
X89070886Y4144316D01*
X89102611Y4147440D01*
X89498949Y4147440D01*
X89530674Y4144316D01*
G37*
G36*
X92070674Y4144316D02*
G01*
X92098799Y4135784D01*
X92124715Y4121932D01*
X92147429Y4103289D01*
X92166072Y4080575D01*
X92179924Y4054659D01*
X92188456Y4026534D01*
X92191580Y3994809D01*
X92191580Y2248471D01*
X92188456Y2216746D01*
X92179924Y2188621D01*
X92166072Y2162705D01*
X92147429Y2139991D01*
X92124715Y2121348D01*
X92098799Y2107496D01*
X92070674Y2098964D01*
X92038949Y2095840D01*
X91642611Y2095840D01*
X91610886Y2098964D01*
X91582761Y2107496D01*
X91556845Y2121348D01*
X91534131Y2139991D01*
X91515488Y2162705D01*
X91501636Y2188621D01*
X91493104Y2216746D01*
X91489980Y2248471D01*
X91489980Y3994809D01*
X91493104Y4026534D01*
X91501636Y4054659D01*
X91515488Y4080575D01*
X91534131Y4103289D01*
X91556845Y4121932D01*
X91582761Y4135784D01*
X91610886Y4144316D01*
X91642611Y4147440D01*
X92038949Y4147440D01*
X92070674Y4144316D01*
G37*
G36*
X93340674Y4144316D02*
G01*
X93368799Y4135784D01*
X93394715Y4121932D01*
X93417429Y4103289D01*
X93436072Y4080575D01*
X93449924Y4054659D01*
X93458456Y4026534D01*
X93461580Y3994809D01*
X93461580Y2248471D01*
X93458456Y2216746D01*
X93449924Y2188621D01*
X93436072Y2162705D01*
X93417429Y2139991D01*
X93394715Y2121348D01*
X93368799Y2107496D01*
X93340674Y2098964D01*
X93308949Y2095840D01*
X92912611Y2095840D01*
X92880886Y2098964D01*
X92852761Y2107496D01*
X92826845Y2121348D01*
X92804131Y2139991D01*
X92785488Y2162705D01*
X92771636Y2188621D01*
X92763104Y2216746D01*
X92759980Y2248471D01*
X92759980Y3994809D01*
X92763104Y4026534D01*
X92771636Y4054659D01*
X92785488Y4080575D01*
X92804131Y4103289D01*
X92826845Y4121932D01*
X92852761Y4135784D01*
X92880886Y4144316D01*
X92912611Y4147440D01*
X93308949Y4147440D01*
X93340674Y4144316D01*
G37*
G36*
X94610674Y4144316D02*
G01*
X94638799Y4135784D01*
X94664715Y4121932D01*
X94687429Y4103289D01*
X94706072Y4080575D01*
X94719924Y4054659D01*
X94728456Y4026534D01*
X94731580Y3994809D01*
X94731580Y2248471D01*
X94728456Y2216746D01*
X94719924Y2188621D01*
X94706072Y2162705D01*
X94687429Y2139991D01*
X94664715Y2121348D01*
X94638799Y2107496D01*
X94610674Y2098964D01*
X94578949Y2095840D01*
X94182611Y2095840D01*
X94150886Y2098964D01*
X94122761Y2107496D01*
X94096845Y2121348D01*
X94074131Y2139991D01*
X94055488Y2162705D01*
X94041636Y2188621D01*
X94033104Y2216746D01*
X94029980Y2248471D01*
X94029980Y3994809D01*
X94033104Y4026534D01*
X94041636Y4054659D01*
X94055488Y4080575D01*
X94074131Y4103289D01*
X94096845Y4121932D01*
X94122761Y4135784D01*
X94150886Y4144316D01*
X94182611Y4147440D01*
X94578949Y4147440D01*
X94610674Y4144316D01*
G37*
G36*
X90800674Y4144316D02*
G01*
X90828799Y4135784D01*
X90854715Y4121932D01*
X90877429Y4103289D01*
X90896072Y4080575D01*
X90909924Y4054659D01*
X90918456Y4026534D01*
X90921580Y3994809D01*
X90921580Y2248471D01*
X90918456Y2216746D01*
X90909924Y2188621D01*
X90896072Y2162705D01*
X90877429Y2139991D01*
X90854715Y2121348D01*
X90828799Y2107496D01*
X90800674Y2098964D01*
X90768949Y2095840D01*
X90372611Y2095840D01*
X90340886Y2098964D01*
X90312761Y2107496D01*
X90286845Y2121348D01*
X90264131Y2139991D01*
X90245488Y2162705D01*
X90231636Y2188621D01*
X90223104Y2216746D01*
X90219980Y2248471D01*
X90219980Y3994809D01*
X90223104Y4026534D01*
X90231636Y4054659D01*
X90245488Y4080575D01*
X90264131Y4103289D01*
X90286845Y4121932D01*
X90312761Y4135784D01*
X90340886Y4144316D01*
X90372611Y4147440D01*
X90768949Y4147440D01*
X90800674Y4144316D01*
G37*
G36*
X125372614Y4144316D02*
G01*
X125400739Y4135784D01*
X125426655Y4121932D01*
X125449369Y4103289D01*
X125468012Y4080575D01*
X125481864Y4054659D01*
X125490396Y4026534D01*
X125493520Y3994809D01*
X125493520Y2248471D01*
X125490396Y2216746D01*
X125481864Y2188621D01*
X125468012Y2162705D01*
X125449369Y2139991D01*
X125426655Y2121348D01*
X125400739Y2107496D01*
X125372614Y2098964D01*
X125340889Y2095840D01*
X124944551Y2095840D01*
X124912826Y2098964D01*
X124884701Y2107496D01*
X124858785Y2121348D01*
X124836071Y2139991D01*
X124817428Y2162705D01*
X124803576Y2188621D01*
X124795044Y2216746D01*
X124791920Y2248471D01*
X124791920Y3994809D01*
X124795044Y4026534D01*
X124803576Y4054659D01*
X124817428Y4080575D01*
X124836071Y4103289D01*
X124858785Y4121932D01*
X124884701Y4135784D01*
X124912826Y4144316D01*
X124944551Y4147440D01*
X125340889Y4147440D01*
X125372614Y4144316D01*
G37*
G36*
X126642614Y4144316D02*
G01*
X126670739Y4135784D01*
X126696655Y4121932D01*
X126719369Y4103289D01*
X126738012Y4080575D01*
X126751864Y4054659D01*
X126760396Y4026534D01*
X126763520Y3994809D01*
X126763520Y2248471D01*
X126760396Y2216746D01*
X126751864Y2188621D01*
X126738012Y2162705D01*
X126719369Y2139991D01*
X126696655Y2121348D01*
X126670739Y2107496D01*
X126642614Y2098964D01*
X126610889Y2095840D01*
X126214551Y2095840D01*
X126182826Y2098964D01*
X126154701Y2107496D01*
X126128785Y2121348D01*
X126106071Y2139991D01*
X126087428Y2162705D01*
X126073576Y2188621D01*
X126065044Y2216746D01*
X126061920Y2248471D01*
X126061920Y3994809D01*
X126065044Y4026534D01*
X126073576Y4054659D01*
X126087428Y4080575D01*
X126106071Y4103289D01*
X126128785Y4121932D01*
X126154701Y4135784D01*
X126182826Y4144316D01*
X126214551Y4147440D01*
X126610889Y4147440D01*
X126642614Y4144316D01*
G37*
G36*
X127912614Y4144316D02*
G01*
X127940739Y4135784D01*
X127966655Y4121932D01*
X127989369Y4103289D01*
X128008012Y4080575D01*
X128021864Y4054659D01*
X128030396Y4026534D01*
X128033520Y3994809D01*
X128033520Y2248471D01*
X128030396Y2216746D01*
X128021864Y2188621D01*
X128008012Y2162705D01*
X127989369Y2139991D01*
X127966655Y2121348D01*
X127940739Y2107496D01*
X127912614Y2098964D01*
X127880889Y2095840D01*
X127484551Y2095840D01*
X127452826Y2098964D01*
X127424701Y2107496D01*
X127398785Y2121348D01*
X127376071Y2139991D01*
X127357428Y2162705D01*
X127343576Y2188621D01*
X127335044Y2216746D01*
X127331920Y2248471D01*
X127331920Y3994809D01*
X127335044Y4026534D01*
X127343576Y4054659D01*
X127357428Y4080575D01*
X127376071Y4103289D01*
X127398785Y4121932D01*
X127424701Y4135784D01*
X127452826Y4144316D01*
X127484551Y4147440D01*
X127880889Y4147440D01*
X127912614Y4144316D01*
G37*
G36*
X52644794Y4144316D02*
G01*
X52672919Y4135784D01*
X52698835Y4121932D01*
X52721549Y4103289D01*
X52740192Y4080575D01*
X52754044Y4054659D01*
X52762576Y4026534D01*
X52765700Y3994809D01*
X52765700Y2248471D01*
X52762576Y2216746D01*
X52754044Y2188621D01*
X52740192Y2162705D01*
X52721549Y2139991D01*
X52698835Y2121348D01*
X52672919Y2107496D01*
X52644794Y2098964D01*
X52613069Y2095840D01*
X52216731Y2095840D01*
X52185006Y2098964D01*
X52156881Y2107496D01*
X52130965Y2121348D01*
X52108251Y2139991D01*
X52089608Y2162705D01*
X52075756Y2188621D01*
X52067224Y2216746D01*
X52064100Y2248471D01*
X52064100Y3994809D01*
X52067224Y4026534D01*
X52075756Y4054659D01*
X52089608Y4080575D01*
X52108251Y4103289D01*
X52130965Y4121932D01*
X52156881Y4135784D01*
X52185006Y4144316D01*
X52216731Y4147440D01*
X52613069Y4147440D01*
X52644794Y4144316D01*
G37*
G36*
X53914794Y4144316D02*
G01*
X53942919Y4135784D01*
X53968835Y4121932D01*
X53991549Y4103289D01*
X54010192Y4080575D01*
X54024044Y4054659D01*
X54032576Y4026534D01*
X54035700Y3994809D01*
X54035700Y2248471D01*
X54032576Y2216746D01*
X54024044Y2188621D01*
X54010192Y2162705D01*
X53991549Y2139991D01*
X53968835Y2121348D01*
X53942919Y2107496D01*
X53914794Y2098964D01*
X53883069Y2095840D01*
X53486731Y2095840D01*
X53455006Y2098964D01*
X53426881Y2107496D01*
X53400965Y2121348D01*
X53378251Y2139991D01*
X53359608Y2162705D01*
X53345756Y2188621D01*
X53337224Y2216746D01*
X53334100Y2248471D01*
X53334100Y3994809D01*
X53337224Y4026534D01*
X53345756Y4054659D01*
X53359608Y4080575D01*
X53378251Y4103289D01*
X53400965Y4121932D01*
X53426881Y4135784D01*
X53455006Y4144316D01*
X53486731Y4147440D01*
X53883069Y4147440D01*
X53914794Y4144316D01*
G37*
G36*
X55184794Y4144316D02*
G01*
X55212919Y4135784D01*
X55238835Y4121932D01*
X55261549Y4103289D01*
X55280192Y4080575D01*
X55294044Y4054659D01*
X55302576Y4026534D01*
X55305700Y3994809D01*
X55305700Y2248471D01*
X55302576Y2216746D01*
X55294044Y2188621D01*
X55280192Y2162705D01*
X55261549Y2139991D01*
X55238835Y2121348D01*
X55212919Y2107496D01*
X55184794Y2098964D01*
X55153069Y2095840D01*
X54756731Y2095840D01*
X54725006Y2098964D01*
X54696881Y2107496D01*
X54670965Y2121348D01*
X54648251Y2139991D01*
X54629608Y2162705D01*
X54615756Y2188621D01*
X54607224Y2216746D01*
X54604100Y2248471D01*
X54604100Y3994809D01*
X54607224Y4026534D01*
X54615756Y4054659D01*
X54629608Y4080575D01*
X54648251Y4103289D01*
X54670965Y4121932D01*
X54696881Y4135784D01*
X54725006Y4144316D01*
X54756731Y4147440D01*
X55153069Y4147440D01*
X55184794Y4144316D01*
G37*
G36*
X56454794Y4144316D02*
G01*
X56482919Y4135784D01*
X56508835Y4121932D01*
X56531549Y4103289D01*
X56550192Y4080575D01*
X56564044Y4054659D01*
X56572576Y4026534D01*
X56575700Y3994809D01*
X56575700Y2248471D01*
X56572576Y2216746D01*
X56564044Y2188621D01*
X56550192Y2162705D01*
X56531549Y2139991D01*
X56508835Y2121348D01*
X56482919Y2107496D01*
X56454794Y2098964D01*
X56423069Y2095840D01*
X56026731Y2095840D01*
X55995006Y2098964D01*
X55966881Y2107496D01*
X55940965Y2121348D01*
X55918251Y2139991D01*
X55899608Y2162705D01*
X55885756Y2188621D01*
X55877224Y2216746D01*
X55874100Y2248471D01*
X55874100Y3994809D01*
X55877224Y4026534D01*
X55885756Y4054659D01*
X55899608Y4080575D01*
X55918251Y4103289D01*
X55940965Y4121932D01*
X55966881Y4135784D01*
X55995006Y4144316D01*
X56026731Y4147440D01*
X56423069Y4147440D01*
X56454794Y4144316D01*
G37*
G36*
X57724794Y4144316D02*
G01*
X57752919Y4135784D01*
X57778835Y4121932D01*
X57801549Y4103289D01*
X57820192Y4080575D01*
X57834044Y4054659D01*
X57842576Y4026534D01*
X57845700Y3994809D01*
X57845700Y2248471D01*
X57842576Y2216746D01*
X57834044Y2188621D01*
X57820192Y2162705D01*
X57801549Y2139991D01*
X57778835Y2121348D01*
X57752919Y2107496D01*
X57724794Y2098964D01*
X57693069Y2095840D01*
X57296731Y2095840D01*
X57265006Y2098964D01*
X57236881Y2107496D01*
X57210965Y2121348D01*
X57188251Y2139991D01*
X57169608Y2162705D01*
X57155756Y2188621D01*
X57147224Y2216746D01*
X57144100Y2248471D01*
X57144100Y3994809D01*
X57147224Y4026534D01*
X57155756Y4054659D01*
X57169608Y4080575D01*
X57188251Y4103289D01*
X57210965Y4121932D01*
X57236881Y4135784D01*
X57265006Y4144316D01*
X57296731Y4147440D01*
X57693069Y4147440D01*
X57724794Y4144316D01*
G37*
G36*
X58994794Y4144316D02*
G01*
X59022919Y4135784D01*
X59048835Y4121932D01*
X59071549Y4103289D01*
X59090192Y4080575D01*
X59104044Y4054659D01*
X59112576Y4026534D01*
X59115700Y3994809D01*
X59115700Y2248471D01*
X59112576Y2216746D01*
X59104044Y2188621D01*
X59090192Y2162705D01*
X59071549Y2139991D01*
X59048835Y2121348D01*
X59022919Y2107496D01*
X58994794Y2098964D01*
X58963069Y2095840D01*
X58566731Y2095840D01*
X58535006Y2098964D01*
X58506881Y2107496D01*
X58480965Y2121348D01*
X58458251Y2139991D01*
X58439608Y2162705D01*
X58425756Y2188621D01*
X58417224Y2216746D01*
X58414100Y2248471D01*
X58414100Y3994809D01*
X58417224Y4026534D01*
X58425756Y4054659D01*
X58439608Y4080575D01*
X58458251Y4103289D01*
X58480965Y4121932D01*
X58506881Y4135784D01*
X58535006Y4144316D01*
X58566731Y4147440D01*
X58963069Y4147440D01*
X58994794Y4144316D01*
G37*
G36*
X60264794Y4144316D02*
G01*
X60292919Y4135784D01*
X60318835Y4121932D01*
X60341549Y4103289D01*
X60360192Y4080575D01*
X60374044Y4054659D01*
X60382576Y4026534D01*
X60385700Y3994809D01*
X60385700Y2248471D01*
X60382576Y2216746D01*
X60374044Y2188621D01*
X60360192Y2162705D01*
X60341549Y2139991D01*
X60318835Y2121348D01*
X60292919Y2107496D01*
X60264794Y2098964D01*
X60233069Y2095840D01*
X59836731Y2095840D01*
X59805006Y2098964D01*
X59776881Y2107496D01*
X59750965Y2121348D01*
X59728251Y2139991D01*
X59709608Y2162705D01*
X59695756Y2188621D01*
X59687224Y2216746D01*
X59684100Y2248471D01*
X59684100Y3994809D01*
X59687224Y4026534D01*
X59695756Y4054659D01*
X59709608Y4080575D01*
X59728251Y4103289D01*
X59750965Y4121932D01*
X59776881Y4135784D01*
X59805006Y4144316D01*
X59836731Y4147440D01*
X60233069Y4147440D01*
X60264794Y4144316D01*
G37*
G36*
X61534794Y4144316D02*
G01*
X61562919Y4135784D01*
X61588835Y4121932D01*
X61611549Y4103289D01*
X61630192Y4080575D01*
X61644044Y4054659D01*
X61652576Y4026534D01*
X61655700Y3994809D01*
X61655700Y2248471D01*
X61652576Y2216746D01*
X61644044Y2188621D01*
X61630192Y2162705D01*
X61611549Y2139991D01*
X61588835Y2121348D01*
X61562919Y2107496D01*
X61534794Y2098964D01*
X61503069Y2095840D01*
X61106731Y2095840D01*
X61075006Y2098964D01*
X61046881Y2107496D01*
X61020965Y2121348D01*
X60998251Y2139991D01*
X60979608Y2162705D01*
X60965756Y2188621D01*
X60957224Y2216746D01*
X60954100Y2248471D01*
X60954100Y3994809D01*
X60957224Y4026534D01*
X60965756Y4054659D01*
X60979608Y4080575D01*
X60998251Y4103289D01*
X61020965Y4121932D01*
X61046881Y4135784D01*
X61075006Y4144316D01*
X61106731Y4147440D01*
X61503069Y4147440D01*
X61534794Y4144316D01*
G37*
G36*
X124102614Y4144316D02*
G01*
X124130739Y4135784D01*
X124156655Y4121932D01*
X124179369Y4103289D01*
X124198012Y4080575D01*
X124211864Y4054659D01*
X124220396Y4026534D01*
X124223520Y3994809D01*
X124223520Y2248471D01*
X124220396Y2216746D01*
X124211864Y2188621D01*
X124198012Y2162705D01*
X124179369Y2139991D01*
X124156655Y2121348D01*
X124130739Y2107496D01*
X124102614Y2098964D01*
X124070889Y2095840D01*
X123674551Y2095840D01*
X123642826Y2098964D01*
X123614701Y2107496D01*
X123588785Y2121348D01*
X123566071Y2139991D01*
X123547428Y2162705D01*
X123533576Y2188621D01*
X123525044Y2216746D01*
X123521920Y2248471D01*
X123521920Y3994809D01*
X123525044Y4026534D01*
X123533576Y4054659D01*
X123547428Y4080575D01*
X123566071Y4103289D01*
X123588785Y4121932D01*
X123614701Y4135784D01*
X123642826Y4144316D01*
X123674551Y4147440D01*
X124070889Y4147440D01*
X124102614Y4144316D01*
G37*
G36*
X141587686Y4293360D02*
G01*
X141633322Y4279516D01*
X141675387Y4257032D01*
X141712255Y4226775D01*
X141742512Y4189907D01*
X141764996Y4147842D01*
X141778840Y4102206D01*
X141783760Y4052254D01*
X141783760Y3292706D01*
X141778840Y3242754D01*
X141764996Y3197118D01*
X141742512Y3155053D01*
X141712255Y3118185D01*
X141675387Y3087928D01*
X141633322Y3065444D01*
X141587686Y3051600D01*
X141537734Y3046680D01*
X140528186Y3046680D01*
X140478234Y3051600D01*
X140432598Y3065444D01*
X140390533Y3087928D01*
X140353665Y3118185D01*
X140323408Y3155053D01*
X140300924Y3197118D01*
X140287080Y3242754D01*
X140282160Y3292706D01*
X140282160Y4052254D01*
X140287080Y4102206D01*
X140300924Y4147842D01*
X140323408Y4189907D01*
X140353665Y4226775D01*
X140390533Y4257032D01*
X140432598Y4279516D01*
X140478234Y4293360D01*
X140528186Y4298280D01*
X141537734Y4298280D01*
X141587686Y4293360D01*
G37*
G36*
X139146746Y4664200D02*
G01*
X139192382Y4650356D01*
X139234447Y4627872D01*
X139271315Y4597615D01*
X139301572Y4560747D01*
X139324056Y4518682D01*
X139337900Y4473046D01*
X139342820Y4423094D01*
X139342820Y3663546D01*
X139337900Y3613594D01*
X139324056Y3567958D01*
X139301572Y3525893D01*
X139271315Y3489025D01*
X139234447Y3458768D01*
X139192382Y3436284D01*
X139146746Y3422440D01*
X139096794Y3417520D01*
X138087246Y3417520D01*
X138037294Y3422440D01*
X137991658Y3436284D01*
X137949593Y3458768D01*
X137912725Y3489025D01*
X137882468Y3525893D01*
X137859984Y3567958D01*
X137846140Y3613594D01*
X137841220Y3663546D01*
X137841220Y4423094D01*
X137846140Y4473046D01*
X137859984Y4518682D01*
X137882468Y4560747D01*
X137912725Y4597615D01*
X137949593Y4627872D01*
X137991658Y4650356D01*
X138037294Y4664200D01*
X138087246Y4669120D01*
X139096794Y4669120D01*
X139146746Y4664200D01*
G37*
G36*
X158378086Y5134100D02*
G01*
X158423722Y5120256D01*
X158465787Y5097772D01*
X158502655Y5067515D01*
X158532912Y5030647D01*
X158555396Y4988582D01*
X158569240Y4942946D01*
X158574160Y4892994D01*
X158574160Y4133446D01*
X158569240Y4083494D01*
X158555396Y4037858D01*
X158532912Y3995793D01*
X158502655Y3958925D01*
X158465787Y3928668D01*
X158423722Y3906184D01*
X158378086Y3892340D01*
X158328134Y3887420D01*
X157318586Y3887420D01*
X157268634Y3892340D01*
X157222998Y3906184D01*
X157180933Y3928668D01*
X157144065Y3958925D01*
X157113808Y3995793D01*
X157091324Y4037858D01*
X157077480Y4083494D01*
X157072560Y4133446D01*
X157072560Y4892994D01*
X157077480Y4942946D01*
X157091324Y4988582D01*
X157113808Y5030647D01*
X157144065Y5067515D01*
X157180933Y5097772D01*
X157222998Y5120256D01*
X157268634Y5134100D01*
X157318586Y5139020D01*
X158328134Y5139020D01*
X158378086Y5134100D01*
G37*
G36*
X153678086Y5134100D02*
G01*
X153723722Y5120256D01*
X153765787Y5097772D01*
X153802655Y5067515D01*
X153832912Y5030647D01*
X153855396Y4988582D01*
X153869240Y4942946D01*
X153874160Y4892994D01*
X153874160Y4133446D01*
X153869240Y4083494D01*
X153855396Y4037858D01*
X153832912Y3995793D01*
X153802655Y3958925D01*
X153765787Y3928668D01*
X153723722Y3906184D01*
X153678086Y3892340D01*
X153628134Y3887420D01*
X152618586Y3887420D01*
X152568634Y3892340D01*
X152522998Y3906184D01*
X152480933Y3928668D01*
X152444065Y3958925D01*
X152413808Y3995793D01*
X152391324Y4037858D01*
X152377480Y4083494D01*
X152372560Y4133446D01*
X152372560Y4892994D01*
X152377480Y4942946D01*
X152391324Y4988582D01*
X152413808Y5030647D01*
X152444065Y5067515D01*
X152480933Y5097772D01*
X152522998Y5120256D01*
X152568634Y5134100D01*
X152618586Y5139020D01*
X153628134Y5139020D01*
X153678086Y5134100D01*
G37*
G36*
X156028086Y5134100D02*
G01*
X156073722Y5120256D01*
X156115787Y5097772D01*
X156152655Y5067515D01*
X156182912Y5030647D01*
X156205396Y4988582D01*
X156219240Y4942946D01*
X156224160Y4892994D01*
X156224160Y4133446D01*
X156219240Y4083494D01*
X156205396Y4037858D01*
X156182912Y3995793D01*
X156152655Y3958925D01*
X156115787Y3928668D01*
X156073722Y3906184D01*
X156028086Y3892340D01*
X155978134Y3887420D01*
X154968586Y3887420D01*
X154918634Y3892340D01*
X154872998Y3906184D01*
X154830933Y3928668D01*
X154794065Y3958925D01*
X154763808Y3995793D01*
X154741324Y4037858D01*
X154727480Y4083494D01*
X154722560Y4133446D01*
X154722560Y4892994D01*
X154727480Y4942946D01*
X154741324Y4988582D01*
X154763808Y5030647D01*
X154794065Y5067515D01*
X154830933Y5097772D01*
X154872998Y5120256D01*
X154918634Y5134100D01*
X154968586Y5139020D01*
X155978134Y5139020D01*
X156028086Y5134100D01*
G37*
G36*
X116637266Y5162040D02*
G01*
X116682902Y5148196D01*
X116724967Y5125712D01*
X116761835Y5095455D01*
X116792092Y5058587D01*
X116814576Y5016522D01*
X116828420Y4970886D01*
X116833340Y4920934D01*
X116833340Y4161386D01*
X116828420Y4111434D01*
X116814576Y4065798D01*
X116792092Y4023733D01*
X116761835Y3986865D01*
X116724967Y3956608D01*
X116682902Y3934124D01*
X116637266Y3920280D01*
X116587314Y3915360D01*
X115577766Y3915360D01*
X115527814Y3920280D01*
X115482178Y3934124D01*
X115440113Y3956608D01*
X115403245Y3986865D01*
X115372988Y4023733D01*
X115350504Y4065798D01*
X115336660Y4111434D01*
X115331740Y4161386D01*
X115331740Y4920934D01*
X115336660Y4970886D01*
X115350504Y5016522D01*
X115372988Y5058587D01*
X115403245Y5095455D01*
X115440113Y5125712D01*
X115482178Y5148196D01*
X115527814Y5162040D01*
X115577766Y5166960D01*
X116587314Y5166960D01*
X116637266Y5162040D01*
G37*
G36*
X84136446Y5162040D02*
G01*
X84182082Y5148196D01*
X84224147Y5125712D01*
X84261015Y5095455D01*
X84291272Y5058587D01*
X84313756Y5016522D01*
X84327600Y4970886D01*
X84332520Y4920934D01*
X84332520Y4161386D01*
X84327600Y4111434D01*
X84313756Y4065798D01*
X84291272Y4023733D01*
X84261015Y3986865D01*
X84224147Y3956608D01*
X84182082Y3934124D01*
X84136446Y3920280D01*
X84086494Y3915360D01*
X83076946Y3915360D01*
X83026994Y3920280D01*
X82981358Y3934124D01*
X82939293Y3956608D01*
X82902425Y3986865D01*
X82872168Y4023733D01*
X82849684Y4065798D01*
X82835840Y4111434D01*
X82830920Y4161386D01*
X82830920Y4920934D01*
X82835840Y4970886D01*
X82849684Y5016522D01*
X82872168Y5058587D01*
X82902425Y5095455D01*
X82939293Y5125712D01*
X82981358Y5148196D01*
X83026994Y5162040D01*
X83076946Y5166960D01*
X84086494Y5166960D01*
X84136446Y5162040D01*
G37*
G36*
X49396866Y5162040D02*
G01*
X49442502Y5148196D01*
X49484567Y5125712D01*
X49521435Y5095455D01*
X49551692Y5058587D01*
X49574176Y5016522D01*
X49588020Y4970886D01*
X49592940Y4920934D01*
X49592940Y4161386D01*
X49588020Y4111434D01*
X49574176Y4065798D01*
X49551692Y4023733D01*
X49521435Y3986865D01*
X49484567Y3956608D01*
X49442502Y3934124D01*
X49396866Y3920280D01*
X49346914Y3915360D01*
X48337366Y3915360D01*
X48287414Y3920280D01*
X48241778Y3934124D01*
X48199713Y3956608D01*
X48162845Y3986865D01*
X48132588Y4023733D01*
X48110104Y4065798D01*
X48096260Y4111434D01*
X48091340Y4161386D01*
X48091340Y4920934D01*
X48096260Y4970886D01*
X48110104Y5016522D01*
X48132588Y5058587D01*
X48162845Y5095455D01*
X48199713Y5125712D01*
X48241778Y5148196D01*
X48287414Y5162040D01*
X48337366Y5166960D01*
X49346914Y5166960D01*
X49396866Y5162040D01*
G37*
G36*
X2911183Y5446177D02*
G01*
X3042943Y5391600D01*
X3161523Y5312367D01*
X3262367Y5211523D01*
X3341600Y5092943D01*
X3396177Y4961183D01*
X3424000Y4821308D01*
X3424000Y4678692D01*
X3396177Y4538817D01*
X3341600Y4407057D01*
X3262367Y4288477D01*
X3161523Y4187633D01*
X3042943Y4108400D01*
X2911183Y4053823D01*
X2771308Y4026000D01*
X2628692Y4026000D01*
X2488817Y4053823D01*
X2357057Y4108400D01*
X2238477Y4187633D01*
X2137633Y4288477D01*
X2058400Y4407057D01*
X2003823Y4538817D01*
X1976000Y4678692D01*
X1976000Y4821308D01*
X2003823Y4961183D01*
X2058400Y5092943D01*
X2137633Y5211523D01*
X2238477Y5312367D01*
X2357057Y5391600D01*
X2488817Y5446177D01*
X2628692Y5474000D01*
X2771308Y5474000D01*
X2911183Y5446177D01*
G37*
G36*
X136851274Y5149296D02*
G01*
X136879399Y5140764D01*
X136905315Y5126912D01*
X136928029Y5108269D01*
X136946672Y5085555D01*
X136960524Y5059639D01*
X136969056Y5031514D01*
X136972180Y4999789D01*
X136972180Y4603451D01*
X136969056Y4571726D01*
X136960524Y4543601D01*
X136946672Y4517685D01*
X136928029Y4494971D01*
X136905315Y4476328D01*
X136879399Y4462476D01*
X136851274Y4453944D01*
X136819549Y4450820D01*
X135073211Y4450820D01*
X135041486Y4453944D01*
X135013361Y4462476D01*
X134987445Y4476328D01*
X134964731Y4494971D01*
X134946088Y4517685D01*
X134932236Y4543601D01*
X134923704Y4571726D01*
X134920580Y4603451D01*
X134920580Y4999789D01*
X134923704Y5031514D01*
X134932236Y5059639D01*
X134946088Y5085555D01*
X134964731Y5108269D01*
X134987445Y5126912D01*
X135013361Y5140764D01*
X135041486Y5149296D01*
X135073211Y5152420D01*
X136819549Y5152420D01*
X136851274Y5149296D01*
G37*
G36*
X131901274Y5149296D02*
G01*
X131929399Y5140764D01*
X131955315Y5126912D01*
X131978029Y5108269D01*
X131996672Y5085555D01*
X132010524Y5059639D01*
X132019056Y5031514D01*
X132022180Y4999789D01*
X132022180Y4603451D01*
X132019056Y4571726D01*
X132010524Y4543601D01*
X131996672Y4517685D01*
X131978029Y4494971D01*
X131955315Y4476328D01*
X131929399Y4462476D01*
X131901274Y4453944D01*
X131869549Y4450820D01*
X130123211Y4450820D01*
X130091486Y4453944D01*
X130063361Y4462476D01*
X130037445Y4476328D01*
X130014731Y4494971D01*
X129996088Y4517685D01*
X129982236Y4543601D01*
X129973704Y4571726D01*
X129970580Y4603451D01*
X129970580Y4999789D01*
X129973704Y5031514D01*
X129982236Y5059639D01*
X129996088Y5085555D01*
X130014731Y5108269D01*
X130037445Y5126912D01*
X130063361Y5140764D01*
X130091486Y5149296D01*
X130123211Y5152420D01*
X131869549Y5152420D01*
X131901274Y5149296D01*
G37*
G36*
X141587686Y6343360D02*
G01*
X141633322Y6329516D01*
X141675387Y6307032D01*
X141712255Y6276775D01*
X141742512Y6239907D01*
X141764996Y6197842D01*
X141778840Y6152206D01*
X141783760Y6102254D01*
X141783760Y5342706D01*
X141778840Y5292754D01*
X141764996Y5247118D01*
X141742512Y5205053D01*
X141712255Y5168185D01*
X141675387Y5137928D01*
X141633322Y5115444D01*
X141587686Y5101600D01*
X141537734Y5096680D01*
X140528186Y5096680D01*
X140478234Y5101600D01*
X140432598Y5115444D01*
X140390533Y5137928D01*
X140353665Y5168185D01*
X140323408Y5205053D01*
X140300924Y5247118D01*
X140287080Y5292754D01*
X140282160Y5342706D01*
X140282160Y6102254D01*
X140287080Y6152206D01*
X140300924Y6197842D01*
X140323408Y6239907D01*
X140353665Y6276775D01*
X140390533Y6307032D01*
X140432598Y6329516D01*
X140478234Y6343360D01*
X140528186Y6348280D01*
X141537734Y6348280D01*
X141587686Y6343360D01*
G37*
G36*
X139146746Y6714200D02*
G01*
X139192382Y6700356D01*
X139234447Y6677872D01*
X139271315Y6647615D01*
X139301572Y6610747D01*
X139324056Y6568682D01*
X139337900Y6523046D01*
X139342820Y6473094D01*
X139342820Y5713546D01*
X139337900Y5663594D01*
X139324056Y5617958D01*
X139301572Y5575893D01*
X139271315Y5539025D01*
X139234447Y5508768D01*
X139192382Y5486284D01*
X139146746Y5472440D01*
X139096794Y5467520D01*
X138087246Y5467520D01*
X138037294Y5472440D01*
X137991658Y5486284D01*
X137949593Y5508768D01*
X137912725Y5539025D01*
X137882468Y5575893D01*
X137859984Y5617958D01*
X137846140Y5663594D01*
X137841220Y5713546D01*
X137841220Y6473094D01*
X137846140Y6523046D01*
X137859984Y6568682D01*
X137882468Y6610747D01*
X137912725Y6647615D01*
X137949593Y6677872D01*
X137991658Y6700356D01*
X138037294Y6714200D01*
X138087246Y6719120D01*
X139096794Y6719120D01*
X139146746Y6714200D01*
G37*
G36*
X136851274Y6419296D02*
G01*
X136879399Y6410764D01*
X136905315Y6396912D01*
X136928029Y6378269D01*
X136946672Y6355555D01*
X136960524Y6329639D01*
X136969056Y6301514D01*
X136972180Y6269789D01*
X136972180Y5873451D01*
X136969056Y5841726D01*
X136960524Y5813601D01*
X136946672Y5787685D01*
X136928029Y5764971D01*
X136905315Y5746328D01*
X136879399Y5732476D01*
X136851274Y5723944D01*
X136819549Y5720820D01*
X135073211Y5720820D01*
X135041486Y5723944D01*
X135013361Y5732476D01*
X134987445Y5746328D01*
X134964731Y5764971D01*
X134946088Y5787685D01*
X134932236Y5813601D01*
X134923704Y5841726D01*
X134920580Y5873451D01*
X134920580Y6269789D01*
X134923704Y6301514D01*
X134932236Y6329639D01*
X134946088Y6355555D01*
X134964731Y6378269D01*
X134987445Y6396912D01*
X135013361Y6410764D01*
X135041486Y6419296D01*
X135073211Y6422420D01*
X136819549Y6422420D01*
X136851274Y6419296D01*
G37*
G36*
X131901274Y6419296D02*
G01*
X131929399Y6410764D01*
X131955315Y6396912D01*
X131978029Y6378269D01*
X131996672Y6355555D01*
X132010524Y6329639D01*
X132019056Y6301514D01*
X132022180Y6269789D01*
X132022180Y5873451D01*
X132019056Y5841726D01*
X132010524Y5813601D01*
X131996672Y5787685D01*
X131978029Y5764971D01*
X131955315Y5746328D01*
X131929399Y5732476D01*
X131901274Y5723944D01*
X131869549Y5720820D01*
X130123211Y5720820D01*
X130091486Y5723944D01*
X130063361Y5732476D01*
X130037445Y5746328D01*
X130014731Y5764971D01*
X129996088Y5787685D01*
X129982236Y5813601D01*
X129973704Y5841726D01*
X129970580Y5873451D01*
X129970580Y6269789D01*
X129973704Y6301514D01*
X129982236Y6329639D01*
X129996088Y6355555D01*
X130014731Y6378269D01*
X130037445Y6396912D01*
X130063361Y6410764D01*
X130091486Y6419296D01*
X130123211Y6422420D01*
X131869549Y6422420D01*
X131901274Y6419296D01*
G37*
G36*
X158378086Y7184100D02*
G01*
X158423722Y7170256D01*
X158465787Y7147772D01*
X158502655Y7117515D01*
X158532912Y7080647D01*
X158555396Y7038582D01*
X158569240Y6992946D01*
X158574160Y6942994D01*
X158574160Y6183446D01*
X158569240Y6133494D01*
X158555396Y6087858D01*
X158532912Y6045793D01*
X158502655Y6008925D01*
X158465787Y5978668D01*
X158423722Y5956184D01*
X158378086Y5942340D01*
X158328134Y5937420D01*
X157318586Y5937420D01*
X157268634Y5942340D01*
X157222998Y5956184D01*
X157180933Y5978668D01*
X157144065Y6008925D01*
X157113808Y6045793D01*
X157091324Y6087858D01*
X157077480Y6133494D01*
X157072560Y6183446D01*
X157072560Y6942994D01*
X157077480Y6992946D01*
X157091324Y7038582D01*
X157113808Y7080647D01*
X157144065Y7117515D01*
X157180933Y7147772D01*
X157222998Y7170256D01*
X157268634Y7184100D01*
X157318586Y7189020D01*
X158328134Y7189020D01*
X158378086Y7184100D01*
G37*
G36*
X153678086Y7184100D02*
G01*
X153723722Y7170256D01*
X153765787Y7147772D01*
X153802655Y7117515D01*
X153832912Y7080647D01*
X153855396Y7038582D01*
X153869240Y6992946D01*
X153874160Y6942994D01*
X153874160Y6183446D01*
X153869240Y6133494D01*
X153855396Y6087858D01*
X153832912Y6045793D01*
X153802655Y6008925D01*
X153765787Y5978668D01*
X153723722Y5956184D01*
X153678086Y5942340D01*
X153628134Y5937420D01*
X152618586Y5937420D01*
X152568634Y5942340D01*
X152522998Y5956184D01*
X152480933Y5978668D01*
X152444065Y6008925D01*
X152413808Y6045793D01*
X152391324Y6087858D01*
X152377480Y6133494D01*
X152372560Y6183446D01*
X152372560Y6942994D01*
X152377480Y6992946D01*
X152391324Y7038582D01*
X152413808Y7080647D01*
X152444065Y7117515D01*
X152480933Y7147772D01*
X152522998Y7170256D01*
X152568634Y7184100D01*
X152618586Y7189020D01*
X153628134Y7189020D01*
X153678086Y7184100D01*
G37*
G36*
X156028086Y7184100D02*
G01*
X156073722Y7170256D01*
X156115787Y7147772D01*
X156152655Y7117515D01*
X156182912Y7080647D01*
X156205396Y7038582D01*
X156219240Y6992946D01*
X156224160Y6942994D01*
X156224160Y6183446D01*
X156219240Y6133494D01*
X156205396Y6087858D01*
X156182912Y6045793D01*
X156152655Y6008925D01*
X156115787Y5978668D01*
X156073722Y5956184D01*
X156028086Y5942340D01*
X155978134Y5937420D01*
X154968586Y5937420D01*
X154918634Y5942340D01*
X154872998Y5956184D01*
X154830933Y5978668D01*
X154794065Y6008925D01*
X154763808Y6045793D01*
X154741324Y6087858D01*
X154727480Y6133494D01*
X154722560Y6183446D01*
X154722560Y6942994D01*
X154727480Y6992946D01*
X154741324Y7038582D01*
X154763808Y7080647D01*
X154794065Y7117515D01*
X154830933Y7147772D01*
X154872998Y7170256D01*
X154918634Y7184100D01*
X154968586Y7189020D01*
X155978134Y7189020D01*
X156028086Y7184100D01*
G37*
G36*
X49396866Y7212040D02*
G01*
X49442502Y7198196D01*
X49484567Y7175712D01*
X49521435Y7145455D01*
X49551692Y7108587D01*
X49574176Y7066522D01*
X49588020Y7020886D01*
X49592940Y6970934D01*
X49592940Y6211386D01*
X49588020Y6161434D01*
X49574176Y6115798D01*
X49551692Y6073733D01*
X49521435Y6036865D01*
X49484567Y6006608D01*
X49442502Y5984124D01*
X49396866Y5970280D01*
X49346914Y5965360D01*
X48337366Y5965360D01*
X48287414Y5970280D01*
X48241778Y5984124D01*
X48199713Y6006608D01*
X48162845Y6036865D01*
X48132588Y6073733D01*
X48110104Y6115798D01*
X48096260Y6161434D01*
X48091340Y6211386D01*
X48091340Y6970934D01*
X48096260Y7020886D01*
X48110104Y7066522D01*
X48132588Y7108587D01*
X48162845Y7145455D01*
X48199713Y7175712D01*
X48241778Y7198196D01*
X48287414Y7212040D01*
X48337366Y7216960D01*
X49346914Y7216960D01*
X49396866Y7212040D01*
G37*
G36*
X116637266Y7212040D02*
G01*
X116682902Y7198196D01*
X116724967Y7175712D01*
X116761835Y7145455D01*
X116792092Y7108587D01*
X116814576Y7066522D01*
X116828420Y7020886D01*
X116833340Y6970934D01*
X116833340Y6211386D01*
X116828420Y6161434D01*
X116814576Y6115798D01*
X116792092Y6073733D01*
X116761835Y6036865D01*
X116724967Y6006608D01*
X116682902Y5984124D01*
X116637266Y5970280D01*
X116587314Y5965360D01*
X115577766Y5965360D01*
X115527814Y5970280D01*
X115482178Y5984124D01*
X115440113Y6006608D01*
X115403245Y6036865D01*
X115372988Y6073733D01*
X115350504Y6115798D01*
X115336660Y6161434D01*
X115331740Y6211386D01*
X115331740Y6970934D01*
X115336660Y7020886D01*
X115350504Y7066522D01*
X115372988Y7108587D01*
X115403245Y7145455D01*
X115440113Y7175712D01*
X115482178Y7198196D01*
X115527814Y7212040D01*
X115577766Y7216960D01*
X116587314Y7216960D01*
X116637266Y7212040D01*
G37*
G36*
X84136446Y7212040D02*
G01*
X84182082Y7198196D01*
X84224147Y7175712D01*
X84261015Y7145455D01*
X84291272Y7108587D01*
X84313756Y7066522D01*
X84327600Y7020886D01*
X84332520Y6970934D01*
X84332520Y6211386D01*
X84327600Y6161434D01*
X84313756Y6115798D01*
X84291272Y6073733D01*
X84261015Y6036865D01*
X84224147Y6006608D01*
X84182082Y5984124D01*
X84136446Y5970280D01*
X84086494Y5965360D01*
X83076946Y5965360D01*
X83026994Y5970280D01*
X82981358Y5984124D01*
X82939293Y6006608D01*
X82902425Y6036865D01*
X82872168Y6073733D01*
X82849684Y6115798D01*
X82835840Y6161434D01*
X82830920Y6211386D01*
X82830920Y6970934D01*
X82835840Y7020886D01*
X82849684Y7066522D01*
X82872168Y7108587D01*
X82902425Y7145455D01*
X82939293Y7175712D01*
X82981358Y7198196D01*
X83026994Y7212040D01*
X83076946Y7216960D01*
X84086494Y7216960D01*
X84136446Y7212040D01*
G37*
G36*
X143472654Y8677756D02*
G01*
X143500779Y8669224D01*
X143526695Y8655372D01*
X143549409Y8636729D01*
X143568052Y8614015D01*
X143581904Y8588099D01*
X143590436Y8559974D01*
X143593560Y8528249D01*
X143593560Y6781911D01*
X143590436Y6750186D01*
X143581904Y6722061D01*
X143568052Y6696145D01*
X143549409Y6673431D01*
X143526695Y6654788D01*
X143500779Y6640936D01*
X143472654Y6632404D01*
X143440929Y6629280D01*
X143044591Y6629280D01*
X143012866Y6632404D01*
X142984741Y6640936D01*
X142958825Y6654788D01*
X142936111Y6673431D01*
X142917468Y6696145D01*
X142903616Y6722061D01*
X142895084Y6750186D01*
X142891960Y6781911D01*
X142891960Y8528249D01*
X142895084Y8559974D01*
X142903616Y8588099D01*
X142917468Y8614015D01*
X142936111Y8636729D01*
X142958825Y8655372D01*
X142984741Y8669224D01*
X143012866Y8677756D01*
X143044591Y8680880D01*
X143440929Y8680880D01*
X143472654Y8677756D01*
G37*
G36*
X144742654Y8677756D02*
G01*
X144770779Y8669224D01*
X144796695Y8655372D01*
X144819409Y8636729D01*
X144838052Y8614015D01*
X144851904Y8588099D01*
X144860436Y8559974D01*
X144863560Y8528249D01*
X144863560Y6781911D01*
X144860436Y6750186D01*
X144851904Y6722061D01*
X144838052Y6696145D01*
X144819409Y6673431D01*
X144796695Y6654788D01*
X144770779Y6640936D01*
X144742654Y6632404D01*
X144710929Y6629280D01*
X144314591Y6629280D01*
X144282866Y6632404D01*
X144254741Y6640936D01*
X144228825Y6654788D01*
X144206111Y6673431D01*
X144187468Y6696145D01*
X144173616Y6722061D01*
X144165084Y6750186D01*
X144161960Y6781911D01*
X144161960Y8528249D01*
X144165084Y8559974D01*
X144173616Y8588099D01*
X144187468Y8614015D01*
X144206111Y8636729D01*
X144228825Y8655372D01*
X144254741Y8669224D01*
X144282866Y8677756D01*
X144314591Y8680880D01*
X144710929Y8680880D01*
X144742654Y8677756D01*
G37*
G36*
X146012654Y8677756D02*
G01*
X146040779Y8669224D01*
X146066695Y8655372D01*
X146089409Y8636729D01*
X146108052Y8614015D01*
X146121904Y8588099D01*
X146130436Y8559974D01*
X146133560Y8528249D01*
X146133560Y6781911D01*
X146130436Y6750186D01*
X146121904Y6722061D01*
X146108052Y6696145D01*
X146089409Y6673431D01*
X146066695Y6654788D01*
X146040779Y6640936D01*
X146012654Y6632404D01*
X145980929Y6629280D01*
X145584591Y6629280D01*
X145552866Y6632404D01*
X145524741Y6640936D01*
X145498825Y6654788D01*
X145476111Y6673431D01*
X145457468Y6696145D01*
X145443616Y6722061D01*
X145435084Y6750186D01*
X145431960Y6781911D01*
X145431960Y8528249D01*
X145435084Y8559974D01*
X145443616Y8588099D01*
X145457468Y8614015D01*
X145476111Y8636729D01*
X145498825Y8655372D01*
X145524741Y8669224D01*
X145552866Y8677756D01*
X145584591Y8680880D01*
X145980929Y8680880D01*
X146012654Y8677756D01*
G37*
G36*
X147282654Y8677756D02*
G01*
X147310779Y8669224D01*
X147336695Y8655372D01*
X147359409Y8636729D01*
X147378052Y8614015D01*
X147391904Y8588099D01*
X147400436Y8559974D01*
X147403560Y8528249D01*
X147403560Y6781911D01*
X147400436Y6750186D01*
X147391904Y6722061D01*
X147378052Y6696145D01*
X147359409Y6673431D01*
X147336695Y6654788D01*
X147310779Y6640936D01*
X147282654Y6632404D01*
X147250929Y6629280D01*
X146854591Y6629280D01*
X146822866Y6632404D01*
X146794741Y6640936D01*
X146768825Y6654788D01*
X146746111Y6673431D01*
X146727468Y6696145D01*
X146713616Y6722061D01*
X146705084Y6750186D01*
X146701960Y6781911D01*
X146701960Y8528249D01*
X146705084Y8559974D01*
X146713616Y8588099D01*
X146727468Y8614015D01*
X146746111Y8636729D01*
X146768825Y8655372D01*
X146794741Y8669224D01*
X146822866Y8677756D01*
X146854591Y8680880D01*
X147250929Y8680880D01*
X147282654Y8677756D01*
G37*
G36*
X148552654Y8677756D02*
G01*
X148580779Y8669224D01*
X148606695Y8655372D01*
X148629409Y8636729D01*
X148648052Y8614015D01*
X148661904Y8588099D01*
X148670436Y8559974D01*
X148673560Y8528249D01*
X148673560Y6781911D01*
X148670436Y6750186D01*
X148661904Y6722061D01*
X148648052Y6696145D01*
X148629409Y6673431D01*
X148606695Y6654788D01*
X148580779Y6640936D01*
X148552654Y6632404D01*
X148520929Y6629280D01*
X148124591Y6629280D01*
X148092866Y6632404D01*
X148064741Y6640936D01*
X148038825Y6654788D01*
X148016111Y6673431D01*
X147997468Y6696145D01*
X147983616Y6722061D01*
X147975084Y6750186D01*
X147971960Y6781911D01*
X147971960Y8528249D01*
X147975084Y8559974D01*
X147983616Y8588099D01*
X147997468Y8614015D01*
X148016111Y8636729D01*
X148038825Y8655372D01*
X148064741Y8669224D01*
X148092866Y8677756D01*
X148124591Y8680880D01*
X148520929Y8680880D01*
X148552654Y8677756D01*
G37*
G36*
X149822654Y8677756D02*
G01*
X149850779Y8669224D01*
X149876695Y8655372D01*
X149899409Y8636729D01*
X149918052Y8614015D01*
X149931904Y8588099D01*
X149940436Y8559974D01*
X149943560Y8528249D01*
X149943560Y6781911D01*
X149940436Y6750186D01*
X149931904Y6722061D01*
X149918052Y6696145D01*
X149899409Y6673431D01*
X149876695Y6654788D01*
X149850779Y6640936D01*
X149822654Y6632404D01*
X149790929Y6629280D01*
X149394591Y6629280D01*
X149362866Y6632404D01*
X149334741Y6640936D01*
X149308825Y6654788D01*
X149286111Y6673431D01*
X149267468Y6696145D01*
X149253616Y6722061D01*
X149245084Y6750186D01*
X149241960Y6781911D01*
X149241960Y8528249D01*
X149245084Y8559974D01*
X149253616Y8588099D01*
X149267468Y8614015D01*
X149286111Y8636729D01*
X149308825Y8655372D01*
X149334741Y8669224D01*
X149362866Y8677756D01*
X149394591Y8680880D01*
X149790929Y8680880D01*
X149822654Y8677756D01*
G37*
G36*
X151092654Y8677756D02*
G01*
X151120779Y8669224D01*
X151146695Y8655372D01*
X151169409Y8636729D01*
X151188052Y8614015D01*
X151201904Y8588099D01*
X151210436Y8559974D01*
X151213560Y8528249D01*
X151213560Y6781911D01*
X151210436Y6750186D01*
X151201904Y6722061D01*
X151188052Y6696145D01*
X151169409Y6673431D01*
X151146695Y6654788D01*
X151120779Y6640936D01*
X151092654Y6632404D01*
X151060929Y6629280D01*
X150664591Y6629280D01*
X150632866Y6632404D01*
X150604741Y6640936D01*
X150578825Y6654788D01*
X150556111Y6673431D01*
X150537468Y6696145D01*
X150523616Y6722061D01*
X150515084Y6750186D01*
X150511960Y6781911D01*
X150511960Y8528249D01*
X150515084Y8559974D01*
X150523616Y8588099D01*
X150537468Y8614015D01*
X150556111Y8636729D01*
X150578825Y8655372D01*
X150604741Y8669224D01*
X150632866Y8677756D01*
X150664591Y8680880D01*
X151060929Y8680880D01*
X151092654Y8677756D01*
G37*
G36*
X131901274Y7689296D02*
G01*
X131929399Y7680764D01*
X131955315Y7666912D01*
X131978029Y7648269D01*
X131996672Y7625555D01*
X132010524Y7599639D01*
X132019056Y7571514D01*
X132022180Y7539789D01*
X132022180Y7143451D01*
X132019056Y7111726D01*
X132010524Y7083601D01*
X131996672Y7057685D01*
X131978029Y7034971D01*
X131955315Y7016328D01*
X131929399Y7002476D01*
X131901274Y6993944D01*
X131869549Y6990820D01*
X130123211Y6990820D01*
X130091486Y6993944D01*
X130063361Y7002476D01*
X130037445Y7016328D01*
X130014731Y7034971D01*
X129996088Y7057685D01*
X129982236Y7083601D01*
X129973704Y7111726D01*
X129970580Y7143451D01*
X129970580Y7539789D01*
X129973704Y7571514D01*
X129982236Y7599639D01*
X129996088Y7625555D01*
X130014731Y7648269D01*
X130037445Y7666912D01*
X130063361Y7680764D01*
X130091486Y7689296D01*
X130123211Y7692420D01*
X131869549Y7692420D01*
X131901274Y7689296D01*
G37*
G36*
X136851274Y7689296D02*
G01*
X136879399Y7680764D01*
X136905315Y7666912D01*
X136928029Y7648269D01*
X136946672Y7625555D01*
X136960524Y7599639D01*
X136969056Y7571514D01*
X136972180Y7539789D01*
X136972180Y7143451D01*
X136969056Y7111726D01*
X136960524Y7083601D01*
X136946672Y7057685D01*
X136928029Y7034971D01*
X136905315Y7016328D01*
X136879399Y7002476D01*
X136851274Y6993944D01*
X136819549Y6990820D01*
X135073211Y6990820D01*
X135041486Y6993944D01*
X135013361Y7002476D01*
X134987445Y7016328D01*
X134964731Y7034971D01*
X134946088Y7057685D01*
X134932236Y7083601D01*
X134923704Y7111726D01*
X134920580Y7143451D01*
X134920580Y7539789D01*
X134923704Y7571514D01*
X134932236Y7599639D01*
X134946088Y7625555D01*
X134964731Y7648269D01*
X134987445Y7666912D01*
X135013361Y7680764D01*
X135041486Y7689296D01*
X135073211Y7692420D01*
X136819549Y7692420D01*
X136851274Y7689296D01*
G37*
G36*
X88260674Y9094316D02*
G01*
X88288799Y9085784D01*
X88314715Y9071932D01*
X88337429Y9053289D01*
X88356072Y9030575D01*
X88369924Y9004659D01*
X88378456Y8976534D01*
X88381580Y8944809D01*
X88381580Y7198471D01*
X88378456Y7166746D01*
X88369924Y7138621D01*
X88356072Y7112705D01*
X88337429Y7089991D01*
X88314715Y7071348D01*
X88288799Y7057496D01*
X88260674Y7048964D01*
X88228949Y7045840D01*
X87832611Y7045840D01*
X87800886Y7048964D01*
X87772761Y7057496D01*
X87746845Y7071348D01*
X87724131Y7089991D01*
X87705488Y7112705D01*
X87691636Y7138621D01*
X87683104Y7166746D01*
X87679980Y7198471D01*
X87679980Y8944809D01*
X87683104Y8976534D01*
X87691636Y9004659D01*
X87705488Y9030575D01*
X87724131Y9053289D01*
X87746845Y9071932D01*
X87772761Y9085784D01*
X87800886Y9094316D01*
X87832611Y9097440D01*
X88228949Y9097440D01*
X88260674Y9094316D01*
G37*
G36*
X89530674Y9094316D02*
G01*
X89558799Y9085784D01*
X89584715Y9071932D01*
X89607429Y9053289D01*
X89626072Y9030575D01*
X89639924Y9004659D01*
X89648456Y8976534D01*
X89651580Y8944809D01*
X89651580Y7198471D01*
X89648456Y7166746D01*
X89639924Y7138621D01*
X89626072Y7112705D01*
X89607429Y7089991D01*
X89584715Y7071348D01*
X89558799Y7057496D01*
X89530674Y7048964D01*
X89498949Y7045840D01*
X89102611Y7045840D01*
X89070886Y7048964D01*
X89042761Y7057496D01*
X89016845Y7071348D01*
X88994131Y7089991D01*
X88975488Y7112705D01*
X88961636Y7138621D01*
X88953104Y7166746D01*
X88949980Y7198471D01*
X88949980Y8944809D01*
X88953104Y8976534D01*
X88961636Y9004659D01*
X88975488Y9030575D01*
X88994131Y9053289D01*
X89016845Y9071932D01*
X89042761Y9085784D01*
X89070886Y9094316D01*
X89102611Y9097440D01*
X89498949Y9097440D01*
X89530674Y9094316D01*
G37*
G36*
X90800674Y9094316D02*
G01*
X90828799Y9085784D01*
X90854715Y9071932D01*
X90877429Y9053289D01*
X90896072Y9030575D01*
X90909924Y9004659D01*
X90918456Y8976534D01*
X90921580Y8944809D01*
X90921580Y7198471D01*
X90918456Y7166746D01*
X90909924Y7138621D01*
X90896072Y7112705D01*
X90877429Y7089991D01*
X90854715Y7071348D01*
X90828799Y7057496D01*
X90800674Y7048964D01*
X90768949Y7045840D01*
X90372611Y7045840D01*
X90340886Y7048964D01*
X90312761Y7057496D01*
X90286845Y7071348D01*
X90264131Y7089991D01*
X90245488Y7112705D01*
X90231636Y7138621D01*
X90223104Y7166746D01*
X90219980Y7198471D01*
X90219980Y8944809D01*
X90223104Y8976534D01*
X90231636Y9004659D01*
X90245488Y9030575D01*
X90264131Y9053289D01*
X90286845Y9071932D01*
X90312761Y9085784D01*
X90340886Y9094316D01*
X90372611Y9097440D01*
X90768949Y9097440D01*
X90800674Y9094316D01*
G37*
G36*
X92070674Y9094316D02*
G01*
X92098799Y9085784D01*
X92124715Y9071932D01*
X92147429Y9053289D01*
X92166072Y9030575D01*
X92179924Y9004659D01*
X92188456Y8976534D01*
X92191580Y8944809D01*
X92191580Y7198471D01*
X92188456Y7166746D01*
X92179924Y7138621D01*
X92166072Y7112705D01*
X92147429Y7089991D01*
X92124715Y7071348D01*
X92098799Y7057496D01*
X92070674Y7048964D01*
X92038949Y7045840D01*
X91642611Y7045840D01*
X91610886Y7048964D01*
X91582761Y7057496D01*
X91556845Y7071348D01*
X91534131Y7089991D01*
X91515488Y7112705D01*
X91501636Y7138621D01*
X91493104Y7166746D01*
X91489980Y7198471D01*
X91489980Y8944809D01*
X91493104Y8976534D01*
X91501636Y9004659D01*
X91515488Y9030575D01*
X91534131Y9053289D01*
X91556845Y9071932D01*
X91582761Y9085784D01*
X91610886Y9094316D01*
X91642611Y9097440D01*
X92038949Y9097440D01*
X92070674Y9094316D01*
G37*
G36*
X93340674Y9094316D02*
G01*
X93368799Y9085784D01*
X93394715Y9071932D01*
X93417429Y9053289D01*
X93436072Y9030575D01*
X93449924Y9004659D01*
X93458456Y8976534D01*
X93461580Y8944809D01*
X93461580Y7198471D01*
X93458456Y7166746D01*
X93449924Y7138621D01*
X93436072Y7112705D01*
X93417429Y7089991D01*
X93394715Y7071348D01*
X93368799Y7057496D01*
X93340674Y7048964D01*
X93308949Y7045840D01*
X92912611Y7045840D01*
X92880886Y7048964D01*
X92852761Y7057496D01*
X92826845Y7071348D01*
X92804131Y7089991D01*
X92785488Y7112705D01*
X92771636Y7138621D01*
X92763104Y7166746D01*
X92759980Y7198471D01*
X92759980Y8944809D01*
X92763104Y8976534D01*
X92771636Y9004659D01*
X92785488Y9030575D01*
X92804131Y9053289D01*
X92826845Y9071932D01*
X92852761Y9085784D01*
X92880886Y9094316D01*
X92912611Y9097440D01*
X93308949Y9097440D01*
X93340674Y9094316D01*
G37*
G36*
X94610674Y9094316D02*
G01*
X94638799Y9085784D01*
X94664715Y9071932D01*
X94687429Y9053289D01*
X94706072Y9030575D01*
X94719924Y9004659D01*
X94728456Y8976534D01*
X94731580Y8944809D01*
X94731580Y7198471D01*
X94728456Y7166746D01*
X94719924Y7138621D01*
X94706072Y7112705D01*
X94687429Y7089991D01*
X94664715Y7071348D01*
X94638799Y7057496D01*
X94610674Y7048964D01*
X94578949Y7045840D01*
X94182611Y7045840D01*
X94150886Y7048964D01*
X94122761Y7057496D01*
X94096845Y7071348D01*
X94074131Y7089991D01*
X94055488Y7112705D01*
X94041636Y7138621D01*
X94033104Y7166746D01*
X94029980Y7198471D01*
X94029980Y8944809D01*
X94033104Y8976534D01*
X94041636Y9004659D01*
X94055488Y9030575D01*
X94074131Y9053289D01*
X94096845Y9071932D01*
X94122761Y9085784D01*
X94150886Y9094316D01*
X94182611Y9097440D01*
X94578949Y9097440D01*
X94610674Y9094316D01*
G37*
G36*
X60264794Y9094316D02*
G01*
X60292919Y9085784D01*
X60318835Y9071932D01*
X60341549Y9053289D01*
X60360192Y9030575D01*
X60374044Y9004659D01*
X60382576Y8976534D01*
X60385700Y8944809D01*
X60385700Y7198471D01*
X60382576Y7166746D01*
X60374044Y7138621D01*
X60360192Y7112705D01*
X60341549Y7089991D01*
X60318835Y7071348D01*
X60292919Y7057496D01*
X60264794Y7048964D01*
X60233069Y7045840D01*
X59836731Y7045840D01*
X59805006Y7048964D01*
X59776881Y7057496D01*
X59750965Y7071348D01*
X59728251Y7089991D01*
X59709608Y7112705D01*
X59695756Y7138621D01*
X59687224Y7166746D01*
X59684100Y7198471D01*
X59684100Y8944809D01*
X59687224Y8976534D01*
X59695756Y9004659D01*
X59709608Y9030575D01*
X59728251Y9053289D01*
X59750965Y9071932D01*
X59776881Y9085784D01*
X59805006Y9094316D01*
X59836731Y9097440D01*
X60233069Y9097440D01*
X60264794Y9094316D01*
G37*
G36*
X95880674Y9094316D02*
G01*
X95908799Y9085784D01*
X95934715Y9071932D01*
X95957429Y9053289D01*
X95976072Y9030575D01*
X95989924Y9004659D01*
X95998456Y8976534D01*
X96001580Y8944809D01*
X96001580Y7198471D01*
X95998456Y7166746D01*
X95989924Y7138621D01*
X95976072Y7112705D01*
X95957429Y7089991D01*
X95934715Y7071348D01*
X95908799Y7057496D01*
X95880674Y7048964D01*
X95848949Y7045840D01*
X95452611Y7045840D01*
X95420886Y7048964D01*
X95392761Y7057496D01*
X95366845Y7071348D01*
X95344131Y7089991D01*
X95325488Y7112705D01*
X95311636Y7138621D01*
X95303104Y7166746D01*
X95299980Y7198471D01*
X95299980Y8944809D01*
X95303104Y8976534D01*
X95311636Y9004659D01*
X95325488Y9030575D01*
X95344131Y9053289D01*
X95366845Y9071932D01*
X95392761Y9085784D01*
X95420886Y9094316D01*
X95452611Y9097440D01*
X95848949Y9097440D01*
X95880674Y9094316D01*
G37*
G36*
X127912614Y9094316D02*
G01*
X127940739Y9085784D01*
X127966655Y9071932D01*
X127989369Y9053289D01*
X128008012Y9030575D01*
X128021864Y9004659D01*
X128030396Y8976534D01*
X128033520Y8944809D01*
X128033520Y7198471D01*
X128030396Y7166746D01*
X128021864Y7138621D01*
X128008012Y7112705D01*
X127989369Y7089991D01*
X127966655Y7071348D01*
X127940739Y7057496D01*
X127912614Y7048964D01*
X127880889Y7045840D01*
X127484551Y7045840D01*
X127452826Y7048964D01*
X127424701Y7057496D01*
X127398785Y7071348D01*
X127376071Y7089991D01*
X127357428Y7112705D01*
X127343576Y7138621D01*
X127335044Y7166746D01*
X127331920Y7198471D01*
X127331920Y8944809D01*
X127335044Y8976534D01*
X127343576Y9004659D01*
X127357428Y9030575D01*
X127376071Y9053289D01*
X127398785Y9071932D01*
X127424701Y9085784D01*
X127452826Y9094316D01*
X127484551Y9097440D01*
X127880889Y9097440D01*
X127912614Y9094316D01*
G37*
G36*
X126642614Y9094316D02*
G01*
X126670739Y9085784D01*
X126696655Y9071932D01*
X126719369Y9053289D01*
X126738012Y9030575D01*
X126751864Y9004659D01*
X126760396Y8976534D01*
X126763520Y8944809D01*
X126763520Y7198471D01*
X126760396Y7166746D01*
X126751864Y7138621D01*
X126738012Y7112705D01*
X126719369Y7089991D01*
X126696655Y7071348D01*
X126670739Y7057496D01*
X126642614Y7048964D01*
X126610889Y7045840D01*
X126214551Y7045840D01*
X126182826Y7048964D01*
X126154701Y7057496D01*
X126128785Y7071348D01*
X126106071Y7089991D01*
X126087428Y7112705D01*
X126073576Y7138621D01*
X126065044Y7166746D01*
X126061920Y7198471D01*
X126061920Y8944809D01*
X126065044Y8976534D01*
X126073576Y9004659D01*
X126087428Y9030575D01*
X126106071Y9053289D01*
X126128785Y9071932D01*
X126154701Y9085784D01*
X126182826Y9094316D01*
X126214551Y9097440D01*
X126610889Y9097440D01*
X126642614Y9094316D01*
G37*
G36*
X125372614Y9094316D02*
G01*
X125400739Y9085784D01*
X125426655Y9071932D01*
X125449369Y9053289D01*
X125468012Y9030575D01*
X125481864Y9004659D01*
X125490396Y8976534D01*
X125493520Y8944809D01*
X125493520Y7198471D01*
X125490396Y7166746D01*
X125481864Y7138621D01*
X125468012Y7112705D01*
X125449369Y7089991D01*
X125426655Y7071348D01*
X125400739Y7057496D01*
X125372614Y7048964D01*
X125340889Y7045840D01*
X124944551Y7045840D01*
X124912826Y7048964D01*
X124884701Y7057496D01*
X124858785Y7071348D01*
X124836071Y7089991D01*
X124817428Y7112705D01*
X124803576Y7138621D01*
X124795044Y7166746D01*
X124791920Y7198471D01*
X124791920Y8944809D01*
X124795044Y8976534D01*
X124803576Y9004659D01*
X124817428Y9030575D01*
X124836071Y9053289D01*
X124858785Y9071932D01*
X124884701Y9085784D01*
X124912826Y9094316D01*
X124944551Y9097440D01*
X125340889Y9097440D01*
X125372614Y9094316D01*
G37*
G36*
X86990674Y9094316D02*
G01*
X87018799Y9085784D01*
X87044715Y9071932D01*
X87067429Y9053289D01*
X87086072Y9030575D01*
X87099924Y9004659D01*
X87108456Y8976534D01*
X87111580Y8944809D01*
X87111580Y7198471D01*
X87108456Y7166746D01*
X87099924Y7138621D01*
X87086072Y7112705D01*
X87067429Y7089991D01*
X87044715Y7071348D01*
X87018799Y7057496D01*
X86990674Y7048964D01*
X86958949Y7045840D01*
X86562611Y7045840D01*
X86530886Y7048964D01*
X86502761Y7057496D01*
X86476845Y7071348D01*
X86454131Y7089991D01*
X86435488Y7112705D01*
X86421636Y7138621D01*
X86413104Y7166746D01*
X86409980Y7198471D01*
X86409980Y8944809D01*
X86413104Y8976534D01*
X86421636Y9004659D01*
X86435488Y9030575D01*
X86454131Y9053289D01*
X86476845Y9071932D01*
X86502761Y9085784D01*
X86530886Y9094316D01*
X86562611Y9097440D01*
X86958949Y9097440D01*
X86990674Y9094316D01*
G37*
G36*
X121562614Y9094316D02*
G01*
X121590739Y9085784D01*
X121616655Y9071932D01*
X121639369Y9053289D01*
X121658012Y9030575D01*
X121671864Y9004659D01*
X121680396Y8976534D01*
X121683520Y8944809D01*
X121683520Y7198471D01*
X121680396Y7166746D01*
X121671864Y7138621D01*
X121658012Y7112705D01*
X121639369Y7089991D01*
X121616655Y7071348D01*
X121590739Y7057496D01*
X121562614Y7048964D01*
X121530889Y7045840D01*
X121134551Y7045840D01*
X121102826Y7048964D01*
X121074701Y7057496D01*
X121048785Y7071348D01*
X121026071Y7089991D01*
X121007428Y7112705D01*
X120993576Y7138621D01*
X120985044Y7166746D01*
X120981920Y7198471D01*
X120981920Y8944809D01*
X120985044Y8976534D01*
X120993576Y9004659D01*
X121007428Y9030575D01*
X121026071Y9053289D01*
X121048785Y9071932D01*
X121074701Y9085784D01*
X121102826Y9094316D01*
X121134551Y9097440D01*
X121530889Y9097440D01*
X121562614Y9094316D01*
G37*
G36*
X122832614Y9094316D02*
G01*
X122860739Y9085784D01*
X122886655Y9071932D01*
X122909369Y9053289D01*
X122928012Y9030575D01*
X122941864Y9004659D01*
X122950396Y8976534D01*
X122953520Y8944809D01*
X122953520Y7198471D01*
X122950396Y7166746D01*
X122941864Y7138621D01*
X122928012Y7112705D01*
X122909369Y7089991D01*
X122886655Y7071348D01*
X122860739Y7057496D01*
X122832614Y7048964D01*
X122800889Y7045840D01*
X122404551Y7045840D01*
X122372826Y7048964D01*
X122344701Y7057496D01*
X122318785Y7071348D01*
X122296071Y7089991D01*
X122277428Y7112705D01*
X122263576Y7138621D01*
X122255044Y7166746D01*
X122251920Y7198471D01*
X122251920Y8944809D01*
X122255044Y8976534D01*
X122263576Y9004659D01*
X122277428Y9030575D01*
X122296071Y9053289D01*
X122318785Y9071932D01*
X122344701Y9085784D01*
X122372826Y9094316D01*
X122404551Y9097440D01*
X122800889Y9097440D01*
X122832614Y9094316D01*
G37*
G36*
X124102614Y9094316D02*
G01*
X124130739Y9085784D01*
X124156655Y9071932D01*
X124179369Y9053289D01*
X124198012Y9030575D01*
X124211864Y9004659D01*
X124220396Y8976534D01*
X124223520Y8944809D01*
X124223520Y7198471D01*
X124220396Y7166746D01*
X124211864Y7138621D01*
X124198012Y7112705D01*
X124179369Y7089991D01*
X124156655Y7071348D01*
X124130739Y7057496D01*
X124102614Y7048964D01*
X124070889Y7045840D01*
X123674551Y7045840D01*
X123642826Y7048964D01*
X123614701Y7057496D01*
X123588785Y7071348D01*
X123566071Y7089991D01*
X123547428Y7112705D01*
X123533576Y7138621D01*
X123525044Y7166746D01*
X123521920Y7198471D01*
X123521920Y8944809D01*
X123525044Y8976534D01*
X123533576Y9004659D01*
X123547428Y9030575D01*
X123566071Y9053289D01*
X123588785Y9071932D01*
X123614701Y9085784D01*
X123642826Y9094316D01*
X123674551Y9097440D01*
X124070889Y9097440D01*
X124102614Y9094316D01*
G37*
G36*
X53914794Y9094316D02*
G01*
X53942919Y9085784D01*
X53968835Y9071932D01*
X53991549Y9053289D01*
X54010192Y9030575D01*
X54024044Y9004659D01*
X54032576Y8976534D01*
X54035700Y8944809D01*
X54035700Y7198471D01*
X54032576Y7166746D01*
X54024044Y7138621D01*
X54010192Y7112705D01*
X53991549Y7089991D01*
X53968835Y7071348D01*
X53942919Y7057496D01*
X53914794Y7048964D01*
X53883069Y7045840D01*
X53486731Y7045840D01*
X53455006Y7048964D01*
X53426881Y7057496D01*
X53400965Y7071348D01*
X53378251Y7089991D01*
X53359608Y7112705D01*
X53345756Y7138621D01*
X53337224Y7166746D01*
X53334100Y7198471D01*
X53334100Y8944809D01*
X53337224Y8976534D01*
X53345756Y9004659D01*
X53359608Y9030575D01*
X53378251Y9053289D01*
X53400965Y9071932D01*
X53426881Y9085784D01*
X53455006Y9094316D01*
X53486731Y9097440D01*
X53883069Y9097440D01*
X53914794Y9094316D01*
G37*
G36*
X55184794Y9094316D02*
G01*
X55212919Y9085784D01*
X55238835Y9071932D01*
X55261549Y9053289D01*
X55280192Y9030575D01*
X55294044Y9004659D01*
X55302576Y8976534D01*
X55305700Y8944809D01*
X55305700Y7198471D01*
X55302576Y7166746D01*
X55294044Y7138621D01*
X55280192Y7112705D01*
X55261549Y7089991D01*
X55238835Y7071348D01*
X55212919Y7057496D01*
X55184794Y7048964D01*
X55153069Y7045840D01*
X54756731Y7045840D01*
X54725006Y7048964D01*
X54696881Y7057496D01*
X54670965Y7071348D01*
X54648251Y7089991D01*
X54629608Y7112705D01*
X54615756Y7138621D01*
X54607224Y7166746D01*
X54604100Y7198471D01*
X54604100Y8944809D01*
X54607224Y8976534D01*
X54615756Y9004659D01*
X54629608Y9030575D01*
X54648251Y9053289D01*
X54670965Y9071932D01*
X54696881Y9085784D01*
X54725006Y9094316D01*
X54756731Y9097440D01*
X55153069Y9097440D01*
X55184794Y9094316D01*
G37*
G36*
X56454794Y9094316D02*
G01*
X56482919Y9085784D01*
X56508835Y9071932D01*
X56531549Y9053289D01*
X56550192Y9030575D01*
X56564044Y9004659D01*
X56572576Y8976534D01*
X56575700Y8944809D01*
X56575700Y7198471D01*
X56572576Y7166746D01*
X56564044Y7138621D01*
X56550192Y7112705D01*
X56531549Y7089991D01*
X56508835Y7071348D01*
X56482919Y7057496D01*
X56454794Y7048964D01*
X56423069Y7045840D01*
X56026731Y7045840D01*
X55995006Y7048964D01*
X55966881Y7057496D01*
X55940965Y7071348D01*
X55918251Y7089991D01*
X55899608Y7112705D01*
X55885756Y7138621D01*
X55877224Y7166746D01*
X55874100Y7198471D01*
X55874100Y8944809D01*
X55877224Y8976534D01*
X55885756Y9004659D01*
X55899608Y9030575D01*
X55918251Y9053289D01*
X55940965Y9071932D01*
X55966881Y9085784D01*
X55995006Y9094316D01*
X56026731Y9097440D01*
X56423069Y9097440D01*
X56454794Y9094316D01*
G37*
G36*
X57724794Y9094316D02*
G01*
X57752919Y9085784D01*
X57778835Y9071932D01*
X57801549Y9053289D01*
X57820192Y9030575D01*
X57834044Y9004659D01*
X57842576Y8976534D01*
X57845700Y8944809D01*
X57845700Y7198471D01*
X57842576Y7166746D01*
X57834044Y7138621D01*
X57820192Y7112705D01*
X57801549Y7089991D01*
X57778835Y7071348D01*
X57752919Y7057496D01*
X57724794Y7048964D01*
X57693069Y7045840D01*
X57296731Y7045840D01*
X57265006Y7048964D01*
X57236881Y7057496D01*
X57210965Y7071348D01*
X57188251Y7089991D01*
X57169608Y7112705D01*
X57155756Y7138621D01*
X57147224Y7166746D01*
X57144100Y7198471D01*
X57144100Y8944809D01*
X57147224Y8976534D01*
X57155756Y9004659D01*
X57169608Y9030575D01*
X57188251Y9053289D01*
X57210965Y9071932D01*
X57236881Y9085784D01*
X57265006Y9094316D01*
X57296731Y9097440D01*
X57693069Y9097440D01*
X57724794Y9094316D01*
G37*
G36*
X58994794Y9094316D02*
G01*
X59022919Y9085784D01*
X59048835Y9071932D01*
X59071549Y9053289D01*
X59090192Y9030575D01*
X59104044Y9004659D01*
X59112576Y8976534D01*
X59115700Y8944809D01*
X59115700Y7198471D01*
X59112576Y7166746D01*
X59104044Y7138621D01*
X59090192Y7112705D01*
X59071549Y7089991D01*
X59048835Y7071348D01*
X59022919Y7057496D01*
X58994794Y7048964D01*
X58963069Y7045840D01*
X58566731Y7045840D01*
X58535006Y7048964D01*
X58506881Y7057496D01*
X58480965Y7071348D01*
X58458251Y7089991D01*
X58439608Y7112705D01*
X58425756Y7138621D01*
X58417224Y7166746D01*
X58414100Y7198471D01*
X58414100Y8944809D01*
X58417224Y8976534D01*
X58425756Y9004659D01*
X58439608Y9030575D01*
X58458251Y9053289D01*
X58480965Y9071932D01*
X58506881Y9085784D01*
X58535006Y9094316D01*
X58566731Y9097440D01*
X58963069Y9097440D01*
X58994794Y9094316D01*
G37*
G36*
X61534794Y9094316D02*
G01*
X61562919Y9085784D01*
X61588835Y9071932D01*
X61611549Y9053289D01*
X61630192Y9030575D01*
X61644044Y9004659D01*
X61652576Y8976534D01*
X61655700Y8944809D01*
X61655700Y7198471D01*
X61652576Y7166746D01*
X61644044Y7138621D01*
X61630192Y7112705D01*
X61611549Y7089991D01*
X61588835Y7071348D01*
X61562919Y7057496D01*
X61534794Y7048964D01*
X61503069Y7045840D01*
X61106731Y7045840D01*
X61075006Y7048964D01*
X61046881Y7057496D01*
X61020965Y7071348D01*
X60998251Y7089991D01*
X60979608Y7112705D01*
X60965756Y7138621D01*
X60957224Y7166746D01*
X60954100Y7198471D01*
X60954100Y8944809D01*
X60957224Y8976534D01*
X60965756Y9004659D01*
X60979608Y9030575D01*
X60998251Y9053289D01*
X61020965Y9071932D01*
X61046881Y9085784D01*
X61075006Y9094316D01*
X61106731Y9097440D01*
X61503069Y9097440D01*
X61534794Y9094316D01*
G37*
G36*
X52644794Y9094316D02*
G01*
X52672919Y9085784D01*
X52698835Y9071932D01*
X52721549Y9053289D01*
X52740192Y9030575D01*
X52754044Y9004659D01*
X52762576Y8976534D01*
X52765700Y8944809D01*
X52765700Y7198471D01*
X52762576Y7166746D01*
X52754044Y7138621D01*
X52740192Y7112705D01*
X52721549Y7089991D01*
X52698835Y7071348D01*
X52672919Y7057496D01*
X52644794Y7048964D01*
X52613069Y7045840D01*
X52216731Y7045840D01*
X52185006Y7048964D01*
X52156881Y7057496D01*
X52130965Y7071348D01*
X52108251Y7089991D01*
X52089608Y7112705D01*
X52075756Y7138621D01*
X52067224Y7166746D01*
X52064100Y7198471D01*
X52064100Y8944809D01*
X52067224Y8976534D01*
X52075756Y9004659D01*
X52089608Y9030575D01*
X52108251Y9053289D01*
X52130965Y9071932D01*
X52156881Y9085784D01*
X52185006Y9094316D01*
X52216731Y9097440D01*
X52613069Y9097440D01*
X52644794Y9094316D01*
G37*
G36*
X119022614Y9094316D02*
G01*
X119050739Y9085784D01*
X119076655Y9071932D01*
X119099369Y9053289D01*
X119118012Y9030575D01*
X119131864Y9004659D01*
X119140396Y8976534D01*
X119143520Y8944809D01*
X119143520Y7198471D01*
X119140396Y7166746D01*
X119131864Y7138621D01*
X119118012Y7112705D01*
X119099369Y7089991D01*
X119076655Y7071348D01*
X119050739Y7057496D01*
X119022614Y7048964D01*
X118990889Y7045840D01*
X118594551Y7045840D01*
X118562826Y7048964D01*
X118534701Y7057496D01*
X118508785Y7071348D01*
X118486071Y7089991D01*
X118467428Y7112705D01*
X118453576Y7138621D01*
X118445044Y7166746D01*
X118441920Y7198471D01*
X118441920Y8944809D01*
X118445044Y8976534D01*
X118453576Y9004659D01*
X118467428Y9030575D01*
X118486071Y9053289D01*
X118508785Y9071932D01*
X118534701Y9085784D01*
X118562826Y9094316D01*
X118594551Y9097440D01*
X118990889Y9097440D01*
X119022614Y9094316D01*
G37*
G36*
X120292614Y9094316D02*
G01*
X120320739Y9085784D01*
X120346655Y9071932D01*
X120369369Y9053289D01*
X120388012Y9030575D01*
X120401864Y9004659D01*
X120410396Y8976534D01*
X120413520Y8944809D01*
X120413520Y7198471D01*
X120410396Y7166746D01*
X120401864Y7138621D01*
X120388012Y7112705D01*
X120369369Y7089991D01*
X120346655Y7071348D01*
X120320739Y7057496D01*
X120292614Y7048964D01*
X120260889Y7045840D01*
X119864551Y7045840D01*
X119832826Y7048964D01*
X119804701Y7057496D01*
X119778785Y7071348D01*
X119756071Y7089991D01*
X119737428Y7112705D01*
X119723576Y7138621D01*
X119715044Y7166746D01*
X119711920Y7198471D01*
X119711920Y8944809D01*
X119715044Y8976534D01*
X119723576Y9004659D01*
X119737428Y9030575D01*
X119756071Y9053289D01*
X119778785Y9071932D01*
X119804701Y9085784D01*
X119832826Y9094316D01*
X119864551Y9097440D01*
X120260889Y9097440D01*
X120292614Y9094316D01*
G37*
G36*
X141337066Y8877440D02*
G01*
X141382702Y8863596D01*
X141424767Y8841112D01*
X141461635Y8810855D01*
X141491892Y8773987D01*
X141514376Y8731922D01*
X141528220Y8686286D01*
X141533140Y8636334D01*
X141533140Y7626786D01*
X141528220Y7576834D01*
X141514376Y7531198D01*
X141491892Y7489133D01*
X141461635Y7452265D01*
X141424767Y7422008D01*
X141382702Y7399524D01*
X141337066Y7385680D01*
X141287114Y7380760D01*
X140527566Y7380760D01*
X140477614Y7385680D01*
X140431978Y7399524D01*
X140389913Y7422008D01*
X140353045Y7452265D01*
X140322788Y7489133D01*
X140300304Y7531198D01*
X140286460Y7576834D01*
X140281540Y7626786D01*
X140281540Y8636334D01*
X140286460Y8686286D01*
X140300304Y8731922D01*
X140322788Y8773987D01*
X140353045Y8810855D01*
X140389913Y8841112D01*
X140431978Y8863596D01*
X140477614Y8877440D01*
X140527566Y8882360D01*
X141287114Y8882360D01*
X141337066Y8877440D01*
G37*
G36*
X139287066Y8877440D02*
G01*
X139332702Y8863596D01*
X139374767Y8841112D01*
X139411635Y8810855D01*
X139441892Y8773987D01*
X139464376Y8731922D01*
X139478220Y8686286D01*
X139483140Y8636334D01*
X139483140Y7626786D01*
X139478220Y7576834D01*
X139464376Y7531198D01*
X139441892Y7489133D01*
X139411635Y7452265D01*
X139374767Y7422008D01*
X139332702Y7399524D01*
X139287066Y7385680D01*
X139237114Y7380760D01*
X138477566Y7380760D01*
X138427614Y7385680D01*
X138381978Y7399524D01*
X138339913Y7422008D01*
X138303045Y7452265D01*
X138272788Y7489133D01*
X138250304Y7531198D01*
X138236460Y7576834D01*
X138231540Y7626786D01*
X138231540Y8636334D01*
X138236460Y8686286D01*
X138250304Y8731922D01*
X138272788Y8773987D01*
X138303045Y8810855D01*
X138339913Y8841112D01*
X138381978Y8863596D01*
X138427614Y8877440D01*
X138477566Y8882360D01*
X139237114Y8882360D01*
X139287066Y8877440D01*
G37*
G36*
X136851274Y8959296D02*
G01*
X136879399Y8950764D01*
X136905315Y8936912D01*
X136928029Y8918269D01*
X136946672Y8895555D01*
X136960524Y8869639D01*
X136969056Y8841514D01*
X136972180Y8809789D01*
X136972180Y8413451D01*
X136969056Y8381726D01*
X136960524Y8353601D01*
X136946672Y8327685D01*
X136928029Y8304971D01*
X136905315Y8286328D01*
X136879399Y8272476D01*
X136851274Y8263944D01*
X136819549Y8260820D01*
X135073211Y8260820D01*
X135041486Y8263944D01*
X135013361Y8272476D01*
X134987445Y8286328D01*
X134964731Y8304971D01*
X134946088Y8327685D01*
X134932236Y8353601D01*
X134923704Y8381726D01*
X134920580Y8413451D01*
X134920580Y8809789D01*
X134923704Y8841514D01*
X134932236Y8869639D01*
X134946088Y8895555D01*
X134964731Y8918269D01*
X134987445Y8936912D01*
X135013361Y8950764D01*
X135041486Y8959296D01*
X135073211Y8962420D01*
X136819549Y8962420D01*
X136851274Y8959296D01*
G37*
G36*
X131901274Y8959296D02*
G01*
X131929399Y8950764D01*
X131955315Y8936912D01*
X131978029Y8918269D01*
X131996672Y8895555D01*
X132010524Y8869639D01*
X132019056Y8841514D01*
X132022180Y8809789D01*
X132022180Y8413451D01*
X132019056Y8381726D01*
X132010524Y8353601D01*
X131996672Y8327685D01*
X131978029Y8304971D01*
X131955315Y8286328D01*
X131929399Y8272476D01*
X131901274Y8263944D01*
X131869549Y8260820D01*
X130123211Y8260820D01*
X130091486Y8263944D01*
X130063361Y8272476D01*
X130037445Y8286328D01*
X130014731Y8304971D01*
X129996088Y8327685D01*
X129982236Y8353601D01*
X129973704Y8381726D01*
X129970580Y8413451D01*
X129970580Y8809789D01*
X129973704Y8841514D01*
X129982236Y8869639D01*
X129996088Y8895555D01*
X130014731Y8918269D01*
X130037445Y8936912D01*
X130063361Y8950764D01*
X130091486Y8959296D01*
X130123211Y8962420D01*
X131869549Y8962420D01*
X131901274Y8959296D01*
G37*
G36*
X162004726Y9745880D02*
G01*
X162050362Y9732036D01*
X162092427Y9709552D01*
X162129295Y9679295D01*
X162159552Y9642427D01*
X162182036Y9600362D01*
X162195880Y9554726D01*
X162200800Y9504774D01*
X162200800Y8745226D01*
X162195880Y8695274D01*
X162182036Y8649638D01*
X162159552Y8607573D01*
X162129295Y8570705D01*
X162092427Y8540448D01*
X162050362Y8517964D01*
X162004726Y8504120D01*
X161954774Y8499200D01*
X160945226Y8499200D01*
X160895274Y8504120D01*
X160849638Y8517964D01*
X160807573Y8540448D01*
X160770705Y8570705D01*
X160740448Y8607573D01*
X160717964Y8649638D01*
X160704120Y8695274D01*
X160699200Y8745226D01*
X160699200Y9504774D01*
X160704120Y9554726D01*
X160717964Y9600362D01*
X160740448Y9642427D01*
X160770705Y9679295D01*
X160807573Y9709552D01*
X160849638Y9732036D01*
X160895274Y9745880D01*
X160945226Y9750800D01*
X161954774Y9750800D01*
X162004726Y9745880D01*
G37*
G36*
X154954726Y9745880D02*
G01*
X155000362Y9732036D01*
X155042427Y9709552D01*
X155079295Y9679295D01*
X155109552Y9642427D01*
X155132036Y9600362D01*
X155145880Y9554726D01*
X155150800Y9504774D01*
X155150800Y8745226D01*
X155145880Y8695274D01*
X155132036Y8649638D01*
X155109552Y8607573D01*
X155079295Y8570705D01*
X155042427Y8540448D01*
X155000362Y8517964D01*
X154954726Y8504120D01*
X154904774Y8499200D01*
X153895226Y8499200D01*
X153845274Y8504120D01*
X153799638Y8517964D01*
X153757573Y8540448D01*
X153720705Y8570705D01*
X153690448Y8607573D01*
X153667964Y8649638D01*
X153654120Y8695274D01*
X153649200Y8745226D01*
X153649200Y9504774D01*
X153654120Y9554726D01*
X153667964Y9600362D01*
X153690448Y9642427D01*
X153720705Y9679295D01*
X153757573Y9709552D01*
X153799638Y9732036D01*
X153845274Y9745880D01*
X153895226Y9750800D01*
X154904774Y9750800D01*
X154954726Y9745880D01*
G37*
G36*
X159654726Y9745880D02*
G01*
X159700362Y9732036D01*
X159742427Y9709552D01*
X159779295Y9679295D01*
X159809552Y9642427D01*
X159832036Y9600362D01*
X159845880Y9554726D01*
X159850800Y9504774D01*
X159850800Y8745226D01*
X159845880Y8695274D01*
X159832036Y8649638D01*
X159809552Y8607573D01*
X159779295Y8570705D01*
X159742427Y8540448D01*
X159700362Y8517964D01*
X159654726Y8504120D01*
X159604774Y8499200D01*
X158595226Y8499200D01*
X158545274Y8504120D01*
X158499638Y8517964D01*
X158457573Y8540448D01*
X158420705Y8570705D01*
X158390448Y8607573D01*
X158367964Y8649638D01*
X158354120Y8695274D01*
X158349200Y8745226D01*
X158349200Y9504774D01*
X158354120Y9554726D01*
X158367964Y9600362D01*
X158390448Y9642427D01*
X158420705Y9679295D01*
X158457573Y9709552D01*
X158499638Y9732036D01*
X158545274Y9745880D01*
X158595226Y9750800D01*
X159604774Y9750800D01*
X159654726Y9745880D01*
G37*
G36*
X157304726Y9745880D02*
G01*
X157350362Y9732036D01*
X157392427Y9709552D01*
X157429295Y9679295D01*
X157459552Y9642427D01*
X157482036Y9600362D01*
X157495880Y9554726D01*
X157500800Y9504774D01*
X157500800Y8745226D01*
X157495880Y8695274D01*
X157482036Y8649638D01*
X157459552Y8607573D01*
X157429295Y8570705D01*
X157392427Y8540448D01*
X157350362Y8517964D01*
X157304726Y8504120D01*
X157254774Y8499200D01*
X156245226Y8499200D01*
X156195274Y8504120D01*
X156149638Y8517964D01*
X156107573Y8540448D01*
X156070705Y8570705D01*
X156040448Y8607573D01*
X156017964Y8649638D01*
X156004120Y8695274D01*
X155999200Y8745226D01*
X155999200Y9504774D01*
X156004120Y9554726D01*
X156017964Y9600362D01*
X156040448Y9642427D01*
X156070705Y9679295D01*
X156107573Y9709552D01*
X156149638Y9732036D01*
X156195274Y9745880D01*
X156245226Y9750800D01*
X157254774Y9750800D01*
X157304726Y9745880D01*
G37*
G36*
X30854726Y10070880D02*
G01*
X30900362Y10057036D01*
X30942427Y10034552D01*
X30979295Y10004295D01*
X31009552Y9967427D01*
X31032036Y9925362D01*
X31045880Y9879726D01*
X31050800Y9829774D01*
X31050800Y8820226D01*
X31045880Y8770274D01*
X31032036Y8724638D01*
X31009552Y8682573D01*
X30979295Y8645705D01*
X30942427Y8615448D01*
X30900362Y8592964D01*
X30854726Y8579120D01*
X30804774Y8574200D01*
X30045226Y8574200D01*
X29995274Y8579120D01*
X29949638Y8592964D01*
X29907573Y8615448D01*
X29870705Y8645705D01*
X29840448Y8682573D01*
X29817964Y8724638D01*
X29804120Y8770274D01*
X29799200Y8820226D01*
X29799200Y9829774D01*
X29804120Y9879726D01*
X29817964Y9925362D01*
X29840448Y9967427D01*
X29870705Y10004295D01*
X29907573Y10034552D01*
X29949638Y10057036D01*
X29995274Y10070880D01*
X30045226Y10075800D01*
X30804774Y10075800D01*
X30854726Y10070880D01*
G37*
G36*
X28804726Y10070880D02*
G01*
X28850362Y10057036D01*
X28892427Y10034552D01*
X28929295Y10004295D01*
X28959552Y9967427D01*
X28982036Y9925362D01*
X28995880Y9879726D01*
X29000800Y9829774D01*
X29000800Y8820226D01*
X28995880Y8770274D01*
X28982036Y8724638D01*
X28959552Y8682573D01*
X28929295Y8645705D01*
X28892427Y8615448D01*
X28850362Y8592964D01*
X28804726Y8579120D01*
X28754774Y8574200D01*
X27995226Y8574200D01*
X27945274Y8579120D01*
X27899638Y8592964D01*
X27857573Y8615448D01*
X27820705Y8645705D01*
X27790448Y8682573D01*
X27767964Y8724638D01*
X27754120Y8770274D01*
X27749200Y8820226D01*
X27749200Y9829774D01*
X27754120Y9879726D01*
X27767964Y9925362D01*
X27790448Y9967427D01*
X27820705Y10004295D01*
X27857573Y10034552D01*
X27899638Y10057036D01*
X27945274Y10070880D01*
X27995226Y10075800D01*
X28754774Y10075800D01*
X28804726Y10070880D01*
G37*
G36*
X9350800Y9324200D02*
G01*
X6249200Y9324200D01*
X6249200Y12425800D01*
X9350800Y12425800D01*
X9350800Y9324200D01*
G37*
G36*
X5850800Y9324200D02*
G01*
X2749200Y9324200D01*
X2749200Y12425800D01*
X5850800Y12425800D01*
X5850800Y9324200D01*
G37*
G36*
X61238544Y11838472D02*
G01*
X61353124Y11803714D01*
X61379965Y11795572D01*
X61394212Y11791250D01*
X61537670Y11714569D01*
X61663414Y11611374D01*
X61766609Y11485630D01*
X61843290Y11342172D01*
X61890512Y11186504D01*
X61906455Y11024620D01*
X61890512Y10862736D01*
X61843290Y10707068D01*
X61766609Y10563610D01*
X61663414Y10437866D01*
X61537670Y10334671D01*
X61394212Y10257990D01*
X61238544Y10210768D01*
X61117227Y10198820D01*
X59166093Y10198820D01*
X59044776Y10210768D01*
X58889108Y10257990D01*
X58745650Y10334671D01*
X58619906Y10437866D01*
X58516711Y10563610D01*
X58440030Y10707068D01*
X58392808Y10862736D01*
X58376865Y11024620D01*
X58392808Y11186504D01*
X58440030Y11342172D01*
X58516711Y11485630D01*
X58619906Y11611374D01*
X58745650Y11714569D01*
X58889108Y11791250D01*
X58903356Y11795572D01*
X58930196Y11803714D01*
X59044776Y11838472D01*
X59166093Y11850420D01*
X61117227Y11850420D01*
X61238544Y11838472D01*
G37*
G36*
X104798544Y11838472D02*
G01*
X104913124Y11803714D01*
X104939965Y11795572D01*
X104954212Y11791250D01*
X105097670Y11714569D01*
X105223414Y11611374D01*
X105326609Y11485630D01*
X105403290Y11342172D01*
X105450512Y11186504D01*
X105466455Y11024620D01*
X105450512Y10862736D01*
X105403290Y10707068D01*
X105326609Y10563610D01*
X105223414Y10437866D01*
X105097670Y10334671D01*
X104954212Y10257990D01*
X104798544Y10210768D01*
X104677227Y10198820D01*
X102726093Y10198820D01*
X102604776Y10210768D01*
X102449108Y10257990D01*
X102305650Y10334671D01*
X102179906Y10437866D01*
X102076711Y10563610D01*
X102000030Y10707068D01*
X101952808Y10862736D01*
X101936865Y11024620D01*
X101952808Y11186504D01*
X102000030Y11342172D01*
X102076711Y11485630D01*
X102179906Y11611374D01*
X102305650Y11714569D01*
X102449108Y11791250D01*
X102463356Y11795572D01*
X102490196Y11803714D01*
X102604776Y11838472D01*
X102726093Y11850420D01*
X104677227Y11850420D01*
X104798544Y11838472D01*
G37*
G36*
X100838544Y11838472D02*
G01*
X100953124Y11803714D01*
X100979965Y11795572D01*
X100994212Y11791250D01*
X101137670Y11714569D01*
X101263414Y11611374D01*
X101366609Y11485630D01*
X101443290Y11342172D01*
X101490512Y11186504D01*
X101506455Y11024620D01*
X101490512Y10862736D01*
X101443290Y10707068D01*
X101366609Y10563610D01*
X101263414Y10437866D01*
X101137670Y10334671D01*
X100994212Y10257990D01*
X100838544Y10210768D01*
X100717227Y10198820D01*
X98766093Y10198820D01*
X98644776Y10210768D01*
X98489108Y10257990D01*
X98345650Y10334671D01*
X98219906Y10437866D01*
X98116711Y10563610D01*
X98040030Y10707068D01*
X97992808Y10862736D01*
X97976865Y11024620D01*
X97992808Y11186504D01*
X98040030Y11342172D01*
X98116711Y11485630D01*
X98219906Y11611374D01*
X98345650Y11714569D01*
X98489108Y11791250D01*
X98503356Y11795572D01*
X98530196Y11803714D01*
X98644776Y11838472D01*
X98766093Y11850420D01*
X100717227Y11850420D01*
X100838544Y11838472D01*
G37*
G36*
X92918544Y11838472D02*
G01*
X93033124Y11803714D01*
X93059965Y11795572D01*
X93074212Y11791250D01*
X93217670Y11714569D01*
X93343414Y11611374D01*
X93446609Y11485630D01*
X93523290Y11342172D01*
X93570512Y11186504D01*
X93586455Y11024620D01*
X93570512Y10862736D01*
X93523290Y10707068D01*
X93446609Y10563610D01*
X93343414Y10437866D01*
X93217670Y10334671D01*
X93074212Y10257990D01*
X92918544Y10210768D01*
X92797227Y10198820D01*
X90846093Y10198820D01*
X90724776Y10210768D01*
X90569108Y10257990D01*
X90425650Y10334671D01*
X90299906Y10437866D01*
X90196711Y10563610D01*
X90120030Y10707068D01*
X90072808Y10862736D01*
X90056865Y11024620D01*
X90072808Y11186504D01*
X90120030Y11342172D01*
X90196711Y11485630D01*
X90299906Y11611374D01*
X90425650Y11714569D01*
X90569108Y11791250D01*
X90583356Y11795572D01*
X90610196Y11803714D01*
X90724776Y11838472D01*
X90846093Y11850420D01*
X92797227Y11850420D01*
X92918544Y11838472D01*
G37*
G36*
X88958544Y11838472D02*
G01*
X89073124Y11803714D01*
X89099965Y11795572D01*
X89114212Y11791250D01*
X89257670Y11714569D01*
X89383414Y11611374D01*
X89486609Y11485630D01*
X89563290Y11342172D01*
X89610512Y11186504D01*
X89626455Y11024620D01*
X89610512Y10862736D01*
X89563290Y10707068D01*
X89486609Y10563610D01*
X89383414Y10437866D01*
X89257670Y10334671D01*
X89114212Y10257990D01*
X88958544Y10210768D01*
X88837227Y10198820D01*
X86886093Y10198820D01*
X86764776Y10210768D01*
X86609108Y10257990D01*
X86465650Y10334671D01*
X86339906Y10437866D01*
X86236711Y10563610D01*
X86160030Y10707068D01*
X86112808Y10862736D01*
X86096865Y11024620D01*
X86112808Y11186504D01*
X86160030Y11342172D01*
X86236711Y11485630D01*
X86339906Y11611374D01*
X86465650Y11714569D01*
X86609108Y11791250D01*
X86623356Y11795572D01*
X86650196Y11803714D01*
X86764776Y11838472D01*
X86886093Y11850420D01*
X88837227Y11850420D01*
X88958544Y11838472D01*
G37*
G36*
X84998544Y11838472D02*
G01*
X85113124Y11803714D01*
X85139965Y11795572D01*
X85154212Y11791250D01*
X85297670Y11714569D01*
X85423414Y11611374D01*
X85526609Y11485630D01*
X85603290Y11342172D01*
X85650512Y11186504D01*
X85666455Y11024620D01*
X85650512Y10862736D01*
X85603290Y10707068D01*
X85526609Y10563610D01*
X85423414Y10437866D01*
X85297670Y10334671D01*
X85154212Y10257990D01*
X84998544Y10210768D01*
X84877227Y10198820D01*
X82926093Y10198820D01*
X82804776Y10210768D01*
X82649108Y10257990D01*
X82505650Y10334671D01*
X82379906Y10437866D01*
X82276711Y10563610D01*
X82200030Y10707068D01*
X82152808Y10862736D01*
X82136865Y11024620D01*
X82152808Y11186504D01*
X82200030Y11342172D01*
X82276711Y11485630D01*
X82379906Y11611374D01*
X82505650Y11714569D01*
X82649108Y11791250D01*
X82663356Y11795572D01*
X82690196Y11803714D01*
X82804776Y11838472D01*
X82926093Y11850420D01*
X84877227Y11850420D01*
X84998544Y11838472D01*
G37*
G36*
X81038544Y11838472D02*
G01*
X81153124Y11803714D01*
X81179965Y11795572D01*
X81194212Y11791250D01*
X81337670Y11714569D01*
X81463414Y11611374D01*
X81566609Y11485630D01*
X81643290Y11342172D01*
X81690512Y11186504D01*
X81706455Y11024620D01*
X81690512Y10862736D01*
X81643290Y10707068D01*
X81566609Y10563610D01*
X81463414Y10437866D01*
X81337670Y10334671D01*
X81194212Y10257990D01*
X81038544Y10210768D01*
X80917227Y10198820D01*
X78966093Y10198820D01*
X78844776Y10210768D01*
X78689108Y10257990D01*
X78545650Y10334671D01*
X78419906Y10437866D01*
X78316711Y10563610D01*
X78240030Y10707068D01*
X78192808Y10862736D01*
X78176865Y11024620D01*
X78192808Y11186504D01*
X78240030Y11342172D01*
X78316711Y11485630D01*
X78419906Y11611374D01*
X78545650Y11714569D01*
X78689108Y11791250D01*
X78703356Y11795572D01*
X78730196Y11803714D01*
X78844776Y11838472D01*
X78966093Y11850420D01*
X80917227Y11850420D01*
X81038544Y11838472D01*
G37*
G36*
X77078544Y11838472D02*
G01*
X77193124Y11803714D01*
X77219965Y11795572D01*
X77234212Y11791250D01*
X77377670Y11714569D01*
X77503414Y11611374D01*
X77606609Y11485630D01*
X77683290Y11342172D01*
X77730512Y11186504D01*
X77746455Y11024620D01*
X77730512Y10862736D01*
X77683290Y10707068D01*
X77606609Y10563610D01*
X77503414Y10437866D01*
X77377670Y10334671D01*
X77234212Y10257990D01*
X77078544Y10210768D01*
X76957227Y10198820D01*
X75006093Y10198820D01*
X74884776Y10210768D01*
X74729108Y10257990D01*
X74585650Y10334671D01*
X74459906Y10437866D01*
X74356711Y10563610D01*
X74280030Y10707068D01*
X74232808Y10862736D01*
X74216865Y11024620D01*
X74232808Y11186504D01*
X74280030Y11342172D01*
X74356711Y11485630D01*
X74459906Y11611374D01*
X74585650Y11714569D01*
X74729108Y11791250D01*
X74743356Y11795572D01*
X74770196Y11803714D01*
X74884776Y11838472D01*
X75006093Y11850420D01*
X76957227Y11850420D01*
X77078544Y11838472D01*
G37*
G36*
X73118544Y11838472D02*
G01*
X73233124Y11803714D01*
X73259965Y11795572D01*
X73274212Y11791250D01*
X73417670Y11714569D01*
X73543414Y11611374D01*
X73646609Y11485630D01*
X73723290Y11342172D01*
X73770512Y11186504D01*
X73786455Y11024620D01*
X73770512Y10862736D01*
X73723290Y10707068D01*
X73646609Y10563610D01*
X73543414Y10437866D01*
X73417670Y10334671D01*
X73274212Y10257990D01*
X73118544Y10210768D01*
X72997227Y10198820D01*
X71046093Y10198820D01*
X70924776Y10210768D01*
X70769108Y10257990D01*
X70625650Y10334671D01*
X70499906Y10437866D01*
X70396711Y10563610D01*
X70320030Y10707068D01*
X70272808Y10862736D01*
X70256865Y11024620D01*
X70272808Y11186504D01*
X70320030Y11342172D01*
X70396711Y11485630D01*
X70499906Y11611374D01*
X70625650Y11714569D01*
X70769108Y11791250D01*
X70783356Y11795572D01*
X70810196Y11803714D01*
X70924776Y11838472D01*
X71046093Y11850420D01*
X72997227Y11850420D01*
X73118544Y11838472D01*
G37*
G36*
X65198544Y11838472D02*
G01*
X65313124Y11803714D01*
X65339965Y11795572D01*
X65354212Y11791250D01*
X65497670Y11714569D01*
X65623414Y11611374D01*
X65726609Y11485630D01*
X65803290Y11342172D01*
X65850512Y11186504D01*
X65866455Y11024620D01*
X65850512Y10862736D01*
X65803290Y10707068D01*
X65726609Y10563610D01*
X65623414Y10437866D01*
X65497670Y10334671D01*
X65354212Y10257990D01*
X65198544Y10210768D01*
X65077227Y10198820D01*
X63126093Y10198820D01*
X63004776Y10210768D01*
X62849108Y10257990D01*
X62705650Y10334671D01*
X62579906Y10437866D01*
X62476711Y10563610D01*
X62400030Y10707068D01*
X62352808Y10862736D01*
X62336865Y11024620D01*
X62352808Y11186504D01*
X62400030Y11342172D01*
X62476711Y11485630D01*
X62579906Y11611374D01*
X62705650Y11714569D01*
X62849108Y11791250D01*
X62863356Y11795572D01*
X62890196Y11803714D01*
X63004776Y11838472D01*
X63126093Y11850420D01*
X65077227Y11850420D01*
X65198544Y11838472D01*
G37*
G36*
X69158544Y11838472D02*
G01*
X69273124Y11803714D01*
X69299965Y11795572D01*
X69314212Y11791250D01*
X69457670Y11714569D01*
X69583414Y11611374D01*
X69686609Y11485630D01*
X69763290Y11342172D01*
X69810512Y11186504D01*
X69826455Y11024620D01*
X69810512Y10862736D01*
X69763290Y10707068D01*
X69686609Y10563610D01*
X69583414Y10437866D01*
X69457670Y10334671D01*
X69314212Y10257990D01*
X69158544Y10210768D01*
X69037227Y10198820D01*
X67086093Y10198820D01*
X66964776Y10210768D01*
X66809108Y10257990D01*
X66665650Y10334671D01*
X66539906Y10437866D01*
X66436711Y10563610D01*
X66360030Y10707068D01*
X66312808Y10862736D01*
X66296865Y11024620D01*
X66312808Y11186504D01*
X66360030Y11342172D01*
X66436711Y11485630D01*
X66539906Y11611374D01*
X66665650Y11714569D01*
X66809108Y11791250D01*
X66823356Y11795572D01*
X66850196Y11803714D01*
X66964776Y11838472D01*
X67086093Y11850420D01*
X69037227Y11850420D01*
X69158544Y11838472D01*
G37*
G36*
X45398544Y11838472D02*
G01*
X45513124Y11803714D01*
X45539965Y11795572D01*
X45554212Y11791250D01*
X45697670Y11714569D01*
X45823414Y11611374D01*
X45926609Y11485630D01*
X46003290Y11342172D01*
X46050512Y11186504D01*
X46066455Y11024620D01*
X46050512Y10862736D01*
X46003290Y10707068D01*
X45926609Y10563610D01*
X45823414Y10437866D01*
X45697670Y10334671D01*
X45554212Y10257990D01*
X45398544Y10210768D01*
X45277227Y10198820D01*
X43326093Y10198820D01*
X43204776Y10210768D01*
X43049108Y10257990D01*
X42905650Y10334671D01*
X42779906Y10437866D01*
X42676711Y10563610D01*
X42600030Y10707068D01*
X42552808Y10862736D01*
X42536865Y11024620D01*
X42552808Y11186504D01*
X42600030Y11342172D01*
X42676711Y11485630D01*
X42779906Y11611374D01*
X42905650Y11714569D01*
X43049108Y11791250D01*
X43063356Y11795572D01*
X43090196Y11803714D01*
X43204776Y11838472D01*
X43326093Y11850420D01*
X45277227Y11850420D01*
X45398544Y11838472D01*
G37*
G36*
X53318544Y11838472D02*
G01*
X53433124Y11803714D01*
X53459965Y11795572D01*
X53474212Y11791250D01*
X53617670Y11714569D01*
X53743414Y11611374D01*
X53846609Y11485630D01*
X53923290Y11342172D01*
X53970512Y11186504D01*
X53986455Y11024620D01*
X53970512Y10862736D01*
X53923290Y10707068D01*
X53846609Y10563610D01*
X53743414Y10437866D01*
X53617670Y10334671D01*
X53474212Y10257990D01*
X53318544Y10210768D01*
X53197227Y10198820D01*
X51246093Y10198820D01*
X51124776Y10210768D01*
X50969108Y10257990D01*
X50825650Y10334671D01*
X50699906Y10437866D01*
X50596711Y10563610D01*
X50520030Y10707068D01*
X50472808Y10862736D01*
X50456865Y11024620D01*
X50472808Y11186504D01*
X50520030Y11342172D01*
X50596711Y11485630D01*
X50699906Y11611374D01*
X50825650Y11714569D01*
X50969108Y11791250D01*
X50983356Y11795572D01*
X51010196Y11803714D01*
X51124776Y11838472D01*
X51246093Y11850420D01*
X53197227Y11850420D01*
X53318544Y11838472D01*
G37*
G36*
X57278544Y11838472D02*
G01*
X57393124Y11803714D01*
X57419965Y11795572D01*
X57434212Y11791250D01*
X57577670Y11714569D01*
X57703414Y11611374D01*
X57806609Y11485630D01*
X57883290Y11342172D01*
X57930512Y11186504D01*
X57946455Y11024620D01*
X57930512Y10862736D01*
X57883290Y10707068D01*
X57806609Y10563610D01*
X57703414Y10437866D01*
X57577670Y10334671D01*
X57434212Y10257990D01*
X57278544Y10210768D01*
X57157227Y10198820D01*
X55206093Y10198820D01*
X55084776Y10210768D01*
X54929108Y10257990D01*
X54785650Y10334671D01*
X54659906Y10437866D01*
X54556711Y10563610D01*
X54480030Y10707068D01*
X54432808Y10862736D01*
X54416865Y11024620D01*
X54432808Y11186504D01*
X54480030Y11342172D01*
X54556711Y11485630D01*
X54659906Y11611374D01*
X54785650Y11714569D01*
X54929108Y11791250D01*
X54943356Y11795572D01*
X54970196Y11803714D01*
X55084776Y11838472D01*
X55206093Y11850420D01*
X57157227Y11850420D01*
X57278544Y11838472D01*
G37*
G36*
X96878544Y11838472D02*
G01*
X96993124Y11803714D01*
X97019965Y11795572D01*
X97034212Y11791250D01*
X97177670Y11714569D01*
X97303414Y11611374D01*
X97406609Y11485630D01*
X97483290Y11342172D01*
X97530512Y11186504D01*
X97546455Y11024620D01*
X97530512Y10862736D01*
X97483290Y10707068D01*
X97406609Y10563610D01*
X97303414Y10437866D01*
X97177670Y10334671D01*
X97034212Y10257990D01*
X96878544Y10210768D01*
X96757227Y10198820D01*
X94806093Y10198820D01*
X94684776Y10210768D01*
X94529108Y10257990D01*
X94385650Y10334671D01*
X94259906Y10437866D01*
X94156711Y10563610D01*
X94080030Y10707068D01*
X94032808Y10862736D01*
X94016865Y11024620D01*
X94032808Y11186504D01*
X94080030Y11342172D01*
X94156711Y11485630D01*
X94259906Y11611374D01*
X94385650Y11714569D01*
X94529108Y11791250D01*
X94543356Y11795572D01*
X94570196Y11803714D01*
X94684776Y11838472D01*
X94806093Y11850420D01*
X96757227Y11850420D01*
X96878544Y11838472D01*
G37*
G36*
X152318544Y11838472D02*
G01*
X152433124Y11803714D01*
X152459965Y11795572D01*
X152474212Y11791250D01*
X152617670Y11714569D01*
X152743414Y11611374D01*
X152846609Y11485630D01*
X152923290Y11342172D01*
X152970512Y11186504D01*
X152986455Y11024620D01*
X152970512Y10862736D01*
X152923290Y10707068D01*
X152846609Y10563610D01*
X152743414Y10437866D01*
X152617670Y10334671D01*
X152474212Y10257990D01*
X152318544Y10210768D01*
X152197227Y10198820D01*
X150246093Y10198820D01*
X150124776Y10210768D01*
X149969108Y10257990D01*
X149825650Y10334671D01*
X149699906Y10437866D01*
X149596711Y10563610D01*
X149520030Y10707068D01*
X149472808Y10862736D01*
X149456865Y11024620D01*
X149472808Y11186504D01*
X149520030Y11342172D01*
X149596711Y11485630D01*
X149699906Y11611374D01*
X149825650Y11714569D01*
X149969108Y11791250D01*
X149983356Y11795572D01*
X150010196Y11803714D01*
X150124776Y11838472D01*
X150246093Y11850420D01*
X152197227Y11850420D01*
X152318544Y11838472D01*
G37*
G36*
X108758544Y11838472D02*
G01*
X108873124Y11803714D01*
X108899965Y11795572D01*
X108914212Y11791250D01*
X109057670Y11714569D01*
X109183414Y11611374D01*
X109286609Y11485630D01*
X109363290Y11342172D01*
X109410512Y11186504D01*
X109426455Y11024620D01*
X109410512Y10862736D01*
X109363290Y10707068D01*
X109286609Y10563610D01*
X109183414Y10437866D01*
X109057670Y10334671D01*
X108914212Y10257990D01*
X108758544Y10210768D01*
X108637227Y10198820D01*
X106686093Y10198820D01*
X106564776Y10210768D01*
X106409108Y10257990D01*
X106265650Y10334671D01*
X106139906Y10437866D01*
X106036711Y10563610D01*
X105960030Y10707068D01*
X105912808Y10862736D01*
X105896865Y11024620D01*
X105912808Y11186504D01*
X105960030Y11342172D01*
X106036711Y11485630D01*
X106139906Y11611374D01*
X106265650Y11714569D01*
X106409108Y11791250D01*
X106423356Y11795572D01*
X106450196Y11803714D01*
X106564776Y11838472D01*
X106686093Y11850420D01*
X108637227Y11850420D01*
X108758544Y11838472D01*
G37*
G36*
X120638544Y11838472D02*
G01*
X120753124Y11803714D01*
X120779965Y11795572D01*
X120794212Y11791250D01*
X120937670Y11714569D01*
X121063414Y11611374D01*
X121166609Y11485630D01*
X121243290Y11342172D01*
X121290512Y11186504D01*
X121306455Y11024620D01*
X121290512Y10862736D01*
X121243290Y10707068D01*
X121166609Y10563610D01*
X121063414Y10437866D01*
X120937670Y10334671D01*
X120794212Y10257990D01*
X120638544Y10210768D01*
X120517227Y10198820D01*
X118566093Y10198820D01*
X118444776Y10210768D01*
X118289108Y10257990D01*
X118145650Y10334671D01*
X118019906Y10437866D01*
X117916711Y10563610D01*
X117840030Y10707068D01*
X117792808Y10862736D01*
X117776865Y11024620D01*
X117792808Y11186504D01*
X117840030Y11342172D01*
X117916711Y11485630D01*
X118019906Y11611374D01*
X118145650Y11714569D01*
X118289108Y11791250D01*
X118303356Y11795572D01*
X118330196Y11803714D01*
X118444776Y11838472D01*
X118566093Y11850420D01*
X120517227Y11850420D01*
X120638544Y11838472D01*
G37*
G36*
X41438544Y11838472D02*
G01*
X41553124Y11803714D01*
X41579965Y11795572D01*
X41594212Y11791250D01*
X41737670Y11714569D01*
X41863414Y11611374D01*
X41966609Y11485630D01*
X42043290Y11342172D01*
X42090512Y11186504D01*
X42106455Y11024620D01*
X42090512Y10862736D01*
X42043290Y10707068D01*
X41966609Y10563610D01*
X41863414Y10437866D01*
X41737670Y10334671D01*
X41594212Y10257990D01*
X41438544Y10210768D01*
X41317227Y10198820D01*
X39366093Y10198820D01*
X39244776Y10210768D01*
X39089108Y10257990D01*
X38945650Y10334671D01*
X38819906Y10437866D01*
X38716711Y10563610D01*
X38640030Y10707068D01*
X38592808Y10862736D01*
X38576865Y11024620D01*
X38592808Y11186504D01*
X38640030Y11342172D01*
X38716711Y11485630D01*
X38819906Y11611374D01*
X38945650Y11714569D01*
X39089108Y11791250D01*
X39103356Y11795572D01*
X39130196Y11803714D01*
X39244776Y11838472D01*
X39366093Y11850420D01*
X41317227Y11850420D01*
X41438544Y11838472D01*
G37*
G36*
X37478544Y11838472D02*
G01*
X37593124Y11803714D01*
X37619965Y11795572D01*
X37634212Y11791250D01*
X37777670Y11714569D01*
X37903414Y11611374D01*
X38006609Y11485630D01*
X38083290Y11342172D01*
X38130512Y11186504D01*
X38146455Y11024620D01*
X38130512Y10862736D01*
X38083290Y10707068D01*
X38006609Y10563610D01*
X37903414Y10437866D01*
X37777670Y10334671D01*
X37634212Y10257990D01*
X37478544Y10210768D01*
X37357227Y10198820D01*
X35406093Y10198820D01*
X35284776Y10210768D01*
X35129108Y10257990D01*
X34985650Y10334671D01*
X34859906Y10437866D01*
X34756711Y10563610D01*
X34680030Y10707068D01*
X34632808Y10862736D01*
X34616865Y11024620D01*
X34632808Y11186504D01*
X34680030Y11342172D01*
X34756711Y11485630D01*
X34859906Y11611374D01*
X34985650Y11714569D01*
X35129108Y11791250D01*
X35143356Y11795572D01*
X35170196Y11803714D01*
X35284776Y11838472D01*
X35406093Y11850420D01*
X37357227Y11850420D01*
X37478544Y11838472D01*
G37*
G36*
X148358544Y11838472D02*
G01*
X148473124Y11803714D01*
X148499965Y11795572D01*
X148514212Y11791250D01*
X148657670Y11714569D01*
X148783414Y11611374D01*
X148886609Y11485630D01*
X148963290Y11342172D01*
X149010512Y11186504D01*
X149026455Y11024620D01*
X149010512Y10862736D01*
X148963290Y10707068D01*
X148886609Y10563610D01*
X148783414Y10437866D01*
X148657670Y10334671D01*
X148514212Y10257990D01*
X148358544Y10210768D01*
X148237227Y10198820D01*
X146286093Y10198820D01*
X146164776Y10210768D01*
X146009108Y10257990D01*
X145865650Y10334671D01*
X145739906Y10437866D01*
X145636711Y10563610D01*
X145560030Y10707068D01*
X145512808Y10862736D01*
X145496865Y11024620D01*
X145512808Y11186504D01*
X145560030Y11342172D01*
X145636711Y11485630D01*
X145739906Y11611374D01*
X145865650Y11714569D01*
X146009108Y11791250D01*
X146023356Y11795572D01*
X146050196Y11803714D01*
X146164776Y11838472D01*
X146286093Y11850420D01*
X148237227Y11850420D01*
X148358544Y11838472D01*
G37*
G36*
X144398544Y11838472D02*
G01*
X144513124Y11803714D01*
X144539965Y11795572D01*
X144554212Y11791250D01*
X144697670Y11714569D01*
X144823414Y11611374D01*
X144926609Y11485630D01*
X145003290Y11342172D01*
X145050512Y11186504D01*
X145066455Y11024620D01*
X145050512Y10862736D01*
X145003290Y10707068D01*
X144926609Y10563610D01*
X144823414Y10437866D01*
X144697670Y10334671D01*
X144554212Y10257990D01*
X144398544Y10210768D01*
X144277227Y10198820D01*
X142326093Y10198820D01*
X142204776Y10210768D01*
X142049108Y10257990D01*
X141905650Y10334671D01*
X141779906Y10437866D01*
X141676711Y10563610D01*
X141600030Y10707068D01*
X141552808Y10862736D01*
X141536865Y11024620D01*
X141552808Y11186504D01*
X141600030Y11342172D01*
X141676711Y11485630D01*
X141779906Y11611374D01*
X141905650Y11714569D01*
X142049108Y11791250D01*
X142063356Y11795572D01*
X142090196Y11803714D01*
X142204776Y11838472D01*
X142326093Y11850420D01*
X144277227Y11850420D01*
X144398544Y11838472D01*
G37*
G36*
X140438544Y11838472D02*
G01*
X140553124Y11803714D01*
X140579965Y11795572D01*
X140594212Y11791250D01*
X140737670Y11714569D01*
X140863414Y11611374D01*
X140966609Y11485630D01*
X141043290Y11342172D01*
X141090512Y11186504D01*
X141106455Y11024620D01*
X141090512Y10862736D01*
X141043290Y10707068D01*
X140966609Y10563610D01*
X140863414Y10437866D01*
X140737670Y10334671D01*
X140594212Y10257990D01*
X140438544Y10210768D01*
X140317227Y10198820D01*
X138366093Y10198820D01*
X138244776Y10210768D01*
X138089108Y10257990D01*
X137945650Y10334671D01*
X137819906Y10437866D01*
X137716711Y10563610D01*
X137640030Y10707068D01*
X137592808Y10862736D01*
X137576865Y11024620D01*
X137592808Y11186504D01*
X137640030Y11342172D01*
X137716711Y11485630D01*
X137819906Y11611374D01*
X137945650Y11714569D01*
X138089108Y11791250D01*
X138103356Y11795572D01*
X138130196Y11803714D01*
X138244776Y11838472D01*
X138366093Y11850420D01*
X140317227Y11850420D01*
X140438544Y11838472D01*
G37*
G36*
X136478544Y11838472D02*
G01*
X136593124Y11803714D01*
X136619965Y11795572D01*
X136634212Y11791250D01*
X136777670Y11714569D01*
X136903414Y11611374D01*
X137006609Y11485630D01*
X137083290Y11342172D01*
X137130512Y11186504D01*
X137146455Y11024620D01*
X137130512Y10862736D01*
X137083290Y10707068D01*
X137006609Y10563610D01*
X136903414Y10437866D01*
X136777670Y10334671D01*
X136634212Y10257990D01*
X136478544Y10210768D01*
X136357227Y10198820D01*
X134406093Y10198820D01*
X134284776Y10210768D01*
X134129108Y10257990D01*
X133985650Y10334671D01*
X133859906Y10437866D01*
X133756711Y10563610D01*
X133680030Y10707068D01*
X133632808Y10862736D01*
X133616865Y11024620D01*
X133632808Y11186504D01*
X133680030Y11342172D01*
X133756711Y11485630D01*
X133859906Y11611374D01*
X133985650Y11714569D01*
X134129108Y11791250D01*
X134143356Y11795572D01*
X134170196Y11803714D01*
X134284776Y11838472D01*
X134406093Y11850420D01*
X136357227Y11850420D01*
X136478544Y11838472D01*
G37*
G36*
X132518544Y11838472D02*
G01*
X132633124Y11803714D01*
X132659965Y11795572D01*
X132674212Y11791250D01*
X132817670Y11714569D01*
X132943414Y11611374D01*
X133046609Y11485630D01*
X133123290Y11342172D01*
X133170512Y11186504D01*
X133186455Y11024620D01*
X133170512Y10862736D01*
X133123290Y10707068D01*
X133046609Y10563610D01*
X132943414Y10437866D01*
X132817670Y10334671D01*
X132674212Y10257990D01*
X132518544Y10210768D01*
X132397227Y10198820D01*
X130446093Y10198820D01*
X130324776Y10210768D01*
X130169108Y10257990D01*
X130025650Y10334671D01*
X129899906Y10437866D01*
X129796711Y10563610D01*
X129720030Y10707068D01*
X129672808Y10862736D01*
X129656865Y11024620D01*
X129672808Y11186504D01*
X129720030Y11342172D01*
X129796711Y11485630D01*
X129899906Y11611374D01*
X130025650Y11714569D01*
X130169108Y11791250D01*
X130183356Y11795572D01*
X130210196Y11803714D01*
X130324776Y11838472D01*
X130446093Y11850420D01*
X132397227Y11850420D01*
X132518544Y11838472D01*
G37*
G36*
X128558544Y11838472D02*
G01*
X128673124Y11803714D01*
X128699965Y11795572D01*
X128714212Y11791250D01*
X128857670Y11714569D01*
X128983414Y11611374D01*
X129086609Y11485630D01*
X129163290Y11342172D01*
X129210512Y11186504D01*
X129226455Y11024620D01*
X129210512Y10862736D01*
X129163290Y10707068D01*
X129086609Y10563610D01*
X128983414Y10437866D01*
X128857670Y10334671D01*
X128714212Y10257990D01*
X128558544Y10210768D01*
X128437227Y10198820D01*
X126486093Y10198820D01*
X126364776Y10210768D01*
X126209108Y10257990D01*
X126065650Y10334671D01*
X125939906Y10437866D01*
X125836711Y10563610D01*
X125760030Y10707068D01*
X125712808Y10862736D01*
X125696865Y11024620D01*
X125712808Y11186504D01*
X125760030Y11342172D01*
X125836711Y11485630D01*
X125939906Y11611374D01*
X126065650Y11714569D01*
X126209108Y11791250D01*
X126223356Y11795572D01*
X126250196Y11803714D01*
X126364776Y11838472D01*
X126486093Y11850420D01*
X128437227Y11850420D01*
X128558544Y11838472D01*
G37*
G36*
X124598544Y11838472D02*
G01*
X124713124Y11803714D01*
X124739965Y11795572D01*
X124754212Y11791250D01*
X124897670Y11714569D01*
X125023414Y11611374D01*
X125126609Y11485630D01*
X125203290Y11342172D01*
X125250512Y11186504D01*
X125266455Y11024620D01*
X125250512Y10862736D01*
X125203290Y10707068D01*
X125126609Y10563610D01*
X125023414Y10437866D01*
X124897670Y10334671D01*
X124754212Y10257990D01*
X124598544Y10210768D01*
X124477227Y10198820D01*
X122526093Y10198820D01*
X122404776Y10210768D01*
X122249108Y10257990D01*
X122105650Y10334671D01*
X121979906Y10437866D01*
X121876711Y10563610D01*
X121800030Y10707068D01*
X121752808Y10862736D01*
X121736865Y11024620D01*
X121752808Y11186504D01*
X121800030Y11342172D01*
X121876711Y11485630D01*
X121979906Y11611374D01*
X122105650Y11714569D01*
X122249108Y11791250D01*
X122263356Y11795572D01*
X122290196Y11803714D01*
X122404776Y11838472D01*
X122526093Y11850420D01*
X124477227Y11850420D01*
X124598544Y11838472D01*
G37*
G36*
X49358544Y11838472D02*
G01*
X49473124Y11803714D01*
X49499965Y11795572D01*
X49514212Y11791250D01*
X49657670Y11714569D01*
X49783414Y11611374D01*
X49886609Y11485630D01*
X49963290Y11342172D01*
X50010512Y11186504D01*
X50026455Y11024620D01*
X50010512Y10862736D01*
X49963290Y10707068D01*
X49886609Y10563610D01*
X49783414Y10437866D01*
X49657670Y10334671D01*
X49514212Y10257990D01*
X49358544Y10210768D01*
X49237227Y10198820D01*
X47286093Y10198820D01*
X47164776Y10210768D01*
X47009108Y10257990D01*
X46865650Y10334671D01*
X46739906Y10437866D01*
X46636711Y10563610D01*
X46560030Y10707068D01*
X46512808Y10862736D01*
X46496865Y11024620D01*
X46512808Y11186504D01*
X46560030Y11342172D01*
X46636711Y11485630D01*
X46739906Y11611374D01*
X46865650Y11714569D01*
X47009108Y11791250D01*
X47023356Y11795572D01*
X47050196Y11803714D01*
X47164776Y11838472D01*
X47286093Y11850420D01*
X49237227Y11850420D01*
X49358544Y11838472D01*
G37*
G36*
X116678544Y11838472D02*
G01*
X116793124Y11803714D01*
X116819965Y11795572D01*
X116834212Y11791250D01*
X116977670Y11714569D01*
X117103414Y11611374D01*
X117206609Y11485630D01*
X117283290Y11342172D01*
X117330512Y11186504D01*
X117346455Y11024620D01*
X117330512Y10862736D01*
X117283290Y10707068D01*
X117206609Y10563610D01*
X117103414Y10437866D01*
X116977670Y10334671D01*
X116834212Y10257990D01*
X116678544Y10210768D01*
X116557227Y10198820D01*
X114606093Y10198820D01*
X114484776Y10210768D01*
X114329108Y10257990D01*
X114185650Y10334671D01*
X114059906Y10437866D01*
X113956711Y10563610D01*
X113880030Y10707068D01*
X113832808Y10862736D01*
X113816865Y11024620D01*
X113832808Y11186504D01*
X113880030Y11342172D01*
X113956711Y11485630D01*
X114059906Y11611374D01*
X114185650Y11714569D01*
X114329108Y11791250D01*
X114343356Y11795572D01*
X114370196Y11803714D01*
X114484776Y11838472D01*
X114606093Y11850420D01*
X116557227Y11850420D01*
X116678544Y11838472D01*
G37*
G36*
X112718544Y11838472D02*
G01*
X112833124Y11803714D01*
X112859965Y11795572D01*
X112874212Y11791250D01*
X113017670Y11714569D01*
X113143414Y11611374D01*
X113246609Y11485630D01*
X113323290Y11342172D01*
X113370512Y11186504D01*
X113386455Y11024620D01*
X113370512Y10862736D01*
X113323290Y10707068D01*
X113246609Y10563610D01*
X113143414Y10437866D01*
X113017670Y10334671D01*
X112874212Y10257990D01*
X112718544Y10210768D01*
X112597227Y10198820D01*
X110646093Y10198820D01*
X110524776Y10210768D01*
X110369108Y10257990D01*
X110225650Y10334671D01*
X110099906Y10437866D01*
X109996711Y10563610D01*
X109920030Y10707068D01*
X109872808Y10862736D01*
X109856865Y11024620D01*
X109872808Y11186504D01*
X109920030Y11342172D01*
X109996711Y11485630D01*
X110099906Y11611374D01*
X110225650Y11714569D01*
X110369108Y11791250D01*
X110383356Y11795572D01*
X110410196Y11803714D01*
X110524776Y11838472D01*
X110646093Y11850420D01*
X112597227Y11850420D01*
X112718544Y11838472D01*
G37*
G36*
X154954726Y11795880D02*
G01*
X155000362Y11782036D01*
X155042427Y11759552D01*
X155079295Y11729295D01*
X155109552Y11692427D01*
X155132036Y11650362D01*
X155145880Y11604726D01*
X155150800Y11554774D01*
X155150800Y10795226D01*
X155145880Y10745274D01*
X155132036Y10699638D01*
X155109552Y10657573D01*
X155079295Y10620705D01*
X155042427Y10590448D01*
X155000362Y10567964D01*
X154954726Y10554120D01*
X154904774Y10549200D01*
X153895226Y10549200D01*
X153845274Y10554120D01*
X153799638Y10567964D01*
X153757573Y10590448D01*
X153720705Y10620705D01*
X153690448Y10657573D01*
X153667964Y10699638D01*
X153654120Y10745274D01*
X153649200Y10795226D01*
X153649200Y11554774D01*
X153654120Y11604726D01*
X153667964Y11650362D01*
X153690448Y11692427D01*
X153720705Y11729295D01*
X153757573Y11759552D01*
X153799638Y11782036D01*
X153845274Y11795880D01*
X153895226Y11800800D01*
X154904774Y11800800D01*
X154954726Y11795880D01*
G37*
G36*
X159654726Y11795880D02*
G01*
X159700362Y11782036D01*
X159742427Y11759552D01*
X159779295Y11729295D01*
X159809552Y11692427D01*
X159832036Y11650362D01*
X159845880Y11604726D01*
X159850800Y11554774D01*
X159850800Y10795226D01*
X159845880Y10745274D01*
X159832036Y10699638D01*
X159809552Y10657573D01*
X159779295Y10620705D01*
X159742427Y10590448D01*
X159700362Y10567964D01*
X159654726Y10554120D01*
X159604774Y10549200D01*
X158595226Y10549200D01*
X158545274Y10554120D01*
X158499638Y10567964D01*
X158457573Y10590448D01*
X158420705Y10620705D01*
X158390448Y10657573D01*
X158367964Y10699638D01*
X158354120Y10745274D01*
X158349200Y10795226D01*
X158349200Y11554774D01*
X158354120Y11604726D01*
X158367964Y11650362D01*
X158390448Y11692427D01*
X158420705Y11729295D01*
X158457573Y11759552D01*
X158499638Y11782036D01*
X158545274Y11795880D01*
X158595226Y11800800D01*
X159604774Y11800800D01*
X159654726Y11795880D01*
G37*
G36*
X157304726Y11795880D02*
G01*
X157350362Y11782036D01*
X157392427Y11759552D01*
X157429295Y11729295D01*
X157459552Y11692427D01*
X157482036Y11650362D01*
X157495880Y11604726D01*
X157500800Y11554774D01*
X157500800Y10795226D01*
X157495880Y10745274D01*
X157482036Y10699638D01*
X157459552Y10657573D01*
X157429295Y10620705D01*
X157392427Y10590448D01*
X157350362Y10567964D01*
X157304726Y10554120D01*
X157254774Y10549200D01*
X156245226Y10549200D01*
X156195274Y10554120D01*
X156149638Y10567964D01*
X156107573Y10590448D01*
X156070705Y10620705D01*
X156040448Y10657573D01*
X156017964Y10699638D01*
X156004120Y10745274D01*
X155999200Y10795226D01*
X155999200Y11554774D01*
X156004120Y11604726D01*
X156017964Y11650362D01*
X156040448Y11692427D01*
X156070705Y11729295D01*
X156107573Y11759552D01*
X156149638Y11782036D01*
X156195274Y11795880D01*
X156245226Y11800800D01*
X157254774Y11800800D01*
X157304726Y11795880D01*
G37*
G36*
X162004726Y11795880D02*
G01*
X162050362Y11782036D01*
X162092427Y11759552D01*
X162129295Y11729295D01*
X162159552Y11692427D01*
X162182036Y11650362D01*
X162195880Y11604726D01*
X162200800Y11554774D01*
X162200800Y10795226D01*
X162195880Y10745274D01*
X162182036Y10699638D01*
X162159552Y10657573D01*
X162129295Y10620705D01*
X162092427Y10590448D01*
X162050362Y10567964D01*
X162004726Y10554120D01*
X161954774Y10549200D01*
X160945226Y10549200D01*
X160895274Y10554120D01*
X160849638Y10567964D01*
X160807573Y10590448D01*
X160770705Y10620705D01*
X160740448Y10657573D01*
X160717964Y10699638D01*
X160704120Y10745274D01*
X160699200Y10795226D01*
X160699200Y11554774D01*
X160704120Y11604726D01*
X160717964Y11650362D01*
X160740448Y11692427D01*
X160770705Y11729295D01*
X160807573Y11759552D01*
X160849638Y11782036D01*
X160895274Y11795880D01*
X160945226Y11800800D01*
X161954774Y11800800D01*
X162004726Y11795880D01*
G37*
G36*
X30854726Y12070880D02*
G01*
X30900362Y12057036D01*
X30942427Y12034552D01*
X30979295Y12004295D01*
X31009552Y11967427D01*
X31032036Y11925362D01*
X31045880Y11879726D01*
X31050800Y11829774D01*
X31050800Y10820226D01*
X31045880Y10770274D01*
X31032036Y10724638D01*
X31009552Y10682573D01*
X30979295Y10645705D01*
X30942427Y10615448D01*
X30900362Y10592964D01*
X30854726Y10579120D01*
X30804774Y10574200D01*
X30045226Y10574200D01*
X29995274Y10579120D01*
X29949638Y10592964D01*
X29907573Y10615448D01*
X29870705Y10645705D01*
X29840448Y10682573D01*
X29817964Y10724638D01*
X29804120Y10770274D01*
X29799200Y10820226D01*
X29799200Y11829774D01*
X29804120Y11879726D01*
X29817964Y11925362D01*
X29840448Y11967427D01*
X29870705Y12004295D01*
X29907573Y12034552D01*
X29949638Y12057036D01*
X29995274Y12070880D01*
X30045226Y12075800D01*
X30804774Y12075800D01*
X30854726Y12070880D01*
G37*
G36*
X28804726Y12070880D02*
G01*
X28850362Y12057036D01*
X28892427Y12034552D01*
X28929295Y12004295D01*
X28959552Y11967427D01*
X28982036Y11925362D01*
X28995880Y11879726D01*
X29000800Y11829774D01*
X29000800Y10820226D01*
X28995880Y10770274D01*
X28982036Y10724638D01*
X28959552Y10682573D01*
X28929295Y10645705D01*
X28892427Y10615448D01*
X28850362Y10592964D01*
X28804726Y10579120D01*
X28754774Y10574200D01*
X27995226Y10574200D01*
X27945274Y10579120D01*
X27899638Y10592964D01*
X27857573Y10615448D01*
X27820705Y10645705D01*
X27790448Y10682573D01*
X27767964Y10724638D01*
X27754120Y10770274D01*
X27749200Y10820226D01*
X27749200Y11829774D01*
X27754120Y11879726D01*
X27767964Y11925362D01*
X27790448Y11967427D01*
X27820705Y12004295D01*
X27857573Y12034552D01*
X27899638Y12057036D01*
X27945274Y12070880D01*
X27995226Y12075800D01*
X28754774Y12075800D01*
X28804726Y12070880D01*
G37*
G36*
X30854726Y14070880D02*
G01*
X30900362Y14057036D01*
X30942427Y14034552D01*
X30979295Y14004295D01*
X31009552Y13967427D01*
X31032036Y13925362D01*
X31045880Y13879726D01*
X31050800Y13829774D01*
X31050800Y12820226D01*
X31045880Y12770274D01*
X31032036Y12724638D01*
X31009552Y12682573D01*
X30979295Y12645705D01*
X30942427Y12615448D01*
X30900362Y12592964D01*
X30854726Y12579120D01*
X30804774Y12574200D01*
X30045226Y12574200D01*
X29995274Y12579120D01*
X29949638Y12592964D01*
X29907573Y12615448D01*
X29870705Y12645705D01*
X29840448Y12682573D01*
X29817964Y12724638D01*
X29804120Y12770274D01*
X29799200Y12820226D01*
X29799200Y13829774D01*
X29804120Y13879726D01*
X29817964Y13925362D01*
X29840448Y13967427D01*
X29870705Y14004295D01*
X29907573Y14034552D01*
X29949638Y14057036D01*
X29995274Y14070880D01*
X30045226Y14075800D01*
X30804774Y14075800D01*
X30854726Y14070880D01*
G37*
G36*
X28804726Y14070880D02*
G01*
X28850362Y14057036D01*
X28892427Y14034552D01*
X28929295Y14004295D01*
X28959552Y13967427D01*
X28982036Y13925362D01*
X28995880Y13879726D01*
X29000800Y13829774D01*
X29000800Y12820226D01*
X28995880Y12770274D01*
X28982036Y12724638D01*
X28959552Y12682573D01*
X28929295Y12645705D01*
X28892427Y12615448D01*
X28850362Y12592964D01*
X28804726Y12579120D01*
X28754774Y12574200D01*
X27995226Y12574200D01*
X27945274Y12579120D01*
X27899638Y12592964D01*
X27857573Y12615448D01*
X27820705Y12645705D01*
X27790448Y12682573D01*
X27767964Y12724638D01*
X27754120Y12770274D01*
X27749200Y12820226D01*
X27749200Y13829774D01*
X27754120Y13879726D01*
X27767964Y13925362D01*
X27790448Y13967427D01*
X27820705Y14004295D01*
X27857573Y14034552D01*
X27899638Y14057036D01*
X27945274Y14070880D01*
X27995226Y14075800D01*
X28754774Y14075800D01*
X28804726Y14070880D01*
G37*
G36*
X38801634Y15223283D02*
G01*
X38965569Y15155379D01*
X39113107Y15056797D01*
X39238577Y14931327D01*
X39337159Y14783789D01*
X39405063Y14619854D01*
X39439680Y14445821D01*
X39439680Y14268379D01*
X39405063Y14094346D01*
X39337159Y13930411D01*
X39238577Y13782873D01*
X39113107Y13657403D01*
X38965569Y13558821D01*
X38801634Y13490917D01*
X38627601Y13456300D01*
X38450159Y13456300D01*
X38276126Y13490917D01*
X38112191Y13558821D01*
X37964653Y13657403D01*
X37839183Y13782873D01*
X37740601Y13930411D01*
X37672697Y14094346D01*
X37638080Y14268379D01*
X37638080Y14445821D01*
X37672697Y14619854D01*
X37740601Y14783789D01*
X37839183Y14931327D01*
X37964653Y15056797D01*
X38112191Y15155379D01*
X38276126Y15223283D01*
X38450159Y15257900D01*
X38627601Y15257900D01*
X38801634Y15223283D01*
G37*
G36*
X36899680Y13456300D02*
G01*
X35098080Y13456300D01*
X35098080Y15257900D01*
X36899680Y15257900D01*
X36899680Y13456300D01*
G37*
G36*
X41341634Y15223283D02*
G01*
X41505569Y15155379D01*
X41653107Y15056797D01*
X41778577Y14931327D01*
X41877159Y14783789D01*
X41945063Y14619854D01*
X41979680Y14445821D01*
X41979680Y14268379D01*
X41945063Y14094346D01*
X41877159Y13930411D01*
X41778577Y13782873D01*
X41653107Y13657403D01*
X41505569Y13558821D01*
X41341634Y13490917D01*
X41167601Y13456300D01*
X40990159Y13456300D01*
X40816126Y13490917D01*
X40652191Y13558821D01*
X40504653Y13657403D01*
X40379183Y13782873D01*
X40280601Y13930411D01*
X40212697Y14094346D01*
X40178080Y14268379D01*
X40178080Y14445821D01*
X40212697Y14619854D01*
X40280601Y14783789D01*
X40379183Y14931327D01*
X40504653Y15056797D01*
X40652191Y15155379D01*
X40816126Y15223283D01*
X40990159Y15257900D01*
X41167601Y15257900D01*
X41341634Y15223283D01*
G37*
G36*
X41341634Y17763283D02*
G01*
X41505569Y17695379D01*
X41653107Y17596797D01*
X41778577Y17471327D01*
X41877159Y17323789D01*
X41945063Y17159854D01*
X41979680Y16985821D01*
X41979680Y16808379D01*
X41945063Y16634346D01*
X41877159Y16470411D01*
X41778577Y16322873D01*
X41653107Y16197403D01*
X41505569Y16098821D01*
X41341634Y16030917D01*
X41167601Y15996300D01*
X40990159Y15996300D01*
X40816126Y16030917D01*
X40652191Y16098821D01*
X40504653Y16197403D01*
X40379183Y16322873D01*
X40280601Y16470411D01*
X40212697Y16634346D01*
X40178080Y16808379D01*
X40178080Y16985821D01*
X40212697Y17159854D01*
X40280601Y17323789D01*
X40379183Y17471327D01*
X40504653Y17596797D01*
X40652191Y17695379D01*
X40816126Y17763283D01*
X40990159Y17797900D01*
X41167601Y17797900D01*
X41341634Y17763283D01*
G37*
G36*
X38801634Y17763283D02*
G01*
X38965569Y17695379D01*
X39113107Y17596797D01*
X39238577Y17471327D01*
X39337159Y17323789D01*
X39405063Y17159854D01*
X39439680Y16985821D01*
X39439680Y16808379D01*
X39405063Y16634346D01*
X39337159Y16470411D01*
X39238577Y16322873D01*
X39113107Y16197403D01*
X38965569Y16098821D01*
X38801634Y16030917D01*
X38627601Y15996300D01*
X38450159Y15996300D01*
X38276126Y16030917D01*
X38112191Y16098821D01*
X37964653Y16197403D01*
X37839183Y16322873D01*
X37740601Y16470411D01*
X37672697Y16634346D01*
X37638080Y16808379D01*
X37638080Y16985821D01*
X37672697Y17159854D01*
X37740601Y17323789D01*
X37839183Y17471327D01*
X37964653Y17596797D01*
X38112191Y17695379D01*
X38276126Y17763283D01*
X38450159Y17797900D01*
X38627601Y17797900D01*
X38801634Y17763283D01*
G37*
G36*
X36261634Y17763283D02*
G01*
X36425569Y17695379D01*
X36573107Y17596797D01*
X36698577Y17471327D01*
X36797159Y17323789D01*
X36865063Y17159854D01*
X36899680Y16985821D01*
X36899680Y16808379D01*
X36865063Y16634346D01*
X36797159Y16470411D01*
X36698577Y16322873D01*
X36573107Y16197403D01*
X36425569Y16098821D01*
X36261634Y16030917D01*
X36087601Y15996300D01*
X35910159Y15996300D01*
X35736126Y16030917D01*
X35572191Y16098821D01*
X35424653Y16197403D01*
X35299183Y16322873D01*
X35200601Y16470411D01*
X35132697Y16634346D01*
X35098080Y16808379D01*
X35098080Y16985821D01*
X35132697Y17159854D01*
X35200601Y17323789D01*
X35299183Y17471327D01*
X35424653Y17596797D01*
X35572191Y17695379D01*
X35736126Y17763283D01*
X35910159Y17797900D01*
X36087601Y17797900D01*
X36261634Y17763283D01*
G37*
G36*
X30535069Y17891485D02*
G01*
X30689905Y17827349D01*
X30829254Y17734240D01*
X30947760Y17615734D01*
X31040869Y17476385D01*
X31105005Y17321549D01*
X31137700Y17157177D01*
X31137700Y16989583D01*
X31105005Y16825211D01*
X31040869Y16670375D01*
X30947760Y16531026D01*
X30829254Y16412520D01*
X30689905Y16319411D01*
X30535069Y16255275D01*
X30370697Y16222580D01*
X30203103Y16222580D01*
X30038731Y16255275D01*
X29883895Y16319411D01*
X29744546Y16412520D01*
X29626040Y16531026D01*
X29532931Y16670375D01*
X29468795Y16825211D01*
X29436100Y16989583D01*
X29436100Y17157177D01*
X29468795Y17321549D01*
X29532931Y17476385D01*
X29626040Y17615734D01*
X29744546Y17734240D01*
X29883895Y17827349D01*
X30038731Y17891485D01*
X30203103Y17924180D01*
X30370697Y17924180D01*
X30535069Y17891485D01*
G37*
G36*
X2595069Y17891485D02*
G01*
X2749905Y17827349D01*
X2889254Y17734240D01*
X3007760Y17615734D01*
X3100869Y17476385D01*
X3165005Y17321549D01*
X3197700Y17157177D01*
X3197700Y16989583D01*
X3165005Y16825211D01*
X3100869Y16670375D01*
X3007760Y16531026D01*
X2889254Y16412520D01*
X2749905Y16319411D01*
X2595069Y16255275D01*
X2430697Y16222580D01*
X2263103Y16222580D01*
X2098731Y16255275D01*
X1943895Y16319411D01*
X1804546Y16412520D01*
X1686040Y16531026D01*
X1592931Y16670375D01*
X1528795Y16825211D01*
X1496100Y16989583D01*
X1496100Y17157177D01*
X1528795Y17321549D01*
X1592931Y17476385D01*
X1686040Y17615734D01*
X1804546Y17734240D01*
X1943895Y17827349D01*
X2098731Y17891485D01*
X2263103Y17924180D01*
X2430697Y17924180D01*
X2595069Y17891485D01*
G37*
G36*
X5135069Y17891485D02*
G01*
X5289905Y17827349D01*
X5429254Y17734240D01*
X5547760Y17615734D01*
X5640869Y17476385D01*
X5705005Y17321549D01*
X5737700Y17157177D01*
X5737700Y16989583D01*
X5705005Y16825211D01*
X5640869Y16670375D01*
X5547760Y16531026D01*
X5429254Y16412520D01*
X5289905Y16319411D01*
X5135069Y16255275D01*
X4970697Y16222580D01*
X4803103Y16222580D01*
X4638731Y16255275D01*
X4483895Y16319411D01*
X4344546Y16412520D01*
X4226040Y16531026D01*
X4132931Y16670375D01*
X4068795Y16825211D01*
X4036100Y16989583D01*
X4036100Y17157177D01*
X4068795Y17321549D01*
X4132931Y17476385D01*
X4226040Y17615734D01*
X4344546Y17734240D01*
X4483895Y17827349D01*
X4638731Y17891485D01*
X4803103Y17924180D01*
X4970697Y17924180D01*
X5135069Y17891485D01*
G37*
G36*
X7675069Y17891485D02*
G01*
X7829905Y17827349D01*
X7969254Y17734240D01*
X8087760Y17615734D01*
X8180869Y17476385D01*
X8245005Y17321549D01*
X8277700Y17157177D01*
X8277700Y16989583D01*
X8245005Y16825211D01*
X8180869Y16670375D01*
X8087760Y16531026D01*
X7969254Y16412520D01*
X7829905Y16319411D01*
X7675069Y16255275D01*
X7510697Y16222580D01*
X7343103Y16222580D01*
X7178731Y16255275D01*
X7023895Y16319411D01*
X6884546Y16412520D01*
X6766040Y16531026D01*
X6672931Y16670375D01*
X6608795Y16825211D01*
X6576100Y16989583D01*
X6576100Y17157177D01*
X6608795Y17321549D01*
X6672931Y17476385D01*
X6766040Y17615734D01*
X6884546Y17734240D01*
X7023895Y17827349D01*
X7178731Y17891485D01*
X7343103Y17924180D01*
X7510697Y17924180D01*
X7675069Y17891485D01*
G37*
G36*
X10215069Y17891485D02*
G01*
X10369905Y17827349D01*
X10509254Y17734240D01*
X10627760Y17615734D01*
X10720869Y17476385D01*
X10785005Y17321549D01*
X10817700Y17157177D01*
X10817700Y16989583D01*
X10785005Y16825211D01*
X10720869Y16670375D01*
X10627760Y16531026D01*
X10509254Y16412520D01*
X10369905Y16319411D01*
X10215069Y16255275D01*
X10050697Y16222580D01*
X9883103Y16222580D01*
X9718731Y16255275D01*
X9563895Y16319411D01*
X9424546Y16412520D01*
X9306040Y16531026D01*
X9212931Y16670375D01*
X9148795Y16825211D01*
X9116100Y16989583D01*
X9116100Y17157177D01*
X9148795Y17321549D01*
X9212931Y17476385D01*
X9306040Y17615734D01*
X9424546Y17734240D01*
X9563895Y17827349D01*
X9718731Y17891485D01*
X9883103Y17924180D01*
X10050697Y17924180D01*
X10215069Y17891485D01*
G37*
G36*
X12755069Y17891485D02*
G01*
X12909905Y17827349D01*
X13049254Y17734240D01*
X13167760Y17615734D01*
X13260869Y17476385D01*
X13325005Y17321549D01*
X13357700Y17157177D01*
X13357700Y16989583D01*
X13325005Y16825211D01*
X13260869Y16670375D01*
X13167760Y16531026D01*
X13049254Y16412520D01*
X12909905Y16319411D01*
X12755069Y16255275D01*
X12590697Y16222580D01*
X12423103Y16222580D01*
X12258731Y16255275D01*
X12103895Y16319411D01*
X11964546Y16412520D01*
X11846040Y16531026D01*
X11752931Y16670375D01*
X11688795Y16825211D01*
X11656100Y16989583D01*
X11656100Y17157177D01*
X11688795Y17321549D01*
X11752931Y17476385D01*
X11846040Y17615734D01*
X11964546Y17734240D01*
X12103895Y17827349D01*
X12258731Y17891485D01*
X12423103Y17924180D01*
X12590697Y17924180D01*
X12755069Y17891485D01*
G37*
G36*
X15295069Y17891485D02*
G01*
X15449905Y17827349D01*
X15589254Y17734240D01*
X15707760Y17615734D01*
X15800869Y17476385D01*
X15865005Y17321549D01*
X15897700Y17157177D01*
X15897700Y16989583D01*
X15865005Y16825211D01*
X15800869Y16670375D01*
X15707760Y16531026D01*
X15589254Y16412520D01*
X15449905Y16319411D01*
X15295069Y16255275D01*
X15130697Y16222580D01*
X14963103Y16222580D01*
X14798731Y16255275D01*
X14643895Y16319411D01*
X14504546Y16412520D01*
X14386040Y16531026D01*
X14292931Y16670375D01*
X14228795Y16825211D01*
X14196100Y16989583D01*
X14196100Y17157177D01*
X14228795Y17321549D01*
X14292931Y17476385D01*
X14386040Y17615734D01*
X14504546Y17734240D01*
X14643895Y17827349D01*
X14798731Y17891485D01*
X14963103Y17924180D01*
X15130697Y17924180D01*
X15295069Y17891485D01*
G37*
G36*
X17835069Y17891485D02*
G01*
X17989905Y17827349D01*
X18129254Y17734240D01*
X18247760Y17615734D01*
X18340869Y17476385D01*
X18405005Y17321549D01*
X18437700Y17157177D01*
X18437700Y16989583D01*
X18405005Y16825211D01*
X18340869Y16670375D01*
X18247760Y16531026D01*
X18129254Y16412520D01*
X17989905Y16319411D01*
X17835069Y16255275D01*
X17670697Y16222580D01*
X17503103Y16222580D01*
X17338731Y16255275D01*
X17183895Y16319411D01*
X17044546Y16412520D01*
X16926040Y16531026D01*
X16832931Y16670375D01*
X16768795Y16825211D01*
X16736100Y16989583D01*
X16736100Y17157177D01*
X16768795Y17321549D01*
X16832931Y17476385D01*
X16926040Y17615734D01*
X17044546Y17734240D01*
X17183895Y17827349D01*
X17338731Y17891485D01*
X17503103Y17924180D01*
X17670697Y17924180D01*
X17835069Y17891485D01*
G37*
G36*
X20375069Y17891485D02*
G01*
X20529905Y17827349D01*
X20669254Y17734240D01*
X20787760Y17615734D01*
X20880869Y17476385D01*
X20945005Y17321549D01*
X20977700Y17157177D01*
X20977700Y16989583D01*
X20945005Y16825211D01*
X20880869Y16670375D01*
X20787760Y16531026D01*
X20669254Y16412520D01*
X20529905Y16319411D01*
X20375069Y16255275D01*
X20210697Y16222580D01*
X20043103Y16222580D01*
X19878731Y16255275D01*
X19723895Y16319411D01*
X19584546Y16412520D01*
X19466040Y16531026D01*
X19372931Y16670375D01*
X19308795Y16825211D01*
X19276100Y16989583D01*
X19276100Y17157177D01*
X19308795Y17321549D01*
X19372931Y17476385D01*
X19466040Y17615734D01*
X19584546Y17734240D01*
X19723895Y17827349D01*
X19878731Y17891485D01*
X20043103Y17924180D01*
X20210697Y17924180D01*
X20375069Y17891485D01*
G37*
G36*
X27995069Y17891485D02*
G01*
X28149905Y17827349D01*
X28289254Y17734240D01*
X28407760Y17615734D01*
X28500869Y17476385D01*
X28565005Y17321549D01*
X28597700Y17157177D01*
X28597700Y16989583D01*
X28565005Y16825211D01*
X28500869Y16670375D01*
X28407760Y16531026D01*
X28289254Y16412520D01*
X28149905Y16319411D01*
X27995069Y16255275D01*
X27830697Y16222580D01*
X27663103Y16222580D01*
X27498731Y16255275D01*
X27343895Y16319411D01*
X27204546Y16412520D01*
X27086040Y16531026D01*
X26992931Y16670375D01*
X26928795Y16825211D01*
X26896100Y16989583D01*
X26896100Y17157177D01*
X26928795Y17321549D01*
X26992931Y17476385D01*
X27086040Y17615734D01*
X27204546Y17734240D01*
X27343895Y17827349D01*
X27498731Y17891485D01*
X27663103Y17924180D01*
X27830697Y17924180D01*
X27995069Y17891485D01*
G37*
G36*
X25455069Y17891485D02*
G01*
X25609905Y17827349D01*
X25749254Y17734240D01*
X25867760Y17615734D01*
X25960869Y17476385D01*
X26025005Y17321549D01*
X26057700Y17157177D01*
X26057700Y16989583D01*
X26025005Y16825211D01*
X25960869Y16670375D01*
X25867760Y16531026D01*
X25749254Y16412520D01*
X25609905Y16319411D01*
X25455069Y16255275D01*
X25290697Y16222580D01*
X25123103Y16222580D01*
X24958731Y16255275D01*
X24803895Y16319411D01*
X24664546Y16412520D01*
X24546040Y16531026D01*
X24452931Y16670375D01*
X24388795Y16825211D01*
X24356100Y16989583D01*
X24356100Y17157177D01*
X24388795Y17321549D01*
X24452931Y17476385D01*
X24546040Y17615734D01*
X24664546Y17734240D01*
X24803895Y17827349D01*
X24958731Y17891485D01*
X25123103Y17924180D01*
X25290697Y17924180D01*
X25455069Y17891485D01*
G37*
G36*
X22915069Y17891485D02*
G01*
X23069905Y17827349D01*
X23209254Y17734240D01*
X23327760Y17615734D01*
X23420869Y17476385D01*
X23485005Y17321549D01*
X23517700Y17157177D01*
X23517700Y16989583D01*
X23485005Y16825211D01*
X23420869Y16670375D01*
X23327760Y16531026D01*
X23209254Y16412520D01*
X23069905Y16319411D01*
X22915069Y16255275D01*
X22750697Y16222580D01*
X22583103Y16222580D01*
X22418731Y16255275D01*
X22263895Y16319411D01*
X22124546Y16412520D01*
X22006040Y16531026D01*
X21912931Y16670375D01*
X21848795Y16825211D01*
X21816100Y16989583D01*
X21816100Y17157177D01*
X21848795Y17321549D01*
X21912931Y17476385D01*
X22006040Y17615734D01*
X22124546Y17734240D01*
X22263895Y17827349D01*
X22418731Y17891485D01*
X22583103Y17924180D01*
X22750697Y17924180D01*
X22915069Y17891485D01*
G37*
G36*
X158211183Y22296177D02*
G01*
X158342943Y22241600D01*
X158461523Y22162367D01*
X158562367Y22061523D01*
X158641600Y21942943D01*
X158696177Y21811183D01*
X158724000Y21671308D01*
X158724000Y21528692D01*
X158696177Y21388817D01*
X158641600Y21257057D01*
X158562367Y21138477D01*
X158461523Y21037633D01*
X158342943Y20958400D01*
X158211183Y20903823D01*
X158071308Y20876000D01*
X157928692Y20876000D01*
X157788817Y20903823D01*
X157657057Y20958400D01*
X157538477Y21037633D01*
X157437633Y21138477D01*
X157358400Y21257057D01*
X157303823Y21388817D01*
X157276000Y21528692D01*
X157276000Y21671308D01*
X157303823Y21811183D01*
X157358400Y21942943D01*
X157437633Y22061523D01*
X157538477Y22162367D01*
X157657057Y22241600D01*
X157788817Y22296177D01*
X157928692Y22324000D01*
X158071308Y22324000D01*
X158211183Y22296177D01*
G37*
G36*
X2911183Y22296177D02*
G01*
X3042943Y22241600D01*
X3161523Y22162367D01*
X3262367Y22061523D01*
X3341600Y21942943D01*
X3396177Y21811183D01*
X3424000Y21671308D01*
X3424000Y21528692D01*
X3396177Y21388817D01*
X3341600Y21257057D01*
X3262367Y21138477D01*
X3161523Y21037633D01*
X3042943Y20958400D01*
X2911183Y20903823D01*
X2771308Y20876000D01*
X2628692Y20876000D01*
X2488817Y20903823D01*
X2357057Y20958400D01*
X2238477Y21037633D01*
X2137633Y21138477D01*
X2058400Y21257057D01*
X2003823Y21388817D01*
X1976000Y21528692D01*
X1976000Y21671308D01*
X2003823Y21811183D01*
X2058400Y21942943D01*
X2137633Y22061523D01*
X2238477Y22162367D01*
X2357057Y22241600D01*
X2488817Y22296177D01*
X2628692Y22324000D01*
X2771308Y22324000D01*
X2911183Y22296177D01*
G37*
M02*
