G04 #@! TF.GenerationSoftware,KiCad,Pcbnew,5.1.6+dfsg1-1~bpo10+1*
G04 #@! TF.CreationDate,2020-08-19T15:46:29+03:00*
G04 #@! TF.ProjectId,CompactBeamspringP1,436f6d70-6163-4744-9265-616d73707269,0.0.3*
G04 #@! TF.SameCoordinates,Original*
G04 #@! TF.FileFunction,Paste,Bot*
G04 #@! TF.FilePolarity,Positive*
%FSLAX46Y46*%
G04 Gerber Fmt 4.6, Leading zero omitted, Abs format (unit mm)*
G04 Created by KiCad (PCBNEW 5.1.6+dfsg1-1~bpo10+1) date 2020-08-19 15:46:29*
%MOMM*%
%LPD*%
G01*
G04 APERTURE LIST*
%ADD10R,3.000000X3.000000*%
%ADD11R,0.800000X0.500000*%
%ADD12R,0.800000X0.400000*%
G04 APERTURE END LIST*
D10*
X115450000Y-115025000D03*
X111950000Y-115025000D03*
G36*
G01*
X249442760Y-117269920D02*
X249742760Y-117269920D01*
G75*
G02*
X249892760Y-117419920I0J-150000D01*
G01*
X249892760Y-119069920D01*
G75*
G02*
X249742760Y-119219920I-150000J0D01*
G01*
X249442760Y-119219920D01*
G75*
G02*
X249292760Y-119069920I0J150000D01*
G01*
X249292760Y-117419920D01*
G75*
G02*
X249442760Y-117269920I150000J0D01*
G01*
G37*
G36*
G01*
X250712760Y-117269920D02*
X251012760Y-117269920D01*
G75*
G02*
X251162760Y-117419920I0J-150000D01*
G01*
X251162760Y-119069920D01*
G75*
G02*
X251012760Y-119219920I-150000J0D01*
G01*
X250712760Y-119219920D01*
G75*
G02*
X250562760Y-119069920I0J150000D01*
G01*
X250562760Y-117419920D01*
G75*
G02*
X250712760Y-117269920I150000J0D01*
G01*
G37*
G36*
G01*
X251982760Y-117269920D02*
X252282760Y-117269920D01*
G75*
G02*
X252432760Y-117419920I0J-150000D01*
G01*
X252432760Y-119069920D01*
G75*
G02*
X252282760Y-119219920I-150000J0D01*
G01*
X251982760Y-119219920D01*
G75*
G02*
X251832760Y-119069920I0J150000D01*
G01*
X251832760Y-117419920D01*
G75*
G02*
X251982760Y-117269920I150000J0D01*
G01*
G37*
G36*
G01*
X253252760Y-117269920D02*
X253552760Y-117269920D01*
G75*
G02*
X253702760Y-117419920I0J-150000D01*
G01*
X253702760Y-119069920D01*
G75*
G02*
X253552760Y-119219920I-150000J0D01*
G01*
X253252760Y-119219920D01*
G75*
G02*
X253102760Y-119069920I0J150000D01*
G01*
X253102760Y-117419920D01*
G75*
G02*
X253252760Y-117269920I150000J0D01*
G01*
G37*
G36*
G01*
X254522760Y-117269920D02*
X254822760Y-117269920D01*
G75*
G02*
X254972760Y-117419920I0J-150000D01*
G01*
X254972760Y-119069920D01*
G75*
G02*
X254822760Y-119219920I-150000J0D01*
G01*
X254522760Y-119219920D01*
G75*
G02*
X254372760Y-119069920I0J150000D01*
G01*
X254372760Y-117419920D01*
G75*
G02*
X254522760Y-117269920I150000J0D01*
G01*
G37*
G36*
G01*
X255792760Y-117269920D02*
X256092760Y-117269920D01*
G75*
G02*
X256242760Y-117419920I0J-150000D01*
G01*
X256242760Y-119069920D01*
G75*
G02*
X256092760Y-119219920I-150000J0D01*
G01*
X255792760Y-119219920D01*
G75*
G02*
X255642760Y-119069920I0J150000D01*
G01*
X255642760Y-117419920D01*
G75*
G02*
X255792760Y-117269920I150000J0D01*
G01*
G37*
G36*
G01*
X257062760Y-117269920D02*
X257362760Y-117269920D01*
G75*
G02*
X257512760Y-117419920I0J-150000D01*
G01*
X257512760Y-119069920D01*
G75*
G02*
X257362760Y-119219920I-150000J0D01*
G01*
X257062760Y-119219920D01*
G75*
G02*
X256912760Y-119069920I0J150000D01*
G01*
X256912760Y-117419920D01*
G75*
G02*
X257062760Y-117269920I150000J0D01*
G01*
G37*
G36*
G01*
X257062760Y-122219920D02*
X257362760Y-122219920D01*
G75*
G02*
X257512760Y-122369920I0J-150000D01*
G01*
X257512760Y-124019920D01*
G75*
G02*
X257362760Y-124169920I-150000J0D01*
G01*
X257062760Y-124169920D01*
G75*
G02*
X256912760Y-124019920I0J150000D01*
G01*
X256912760Y-122369920D01*
G75*
G02*
X257062760Y-122219920I150000J0D01*
G01*
G37*
G36*
G01*
X255792760Y-122219920D02*
X256092760Y-122219920D01*
G75*
G02*
X256242760Y-122369920I0J-150000D01*
G01*
X256242760Y-124019920D01*
G75*
G02*
X256092760Y-124169920I-150000J0D01*
G01*
X255792760Y-124169920D01*
G75*
G02*
X255642760Y-124019920I0J150000D01*
G01*
X255642760Y-122369920D01*
G75*
G02*
X255792760Y-122219920I150000J0D01*
G01*
G37*
G36*
G01*
X254522760Y-122219920D02*
X254822760Y-122219920D01*
G75*
G02*
X254972760Y-122369920I0J-150000D01*
G01*
X254972760Y-124019920D01*
G75*
G02*
X254822760Y-124169920I-150000J0D01*
G01*
X254522760Y-124169920D01*
G75*
G02*
X254372760Y-124019920I0J150000D01*
G01*
X254372760Y-122369920D01*
G75*
G02*
X254522760Y-122219920I150000J0D01*
G01*
G37*
G36*
G01*
X253252760Y-122219920D02*
X253552760Y-122219920D01*
G75*
G02*
X253702760Y-122369920I0J-150000D01*
G01*
X253702760Y-124019920D01*
G75*
G02*
X253552760Y-124169920I-150000J0D01*
G01*
X253252760Y-124169920D01*
G75*
G02*
X253102760Y-124019920I0J150000D01*
G01*
X253102760Y-122369920D01*
G75*
G02*
X253252760Y-122219920I150000J0D01*
G01*
G37*
G36*
G01*
X251982760Y-122219920D02*
X252282760Y-122219920D01*
G75*
G02*
X252432760Y-122369920I0J-150000D01*
G01*
X252432760Y-124019920D01*
G75*
G02*
X252282760Y-124169920I-150000J0D01*
G01*
X251982760Y-124169920D01*
G75*
G02*
X251832760Y-124019920I0J150000D01*
G01*
X251832760Y-122369920D01*
G75*
G02*
X251982760Y-122219920I150000J0D01*
G01*
G37*
G36*
G01*
X250712760Y-122219920D02*
X251012760Y-122219920D01*
G75*
G02*
X251162760Y-122369920I0J-150000D01*
G01*
X251162760Y-124019920D01*
G75*
G02*
X251012760Y-124169920I-150000J0D01*
G01*
X250712760Y-124169920D01*
G75*
G02*
X250562760Y-124019920I0J150000D01*
G01*
X250562760Y-122369920D01*
G75*
G02*
X250712760Y-122219920I150000J0D01*
G01*
G37*
G36*
G01*
X249442760Y-122219920D02*
X249742760Y-122219920D01*
G75*
G02*
X249892760Y-122369920I0J-150000D01*
G01*
X249892760Y-124019920D01*
G75*
G02*
X249742760Y-124169920I-150000J0D01*
G01*
X249442760Y-124169920D01*
G75*
G02*
X249292760Y-124019920I0J150000D01*
G01*
X249292760Y-122369920D01*
G75*
G02*
X249442760Y-122219920I150000J0D01*
G01*
G37*
G36*
G01*
X259923361Y-119911780D02*
X259023359Y-119911780D01*
G75*
G02*
X258773360Y-119661781I0J249999D01*
G01*
X258773360Y-119011779D01*
G75*
G02*
X259023359Y-118761780I249999J0D01*
G01*
X259923361Y-118761780D01*
G75*
G02*
X260173360Y-119011779I0J-249999D01*
G01*
X260173360Y-119661781D01*
G75*
G02*
X259923361Y-119911780I-249999J0D01*
G01*
G37*
G36*
G01*
X259923361Y-121961780D02*
X259023359Y-121961780D01*
G75*
G02*
X258773360Y-121711781I0J249999D01*
G01*
X258773360Y-121061779D01*
G75*
G02*
X259023359Y-120811780I249999J0D01*
G01*
X259923361Y-120811780D01*
G75*
G02*
X260173360Y-121061779I0J-249999D01*
G01*
X260173360Y-121711781D01*
G75*
G02*
X259923361Y-121961780I-249999J0D01*
G01*
G37*
G36*
G01*
X137500000Y-117025001D02*
X137500000Y-116124999D01*
G75*
G02*
X137749999Y-115875000I249999J0D01*
G01*
X138400001Y-115875000D01*
G75*
G02*
X138650000Y-116124999I0J-249999D01*
G01*
X138650000Y-117025001D01*
G75*
G02*
X138400001Y-117275000I-249999J0D01*
G01*
X137749999Y-117275000D01*
G75*
G02*
X137500000Y-117025001I0J249999D01*
G01*
G37*
G36*
G01*
X135450000Y-117025001D02*
X135450000Y-116124999D01*
G75*
G02*
X135699999Y-115875000I249999J0D01*
G01*
X136350001Y-115875000D01*
G75*
G02*
X136600000Y-116124999I0J-249999D01*
G01*
X136600000Y-117025001D01*
G75*
G02*
X136350001Y-117275000I-249999J0D01*
G01*
X135699999Y-117275000D01*
G75*
G02*
X135450000Y-117025001I0J249999D01*
G01*
G37*
G36*
G01*
X136600000Y-112124999D02*
X136600000Y-113025001D01*
G75*
G02*
X136350001Y-113275000I-249999J0D01*
G01*
X135699999Y-113275000D01*
G75*
G02*
X135450000Y-113025001I0J249999D01*
G01*
X135450000Y-112124999D01*
G75*
G02*
X135699999Y-111875000I249999J0D01*
G01*
X136350001Y-111875000D01*
G75*
G02*
X136600000Y-112124999I0J-249999D01*
G01*
G37*
G36*
G01*
X138650000Y-112124999D02*
X138650000Y-113025001D01*
G75*
G02*
X138400001Y-113275000I-249999J0D01*
G01*
X137749999Y-113275000D01*
G75*
G02*
X137500000Y-113025001I0J249999D01*
G01*
X137500000Y-112124999D01*
G75*
G02*
X137749999Y-111875000I249999J0D01*
G01*
X138400001Y-111875000D01*
G75*
G02*
X138650000Y-112124999I0J-249999D01*
G01*
G37*
G36*
G01*
X137500000Y-115025001D02*
X137500000Y-114124999D01*
G75*
G02*
X137749999Y-113875000I249999J0D01*
G01*
X138400001Y-113875000D01*
G75*
G02*
X138650000Y-114124999I0J-249999D01*
G01*
X138650000Y-115025001D01*
G75*
G02*
X138400001Y-115275000I-249999J0D01*
G01*
X137749999Y-115275000D01*
G75*
G02*
X137500000Y-115025001I0J249999D01*
G01*
G37*
G36*
G01*
X135450000Y-115025001D02*
X135450000Y-114124999D01*
G75*
G02*
X135699999Y-113875000I249999J0D01*
G01*
X136350001Y-113875000D01*
G75*
G02*
X136600000Y-114124999I0J-249999D01*
G01*
X136600000Y-115025001D01*
G75*
G02*
X136350001Y-115275000I-249999J0D01*
G01*
X135699999Y-115275000D01*
G75*
G02*
X135450000Y-115025001I0J249999D01*
G01*
G37*
G36*
G01*
X246932959Y-121652520D02*
X247832961Y-121652520D01*
G75*
G02*
X248082960Y-121902519I0J-249999D01*
G01*
X248082960Y-122552521D01*
G75*
G02*
X247832961Y-122802520I-249999J0D01*
G01*
X246932959Y-122802520D01*
G75*
G02*
X246682960Y-122552521I0J249999D01*
G01*
X246682960Y-121902519D01*
G75*
G02*
X246932959Y-121652520I249999J0D01*
G01*
G37*
G36*
G01*
X246932959Y-119602520D02*
X247832961Y-119602520D01*
G75*
G02*
X248082960Y-119852519I0J-249999D01*
G01*
X248082960Y-120502521D01*
G75*
G02*
X247832961Y-120752520I-249999J0D01*
G01*
X246932959Y-120752520D01*
G75*
G02*
X246682960Y-120502521I0J249999D01*
G01*
X246682960Y-119852519D01*
G75*
G02*
X246932959Y-119602520I249999J0D01*
G01*
G37*
G36*
G01*
X241177320Y-122609259D02*
X241177320Y-123509261D01*
G75*
G02*
X240927321Y-123759260I-249999J0D01*
G01*
X240277319Y-123759260D01*
G75*
G02*
X240027320Y-123509261I0J249999D01*
G01*
X240027320Y-122609259D01*
G75*
G02*
X240277319Y-122359260I249999J0D01*
G01*
X240927321Y-122359260D01*
G75*
G02*
X241177320Y-122609259I0J-249999D01*
G01*
G37*
G36*
G01*
X243227320Y-122609259D02*
X243227320Y-123509261D01*
G75*
G02*
X242977321Y-123759260I-249999J0D01*
G01*
X242327319Y-123759260D01*
G75*
G02*
X242077320Y-123509261I0J249999D01*
G01*
X242077320Y-122609259D01*
G75*
G02*
X242327319Y-122359260I249999J0D01*
G01*
X242977321Y-122359260D01*
G75*
G02*
X243227320Y-122609259I0J-249999D01*
G01*
G37*
G36*
G01*
X245392021Y-120381680D02*
X244492019Y-120381680D01*
G75*
G02*
X244242020Y-120131681I0J249999D01*
G01*
X244242020Y-119481679D01*
G75*
G02*
X244492019Y-119231680I249999J0D01*
G01*
X245392021Y-119231680D01*
G75*
G02*
X245642020Y-119481679I0J-249999D01*
G01*
X245642020Y-120131681D01*
G75*
G02*
X245392021Y-120381680I-249999J0D01*
G01*
G37*
G36*
G01*
X245392021Y-122431680D02*
X244492019Y-122431680D01*
G75*
G02*
X244242020Y-122181681I0J249999D01*
G01*
X244242020Y-121531679D01*
G75*
G02*
X244492019Y-121281680I249999J0D01*
G01*
X245392021Y-121281680D01*
G75*
G02*
X245642020Y-121531679I0J-249999D01*
G01*
X245642020Y-122181681D01*
G75*
G02*
X245392021Y-122431680I-249999J0D01*
G01*
G37*
G36*
G01*
X268302821Y-115177220D02*
X267402819Y-115177220D01*
G75*
G02*
X267152820Y-114927221I0J249999D01*
G01*
X267152820Y-114277219D01*
G75*
G02*
X267402819Y-114027220I249999J0D01*
G01*
X268302821Y-114027220D01*
G75*
G02*
X268552820Y-114277219I0J-249999D01*
G01*
X268552820Y-114927221D01*
G75*
G02*
X268302821Y-115177220I-249999J0D01*
G01*
G37*
G36*
G01*
X268302821Y-117227220D02*
X267402819Y-117227220D01*
G75*
G02*
X267152820Y-116977221I0J249999D01*
G01*
X267152820Y-116327219D01*
G75*
G02*
X267402819Y-116077220I249999J0D01*
G01*
X268302821Y-116077220D01*
G75*
G02*
X268552820Y-116327219I0J-249999D01*
G01*
X268552820Y-116977221D01*
G75*
G02*
X268302821Y-117227220I-249999J0D01*
G01*
G37*
G36*
G01*
X265996501Y-115183460D02*
X265096499Y-115183460D01*
G75*
G02*
X264846500Y-114933461I0J249999D01*
G01*
X264846500Y-114283459D01*
G75*
G02*
X265096499Y-114033460I249999J0D01*
G01*
X265996501Y-114033460D01*
G75*
G02*
X266246500Y-114283459I0J-249999D01*
G01*
X266246500Y-114933461D01*
G75*
G02*
X265996501Y-115183460I-249999J0D01*
G01*
G37*
G36*
G01*
X265996501Y-117233460D02*
X265096499Y-117233460D01*
G75*
G02*
X264846500Y-116983461I0J249999D01*
G01*
X264846500Y-116333459D01*
G75*
G02*
X265096499Y-116083460I249999J0D01*
G01*
X265996501Y-116083460D01*
G75*
G02*
X266246500Y-116333459I0J-249999D01*
G01*
X266246500Y-116983461D01*
G75*
G02*
X265996501Y-117233460I-249999J0D01*
G01*
G37*
G36*
G01*
X246682340Y-118218441D02*
X246682340Y-117318439D01*
G75*
G02*
X246932339Y-117068440I249999J0D01*
G01*
X247582341Y-117068440D01*
G75*
G02*
X247832340Y-117318439I0J-249999D01*
G01*
X247832340Y-118218441D01*
G75*
G02*
X247582341Y-118468440I-249999J0D01*
G01*
X246932339Y-118468440D01*
G75*
G02*
X246682340Y-118218441I0J249999D01*
G01*
G37*
G36*
G01*
X244632340Y-118218441D02*
X244632340Y-117318439D01*
G75*
G02*
X244882339Y-117068440I249999J0D01*
G01*
X245532341Y-117068440D01*
G75*
G02*
X245782340Y-117318439I0J-249999D01*
G01*
X245782340Y-118218441D01*
G75*
G02*
X245532341Y-118468440I-249999J0D01*
G01*
X244882339Y-118468440D01*
G75*
G02*
X244632340Y-118218441I0J249999D01*
G01*
G37*
G36*
G01*
X221982539Y-120783840D02*
X222882541Y-120783840D01*
G75*
G02*
X223132540Y-121033839I0J-249999D01*
G01*
X223132540Y-121683841D01*
G75*
G02*
X222882541Y-121933840I-249999J0D01*
G01*
X221982539Y-121933840D01*
G75*
G02*
X221732540Y-121683841I0J249999D01*
G01*
X221732540Y-121033839D01*
G75*
G02*
X221982539Y-120783840I249999J0D01*
G01*
G37*
G36*
G01*
X221982539Y-118733840D02*
X222882541Y-118733840D01*
G75*
G02*
X223132540Y-118983839I0J-249999D01*
G01*
X223132540Y-119633841D01*
G75*
G02*
X222882541Y-119883840I-249999J0D01*
G01*
X221982539Y-119883840D01*
G75*
G02*
X221732540Y-119633841I0J249999D01*
G01*
X221732540Y-118983839D01*
G75*
G02*
X221982539Y-118733840I249999J0D01*
G01*
G37*
G36*
G01*
X189481719Y-120783840D02*
X190381721Y-120783840D01*
G75*
G02*
X190631720Y-121033839I0J-249999D01*
G01*
X190631720Y-121683841D01*
G75*
G02*
X190381721Y-121933840I-249999J0D01*
G01*
X189481719Y-121933840D01*
G75*
G02*
X189231720Y-121683841I0J249999D01*
G01*
X189231720Y-121033839D01*
G75*
G02*
X189481719Y-120783840I249999J0D01*
G01*
G37*
G36*
G01*
X189481719Y-118733840D02*
X190381721Y-118733840D01*
G75*
G02*
X190631720Y-118983839I0J-249999D01*
G01*
X190631720Y-119633841D01*
G75*
G02*
X190381721Y-119883840I-249999J0D01*
G01*
X189481719Y-119883840D01*
G75*
G02*
X189231720Y-119633841I0J249999D01*
G01*
X189231720Y-118983839D01*
G75*
G02*
X189481719Y-118733840I249999J0D01*
G01*
G37*
G36*
G01*
X154742139Y-120783840D02*
X155642141Y-120783840D01*
G75*
G02*
X155892140Y-121033839I0J-249999D01*
G01*
X155892140Y-121683841D01*
G75*
G02*
X155642141Y-121933840I-249999J0D01*
G01*
X154742139Y-121933840D01*
G75*
G02*
X154492140Y-121683841I0J249999D01*
G01*
X154492140Y-121033839D01*
G75*
G02*
X154742139Y-120783840I249999J0D01*
G01*
G37*
G36*
G01*
X154742139Y-118733840D02*
X155642141Y-118733840D01*
G75*
G02*
X155892140Y-118983839I0J-249999D01*
G01*
X155892140Y-119633841D01*
G75*
G02*
X155642141Y-119883840I-249999J0D01*
G01*
X154742139Y-119883840D01*
G75*
G02*
X154492140Y-119633841I0J249999D01*
G01*
X154492140Y-118983839D01*
G75*
G02*
X154742139Y-118733840I249999J0D01*
G01*
G37*
G36*
G01*
X237110780Y-122609259D02*
X237110780Y-123509261D01*
G75*
G02*
X236860781Y-123759260I-249999J0D01*
G01*
X236210779Y-123759260D01*
G75*
G02*
X235960780Y-123509261I0J249999D01*
G01*
X235960780Y-122609259D01*
G75*
G02*
X236210779Y-122359260I249999J0D01*
G01*
X236860781Y-122359260D01*
G75*
G02*
X237110780Y-122609259I0J-249999D01*
G01*
G37*
G36*
G01*
X239160780Y-122609259D02*
X239160780Y-123509261D01*
G75*
G02*
X238910781Y-123759260I-249999J0D01*
G01*
X238260779Y-123759260D01*
G75*
G02*
X238010780Y-123509261I0J249999D01*
G01*
X238010780Y-122609259D01*
G75*
G02*
X238260779Y-122359260I249999J0D01*
G01*
X238910781Y-122359260D01*
G75*
G02*
X239160780Y-122609259I0J-249999D01*
G01*
G37*
G36*
G01*
X192960780Y-116853360D02*
X193260780Y-116853360D01*
G75*
G02*
X193410780Y-117003360I0J-150000D01*
G01*
X193410780Y-118653360D01*
G75*
G02*
X193260780Y-118803360I-150000J0D01*
G01*
X192960780Y-118803360D01*
G75*
G02*
X192810780Y-118653360I0J150000D01*
G01*
X192810780Y-117003360D01*
G75*
G02*
X192960780Y-116853360I150000J0D01*
G01*
G37*
G36*
G01*
X194230780Y-116853360D02*
X194530780Y-116853360D01*
G75*
G02*
X194680780Y-117003360I0J-150000D01*
G01*
X194680780Y-118653360D01*
G75*
G02*
X194530780Y-118803360I-150000J0D01*
G01*
X194230780Y-118803360D01*
G75*
G02*
X194080780Y-118653360I0J150000D01*
G01*
X194080780Y-117003360D01*
G75*
G02*
X194230780Y-116853360I150000J0D01*
G01*
G37*
G36*
G01*
X195500780Y-116853360D02*
X195800780Y-116853360D01*
G75*
G02*
X195950780Y-117003360I0J-150000D01*
G01*
X195950780Y-118653360D01*
G75*
G02*
X195800780Y-118803360I-150000J0D01*
G01*
X195500780Y-118803360D01*
G75*
G02*
X195350780Y-118653360I0J150000D01*
G01*
X195350780Y-117003360D01*
G75*
G02*
X195500780Y-116853360I150000J0D01*
G01*
G37*
G36*
G01*
X196770780Y-116853360D02*
X197070780Y-116853360D01*
G75*
G02*
X197220780Y-117003360I0J-150000D01*
G01*
X197220780Y-118653360D01*
G75*
G02*
X197070780Y-118803360I-150000J0D01*
G01*
X196770780Y-118803360D01*
G75*
G02*
X196620780Y-118653360I0J150000D01*
G01*
X196620780Y-117003360D01*
G75*
G02*
X196770780Y-116853360I150000J0D01*
G01*
G37*
G36*
G01*
X198040780Y-116853360D02*
X198340780Y-116853360D01*
G75*
G02*
X198490780Y-117003360I0J-150000D01*
G01*
X198490780Y-118653360D01*
G75*
G02*
X198340780Y-118803360I-150000J0D01*
G01*
X198040780Y-118803360D01*
G75*
G02*
X197890780Y-118653360I0J150000D01*
G01*
X197890780Y-117003360D01*
G75*
G02*
X198040780Y-116853360I150000J0D01*
G01*
G37*
G36*
G01*
X199310780Y-116853360D02*
X199610780Y-116853360D01*
G75*
G02*
X199760780Y-117003360I0J-150000D01*
G01*
X199760780Y-118653360D01*
G75*
G02*
X199610780Y-118803360I-150000J0D01*
G01*
X199310780Y-118803360D01*
G75*
G02*
X199160780Y-118653360I0J150000D01*
G01*
X199160780Y-117003360D01*
G75*
G02*
X199310780Y-116853360I150000J0D01*
G01*
G37*
G36*
G01*
X200580780Y-116853360D02*
X200880780Y-116853360D01*
G75*
G02*
X201030780Y-117003360I0J-150000D01*
G01*
X201030780Y-118653360D01*
G75*
G02*
X200880780Y-118803360I-150000J0D01*
G01*
X200580780Y-118803360D01*
G75*
G02*
X200430780Y-118653360I0J150000D01*
G01*
X200430780Y-117003360D01*
G75*
G02*
X200580780Y-116853360I150000J0D01*
G01*
G37*
G36*
G01*
X201850780Y-116853360D02*
X202150780Y-116853360D01*
G75*
G02*
X202300780Y-117003360I0J-150000D01*
G01*
X202300780Y-118653360D01*
G75*
G02*
X202150780Y-118803360I-150000J0D01*
G01*
X201850780Y-118803360D01*
G75*
G02*
X201700780Y-118653360I0J150000D01*
G01*
X201700780Y-117003360D01*
G75*
G02*
X201850780Y-116853360I150000J0D01*
G01*
G37*
G36*
G01*
X201850780Y-121803360D02*
X202150780Y-121803360D01*
G75*
G02*
X202300780Y-121953360I0J-150000D01*
G01*
X202300780Y-123603360D01*
G75*
G02*
X202150780Y-123753360I-150000J0D01*
G01*
X201850780Y-123753360D01*
G75*
G02*
X201700780Y-123603360I0J150000D01*
G01*
X201700780Y-121953360D01*
G75*
G02*
X201850780Y-121803360I150000J0D01*
G01*
G37*
G36*
G01*
X200580780Y-121803360D02*
X200880780Y-121803360D01*
G75*
G02*
X201030780Y-121953360I0J-150000D01*
G01*
X201030780Y-123603360D01*
G75*
G02*
X200880780Y-123753360I-150000J0D01*
G01*
X200580780Y-123753360D01*
G75*
G02*
X200430780Y-123603360I0J150000D01*
G01*
X200430780Y-121953360D01*
G75*
G02*
X200580780Y-121803360I150000J0D01*
G01*
G37*
G36*
G01*
X199310780Y-121803360D02*
X199610780Y-121803360D01*
G75*
G02*
X199760780Y-121953360I0J-150000D01*
G01*
X199760780Y-123603360D01*
G75*
G02*
X199610780Y-123753360I-150000J0D01*
G01*
X199310780Y-123753360D01*
G75*
G02*
X199160780Y-123603360I0J150000D01*
G01*
X199160780Y-121953360D01*
G75*
G02*
X199310780Y-121803360I150000J0D01*
G01*
G37*
G36*
G01*
X198040780Y-121803360D02*
X198340780Y-121803360D01*
G75*
G02*
X198490780Y-121953360I0J-150000D01*
G01*
X198490780Y-123603360D01*
G75*
G02*
X198340780Y-123753360I-150000J0D01*
G01*
X198040780Y-123753360D01*
G75*
G02*
X197890780Y-123603360I0J150000D01*
G01*
X197890780Y-121953360D01*
G75*
G02*
X198040780Y-121803360I150000J0D01*
G01*
G37*
G36*
G01*
X196770780Y-121803360D02*
X197070780Y-121803360D01*
G75*
G02*
X197220780Y-121953360I0J-150000D01*
G01*
X197220780Y-123603360D01*
G75*
G02*
X197070780Y-123753360I-150000J0D01*
G01*
X196770780Y-123753360D01*
G75*
G02*
X196620780Y-123603360I0J150000D01*
G01*
X196620780Y-121953360D01*
G75*
G02*
X196770780Y-121803360I150000J0D01*
G01*
G37*
G36*
G01*
X195500780Y-121803360D02*
X195800780Y-121803360D01*
G75*
G02*
X195950780Y-121953360I0J-150000D01*
G01*
X195950780Y-123603360D01*
G75*
G02*
X195800780Y-123753360I-150000J0D01*
G01*
X195500780Y-123753360D01*
G75*
G02*
X195350780Y-123603360I0J150000D01*
G01*
X195350780Y-121953360D01*
G75*
G02*
X195500780Y-121803360I150000J0D01*
G01*
G37*
G36*
G01*
X194230780Y-121803360D02*
X194530780Y-121803360D01*
G75*
G02*
X194680780Y-121953360I0J-150000D01*
G01*
X194680780Y-123603360D01*
G75*
G02*
X194530780Y-123753360I-150000J0D01*
G01*
X194230780Y-123753360D01*
G75*
G02*
X194080780Y-123603360I0J150000D01*
G01*
X194080780Y-121953360D01*
G75*
G02*
X194230780Y-121803360I150000J0D01*
G01*
G37*
G36*
G01*
X192960780Y-121803360D02*
X193260780Y-121803360D01*
G75*
G02*
X193410780Y-121953360I0J-150000D01*
G01*
X193410780Y-123603360D01*
G75*
G02*
X193260780Y-123753360I-150000J0D01*
G01*
X192960780Y-123753360D01*
G75*
G02*
X192810780Y-123603360I0J150000D01*
G01*
X192810780Y-121953360D01*
G75*
G02*
X192960780Y-121803360I150000J0D01*
G01*
G37*
D11*
X260955720Y-116888180D03*
D12*
X260955720Y-116088180D03*
D11*
X260955720Y-114488180D03*
D12*
X260955720Y-115288180D03*
D11*
X262755720Y-116888180D03*
D12*
X262755720Y-115288180D03*
X262755720Y-116088180D03*
D11*
X262755720Y-114488180D03*
G36*
G01*
X241321380Y-121248380D02*
X241321380Y-120948380D01*
G75*
G02*
X241471380Y-120798380I150000J0D01*
G01*
X243121380Y-120798380D01*
G75*
G02*
X243271380Y-120948380I0J-150000D01*
G01*
X243271380Y-121248380D01*
G75*
G02*
X243121380Y-121398380I-150000J0D01*
G01*
X241471380Y-121398380D01*
G75*
G02*
X241321380Y-121248380I0J150000D01*
G01*
G37*
G36*
G01*
X241321380Y-119978380D02*
X241321380Y-119678380D01*
G75*
G02*
X241471380Y-119528380I150000J0D01*
G01*
X243121380Y-119528380D01*
G75*
G02*
X243271380Y-119678380I0J-150000D01*
G01*
X243271380Y-119978380D01*
G75*
G02*
X243121380Y-120128380I-150000J0D01*
G01*
X241471380Y-120128380D01*
G75*
G02*
X241321380Y-119978380I0J150000D01*
G01*
G37*
G36*
G01*
X241321380Y-118708380D02*
X241321380Y-118408380D01*
G75*
G02*
X241471380Y-118258380I150000J0D01*
G01*
X243121380Y-118258380D01*
G75*
G02*
X243271380Y-118408380I0J-150000D01*
G01*
X243271380Y-118708380D01*
G75*
G02*
X243121380Y-118858380I-150000J0D01*
G01*
X241471380Y-118858380D01*
G75*
G02*
X241321380Y-118708380I0J150000D01*
G01*
G37*
G36*
G01*
X241321380Y-117438380D02*
X241321380Y-117138380D01*
G75*
G02*
X241471380Y-116988380I150000J0D01*
G01*
X243121380Y-116988380D01*
G75*
G02*
X243271380Y-117138380I0J-150000D01*
G01*
X243271380Y-117438380D01*
G75*
G02*
X243121380Y-117588380I-150000J0D01*
G01*
X241471380Y-117588380D01*
G75*
G02*
X241321380Y-117438380I0J150000D01*
G01*
G37*
G36*
G01*
X236371380Y-117438380D02*
X236371380Y-117138380D01*
G75*
G02*
X236521380Y-116988380I150000J0D01*
G01*
X238171380Y-116988380D01*
G75*
G02*
X238321380Y-117138380I0J-150000D01*
G01*
X238321380Y-117438380D01*
G75*
G02*
X238171380Y-117588380I-150000J0D01*
G01*
X236521380Y-117588380D01*
G75*
G02*
X236371380Y-117438380I0J150000D01*
G01*
G37*
G36*
G01*
X236371380Y-118708380D02*
X236371380Y-118408380D01*
G75*
G02*
X236521380Y-118258380I150000J0D01*
G01*
X238171380Y-118258380D01*
G75*
G02*
X238321380Y-118408380I0J-150000D01*
G01*
X238321380Y-118708380D01*
G75*
G02*
X238171380Y-118858380I-150000J0D01*
G01*
X236521380Y-118858380D01*
G75*
G02*
X236371380Y-118708380I0J150000D01*
G01*
G37*
G36*
G01*
X236371380Y-119978380D02*
X236371380Y-119678380D01*
G75*
G02*
X236521380Y-119528380I150000J0D01*
G01*
X238171380Y-119528380D01*
G75*
G02*
X238321380Y-119678380I0J-150000D01*
G01*
X238321380Y-119978380D01*
G75*
G02*
X238171380Y-120128380I-150000J0D01*
G01*
X236521380Y-120128380D01*
G75*
G02*
X236371380Y-119978380I0J150000D01*
G01*
G37*
G36*
G01*
X236371380Y-121248380D02*
X236371380Y-120948380D01*
G75*
G02*
X236521380Y-120798380I150000J0D01*
G01*
X238171380Y-120798380D01*
G75*
G02*
X238321380Y-120948380I0J-150000D01*
G01*
X238321380Y-121248380D01*
G75*
G02*
X238171380Y-121398380I-150000J0D01*
G01*
X236521380Y-121398380D01*
G75*
G02*
X236371380Y-121248380I0J150000D01*
G01*
G37*
G36*
G01*
X224992720Y-121803360D02*
X225292720Y-121803360D01*
G75*
G02*
X225442720Y-121953360I0J-150000D01*
G01*
X225442720Y-123603360D01*
G75*
G02*
X225292720Y-123753360I-150000J0D01*
G01*
X224992720Y-123753360D01*
G75*
G02*
X224842720Y-123603360I0J150000D01*
G01*
X224842720Y-121953360D01*
G75*
G02*
X224992720Y-121803360I150000J0D01*
G01*
G37*
G36*
G01*
X226262720Y-121803360D02*
X226562720Y-121803360D01*
G75*
G02*
X226712720Y-121953360I0J-150000D01*
G01*
X226712720Y-123603360D01*
G75*
G02*
X226562720Y-123753360I-150000J0D01*
G01*
X226262720Y-123753360D01*
G75*
G02*
X226112720Y-123603360I0J150000D01*
G01*
X226112720Y-121953360D01*
G75*
G02*
X226262720Y-121803360I150000J0D01*
G01*
G37*
G36*
G01*
X227532720Y-121803360D02*
X227832720Y-121803360D01*
G75*
G02*
X227982720Y-121953360I0J-150000D01*
G01*
X227982720Y-123603360D01*
G75*
G02*
X227832720Y-123753360I-150000J0D01*
G01*
X227532720Y-123753360D01*
G75*
G02*
X227382720Y-123603360I0J150000D01*
G01*
X227382720Y-121953360D01*
G75*
G02*
X227532720Y-121803360I150000J0D01*
G01*
G37*
G36*
G01*
X228802720Y-121803360D02*
X229102720Y-121803360D01*
G75*
G02*
X229252720Y-121953360I0J-150000D01*
G01*
X229252720Y-123603360D01*
G75*
G02*
X229102720Y-123753360I-150000J0D01*
G01*
X228802720Y-123753360D01*
G75*
G02*
X228652720Y-123603360I0J150000D01*
G01*
X228652720Y-121953360D01*
G75*
G02*
X228802720Y-121803360I150000J0D01*
G01*
G37*
G36*
G01*
X230072720Y-121803360D02*
X230372720Y-121803360D01*
G75*
G02*
X230522720Y-121953360I0J-150000D01*
G01*
X230522720Y-123603360D01*
G75*
G02*
X230372720Y-123753360I-150000J0D01*
G01*
X230072720Y-123753360D01*
G75*
G02*
X229922720Y-123603360I0J150000D01*
G01*
X229922720Y-121953360D01*
G75*
G02*
X230072720Y-121803360I150000J0D01*
G01*
G37*
G36*
G01*
X231342720Y-121803360D02*
X231642720Y-121803360D01*
G75*
G02*
X231792720Y-121953360I0J-150000D01*
G01*
X231792720Y-123603360D01*
G75*
G02*
X231642720Y-123753360I-150000J0D01*
G01*
X231342720Y-123753360D01*
G75*
G02*
X231192720Y-123603360I0J150000D01*
G01*
X231192720Y-121953360D01*
G75*
G02*
X231342720Y-121803360I150000J0D01*
G01*
G37*
G36*
G01*
X232612720Y-121803360D02*
X232912720Y-121803360D01*
G75*
G02*
X233062720Y-121953360I0J-150000D01*
G01*
X233062720Y-123603360D01*
G75*
G02*
X232912720Y-123753360I-150000J0D01*
G01*
X232612720Y-123753360D01*
G75*
G02*
X232462720Y-123603360I0J150000D01*
G01*
X232462720Y-121953360D01*
G75*
G02*
X232612720Y-121803360I150000J0D01*
G01*
G37*
G36*
G01*
X233882720Y-121803360D02*
X234182720Y-121803360D01*
G75*
G02*
X234332720Y-121953360I0J-150000D01*
G01*
X234332720Y-123603360D01*
G75*
G02*
X234182720Y-123753360I-150000J0D01*
G01*
X233882720Y-123753360D01*
G75*
G02*
X233732720Y-123603360I0J150000D01*
G01*
X233732720Y-121953360D01*
G75*
G02*
X233882720Y-121803360I150000J0D01*
G01*
G37*
G36*
G01*
X233882720Y-116853360D02*
X234182720Y-116853360D01*
G75*
G02*
X234332720Y-117003360I0J-150000D01*
G01*
X234332720Y-118653360D01*
G75*
G02*
X234182720Y-118803360I-150000J0D01*
G01*
X233882720Y-118803360D01*
G75*
G02*
X233732720Y-118653360I0J150000D01*
G01*
X233732720Y-117003360D01*
G75*
G02*
X233882720Y-116853360I150000J0D01*
G01*
G37*
G36*
G01*
X232612720Y-116853360D02*
X232912720Y-116853360D01*
G75*
G02*
X233062720Y-117003360I0J-150000D01*
G01*
X233062720Y-118653360D01*
G75*
G02*
X232912720Y-118803360I-150000J0D01*
G01*
X232612720Y-118803360D01*
G75*
G02*
X232462720Y-118653360I0J150000D01*
G01*
X232462720Y-117003360D01*
G75*
G02*
X232612720Y-116853360I150000J0D01*
G01*
G37*
G36*
G01*
X231342720Y-116853360D02*
X231642720Y-116853360D01*
G75*
G02*
X231792720Y-117003360I0J-150000D01*
G01*
X231792720Y-118653360D01*
G75*
G02*
X231642720Y-118803360I-150000J0D01*
G01*
X231342720Y-118803360D01*
G75*
G02*
X231192720Y-118653360I0J150000D01*
G01*
X231192720Y-117003360D01*
G75*
G02*
X231342720Y-116853360I150000J0D01*
G01*
G37*
G36*
G01*
X230072720Y-116853360D02*
X230372720Y-116853360D01*
G75*
G02*
X230522720Y-117003360I0J-150000D01*
G01*
X230522720Y-118653360D01*
G75*
G02*
X230372720Y-118803360I-150000J0D01*
G01*
X230072720Y-118803360D01*
G75*
G02*
X229922720Y-118653360I0J150000D01*
G01*
X229922720Y-117003360D01*
G75*
G02*
X230072720Y-116853360I150000J0D01*
G01*
G37*
G36*
G01*
X228802720Y-116853360D02*
X229102720Y-116853360D01*
G75*
G02*
X229252720Y-117003360I0J-150000D01*
G01*
X229252720Y-118653360D01*
G75*
G02*
X229102720Y-118803360I-150000J0D01*
G01*
X228802720Y-118803360D01*
G75*
G02*
X228652720Y-118653360I0J150000D01*
G01*
X228652720Y-117003360D01*
G75*
G02*
X228802720Y-116853360I150000J0D01*
G01*
G37*
G36*
G01*
X227532720Y-116853360D02*
X227832720Y-116853360D01*
G75*
G02*
X227982720Y-117003360I0J-150000D01*
G01*
X227982720Y-118653360D01*
G75*
G02*
X227832720Y-118803360I-150000J0D01*
G01*
X227532720Y-118803360D01*
G75*
G02*
X227382720Y-118653360I0J150000D01*
G01*
X227382720Y-117003360D01*
G75*
G02*
X227532720Y-116853360I150000J0D01*
G01*
G37*
G36*
G01*
X226262720Y-116853360D02*
X226562720Y-116853360D01*
G75*
G02*
X226712720Y-117003360I0J-150000D01*
G01*
X226712720Y-118653360D01*
G75*
G02*
X226562720Y-118803360I-150000J0D01*
G01*
X226262720Y-118803360D01*
G75*
G02*
X226112720Y-118653360I0J150000D01*
G01*
X226112720Y-117003360D01*
G75*
G02*
X226262720Y-116853360I150000J0D01*
G01*
G37*
G36*
G01*
X224992720Y-116853360D02*
X225292720Y-116853360D01*
G75*
G02*
X225442720Y-117003360I0J-150000D01*
G01*
X225442720Y-118653360D01*
G75*
G02*
X225292720Y-118803360I-150000J0D01*
G01*
X224992720Y-118803360D01*
G75*
G02*
X224842720Y-118653360I0J150000D01*
G01*
X224842720Y-117003360D01*
G75*
G02*
X224992720Y-116853360I150000J0D01*
G01*
G37*
G36*
G01*
X158614900Y-121803360D02*
X158914900Y-121803360D01*
G75*
G02*
X159064900Y-121953360I0J-150000D01*
G01*
X159064900Y-123603360D01*
G75*
G02*
X158914900Y-123753360I-150000J0D01*
G01*
X158614900Y-123753360D01*
G75*
G02*
X158464900Y-123603360I0J150000D01*
G01*
X158464900Y-121953360D01*
G75*
G02*
X158614900Y-121803360I150000J0D01*
G01*
G37*
G36*
G01*
X159884900Y-121803360D02*
X160184900Y-121803360D01*
G75*
G02*
X160334900Y-121953360I0J-150000D01*
G01*
X160334900Y-123603360D01*
G75*
G02*
X160184900Y-123753360I-150000J0D01*
G01*
X159884900Y-123753360D01*
G75*
G02*
X159734900Y-123603360I0J150000D01*
G01*
X159734900Y-121953360D01*
G75*
G02*
X159884900Y-121803360I150000J0D01*
G01*
G37*
G36*
G01*
X161154900Y-121803360D02*
X161454900Y-121803360D01*
G75*
G02*
X161604900Y-121953360I0J-150000D01*
G01*
X161604900Y-123603360D01*
G75*
G02*
X161454900Y-123753360I-150000J0D01*
G01*
X161154900Y-123753360D01*
G75*
G02*
X161004900Y-123603360I0J150000D01*
G01*
X161004900Y-121953360D01*
G75*
G02*
X161154900Y-121803360I150000J0D01*
G01*
G37*
G36*
G01*
X162424900Y-121803360D02*
X162724900Y-121803360D01*
G75*
G02*
X162874900Y-121953360I0J-150000D01*
G01*
X162874900Y-123603360D01*
G75*
G02*
X162724900Y-123753360I-150000J0D01*
G01*
X162424900Y-123753360D01*
G75*
G02*
X162274900Y-123603360I0J150000D01*
G01*
X162274900Y-121953360D01*
G75*
G02*
X162424900Y-121803360I150000J0D01*
G01*
G37*
G36*
G01*
X163694900Y-121803360D02*
X163994900Y-121803360D01*
G75*
G02*
X164144900Y-121953360I0J-150000D01*
G01*
X164144900Y-123603360D01*
G75*
G02*
X163994900Y-123753360I-150000J0D01*
G01*
X163694900Y-123753360D01*
G75*
G02*
X163544900Y-123603360I0J150000D01*
G01*
X163544900Y-121953360D01*
G75*
G02*
X163694900Y-121803360I150000J0D01*
G01*
G37*
G36*
G01*
X164964900Y-121803360D02*
X165264900Y-121803360D01*
G75*
G02*
X165414900Y-121953360I0J-150000D01*
G01*
X165414900Y-123603360D01*
G75*
G02*
X165264900Y-123753360I-150000J0D01*
G01*
X164964900Y-123753360D01*
G75*
G02*
X164814900Y-123603360I0J150000D01*
G01*
X164814900Y-121953360D01*
G75*
G02*
X164964900Y-121803360I150000J0D01*
G01*
G37*
G36*
G01*
X166234900Y-121803360D02*
X166534900Y-121803360D01*
G75*
G02*
X166684900Y-121953360I0J-150000D01*
G01*
X166684900Y-123603360D01*
G75*
G02*
X166534900Y-123753360I-150000J0D01*
G01*
X166234900Y-123753360D01*
G75*
G02*
X166084900Y-123603360I0J150000D01*
G01*
X166084900Y-121953360D01*
G75*
G02*
X166234900Y-121803360I150000J0D01*
G01*
G37*
G36*
G01*
X167504900Y-121803360D02*
X167804900Y-121803360D01*
G75*
G02*
X167954900Y-121953360I0J-150000D01*
G01*
X167954900Y-123603360D01*
G75*
G02*
X167804900Y-123753360I-150000J0D01*
G01*
X167504900Y-123753360D01*
G75*
G02*
X167354900Y-123603360I0J150000D01*
G01*
X167354900Y-121953360D01*
G75*
G02*
X167504900Y-121803360I150000J0D01*
G01*
G37*
G36*
G01*
X167504900Y-116853360D02*
X167804900Y-116853360D01*
G75*
G02*
X167954900Y-117003360I0J-150000D01*
G01*
X167954900Y-118653360D01*
G75*
G02*
X167804900Y-118803360I-150000J0D01*
G01*
X167504900Y-118803360D01*
G75*
G02*
X167354900Y-118653360I0J150000D01*
G01*
X167354900Y-117003360D01*
G75*
G02*
X167504900Y-116853360I150000J0D01*
G01*
G37*
G36*
G01*
X166234900Y-116853360D02*
X166534900Y-116853360D01*
G75*
G02*
X166684900Y-117003360I0J-150000D01*
G01*
X166684900Y-118653360D01*
G75*
G02*
X166534900Y-118803360I-150000J0D01*
G01*
X166234900Y-118803360D01*
G75*
G02*
X166084900Y-118653360I0J150000D01*
G01*
X166084900Y-117003360D01*
G75*
G02*
X166234900Y-116853360I150000J0D01*
G01*
G37*
G36*
G01*
X164964900Y-116853360D02*
X165264900Y-116853360D01*
G75*
G02*
X165414900Y-117003360I0J-150000D01*
G01*
X165414900Y-118653360D01*
G75*
G02*
X165264900Y-118803360I-150000J0D01*
G01*
X164964900Y-118803360D01*
G75*
G02*
X164814900Y-118653360I0J150000D01*
G01*
X164814900Y-117003360D01*
G75*
G02*
X164964900Y-116853360I150000J0D01*
G01*
G37*
G36*
G01*
X163694900Y-116853360D02*
X163994900Y-116853360D01*
G75*
G02*
X164144900Y-117003360I0J-150000D01*
G01*
X164144900Y-118653360D01*
G75*
G02*
X163994900Y-118803360I-150000J0D01*
G01*
X163694900Y-118803360D01*
G75*
G02*
X163544900Y-118653360I0J150000D01*
G01*
X163544900Y-117003360D01*
G75*
G02*
X163694900Y-116853360I150000J0D01*
G01*
G37*
G36*
G01*
X162424900Y-116853360D02*
X162724900Y-116853360D01*
G75*
G02*
X162874900Y-117003360I0J-150000D01*
G01*
X162874900Y-118653360D01*
G75*
G02*
X162724900Y-118803360I-150000J0D01*
G01*
X162424900Y-118803360D01*
G75*
G02*
X162274900Y-118653360I0J150000D01*
G01*
X162274900Y-117003360D01*
G75*
G02*
X162424900Y-116853360I150000J0D01*
G01*
G37*
G36*
G01*
X161154900Y-116853360D02*
X161454900Y-116853360D01*
G75*
G02*
X161604900Y-117003360I0J-150000D01*
G01*
X161604900Y-118653360D01*
G75*
G02*
X161454900Y-118803360I-150000J0D01*
G01*
X161154900Y-118803360D01*
G75*
G02*
X161004900Y-118653360I0J150000D01*
G01*
X161004900Y-117003360D01*
G75*
G02*
X161154900Y-116853360I150000J0D01*
G01*
G37*
G36*
G01*
X159884900Y-116853360D02*
X160184900Y-116853360D01*
G75*
G02*
X160334900Y-117003360I0J-150000D01*
G01*
X160334900Y-118653360D01*
G75*
G02*
X160184900Y-118803360I-150000J0D01*
G01*
X159884900Y-118803360D01*
G75*
G02*
X159734900Y-118653360I0J150000D01*
G01*
X159734900Y-117003360D01*
G75*
G02*
X159884900Y-116853360I150000J0D01*
G01*
G37*
G36*
G01*
X158614900Y-116853360D02*
X158914900Y-116853360D01*
G75*
G02*
X159064900Y-117003360I0J-150000D01*
G01*
X159064900Y-118653360D01*
G75*
G02*
X158914900Y-118803360I-150000J0D01*
G01*
X158614900Y-118803360D01*
G75*
G02*
X158464900Y-118653360I0J150000D01*
G01*
X158464900Y-117003360D01*
G75*
G02*
X158614900Y-116853360I150000J0D01*
G01*
G37*
M02*
