G04 #@! TF.GenerationSoftware,KiCad,Pcbnew,5.1.6+dfsg1-1~bpo10+1*
G04 #@! TF.CreationDate,2020-08-19T20:33:55+03:00*
G04 #@! TF.ProjectId,CompactBeamspringP1,436f6d70-6163-4744-9265-616d73707269,0.0.3*
G04 #@! TF.SameCoordinates,PX66a9bd0PY78114e0*
G04 #@! TF.FileFunction,Copper,L1,Top*
G04 #@! TF.FilePolarity,Positive*
%FSLAX46Y46*%
G04 Gerber Fmt 4.6, Leading zero omitted, Abs format (unit mm)*
G04 Created by KiCad (PCBNEW 5.1.6+dfsg1-1~bpo10+1) date 2020-08-19 20:33:55*
%MOMM*%
%LPD*%
G01*
G04 APERTURE LIST*
G04 #@! TA.AperFunction,EtchedComponent*
%ADD10C,0.100000*%
G04 #@! TD*
G04 #@! TA.AperFunction,ComponentPad*
%ADD11O,3.420000X1.550000*%
G04 #@! TD*
G04 #@! TA.AperFunction,ComponentPad*
%ADD12O,1.700000X1.700000*%
G04 #@! TD*
G04 #@! TA.AperFunction,ComponentPad*
%ADD13R,1.700000X1.700000*%
G04 #@! TD*
G04 #@! TA.AperFunction,ComponentPad*
%ADD14R,1.600000X1.600000*%
G04 #@! TD*
G04 #@! TA.AperFunction,ComponentPad*
%ADD15C,1.600000*%
G04 #@! TD*
G04 #@! TA.AperFunction,ComponentPad*
%ADD16C,3.000000*%
G04 #@! TD*
G04 #@! TA.AperFunction,ViaPad*
%ADD17C,0.600000*%
G04 #@! TD*
G04 #@! TA.AperFunction,ViaPad*
%ADD18C,0.508000*%
G04 #@! TD*
G04 #@! TA.AperFunction,ViaPad*
%ADD19C,1.016000*%
G04 #@! TD*
G04 #@! TA.AperFunction,Conductor*
%ADD20C,0.152400*%
G04 #@! TD*
G04 #@! TA.AperFunction,Conductor*
%ADD21C,0.304800*%
G04 #@! TD*
G04 #@! TA.AperFunction,Conductor*
%ADD22C,0.200000*%
G04 #@! TD*
G04 APERTURE END LIST*
D10*
G36*
X8771980Y14596600D02*
G01*
X11171980Y14596600D01*
X11171980Y15196600D01*
X8771980Y15196600D01*
X8771980Y14596600D01*
G37*
G36*
X7651840Y5452600D02*
G01*
X10051840Y5452600D01*
X10051840Y6052600D01*
X7651840Y6052600D01*
X7651840Y5452600D01*
G37*
D11*
X36381660Y11024620D03*
X40341660Y11024620D03*
X44301660Y11024620D03*
X48261660Y11024620D03*
X52221660Y11024620D03*
X56181660Y11024620D03*
X60141660Y11024620D03*
X64101660Y11024620D03*
X68061660Y11024620D03*
X72021660Y11024620D03*
X75981660Y11024620D03*
X79941660Y11024620D03*
X83901660Y11024620D03*
X87861660Y11024620D03*
X91821660Y11024620D03*
X95781660Y11024620D03*
X99741660Y11024620D03*
X103701660Y11024620D03*
X107661660Y11024620D03*
X111621660Y11024620D03*
X115581660Y11024620D03*
X119541660Y11024620D03*
X123501660Y11024620D03*
X127461660Y11024620D03*
X131421660Y11024620D03*
X135381660Y11024620D03*
X139341660Y11024620D03*
X143301660Y11024620D03*
X147261660Y11024620D03*
X151221660Y11024620D03*
D12*
X41078880Y16897100D03*
X41078880Y14357100D03*
X38538880Y16897100D03*
X38538880Y14357100D03*
X35998880Y16897100D03*
D13*
X35998880Y14357100D03*
D14*
X2346900Y1833380D03*
D15*
X4886900Y1833380D03*
X7426900Y1833380D03*
X9966900Y1833380D03*
X12506900Y1833380D03*
X15046900Y1833380D03*
X17586900Y1833380D03*
X20126900Y1833380D03*
X22666900Y1833380D03*
X25206900Y1833380D03*
X27746900Y1833380D03*
X30286900Y1833380D03*
X30286900Y17073380D03*
X27746900Y17073380D03*
X25206900Y17073380D03*
X22666900Y17073380D03*
X20126900Y17073380D03*
X17586900Y17073380D03*
X15046900Y17073380D03*
X12506900Y17073380D03*
X9966900Y17073380D03*
X7426900Y17073380D03*
X4886900Y17073380D03*
X2346900Y17073380D03*
D16*
X161700000Y1850000D03*
D17*
X8771980Y14896600D03*
X9971980Y14896600D03*
X11171980Y14896600D03*
X7651840Y5752600D03*
X8851840Y5752600D03*
X10051840Y5752600D03*
D18*
X144528000Y4534920D03*
X143222440Y4583180D03*
X144543240Y5886200D03*
X143237680Y5810000D03*
X123860020Y4821940D03*
X91845860Y4946400D03*
X57492360Y5284220D03*
X34510440Y4636520D03*
X125130020Y4893060D03*
X93118400Y4915920D03*
X58769980Y5261360D03*
X36740560Y5007360D03*
X89300780Y4931160D03*
X62841600Y3696720D03*
X121330180Y4700000D03*
X97377980Y4286000D03*
X54947280Y5337560D03*
X133044660Y7534660D03*
X27769760Y7618480D03*
X132976080Y6030980D03*
X23563520Y5181100D03*
X149300000Y5000000D03*
X147550000Y5250000D03*
X147300000Y9500000D03*
X148975000Y9275000D03*
X134300000Y4250000D03*
X134332440Y6061460D03*
X141038040Y7011420D03*
X132292820Y1067820D03*
X137710000Y8120000D03*
X42919030Y1300000D03*
X48488060Y1300000D03*
X37350000Y1300000D03*
X140775000Y1050000D03*
X139550000Y12400000D03*
X141200000Y12050000D03*
X140850000Y9550000D03*
X150300000Y9650000D03*
X153000000Y1925000D03*
X153075000Y3000000D03*
D19*
X145775000Y4575000D03*
X151375000Y4500000D03*
D18*
X152400000Y9000000D03*
X160250000Y11750000D03*
X157900000Y11700000D03*
X155550000Y11750000D03*
X157850000Y3050000D03*
X159550000Y3600000D03*
X154350000Y4500000D03*
X162850000Y4250000D03*
X159200000Y800000D03*
D19*
X145775000Y5750000D03*
X151475000Y5700000D03*
D18*
X27200000Y5350000D03*
X21851707Y12748293D03*
X26350000Y5400000D03*
X20900000Y13500000D03*
D19*
X12042080Y8268720D03*
D18*
X69176360Y7400000D03*
X70220300Y4230120D03*
X109806884Y7323840D03*
X103320652Y7323840D03*
X96834420Y7323840D03*
X95064040Y4646680D03*
X129229580Y6145280D03*
X129079720Y7971540D03*
X125984840Y6591160D03*
X117751320Y7501640D03*
X114583940Y7735320D03*
X82036380Y7392420D03*
X85384100Y7448300D03*
X62808580Y7400000D03*
X50592560Y6591160D03*
X47026400Y6591160D03*
X106563768Y7323840D03*
X100077536Y7323840D03*
X113050000Y7323840D03*
X65992470Y7400000D03*
X72750000Y7400000D03*
X90570780Y5022600D03*
X64670400Y4123440D03*
X81096580Y4092960D03*
X76135960Y4100580D03*
X77300000Y7400000D03*
X74400000Y7400000D03*
X40118760Y6655820D03*
X52445380Y4926080D03*
X38709060Y9820660D03*
X38861460Y12586720D03*
X128890000Y4370000D03*
X33370000Y5400000D03*
X106170000Y4400000D03*
X33758600Y16886940D03*
X42315860Y12111740D03*
X46275860Y12111740D03*
X50235860Y12111740D03*
X54195860Y12111740D03*
X58155860Y12111740D03*
X62115860Y12111740D03*
X66075860Y12111740D03*
X70035860Y12111740D03*
X73995860Y12111740D03*
X77955860Y12111740D03*
X81915860Y12111740D03*
X85875860Y12111740D03*
X89835860Y12111740D03*
X93795860Y12111740D03*
X97755860Y12111740D03*
X101715860Y12111740D03*
X105675860Y12111740D03*
X109635860Y12111740D03*
X113595860Y12111740D03*
X117555860Y12111740D03*
X121515860Y12111740D03*
X125475860Y12111740D03*
X129435860Y12111740D03*
D19*
X24300000Y10950000D03*
D18*
X28200000Y4050000D03*
X15500000Y13800000D03*
X85400000Y4100000D03*
X117850000Y4400000D03*
X17900000Y9700000D03*
X20050000Y7650000D03*
X21700000Y5850000D03*
X24700000Y7000000D03*
X21900000Y9900000D03*
X26550000Y7950000D03*
X38300000Y5100000D03*
X35150000Y7000000D03*
X34600000Y14350000D03*
X25150000Y13500000D03*
D20*
X18615501Y804779D02*
X17586900Y1833380D01*
X33865120Y2589270D02*
X32080629Y804779D01*
X32080629Y804779D02*
X18615501Y804779D01*
X142582350Y2589270D02*
X33865120Y2589270D01*
X144528000Y4534920D02*
X142582350Y2589270D01*
X141533340Y2894080D02*
X143222440Y4583180D01*
X30717399Y5882601D02*
X33705920Y2894080D01*
X25968351Y5882601D02*
X30717399Y5882601D01*
X25717399Y5631649D02*
X25968351Y5882601D01*
X23849849Y2861981D02*
X25717399Y4729531D01*
X33705920Y2894080D02*
X141533340Y2894080D01*
X25717399Y4729531D02*
X25717399Y5631649D01*
X21155501Y2861981D02*
X23849849Y2861981D01*
X20126900Y1833380D02*
X21155501Y2861981D01*
X16573520Y5900000D02*
X12506900Y1833380D01*
X19900000Y5900000D02*
X16573520Y5900000D01*
X133172169Y9109461D02*
X23109461Y9109461D01*
X135768049Y6513581D02*
X133172169Y9109461D01*
X143915859Y6513581D02*
X135768049Y6513581D01*
X23109461Y9109461D02*
X19900000Y5900000D01*
X144543240Y5886200D02*
X143915859Y6513581D01*
X17912019Y4698499D02*
X15046900Y1833380D01*
X25484980Y6284980D02*
X23898499Y4698499D01*
X54488050Y4164080D02*
X40713120Y4164080D01*
X40713120Y4164080D02*
X38592220Y6284980D01*
X92340416Y6124970D02*
X56448941Y6124971D01*
X92856035Y5609351D02*
X92340416Y6124970D01*
X23898499Y4698499D02*
X17912019Y4698499D01*
X125127979Y5609351D02*
X92856035Y5609351D01*
X125425171Y5312159D02*
X125127979Y5609351D01*
X56448941Y6124971D02*
X54488050Y4164080D01*
X142739839Y5312159D02*
X125425171Y5312159D01*
X38592220Y6284980D02*
X25484980Y6284980D01*
X143237680Y5810000D02*
X142739839Y5312159D01*
X92988861Y3803399D02*
X91845860Y4946400D01*
X122841479Y3803399D02*
X92988861Y3803399D01*
X123860020Y4821940D02*
X122841479Y3803399D01*
X59562461Y3214119D02*
X57492360Y5284220D01*
X90113579Y3214119D02*
X59562461Y3214119D01*
X91845860Y4946400D02*
X90113579Y3214119D01*
X34510440Y4529840D02*
X34510440Y4636520D01*
X35485820Y3554460D02*
X34510440Y4529840D01*
X57492360Y5284220D02*
X56470322Y5284220D01*
X54740562Y3554460D02*
X56470322Y5284220D01*
X54245540Y3554460D02*
X54740562Y3554460D01*
X54245540Y3554460D02*
X35485820Y3554460D01*
X93507021Y5304541D02*
X93118400Y4915920D01*
X124718539Y5304541D02*
X93507021Y5304541D01*
X125130020Y4893060D02*
X124718539Y5304541D01*
X59328781Y5820161D02*
X58769980Y5261360D01*
X92214159Y5820161D02*
X59328781Y5820161D01*
X93118400Y4915920D02*
X92214159Y5820161D01*
X54614306Y3859270D02*
X38201070Y3859270D01*
X56521857Y5766821D02*
X54614306Y3859270D01*
X58264519Y5766821D02*
X56521857Y5766821D01*
X58769980Y5261360D02*
X58264519Y5766821D01*
X37888650Y3859270D02*
X36740560Y5007360D01*
X38201070Y3859270D02*
X37888650Y3859270D01*
X64076040Y4931160D02*
X62841600Y3696720D01*
X89300780Y4931160D02*
X64076040Y4931160D01*
X97878360Y4786380D02*
X97377980Y4286000D01*
X97886380Y4786380D02*
X98099731Y4999731D01*
X97878360Y4786380D02*
X97886380Y4786380D01*
X121030449Y4999731D02*
X120800269Y4999731D01*
X121330180Y4700000D02*
X121030449Y4999731D01*
X98099731Y4999731D02*
X120800269Y4999731D01*
X54947280Y7623560D02*
X54947280Y5337560D01*
X55823561Y8499841D02*
X54947280Y7623560D01*
X132079479Y8499841D02*
X55823561Y8499841D01*
X133044660Y7534660D02*
X132079479Y8499841D01*
X54947280Y7623560D02*
X29598080Y7623560D01*
X28293000Y7618480D02*
X28298080Y7623560D01*
X27769760Y7618480D02*
X28293000Y7618480D01*
X29593000Y7618480D02*
X29598080Y7623560D01*
X28293000Y7618480D02*
X29593000Y7618480D01*
X23563520Y7378934D02*
X23563520Y5181100D01*
X24989237Y8804651D02*
X23563520Y7378934D01*
X133862540Y7925820D02*
X132983709Y8804651D01*
X133862540Y6917440D02*
X133862540Y7925820D01*
X132976080Y6030980D02*
X133862540Y6917440D01*
X24989237Y8804651D02*
X26395349Y8804651D01*
X26395349Y8804651D02*
X26289237Y8804651D01*
X132983709Y8804651D02*
X26395349Y8804651D01*
D21*
X146282999Y6257999D02*
X150929902Y6257999D01*
X145775000Y5750000D02*
X146282999Y6257999D01*
X150929902Y6245098D02*
X151475000Y5700000D01*
X150929902Y6257999D02*
X150929902Y6245098D01*
D20*
X25206900Y1833380D02*
X25206900Y3356900D01*
X25206900Y3356900D02*
X27200000Y5350000D01*
X33452150Y14202150D02*
X23305563Y14202149D01*
X34685701Y15435701D02*
X33452150Y14202150D01*
X40000279Y15435701D02*
X34685701Y15435701D01*
X23305563Y14202149D02*
X21851707Y12748293D01*
X41078880Y14357100D02*
X40000279Y15435701D01*
X35998880Y16897100D02*
X35998880Y16348880D01*
X5915501Y1339651D02*
X5380629Y804779D01*
X5380629Y804779D02*
X3375501Y804779D01*
X5300000Y2942610D02*
X5915501Y2327109D01*
X5300000Y8350000D02*
X5300000Y2942610D01*
X3375501Y804779D02*
X2346900Y1833380D01*
X7100000Y10150000D02*
X5300000Y8350000D01*
X21497519Y14811769D02*
X16835750Y10150000D01*
X16835750Y10150000D02*
X7100000Y10150000D01*
X34433187Y16045319D02*
X33199637Y14811769D01*
X5915501Y2327109D02*
X5915501Y1339651D01*
X33199637Y14811769D02*
X21497519Y14811769D01*
X35147099Y16045319D02*
X34433187Y16045319D01*
X35998880Y16897100D02*
X35147099Y16045319D01*
X26200000Y5366480D02*
X26200000Y5400000D01*
X23252314Y1833380D02*
X22666900Y1833380D01*
X26350000Y4931066D02*
X23252314Y1833380D01*
X26350000Y5400000D02*
X26350000Y4931066D01*
X21906959Y14506959D02*
X20900000Y13500000D01*
X33325893Y14506959D02*
X21906959Y14506959D01*
X42157481Y13839371D02*
X42157481Y14874829D01*
X41291800Y15740510D02*
X34559444Y15740510D01*
X41596609Y13278499D02*
X42157481Y13839371D01*
X34559444Y15740510D02*
X33325893Y14506959D01*
X40123451Y13278499D02*
X41596609Y13278499D01*
X42157481Y14874829D02*
X41291800Y15740510D01*
X39044850Y14357100D02*
X40123451Y13278499D01*
X38538880Y14357100D02*
X39044850Y14357100D01*
X4995190Y1941670D02*
X4886900Y1833380D01*
X4995190Y8476256D02*
X4995190Y1941670D01*
X6973743Y10454809D02*
X4995190Y8476256D01*
X16709494Y10454810D02*
X6973743Y10454809D01*
X33073381Y15116579D02*
X21371262Y15116578D01*
X34241201Y16284399D02*
X33073381Y15116579D01*
X21371262Y15116578D02*
X16709494Y10454810D01*
X35481151Y17975701D02*
X34241201Y16735751D01*
X34241201Y16735751D02*
X34241201Y16284399D01*
X37460279Y17975701D02*
X35481151Y17975701D01*
X38538880Y16897100D02*
X37460279Y17975701D01*
D21*
X18768720Y8268720D02*
X12042080Y8268720D01*
X23109374Y12609374D02*
X18768720Y8268720D01*
X34251154Y12609374D02*
X23109374Y12609374D01*
X35998880Y14357100D02*
X34251154Y12609374D01*
X36381660Y11024620D02*
X33161700Y11024620D01*
X31861700Y11024620D02*
X31625480Y11024620D01*
X30289440Y11024620D02*
X30284360Y11019540D01*
X31625480Y11024620D02*
X30289440Y11024620D01*
X7651840Y5752600D02*
X6797400Y5752600D01*
X24374620Y11024620D02*
X24300000Y10950000D01*
X30289440Y11024620D02*
X24374620Y11024620D01*
D22*
G36*
X163012479Y12965545D02*
G01*
X163072578Y12947401D01*
X163128011Y12917927D01*
X163176662Y12878248D01*
X163216678Y12829878D01*
X163246537Y12774653D01*
X163265101Y12714684D01*
X163273001Y12639517D01*
X163273000Y3086161D01*
X163194937Y3127148D01*
X161917789Y1850000D01*
X161931931Y1835858D01*
X161714142Y1618069D01*
X161700000Y1632211D01*
X160422852Y355063D01*
X160463839Y277000D01*
X32300000Y277000D01*
X32300000Y559722D01*
X32314108Y571300D01*
X32324395Y583835D01*
X33472150Y1731590D01*
X157171600Y1731590D01*
X157171600Y1568410D01*
X157203435Y1408365D01*
X157265882Y1257606D01*
X157356540Y1121926D01*
X157471926Y1006540D01*
X157607606Y915882D01*
X157758365Y853435D01*
X157918410Y821600D01*
X158081590Y821600D01*
X158241635Y853435D01*
X158392394Y915882D01*
X158528074Y1006540D01*
X158643460Y1121926D01*
X158734118Y1257606D01*
X158796565Y1408365D01*
X158828400Y1568410D01*
X158828400Y1731590D01*
X158818959Y1779058D01*
X159582988Y1779058D01*
X159637506Y1367413D01*
X159771284Y974313D01*
X159900356Y732837D01*
X160205063Y572852D01*
X161482211Y1850000D01*
X160205063Y3127148D01*
X159900356Y2967163D01*
X159716988Y2594604D01*
X159609826Y2193430D01*
X159582988Y1779058D01*
X158818959Y1779058D01*
X158796565Y1891635D01*
X158734118Y2042394D01*
X158643460Y2178074D01*
X158528074Y2293460D01*
X158392394Y2384118D01*
X158241635Y2446565D01*
X158081590Y2478400D01*
X157918410Y2478400D01*
X157758365Y2446565D01*
X157607606Y2384118D01*
X157471926Y2293460D01*
X157356540Y2178074D01*
X157265882Y2042394D01*
X157203435Y1891635D01*
X157171600Y1731590D01*
X33472150Y1731590D01*
X34001231Y2260670D01*
X142566218Y2260670D01*
X142582350Y2259081D01*
X142598482Y2260670D01*
X142598485Y2260670D01*
X142646767Y2265425D01*
X142708708Y2284215D01*
X142765793Y2314728D01*
X142815829Y2355791D01*
X142826116Y2368326D01*
X143802727Y3344937D01*
X160422852Y3344937D01*
X161700000Y2067789D01*
X162977148Y3344937D01*
X162817163Y3649644D01*
X162444604Y3833012D01*
X162043430Y3940174D01*
X161629058Y3967012D01*
X161217413Y3912494D01*
X160824313Y3778716D01*
X160582837Y3649644D01*
X160422852Y3344937D01*
X143802727Y3344937D01*
X144486310Y4028520D01*
X144577876Y4028520D01*
X144675711Y4047981D01*
X144767870Y4086154D01*
X144850811Y4141574D01*
X144921346Y4212109D01*
X144976766Y4295050D01*
X145014939Y4387209D01*
X145034400Y4485044D01*
X145034400Y4584796D01*
X145014939Y4682631D01*
X144976766Y4774790D01*
X144921346Y4857731D01*
X144850811Y4928266D01*
X144767870Y4983686D01*
X144675711Y5021859D01*
X144577876Y5041320D01*
X144478124Y5041320D01*
X144380289Y5021859D01*
X144288130Y4983686D01*
X144205189Y4928266D01*
X144134654Y4857731D01*
X144079234Y4774790D01*
X144041061Y4682631D01*
X144021600Y4584796D01*
X144021600Y4493230D01*
X142446240Y2917870D01*
X142021840Y2917870D01*
X143180751Y4076780D01*
X143272316Y4076780D01*
X143370151Y4096241D01*
X143462310Y4134414D01*
X143545251Y4189834D01*
X143615786Y4260369D01*
X143671206Y4343310D01*
X143709379Y4435469D01*
X143728840Y4533304D01*
X143728840Y4633056D01*
X143709379Y4730891D01*
X143671206Y4823050D01*
X143615786Y4905991D01*
X143545251Y4976526D01*
X143462310Y5031946D01*
X143370151Y5070119D01*
X143272316Y5089580D01*
X143172564Y5089580D01*
X143074729Y5070119D01*
X142982570Y5031946D01*
X142899629Y4976526D01*
X142829094Y4905991D01*
X142773674Y4823050D01*
X142735501Y4730891D01*
X142716040Y4633056D01*
X142716040Y4541491D01*
X141397230Y3222680D01*
X130270000Y3222680D01*
X130270000Y4983559D01*
X142723707Y4983559D01*
X142739839Y4981970D01*
X142755971Y4983559D01*
X142755974Y4983559D01*
X142804256Y4988314D01*
X142866197Y5007104D01*
X142923282Y5037617D01*
X142973318Y5078680D01*
X142983605Y5091215D01*
X143195990Y5303600D01*
X143287556Y5303600D01*
X143385391Y5323061D01*
X143477550Y5361234D01*
X143560491Y5416654D01*
X143631026Y5487189D01*
X143686446Y5570130D01*
X143724619Y5662289D01*
X143744080Y5760124D01*
X143744080Y5859876D01*
X143724619Y5957711D01*
X143686446Y6049870D01*
X143631026Y6132811D01*
X143578856Y6184981D01*
X143779749Y6184981D01*
X144036840Y5927890D01*
X144036840Y5836324D01*
X144056301Y5738489D01*
X144094474Y5646330D01*
X144149894Y5563389D01*
X144220429Y5492854D01*
X144303370Y5437434D01*
X144395529Y5399261D01*
X144493364Y5379800D01*
X144593116Y5379800D01*
X144690951Y5399261D01*
X144783110Y5437434D01*
X144866051Y5492854D01*
X144936586Y5563389D01*
X144992006Y5646330D01*
X145014600Y5700877D01*
X145014600Y5675107D01*
X145043822Y5528200D01*
X145101142Y5389816D01*
X145184359Y5265273D01*
X145290273Y5159359D01*
X145414816Y5076142D01*
X145553200Y5018822D01*
X145700107Y4989600D01*
X145849893Y4989600D01*
X145996800Y5018822D01*
X146135184Y5076142D01*
X146259727Y5159359D01*
X146365641Y5265273D01*
X146448858Y5389816D01*
X146506178Y5528200D01*
X146535400Y5675107D01*
X146535400Y5824893D01*
X146529770Y5853199D01*
X150730176Y5853199D01*
X150714600Y5774893D01*
X150714600Y5625107D01*
X150743822Y5478200D01*
X150801142Y5339816D01*
X150884359Y5215273D01*
X150990273Y5109359D01*
X151114816Y5026142D01*
X151253200Y4968822D01*
X151400107Y4939600D01*
X151549893Y4939600D01*
X151696800Y4968822D01*
X151835184Y5026142D01*
X151959727Y5109359D01*
X152065641Y5215273D01*
X152148858Y5339816D01*
X152206178Y5478200D01*
X152235400Y5625107D01*
X152235400Y5774893D01*
X152206178Y5921800D01*
X152148858Y6060184D01*
X152065641Y6184727D01*
X151959727Y6290641D01*
X151835184Y6373858D01*
X151696800Y6431178D01*
X151549893Y6460400D01*
X151400107Y6460400D01*
X151305827Y6441646D01*
X151273411Y6474062D01*
X151268109Y6483982D01*
X151217523Y6545620D01*
X151155885Y6596206D01*
X151085562Y6633794D01*
X151009257Y6656941D01*
X150949781Y6662799D01*
X150929902Y6664757D01*
X150910023Y6662799D01*
X146302870Y6662799D01*
X146282998Y6664756D01*
X146263126Y6662799D01*
X146263120Y6662799D01*
X146203644Y6656941D01*
X146127339Y6633794D01*
X146057016Y6596206D01*
X146034830Y6577998D01*
X146010818Y6558292D01*
X146010815Y6558289D01*
X145995378Y6545620D01*
X145982708Y6530182D01*
X145944173Y6491646D01*
X145849893Y6510400D01*
X145700107Y6510400D01*
X145553200Y6481178D01*
X145414816Y6423858D01*
X145290273Y6340641D01*
X145184359Y6234727D01*
X145101142Y6110184D01*
X145043822Y5971800D01*
X145043178Y5968562D01*
X145030179Y6033911D01*
X144992006Y6126070D01*
X144936586Y6209011D01*
X144866051Y6279546D01*
X144783110Y6334966D01*
X144690951Y6373139D01*
X144593116Y6392600D01*
X144501550Y6392600D01*
X144159623Y6734527D01*
X144149338Y6747060D01*
X144099302Y6788123D01*
X144042217Y6818636D01*
X143980276Y6837426D01*
X143931994Y6842181D01*
X143931991Y6842181D01*
X143915859Y6843770D01*
X143899727Y6842181D01*
X135904159Y6842181D01*
X133590000Y9156340D01*
X133590000Y10448963D01*
X133716663Y10294623D01*
X133873105Y10166235D01*
X134051589Y10070834D01*
X134245254Y10012086D01*
X134396189Y9997220D01*
X136367131Y9997220D01*
X136518066Y10012086D01*
X136711731Y10070834D01*
X136890215Y10166235D01*
X137046657Y10294623D01*
X137175045Y10451065D01*
X137270446Y10629549D01*
X137329194Y10823214D01*
X137347671Y11010817D01*
X137375463Y11012697D01*
X137394126Y10823214D01*
X137452874Y10629549D01*
X137548275Y10451065D01*
X137676663Y10294623D01*
X137833105Y10166235D01*
X138011589Y10070834D01*
X138205254Y10012086D01*
X138356189Y9997220D01*
X140327131Y9997220D01*
X140478066Y10012086D01*
X140671731Y10070834D01*
X140850215Y10166235D01*
X141006657Y10294623D01*
X141135045Y10451065D01*
X141230446Y10629549D01*
X141289194Y10823214D01*
X141309031Y11024620D01*
X141334289Y11024620D01*
X141354126Y10823214D01*
X141412874Y10629549D01*
X141508275Y10451065D01*
X141636663Y10294623D01*
X141793105Y10166235D01*
X141971589Y10070834D01*
X142165254Y10012086D01*
X142316189Y9997220D01*
X144287131Y9997220D01*
X144438066Y10012086D01*
X144631731Y10070834D01*
X144810215Y10166235D01*
X144966657Y10294623D01*
X145095045Y10451065D01*
X145190446Y10629549D01*
X145249194Y10823214D01*
X145269031Y11024620D01*
X145294289Y11024620D01*
X145314126Y10823214D01*
X145372874Y10629549D01*
X145468275Y10451065D01*
X145596663Y10294623D01*
X145753105Y10166235D01*
X145931589Y10070834D01*
X146125254Y10012086D01*
X146276189Y9997220D01*
X148247131Y9997220D01*
X148398066Y10012086D01*
X148591731Y10070834D01*
X148770215Y10166235D01*
X148926657Y10294623D01*
X149055045Y10451065D01*
X149150446Y10629549D01*
X149209194Y10823214D01*
X149229031Y11024620D01*
X149254289Y11024620D01*
X149274126Y10823214D01*
X149332874Y10629549D01*
X149428275Y10451065D01*
X149556663Y10294623D01*
X149713105Y10166235D01*
X149891589Y10070834D01*
X150085254Y10012086D01*
X150236189Y9997220D01*
X152207131Y9997220D01*
X152358066Y10012086D01*
X152551731Y10070834D01*
X152730215Y10166235D01*
X152886657Y10294623D01*
X153015045Y10451065D01*
X153110446Y10629549D01*
X153169194Y10823214D01*
X153189031Y11024620D01*
X153169194Y11226026D01*
X153110446Y11419691D01*
X153015045Y11598175D01*
X152886657Y11754617D01*
X152730215Y11883005D01*
X152551731Y11978406D01*
X152358066Y12037154D01*
X152207131Y12052020D01*
X150236189Y12052020D01*
X150085254Y12037154D01*
X149891589Y11978406D01*
X149713105Y11883005D01*
X149556663Y11754617D01*
X149428275Y11598175D01*
X149332874Y11419691D01*
X149274126Y11226026D01*
X149254289Y11024620D01*
X149229031Y11024620D01*
X149209194Y11226026D01*
X149150446Y11419691D01*
X149055045Y11598175D01*
X148926657Y11754617D01*
X148770215Y11883005D01*
X148591731Y11978406D01*
X148398066Y12037154D01*
X148247131Y12052020D01*
X146276189Y12052020D01*
X146125254Y12037154D01*
X145931589Y11978406D01*
X145753105Y11883005D01*
X145596663Y11754617D01*
X145468275Y11598175D01*
X145372874Y11419691D01*
X145314126Y11226026D01*
X145294289Y11024620D01*
X145269031Y11024620D01*
X145249194Y11226026D01*
X145190446Y11419691D01*
X145095045Y11598175D01*
X144966657Y11754617D01*
X144810215Y11883005D01*
X144631731Y11978406D01*
X144438066Y12037154D01*
X144287131Y12052020D01*
X142316189Y12052020D01*
X142165254Y12037154D01*
X141971589Y11978406D01*
X141793105Y11883005D01*
X141636663Y11754617D01*
X141508275Y11598175D01*
X141412874Y11419691D01*
X141354126Y11226026D01*
X141334289Y11024620D01*
X141309031Y11024620D01*
X141289194Y11226026D01*
X141230446Y11419691D01*
X141135045Y11598175D01*
X141006657Y11754617D01*
X140850215Y11883005D01*
X140671731Y11978406D01*
X140478066Y12037154D01*
X140327131Y12052020D01*
X138356189Y12052020D01*
X138205254Y12037154D01*
X138011589Y11978406D01*
X137833105Y11883005D01*
X137676663Y11754617D01*
X137580000Y11636832D01*
X137580000Y12973000D01*
X162936452Y12973000D01*
X163012479Y12965545D01*
G37*
X163012479Y12965545D02*
X163072578Y12947401D01*
X163128011Y12917927D01*
X163176662Y12878248D01*
X163216678Y12829878D01*
X163246537Y12774653D01*
X163265101Y12714684D01*
X163273001Y12639517D01*
X163273000Y3086161D01*
X163194937Y3127148D01*
X161917789Y1850000D01*
X161931931Y1835858D01*
X161714142Y1618069D01*
X161700000Y1632211D01*
X160422852Y355063D01*
X160463839Y277000D01*
X32300000Y277000D01*
X32300000Y559722D01*
X32314108Y571300D01*
X32324395Y583835D01*
X33472150Y1731590D01*
X157171600Y1731590D01*
X157171600Y1568410D01*
X157203435Y1408365D01*
X157265882Y1257606D01*
X157356540Y1121926D01*
X157471926Y1006540D01*
X157607606Y915882D01*
X157758365Y853435D01*
X157918410Y821600D01*
X158081590Y821600D01*
X158241635Y853435D01*
X158392394Y915882D01*
X158528074Y1006540D01*
X158643460Y1121926D01*
X158734118Y1257606D01*
X158796565Y1408365D01*
X158828400Y1568410D01*
X158828400Y1731590D01*
X158818959Y1779058D01*
X159582988Y1779058D01*
X159637506Y1367413D01*
X159771284Y974313D01*
X159900356Y732837D01*
X160205063Y572852D01*
X161482211Y1850000D01*
X160205063Y3127148D01*
X159900356Y2967163D01*
X159716988Y2594604D01*
X159609826Y2193430D01*
X159582988Y1779058D01*
X158818959Y1779058D01*
X158796565Y1891635D01*
X158734118Y2042394D01*
X158643460Y2178074D01*
X158528074Y2293460D01*
X158392394Y2384118D01*
X158241635Y2446565D01*
X158081590Y2478400D01*
X157918410Y2478400D01*
X157758365Y2446565D01*
X157607606Y2384118D01*
X157471926Y2293460D01*
X157356540Y2178074D01*
X157265882Y2042394D01*
X157203435Y1891635D01*
X157171600Y1731590D01*
X33472150Y1731590D01*
X34001231Y2260670D01*
X142566218Y2260670D01*
X142582350Y2259081D01*
X142598482Y2260670D01*
X142598485Y2260670D01*
X142646767Y2265425D01*
X142708708Y2284215D01*
X142765793Y2314728D01*
X142815829Y2355791D01*
X142826116Y2368326D01*
X143802727Y3344937D01*
X160422852Y3344937D01*
X161700000Y2067789D01*
X162977148Y3344937D01*
X162817163Y3649644D01*
X162444604Y3833012D01*
X162043430Y3940174D01*
X161629058Y3967012D01*
X161217413Y3912494D01*
X160824313Y3778716D01*
X160582837Y3649644D01*
X160422852Y3344937D01*
X143802727Y3344937D01*
X144486310Y4028520D01*
X144577876Y4028520D01*
X144675711Y4047981D01*
X144767870Y4086154D01*
X144850811Y4141574D01*
X144921346Y4212109D01*
X144976766Y4295050D01*
X145014939Y4387209D01*
X145034400Y4485044D01*
X145034400Y4584796D01*
X145014939Y4682631D01*
X144976766Y4774790D01*
X144921346Y4857731D01*
X144850811Y4928266D01*
X144767870Y4983686D01*
X144675711Y5021859D01*
X144577876Y5041320D01*
X144478124Y5041320D01*
X144380289Y5021859D01*
X144288130Y4983686D01*
X144205189Y4928266D01*
X144134654Y4857731D01*
X144079234Y4774790D01*
X144041061Y4682631D01*
X144021600Y4584796D01*
X144021600Y4493230D01*
X142446240Y2917870D01*
X142021840Y2917870D01*
X143180751Y4076780D01*
X143272316Y4076780D01*
X143370151Y4096241D01*
X143462310Y4134414D01*
X143545251Y4189834D01*
X143615786Y4260369D01*
X143671206Y4343310D01*
X143709379Y4435469D01*
X143728840Y4533304D01*
X143728840Y4633056D01*
X143709379Y4730891D01*
X143671206Y4823050D01*
X143615786Y4905991D01*
X143545251Y4976526D01*
X143462310Y5031946D01*
X143370151Y5070119D01*
X143272316Y5089580D01*
X143172564Y5089580D01*
X143074729Y5070119D01*
X142982570Y5031946D01*
X142899629Y4976526D01*
X142829094Y4905991D01*
X142773674Y4823050D01*
X142735501Y4730891D01*
X142716040Y4633056D01*
X142716040Y4541491D01*
X141397230Y3222680D01*
X130270000Y3222680D01*
X130270000Y4983559D01*
X142723707Y4983559D01*
X142739839Y4981970D01*
X142755971Y4983559D01*
X142755974Y4983559D01*
X142804256Y4988314D01*
X142866197Y5007104D01*
X142923282Y5037617D01*
X142973318Y5078680D01*
X142983605Y5091215D01*
X143195990Y5303600D01*
X143287556Y5303600D01*
X143385391Y5323061D01*
X143477550Y5361234D01*
X143560491Y5416654D01*
X143631026Y5487189D01*
X143686446Y5570130D01*
X143724619Y5662289D01*
X143744080Y5760124D01*
X143744080Y5859876D01*
X143724619Y5957711D01*
X143686446Y6049870D01*
X143631026Y6132811D01*
X143578856Y6184981D01*
X143779749Y6184981D01*
X144036840Y5927890D01*
X144036840Y5836324D01*
X144056301Y5738489D01*
X144094474Y5646330D01*
X144149894Y5563389D01*
X144220429Y5492854D01*
X144303370Y5437434D01*
X144395529Y5399261D01*
X144493364Y5379800D01*
X144593116Y5379800D01*
X144690951Y5399261D01*
X144783110Y5437434D01*
X144866051Y5492854D01*
X144936586Y5563389D01*
X144992006Y5646330D01*
X145014600Y5700877D01*
X145014600Y5675107D01*
X145043822Y5528200D01*
X145101142Y5389816D01*
X145184359Y5265273D01*
X145290273Y5159359D01*
X145414816Y5076142D01*
X145553200Y5018822D01*
X145700107Y4989600D01*
X145849893Y4989600D01*
X145996800Y5018822D01*
X146135184Y5076142D01*
X146259727Y5159359D01*
X146365641Y5265273D01*
X146448858Y5389816D01*
X146506178Y5528200D01*
X146535400Y5675107D01*
X146535400Y5824893D01*
X146529770Y5853199D01*
X150730176Y5853199D01*
X150714600Y5774893D01*
X150714600Y5625107D01*
X150743822Y5478200D01*
X150801142Y5339816D01*
X150884359Y5215273D01*
X150990273Y5109359D01*
X151114816Y5026142D01*
X151253200Y4968822D01*
X151400107Y4939600D01*
X151549893Y4939600D01*
X151696800Y4968822D01*
X151835184Y5026142D01*
X151959727Y5109359D01*
X152065641Y5215273D01*
X152148858Y5339816D01*
X152206178Y5478200D01*
X152235400Y5625107D01*
X152235400Y5774893D01*
X152206178Y5921800D01*
X152148858Y6060184D01*
X152065641Y6184727D01*
X151959727Y6290641D01*
X151835184Y6373858D01*
X151696800Y6431178D01*
X151549893Y6460400D01*
X151400107Y6460400D01*
X151305827Y6441646D01*
X151273411Y6474062D01*
X151268109Y6483982D01*
X151217523Y6545620D01*
X151155885Y6596206D01*
X151085562Y6633794D01*
X151009257Y6656941D01*
X150949781Y6662799D01*
X150929902Y6664757D01*
X150910023Y6662799D01*
X146302870Y6662799D01*
X146282998Y6664756D01*
X146263126Y6662799D01*
X146263120Y6662799D01*
X146203644Y6656941D01*
X146127339Y6633794D01*
X146057016Y6596206D01*
X146034830Y6577998D01*
X146010818Y6558292D01*
X146010815Y6558289D01*
X145995378Y6545620D01*
X145982708Y6530182D01*
X145944173Y6491646D01*
X145849893Y6510400D01*
X145700107Y6510400D01*
X145553200Y6481178D01*
X145414816Y6423858D01*
X145290273Y6340641D01*
X145184359Y6234727D01*
X145101142Y6110184D01*
X145043822Y5971800D01*
X145043178Y5968562D01*
X145030179Y6033911D01*
X144992006Y6126070D01*
X144936586Y6209011D01*
X144866051Y6279546D01*
X144783110Y6334966D01*
X144690951Y6373139D01*
X144593116Y6392600D01*
X144501550Y6392600D01*
X144159623Y6734527D01*
X144149338Y6747060D01*
X144099302Y6788123D01*
X144042217Y6818636D01*
X143980276Y6837426D01*
X143931994Y6842181D01*
X143931991Y6842181D01*
X143915859Y6843770D01*
X143899727Y6842181D01*
X135904159Y6842181D01*
X133590000Y9156340D01*
X133590000Y10448963D01*
X133716663Y10294623D01*
X133873105Y10166235D01*
X134051589Y10070834D01*
X134245254Y10012086D01*
X134396189Y9997220D01*
X136367131Y9997220D01*
X136518066Y10012086D01*
X136711731Y10070834D01*
X136890215Y10166235D01*
X137046657Y10294623D01*
X137175045Y10451065D01*
X137270446Y10629549D01*
X137329194Y10823214D01*
X137347671Y11010817D01*
X137375463Y11012697D01*
X137394126Y10823214D01*
X137452874Y10629549D01*
X137548275Y10451065D01*
X137676663Y10294623D01*
X137833105Y10166235D01*
X138011589Y10070834D01*
X138205254Y10012086D01*
X138356189Y9997220D01*
X140327131Y9997220D01*
X140478066Y10012086D01*
X140671731Y10070834D01*
X140850215Y10166235D01*
X141006657Y10294623D01*
X141135045Y10451065D01*
X141230446Y10629549D01*
X141289194Y10823214D01*
X141309031Y11024620D01*
X141334289Y11024620D01*
X141354126Y10823214D01*
X141412874Y10629549D01*
X141508275Y10451065D01*
X141636663Y10294623D01*
X141793105Y10166235D01*
X141971589Y10070834D01*
X142165254Y10012086D01*
X142316189Y9997220D01*
X144287131Y9997220D01*
X144438066Y10012086D01*
X144631731Y10070834D01*
X144810215Y10166235D01*
X144966657Y10294623D01*
X145095045Y10451065D01*
X145190446Y10629549D01*
X145249194Y10823214D01*
X145269031Y11024620D01*
X145294289Y11024620D01*
X145314126Y10823214D01*
X145372874Y10629549D01*
X145468275Y10451065D01*
X145596663Y10294623D01*
X145753105Y10166235D01*
X145931589Y10070834D01*
X146125254Y10012086D01*
X146276189Y9997220D01*
X148247131Y9997220D01*
X148398066Y10012086D01*
X148591731Y10070834D01*
X148770215Y10166235D01*
X148926657Y10294623D01*
X149055045Y10451065D01*
X149150446Y10629549D01*
X149209194Y10823214D01*
X149229031Y11024620D01*
X149254289Y11024620D01*
X149274126Y10823214D01*
X149332874Y10629549D01*
X149428275Y10451065D01*
X149556663Y10294623D01*
X149713105Y10166235D01*
X149891589Y10070834D01*
X150085254Y10012086D01*
X150236189Y9997220D01*
X152207131Y9997220D01*
X152358066Y10012086D01*
X152551731Y10070834D01*
X152730215Y10166235D01*
X152886657Y10294623D01*
X153015045Y10451065D01*
X153110446Y10629549D01*
X153169194Y10823214D01*
X153189031Y11024620D01*
X153169194Y11226026D01*
X153110446Y11419691D01*
X153015045Y11598175D01*
X152886657Y11754617D01*
X152730215Y11883005D01*
X152551731Y11978406D01*
X152358066Y12037154D01*
X152207131Y12052020D01*
X150236189Y12052020D01*
X150085254Y12037154D01*
X149891589Y11978406D01*
X149713105Y11883005D01*
X149556663Y11754617D01*
X149428275Y11598175D01*
X149332874Y11419691D01*
X149274126Y11226026D01*
X149254289Y11024620D01*
X149229031Y11024620D01*
X149209194Y11226026D01*
X149150446Y11419691D01*
X149055045Y11598175D01*
X148926657Y11754617D01*
X148770215Y11883005D01*
X148591731Y11978406D01*
X148398066Y12037154D01*
X148247131Y12052020D01*
X146276189Y12052020D01*
X146125254Y12037154D01*
X145931589Y11978406D01*
X145753105Y11883005D01*
X145596663Y11754617D01*
X145468275Y11598175D01*
X145372874Y11419691D01*
X145314126Y11226026D01*
X145294289Y11024620D01*
X145269031Y11024620D01*
X145249194Y11226026D01*
X145190446Y11419691D01*
X145095045Y11598175D01*
X144966657Y11754617D01*
X144810215Y11883005D01*
X144631731Y11978406D01*
X144438066Y12037154D01*
X144287131Y12052020D01*
X142316189Y12052020D01*
X142165254Y12037154D01*
X141971589Y11978406D01*
X141793105Y11883005D01*
X141636663Y11754617D01*
X141508275Y11598175D01*
X141412874Y11419691D01*
X141354126Y11226026D01*
X141334289Y11024620D01*
X141309031Y11024620D01*
X141289194Y11226026D01*
X141230446Y11419691D01*
X141135045Y11598175D01*
X141006657Y11754617D01*
X140850215Y11883005D01*
X140671731Y11978406D01*
X140478066Y12037154D01*
X140327131Y12052020D01*
X138356189Y12052020D01*
X138205254Y12037154D01*
X138011589Y11978406D01*
X137833105Y11883005D01*
X137676663Y11754617D01*
X137580000Y11636832D01*
X137580000Y12973000D01*
X162936452Y12973000D01*
X163012479Y12965545D01*
G36*
X135524283Y6292637D02*
G01*
X135534570Y6280102D01*
X135556050Y6262474D01*
X135584605Y6239039D01*
X135633714Y6212790D01*
X135641691Y6208526D01*
X135703632Y6189736D01*
X135751914Y6184981D01*
X135751917Y6184981D01*
X135768049Y6183392D01*
X135784181Y6184981D01*
X142896504Y6184981D01*
X142844334Y6132811D01*
X142788914Y6049870D01*
X142750741Y5957711D01*
X142731280Y5859876D01*
X142731280Y5768310D01*
X142603729Y5640759D01*
X133302016Y5640759D01*
X133369426Y5708169D01*
X133424846Y5791110D01*
X133463019Y5883269D01*
X133482480Y5981104D01*
X133482480Y6072670D01*
X134083485Y6673675D01*
X134096019Y6683961D01*
X134117142Y6709700D01*
X134137082Y6733996D01*
X134167595Y6791082D01*
X134171371Y6803531D01*
X134186385Y6853023D01*
X134191140Y6901305D01*
X134191140Y6901308D01*
X134192729Y6917440D01*
X134191140Y6933572D01*
X134191140Y7625780D01*
X135524283Y6292637D01*
G37*
X135524283Y6292637D02*
X135534570Y6280102D01*
X135556050Y6262474D01*
X135584605Y6239039D01*
X135633714Y6212790D01*
X135641691Y6208526D01*
X135703632Y6189736D01*
X135751914Y6184981D01*
X135751917Y6184981D01*
X135768049Y6183392D01*
X135784181Y6184981D01*
X142896504Y6184981D01*
X142844334Y6132811D01*
X142788914Y6049870D01*
X142750741Y5957711D01*
X142731280Y5859876D01*
X142731280Y5768310D01*
X142603729Y5640759D01*
X133302016Y5640759D01*
X133369426Y5708169D01*
X133424846Y5791110D01*
X133463019Y5883269D01*
X133482480Y5981104D01*
X133482480Y6072670D01*
X134083485Y6673675D01*
X134096019Y6683961D01*
X134117142Y6709700D01*
X134137082Y6733996D01*
X134167595Y6791082D01*
X134171371Y6803531D01*
X134186385Y6853023D01*
X134191140Y6901305D01*
X134191140Y6901308D01*
X134192729Y6917440D01*
X134191140Y6933572D01*
X134191140Y7625780D01*
X135524283Y6292637D01*
G36*
X42512479Y18465545D02*
G01*
X42572578Y18447401D01*
X42628011Y18417927D01*
X42676662Y18378248D01*
X42716678Y18329878D01*
X42746537Y18274653D01*
X42765101Y18214684D01*
X42773001Y18139517D01*
X42773000Y13836395D01*
X42774181Y13824406D01*
X42774155Y13820707D01*
X42774532Y13816857D01*
X42786772Y13700400D01*
X42791827Y13675775D01*
X42796525Y13651145D01*
X42797641Y13647450D01*
X42797642Y13647443D01*
X42797645Y13647437D01*
X42832270Y13535580D01*
X42841999Y13512435D01*
X42851403Y13489160D01*
X42853217Y13485748D01*
X42853219Y13485743D01*
X42853222Y13485739D01*
X42908914Y13382737D01*
X42922955Y13361920D01*
X42936701Y13340914D01*
X42939145Y13337917D01*
X43013788Y13247691D01*
X43031598Y13230004D01*
X43049166Y13212064D01*
X43052140Y13209604D01*
X43052147Y13209597D01*
X43052155Y13209592D01*
X43142892Y13135588D01*
X43163802Y13121696D01*
X43184519Y13107510D01*
X43187921Y13105670D01*
X43291315Y13050695D01*
X43314547Y13041119D01*
X43337602Y13031238D01*
X43341293Y13030095D01*
X43341299Y13030093D01*
X43453398Y12996249D01*
X43478046Y12991368D01*
X43502582Y12986153D01*
X43506419Y12985750D01*
X43506429Y12985748D01*
X43506438Y12985748D01*
X43622970Y12974322D01*
X43622971Y12974322D01*
X43636394Y12973000D01*
X137050000Y12973000D01*
X137050000Y12200964D01*
X136988189Y12243412D01*
X136737511Y12351002D01*
X136470660Y12407620D01*
X135535660Y12407620D01*
X135535660Y11650000D01*
X135227660Y11650000D01*
X135227660Y12407620D01*
X134292660Y12407620D01*
X134025809Y12351002D01*
X133775131Y12243412D01*
X133550260Y12088984D01*
X133359837Y11893654D01*
X133211180Y11664927D01*
X133205831Y11650000D01*
X133172513Y11650000D01*
X133086657Y11754617D01*
X132930215Y11883005D01*
X132751731Y11978406D01*
X132558066Y12037154D01*
X132407131Y12052020D01*
X130436189Y12052020D01*
X130285254Y12037154D01*
X130091589Y11978406D01*
X129913105Y11883005D01*
X129756663Y11754617D01*
X129628275Y11598175D01*
X129532874Y11419691D01*
X129474126Y11226026D01*
X129454289Y11024620D01*
X129474126Y10823214D01*
X129532874Y10629549D01*
X129628275Y10451065D01*
X129756663Y10294623D01*
X129913105Y10166235D01*
X130091589Y10070834D01*
X130285254Y10012086D01*
X130436189Y9997220D01*
X132407131Y9997220D01*
X132558066Y10012086D01*
X132751731Y10070834D01*
X132930215Y10166235D01*
X133000000Y10223506D01*
X133000000Y9438061D01*
X23125585Y9438061D01*
X23109460Y9439649D01*
X23093336Y9438061D01*
X23093326Y9438061D01*
X23045044Y9433306D01*
X22983103Y9414516D01*
X22956530Y9400312D01*
X22926017Y9384003D01*
X22888514Y9353225D01*
X22875982Y9342940D01*
X22865699Y9330410D01*
X19763890Y6228600D01*
X16589651Y6228600D01*
X16573519Y6230189D01*
X16557387Y6228600D01*
X16557385Y6228600D01*
X16509103Y6223845D01*
X16447162Y6205055D01*
X16418503Y6189736D01*
X16390076Y6174542D01*
X16352868Y6144006D01*
X16340041Y6133479D01*
X16329758Y6120949D01*
X12983772Y2774963D01*
X12813874Y2845337D01*
X12610552Y2885780D01*
X12403248Y2885780D01*
X12199926Y2845337D01*
X12008402Y2766005D01*
X11836034Y2650832D01*
X11689448Y2504246D01*
X11574275Y2331878D01*
X11494943Y2140354D01*
X11454500Y1937032D01*
X11454500Y1729728D01*
X11494943Y1526406D01*
X11574275Y1334882D01*
X11689448Y1162514D01*
X11836034Y1015928D01*
X12008402Y900755D01*
X12199926Y821423D01*
X12403248Y780980D01*
X12610552Y780980D01*
X12813874Y821423D01*
X13005398Y900755D01*
X13177766Y1015928D01*
X13324352Y1162514D01*
X13439525Y1334882D01*
X13518857Y1526406D01*
X13559300Y1729728D01*
X13559300Y1937032D01*
X13518857Y2140354D01*
X13448483Y2310252D01*
X16709631Y5571400D01*
X19883868Y5571400D01*
X19900000Y5569811D01*
X19916132Y5571400D01*
X19916135Y5571400D01*
X19964417Y5576155D01*
X20026358Y5594945D01*
X20083443Y5625458D01*
X20133479Y5666521D01*
X20143766Y5679056D01*
X23245572Y8780861D01*
X24500736Y8780861D01*
X23342576Y7622700D01*
X23330041Y7612413D01*
X23319756Y7599880D01*
X23288978Y7562377D01*
X23274164Y7534661D01*
X23258465Y7505291D01*
X23239675Y7443350D01*
X23235663Y7402614D01*
X23233331Y7378934D01*
X23234920Y7362802D01*
X23234921Y5568658D01*
X23170174Y5503911D01*
X23114754Y5420970D01*
X23076581Y5328811D01*
X23057120Y5230976D01*
X23057120Y5131224D01*
X23076581Y5033389D01*
X23079186Y5027099D01*
X17928150Y5027099D01*
X17912018Y5028688D01*
X17895886Y5027099D01*
X17895884Y5027099D01*
X17847602Y5022344D01*
X17785661Y5003554D01*
X17754351Y4986818D01*
X17728575Y4973041D01*
X17691072Y4942263D01*
X17678540Y4931978D01*
X17668257Y4919448D01*
X15523772Y2774963D01*
X15353874Y2845337D01*
X15150552Y2885780D01*
X14943248Y2885780D01*
X14739926Y2845337D01*
X14548402Y2766005D01*
X14376034Y2650832D01*
X14229448Y2504246D01*
X14114275Y2331878D01*
X14034943Y2140354D01*
X13994500Y1937032D01*
X13994500Y1729728D01*
X14034943Y1526406D01*
X14114275Y1334882D01*
X14229448Y1162514D01*
X14376034Y1015928D01*
X14548402Y900755D01*
X14739926Y821423D01*
X14943248Y780980D01*
X15150552Y780980D01*
X15353874Y821423D01*
X15545398Y900755D01*
X15717766Y1015928D01*
X15864352Y1162514D01*
X15979525Y1334882D01*
X16058857Y1526406D01*
X16099300Y1729728D01*
X16099300Y1937032D01*
X16058857Y2140354D01*
X15988483Y2310252D01*
X18048130Y4369899D01*
X23882367Y4369899D01*
X23898499Y4368310D01*
X23914631Y4369899D01*
X23914634Y4369899D01*
X23962916Y4374654D01*
X24024857Y4393444D01*
X24081942Y4423957D01*
X24131978Y4465020D01*
X24142265Y4477555D01*
X25407828Y5743117D01*
X25404755Y5732986D01*
X25394201Y5698193D01*
X25393555Y5696065D01*
X25387210Y5631649D01*
X25388800Y5615507D01*
X25388799Y4865641D01*
X23713739Y3190581D01*
X21171622Y3190581D01*
X21155500Y3192169D01*
X21139378Y3190581D01*
X21139366Y3190581D01*
X21091084Y3185826D01*
X21029143Y3167036D01*
X21002570Y3152832D01*
X20972057Y3136523D01*
X20934554Y3105745D01*
X20922022Y3095460D01*
X20911739Y3082930D01*
X20603772Y2774963D01*
X20433874Y2845337D01*
X20230552Y2885780D01*
X20023248Y2885780D01*
X19819926Y2845337D01*
X19628402Y2766005D01*
X19456034Y2650832D01*
X19309448Y2504246D01*
X19194275Y2331878D01*
X19114943Y2140354D01*
X19074500Y1937032D01*
X19074500Y1729728D01*
X19114943Y1526406D01*
X19194275Y1334882D01*
X19309448Y1162514D01*
X19338583Y1133379D01*
X18751612Y1133379D01*
X18528483Y1356508D01*
X18598857Y1526406D01*
X18639300Y1729728D01*
X18639300Y1937032D01*
X18598857Y2140354D01*
X18519525Y2331878D01*
X18404352Y2504246D01*
X18257766Y2650832D01*
X18085398Y2766005D01*
X17893874Y2845337D01*
X17690552Y2885780D01*
X17483248Y2885780D01*
X17279926Y2845337D01*
X17088402Y2766005D01*
X16916034Y2650832D01*
X16769448Y2504246D01*
X16654275Y2331878D01*
X16574943Y2140354D01*
X16534500Y1937032D01*
X16534500Y1729728D01*
X16574943Y1526406D01*
X16654275Y1334882D01*
X16769448Y1162514D01*
X16916034Y1015928D01*
X17088402Y900755D01*
X17279926Y821423D01*
X17483248Y780980D01*
X17690552Y780980D01*
X17893874Y821423D01*
X18063772Y891797D01*
X18371739Y583830D01*
X18382022Y571300D01*
X18394552Y561017D01*
X18394554Y561015D01*
X18432057Y530237D01*
X18462570Y513928D01*
X18489143Y499724D01*
X18551084Y480934D01*
X18599366Y476179D01*
X18599378Y476179D01*
X18615500Y474591D01*
X18631622Y476179D01*
X31850000Y476179D01*
X31850000Y277000D01*
X613548Y277000D01*
X537521Y284455D01*
X477419Y302600D01*
X421986Y332075D01*
X373340Y371751D01*
X333321Y420125D01*
X303463Y475347D01*
X284899Y535316D01*
X277000Y610474D01*
X277000Y2633380D01*
X1293279Y2633380D01*
X1293279Y1033380D01*
X1298152Y983901D01*
X1312585Y936323D01*
X1336022Y892476D01*
X1367563Y854043D01*
X1405996Y822502D01*
X1449843Y799065D01*
X1497421Y784632D01*
X1546900Y779759D01*
X2935810Y779759D01*
X3131739Y583830D01*
X3142022Y571300D01*
X3154552Y561017D01*
X3154554Y561015D01*
X3192057Y530237D01*
X3222570Y513928D01*
X3249143Y499724D01*
X3311084Y480934D01*
X3359366Y476179D01*
X3359378Y476179D01*
X3375500Y474591D01*
X3391622Y476179D01*
X5364497Y476179D01*
X5380629Y474590D01*
X5396761Y476179D01*
X5396764Y476179D01*
X5445046Y480934D01*
X5506987Y499724D01*
X5564072Y530237D01*
X5614108Y571300D01*
X5624395Y583835D01*
X6136450Y1095889D01*
X6148980Y1106172D01*
X6171308Y1133379D01*
X6190043Y1156207D01*
X6220555Y1213292D01*
X6220556Y1213293D01*
X6239346Y1275234D01*
X6244101Y1323516D01*
X6244101Y1323518D01*
X6245690Y1339650D01*
X6244101Y1355782D01*
X6244101Y1937032D01*
X6374500Y1937032D01*
X6374500Y1729728D01*
X6414943Y1526406D01*
X6494275Y1334882D01*
X6609448Y1162514D01*
X6756034Y1015928D01*
X6928402Y900755D01*
X7119926Y821423D01*
X7323248Y780980D01*
X7530552Y780980D01*
X7733874Y821423D01*
X7925398Y900755D01*
X8097766Y1015928D01*
X8244352Y1162514D01*
X8359525Y1334882D01*
X8438857Y1526406D01*
X8479300Y1729728D01*
X8479300Y1937032D01*
X8914500Y1937032D01*
X8914500Y1729728D01*
X8954943Y1526406D01*
X9034275Y1334882D01*
X9149448Y1162514D01*
X9296034Y1015928D01*
X9468402Y900755D01*
X9659926Y821423D01*
X9863248Y780980D01*
X10070552Y780980D01*
X10273874Y821423D01*
X10465398Y900755D01*
X10637766Y1015928D01*
X10784352Y1162514D01*
X10899525Y1334882D01*
X10978857Y1526406D01*
X11019300Y1729728D01*
X11019300Y1937032D01*
X10978857Y2140354D01*
X10899525Y2331878D01*
X10784352Y2504246D01*
X10637766Y2650832D01*
X10465398Y2766005D01*
X10273874Y2845337D01*
X10070552Y2885780D01*
X9863248Y2885780D01*
X9659926Y2845337D01*
X9468402Y2766005D01*
X9296034Y2650832D01*
X9149448Y2504246D01*
X9034275Y2331878D01*
X8954943Y2140354D01*
X8914500Y1937032D01*
X8479300Y1937032D01*
X8438857Y2140354D01*
X8359525Y2331878D01*
X8244352Y2504246D01*
X8097766Y2650832D01*
X7925398Y2766005D01*
X7733874Y2845337D01*
X7530552Y2885780D01*
X7323248Y2885780D01*
X7119926Y2845337D01*
X6928402Y2766005D01*
X6756034Y2650832D01*
X6609448Y2504246D01*
X6494275Y2331878D01*
X6414943Y2140354D01*
X6374500Y1937032D01*
X6244101Y1937032D01*
X6244101Y2310977D01*
X6245690Y2327109D01*
X6242865Y2355791D01*
X6239346Y2391526D01*
X6220556Y2453467D01*
X6215508Y2462911D01*
X6190043Y2510553D01*
X6159265Y2548056D01*
X6159263Y2548058D01*
X6148980Y2560588D01*
X6136451Y2570870D01*
X5628600Y3078720D01*
X5628600Y6052600D01*
X7399440Y6052600D01*
X7399440Y5452600D01*
X7401759Y5428952D01*
X7403911Y5405305D01*
X7404160Y5404457D01*
X7404247Y5403575D01*
X7411112Y5380838D01*
X7417819Y5358049D01*
X7418230Y5357263D01*
X7418485Y5356418D01*
X7429622Y5335473D01*
X7440641Y5314395D01*
X7441196Y5313705D01*
X7441611Y5312924D01*
X7456638Y5294498D01*
X7471507Y5276005D01*
X7472183Y5275438D01*
X7472744Y5274750D01*
X7491030Y5259623D01*
X7509242Y5244341D01*
X7510021Y5243913D01*
X7510700Y5243351D01*
X7531524Y5232091D01*
X7552409Y5220610D01*
X7553255Y5220342D01*
X7554031Y5219922D01*
X7576730Y5212895D01*
X7599363Y5205716D01*
X7600239Y5205618D01*
X7601088Y5205355D01*
X7624795Y5202863D01*
X7648316Y5200225D01*
X7650012Y5200213D01*
X7650078Y5200206D01*
X7650144Y5200212D01*
X7651840Y5200200D01*
X10106247Y5200200D01*
X10212969Y5221428D01*
X10313500Y5263069D01*
X10403975Y5323523D01*
X10480917Y5400465D01*
X10541371Y5490940D01*
X10583012Y5591471D01*
X10604240Y5698193D01*
X10604240Y5807007D01*
X10583012Y5913729D01*
X10541371Y6014260D01*
X10480917Y6104735D01*
X10403975Y6181677D01*
X10313500Y6242131D01*
X10212969Y6283772D01*
X10106247Y6305000D01*
X7651840Y6305000D01*
X7628192Y6302681D01*
X7604545Y6300529D01*
X7603697Y6300280D01*
X7602815Y6300193D01*
X7580078Y6293328D01*
X7557289Y6286621D01*
X7556503Y6286210D01*
X7555658Y6285955D01*
X7534713Y6274818D01*
X7513635Y6263799D01*
X7512945Y6263244D01*
X7512164Y6262829D01*
X7493738Y6247802D01*
X7475245Y6232933D01*
X7474678Y6232257D01*
X7473990Y6231696D01*
X7458863Y6213410D01*
X7443581Y6195198D01*
X7443153Y6194419D01*
X7442591Y6193740D01*
X7431331Y6172916D01*
X7419850Y6152031D01*
X7419582Y6151185D01*
X7419162Y6150409D01*
X7412135Y6127710D01*
X7404956Y6105077D01*
X7404858Y6104201D01*
X7404595Y6103352D01*
X7402103Y6079645D01*
X7399465Y6056124D01*
X7399453Y6054428D01*
X7399446Y6054362D01*
X7399452Y6054296D01*
X7399440Y6052600D01*
X5628600Y6052600D01*
X5628600Y8213890D01*
X7236111Y9821400D01*
X16819618Y9821400D01*
X16835750Y9819811D01*
X16851882Y9821400D01*
X16851885Y9821400D01*
X16900167Y9826155D01*
X16962108Y9844945D01*
X17019193Y9875458D01*
X17069229Y9916521D01*
X17079516Y9929056D01*
X20439330Y13288869D01*
X20451234Y13260130D01*
X20506654Y13177189D01*
X20577189Y13106654D01*
X20660130Y13051234D01*
X20752289Y13013061D01*
X20850124Y12993600D01*
X20949876Y12993600D01*
X21047711Y13013061D01*
X21139870Y13051234D01*
X21222811Y13106654D01*
X21293346Y13177189D01*
X21348766Y13260130D01*
X21386939Y13352289D01*
X21406400Y13450124D01*
X21406400Y13541690D01*
X22043070Y14178359D01*
X22817062Y14178359D01*
X21893397Y13254693D01*
X21801831Y13254693D01*
X21703996Y13235232D01*
X21611837Y13197059D01*
X21528896Y13141639D01*
X21458361Y13071104D01*
X21402941Y12988163D01*
X21364768Y12896004D01*
X21345307Y12798169D01*
X21345307Y12698417D01*
X21364768Y12600582D01*
X21402941Y12508423D01*
X21458361Y12425482D01*
X21528896Y12354947D01*
X21611837Y12299527D01*
X21703996Y12261354D01*
X21801831Y12241893D01*
X21901583Y12241893D01*
X21999418Y12261354D01*
X22091577Y12299527D01*
X22174518Y12354947D01*
X22245053Y12425482D01*
X22300473Y12508423D01*
X22338646Y12600582D01*
X22358107Y12698417D01*
X22358107Y12789983D01*
X23441674Y13873549D01*
X33436008Y13873551D01*
X33452150Y13871961D01*
X33510585Y13877717D01*
X33516567Y13878306D01*
X33535356Y13884006D01*
X33578507Y13897095D01*
X33635593Y13927608D01*
X33673096Y13958386D01*
X33673099Y13958389D01*
X33685629Y13968672D01*
X33695912Y13981202D01*
X34821811Y15107101D01*
X34895259Y15107101D01*
X34895259Y13825953D01*
X34083481Y13014174D01*
X23129246Y13014174D01*
X23109374Y13016131D01*
X23089502Y13014174D01*
X23089495Y13014174D01*
X23030019Y13008316D01*
X22953714Y12985169D01*
X22883391Y12947581D01*
X22853989Y12923451D01*
X22837193Y12909667D01*
X22837190Y12909664D01*
X22821753Y12896995D01*
X22809084Y12881558D01*
X18601047Y8673520D01*
X12686127Y8673520D01*
X12632721Y8753447D01*
X12526807Y8859361D01*
X12402264Y8942578D01*
X12263880Y8999898D01*
X12116973Y9029120D01*
X11967187Y9029120D01*
X11820280Y8999898D01*
X11681896Y8942578D01*
X11557353Y8859361D01*
X11451439Y8753447D01*
X11368222Y8628904D01*
X11310902Y8490520D01*
X11281680Y8343613D01*
X11281680Y8193827D01*
X11310902Y8046920D01*
X11368222Y7908536D01*
X11451439Y7783993D01*
X11557353Y7678079D01*
X11681896Y7594862D01*
X11820280Y7537542D01*
X11967187Y7508320D01*
X12116973Y7508320D01*
X12263880Y7537542D01*
X12402264Y7594862D01*
X12526807Y7678079D01*
X12632721Y7783993D01*
X12686127Y7863920D01*
X18748848Y7863920D01*
X18768720Y7861963D01*
X18788592Y7863920D01*
X18788599Y7863920D01*
X18848075Y7869778D01*
X18924380Y7892925D01*
X18994703Y7930513D01*
X19056341Y7981099D01*
X19069015Y7996542D01*
X21729986Y10657513D01*
X34113273Y10657513D01*
X34211180Y10384313D01*
X34359837Y10155586D01*
X34550260Y9960256D01*
X34775131Y9805828D01*
X35025809Y9698238D01*
X35292660Y9641620D01*
X36227660Y9641620D01*
X36227660Y10870620D01*
X34225331Y10870620D01*
X34113273Y10657513D01*
X21729986Y10657513D01*
X22464200Y11391727D01*
X34113273Y11391727D01*
X34225331Y11178620D01*
X36227660Y11178620D01*
X36227660Y12407620D01*
X36535660Y12407620D01*
X36535660Y11178620D01*
X36555660Y11178620D01*
X36555660Y10870620D01*
X36535660Y10870620D01*
X36535660Y9641620D01*
X37470660Y9641620D01*
X37737511Y9698238D01*
X37988189Y9805828D01*
X38213060Y9960256D01*
X38403483Y10155586D01*
X38552140Y10384313D01*
X38567616Y10427498D01*
X38676663Y10294623D01*
X38833105Y10166235D01*
X39011589Y10070834D01*
X39205254Y10012086D01*
X39356189Y9997220D01*
X41327131Y9997220D01*
X41478066Y10012086D01*
X41671731Y10070834D01*
X41850215Y10166235D01*
X42006657Y10294623D01*
X42135045Y10451065D01*
X42230446Y10629549D01*
X42289194Y10823214D01*
X42309031Y11024620D01*
X42334289Y11024620D01*
X42354126Y10823214D01*
X42412874Y10629549D01*
X42508275Y10451065D01*
X42636663Y10294623D01*
X42793105Y10166235D01*
X42971589Y10070834D01*
X43165254Y10012086D01*
X43316189Y9997220D01*
X45287131Y9997220D01*
X45438066Y10012086D01*
X45631731Y10070834D01*
X45810215Y10166235D01*
X45966657Y10294623D01*
X46095045Y10451065D01*
X46190446Y10629549D01*
X46249194Y10823214D01*
X46269031Y11024620D01*
X46294289Y11024620D01*
X46314126Y10823214D01*
X46372874Y10629549D01*
X46468275Y10451065D01*
X46596663Y10294623D01*
X46753105Y10166235D01*
X46931589Y10070834D01*
X47125254Y10012086D01*
X47276189Y9997220D01*
X49247131Y9997220D01*
X49398066Y10012086D01*
X49591731Y10070834D01*
X49770215Y10166235D01*
X49926657Y10294623D01*
X50055045Y10451065D01*
X50150446Y10629549D01*
X50209194Y10823214D01*
X50229031Y11024620D01*
X50254289Y11024620D01*
X50274126Y10823214D01*
X50332874Y10629549D01*
X50428275Y10451065D01*
X50556663Y10294623D01*
X50713105Y10166235D01*
X50891589Y10070834D01*
X51085254Y10012086D01*
X51236189Y9997220D01*
X53207131Y9997220D01*
X53358066Y10012086D01*
X53551731Y10070834D01*
X53730215Y10166235D01*
X53886657Y10294623D01*
X54015045Y10451065D01*
X54110446Y10629549D01*
X54169194Y10823214D01*
X54189031Y11024620D01*
X54214289Y11024620D01*
X54234126Y10823214D01*
X54292874Y10629549D01*
X54388275Y10451065D01*
X54516663Y10294623D01*
X54673105Y10166235D01*
X54851589Y10070834D01*
X55045254Y10012086D01*
X55196189Y9997220D01*
X57167131Y9997220D01*
X57318066Y10012086D01*
X57511731Y10070834D01*
X57690215Y10166235D01*
X57846657Y10294623D01*
X57975045Y10451065D01*
X58070446Y10629549D01*
X58129194Y10823214D01*
X58149031Y11024620D01*
X58174289Y11024620D01*
X58194126Y10823214D01*
X58252874Y10629549D01*
X58348275Y10451065D01*
X58476663Y10294623D01*
X58633105Y10166235D01*
X58811589Y10070834D01*
X59005254Y10012086D01*
X59156189Y9997220D01*
X61127131Y9997220D01*
X61278066Y10012086D01*
X61471731Y10070834D01*
X61650215Y10166235D01*
X61806657Y10294623D01*
X61935045Y10451065D01*
X62030446Y10629549D01*
X62089194Y10823214D01*
X62109031Y11024620D01*
X62134289Y11024620D01*
X62154126Y10823214D01*
X62212874Y10629549D01*
X62308275Y10451065D01*
X62436663Y10294623D01*
X62593105Y10166235D01*
X62771589Y10070834D01*
X62965254Y10012086D01*
X63116189Y9997220D01*
X65087131Y9997220D01*
X65238066Y10012086D01*
X65431731Y10070834D01*
X65610215Y10166235D01*
X65766657Y10294623D01*
X65895045Y10451065D01*
X65990446Y10629549D01*
X66049194Y10823214D01*
X66069031Y11024620D01*
X66094289Y11024620D01*
X66114126Y10823214D01*
X66172874Y10629549D01*
X66268275Y10451065D01*
X66396663Y10294623D01*
X66553105Y10166235D01*
X66731589Y10070834D01*
X66925254Y10012086D01*
X67076189Y9997220D01*
X69047131Y9997220D01*
X69198066Y10012086D01*
X69391731Y10070834D01*
X69570215Y10166235D01*
X69726657Y10294623D01*
X69855045Y10451065D01*
X69950446Y10629549D01*
X70009194Y10823214D01*
X70029031Y11024620D01*
X70054289Y11024620D01*
X70074126Y10823214D01*
X70132874Y10629549D01*
X70228275Y10451065D01*
X70356663Y10294623D01*
X70513105Y10166235D01*
X70691589Y10070834D01*
X70885254Y10012086D01*
X71036189Y9997220D01*
X73007131Y9997220D01*
X73158066Y10012086D01*
X73351731Y10070834D01*
X73530215Y10166235D01*
X73686657Y10294623D01*
X73815045Y10451065D01*
X73910446Y10629549D01*
X73969194Y10823214D01*
X73989031Y11024620D01*
X74014289Y11024620D01*
X74034126Y10823214D01*
X74092874Y10629549D01*
X74188275Y10451065D01*
X74316663Y10294623D01*
X74473105Y10166235D01*
X74651589Y10070834D01*
X74845254Y10012086D01*
X74996189Y9997220D01*
X76967131Y9997220D01*
X77118066Y10012086D01*
X77311731Y10070834D01*
X77490215Y10166235D01*
X77646657Y10294623D01*
X77775045Y10451065D01*
X77870446Y10629549D01*
X77929194Y10823214D01*
X77949031Y11024620D01*
X77974289Y11024620D01*
X77994126Y10823214D01*
X78052874Y10629549D01*
X78148275Y10451065D01*
X78276663Y10294623D01*
X78433105Y10166235D01*
X78611589Y10070834D01*
X78805254Y10012086D01*
X78956189Y9997220D01*
X80927131Y9997220D01*
X81078066Y10012086D01*
X81271731Y10070834D01*
X81450215Y10166235D01*
X81606657Y10294623D01*
X81735045Y10451065D01*
X81830446Y10629549D01*
X81889194Y10823214D01*
X81909031Y11024620D01*
X81934289Y11024620D01*
X81954126Y10823214D01*
X82012874Y10629549D01*
X82108275Y10451065D01*
X82236663Y10294623D01*
X82393105Y10166235D01*
X82571589Y10070834D01*
X82765254Y10012086D01*
X82916189Y9997220D01*
X84887131Y9997220D01*
X85038066Y10012086D01*
X85231731Y10070834D01*
X85410215Y10166235D01*
X85566657Y10294623D01*
X85695045Y10451065D01*
X85790446Y10629549D01*
X85849194Y10823214D01*
X85869031Y11024620D01*
X85894289Y11024620D01*
X85914126Y10823214D01*
X85972874Y10629549D01*
X86068275Y10451065D01*
X86196663Y10294623D01*
X86353105Y10166235D01*
X86531589Y10070834D01*
X86725254Y10012086D01*
X86876189Y9997220D01*
X88847131Y9997220D01*
X88998066Y10012086D01*
X89191731Y10070834D01*
X89370215Y10166235D01*
X89526657Y10294623D01*
X89655045Y10451065D01*
X89750446Y10629549D01*
X89809194Y10823214D01*
X89829031Y11024620D01*
X89854289Y11024620D01*
X89874126Y10823214D01*
X89932874Y10629549D01*
X90028275Y10451065D01*
X90156663Y10294623D01*
X90313105Y10166235D01*
X90491589Y10070834D01*
X90685254Y10012086D01*
X90836189Y9997220D01*
X92807131Y9997220D01*
X92958066Y10012086D01*
X93151731Y10070834D01*
X93330215Y10166235D01*
X93486657Y10294623D01*
X93615045Y10451065D01*
X93710446Y10629549D01*
X93769194Y10823214D01*
X93789031Y11024620D01*
X93814289Y11024620D01*
X93834126Y10823214D01*
X93892874Y10629549D01*
X93988275Y10451065D01*
X94116663Y10294623D01*
X94273105Y10166235D01*
X94451589Y10070834D01*
X94645254Y10012086D01*
X94796189Y9997220D01*
X96767131Y9997220D01*
X96918066Y10012086D01*
X97111731Y10070834D01*
X97290215Y10166235D01*
X97446657Y10294623D01*
X97575045Y10451065D01*
X97670446Y10629549D01*
X97729194Y10823214D01*
X97749031Y11024620D01*
X97774289Y11024620D01*
X97794126Y10823214D01*
X97852874Y10629549D01*
X97948275Y10451065D01*
X98076663Y10294623D01*
X98233105Y10166235D01*
X98411589Y10070834D01*
X98605254Y10012086D01*
X98756189Y9997220D01*
X100727131Y9997220D01*
X100878066Y10012086D01*
X101071731Y10070834D01*
X101250215Y10166235D01*
X101406657Y10294623D01*
X101535045Y10451065D01*
X101630446Y10629549D01*
X101689194Y10823214D01*
X101709031Y11024620D01*
X101734289Y11024620D01*
X101754126Y10823214D01*
X101812874Y10629549D01*
X101908275Y10451065D01*
X102036663Y10294623D01*
X102193105Y10166235D01*
X102371589Y10070834D01*
X102565254Y10012086D01*
X102716189Y9997220D01*
X104687131Y9997220D01*
X104838066Y10012086D01*
X105031731Y10070834D01*
X105210215Y10166235D01*
X105366657Y10294623D01*
X105495045Y10451065D01*
X105590446Y10629549D01*
X105649194Y10823214D01*
X105669031Y11024620D01*
X105694289Y11024620D01*
X105714126Y10823214D01*
X105772874Y10629549D01*
X105868275Y10451065D01*
X105996663Y10294623D01*
X106153105Y10166235D01*
X106331589Y10070834D01*
X106525254Y10012086D01*
X106676189Y9997220D01*
X108647131Y9997220D01*
X108798066Y10012086D01*
X108991731Y10070834D01*
X109170215Y10166235D01*
X109326657Y10294623D01*
X109455045Y10451065D01*
X109550446Y10629549D01*
X109609194Y10823214D01*
X109629031Y11024620D01*
X109654289Y11024620D01*
X109674126Y10823214D01*
X109732874Y10629549D01*
X109828275Y10451065D01*
X109956663Y10294623D01*
X110113105Y10166235D01*
X110291589Y10070834D01*
X110485254Y10012086D01*
X110636189Y9997220D01*
X112607131Y9997220D01*
X112758066Y10012086D01*
X112951731Y10070834D01*
X113130215Y10166235D01*
X113286657Y10294623D01*
X113415045Y10451065D01*
X113510446Y10629549D01*
X113569194Y10823214D01*
X113589031Y11024620D01*
X113614289Y11024620D01*
X113634126Y10823214D01*
X113692874Y10629549D01*
X113788275Y10451065D01*
X113916663Y10294623D01*
X114073105Y10166235D01*
X114251589Y10070834D01*
X114445254Y10012086D01*
X114596189Y9997220D01*
X116567131Y9997220D01*
X116718066Y10012086D01*
X116911731Y10070834D01*
X117090215Y10166235D01*
X117246657Y10294623D01*
X117375045Y10451065D01*
X117470446Y10629549D01*
X117529194Y10823214D01*
X117549031Y11024620D01*
X117574289Y11024620D01*
X117594126Y10823214D01*
X117652874Y10629549D01*
X117748275Y10451065D01*
X117876663Y10294623D01*
X118033105Y10166235D01*
X118211589Y10070834D01*
X118405254Y10012086D01*
X118556189Y9997220D01*
X120527131Y9997220D01*
X120678066Y10012086D01*
X120871731Y10070834D01*
X121050215Y10166235D01*
X121206657Y10294623D01*
X121335045Y10451065D01*
X121430446Y10629549D01*
X121489194Y10823214D01*
X121509031Y11024620D01*
X121534289Y11024620D01*
X121554126Y10823214D01*
X121612874Y10629549D01*
X121708275Y10451065D01*
X121836663Y10294623D01*
X121993105Y10166235D01*
X122171589Y10070834D01*
X122365254Y10012086D01*
X122516189Y9997220D01*
X124487131Y9997220D01*
X124638066Y10012086D01*
X124831731Y10070834D01*
X125010215Y10166235D01*
X125166657Y10294623D01*
X125295045Y10451065D01*
X125390446Y10629549D01*
X125449194Y10823214D01*
X125469031Y11024620D01*
X125494289Y11024620D01*
X125514126Y10823214D01*
X125572874Y10629549D01*
X125668275Y10451065D01*
X125796663Y10294623D01*
X125953105Y10166235D01*
X126131589Y10070834D01*
X126325254Y10012086D01*
X126476189Y9997220D01*
X128447131Y9997220D01*
X128598066Y10012086D01*
X128791731Y10070834D01*
X128970215Y10166235D01*
X129126657Y10294623D01*
X129255045Y10451065D01*
X129350446Y10629549D01*
X129409194Y10823214D01*
X129429031Y11024620D01*
X129409194Y11226026D01*
X129350446Y11419691D01*
X129255045Y11598175D01*
X129126657Y11754617D01*
X128970215Y11883005D01*
X128791731Y11978406D01*
X128598066Y12037154D01*
X128447131Y12052020D01*
X126476189Y12052020D01*
X126325254Y12037154D01*
X126131589Y11978406D01*
X125953105Y11883005D01*
X125796663Y11754617D01*
X125668275Y11598175D01*
X125572874Y11419691D01*
X125514126Y11226026D01*
X125494289Y11024620D01*
X125469031Y11024620D01*
X125449194Y11226026D01*
X125390446Y11419691D01*
X125295045Y11598175D01*
X125166657Y11754617D01*
X125010215Y11883005D01*
X124831731Y11978406D01*
X124638066Y12037154D01*
X124487131Y12052020D01*
X122516189Y12052020D01*
X122365254Y12037154D01*
X122171589Y11978406D01*
X121993105Y11883005D01*
X121836663Y11754617D01*
X121708275Y11598175D01*
X121612874Y11419691D01*
X121554126Y11226026D01*
X121534289Y11024620D01*
X121509031Y11024620D01*
X121489194Y11226026D01*
X121430446Y11419691D01*
X121335045Y11598175D01*
X121206657Y11754617D01*
X121050215Y11883005D01*
X120871731Y11978406D01*
X120678066Y12037154D01*
X120527131Y12052020D01*
X118556189Y12052020D01*
X118405254Y12037154D01*
X118211589Y11978406D01*
X118033105Y11883005D01*
X117876663Y11754617D01*
X117748275Y11598175D01*
X117652874Y11419691D01*
X117594126Y11226026D01*
X117574289Y11024620D01*
X117549031Y11024620D01*
X117529194Y11226026D01*
X117470446Y11419691D01*
X117375045Y11598175D01*
X117246657Y11754617D01*
X117090215Y11883005D01*
X116911731Y11978406D01*
X116718066Y12037154D01*
X116567131Y12052020D01*
X114596189Y12052020D01*
X114445254Y12037154D01*
X114251589Y11978406D01*
X114073105Y11883005D01*
X113916663Y11754617D01*
X113788275Y11598175D01*
X113692874Y11419691D01*
X113634126Y11226026D01*
X113614289Y11024620D01*
X113589031Y11024620D01*
X113569194Y11226026D01*
X113510446Y11419691D01*
X113415045Y11598175D01*
X113286657Y11754617D01*
X113130215Y11883005D01*
X112951731Y11978406D01*
X112758066Y12037154D01*
X112607131Y12052020D01*
X110636189Y12052020D01*
X110485254Y12037154D01*
X110291589Y11978406D01*
X110113105Y11883005D01*
X109956663Y11754617D01*
X109828275Y11598175D01*
X109732874Y11419691D01*
X109674126Y11226026D01*
X109654289Y11024620D01*
X109629031Y11024620D01*
X109609194Y11226026D01*
X109550446Y11419691D01*
X109455045Y11598175D01*
X109326657Y11754617D01*
X109170215Y11883005D01*
X108991731Y11978406D01*
X108798066Y12037154D01*
X108647131Y12052020D01*
X106676189Y12052020D01*
X106525254Y12037154D01*
X106331589Y11978406D01*
X106153105Y11883005D01*
X105996663Y11754617D01*
X105868275Y11598175D01*
X105772874Y11419691D01*
X105714126Y11226026D01*
X105694289Y11024620D01*
X105669031Y11024620D01*
X105649194Y11226026D01*
X105590446Y11419691D01*
X105495045Y11598175D01*
X105366657Y11754617D01*
X105210215Y11883005D01*
X105031731Y11978406D01*
X104838066Y12037154D01*
X104687131Y12052020D01*
X102716189Y12052020D01*
X102565254Y12037154D01*
X102371589Y11978406D01*
X102193105Y11883005D01*
X102036663Y11754617D01*
X101908275Y11598175D01*
X101812874Y11419691D01*
X101754126Y11226026D01*
X101734289Y11024620D01*
X101709031Y11024620D01*
X101689194Y11226026D01*
X101630446Y11419691D01*
X101535045Y11598175D01*
X101406657Y11754617D01*
X101250215Y11883005D01*
X101071731Y11978406D01*
X100878066Y12037154D01*
X100727131Y12052020D01*
X98756189Y12052020D01*
X98605254Y12037154D01*
X98411589Y11978406D01*
X98233105Y11883005D01*
X98076663Y11754617D01*
X97948275Y11598175D01*
X97852874Y11419691D01*
X97794126Y11226026D01*
X97774289Y11024620D01*
X97749031Y11024620D01*
X97729194Y11226026D01*
X97670446Y11419691D01*
X97575045Y11598175D01*
X97446657Y11754617D01*
X97290215Y11883005D01*
X97111731Y11978406D01*
X96918066Y12037154D01*
X96767131Y12052020D01*
X94796189Y12052020D01*
X94645254Y12037154D01*
X94451589Y11978406D01*
X94273105Y11883005D01*
X94116663Y11754617D01*
X93988275Y11598175D01*
X93892874Y11419691D01*
X93834126Y11226026D01*
X93814289Y11024620D01*
X93789031Y11024620D01*
X93769194Y11226026D01*
X93710446Y11419691D01*
X93615045Y11598175D01*
X93486657Y11754617D01*
X93330215Y11883005D01*
X93151731Y11978406D01*
X92958066Y12037154D01*
X92807131Y12052020D01*
X90836189Y12052020D01*
X90685254Y12037154D01*
X90491589Y11978406D01*
X90313105Y11883005D01*
X90156663Y11754617D01*
X90028275Y11598175D01*
X89932874Y11419691D01*
X89874126Y11226026D01*
X89854289Y11024620D01*
X89829031Y11024620D01*
X89809194Y11226026D01*
X89750446Y11419691D01*
X89655045Y11598175D01*
X89526657Y11754617D01*
X89370215Y11883005D01*
X89191731Y11978406D01*
X88998066Y12037154D01*
X88847131Y12052020D01*
X86876189Y12052020D01*
X86725254Y12037154D01*
X86531589Y11978406D01*
X86353105Y11883005D01*
X86196663Y11754617D01*
X86068275Y11598175D01*
X85972874Y11419691D01*
X85914126Y11226026D01*
X85894289Y11024620D01*
X85869031Y11024620D01*
X85849194Y11226026D01*
X85790446Y11419691D01*
X85695045Y11598175D01*
X85566657Y11754617D01*
X85410215Y11883005D01*
X85231731Y11978406D01*
X85038066Y12037154D01*
X84887131Y12052020D01*
X82916189Y12052020D01*
X82765254Y12037154D01*
X82571589Y11978406D01*
X82393105Y11883005D01*
X82236663Y11754617D01*
X82108275Y11598175D01*
X82012874Y11419691D01*
X81954126Y11226026D01*
X81934289Y11024620D01*
X81909031Y11024620D01*
X81889194Y11226026D01*
X81830446Y11419691D01*
X81735045Y11598175D01*
X81606657Y11754617D01*
X81450215Y11883005D01*
X81271731Y11978406D01*
X81078066Y12037154D01*
X80927131Y12052020D01*
X78956189Y12052020D01*
X78805254Y12037154D01*
X78611589Y11978406D01*
X78433105Y11883005D01*
X78276663Y11754617D01*
X78148275Y11598175D01*
X78052874Y11419691D01*
X77994126Y11226026D01*
X77974289Y11024620D01*
X77949031Y11024620D01*
X77929194Y11226026D01*
X77870446Y11419691D01*
X77775045Y11598175D01*
X77646657Y11754617D01*
X77490215Y11883005D01*
X77311731Y11978406D01*
X77118066Y12037154D01*
X76967131Y12052020D01*
X74996189Y12052020D01*
X74845254Y12037154D01*
X74651589Y11978406D01*
X74473105Y11883005D01*
X74316663Y11754617D01*
X74188275Y11598175D01*
X74092874Y11419691D01*
X74034126Y11226026D01*
X74014289Y11024620D01*
X73989031Y11024620D01*
X73969194Y11226026D01*
X73910446Y11419691D01*
X73815045Y11598175D01*
X73686657Y11754617D01*
X73530215Y11883005D01*
X73351731Y11978406D01*
X73158066Y12037154D01*
X73007131Y12052020D01*
X71036189Y12052020D01*
X70885254Y12037154D01*
X70691589Y11978406D01*
X70513105Y11883005D01*
X70356663Y11754617D01*
X70228275Y11598175D01*
X70132874Y11419691D01*
X70074126Y11226026D01*
X70054289Y11024620D01*
X70029031Y11024620D01*
X70009194Y11226026D01*
X69950446Y11419691D01*
X69855045Y11598175D01*
X69726657Y11754617D01*
X69570215Y11883005D01*
X69391731Y11978406D01*
X69198066Y12037154D01*
X69047131Y12052020D01*
X67076189Y12052020D01*
X66925254Y12037154D01*
X66731589Y11978406D01*
X66553105Y11883005D01*
X66396663Y11754617D01*
X66268275Y11598175D01*
X66172874Y11419691D01*
X66114126Y11226026D01*
X66094289Y11024620D01*
X66069031Y11024620D01*
X66049194Y11226026D01*
X65990446Y11419691D01*
X65895045Y11598175D01*
X65766657Y11754617D01*
X65610215Y11883005D01*
X65431731Y11978406D01*
X65238066Y12037154D01*
X65087131Y12052020D01*
X63116189Y12052020D01*
X62965254Y12037154D01*
X62771589Y11978406D01*
X62593105Y11883005D01*
X62436663Y11754617D01*
X62308275Y11598175D01*
X62212874Y11419691D01*
X62154126Y11226026D01*
X62134289Y11024620D01*
X62109031Y11024620D01*
X62089194Y11226026D01*
X62030446Y11419691D01*
X61935045Y11598175D01*
X61806657Y11754617D01*
X61650215Y11883005D01*
X61471731Y11978406D01*
X61278066Y12037154D01*
X61127131Y12052020D01*
X59156189Y12052020D01*
X59005254Y12037154D01*
X58811589Y11978406D01*
X58633105Y11883005D01*
X58476663Y11754617D01*
X58348275Y11598175D01*
X58252874Y11419691D01*
X58194126Y11226026D01*
X58174289Y11024620D01*
X58149031Y11024620D01*
X58129194Y11226026D01*
X58070446Y11419691D01*
X57975045Y11598175D01*
X57846657Y11754617D01*
X57690215Y11883005D01*
X57511731Y11978406D01*
X57318066Y12037154D01*
X57167131Y12052020D01*
X55196189Y12052020D01*
X55045254Y12037154D01*
X54851589Y11978406D01*
X54673105Y11883005D01*
X54516663Y11754617D01*
X54388275Y11598175D01*
X54292874Y11419691D01*
X54234126Y11226026D01*
X54214289Y11024620D01*
X54189031Y11024620D01*
X54169194Y11226026D01*
X54110446Y11419691D01*
X54015045Y11598175D01*
X53886657Y11754617D01*
X53730215Y11883005D01*
X53551731Y11978406D01*
X53358066Y12037154D01*
X53207131Y12052020D01*
X51236189Y12052020D01*
X51085254Y12037154D01*
X50891589Y11978406D01*
X50713105Y11883005D01*
X50556663Y11754617D01*
X50428275Y11598175D01*
X50332874Y11419691D01*
X50274126Y11226026D01*
X50254289Y11024620D01*
X50229031Y11024620D01*
X50209194Y11226026D01*
X50150446Y11419691D01*
X50055045Y11598175D01*
X49926657Y11754617D01*
X49770215Y11883005D01*
X49591731Y11978406D01*
X49398066Y12037154D01*
X49247131Y12052020D01*
X47276189Y12052020D01*
X47125254Y12037154D01*
X46931589Y11978406D01*
X46753105Y11883005D01*
X46596663Y11754617D01*
X46468275Y11598175D01*
X46372874Y11419691D01*
X46314126Y11226026D01*
X46294289Y11024620D01*
X46269031Y11024620D01*
X46249194Y11226026D01*
X46190446Y11419691D01*
X46095045Y11598175D01*
X45966657Y11754617D01*
X45810215Y11883005D01*
X45631731Y11978406D01*
X45438066Y12037154D01*
X45287131Y12052020D01*
X43316189Y12052020D01*
X43165254Y12037154D01*
X42971589Y11978406D01*
X42793105Y11883005D01*
X42636663Y11754617D01*
X42508275Y11598175D01*
X42412874Y11419691D01*
X42354126Y11226026D01*
X42334289Y11024620D01*
X42309031Y11024620D01*
X42289194Y11226026D01*
X42230446Y11419691D01*
X42135045Y11598175D01*
X42006657Y11754617D01*
X41850215Y11883005D01*
X41671731Y11978406D01*
X41478066Y12037154D01*
X41327131Y12052020D01*
X39356189Y12052020D01*
X39205254Y12037154D01*
X39011589Y11978406D01*
X38833105Y11883005D01*
X38676663Y11754617D01*
X38567616Y11621742D01*
X38552140Y11664927D01*
X38403483Y11893654D01*
X38213060Y12088984D01*
X37988189Y12243412D01*
X37737511Y12351002D01*
X37470660Y12407620D01*
X36535660Y12407620D01*
X36227660Y12407620D01*
X35292660Y12407620D01*
X35025809Y12351002D01*
X34775131Y12243412D01*
X34550260Y12088984D01*
X34359837Y11893654D01*
X34211180Y11664927D01*
X34113273Y11391727D01*
X22464200Y11391727D01*
X23277048Y12204574D01*
X34231282Y12204574D01*
X34251154Y12202617D01*
X34271026Y12204574D01*
X34271033Y12204574D01*
X34330509Y12210432D01*
X34406814Y12233579D01*
X34477137Y12271167D01*
X34538775Y12321753D01*
X34551449Y12337196D01*
X35467733Y13253479D01*
X36848880Y13253479D01*
X36898359Y13258352D01*
X36945937Y13272785D01*
X36989784Y13296222D01*
X37028217Y13327763D01*
X37059758Y13366196D01*
X37083195Y13410043D01*
X37097628Y13457621D01*
X37102501Y13507100D01*
X37102501Y15107101D01*
X37729852Y15107101D01*
X37682590Y15059839D01*
X37561946Y14879282D01*
X37478845Y14678658D01*
X37436480Y14465677D01*
X37436480Y14248523D01*
X37478845Y14035542D01*
X37561946Y13834918D01*
X37682590Y13654361D01*
X37836141Y13500810D01*
X38016698Y13380166D01*
X38217322Y13297065D01*
X38430303Y13254700D01*
X38647457Y13254700D01*
X38860438Y13297065D01*
X39061062Y13380166D01*
X39241619Y13500810D01*
X39339024Y13598215D01*
X39879689Y13057550D01*
X39889972Y13045020D01*
X39902502Y13034737D01*
X39902504Y13034735D01*
X39940007Y13003957D01*
X39954428Y12996249D01*
X39997093Y12973444D01*
X40059034Y12954654D01*
X40107316Y12949899D01*
X40107318Y12949899D01*
X40123450Y12948310D01*
X40139582Y12949899D01*
X41580477Y12949899D01*
X41596609Y12948310D01*
X41612741Y12949899D01*
X41612744Y12949899D01*
X41661026Y12954654D01*
X41722967Y12973444D01*
X41780052Y13003957D01*
X41830088Y13045020D01*
X41840375Y13057555D01*
X42378426Y13595606D01*
X42390960Y13605892D01*
X42418063Y13638917D01*
X42432023Y13655927D01*
X42462536Y13713013D01*
X42462536Y13713014D01*
X42481326Y13774954D01*
X42486081Y13823236D01*
X42486081Y13823239D01*
X42487670Y13839371D01*
X42486081Y13855503D01*
X42486081Y14858697D01*
X42487670Y14874829D01*
X42485621Y14895632D01*
X42481326Y14939246D01*
X42462536Y15001187D01*
X42453814Y15017504D01*
X42432023Y15058273D01*
X42401245Y15095775D01*
X42390960Y15108308D01*
X42378425Y15118595D01*
X41839672Y15657348D01*
X42039002Y15799854D01*
X42234616Y16008248D01*
X42385815Y16250800D01*
X42486789Y16518189D01*
X42376730Y16743100D01*
X41232880Y16743100D01*
X41232880Y16723100D01*
X40924880Y16723100D01*
X40924880Y16743100D01*
X40904880Y16743100D01*
X40904880Y17051100D01*
X40924880Y17051100D01*
X40924880Y18193989D01*
X41232880Y18193989D01*
X41232880Y17051100D01*
X42376730Y17051100D01*
X42486789Y17276011D01*
X42385815Y17543400D01*
X42234616Y17785952D01*
X42039002Y17994346D01*
X41806491Y18160573D01*
X41546019Y18278246D01*
X41457790Y18305003D01*
X41232880Y18193989D01*
X40924880Y18193989D01*
X40699970Y18305003D01*
X40611741Y18278246D01*
X40351269Y18160573D01*
X40118758Y17994346D01*
X39923144Y17785952D01*
X39771945Y17543400D01*
X39670971Y17276011D01*
X39781029Y17051102D01*
X39632244Y17051102D01*
X39598915Y17218658D01*
X39515814Y17419282D01*
X39395170Y17599839D01*
X39241619Y17753390D01*
X39061062Y17874034D01*
X38860438Y17957135D01*
X38647457Y17999500D01*
X38430303Y17999500D01*
X38217322Y17957135D01*
X38023740Y17876951D01*
X37704045Y18196645D01*
X37693758Y18209180D01*
X37643722Y18250243D01*
X37586637Y18280756D01*
X37524696Y18299546D01*
X37476414Y18304301D01*
X37476411Y18304301D01*
X37460279Y18305890D01*
X37444147Y18304301D01*
X35497282Y18304301D01*
X35481150Y18305890D01*
X35465018Y18304301D01*
X35465016Y18304301D01*
X35416734Y18299546D01*
X35354793Y18280756D01*
X35320450Y18262399D01*
X35297707Y18250243D01*
X35281031Y18236557D01*
X35247672Y18209180D01*
X35237389Y18196650D01*
X34020257Y16979517D01*
X34007722Y16969230D01*
X33997437Y16956697D01*
X33966659Y16919194D01*
X33954850Y16897101D01*
X33936146Y16862108D01*
X33917356Y16800167D01*
X33912601Y16751886D01*
X33911012Y16735751D01*
X33912601Y16719619D01*
X33912601Y16420510D01*
X32937271Y15445179D01*
X21387404Y15445177D01*
X21371262Y15446767D01*
X21306845Y15440422D01*
X21244904Y15421633D01*
X21187819Y15391121D01*
X21150316Y15360342D01*
X21150313Y15360339D01*
X21137783Y15350056D01*
X21127500Y15337526D01*
X16573384Y10783410D01*
X6989874Y10783408D01*
X6973742Y10784997D01*
X6957610Y10783408D01*
X6957608Y10783408D01*
X6909326Y10778653D01*
X6866174Y10765563D01*
X6847384Y10759863D01*
X6790299Y10729351D01*
X6752796Y10698573D01*
X6752788Y10698565D01*
X6740264Y10688287D01*
X6729986Y10675763D01*
X4774246Y8720022D01*
X4761711Y8709735D01*
X4751426Y8697202D01*
X4720648Y8659699D01*
X4701856Y8624542D01*
X4690135Y8602613D01*
X4671345Y8540672D01*
X4667324Y8499841D01*
X4665001Y8476256D01*
X4666590Y8460124D01*
X4666591Y2862576D01*
X4579926Y2845337D01*
X4388402Y2766005D01*
X4216034Y2650832D01*
X4069448Y2504246D01*
X3954275Y2331878D01*
X3874943Y2140354D01*
X3834500Y1937032D01*
X3834500Y1729728D01*
X3874943Y1526406D01*
X3954275Y1334882D01*
X4069448Y1162514D01*
X4098583Y1133379D01*
X3511612Y1133379D01*
X3400521Y1244470D01*
X3400521Y2633380D01*
X3395648Y2682859D01*
X3381215Y2730437D01*
X3357778Y2774284D01*
X3326237Y2812717D01*
X3287804Y2844258D01*
X3243957Y2867695D01*
X3196379Y2882128D01*
X3146900Y2887001D01*
X1546900Y2887001D01*
X1497421Y2882128D01*
X1449843Y2867695D01*
X1405996Y2844258D01*
X1367563Y2812717D01*
X1336022Y2774284D01*
X1312585Y2730437D01*
X1298152Y2682859D01*
X1293279Y2633380D01*
X277000Y2633380D01*
X277000Y4831590D01*
X1871600Y4831590D01*
X1871600Y4668410D01*
X1903435Y4508365D01*
X1965882Y4357606D01*
X2056540Y4221926D01*
X2171926Y4106540D01*
X2307606Y4015882D01*
X2458365Y3953435D01*
X2618410Y3921600D01*
X2781590Y3921600D01*
X2941635Y3953435D01*
X3092394Y4015882D01*
X3228074Y4106540D01*
X3343460Y4221926D01*
X3434118Y4357606D01*
X3496565Y4508365D01*
X3528400Y4668410D01*
X3528400Y4831590D01*
X3496565Y4991635D01*
X3434118Y5142394D01*
X3343460Y5278074D01*
X3228074Y5393460D01*
X3092394Y5484118D01*
X2941635Y5546565D01*
X2781590Y5578400D01*
X2618410Y5578400D01*
X2458365Y5546565D01*
X2307606Y5484118D01*
X2171926Y5393460D01*
X2056540Y5278074D01*
X1965882Y5142394D01*
X1903435Y4991635D01*
X1871600Y4831590D01*
X277000Y4831590D01*
X277000Y14951007D01*
X8219580Y14951007D01*
X8219580Y14842193D01*
X8240808Y14735471D01*
X8282449Y14634940D01*
X8342903Y14544465D01*
X8419845Y14467523D01*
X8510320Y14407069D01*
X8610851Y14365428D01*
X8717573Y14344200D01*
X11226387Y14344200D01*
X11333109Y14365428D01*
X11433640Y14407069D01*
X11524115Y14467523D01*
X11601057Y14544465D01*
X11661511Y14634940D01*
X11703152Y14735471D01*
X11724380Y14842193D01*
X11724380Y14951007D01*
X11703152Y15057729D01*
X11661511Y15158260D01*
X11601057Y15248735D01*
X11524115Y15325677D01*
X11433640Y15386131D01*
X11333109Y15427772D01*
X11226387Y15449000D01*
X8717573Y15449000D01*
X8610851Y15427772D01*
X8510320Y15386131D01*
X8419845Y15325677D01*
X8342903Y15248735D01*
X8282449Y15158260D01*
X8240808Y15057729D01*
X8219580Y14951007D01*
X277000Y14951007D01*
X277000Y17177032D01*
X1294500Y17177032D01*
X1294500Y16969728D01*
X1334943Y16766406D01*
X1414275Y16574882D01*
X1529448Y16402514D01*
X1676034Y16255928D01*
X1848402Y16140755D01*
X2039926Y16061423D01*
X2243248Y16020980D01*
X2450552Y16020980D01*
X2653874Y16061423D01*
X2845398Y16140755D01*
X3017766Y16255928D01*
X3164352Y16402514D01*
X3279525Y16574882D01*
X3358857Y16766406D01*
X3399300Y16969728D01*
X3399300Y17177032D01*
X3834500Y17177032D01*
X3834500Y16969728D01*
X3874943Y16766406D01*
X3954275Y16574882D01*
X4069448Y16402514D01*
X4216034Y16255928D01*
X4388402Y16140755D01*
X4579926Y16061423D01*
X4783248Y16020980D01*
X4990552Y16020980D01*
X5193874Y16061423D01*
X5385398Y16140755D01*
X5557766Y16255928D01*
X5704352Y16402514D01*
X5819525Y16574882D01*
X5898857Y16766406D01*
X5939300Y16969728D01*
X5939300Y17177032D01*
X6374500Y17177032D01*
X6374500Y16969728D01*
X6414943Y16766406D01*
X6494275Y16574882D01*
X6609448Y16402514D01*
X6756034Y16255928D01*
X6928402Y16140755D01*
X7119926Y16061423D01*
X7323248Y16020980D01*
X7530552Y16020980D01*
X7733874Y16061423D01*
X7925398Y16140755D01*
X8097766Y16255928D01*
X8244352Y16402514D01*
X8359525Y16574882D01*
X8438857Y16766406D01*
X8479300Y16969728D01*
X8479300Y17177032D01*
X8914500Y17177032D01*
X8914500Y16969728D01*
X8954943Y16766406D01*
X9034275Y16574882D01*
X9149448Y16402514D01*
X9296034Y16255928D01*
X9468402Y16140755D01*
X9659926Y16061423D01*
X9863248Y16020980D01*
X10070552Y16020980D01*
X10273874Y16061423D01*
X10465398Y16140755D01*
X10637766Y16255928D01*
X10784352Y16402514D01*
X10899525Y16574882D01*
X10978857Y16766406D01*
X11019300Y16969728D01*
X11019300Y17177032D01*
X11454500Y17177032D01*
X11454500Y16969728D01*
X11494943Y16766406D01*
X11574275Y16574882D01*
X11689448Y16402514D01*
X11836034Y16255928D01*
X12008402Y16140755D01*
X12199926Y16061423D01*
X12403248Y16020980D01*
X12610552Y16020980D01*
X12813874Y16061423D01*
X13005398Y16140755D01*
X13177766Y16255928D01*
X13324352Y16402514D01*
X13439525Y16574882D01*
X13518857Y16766406D01*
X13559300Y16969728D01*
X13559300Y17177032D01*
X13994500Y17177032D01*
X13994500Y16969728D01*
X14034943Y16766406D01*
X14114275Y16574882D01*
X14229448Y16402514D01*
X14376034Y16255928D01*
X14548402Y16140755D01*
X14739926Y16061423D01*
X14943248Y16020980D01*
X15150552Y16020980D01*
X15353874Y16061423D01*
X15545398Y16140755D01*
X15717766Y16255928D01*
X15864352Y16402514D01*
X15979525Y16574882D01*
X16058857Y16766406D01*
X16099300Y16969728D01*
X16099300Y17177032D01*
X16534500Y17177032D01*
X16534500Y16969728D01*
X16574943Y16766406D01*
X16654275Y16574882D01*
X16769448Y16402514D01*
X16916034Y16255928D01*
X17088402Y16140755D01*
X17279926Y16061423D01*
X17483248Y16020980D01*
X17690552Y16020980D01*
X17893874Y16061423D01*
X18085398Y16140755D01*
X18257766Y16255928D01*
X18404352Y16402514D01*
X18519525Y16574882D01*
X18598857Y16766406D01*
X18639300Y16969728D01*
X18639300Y17177032D01*
X19074500Y17177032D01*
X19074500Y16969728D01*
X19114943Y16766406D01*
X19194275Y16574882D01*
X19309448Y16402514D01*
X19456034Y16255928D01*
X19628402Y16140755D01*
X19819926Y16061423D01*
X20023248Y16020980D01*
X20230552Y16020980D01*
X20433874Y16061423D01*
X20625398Y16140755D01*
X20797766Y16255928D01*
X20944352Y16402514D01*
X21059525Y16574882D01*
X21138857Y16766406D01*
X21179300Y16969728D01*
X21179300Y17177032D01*
X21614500Y17177032D01*
X21614500Y16969728D01*
X21654943Y16766406D01*
X21734275Y16574882D01*
X21849448Y16402514D01*
X21996034Y16255928D01*
X22168402Y16140755D01*
X22359926Y16061423D01*
X22563248Y16020980D01*
X22770552Y16020980D01*
X22973874Y16061423D01*
X23165398Y16140755D01*
X23337766Y16255928D01*
X23484352Y16402514D01*
X23599525Y16574882D01*
X23678857Y16766406D01*
X23719300Y16969728D01*
X23719300Y17177032D01*
X24154500Y17177032D01*
X24154500Y16969728D01*
X24194943Y16766406D01*
X24274275Y16574882D01*
X24389448Y16402514D01*
X24536034Y16255928D01*
X24708402Y16140755D01*
X24899926Y16061423D01*
X25103248Y16020980D01*
X25310552Y16020980D01*
X25513874Y16061423D01*
X25705398Y16140755D01*
X25877766Y16255928D01*
X26024352Y16402514D01*
X26139525Y16574882D01*
X26218857Y16766406D01*
X26259300Y16969728D01*
X26259300Y17177032D01*
X26694500Y17177032D01*
X26694500Y16969728D01*
X26734943Y16766406D01*
X26814275Y16574882D01*
X26929448Y16402514D01*
X27076034Y16255928D01*
X27248402Y16140755D01*
X27439926Y16061423D01*
X27643248Y16020980D01*
X27850552Y16020980D01*
X28053874Y16061423D01*
X28245398Y16140755D01*
X28417766Y16255928D01*
X28564352Y16402514D01*
X28679525Y16574882D01*
X28758857Y16766406D01*
X28799300Y16969728D01*
X28799300Y17177032D01*
X29234500Y17177032D01*
X29234500Y16969728D01*
X29274943Y16766406D01*
X29354275Y16574882D01*
X29469448Y16402514D01*
X29616034Y16255928D01*
X29788402Y16140755D01*
X29979926Y16061423D01*
X30183248Y16020980D01*
X30390552Y16020980D01*
X30593874Y16061423D01*
X30785398Y16140755D01*
X30957766Y16255928D01*
X31104352Y16402514D01*
X31219525Y16574882D01*
X31298857Y16766406D01*
X31339300Y16969728D01*
X31339300Y17177032D01*
X31298857Y17380354D01*
X31219525Y17571878D01*
X31104352Y17744246D01*
X30957766Y17890832D01*
X30785398Y18006005D01*
X30593874Y18085337D01*
X30390552Y18125780D01*
X30183248Y18125780D01*
X29979926Y18085337D01*
X29788402Y18006005D01*
X29616034Y17890832D01*
X29469448Y17744246D01*
X29354275Y17571878D01*
X29274943Y17380354D01*
X29234500Y17177032D01*
X28799300Y17177032D01*
X28758857Y17380354D01*
X28679525Y17571878D01*
X28564352Y17744246D01*
X28417766Y17890832D01*
X28245398Y18006005D01*
X28053874Y18085337D01*
X27850552Y18125780D01*
X27643248Y18125780D01*
X27439926Y18085337D01*
X27248402Y18006005D01*
X27076034Y17890832D01*
X26929448Y17744246D01*
X26814275Y17571878D01*
X26734943Y17380354D01*
X26694500Y17177032D01*
X26259300Y17177032D01*
X26218857Y17380354D01*
X26139525Y17571878D01*
X26024352Y17744246D01*
X25877766Y17890832D01*
X25705398Y18006005D01*
X25513874Y18085337D01*
X25310552Y18125780D01*
X25103248Y18125780D01*
X24899926Y18085337D01*
X24708402Y18006005D01*
X24536034Y17890832D01*
X24389448Y17744246D01*
X24274275Y17571878D01*
X24194943Y17380354D01*
X24154500Y17177032D01*
X23719300Y17177032D01*
X23678857Y17380354D01*
X23599525Y17571878D01*
X23484352Y17744246D01*
X23337766Y17890832D01*
X23165398Y18006005D01*
X22973874Y18085337D01*
X22770552Y18125780D01*
X22563248Y18125780D01*
X22359926Y18085337D01*
X22168402Y18006005D01*
X21996034Y17890832D01*
X21849448Y17744246D01*
X21734275Y17571878D01*
X21654943Y17380354D01*
X21614500Y17177032D01*
X21179300Y17177032D01*
X21138857Y17380354D01*
X21059525Y17571878D01*
X20944352Y17744246D01*
X20797766Y17890832D01*
X20625398Y18006005D01*
X20433874Y18085337D01*
X20230552Y18125780D01*
X20023248Y18125780D01*
X19819926Y18085337D01*
X19628402Y18006005D01*
X19456034Y17890832D01*
X19309448Y17744246D01*
X19194275Y17571878D01*
X19114943Y17380354D01*
X19074500Y17177032D01*
X18639300Y17177032D01*
X18598857Y17380354D01*
X18519525Y17571878D01*
X18404352Y17744246D01*
X18257766Y17890832D01*
X18085398Y18006005D01*
X17893874Y18085337D01*
X17690552Y18125780D01*
X17483248Y18125780D01*
X17279926Y18085337D01*
X17088402Y18006005D01*
X16916034Y17890832D01*
X16769448Y17744246D01*
X16654275Y17571878D01*
X16574943Y17380354D01*
X16534500Y17177032D01*
X16099300Y17177032D01*
X16058857Y17380354D01*
X15979525Y17571878D01*
X15864352Y17744246D01*
X15717766Y17890832D01*
X15545398Y18006005D01*
X15353874Y18085337D01*
X15150552Y18125780D01*
X14943248Y18125780D01*
X14739926Y18085337D01*
X14548402Y18006005D01*
X14376034Y17890832D01*
X14229448Y17744246D01*
X14114275Y17571878D01*
X14034943Y17380354D01*
X13994500Y17177032D01*
X13559300Y17177032D01*
X13518857Y17380354D01*
X13439525Y17571878D01*
X13324352Y17744246D01*
X13177766Y17890832D01*
X13005398Y18006005D01*
X12813874Y18085337D01*
X12610552Y18125780D01*
X12403248Y18125780D01*
X12199926Y18085337D01*
X12008402Y18006005D01*
X11836034Y17890832D01*
X11689448Y17744246D01*
X11574275Y17571878D01*
X11494943Y17380354D01*
X11454500Y17177032D01*
X11019300Y17177032D01*
X10978857Y17380354D01*
X10899525Y17571878D01*
X10784352Y17744246D01*
X10637766Y17890832D01*
X10465398Y18006005D01*
X10273874Y18085337D01*
X10070552Y18125780D01*
X9863248Y18125780D01*
X9659926Y18085337D01*
X9468402Y18006005D01*
X9296034Y17890832D01*
X9149448Y17744246D01*
X9034275Y17571878D01*
X8954943Y17380354D01*
X8914500Y17177032D01*
X8479300Y17177032D01*
X8438857Y17380354D01*
X8359525Y17571878D01*
X8244352Y17744246D01*
X8097766Y17890832D01*
X7925398Y18006005D01*
X7733874Y18085337D01*
X7530552Y18125780D01*
X7323248Y18125780D01*
X7119926Y18085337D01*
X6928402Y18006005D01*
X6756034Y17890832D01*
X6609448Y17744246D01*
X6494275Y17571878D01*
X6414943Y17380354D01*
X6374500Y17177032D01*
X5939300Y17177032D01*
X5898857Y17380354D01*
X5819525Y17571878D01*
X5704352Y17744246D01*
X5557766Y17890832D01*
X5385398Y18006005D01*
X5193874Y18085337D01*
X4990552Y18125780D01*
X4783248Y18125780D01*
X4579926Y18085337D01*
X4388402Y18006005D01*
X4216034Y17890832D01*
X4069448Y17744246D01*
X3954275Y17571878D01*
X3874943Y17380354D01*
X3834500Y17177032D01*
X3399300Y17177032D01*
X3358857Y17380354D01*
X3279525Y17571878D01*
X3164352Y17744246D01*
X3017766Y17890832D01*
X2845398Y18006005D01*
X2653874Y18085337D01*
X2450552Y18125780D01*
X2243248Y18125780D01*
X2039926Y18085337D01*
X1848402Y18006005D01*
X1676034Y17890832D01*
X1529448Y17744246D01*
X1414275Y17571878D01*
X1334943Y17380354D01*
X1294500Y17177032D01*
X277000Y17177032D01*
X277000Y18136452D01*
X284455Y18212479D01*
X302599Y18272578D01*
X332073Y18328011D01*
X371752Y18376662D01*
X420122Y18416678D01*
X475347Y18446537D01*
X535316Y18465101D01*
X610473Y18473000D01*
X42436452Y18473000D01*
X42512479Y18465545D01*
G37*
X42512479Y18465545D02*
X42572578Y18447401D01*
X42628011Y18417927D01*
X42676662Y18378248D01*
X42716678Y18329878D01*
X42746537Y18274653D01*
X42765101Y18214684D01*
X42773001Y18139517D01*
X42773000Y13836395D01*
X42774181Y13824406D01*
X42774155Y13820707D01*
X42774532Y13816857D01*
X42786772Y13700400D01*
X42791827Y13675775D01*
X42796525Y13651145D01*
X42797641Y13647450D01*
X42797642Y13647443D01*
X42797645Y13647437D01*
X42832270Y13535580D01*
X42841999Y13512435D01*
X42851403Y13489160D01*
X42853217Y13485748D01*
X42853219Y13485743D01*
X42853222Y13485739D01*
X42908914Y13382737D01*
X42922955Y13361920D01*
X42936701Y13340914D01*
X42939145Y13337917D01*
X43013788Y13247691D01*
X43031598Y13230004D01*
X43049166Y13212064D01*
X43052140Y13209604D01*
X43052147Y13209597D01*
X43052155Y13209592D01*
X43142892Y13135588D01*
X43163802Y13121696D01*
X43184519Y13107510D01*
X43187921Y13105670D01*
X43291315Y13050695D01*
X43314547Y13041119D01*
X43337602Y13031238D01*
X43341293Y13030095D01*
X43341299Y13030093D01*
X43453398Y12996249D01*
X43478046Y12991368D01*
X43502582Y12986153D01*
X43506419Y12985750D01*
X43506429Y12985748D01*
X43506438Y12985748D01*
X43622970Y12974322D01*
X43622971Y12974322D01*
X43636394Y12973000D01*
X137050000Y12973000D01*
X137050000Y12200964D01*
X136988189Y12243412D01*
X136737511Y12351002D01*
X136470660Y12407620D01*
X135535660Y12407620D01*
X135535660Y11650000D01*
X135227660Y11650000D01*
X135227660Y12407620D01*
X134292660Y12407620D01*
X134025809Y12351002D01*
X133775131Y12243412D01*
X133550260Y12088984D01*
X133359837Y11893654D01*
X133211180Y11664927D01*
X133205831Y11650000D01*
X133172513Y11650000D01*
X133086657Y11754617D01*
X132930215Y11883005D01*
X132751731Y11978406D01*
X132558066Y12037154D01*
X132407131Y12052020D01*
X130436189Y12052020D01*
X130285254Y12037154D01*
X130091589Y11978406D01*
X129913105Y11883005D01*
X129756663Y11754617D01*
X129628275Y11598175D01*
X129532874Y11419691D01*
X129474126Y11226026D01*
X129454289Y11024620D01*
X129474126Y10823214D01*
X129532874Y10629549D01*
X129628275Y10451065D01*
X129756663Y10294623D01*
X129913105Y10166235D01*
X130091589Y10070834D01*
X130285254Y10012086D01*
X130436189Y9997220D01*
X132407131Y9997220D01*
X132558066Y10012086D01*
X132751731Y10070834D01*
X132930215Y10166235D01*
X133000000Y10223506D01*
X133000000Y9438061D01*
X23125585Y9438061D01*
X23109460Y9439649D01*
X23093336Y9438061D01*
X23093326Y9438061D01*
X23045044Y9433306D01*
X22983103Y9414516D01*
X22956530Y9400312D01*
X22926017Y9384003D01*
X22888514Y9353225D01*
X22875982Y9342940D01*
X22865699Y9330410D01*
X19763890Y6228600D01*
X16589651Y6228600D01*
X16573519Y6230189D01*
X16557387Y6228600D01*
X16557385Y6228600D01*
X16509103Y6223845D01*
X16447162Y6205055D01*
X16418503Y6189736D01*
X16390076Y6174542D01*
X16352868Y6144006D01*
X16340041Y6133479D01*
X16329758Y6120949D01*
X12983772Y2774963D01*
X12813874Y2845337D01*
X12610552Y2885780D01*
X12403248Y2885780D01*
X12199926Y2845337D01*
X12008402Y2766005D01*
X11836034Y2650832D01*
X11689448Y2504246D01*
X11574275Y2331878D01*
X11494943Y2140354D01*
X11454500Y1937032D01*
X11454500Y1729728D01*
X11494943Y1526406D01*
X11574275Y1334882D01*
X11689448Y1162514D01*
X11836034Y1015928D01*
X12008402Y900755D01*
X12199926Y821423D01*
X12403248Y780980D01*
X12610552Y780980D01*
X12813874Y821423D01*
X13005398Y900755D01*
X13177766Y1015928D01*
X13324352Y1162514D01*
X13439525Y1334882D01*
X13518857Y1526406D01*
X13559300Y1729728D01*
X13559300Y1937032D01*
X13518857Y2140354D01*
X13448483Y2310252D01*
X16709631Y5571400D01*
X19883868Y5571400D01*
X19900000Y5569811D01*
X19916132Y5571400D01*
X19916135Y5571400D01*
X19964417Y5576155D01*
X20026358Y5594945D01*
X20083443Y5625458D01*
X20133479Y5666521D01*
X20143766Y5679056D01*
X23245572Y8780861D01*
X24500736Y8780861D01*
X23342576Y7622700D01*
X23330041Y7612413D01*
X23319756Y7599880D01*
X23288978Y7562377D01*
X23274164Y7534661D01*
X23258465Y7505291D01*
X23239675Y7443350D01*
X23235663Y7402614D01*
X23233331Y7378934D01*
X23234920Y7362802D01*
X23234921Y5568658D01*
X23170174Y5503911D01*
X23114754Y5420970D01*
X23076581Y5328811D01*
X23057120Y5230976D01*
X23057120Y5131224D01*
X23076581Y5033389D01*
X23079186Y5027099D01*
X17928150Y5027099D01*
X17912018Y5028688D01*
X17895886Y5027099D01*
X17895884Y5027099D01*
X17847602Y5022344D01*
X17785661Y5003554D01*
X17754351Y4986818D01*
X17728575Y4973041D01*
X17691072Y4942263D01*
X17678540Y4931978D01*
X17668257Y4919448D01*
X15523772Y2774963D01*
X15353874Y2845337D01*
X15150552Y2885780D01*
X14943248Y2885780D01*
X14739926Y2845337D01*
X14548402Y2766005D01*
X14376034Y2650832D01*
X14229448Y2504246D01*
X14114275Y2331878D01*
X14034943Y2140354D01*
X13994500Y1937032D01*
X13994500Y1729728D01*
X14034943Y1526406D01*
X14114275Y1334882D01*
X14229448Y1162514D01*
X14376034Y1015928D01*
X14548402Y900755D01*
X14739926Y821423D01*
X14943248Y780980D01*
X15150552Y780980D01*
X15353874Y821423D01*
X15545398Y900755D01*
X15717766Y1015928D01*
X15864352Y1162514D01*
X15979525Y1334882D01*
X16058857Y1526406D01*
X16099300Y1729728D01*
X16099300Y1937032D01*
X16058857Y2140354D01*
X15988483Y2310252D01*
X18048130Y4369899D01*
X23882367Y4369899D01*
X23898499Y4368310D01*
X23914631Y4369899D01*
X23914634Y4369899D01*
X23962916Y4374654D01*
X24024857Y4393444D01*
X24081942Y4423957D01*
X24131978Y4465020D01*
X24142265Y4477555D01*
X25407828Y5743117D01*
X25404755Y5732986D01*
X25394201Y5698193D01*
X25393555Y5696065D01*
X25387210Y5631649D01*
X25388800Y5615507D01*
X25388799Y4865641D01*
X23713739Y3190581D01*
X21171622Y3190581D01*
X21155500Y3192169D01*
X21139378Y3190581D01*
X21139366Y3190581D01*
X21091084Y3185826D01*
X21029143Y3167036D01*
X21002570Y3152832D01*
X20972057Y3136523D01*
X20934554Y3105745D01*
X20922022Y3095460D01*
X20911739Y3082930D01*
X20603772Y2774963D01*
X20433874Y2845337D01*
X20230552Y2885780D01*
X20023248Y2885780D01*
X19819926Y2845337D01*
X19628402Y2766005D01*
X19456034Y2650832D01*
X19309448Y2504246D01*
X19194275Y2331878D01*
X19114943Y2140354D01*
X19074500Y1937032D01*
X19074500Y1729728D01*
X19114943Y1526406D01*
X19194275Y1334882D01*
X19309448Y1162514D01*
X19338583Y1133379D01*
X18751612Y1133379D01*
X18528483Y1356508D01*
X18598857Y1526406D01*
X18639300Y1729728D01*
X18639300Y1937032D01*
X18598857Y2140354D01*
X18519525Y2331878D01*
X18404352Y2504246D01*
X18257766Y2650832D01*
X18085398Y2766005D01*
X17893874Y2845337D01*
X17690552Y2885780D01*
X17483248Y2885780D01*
X17279926Y2845337D01*
X17088402Y2766005D01*
X16916034Y2650832D01*
X16769448Y2504246D01*
X16654275Y2331878D01*
X16574943Y2140354D01*
X16534500Y1937032D01*
X16534500Y1729728D01*
X16574943Y1526406D01*
X16654275Y1334882D01*
X16769448Y1162514D01*
X16916034Y1015928D01*
X17088402Y900755D01*
X17279926Y821423D01*
X17483248Y780980D01*
X17690552Y780980D01*
X17893874Y821423D01*
X18063772Y891797D01*
X18371739Y583830D01*
X18382022Y571300D01*
X18394552Y561017D01*
X18394554Y561015D01*
X18432057Y530237D01*
X18462570Y513928D01*
X18489143Y499724D01*
X18551084Y480934D01*
X18599366Y476179D01*
X18599378Y476179D01*
X18615500Y474591D01*
X18631622Y476179D01*
X31850000Y476179D01*
X31850000Y277000D01*
X613548Y277000D01*
X537521Y284455D01*
X477419Y302600D01*
X421986Y332075D01*
X373340Y371751D01*
X333321Y420125D01*
X303463Y475347D01*
X284899Y535316D01*
X277000Y610474D01*
X277000Y2633380D01*
X1293279Y2633380D01*
X1293279Y1033380D01*
X1298152Y983901D01*
X1312585Y936323D01*
X1336022Y892476D01*
X1367563Y854043D01*
X1405996Y822502D01*
X1449843Y799065D01*
X1497421Y784632D01*
X1546900Y779759D01*
X2935810Y779759D01*
X3131739Y583830D01*
X3142022Y571300D01*
X3154552Y561017D01*
X3154554Y561015D01*
X3192057Y530237D01*
X3222570Y513928D01*
X3249143Y499724D01*
X3311084Y480934D01*
X3359366Y476179D01*
X3359378Y476179D01*
X3375500Y474591D01*
X3391622Y476179D01*
X5364497Y476179D01*
X5380629Y474590D01*
X5396761Y476179D01*
X5396764Y476179D01*
X5445046Y480934D01*
X5506987Y499724D01*
X5564072Y530237D01*
X5614108Y571300D01*
X5624395Y583835D01*
X6136450Y1095889D01*
X6148980Y1106172D01*
X6171308Y1133379D01*
X6190043Y1156207D01*
X6220555Y1213292D01*
X6220556Y1213293D01*
X6239346Y1275234D01*
X6244101Y1323516D01*
X6244101Y1323518D01*
X6245690Y1339650D01*
X6244101Y1355782D01*
X6244101Y1937032D01*
X6374500Y1937032D01*
X6374500Y1729728D01*
X6414943Y1526406D01*
X6494275Y1334882D01*
X6609448Y1162514D01*
X6756034Y1015928D01*
X6928402Y900755D01*
X7119926Y821423D01*
X7323248Y780980D01*
X7530552Y780980D01*
X7733874Y821423D01*
X7925398Y900755D01*
X8097766Y1015928D01*
X8244352Y1162514D01*
X8359525Y1334882D01*
X8438857Y1526406D01*
X8479300Y1729728D01*
X8479300Y1937032D01*
X8914500Y1937032D01*
X8914500Y1729728D01*
X8954943Y1526406D01*
X9034275Y1334882D01*
X9149448Y1162514D01*
X9296034Y1015928D01*
X9468402Y900755D01*
X9659926Y821423D01*
X9863248Y780980D01*
X10070552Y780980D01*
X10273874Y821423D01*
X10465398Y900755D01*
X10637766Y1015928D01*
X10784352Y1162514D01*
X10899525Y1334882D01*
X10978857Y1526406D01*
X11019300Y1729728D01*
X11019300Y1937032D01*
X10978857Y2140354D01*
X10899525Y2331878D01*
X10784352Y2504246D01*
X10637766Y2650832D01*
X10465398Y2766005D01*
X10273874Y2845337D01*
X10070552Y2885780D01*
X9863248Y2885780D01*
X9659926Y2845337D01*
X9468402Y2766005D01*
X9296034Y2650832D01*
X9149448Y2504246D01*
X9034275Y2331878D01*
X8954943Y2140354D01*
X8914500Y1937032D01*
X8479300Y1937032D01*
X8438857Y2140354D01*
X8359525Y2331878D01*
X8244352Y2504246D01*
X8097766Y2650832D01*
X7925398Y2766005D01*
X7733874Y2845337D01*
X7530552Y2885780D01*
X7323248Y2885780D01*
X7119926Y2845337D01*
X6928402Y2766005D01*
X6756034Y2650832D01*
X6609448Y2504246D01*
X6494275Y2331878D01*
X6414943Y2140354D01*
X6374500Y1937032D01*
X6244101Y1937032D01*
X6244101Y2310977D01*
X6245690Y2327109D01*
X6242865Y2355791D01*
X6239346Y2391526D01*
X6220556Y2453467D01*
X6215508Y2462911D01*
X6190043Y2510553D01*
X6159265Y2548056D01*
X6159263Y2548058D01*
X6148980Y2560588D01*
X6136451Y2570870D01*
X5628600Y3078720D01*
X5628600Y6052600D01*
X7399440Y6052600D01*
X7399440Y5452600D01*
X7401759Y5428952D01*
X7403911Y5405305D01*
X7404160Y5404457D01*
X7404247Y5403575D01*
X7411112Y5380838D01*
X7417819Y5358049D01*
X7418230Y5357263D01*
X7418485Y5356418D01*
X7429622Y5335473D01*
X7440641Y5314395D01*
X7441196Y5313705D01*
X7441611Y5312924D01*
X7456638Y5294498D01*
X7471507Y5276005D01*
X7472183Y5275438D01*
X7472744Y5274750D01*
X7491030Y5259623D01*
X7509242Y5244341D01*
X7510021Y5243913D01*
X7510700Y5243351D01*
X7531524Y5232091D01*
X7552409Y5220610D01*
X7553255Y5220342D01*
X7554031Y5219922D01*
X7576730Y5212895D01*
X7599363Y5205716D01*
X7600239Y5205618D01*
X7601088Y5205355D01*
X7624795Y5202863D01*
X7648316Y5200225D01*
X7650012Y5200213D01*
X7650078Y5200206D01*
X7650144Y5200212D01*
X7651840Y5200200D01*
X10106247Y5200200D01*
X10212969Y5221428D01*
X10313500Y5263069D01*
X10403975Y5323523D01*
X10480917Y5400465D01*
X10541371Y5490940D01*
X10583012Y5591471D01*
X10604240Y5698193D01*
X10604240Y5807007D01*
X10583012Y5913729D01*
X10541371Y6014260D01*
X10480917Y6104735D01*
X10403975Y6181677D01*
X10313500Y6242131D01*
X10212969Y6283772D01*
X10106247Y6305000D01*
X7651840Y6305000D01*
X7628192Y6302681D01*
X7604545Y6300529D01*
X7603697Y6300280D01*
X7602815Y6300193D01*
X7580078Y6293328D01*
X7557289Y6286621D01*
X7556503Y6286210D01*
X7555658Y6285955D01*
X7534713Y6274818D01*
X7513635Y6263799D01*
X7512945Y6263244D01*
X7512164Y6262829D01*
X7493738Y6247802D01*
X7475245Y6232933D01*
X7474678Y6232257D01*
X7473990Y6231696D01*
X7458863Y6213410D01*
X7443581Y6195198D01*
X7443153Y6194419D01*
X7442591Y6193740D01*
X7431331Y6172916D01*
X7419850Y6152031D01*
X7419582Y6151185D01*
X7419162Y6150409D01*
X7412135Y6127710D01*
X7404956Y6105077D01*
X7404858Y6104201D01*
X7404595Y6103352D01*
X7402103Y6079645D01*
X7399465Y6056124D01*
X7399453Y6054428D01*
X7399446Y6054362D01*
X7399452Y6054296D01*
X7399440Y6052600D01*
X5628600Y6052600D01*
X5628600Y8213890D01*
X7236111Y9821400D01*
X16819618Y9821400D01*
X16835750Y9819811D01*
X16851882Y9821400D01*
X16851885Y9821400D01*
X16900167Y9826155D01*
X16962108Y9844945D01*
X17019193Y9875458D01*
X17069229Y9916521D01*
X17079516Y9929056D01*
X20439330Y13288869D01*
X20451234Y13260130D01*
X20506654Y13177189D01*
X20577189Y13106654D01*
X20660130Y13051234D01*
X20752289Y13013061D01*
X20850124Y12993600D01*
X20949876Y12993600D01*
X21047711Y13013061D01*
X21139870Y13051234D01*
X21222811Y13106654D01*
X21293346Y13177189D01*
X21348766Y13260130D01*
X21386939Y13352289D01*
X21406400Y13450124D01*
X21406400Y13541690D01*
X22043070Y14178359D01*
X22817062Y14178359D01*
X21893397Y13254693D01*
X21801831Y13254693D01*
X21703996Y13235232D01*
X21611837Y13197059D01*
X21528896Y13141639D01*
X21458361Y13071104D01*
X21402941Y12988163D01*
X21364768Y12896004D01*
X21345307Y12798169D01*
X21345307Y12698417D01*
X21364768Y12600582D01*
X21402941Y12508423D01*
X21458361Y12425482D01*
X21528896Y12354947D01*
X21611837Y12299527D01*
X21703996Y12261354D01*
X21801831Y12241893D01*
X21901583Y12241893D01*
X21999418Y12261354D01*
X22091577Y12299527D01*
X22174518Y12354947D01*
X22245053Y12425482D01*
X22300473Y12508423D01*
X22338646Y12600582D01*
X22358107Y12698417D01*
X22358107Y12789983D01*
X23441674Y13873549D01*
X33436008Y13873551D01*
X33452150Y13871961D01*
X33510585Y13877717D01*
X33516567Y13878306D01*
X33535356Y13884006D01*
X33578507Y13897095D01*
X33635593Y13927608D01*
X33673096Y13958386D01*
X33673099Y13958389D01*
X33685629Y13968672D01*
X33695912Y13981202D01*
X34821811Y15107101D01*
X34895259Y15107101D01*
X34895259Y13825953D01*
X34083481Y13014174D01*
X23129246Y13014174D01*
X23109374Y13016131D01*
X23089502Y13014174D01*
X23089495Y13014174D01*
X23030019Y13008316D01*
X22953714Y12985169D01*
X22883391Y12947581D01*
X22853989Y12923451D01*
X22837193Y12909667D01*
X22837190Y12909664D01*
X22821753Y12896995D01*
X22809084Y12881558D01*
X18601047Y8673520D01*
X12686127Y8673520D01*
X12632721Y8753447D01*
X12526807Y8859361D01*
X12402264Y8942578D01*
X12263880Y8999898D01*
X12116973Y9029120D01*
X11967187Y9029120D01*
X11820280Y8999898D01*
X11681896Y8942578D01*
X11557353Y8859361D01*
X11451439Y8753447D01*
X11368222Y8628904D01*
X11310902Y8490520D01*
X11281680Y8343613D01*
X11281680Y8193827D01*
X11310902Y8046920D01*
X11368222Y7908536D01*
X11451439Y7783993D01*
X11557353Y7678079D01*
X11681896Y7594862D01*
X11820280Y7537542D01*
X11967187Y7508320D01*
X12116973Y7508320D01*
X12263880Y7537542D01*
X12402264Y7594862D01*
X12526807Y7678079D01*
X12632721Y7783993D01*
X12686127Y7863920D01*
X18748848Y7863920D01*
X18768720Y7861963D01*
X18788592Y7863920D01*
X18788599Y7863920D01*
X18848075Y7869778D01*
X18924380Y7892925D01*
X18994703Y7930513D01*
X19056341Y7981099D01*
X19069015Y7996542D01*
X21729986Y10657513D01*
X34113273Y10657513D01*
X34211180Y10384313D01*
X34359837Y10155586D01*
X34550260Y9960256D01*
X34775131Y9805828D01*
X35025809Y9698238D01*
X35292660Y9641620D01*
X36227660Y9641620D01*
X36227660Y10870620D01*
X34225331Y10870620D01*
X34113273Y10657513D01*
X21729986Y10657513D01*
X22464200Y11391727D01*
X34113273Y11391727D01*
X34225331Y11178620D01*
X36227660Y11178620D01*
X36227660Y12407620D01*
X36535660Y12407620D01*
X36535660Y11178620D01*
X36555660Y11178620D01*
X36555660Y10870620D01*
X36535660Y10870620D01*
X36535660Y9641620D01*
X37470660Y9641620D01*
X37737511Y9698238D01*
X37988189Y9805828D01*
X38213060Y9960256D01*
X38403483Y10155586D01*
X38552140Y10384313D01*
X38567616Y10427498D01*
X38676663Y10294623D01*
X38833105Y10166235D01*
X39011589Y10070834D01*
X39205254Y10012086D01*
X39356189Y9997220D01*
X41327131Y9997220D01*
X41478066Y10012086D01*
X41671731Y10070834D01*
X41850215Y10166235D01*
X42006657Y10294623D01*
X42135045Y10451065D01*
X42230446Y10629549D01*
X42289194Y10823214D01*
X42309031Y11024620D01*
X42334289Y11024620D01*
X42354126Y10823214D01*
X42412874Y10629549D01*
X42508275Y10451065D01*
X42636663Y10294623D01*
X42793105Y10166235D01*
X42971589Y10070834D01*
X43165254Y10012086D01*
X43316189Y9997220D01*
X45287131Y9997220D01*
X45438066Y10012086D01*
X45631731Y10070834D01*
X45810215Y10166235D01*
X45966657Y10294623D01*
X46095045Y10451065D01*
X46190446Y10629549D01*
X46249194Y10823214D01*
X46269031Y11024620D01*
X46294289Y11024620D01*
X46314126Y10823214D01*
X46372874Y10629549D01*
X46468275Y10451065D01*
X46596663Y10294623D01*
X46753105Y10166235D01*
X46931589Y10070834D01*
X47125254Y10012086D01*
X47276189Y9997220D01*
X49247131Y9997220D01*
X49398066Y10012086D01*
X49591731Y10070834D01*
X49770215Y10166235D01*
X49926657Y10294623D01*
X50055045Y10451065D01*
X50150446Y10629549D01*
X50209194Y10823214D01*
X50229031Y11024620D01*
X50254289Y11024620D01*
X50274126Y10823214D01*
X50332874Y10629549D01*
X50428275Y10451065D01*
X50556663Y10294623D01*
X50713105Y10166235D01*
X50891589Y10070834D01*
X51085254Y10012086D01*
X51236189Y9997220D01*
X53207131Y9997220D01*
X53358066Y10012086D01*
X53551731Y10070834D01*
X53730215Y10166235D01*
X53886657Y10294623D01*
X54015045Y10451065D01*
X54110446Y10629549D01*
X54169194Y10823214D01*
X54189031Y11024620D01*
X54214289Y11024620D01*
X54234126Y10823214D01*
X54292874Y10629549D01*
X54388275Y10451065D01*
X54516663Y10294623D01*
X54673105Y10166235D01*
X54851589Y10070834D01*
X55045254Y10012086D01*
X55196189Y9997220D01*
X57167131Y9997220D01*
X57318066Y10012086D01*
X57511731Y10070834D01*
X57690215Y10166235D01*
X57846657Y10294623D01*
X57975045Y10451065D01*
X58070446Y10629549D01*
X58129194Y10823214D01*
X58149031Y11024620D01*
X58174289Y11024620D01*
X58194126Y10823214D01*
X58252874Y10629549D01*
X58348275Y10451065D01*
X58476663Y10294623D01*
X58633105Y10166235D01*
X58811589Y10070834D01*
X59005254Y10012086D01*
X59156189Y9997220D01*
X61127131Y9997220D01*
X61278066Y10012086D01*
X61471731Y10070834D01*
X61650215Y10166235D01*
X61806657Y10294623D01*
X61935045Y10451065D01*
X62030446Y10629549D01*
X62089194Y10823214D01*
X62109031Y11024620D01*
X62134289Y11024620D01*
X62154126Y10823214D01*
X62212874Y10629549D01*
X62308275Y10451065D01*
X62436663Y10294623D01*
X62593105Y10166235D01*
X62771589Y10070834D01*
X62965254Y10012086D01*
X63116189Y9997220D01*
X65087131Y9997220D01*
X65238066Y10012086D01*
X65431731Y10070834D01*
X65610215Y10166235D01*
X65766657Y10294623D01*
X65895045Y10451065D01*
X65990446Y10629549D01*
X66049194Y10823214D01*
X66069031Y11024620D01*
X66094289Y11024620D01*
X66114126Y10823214D01*
X66172874Y10629549D01*
X66268275Y10451065D01*
X66396663Y10294623D01*
X66553105Y10166235D01*
X66731589Y10070834D01*
X66925254Y10012086D01*
X67076189Y9997220D01*
X69047131Y9997220D01*
X69198066Y10012086D01*
X69391731Y10070834D01*
X69570215Y10166235D01*
X69726657Y10294623D01*
X69855045Y10451065D01*
X69950446Y10629549D01*
X70009194Y10823214D01*
X70029031Y11024620D01*
X70054289Y11024620D01*
X70074126Y10823214D01*
X70132874Y10629549D01*
X70228275Y10451065D01*
X70356663Y10294623D01*
X70513105Y10166235D01*
X70691589Y10070834D01*
X70885254Y10012086D01*
X71036189Y9997220D01*
X73007131Y9997220D01*
X73158066Y10012086D01*
X73351731Y10070834D01*
X73530215Y10166235D01*
X73686657Y10294623D01*
X73815045Y10451065D01*
X73910446Y10629549D01*
X73969194Y10823214D01*
X73989031Y11024620D01*
X74014289Y11024620D01*
X74034126Y10823214D01*
X74092874Y10629549D01*
X74188275Y10451065D01*
X74316663Y10294623D01*
X74473105Y10166235D01*
X74651589Y10070834D01*
X74845254Y10012086D01*
X74996189Y9997220D01*
X76967131Y9997220D01*
X77118066Y10012086D01*
X77311731Y10070834D01*
X77490215Y10166235D01*
X77646657Y10294623D01*
X77775045Y10451065D01*
X77870446Y10629549D01*
X77929194Y10823214D01*
X77949031Y11024620D01*
X77974289Y11024620D01*
X77994126Y10823214D01*
X78052874Y10629549D01*
X78148275Y10451065D01*
X78276663Y10294623D01*
X78433105Y10166235D01*
X78611589Y10070834D01*
X78805254Y10012086D01*
X78956189Y9997220D01*
X80927131Y9997220D01*
X81078066Y10012086D01*
X81271731Y10070834D01*
X81450215Y10166235D01*
X81606657Y10294623D01*
X81735045Y10451065D01*
X81830446Y10629549D01*
X81889194Y10823214D01*
X81909031Y11024620D01*
X81934289Y11024620D01*
X81954126Y10823214D01*
X82012874Y10629549D01*
X82108275Y10451065D01*
X82236663Y10294623D01*
X82393105Y10166235D01*
X82571589Y10070834D01*
X82765254Y10012086D01*
X82916189Y9997220D01*
X84887131Y9997220D01*
X85038066Y10012086D01*
X85231731Y10070834D01*
X85410215Y10166235D01*
X85566657Y10294623D01*
X85695045Y10451065D01*
X85790446Y10629549D01*
X85849194Y10823214D01*
X85869031Y11024620D01*
X85894289Y11024620D01*
X85914126Y10823214D01*
X85972874Y10629549D01*
X86068275Y10451065D01*
X86196663Y10294623D01*
X86353105Y10166235D01*
X86531589Y10070834D01*
X86725254Y10012086D01*
X86876189Y9997220D01*
X88847131Y9997220D01*
X88998066Y10012086D01*
X89191731Y10070834D01*
X89370215Y10166235D01*
X89526657Y10294623D01*
X89655045Y10451065D01*
X89750446Y10629549D01*
X89809194Y10823214D01*
X89829031Y11024620D01*
X89854289Y11024620D01*
X89874126Y10823214D01*
X89932874Y10629549D01*
X90028275Y10451065D01*
X90156663Y10294623D01*
X90313105Y10166235D01*
X90491589Y10070834D01*
X90685254Y10012086D01*
X90836189Y9997220D01*
X92807131Y9997220D01*
X92958066Y10012086D01*
X93151731Y10070834D01*
X93330215Y10166235D01*
X93486657Y10294623D01*
X93615045Y10451065D01*
X93710446Y10629549D01*
X93769194Y10823214D01*
X93789031Y11024620D01*
X93814289Y11024620D01*
X93834126Y10823214D01*
X93892874Y10629549D01*
X93988275Y10451065D01*
X94116663Y10294623D01*
X94273105Y10166235D01*
X94451589Y10070834D01*
X94645254Y10012086D01*
X94796189Y9997220D01*
X96767131Y9997220D01*
X96918066Y10012086D01*
X97111731Y10070834D01*
X97290215Y10166235D01*
X97446657Y10294623D01*
X97575045Y10451065D01*
X97670446Y10629549D01*
X97729194Y10823214D01*
X97749031Y11024620D01*
X97774289Y11024620D01*
X97794126Y10823214D01*
X97852874Y10629549D01*
X97948275Y10451065D01*
X98076663Y10294623D01*
X98233105Y10166235D01*
X98411589Y10070834D01*
X98605254Y10012086D01*
X98756189Y9997220D01*
X100727131Y9997220D01*
X100878066Y10012086D01*
X101071731Y10070834D01*
X101250215Y10166235D01*
X101406657Y10294623D01*
X101535045Y10451065D01*
X101630446Y10629549D01*
X101689194Y10823214D01*
X101709031Y11024620D01*
X101734289Y11024620D01*
X101754126Y10823214D01*
X101812874Y10629549D01*
X101908275Y10451065D01*
X102036663Y10294623D01*
X102193105Y10166235D01*
X102371589Y10070834D01*
X102565254Y10012086D01*
X102716189Y9997220D01*
X104687131Y9997220D01*
X104838066Y10012086D01*
X105031731Y10070834D01*
X105210215Y10166235D01*
X105366657Y10294623D01*
X105495045Y10451065D01*
X105590446Y10629549D01*
X105649194Y10823214D01*
X105669031Y11024620D01*
X105694289Y11024620D01*
X105714126Y10823214D01*
X105772874Y10629549D01*
X105868275Y10451065D01*
X105996663Y10294623D01*
X106153105Y10166235D01*
X106331589Y10070834D01*
X106525254Y10012086D01*
X106676189Y9997220D01*
X108647131Y9997220D01*
X108798066Y10012086D01*
X108991731Y10070834D01*
X109170215Y10166235D01*
X109326657Y10294623D01*
X109455045Y10451065D01*
X109550446Y10629549D01*
X109609194Y10823214D01*
X109629031Y11024620D01*
X109654289Y11024620D01*
X109674126Y10823214D01*
X109732874Y10629549D01*
X109828275Y10451065D01*
X109956663Y10294623D01*
X110113105Y10166235D01*
X110291589Y10070834D01*
X110485254Y10012086D01*
X110636189Y9997220D01*
X112607131Y9997220D01*
X112758066Y10012086D01*
X112951731Y10070834D01*
X113130215Y10166235D01*
X113286657Y10294623D01*
X113415045Y10451065D01*
X113510446Y10629549D01*
X113569194Y10823214D01*
X113589031Y11024620D01*
X113614289Y11024620D01*
X113634126Y10823214D01*
X113692874Y10629549D01*
X113788275Y10451065D01*
X113916663Y10294623D01*
X114073105Y10166235D01*
X114251589Y10070834D01*
X114445254Y10012086D01*
X114596189Y9997220D01*
X116567131Y9997220D01*
X116718066Y10012086D01*
X116911731Y10070834D01*
X117090215Y10166235D01*
X117246657Y10294623D01*
X117375045Y10451065D01*
X117470446Y10629549D01*
X117529194Y10823214D01*
X117549031Y11024620D01*
X117574289Y11024620D01*
X117594126Y10823214D01*
X117652874Y10629549D01*
X117748275Y10451065D01*
X117876663Y10294623D01*
X118033105Y10166235D01*
X118211589Y10070834D01*
X118405254Y10012086D01*
X118556189Y9997220D01*
X120527131Y9997220D01*
X120678066Y10012086D01*
X120871731Y10070834D01*
X121050215Y10166235D01*
X121206657Y10294623D01*
X121335045Y10451065D01*
X121430446Y10629549D01*
X121489194Y10823214D01*
X121509031Y11024620D01*
X121534289Y11024620D01*
X121554126Y10823214D01*
X121612874Y10629549D01*
X121708275Y10451065D01*
X121836663Y10294623D01*
X121993105Y10166235D01*
X122171589Y10070834D01*
X122365254Y10012086D01*
X122516189Y9997220D01*
X124487131Y9997220D01*
X124638066Y10012086D01*
X124831731Y10070834D01*
X125010215Y10166235D01*
X125166657Y10294623D01*
X125295045Y10451065D01*
X125390446Y10629549D01*
X125449194Y10823214D01*
X125469031Y11024620D01*
X125494289Y11024620D01*
X125514126Y10823214D01*
X125572874Y10629549D01*
X125668275Y10451065D01*
X125796663Y10294623D01*
X125953105Y10166235D01*
X126131589Y10070834D01*
X126325254Y10012086D01*
X126476189Y9997220D01*
X128447131Y9997220D01*
X128598066Y10012086D01*
X128791731Y10070834D01*
X128970215Y10166235D01*
X129126657Y10294623D01*
X129255045Y10451065D01*
X129350446Y10629549D01*
X129409194Y10823214D01*
X129429031Y11024620D01*
X129409194Y11226026D01*
X129350446Y11419691D01*
X129255045Y11598175D01*
X129126657Y11754617D01*
X128970215Y11883005D01*
X128791731Y11978406D01*
X128598066Y12037154D01*
X128447131Y12052020D01*
X126476189Y12052020D01*
X126325254Y12037154D01*
X126131589Y11978406D01*
X125953105Y11883005D01*
X125796663Y11754617D01*
X125668275Y11598175D01*
X125572874Y11419691D01*
X125514126Y11226026D01*
X125494289Y11024620D01*
X125469031Y11024620D01*
X125449194Y11226026D01*
X125390446Y11419691D01*
X125295045Y11598175D01*
X125166657Y11754617D01*
X125010215Y11883005D01*
X124831731Y11978406D01*
X124638066Y12037154D01*
X124487131Y12052020D01*
X122516189Y12052020D01*
X122365254Y12037154D01*
X122171589Y11978406D01*
X121993105Y11883005D01*
X121836663Y11754617D01*
X121708275Y11598175D01*
X121612874Y11419691D01*
X121554126Y11226026D01*
X121534289Y11024620D01*
X121509031Y11024620D01*
X121489194Y11226026D01*
X121430446Y11419691D01*
X121335045Y11598175D01*
X121206657Y11754617D01*
X121050215Y11883005D01*
X120871731Y11978406D01*
X120678066Y12037154D01*
X120527131Y12052020D01*
X118556189Y12052020D01*
X118405254Y12037154D01*
X118211589Y11978406D01*
X118033105Y11883005D01*
X117876663Y11754617D01*
X117748275Y11598175D01*
X117652874Y11419691D01*
X117594126Y11226026D01*
X117574289Y11024620D01*
X117549031Y11024620D01*
X117529194Y11226026D01*
X117470446Y11419691D01*
X117375045Y11598175D01*
X117246657Y11754617D01*
X117090215Y11883005D01*
X116911731Y11978406D01*
X116718066Y12037154D01*
X116567131Y12052020D01*
X114596189Y12052020D01*
X114445254Y12037154D01*
X114251589Y11978406D01*
X114073105Y11883005D01*
X113916663Y11754617D01*
X113788275Y11598175D01*
X113692874Y11419691D01*
X113634126Y11226026D01*
X113614289Y11024620D01*
X113589031Y11024620D01*
X113569194Y11226026D01*
X113510446Y11419691D01*
X113415045Y11598175D01*
X113286657Y11754617D01*
X113130215Y11883005D01*
X112951731Y11978406D01*
X112758066Y12037154D01*
X112607131Y12052020D01*
X110636189Y12052020D01*
X110485254Y12037154D01*
X110291589Y11978406D01*
X110113105Y11883005D01*
X109956663Y11754617D01*
X109828275Y11598175D01*
X109732874Y11419691D01*
X109674126Y11226026D01*
X109654289Y11024620D01*
X109629031Y11024620D01*
X109609194Y11226026D01*
X109550446Y11419691D01*
X109455045Y11598175D01*
X109326657Y11754617D01*
X109170215Y11883005D01*
X108991731Y11978406D01*
X108798066Y12037154D01*
X108647131Y12052020D01*
X106676189Y12052020D01*
X106525254Y12037154D01*
X106331589Y11978406D01*
X106153105Y11883005D01*
X105996663Y11754617D01*
X105868275Y11598175D01*
X105772874Y11419691D01*
X105714126Y11226026D01*
X105694289Y11024620D01*
X105669031Y11024620D01*
X105649194Y11226026D01*
X105590446Y11419691D01*
X105495045Y11598175D01*
X105366657Y11754617D01*
X105210215Y11883005D01*
X105031731Y11978406D01*
X104838066Y12037154D01*
X104687131Y12052020D01*
X102716189Y12052020D01*
X102565254Y12037154D01*
X102371589Y11978406D01*
X102193105Y11883005D01*
X102036663Y11754617D01*
X101908275Y11598175D01*
X101812874Y11419691D01*
X101754126Y11226026D01*
X101734289Y11024620D01*
X101709031Y11024620D01*
X101689194Y11226026D01*
X101630446Y11419691D01*
X101535045Y11598175D01*
X101406657Y11754617D01*
X101250215Y11883005D01*
X101071731Y11978406D01*
X100878066Y12037154D01*
X100727131Y12052020D01*
X98756189Y12052020D01*
X98605254Y12037154D01*
X98411589Y11978406D01*
X98233105Y11883005D01*
X98076663Y11754617D01*
X97948275Y11598175D01*
X97852874Y11419691D01*
X97794126Y11226026D01*
X97774289Y11024620D01*
X97749031Y11024620D01*
X97729194Y11226026D01*
X97670446Y11419691D01*
X97575045Y11598175D01*
X97446657Y11754617D01*
X97290215Y11883005D01*
X97111731Y11978406D01*
X96918066Y12037154D01*
X96767131Y12052020D01*
X94796189Y12052020D01*
X94645254Y12037154D01*
X94451589Y11978406D01*
X94273105Y11883005D01*
X94116663Y11754617D01*
X93988275Y11598175D01*
X93892874Y11419691D01*
X93834126Y11226026D01*
X93814289Y11024620D01*
X93789031Y11024620D01*
X93769194Y11226026D01*
X93710446Y11419691D01*
X93615045Y11598175D01*
X93486657Y11754617D01*
X93330215Y11883005D01*
X93151731Y11978406D01*
X92958066Y12037154D01*
X92807131Y12052020D01*
X90836189Y12052020D01*
X90685254Y12037154D01*
X90491589Y11978406D01*
X90313105Y11883005D01*
X90156663Y11754617D01*
X90028275Y11598175D01*
X89932874Y11419691D01*
X89874126Y11226026D01*
X89854289Y11024620D01*
X89829031Y11024620D01*
X89809194Y11226026D01*
X89750446Y11419691D01*
X89655045Y11598175D01*
X89526657Y11754617D01*
X89370215Y11883005D01*
X89191731Y11978406D01*
X88998066Y12037154D01*
X88847131Y12052020D01*
X86876189Y12052020D01*
X86725254Y12037154D01*
X86531589Y11978406D01*
X86353105Y11883005D01*
X86196663Y11754617D01*
X86068275Y11598175D01*
X85972874Y11419691D01*
X85914126Y11226026D01*
X85894289Y11024620D01*
X85869031Y11024620D01*
X85849194Y11226026D01*
X85790446Y11419691D01*
X85695045Y11598175D01*
X85566657Y11754617D01*
X85410215Y11883005D01*
X85231731Y11978406D01*
X85038066Y12037154D01*
X84887131Y12052020D01*
X82916189Y12052020D01*
X82765254Y12037154D01*
X82571589Y11978406D01*
X82393105Y11883005D01*
X82236663Y11754617D01*
X82108275Y11598175D01*
X82012874Y11419691D01*
X81954126Y11226026D01*
X81934289Y11024620D01*
X81909031Y11024620D01*
X81889194Y11226026D01*
X81830446Y11419691D01*
X81735045Y11598175D01*
X81606657Y11754617D01*
X81450215Y11883005D01*
X81271731Y11978406D01*
X81078066Y12037154D01*
X80927131Y12052020D01*
X78956189Y12052020D01*
X78805254Y12037154D01*
X78611589Y11978406D01*
X78433105Y11883005D01*
X78276663Y11754617D01*
X78148275Y11598175D01*
X78052874Y11419691D01*
X77994126Y11226026D01*
X77974289Y11024620D01*
X77949031Y11024620D01*
X77929194Y11226026D01*
X77870446Y11419691D01*
X77775045Y11598175D01*
X77646657Y11754617D01*
X77490215Y11883005D01*
X77311731Y11978406D01*
X77118066Y12037154D01*
X76967131Y12052020D01*
X74996189Y12052020D01*
X74845254Y12037154D01*
X74651589Y11978406D01*
X74473105Y11883005D01*
X74316663Y11754617D01*
X74188275Y11598175D01*
X74092874Y11419691D01*
X74034126Y11226026D01*
X74014289Y11024620D01*
X73989031Y11024620D01*
X73969194Y11226026D01*
X73910446Y11419691D01*
X73815045Y11598175D01*
X73686657Y11754617D01*
X73530215Y11883005D01*
X73351731Y11978406D01*
X73158066Y12037154D01*
X73007131Y12052020D01*
X71036189Y12052020D01*
X70885254Y12037154D01*
X70691589Y11978406D01*
X70513105Y11883005D01*
X70356663Y11754617D01*
X70228275Y11598175D01*
X70132874Y11419691D01*
X70074126Y11226026D01*
X70054289Y11024620D01*
X70029031Y11024620D01*
X70009194Y11226026D01*
X69950446Y11419691D01*
X69855045Y11598175D01*
X69726657Y11754617D01*
X69570215Y11883005D01*
X69391731Y11978406D01*
X69198066Y12037154D01*
X69047131Y12052020D01*
X67076189Y12052020D01*
X66925254Y12037154D01*
X66731589Y11978406D01*
X66553105Y11883005D01*
X66396663Y11754617D01*
X66268275Y11598175D01*
X66172874Y11419691D01*
X66114126Y11226026D01*
X66094289Y11024620D01*
X66069031Y11024620D01*
X66049194Y11226026D01*
X65990446Y11419691D01*
X65895045Y11598175D01*
X65766657Y11754617D01*
X65610215Y11883005D01*
X65431731Y11978406D01*
X65238066Y12037154D01*
X65087131Y12052020D01*
X63116189Y12052020D01*
X62965254Y12037154D01*
X62771589Y11978406D01*
X62593105Y11883005D01*
X62436663Y11754617D01*
X62308275Y11598175D01*
X62212874Y11419691D01*
X62154126Y11226026D01*
X62134289Y11024620D01*
X62109031Y11024620D01*
X62089194Y11226026D01*
X62030446Y11419691D01*
X61935045Y11598175D01*
X61806657Y11754617D01*
X61650215Y11883005D01*
X61471731Y11978406D01*
X61278066Y12037154D01*
X61127131Y12052020D01*
X59156189Y12052020D01*
X59005254Y12037154D01*
X58811589Y11978406D01*
X58633105Y11883005D01*
X58476663Y11754617D01*
X58348275Y11598175D01*
X58252874Y11419691D01*
X58194126Y11226026D01*
X58174289Y11024620D01*
X58149031Y11024620D01*
X58129194Y11226026D01*
X58070446Y11419691D01*
X57975045Y11598175D01*
X57846657Y11754617D01*
X57690215Y11883005D01*
X57511731Y11978406D01*
X57318066Y12037154D01*
X57167131Y12052020D01*
X55196189Y12052020D01*
X55045254Y12037154D01*
X54851589Y11978406D01*
X54673105Y11883005D01*
X54516663Y11754617D01*
X54388275Y11598175D01*
X54292874Y11419691D01*
X54234126Y11226026D01*
X54214289Y11024620D01*
X54189031Y11024620D01*
X54169194Y11226026D01*
X54110446Y11419691D01*
X54015045Y11598175D01*
X53886657Y11754617D01*
X53730215Y11883005D01*
X53551731Y11978406D01*
X53358066Y12037154D01*
X53207131Y12052020D01*
X51236189Y12052020D01*
X51085254Y12037154D01*
X50891589Y11978406D01*
X50713105Y11883005D01*
X50556663Y11754617D01*
X50428275Y11598175D01*
X50332874Y11419691D01*
X50274126Y11226026D01*
X50254289Y11024620D01*
X50229031Y11024620D01*
X50209194Y11226026D01*
X50150446Y11419691D01*
X50055045Y11598175D01*
X49926657Y11754617D01*
X49770215Y11883005D01*
X49591731Y11978406D01*
X49398066Y12037154D01*
X49247131Y12052020D01*
X47276189Y12052020D01*
X47125254Y12037154D01*
X46931589Y11978406D01*
X46753105Y11883005D01*
X46596663Y11754617D01*
X46468275Y11598175D01*
X46372874Y11419691D01*
X46314126Y11226026D01*
X46294289Y11024620D01*
X46269031Y11024620D01*
X46249194Y11226026D01*
X46190446Y11419691D01*
X46095045Y11598175D01*
X45966657Y11754617D01*
X45810215Y11883005D01*
X45631731Y11978406D01*
X45438066Y12037154D01*
X45287131Y12052020D01*
X43316189Y12052020D01*
X43165254Y12037154D01*
X42971589Y11978406D01*
X42793105Y11883005D01*
X42636663Y11754617D01*
X42508275Y11598175D01*
X42412874Y11419691D01*
X42354126Y11226026D01*
X42334289Y11024620D01*
X42309031Y11024620D01*
X42289194Y11226026D01*
X42230446Y11419691D01*
X42135045Y11598175D01*
X42006657Y11754617D01*
X41850215Y11883005D01*
X41671731Y11978406D01*
X41478066Y12037154D01*
X41327131Y12052020D01*
X39356189Y12052020D01*
X39205254Y12037154D01*
X39011589Y11978406D01*
X38833105Y11883005D01*
X38676663Y11754617D01*
X38567616Y11621742D01*
X38552140Y11664927D01*
X38403483Y11893654D01*
X38213060Y12088984D01*
X37988189Y12243412D01*
X37737511Y12351002D01*
X37470660Y12407620D01*
X36535660Y12407620D01*
X36227660Y12407620D01*
X35292660Y12407620D01*
X35025809Y12351002D01*
X34775131Y12243412D01*
X34550260Y12088984D01*
X34359837Y11893654D01*
X34211180Y11664927D01*
X34113273Y11391727D01*
X22464200Y11391727D01*
X23277048Y12204574D01*
X34231282Y12204574D01*
X34251154Y12202617D01*
X34271026Y12204574D01*
X34271033Y12204574D01*
X34330509Y12210432D01*
X34406814Y12233579D01*
X34477137Y12271167D01*
X34538775Y12321753D01*
X34551449Y12337196D01*
X35467733Y13253479D01*
X36848880Y13253479D01*
X36898359Y13258352D01*
X36945937Y13272785D01*
X36989784Y13296222D01*
X37028217Y13327763D01*
X37059758Y13366196D01*
X37083195Y13410043D01*
X37097628Y13457621D01*
X37102501Y13507100D01*
X37102501Y15107101D01*
X37729852Y15107101D01*
X37682590Y15059839D01*
X37561946Y14879282D01*
X37478845Y14678658D01*
X37436480Y14465677D01*
X37436480Y14248523D01*
X37478845Y14035542D01*
X37561946Y13834918D01*
X37682590Y13654361D01*
X37836141Y13500810D01*
X38016698Y13380166D01*
X38217322Y13297065D01*
X38430303Y13254700D01*
X38647457Y13254700D01*
X38860438Y13297065D01*
X39061062Y13380166D01*
X39241619Y13500810D01*
X39339024Y13598215D01*
X39879689Y13057550D01*
X39889972Y13045020D01*
X39902502Y13034737D01*
X39902504Y13034735D01*
X39940007Y13003957D01*
X39954428Y12996249D01*
X39997093Y12973444D01*
X40059034Y12954654D01*
X40107316Y12949899D01*
X40107318Y12949899D01*
X40123450Y12948310D01*
X40139582Y12949899D01*
X41580477Y12949899D01*
X41596609Y12948310D01*
X41612741Y12949899D01*
X41612744Y12949899D01*
X41661026Y12954654D01*
X41722967Y12973444D01*
X41780052Y13003957D01*
X41830088Y13045020D01*
X41840375Y13057555D01*
X42378426Y13595606D01*
X42390960Y13605892D01*
X42418063Y13638917D01*
X42432023Y13655927D01*
X42462536Y13713013D01*
X42462536Y13713014D01*
X42481326Y13774954D01*
X42486081Y13823236D01*
X42486081Y13823239D01*
X42487670Y13839371D01*
X42486081Y13855503D01*
X42486081Y14858697D01*
X42487670Y14874829D01*
X42485621Y14895632D01*
X42481326Y14939246D01*
X42462536Y15001187D01*
X42453814Y15017504D01*
X42432023Y15058273D01*
X42401245Y15095775D01*
X42390960Y15108308D01*
X42378425Y15118595D01*
X41839672Y15657348D01*
X42039002Y15799854D01*
X42234616Y16008248D01*
X42385815Y16250800D01*
X42486789Y16518189D01*
X42376730Y16743100D01*
X41232880Y16743100D01*
X41232880Y16723100D01*
X40924880Y16723100D01*
X40924880Y16743100D01*
X40904880Y16743100D01*
X40904880Y17051100D01*
X40924880Y17051100D01*
X40924880Y18193989D01*
X41232880Y18193989D01*
X41232880Y17051100D01*
X42376730Y17051100D01*
X42486789Y17276011D01*
X42385815Y17543400D01*
X42234616Y17785952D01*
X42039002Y17994346D01*
X41806491Y18160573D01*
X41546019Y18278246D01*
X41457790Y18305003D01*
X41232880Y18193989D01*
X40924880Y18193989D01*
X40699970Y18305003D01*
X40611741Y18278246D01*
X40351269Y18160573D01*
X40118758Y17994346D01*
X39923144Y17785952D01*
X39771945Y17543400D01*
X39670971Y17276011D01*
X39781029Y17051102D01*
X39632244Y17051102D01*
X39598915Y17218658D01*
X39515814Y17419282D01*
X39395170Y17599839D01*
X39241619Y17753390D01*
X39061062Y17874034D01*
X38860438Y17957135D01*
X38647457Y17999500D01*
X38430303Y17999500D01*
X38217322Y17957135D01*
X38023740Y17876951D01*
X37704045Y18196645D01*
X37693758Y18209180D01*
X37643722Y18250243D01*
X37586637Y18280756D01*
X37524696Y18299546D01*
X37476414Y18304301D01*
X37476411Y18304301D01*
X37460279Y18305890D01*
X37444147Y18304301D01*
X35497282Y18304301D01*
X35481150Y18305890D01*
X35465018Y18304301D01*
X35465016Y18304301D01*
X35416734Y18299546D01*
X35354793Y18280756D01*
X35320450Y18262399D01*
X35297707Y18250243D01*
X35281031Y18236557D01*
X35247672Y18209180D01*
X35237389Y18196650D01*
X34020257Y16979517D01*
X34007722Y16969230D01*
X33997437Y16956697D01*
X33966659Y16919194D01*
X33954850Y16897101D01*
X33936146Y16862108D01*
X33917356Y16800167D01*
X33912601Y16751886D01*
X33911012Y16735751D01*
X33912601Y16719619D01*
X33912601Y16420510D01*
X32937271Y15445179D01*
X21387404Y15445177D01*
X21371262Y15446767D01*
X21306845Y15440422D01*
X21244904Y15421633D01*
X21187819Y15391121D01*
X21150316Y15360342D01*
X21150313Y15360339D01*
X21137783Y15350056D01*
X21127500Y15337526D01*
X16573384Y10783410D01*
X6989874Y10783408D01*
X6973742Y10784997D01*
X6957610Y10783408D01*
X6957608Y10783408D01*
X6909326Y10778653D01*
X6866174Y10765563D01*
X6847384Y10759863D01*
X6790299Y10729351D01*
X6752796Y10698573D01*
X6752788Y10698565D01*
X6740264Y10688287D01*
X6729986Y10675763D01*
X4774246Y8720022D01*
X4761711Y8709735D01*
X4751426Y8697202D01*
X4720648Y8659699D01*
X4701856Y8624542D01*
X4690135Y8602613D01*
X4671345Y8540672D01*
X4667324Y8499841D01*
X4665001Y8476256D01*
X4666590Y8460124D01*
X4666591Y2862576D01*
X4579926Y2845337D01*
X4388402Y2766005D01*
X4216034Y2650832D01*
X4069448Y2504246D01*
X3954275Y2331878D01*
X3874943Y2140354D01*
X3834500Y1937032D01*
X3834500Y1729728D01*
X3874943Y1526406D01*
X3954275Y1334882D01*
X4069448Y1162514D01*
X4098583Y1133379D01*
X3511612Y1133379D01*
X3400521Y1244470D01*
X3400521Y2633380D01*
X3395648Y2682859D01*
X3381215Y2730437D01*
X3357778Y2774284D01*
X3326237Y2812717D01*
X3287804Y2844258D01*
X3243957Y2867695D01*
X3196379Y2882128D01*
X3146900Y2887001D01*
X1546900Y2887001D01*
X1497421Y2882128D01*
X1449843Y2867695D01*
X1405996Y2844258D01*
X1367563Y2812717D01*
X1336022Y2774284D01*
X1312585Y2730437D01*
X1298152Y2682859D01*
X1293279Y2633380D01*
X277000Y2633380D01*
X277000Y4831590D01*
X1871600Y4831590D01*
X1871600Y4668410D01*
X1903435Y4508365D01*
X1965882Y4357606D01*
X2056540Y4221926D01*
X2171926Y4106540D01*
X2307606Y4015882D01*
X2458365Y3953435D01*
X2618410Y3921600D01*
X2781590Y3921600D01*
X2941635Y3953435D01*
X3092394Y4015882D01*
X3228074Y4106540D01*
X3343460Y4221926D01*
X3434118Y4357606D01*
X3496565Y4508365D01*
X3528400Y4668410D01*
X3528400Y4831590D01*
X3496565Y4991635D01*
X3434118Y5142394D01*
X3343460Y5278074D01*
X3228074Y5393460D01*
X3092394Y5484118D01*
X2941635Y5546565D01*
X2781590Y5578400D01*
X2618410Y5578400D01*
X2458365Y5546565D01*
X2307606Y5484118D01*
X2171926Y5393460D01*
X2056540Y5278074D01*
X1965882Y5142394D01*
X1903435Y4991635D01*
X1871600Y4831590D01*
X277000Y4831590D01*
X277000Y14951007D01*
X8219580Y14951007D01*
X8219580Y14842193D01*
X8240808Y14735471D01*
X8282449Y14634940D01*
X8342903Y14544465D01*
X8419845Y14467523D01*
X8510320Y14407069D01*
X8610851Y14365428D01*
X8717573Y14344200D01*
X11226387Y14344200D01*
X11333109Y14365428D01*
X11433640Y14407069D01*
X11524115Y14467523D01*
X11601057Y14544465D01*
X11661511Y14634940D01*
X11703152Y14735471D01*
X11724380Y14842193D01*
X11724380Y14951007D01*
X11703152Y15057729D01*
X11661511Y15158260D01*
X11601057Y15248735D01*
X11524115Y15325677D01*
X11433640Y15386131D01*
X11333109Y15427772D01*
X11226387Y15449000D01*
X8717573Y15449000D01*
X8610851Y15427772D01*
X8510320Y15386131D01*
X8419845Y15325677D01*
X8342903Y15248735D01*
X8282449Y15158260D01*
X8240808Y15057729D01*
X8219580Y14951007D01*
X277000Y14951007D01*
X277000Y17177032D01*
X1294500Y17177032D01*
X1294500Y16969728D01*
X1334943Y16766406D01*
X1414275Y16574882D01*
X1529448Y16402514D01*
X1676034Y16255928D01*
X1848402Y16140755D01*
X2039926Y16061423D01*
X2243248Y16020980D01*
X2450552Y16020980D01*
X2653874Y16061423D01*
X2845398Y16140755D01*
X3017766Y16255928D01*
X3164352Y16402514D01*
X3279525Y16574882D01*
X3358857Y16766406D01*
X3399300Y16969728D01*
X3399300Y17177032D01*
X3834500Y17177032D01*
X3834500Y16969728D01*
X3874943Y16766406D01*
X3954275Y16574882D01*
X4069448Y16402514D01*
X4216034Y16255928D01*
X4388402Y16140755D01*
X4579926Y16061423D01*
X4783248Y16020980D01*
X4990552Y16020980D01*
X5193874Y16061423D01*
X5385398Y16140755D01*
X5557766Y16255928D01*
X5704352Y16402514D01*
X5819525Y16574882D01*
X5898857Y16766406D01*
X5939300Y16969728D01*
X5939300Y17177032D01*
X6374500Y17177032D01*
X6374500Y16969728D01*
X6414943Y16766406D01*
X6494275Y16574882D01*
X6609448Y16402514D01*
X6756034Y16255928D01*
X6928402Y16140755D01*
X7119926Y16061423D01*
X7323248Y16020980D01*
X7530552Y16020980D01*
X7733874Y16061423D01*
X7925398Y16140755D01*
X8097766Y16255928D01*
X8244352Y16402514D01*
X8359525Y16574882D01*
X8438857Y16766406D01*
X8479300Y16969728D01*
X8479300Y17177032D01*
X8914500Y17177032D01*
X8914500Y16969728D01*
X8954943Y16766406D01*
X9034275Y16574882D01*
X9149448Y16402514D01*
X9296034Y16255928D01*
X9468402Y16140755D01*
X9659926Y16061423D01*
X9863248Y16020980D01*
X10070552Y16020980D01*
X10273874Y16061423D01*
X10465398Y16140755D01*
X10637766Y16255928D01*
X10784352Y16402514D01*
X10899525Y16574882D01*
X10978857Y16766406D01*
X11019300Y16969728D01*
X11019300Y17177032D01*
X11454500Y17177032D01*
X11454500Y16969728D01*
X11494943Y16766406D01*
X11574275Y16574882D01*
X11689448Y16402514D01*
X11836034Y16255928D01*
X12008402Y16140755D01*
X12199926Y16061423D01*
X12403248Y16020980D01*
X12610552Y16020980D01*
X12813874Y16061423D01*
X13005398Y16140755D01*
X13177766Y16255928D01*
X13324352Y16402514D01*
X13439525Y16574882D01*
X13518857Y16766406D01*
X13559300Y16969728D01*
X13559300Y17177032D01*
X13994500Y17177032D01*
X13994500Y16969728D01*
X14034943Y16766406D01*
X14114275Y16574882D01*
X14229448Y16402514D01*
X14376034Y16255928D01*
X14548402Y16140755D01*
X14739926Y16061423D01*
X14943248Y16020980D01*
X15150552Y16020980D01*
X15353874Y16061423D01*
X15545398Y16140755D01*
X15717766Y16255928D01*
X15864352Y16402514D01*
X15979525Y16574882D01*
X16058857Y16766406D01*
X16099300Y16969728D01*
X16099300Y17177032D01*
X16534500Y17177032D01*
X16534500Y16969728D01*
X16574943Y16766406D01*
X16654275Y16574882D01*
X16769448Y16402514D01*
X16916034Y16255928D01*
X17088402Y16140755D01*
X17279926Y16061423D01*
X17483248Y16020980D01*
X17690552Y16020980D01*
X17893874Y16061423D01*
X18085398Y16140755D01*
X18257766Y16255928D01*
X18404352Y16402514D01*
X18519525Y16574882D01*
X18598857Y16766406D01*
X18639300Y16969728D01*
X18639300Y17177032D01*
X19074500Y17177032D01*
X19074500Y16969728D01*
X19114943Y16766406D01*
X19194275Y16574882D01*
X19309448Y16402514D01*
X19456034Y16255928D01*
X19628402Y16140755D01*
X19819926Y16061423D01*
X20023248Y16020980D01*
X20230552Y16020980D01*
X20433874Y16061423D01*
X20625398Y16140755D01*
X20797766Y16255928D01*
X20944352Y16402514D01*
X21059525Y16574882D01*
X21138857Y16766406D01*
X21179300Y16969728D01*
X21179300Y17177032D01*
X21614500Y17177032D01*
X21614500Y16969728D01*
X21654943Y16766406D01*
X21734275Y16574882D01*
X21849448Y16402514D01*
X21996034Y16255928D01*
X22168402Y16140755D01*
X22359926Y16061423D01*
X22563248Y16020980D01*
X22770552Y16020980D01*
X22973874Y16061423D01*
X23165398Y16140755D01*
X23337766Y16255928D01*
X23484352Y16402514D01*
X23599525Y16574882D01*
X23678857Y16766406D01*
X23719300Y16969728D01*
X23719300Y17177032D01*
X24154500Y17177032D01*
X24154500Y16969728D01*
X24194943Y16766406D01*
X24274275Y16574882D01*
X24389448Y16402514D01*
X24536034Y16255928D01*
X24708402Y16140755D01*
X24899926Y16061423D01*
X25103248Y16020980D01*
X25310552Y16020980D01*
X25513874Y16061423D01*
X25705398Y16140755D01*
X25877766Y16255928D01*
X26024352Y16402514D01*
X26139525Y16574882D01*
X26218857Y16766406D01*
X26259300Y16969728D01*
X26259300Y17177032D01*
X26694500Y17177032D01*
X26694500Y16969728D01*
X26734943Y16766406D01*
X26814275Y16574882D01*
X26929448Y16402514D01*
X27076034Y16255928D01*
X27248402Y16140755D01*
X27439926Y16061423D01*
X27643248Y16020980D01*
X27850552Y16020980D01*
X28053874Y16061423D01*
X28245398Y16140755D01*
X28417766Y16255928D01*
X28564352Y16402514D01*
X28679525Y16574882D01*
X28758857Y16766406D01*
X28799300Y16969728D01*
X28799300Y17177032D01*
X29234500Y17177032D01*
X29234500Y16969728D01*
X29274943Y16766406D01*
X29354275Y16574882D01*
X29469448Y16402514D01*
X29616034Y16255928D01*
X29788402Y16140755D01*
X29979926Y16061423D01*
X30183248Y16020980D01*
X30390552Y16020980D01*
X30593874Y16061423D01*
X30785398Y16140755D01*
X30957766Y16255928D01*
X31104352Y16402514D01*
X31219525Y16574882D01*
X31298857Y16766406D01*
X31339300Y16969728D01*
X31339300Y17177032D01*
X31298857Y17380354D01*
X31219525Y17571878D01*
X31104352Y17744246D01*
X30957766Y17890832D01*
X30785398Y18006005D01*
X30593874Y18085337D01*
X30390552Y18125780D01*
X30183248Y18125780D01*
X29979926Y18085337D01*
X29788402Y18006005D01*
X29616034Y17890832D01*
X29469448Y17744246D01*
X29354275Y17571878D01*
X29274943Y17380354D01*
X29234500Y17177032D01*
X28799300Y17177032D01*
X28758857Y17380354D01*
X28679525Y17571878D01*
X28564352Y17744246D01*
X28417766Y17890832D01*
X28245398Y18006005D01*
X28053874Y18085337D01*
X27850552Y18125780D01*
X27643248Y18125780D01*
X27439926Y18085337D01*
X27248402Y18006005D01*
X27076034Y17890832D01*
X26929448Y17744246D01*
X26814275Y17571878D01*
X26734943Y17380354D01*
X26694500Y17177032D01*
X26259300Y17177032D01*
X26218857Y17380354D01*
X26139525Y17571878D01*
X26024352Y17744246D01*
X25877766Y17890832D01*
X25705398Y18006005D01*
X25513874Y18085337D01*
X25310552Y18125780D01*
X25103248Y18125780D01*
X24899926Y18085337D01*
X24708402Y18006005D01*
X24536034Y17890832D01*
X24389448Y17744246D01*
X24274275Y17571878D01*
X24194943Y17380354D01*
X24154500Y17177032D01*
X23719300Y17177032D01*
X23678857Y17380354D01*
X23599525Y17571878D01*
X23484352Y17744246D01*
X23337766Y17890832D01*
X23165398Y18006005D01*
X22973874Y18085337D01*
X22770552Y18125780D01*
X22563248Y18125780D01*
X22359926Y18085337D01*
X22168402Y18006005D01*
X21996034Y17890832D01*
X21849448Y17744246D01*
X21734275Y17571878D01*
X21654943Y17380354D01*
X21614500Y17177032D01*
X21179300Y17177032D01*
X21138857Y17380354D01*
X21059525Y17571878D01*
X20944352Y17744246D01*
X20797766Y17890832D01*
X20625398Y18006005D01*
X20433874Y18085337D01*
X20230552Y18125780D01*
X20023248Y18125780D01*
X19819926Y18085337D01*
X19628402Y18006005D01*
X19456034Y17890832D01*
X19309448Y17744246D01*
X19194275Y17571878D01*
X19114943Y17380354D01*
X19074500Y17177032D01*
X18639300Y17177032D01*
X18598857Y17380354D01*
X18519525Y17571878D01*
X18404352Y17744246D01*
X18257766Y17890832D01*
X18085398Y18006005D01*
X17893874Y18085337D01*
X17690552Y18125780D01*
X17483248Y18125780D01*
X17279926Y18085337D01*
X17088402Y18006005D01*
X16916034Y17890832D01*
X16769448Y17744246D01*
X16654275Y17571878D01*
X16574943Y17380354D01*
X16534500Y17177032D01*
X16099300Y17177032D01*
X16058857Y17380354D01*
X15979525Y17571878D01*
X15864352Y17744246D01*
X15717766Y17890832D01*
X15545398Y18006005D01*
X15353874Y18085337D01*
X15150552Y18125780D01*
X14943248Y18125780D01*
X14739926Y18085337D01*
X14548402Y18006005D01*
X14376034Y17890832D01*
X14229448Y17744246D01*
X14114275Y17571878D01*
X14034943Y17380354D01*
X13994500Y17177032D01*
X13559300Y17177032D01*
X13518857Y17380354D01*
X13439525Y17571878D01*
X13324352Y17744246D01*
X13177766Y17890832D01*
X13005398Y18006005D01*
X12813874Y18085337D01*
X12610552Y18125780D01*
X12403248Y18125780D01*
X12199926Y18085337D01*
X12008402Y18006005D01*
X11836034Y17890832D01*
X11689448Y17744246D01*
X11574275Y17571878D01*
X11494943Y17380354D01*
X11454500Y17177032D01*
X11019300Y17177032D01*
X10978857Y17380354D01*
X10899525Y17571878D01*
X10784352Y17744246D01*
X10637766Y17890832D01*
X10465398Y18006005D01*
X10273874Y18085337D01*
X10070552Y18125780D01*
X9863248Y18125780D01*
X9659926Y18085337D01*
X9468402Y18006005D01*
X9296034Y17890832D01*
X9149448Y17744246D01*
X9034275Y17571878D01*
X8954943Y17380354D01*
X8914500Y17177032D01*
X8479300Y17177032D01*
X8438857Y17380354D01*
X8359525Y17571878D01*
X8244352Y17744246D01*
X8097766Y17890832D01*
X7925398Y18006005D01*
X7733874Y18085337D01*
X7530552Y18125780D01*
X7323248Y18125780D01*
X7119926Y18085337D01*
X6928402Y18006005D01*
X6756034Y17890832D01*
X6609448Y17744246D01*
X6494275Y17571878D01*
X6414943Y17380354D01*
X6374500Y17177032D01*
X5939300Y17177032D01*
X5898857Y17380354D01*
X5819525Y17571878D01*
X5704352Y17744246D01*
X5557766Y17890832D01*
X5385398Y18006005D01*
X5193874Y18085337D01*
X4990552Y18125780D01*
X4783248Y18125780D01*
X4579926Y18085337D01*
X4388402Y18006005D01*
X4216034Y17890832D01*
X4069448Y17744246D01*
X3954275Y17571878D01*
X3874943Y17380354D01*
X3834500Y17177032D01*
X3399300Y17177032D01*
X3358857Y17380354D01*
X3279525Y17571878D01*
X3164352Y17744246D01*
X3017766Y17890832D01*
X2845398Y18006005D01*
X2653874Y18085337D01*
X2450552Y18125780D01*
X2243248Y18125780D01*
X2039926Y18085337D01*
X1848402Y18006005D01*
X1676034Y17890832D01*
X1529448Y17744246D01*
X1414275Y17571878D01*
X1334943Y17380354D01*
X1294500Y17177032D01*
X277000Y17177032D01*
X277000Y18136452D01*
X284455Y18212479D01*
X302599Y18272578D01*
X332073Y18328011D01*
X371752Y18376662D01*
X420122Y18416678D01*
X475347Y18446537D01*
X535316Y18465101D01*
X610473Y18473000D01*
X42436452Y18473000D01*
X42512479Y18465545D01*
G36*
X33462158Y2673131D02*
G01*
X33472125Y2660986D01*
X31944519Y1133379D01*
X31075217Y1133379D01*
X31104352Y1162514D01*
X31219525Y1334882D01*
X31298857Y1526406D01*
X31339300Y1729728D01*
X31339300Y1937032D01*
X31298857Y2140354D01*
X31219525Y2331878D01*
X31104352Y2504246D01*
X30957766Y2650832D01*
X30785398Y2766005D01*
X30593874Y2845337D01*
X30390552Y2885780D01*
X30183248Y2885780D01*
X29979926Y2845337D01*
X29788402Y2766005D01*
X29616034Y2650832D01*
X29469448Y2504246D01*
X29354275Y2331878D01*
X29274943Y2140354D01*
X29234500Y1937032D01*
X29234500Y1729728D01*
X29274943Y1526406D01*
X29354275Y1334882D01*
X29469448Y1162514D01*
X29498583Y1133379D01*
X28535217Y1133379D01*
X28564352Y1162514D01*
X28679525Y1334882D01*
X28758857Y1526406D01*
X28799300Y1729728D01*
X28799300Y1937032D01*
X28758857Y2140354D01*
X28679525Y2331878D01*
X28564352Y2504246D01*
X28417766Y2650832D01*
X28245398Y2766005D01*
X28053874Y2845337D01*
X27850552Y2885780D01*
X27643248Y2885780D01*
X27439926Y2845337D01*
X27248402Y2766005D01*
X27076034Y2650832D01*
X26929448Y2504246D01*
X26814275Y2331878D01*
X26734943Y2140354D01*
X26694500Y1937032D01*
X26694500Y1729728D01*
X26734943Y1526406D01*
X26814275Y1334882D01*
X26929448Y1162514D01*
X26958583Y1133379D01*
X25995217Y1133379D01*
X26024352Y1162514D01*
X26139525Y1334882D01*
X26218857Y1526406D01*
X26259300Y1729728D01*
X26259300Y1937032D01*
X26218857Y2140354D01*
X26139525Y2331878D01*
X26024352Y2504246D01*
X25877766Y2650832D01*
X25705398Y2766005D01*
X25535500Y2836379D01*
X25535500Y3220790D01*
X27158311Y4843600D01*
X27249876Y4843600D01*
X27347711Y4863061D01*
X27439870Y4901234D01*
X27522811Y4956654D01*
X27593346Y5027189D01*
X27648766Y5110130D01*
X27686939Y5202289D01*
X27706400Y5300124D01*
X27706400Y5399876D01*
X27686939Y5497711D01*
X27663623Y5554001D01*
X30581289Y5554001D01*
X33462158Y2673131D01*
G37*
X33462158Y2673131D02*
X33472125Y2660986D01*
X31944519Y1133379D01*
X31075217Y1133379D01*
X31104352Y1162514D01*
X31219525Y1334882D01*
X31298857Y1526406D01*
X31339300Y1729728D01*
X31339300Y1937032D01*
X31298857Y2140354D01*
X31219525Y2331878D01*
X31104352Y2504246D01*
X30957766Y2650832D01*
X30785398Y2766005D01*
X30593874Y2845337D01*
X30390552Y2885780D01*
X30183248Y2885780D01*
X29979926Y2845337D01*
X29788402Y2766005D01*
X29616034Y2650832D01*
X29469448Y2504246D01*
X29354275Y2331878D01*
X29274943Y2140354D01*
X29234500Y1937032D01*
X29234500Y1729728D01*
X29274943Y1526406D01*
X29354275Y1334882D01*
X29469448Y1162514D01*
X29498583Y1133379D01*
X28535217Y1133379D01*
X28564352Y1162514D01*
X28679525Y1334882D01*
X28758857Y1526406D01*
X28799300Y1729728D01*
X28799300Y1937032D01*
X28758857Y2140354D01*
X28679525Y2331878D01*
X28564352Y2504246D01*
X28417766Y2650832D01*
X28245398Y2766005D01*
X28053874Y2845337D01*
X27850552Y2885780D01*
X27643248Y2885780D01*
X27439926Y2845337D01*
X27248402Y2766005D01*
X27076034Y2650832D01*
X26929448Y2504246D01*
X26814275Y2331878D01*
X26734943Y2140354D01*
X26694500Y1937032D01*
X26694500Y1729728D01*
X26734943Y1526406D01*
X26814275Y1334882D01*
X26929448Y1162514D01*
X26958583Y1133379D01*
X25995217Y1133379D01*
X26024352Y1162514D01*
X26139525Y1334882D01*
X26218857Y1526406D01*
X26259300Y1729728D01*
X26259300Y1937032D01*
X26218857Y2140354D01*
X26139525Y2331878D01*
X26024352Y2504246D01*
X25877766Y2650832D01*
X25705398Y2766005D01*
X25535500Y2836379D01*
X25535500Y3220790D01*
X27158311Y4843600D01*
X27249876Y4843600D01*
X27347711Y4863061D01*
X27439870Y4901234D01*
X27522811Y4956654D01*
X27593346Y5027189D01*
X27648766Y5110130D01*
X27686939Y5202289D01*
X27706400Y5300124D01*
X27706400Y5399876D01*
X27686939Y5497711D01*
X27663623Y5554001D01*
X30581289Y5554001D01*
X33462158Y2673131D01*
G36*
X40224620Y4187870D02*
G01*
X38024761Y4187870D01*
X37246960Y4965670D01*
X37246960Y5057236D01*
X37227499Y5155071D01*
X37189326Y5247230D01*
X37133906Y5330171D01*
X37063371Y5400706D01*
X36980430Y5456126D01*
X36888271Y5494299D01*
X36790436Y5513760D01*
X36690684Y5513760D01*
X36592849Y5494299D01*
X36500690Y5456126D01*
X36417749Y5400706D01*
X36347214Y5330171D01*
X36291794Y5247230D01*
X36253621Y5155071D01*
X36234160Y5057236D01*
X36234160Y4957484D01*
X36253621Y4859649D01*
X36291794Y4767490D01*
X36347214Y4684549D01*
X36417749Y4614014D01*
X36500690Y4558594D01*
X36592849Y4520421D01*
X36690684Y4500960D01*
X36782250Y4500960D01*
X37400149Y3883060D01*
X35621930Y3883060D01*
X35000499Y4504491D01*
X35016840Y4586644D01*
X35016840Y4686396D01*
X34997379Y4784231D01*
X34959206Y4876390D01*
X34903786Y4959331D01*
X34833251Y5029866D01*
X34750310Y5085286D01*
X34658151Y5123459D01*
X34560316Y5142920D01*
X34460564Y5142920D01*
X34362729Y5123459D01*
X34270570Y5085286D01*
X34187629Y5029866D01*
X34117094Y4959331D01*
X34061674Y4876390D01*
X34023501Y4784231D01*
X34004040Y4686396D01*
X34004040Y4586644D01*
X34023501Y4488809D01*
X34061674Y4396650D01*
X34117094Y4313709D01*
X34187629Y4243174D01*
X34270570Y4187754D01*
X34362729Y4149581D01*
X34441697Y4133873D01*
X35242054Y3333516D01*
X35252341Y3320981D01*
X35278080Y3299858D01*
X35302376Y3279918D01*
X35359462Y3249405D01*
X35421403Y3230615D01*
X35469685Y3225860D01*
X35469688Y3225860D01*
X35485820Y3224271D01*
X35501952Y3225860D01*
X54724430Y3225860D01*
X54740562Y3224271D01*
X54756694Y3225860D01*
X54756697Y3225860D01*
X54804979Y3230615D01*
X54866920Y3249405D01*
X54924005Y3279918D01*
X54974041Y3320981D01*
X54984328Y3333516D01*
X56606433Y4955620D01*
X57104803Y4955620D01*
X57169549Y4890874D01*
X57252490Y4835454D01*
X57344649Y4797281D01*
X57442484Y4777820D01*
X57534050Y4777820D01*
X59089189Y3222680D01*
X33842031Y3222680D01*
X31108330Y5956380D01*
X38456110Y5956380D01*
X40224620Y4187870D01*
G37*
X40224620Y4187870D02*
X38024761Y4187870D01*
X37246960Y4965670D01*
X37246960Y5057236D01*
X37227499Y5155071D01*
X37189326Y5247230D01*
X37133906Y5330171D01*
X37063371Y5400706D01*
X36980430Y5456126D01*
X36888271Y5494299D01*
X36790436Y5513760D01*
X36690684Y5513760D01*
X36592849Y5494299D01*
X36500690Y5456126D01*
X36417749Y5400706D01*
X36347214Y5330171D01*
X36291794Y5247230D01*
X36253621Y5155071D01*
X36234160Y5057236D01*
X36234160Y4957484D01*
X36253621Y4859649D01*
X36291794Y4767490D01*
X36347214Y4684549D01*
X36417749Y4614014D01*
X36500690Y4558594D01*
X36592849Y4520421D01*
X36690684Y4500960D01*
X36782250Y4500960D01*
X37400149Y3883060D01*
X35621930Y3883060D01*
X35000499Y4504491D01*
X35016840Y4586644D01*
X35016840Y4686396D01*
X34997379Y4784231D01*
X34959206Y4876390D01*
X34903786Y4959331D01*
X34833251Y5029866D01*
X34750310Y5085286D01*
X34658151Y5123459D01*
X34560316Y5142920D01*
X34460564Y5142920D01*
X34362729Y5123459D01*
X34270570Y5085286D01*
X34187629Y5029866D01*
X34117094Y4959331D01*
X34061674Y4876390D01*
X34023501Y4784231D01*
X34004040Y4686396D01*
X34004040Y4586644D01*
X34023501Y4488809D01*
X34061674Y4396650D01*
X34117094Y4313709D01*
X34187629Y4243174D01*
X34270570Y4187754D01*
X34362729Y4149581D01*
X34441697Y4133873D01*
X35242054Y3333516D01*
X35252341Y3320981D01*
X35278080Y3299858D01*
X35302376Y3279918D01*
X35359462Y3249405D01*
X35421403Y3230615D01*
X35469685Y3225860D01*
X35469688Y3225860D01*
X35485820Y3224271D01*
X35501952Y3225860D01*
X54724430Y3225860D01*
X54740562Y3224271D01*
X54756694Y3225860D01*
X54756697Y3225860D01*
X54804979Y3230615D01*
X54866920Y3249405D01*
X54924005Y3279918D01*
X54974041Y3320981D01*
X54984328Y3333516D01*
X56606433Y4955620D01*
X57104803Y4955620D01*
X57169549Y4890874D01*
X57252490Y4835454D01*
X57344649Y4797281D01*
X57442484Y4777820D01*
X57534050Y4777820D01*
X59089189Y3222680D01*
X33842031Y3222680D01*
X31108330Y5956380D01*
X38456110Y5956380D01*
X40224620Y4187870D01*
G36*
X129900000Y3222680D02*
G01*
X90586850Y3222680D01*
X91804171Y4440000D01*
X91887550Y4440000D01*
X92745095Y3582455D01*
X92755382Y3569920D01*
X92774518Y3554216D01*
X92805418Y3528856D01*
X92862503Y3498344D01*
X92924444Y3479554D01*
X92972726Y3474799D01*
X92972729Y3474799D01*
X92988861Y3473210D01*
X93004993Y3474799D01*
X122825347Y3474799D01*
X122841479Y3473210D01*
X122857611Y3474799D01*
X122857614Y3474799D01*
X122905896Y3479554D01*
X122967837Y3498344D01*
X123024922Y3528857D01*
X123074958Y3569920D01*
X123085245Y3582455D01*
X123818331Y4315540D01*
X123909896Y4315540D01*
X124007731Y4335001D01*
X124099890Y4373174D01*
X124182831Y4428594D01*
X124253366Y4499129D01*
X124308786Y4582070D01*
X124346959Y4674229D01*
X124366420Y4772064D01*
X124366420Y4871816D01*
X124346959Y4969651D01*
X124344354Y4975941D01*
X124582429Y4975941D01*
X124623620Y4934750D01*
X124623620Y4843184D01*
X124643081Y4745349D01*
X124681254Y4653190D01*
X124736674Y4570249D01*
X124807209Y4499714D01*
X124890150Y4444294D01*
X124982309Y4406121D01*
X125080144Y4386660D01*
X125179896Y4386660D01*
X125277731Y4406121D01*
X125369890Y4444294D01*
X125452831Y4499714D01*
X125523366Y4570249D01*
X125578786Y4653190D01*
X125616959Y4745349D01*
X125636420Y4843184D01*
X125636420Y4942936D01*
X125628339Y4983559D01*
X129900000Y4983559D01*
X129900000Y3222680D01*
G37*
X129900000Y3222680D02*
X90586850Y3222680D01*
X91804171Y4440000D01*
X91887550Y4440000D01*
X92745095Y3582455D01*
X92755382Y3569920D01*
X92774518Y3554216D01*
X92805418Y3528856D01*
X92862503Y3498344D01*
X92924444Y3479554D01*
X92972726Y3474799D01*
X92972729Y3474799D01*
X92988861Y3473210D01*
X93004993Y3474799D01*
X122825347Y3474799D01*
X122841479Y3473210D01*
X122857611Y3474799D01*
X122857614Y3474799D01*
X122905896Y3479554D01*
X122967837Y3498344D01*
X123024922Y3528857D01*
X123074958Y3569920D01*
X123085245Y3582455D01*
X123818331Y4315540D01*
X123909896Y4315540D01*
X124007731Y4335001D01*
X124099890Y4373174D01*
X124182831Y4428594D01*
X124253366Y4499129D01*
X124308786Y4582070D01*
X124346959Y4674229D01*
X124366420Y4772064D01*
X124366420Y4871816D01*
X124346959Y4969651D01*
X124344354Y4975941D01*
X124582429Y4975941D01*
X124623620Y4934750D01*
X124623620Y4843184D01*
X124643081Y4745349D01*
X124681254Y4653190D01*
X124736674Y4570249D01*
X124807209Y4499714D01*
X124890150Y4444294D01*
X124982309Y4406121D01*
X125080144Y4386660D01*
X125179896Y4386660D01*
X125277731Y4406121D01*
X125369890Y4444294D01*
X125452831Y4499714D01*
X125523366Y4570249D01*
X125578786Y4653190D01*
X125616959Y4745349D01*
X125636420Y4843184D01*
X125636420Y4942936D01*
X125628339Y4983559D01*
X129900000Y4983559D01*
X129900000Y3222680D01*
G36*
X92612000Y4957609D02*
G01*
X92612000Y4866044D01*
X92631461Y4768209D01*
X92669634Y4676050D01*
X92725054Y4593109D01*
X92795589Y4522574D01*
X92878530Y4467154D01*
X92970689Y4428981D01*
X93068524Y4409520D01*
X93168276Y4409520D01*
X93266111Y4428981D01*
X93358270Y4467154D01*
X93441211Y4522574D01*
X93511746Y4593109D01*
X93567166Y4676050D01*
X93605339Y4768209D01*
X93624800Y4866044D01*
X93624800Y4957609D01*
X93643132Y4975941D01*
X97603210Y4975941D01*
X97419669Y4792400D01*
X97328104Y4792400D01*
X97230269Y4772939D01*
X97138110Y4734766D01*
X97055169Y4679346D01*
X96984634Y4608811D01*
X96929214Y4525870D01*
X96891041Y4433711D01*
X96871580Y4335876D01*
X96871580Y4236124D01*
X96891041Y4138289D01*
X96893646Y4131999D01*
X93124971Y4131999D01*
X92352260Y4904710D01*
X92352260Y4996276D01*
X92332799Y5094111D01*
X92294626Y5186270D01*
X92239206Y5269211D01*
X92168671Y5339746D01*
X92085730Y5395166D01*
X91993571Y5433339D01*
X91895736Y5452800D01*
X91795984Y5452800D01*
X91698149Y5433339D01*
X91605990Y5395166D01*
X91523049Y5339746D01*
X91452514Y5269211D01*
X91397094Y5186270D01*
X91358921Y5094111D01*
X91339460Y4996276D01*
X91339460Y4904711D01*
X89977469Y3542719D01*
X63325934Y3542719D01*
X63328539Y3549009D01*
X63348000Y3646844D01*
X63348000Y3738410D01*
X64212150Y4602560D01*
X88913223Y4602560D01*
X88977969Y4537814D01*
X89060910Y4482394D01*
X89153069Y4444221D01*
X89250904Y4424760D01*
X89350656Y4424760D01*
X89448491Y4444221D01*
X89540650Y4482394D01*
X89623591Y4537814D01*
X89694126Y4608349D01*
X89749546Y4691290D01*
X89787719Y4783449D01*
X89807180Y4881284D01*
X89807180Y4981036D01*
X89787719Y5078871D01*
X89749546Y5171030D01*
X89694126Y5253971D01*
X89623591Y5324506D01*
X89540650Y5379926D01*
X89448491Y5418099D01*
X89350656Y5437560D01*
X89250904Y5437560D01*
X89153069Y5418099D01*
X89060910Y5379926D01*
X88977969Y5324506D01*
X88913223Y5259760D01*
X64092172Y5259760D01*
X64076040Y5261349D01*
X64059908Y5259760D01*
X64059905Y5259760D01*
X64011623Y5255005D01*
X63957976Y5238731D01*
X63949682Y5236215D01*
X63892596Y5205702D01*
X63873280Y5189849D01*
X63842561Y5164639D01*
X63832274Y5152104D01*
X62883290Y4203120D01*
X62791724Y4203120D01*
X62693889Y4183659D01*
X62601730Y4145486D01*
X62518789Y4090066D01*
X62448254Y4019531D01*
X62392834Y3936590D01*
X62354661Y3844431D01*
X62335200Y3746596D01*
X62335200Y3646844D01*
X62354661Y3549009D01*
X62357266Y3542719D01*
X59698572Y3542719D01*
X57998760Y5242530D01*
X57998760Y5334096D01*
X57979299Y5431931D01*
X57976694Y5438221D01*
X58128409Y5438221D01*
X58263580Y5303050D01*
X58263580Y5211484D01*
X58283041Y5113649D01*
X58321214Y5021490D01*
X58376634Y4938549D01*
X58447169Y4868014D01*
X58530110Y4812594D01*
X58622269Y4774421D01*
X58720104Y4754960D01*
X58819856Y4754960D01*
X58917691Y4774421D01*
X59009850Y4812594D01*
X59092791Y4868014D01*
X59163326Y4938549D01*
X59218746Y5021490D01*
X59256919Y5113649D01*
X59276380Y5211484D01*
X59276380Y5303050D01*
X59464892Y5491561D01*
X92078049Y5491561D01*
X92612000Y4957609D01*
G37*
X92612000Y4957609D02*
X92612000Y4866044D01*
X92631461Y4768209D01*
X92669634Y4676050D01*
X92725054Y4593109D01*
X92795589Y4522574D01*
X92878530Y4467154D01*
X92970689Y4428981D01*
X93068524Y4409520D01*
X93168276Y4409520D01*
X93266111Y4428981D01*
X93358270Y4467154D01*
X93441211Y4522574D01*
X93511746Y4593109D01*
X93567166Y4676050D01*
X93605339Y4768209D01*
X93624800Y4866044D01*
X93624800Y4957609D01*
X93643132Y4975941D01*
X97603210Y4975941D01*
X97419669Y4792400D01*
X97328104Y4792400D01*
X97230269Y4772939D01*
X97138110Y4734766D01*
X97055169Y4679346D01*
X96984634Y4608811D01*
X96929214Y4525870D01*
X96891041Y4433711D01*
X96871580Y4335876D01*
X96871580Y4236124D01*
X96891041Y4138289D01*
X96893646Y4131999D01*
X93124971Y4131999D01*
X92352260Y4904710D01*
X92352260Y4996276D01*
X92332799Y5094111D01*
X92294626Y5186270D01*
X92239206Y5269211D01*
X92168671Y5339746D01*
X92085730Y5395166D01*
X91993571Y5433339D01*
X91895736Y5452800D01*
X91795984Y5452800D01*
X91698149Y5433339D01*
X91605990Y5395166D01*
X91523049Y5339746D01*
X91452514Y5269211D01*
X91397094Y5186270D01*
X91358921Y5094111D01*
X91339460Y4996276D01*
X91339460Y4904711D01*
X89977469Y3542719D01*
X63325934Y3542719D01*
X63328539Y3549009D01*
X63348000Y3646844D01*
X63348000Y3738410D01*
X64212150Y4602560D01*
X88913223Y4602560D01*
X88977969Y4537814D01*
X89060910Y4482394D01*
X89153069Y4444221D01*
X89250904Y4424760D01*
X89350656Y4424760D01*
X89448491Y4444221D01*
X89540650Y4482394D01*
X89623591Y4537814D01*
X89694126Y4608349D01*
X89749546Y4691290D01*
X89787719Y4783449D01*
X89807180Y4881284D01*
X89807180Y4981036D01*
X89787719Y5078871D01*
X89749546Y5171030D01*
X89694126Y5253971D01*
X89623591Y5324506D01*
X89540650Y5379926D01*
X89448491Y5418099D01*
X89350656Y5437560D01*
X89250904Y5437560D01*
X89153069Y5418099D01*
X89060910Y5379926D01*
X88977969Y5324506D01*
X88913223Y5259760D01*
X64092172Y5259760D01*
X64076040Y5261349D01*
X64059908Y5259760D01*
X64059905Y5259760D01*
X64011623Y5255005D01*
X63957976Y5238731D01*
X63949682Y5236215D01*
X63892596Y5205702D01*
X63873280Y5189849D01*
X63842561Y5164639D01*
X63832274Y5152104D01*
X62883290Y4203120D01*
X62791724Y4203120D01*
X62693889Y4183659D01*
X62601730Y4145486D01*
X62518789Y4090066D01*
X62448254Y4019531D01*
X62392834Y3936590D01*
X62354661Y3844431D01*
X62335200Y3746596D01*
X62335200Y3646844D01*
X62354661Y3549009D01*
X62357266Y3542719D01*
X59698572Y3542719D01*
X57998760Y5242530D01*
X57998760Y5334096D01*
X57979299Y5431931D01*
X57976694Y5438221D01*
X58128409Y5438221D01*
X58263580Y5303050D01*
X58263580Y5211484D01*
X58283041Y5113649D01*
X58321214Y5021490D01*
X58376634Y4938549D01*
X58447169Y4868014D01*
X58530110Y4812594D01*
X58622269Y4774421D01*
X58720104Y4754960D01*
X58819856Y4754960D01*
X58917691Y4774421D01*
X59009850Y4812594D01*
X59092791Y4868014D01*
X59163326Y4938549D01*
X59218746Y5021490D01*
X59256919Y5113649D01*
X59276380Y5211484D01*
X59276380Y5303050D01*
X59464892Y5491561D01*
X92078049Y5491561D01*
X92612000Y4957609D01*
G36*
X123373081Y4969651D02*
G01*
X123353620Y4871816D01*
X123353620Y4780251D01*
X122705369Y4131999D01*
X97862314Y4131999D01*
X97864919Y4138289D01*
X97884380Y4236124D01*
X97884380Y4327689D01*
X98067043Y4510352D01*
X98069823Y4511838D01*
X98119859Y4552901D01*
X98130146Y4565436D01*
X98235841Y4671131D01*
X120823780Y4671131D01*
X120823780Y4650124D01*
X120843241Y4552289D01*
X120881414Y4460130D01*
X120936834Y4377189D01*
X121007369Y4306654D01*
X121090310Y4251234D01*
X121182469Y4213061D01*
X121280304Y4193600D01*
X121380056Y4193600D01*
X121477891Y4213061D01*
X121570050Y4251234D01*
X121652991Y4306654D01*
X121723526Y4377189D01*
X121778946Y4460130D01*
X121817119Y4552289D01*
X121836580Y4650124D01*
X121836580Y4749876D01*
X121817119Y4847711D01*
X121778946Y4939870D01*
X121754844Y4975941D01*
X123375686Y4975941D01*
X123373081Y4969651D01*
G37*
X123373081Y4969651D02*
X123353620Y4871816D01*
X123353620Y4780251D01*
X122705369Y4131999D01*
X97862314Y4131999D01*
X97864919Y4138289D01*
X97884380Y4236124D01*
X97884380Y4327689D01*
X98067043Y4510352D01*
X98069823Y4511838D01*
X98119859Y4552901D01*
X98130146Y4565436D01*
X98235841Y4671131D01*
X120823780Y4671131D01*
X120823780Y4650124D01*
X120843241Y4552289D01*
X120881414Y4460130D01*
X120936834Y4377189D01*
X121007369Y4306654D01*
X121090310Y4251234D01*
X121182469Y4213061D01*
X121280304Y4193600D01*
X121380056Y4193600D01*
X121477891Y4213061D01*
X121570050Y4251234D01*
X121652991Y4306654D01*
X121723526Y4377189D01*
X121778946Y4460130D01*
X121817119Y4552289D01*
X121836580Y4650124D01*
X121836580Y4749876D01*
X121817119Y4847711D01*
X121778946Y4939870D01*
X121754844Y4975941D01*
X123375686Y4975941D01*
X123373081Y4969651D01*
G36*
X54811170Y7952160D02*
G01*
X29614211Y7952160D01*
X29598079Y7953749D01*
X29581947Y7952160D01*
X29581945Y7952160D01*
X29533663Y7947405D01*
X29532592Y7947080D01*
X28363564Y7947080D01*
X28362496Y7947404D01*
X28298079Y7953749D01*
X28233664Y7947404D01*
X28232596Y7947080D01*
X28157317Y7947080D01*
X28092571Y8011826D01*
X28009630Y8067246D01*
X27917471Y8105419D01*
X27819636Y8124880D01*
X27719884Y8124880D01*
X27622049Y8105419D01*
X27529890Y8067246D01*
X27446949Y8011826D01*
X27376414Y7941291D01*
X27320994Y7858350D01*
X27282821Y7766191D01*
X27263360Y7668356D01*
X27263360Y7568604D01*
X27282821Y7470769D01*
X27320994Y7378610D01*
X27376414Y7295669D01*
X27446949Y7225134D01*
X27529890Y7169714D01*
X27622049Y7131541D01*
X27719884Y7112080D01*
X27819636Y7112080D01*
X27917471Y7131541D01*
X28009630Y7169714D01*
X28092571Y7225134D01*
X28157317Y7289880D01*
X28276868Y7289880D01*
X28293000Y7288291D01*
X28309132Y7289880D01*
X29576868Y7289880D01*
X29593000Y7288291D01*
X29609132Y7289880D01*
X29609135Y7289880D01*
X29657417Y7294635D01*
X29658488Y7294960D01*
X54618680Y7294960D01*
X54618681Y5725118D01*
X54553934Y5660371D01*
X54498514Y5577430D01*
X54460341Y5485271D01*
X54440880Y5387436D01*
X54440880Y5287684D01*
X54460341Y5189849D01*
X54498514Y5097690D01*
X54553934Y5014749D01*
X54624469Y4944214D01*
X54707410Y4888794D01*
X54736150Y4876890D01*
X54351940Y4492680D01*
X40849230Y4492680D01*
X38835986Y6505924D01*
X38825699Y6518459D01*
X38775663Y6559522D01*
X38718578Y6590035D01*
X38656637Y6608825D01*
X38608355Y6613580D01*
X38608352Y6613580D01*
X38592220Y6615169D01*
X38576088Y6613580D01*
X25501112Y6613580D01*
X25484980Y6615169D01*
X25468848Y6613580D01*
X25468845Y6613580D01*
X25420563Y6608825D01*
X25358622Y6590035D01*
X25301536Y6559522D01*
X25264033Y6528744D01*
X25251501Y6518459D01*
X25241218Y6505929D01*
X24052722Y5317433D01*
X24050459Y5328811D01*
X24012286Y5420970D01*
X23956866Y5503911D01*
X23892120Y5568657D01*
X23892120Y7242824D01*
X25125348Y8476051D01*
X55335060Y8476051D01*
X54811170Y7952160D01*
G37*
X54811170Y7952160D02*
X29614211Y7952160D01*
X29598079Y7953749D01*
X29581947Y7952160D01*
X29581945Y7952160D01*
X29533663Y7947405D01*
X29532592Y7947080D01*
X28363564Y7947080D01*
X28362496Y7947404D01*
X28298079Y7953749D01*
X28233664Y7947404D01*
X28232596Y7947080D01*
X28157317Y7947080D01*
X28092571Y8011826D01*
X28009630Y8067246D01*
X27917471Y8105419D01*
X27819636Y8124880D01*
X27719884Y8124880D01*
X27622049Y8105419D01*
X27529890Y8067246D01*
X27446949Y8011826D01*
X27376414Y7941291D01*
X27320994Y7858350D01*
X27282821Y7766191D01*
X27263360Y7668356D01*
X27263360Y7568604D01*
X27282821Y7470769D01*
X27320994Y7378610D01*
X27376414Y7295669D01*
X27446949Y7225134D01*
X27529890Y7169714D01*
X27622049Y7131541D01*
X27719884Y7112080D01*
X27819636Y7112080D01*
X27917471Y7131541D01*
X28009630Y7169714D01*
X28092571Y7225134D01*
X28157317Y7289880D01*
X28276868Y7289880D01*
X28293000Y7288291D01*
X28309132Y7289880D01*
X29576868Y7289880D01*
X29593000Y7288291D01*
X29609132Y7289880D01*
X29609135Y7289880D01*
X29657417Y7294635D01*
X29658488Y7294960D01*
X54618680Y7294960D01*
X54618681Y5725118D01*
X54553934Y5660371D01*
X54498514Y5577430D01*
X54460341Y5485271D01*
X54440880Y5387436D01*
X54440880Y5287684D01*
X54460341Y5189849D01*
X54498514Y5097690D01*
X54553934Y5014749D01*
X54624469Y4944214D01*
X54707410Y4888794D01*
X54736150Y4876890D01*
X54351940Y4492680D01*
X40849230Y4492680D01*
X38835986Y6505924D01*
X38825699Y6518459D01*
X38775663Y6559522D01*
X38718578Y6590035D01*
X38656637Y6608825D01*
X38608355Y6613580D01*
X38608352Y6613580D01*
X38592220Y6615169D01*
X38576088Y6613580D01*
X25501112Y6613580D01*
X25484980Y6615169D01*
X25468848Y6613580D01*
X25468845Y6613580D01*
X25420563Y6608825D01*
X25358622Y6590035D01*
X25301536Y6559522D01*
X25264033Y6528744D01*
X25251501Y6518459D01*
X25241218Y6505929D01*
X24052722Y5317433D01*
X24050459Y5328811D01*
X24012286Y5420970D01*
X23956866Y5503911D01*
X23892120Y5568657D01*
X23892120Y7242824D01*
X25125348Y8476051D01*
X55335060Y8476051D01*
X54811170Y7952160D01*
G36*
X132538260Y7576349D02*
G01*
X132538260Y7484784D01*
X132557721Y7386949D01*
X132595894Y7294790D01*
X132651314Y7211849D01*
X132721849Y7141314D01*
X132804790Y7085894D01*
X132896949Y7047721D01*
X132994784Y7028260D01*
X133094536Y7028260D01*
X133192371Y7047721D01*
X133284530Y7085894D01*
X133367471Y7141314D01*
X133438006Y7211849D01*
X133493426Y7294790D01*
X133531599Y7386949D01*
X133533940Y7398720D01*
X133533940Y7053550D01*
X133017770Y6537380D01*
X132926204Y6537380D01*
X132828369Y6517919D01*
X132736210Y6479746D01*
X132653269Y6424326D01*
X132582734Y6353791D01*
X132527314Y6270850D01*
X132489141Y6178691D01*
X132469680Y6080856D01*
X132469680Y5981104D01*
X132489141Y5883269D01*
X132527314Y5791110D01*
X132582734Y5708169D01*
X132650144Y5640759D01*
X125561282Y5640759D01*
X125371745Y5830295D01*
X125361458Y5842830D01*
X125311422Y5883893D01*
X125254337Y5914406D01*
X125192396Y5933196D01*
X125144114Y5937951D01*
X125144111Y5937951D01*
X125127979Y5939540D01*
X125111847Y5937951D01*
X92992146Y5937951D01*
X92584178Y6345918D01*
X92573895Y6358448D01*
X92561365Y6368731D01*
X92561362Y6368734D01*
X92523859Y6399512D01*
X92466773Y6430025D01*
X92423622Y6443114D01*
X92404833Y6448814D01*
X92398851Y6449403D01*
X92340416Y6455159D01*
X92324274Y6453569D01*
X56465073Y6453571D01*
X56448941Y6455160D01*
X56432809Y6453571D01*
X56432807Y6453571D01*
X56384525Y6448816D01*
X56341373Y6435726D01*
X56322583Y6430026D01*
X56265497Y6399513D01*
X56227995Y6368735D01*
X56215463Y6358450D01*
X56205180Y6345920D01*
X55407950Y5548690D01*
X55396046Y5577430D01*
X55340626Y5660371D01*
X55275880Y5725117D01*
X55275880Y7487450D01*
X55959672Y8171241D01*
X131943369Y8171241D01*
X132538260Y7576349D01*
G37*
X132538260Y7576349D02*
X132538260Y7484784D01*
X132557721Y7386949D01*
X132595894Y7294790D01*
X132651314Y7211849D01*
X132721849Y7141314D01*
X132804790Y7085894D01*
X132896949Y7047721D01*
X132994784Y7028260D01*
X133094536Y7028260D01*
X133192371Y7047721D01*
X133284530Y7085894D01*
X133367471Y7141314D01*
X133438006Y7211849D01*
X133493426Y7294790D01*
X133531599Y7386949D01*
X133533940Y7398720D01*
X133533940Y7053550D01*
X133017770Y6537380D01*
X132926204Y6537380D01*
X132828369Y6517919D01*
X132736210Y6479746D01*
X132653269Y6424326D01*
X132582734Y6353791D01*
X132527314Y6270850D01*
X132489141Y6178691D01*
X132469680Y6080856D01*
X132469680Y5981104D01*
X132489141Y5883269D01*
X132527314Y5791110D01*
X132582734Y5708169D01*
X132650144Y5640759D01*
X125561282Y5640759D01*
X125371745Y5830295D01*
X125361458Y5842830D01*
X125311422Y5883893D01*
X125254337Y5914406D01*
X125192396Y5933196D01*
X125144114Y5937951D01*
X125144111Y5937951D01*
X125127979Y5939540D01*
X125111847Y5937951D01*
X92992146Y5937951D01*
X92584178Y6345918D01*
X92573895Y6358448D01*
X92561365Y6368731D01*
X92561362Y6368734D01*
X92523859Y6399512D01*
X92466773Y6430025D01*
X92423622Y6443114D01*
X92404833Y6448814D01*
X92398851Y6449403D01*
X92340416Y6455159D01*
X92324274Y6453569D01*
X56465073Y6453571D01*
X56448941Y6455160D01*
X56432809Y6453571D01*
X56432807Y6453571D01*
X56384525Y6448816D01*
X56341373Y6435726D01*
X56322583Y6430026D01*
X56265497Y6399513D01*
X56227995Y6368735D01*
X56215463Y6358450D01*
X56205180Y6345920D01*
X55407950Y5548690D01*
X55396046Y5577430D01*
X55340626Y5660371D01*
X55275880Y5725117D01*
X55275880Y7487450D01*
X55959672Y8171241D01*
X131943369Y8171241D01*
X132538260Y7576349D01*
M02*
