G04 #@! TF.GenerationSoftware,KiCad,Pcbnew,5.1.6+dfsg1-1~bpo10+1*
G04 #@! TF.CreationDate,2020-08-19T15:46:29+03:00*
G04 #@! TF.ProjectId,CompactBeamspringP1,436f6d70-6163-4744-9265-616d73707269,0.0.3*
G04 #@! TF.SameCoordinates,Original*
G04 #@! TF.FileFunction,Copper,L1,Top*
G04 #@! TF.FilePolarity,Positive*
%FSLAX46Y46*%
G04 Gerber Fmt 4.6, Leading zero omitted, Abs format (unit mm)*
G04 Created by KiCad (PCBNEW 5.1.6+dfsg1-1~bpo10+1) date 2020-08-19 15:46:29*
%MOMM*%
%LPD*%
G01*
G04 APERTURE LIST*
G04 #@! TA.AperFunction,EtchedComponent*
%ADD10C,0.100000*%
G04 #@! TD*
G04 #@! TA.AperFunction,ComponentPad*
%ADD11O,1.700000X1.700000*%
G04 #@! TD*
G04 #@! TA.AperFunction,ComponentPad*
%ADD12R,1.700000X1.700000*%
G04 #@! TD*
G04 #@! TA.AperFunction,ComponentPad*
%ADD13R,1.600000X1.600000*%
G04 #@! TD*
G04 #@! TA.AperFunction,ComponentPad*
%ADD14C,1.600000*%
G04 #@! TD*
G04 #@! TA.AperFunction,ComponentPad*
%ADD15C,3.000000*%
G04 #@! TD*
G04 #@! TA.AperFunction,ViaPad*
%ADD16C,0.600000*%
G04 #@! TD*
G04 #@! TA.AperFunction,ComponentPad*
%ADD17O,3.420000X1.550000*%
G04 #@! TD*
G04 #@! TA.AperFunction,ViaPad*
%ADD18C,0.508000*%
G04 #@! TD*
G04 #@! TA.AperFunction,ViaPad*
%ADD19C,1.016000*%
G04 #@! TD*
G04 #@! TA.AperFunction,Conductor*
%ADD20C,0.152400*%
G04 #@! TD*
G04 #@! TA.AperFunction,Conductor*
%ADD21C,0.304800*%
G04 #@! TD*
G04 #@! TA.AperFunction,Conductor*
%ADD22C,0.200000*%
G04 #@! TD*
G04 APERTURE END LIST*
D10*
G36*
X116421980Y-111303400D02*
G01*
X118821980Y-111303400D01*
X118821980Y-110703400D01*
X116421980Y-110703400D01*
X116421980Y-111303400D01*
G37*
G36*
X115301840Y-120447400D02*
G01*
X117701840Y-120447400D01*
X117701840Y-119847400D01*
X115301840Y-119847400D01*
X115301840Y-120447400D01*
G37*
D11*
X147428880Y-109002900D03*
X147428880Y-111542900D03*
X144888880Y-109002900D03*
X144888880Y-111542900D03*
X142348880Y-109002900D03*
D12*
X142348880Y-111542900D03*
D13*
X109996900Y-124066620D03*
D14*
X112536900Y-124066620D03*
X115076900Y-124066620D03*
X117616900Y-124066620D03*
X120156900Y-124066620D03*
X122696900Y-124066620D03*
X125236900Y-124066620D03*
X127776900Y-124066620D03*
X130316900Y-124066620D03*
X132856900Y-124066620D03*
X135396900Y-124066620D03*
X137936900Y-124066620D03*
X137936900Y-108826620D03*
X135396900Y-108826620D03*
X132856900Y-108826620D03*
X130316900Y-108826620D03*
X127776900Y-108826620D03*
X125236900Y-108826620D03*
X122696900Y-108826620D03*
X120156900Y-108826620D03*
X117616900Y-108826620D03*
X115076900Y-108826620D03*
X112536900Y-108826620D03*
X109996900Y-108826620D03*
D15*
X268050000Y-124050000D03*
D16*
X116421980Y-111003400D03*
X117621980Y-111003400D03*
X118821980Y-111003400D03*
X115301840Y-120147400D03*
X116501840Y-120147400D03*
X117701840Y-120147400D03*
D17*
X142731660Y-114875380D03*
X146691660Y-114875380D03*
X150651660Y-114875380D03*
X154611660Y-114875380D03*
X158571660Y-114875380D03*
X162531660Y-114875380D03*
X166491660Y-114875380D03*
X170451660Y-114875380D03*
X174411660Y-114875380D03*
X178371660Y-114875380D03*
X182331660Y-114875380D03*
X186291660Y-114875380D03*
X190251660Y-114875380D03*
X194211660Y-114875380D03*
X198171660Y-114875380D03*
X202131660Y-114875380D03*
X206091660Y-114875380D03*
X210051660Y-114875380D03*
X214011660Y-114875380D03*
X217971660Y-114875380D03*
X221931660Y-114875380D03*
X225891660Y-114875380D03*
X229851660Y-114875380D03*
X233811660Y-114875380D03*
X237771660Y-114875380D03*
X241731660Y-114875380D03*
X245691660Y-114875380D03*
X249651660Y-114875380D03*
X253611660Y-114875380D03*
X257571660Y-114875380D03*
D18*
X250878000Y-121365080D03*
X249572440Y-121316820D03*
X250893240Y-120013800D03*
X249587680Y-120090000D03*
X230210020Y-121078060D03*
X198195860Y-120953600D03*
X163842360Y-120615780D03*
X140860440Y-121263480D03*
X231480020Y-121006940D03*
X199468400Y-120984080D03*
X165119980Y-120638640D03*
X143090560Y-120892640D03*
X195650780Y-120968840D03*
X169191600Y-122203280D03*
X227680180Y-121200000D03*
X203727980Y-121614000D03*
X161297280Y-120562440D03*
X239394660Y-118365340D03*
X135419760Y-118281520D03*
X239326080Y-119869020D03*
X131213520Y-120718900D03*
X266650000Y-119150000D03*
X255650000Y-120900000D03*
X253900000Y-120650000D03*
X258400000Y-117150000D03*
X253650000Y-116400000D03*
X255325000Y-116625000D03*
X266400000Y-115650000D03*
X240650000Y-121650000D03*
X240682440Y-119838540D03*
X263128420Y-113353920D03*
X265046120Y-113371700D03*
X261337720Y-120056980D03*
X247388040Y-118888580D03*
X238642820Y-124832180D03*
X244060000Y-117780000D03*
X149361820Y-124672160D03*
X154838060Y-124667080D03*
X145221620Y-123943180D03*
X247125000Y-124850000D03*
X262450000Y-123850000D03*
X265175000Y-121850000D03*
X268073800Y-120486240D03*
X259600000Y-115950000D03*
X245900000Y-113500000D03*
X247550000Y-113850000D03*
X247200000Y-116350000D03*
X256650000Y-116250000D03*
X259350000Y-123975000D03*
X261175000Y-121400000D03*
X259425000Y-122900000D03*
D19*
X252125000Y-121325000D03*
X257725000Y-121400000D03*
X252125000Y-120150000D03*
X257825000Y-120200000D03*
D18*
X134850000Y-120550000D03*
X129501707Y-113151707D03*
X134000000Y-120500000D03*
X128550000Y-112400000D03*
D19*
X119692080Y-117631280D03*
D18*
X175526360Y-118162140D03*
X176570300Y-121669880D03*
X216146040Y-118619340D03*
X210271020Y-118553300D03*
X203184420Y-118576160D03*
X201414040Y-121253320D03*
X235579580Y-119754720D03*
X235429720Y-117928460D03*
X232334840Y-119308840D03*
X224101320Y-118398360D03*
X220933940Y-118164680D03*
X188386380Y-118507580D03*
X191734100Y-118451700D03*
X169158580Y-118309460D03*
X156942560Y-119308840D03*
X153376400Y-119308840D03*
X213085340Y-118568540D03*
X206836940Y-118568540D03*
X218244080Y-118593940D03*
X172491060Y-118487260D03*
X179077280Y-118591400D03*
X196920780Y-120877400D03*
X171020400Y-121776560D03*
X187446580Y-121807040D03*
X182485960Y-121799420D03*
X183639571Y-118537609D03*
X180692720Y-118708240D03*
X146468760Y-119244180D03*
X158795380Y-120973920D03*
X145059060Y-116079340D03*
X145211460Y-113313280D03*
X235240000Y-121530000D03*
X139720000Y-120500000D03*
X212520000Y-121600000D03*
X140108600Y-109013060D03*
X148665860Y-113788260D03*
X152625860Y-113788260D03*
X156585860Y-113788260D03*
X160545860Y-113788260D03*
X164505860Y-113788260D03*
X168465860Y-113788260D03*
X172425860Y-113788260D03*
X176385860Y-113788260D03*
X180345860Y-113788260D03*
X184305860Y-113788260D03*
X188265860Y-113788260D03*
X192225860Y-113788260D03*
X196185860Y-113788260D03*
X200145860Y-113788260D03*
X204105860Y-113788260D03*
X208065860Y-113788260D03*
X212025860Y-113788260D03*
X215985860Y-113788260D03*
X219945860Y-113788260D03*
X223905860Y-113788260D03*
X227865860Y-113788260D03*
X231825860Y-113788260D03*
X235785860Y-113788260D03*
D19*
X131950000Y-114950000D03*
D18*
X135850000Y-121850000D03*
X123150000Y-112100000D03*
X191750000Y-121800000D03*
X224200000Y-121500000D03*
X125550000Y-116200000D03*
X127700000Y-118250000D03*
X129350000Y-120050000D03*
X132350000Y-118900000D03*
X129550000Y-116000000D03*
X134200000Y-117950000D03*
X144650000Y-120800000D03*
X141500000Y-118900000D03*
X140950000Y-111550000D03*
X132800000Y-112400000D03*
D20*
X248932350Y-123310730D02*
X250878000Y-121365080D01*
X140215120Y-123310730D02*
X248932350Y-123310730D01*
X138430629Y-125095221D02*
X140215120Y-123310730D01*
X126265501Y-125095221D02*
X138430629Y-125095221D01*
X125236900Y-124066620D02*
X126265501Y-125095221D01*
X133367399Y-121170469D02*
X131499849Y-123038019D01*
X133367399Y-120268351D02*
X133367399Y-121170469D01*
X133618351Y-120017399D02*
X133367399Y-120268351D01*
X131499849Y-123038019D02*
X128805501Y-123038019D01*
X137067399Y-120017399D02*
X133618351Y-120017399D01*
X128805501Y-123038019D02*
X127776900Y-124066620D01*
X140055920Y-123005920D02*
X137067399Y-120017399D01*
X247883340Y-123005920D02*
X140055920Y-123005920D01*
X249572440Y-121316820D02*
X247883340Y-123005920D01*
X250265859Y-119386419D02*
X250893240Y-120013800D01*
X242118049Y-119386419D02*
X250265859Y-119386419D01*
X239522169Y-116790539D02*
X242118049Y-119386419D01*
X130759461Y-116790539D02*
X239522169Y-116790539D01*
X127550000Y-120000000D02*
X130759461Y-116790539D01*
X124223520Y-120000000D02*
X127550000Y-120000000D01*
X120156900Y-124066620D02*
X124223520Y-120000000D01*
X249089839Y-120587841D02*
X249587680Y-120090000D01*
X199206035Y-120290649D02*
X231477979Y-120290649D01*
X198690416Y-119775030D02*
X199206035Y-120290649D01*
X231775171Y-120587841D02*
X249089839Y-120587841D01*
X162798941Y-119775029D02*
X198690416Y-119775030D01*
X160838050Y-121735920D02*
X162798941Y-119775029D01*
X231477979Y-120290649D02*
X231775171Y-120587841D01*
X147063120Y-121735920D02*
X160838050Y-121735920D01*
X133134980Y-119615020D02*
X144942220Y-119615020D01*
X131548499Y-121201501D02*
X133134980Y-119615020D01*
X144942220Y-119615020D02*
X147063120Y-121735920D01*
X125562019Y-121201501D02*
X131548499Y-121201501D01*
X122696900Y-124066620D02*
X125562019Y-121201501D01*
X199338861Y-122096601D02*
X198195860Y-120953600D01*
X229191479Y-122096601D02*
X199338861Y-122096601D01*
X230210020Y-121078060D02*
X229191479Y-122096601D01*
X165912461Y-122685881D02*
X163842360Y-120615780D01*
X196463579Y-122685881D02*
X165912461Y-122685881D01*
X198195860Y-120953600D02*
X196463579Y-122685881D01*
X140860440Y-121370160D02*
X140860440Y-121263480D01*
X141835820Y-122345540D02*
X140860440Y-121370160D01*
X163842360Y-120615780D02*
X162820322Y-120615780D01*
X161090562Y-122345540D02*
X162820322Y-120615780D01*
X160595540Y-122345540D02*
X161090562Y-122345540D01*
X160595540Y-122345540D02*
X141835820Y-122345540D01*
X199857021Y-120595459D02*
X199468400Y-120984080D01*
X231068539Y-120595459D02*
X199857021Y-120595459D01*
X231480020Y-121006940D02*
X231068539Y-120595459D01*
X165678781Y-120079839D02*
X165119980Y-120638640D01*
X198564159Y-120079839D02*
X165678781Y-120079839D01*
X199468400Y-120984080D02*
X198564159Y-120079839D01*
X160964306Y-122040730D02*
X144551070Y-122040730D01*
X162871857Y-120133179D02*
X160964306Y-122040730D01*
X164614519Y-120133179D02*
X162871857Y-120133179D01*
X165119980Y-120638640D02*
X164614519Y-120133179D01*
X144238650Y-122040730D02*
X143090560Y-120892640D01*
X144551070Y-122040730D02*
X144238650Y-122040730D01*
X170426040Y-120968840D02*
X169191600Y-122203280D01*
X195650780Y-120968840D02*
X170426040Y-120968840D01*
X204228360Y-121113620D02*
X203727980Y-121614000D01*
X204236380Y-121113620D02*
X204449731Y-120900269D01*
X204228360Y-121113620D02*
X204236380Y-121113620D01*
X227380449Y-120900269D02*
X227150269Y-120900269D01*
X227680180Y-121200000D02*
X227380449Y-120900269D01*
X204449731Y-120900269D02*
X227150269Y-120900269D01*
X161297280Y-118276440D02*
X161297280Y-120562440D01*
X162173561Y-117400159D02*
X161297280Y-118276440D01*
X238429479Y-117400159D02*
X162173561Y-117400159D01*
X239394660Y-118365340D02*
X238429479Y-117400159D01*
X161297280Y-118276440D02*
X135948080Y-118276440D01*
X135943000Y-118281520D02*
X135948080Y-118276440D01*
X135419760Y-118281520D02*
X135943000Y-118281520D01*
X131213520Y-118521066D02*
X131213520Y-120718900D01*
X132639237Y-117095349D02*
X131213520Y-118521066D01*
X239333709Y-117095349D02*
X132639237Y-117095349D01*
X240212540Y-117974180D02*
X239333709Y-117095349D01*
X240212540Y-118982560D02*
X240212540Y-117974180D01*
X239326080Y-119869020D02*
X240212540Y-118982560D01*
D21*
X252632999Y-119642001D02*
X257279902Y-119642001D01*
X252125000Y-120150000D02*
X252632999Y-119642001D01*
X257279902Y-119654902D02*
X257825000Y-120200000D01*
X257279902Y-119642001D02*
X257279902Y-119654902D01*
D20*
X146350279Y-110464299D02*
X147428880Y-111542900D01*
X132856900Y-124066620D02*
X132856900Y-122543100D01*
X139802150Y-111697850D02*
X141035701Y-110464299D01*
X130955563Y-111697851D02*
X139802150Y-111697850D01*
X129501707Y-113151707D02*
X130955563Y-111697851D01*
X141035701Y-110464299D02*
X146350279Y-110464299D01*
X132856900Y-122543100D02*
X134850000Y-120550000D01*
X142348880Y-109002900D02*
X142348880Y-109551120D01*
X140783187Y-109854681D02*
X141497099Y-109854681D01*
X124485750Y-115750000D02*
X129147519Y-111088231D01*
X114750000Y-115750000D02*
X124485750Y-115750000D01*
X112950000Y-117550000D02*
X114750000Y-115750000D01*
X112950000Y-122957390D02*
X112950000Y-117550000D01*
X113565501Y-123572891D02*
X112950000Y-122957390D01*
X141497099Y-109854681D02*
X142348880Y-109002900D01*
X129147519Y-111088231D02*
X139549637Y-111088231D01*
X113565501Y-124560349D02*
X113565501Y-123572891D01*
X111025501Y-125095221D02*
X113030629Y-125095221D01*
X139549637Y-111088231D02*
X140783187Y-109854681D01*
X113030629Y-125095221D02*
X113565501Y-124560349D01*
X109996900Y-124066620D02*
X111025501Y-125095221D01*
X133850000Y-120533520D02*
X133850000Y-120500000D01*
X146473451Y-112621501D02*
X145394850Y-111542900D01*
X147946609Y-112621501D02*
X146473451Y-112621501D01*
X148507481Y-111025171D02*
X148507481Y-112060629D01*
X147641800Y-110159490D02*
X148507481Y-111025171D01*
X140909444Y-110159490D02*
X147641800Y-110159490D01*
X139675893Y-111393041D02*
X140909444Y-110159490D01*
X145394850Y-111542900D02*
X144888880Y-111542900D01*
X129556959Y-111393041D02*
X139675893Y-111393041D01*
X148507481Y-112060629D02*
X147946609Y-112621501D01*
X128550000Y-112400000D02*
X129556959Y-111393041D01*
X130902314Y-124066620D02*
X130316900Y-124066620D01*
X134000000Y-120968934D02*
X130902314Y-124066620D01*
X134000000Y-120500000D02*
X134000000Y-120968934D01*
X114623743Y-115445191D02*
X112645190Y-117423744D01*
X112645190Y-123958330D02*
X112536900Y-124066620D01*
X129021262Y-110783422D02*
X124359494Y-115445190D01*
X139423381Y-110783421D02*
X129021262Y-110783422D01*
X140591201Y-109615601D02*
X139423381Y-110783421D01*
X112645190Y-117423744D02*
X112645190Y-123958330D01*
X124359494Y-115445190D02*
X114623743Y-115445191D01*
X141831151Y-107924299D02*
X140591201Y-109164249D01*
X143810279Y-107924299D02*
X141831151Y-107924299D01*
X140591201Y-109164249D02*
X140591201Y-109615601D01*
X144888880Y-109002900D02*
X143810279Y-107924299D01*
D21*
X140601154Y-113290626D02*
X142348880Y-111542900D01*
X130759374Y-113290626D02*
X140601154Y-113290626D01*
X126418720Y-117631280D02*
X130759374Y-113290626D01*
X119692080Y-117631280D02*
X126418720Y-117631280D01*
X142731660Y-114875380D02*
X139511700Y-114875380D01*
X139511700Y-114875380D02*
X139275480Y-114875380D01*
X137939440Y-114875380D02*
X137934360Y-114880460D01*
X139275480Y-114875380D02*
X137939440Y-114875380D01*
X115301840Y-120147400D02*
X114447400Y-120147400D01*
X132024620Y-114875380D02*
X131950000Y-114950000D01*
X137939440Y-114875380D02*
X132024620Y-114875380D01*
D22*
G36*
X269362479Y-112934455D02*
G01*
X269422578Y-112952599D01*
X269478011Y-112982073D01*
X269526662Y-113021752D01*
X269566678Y-113070122D01*
X269596537Y-113125347D01*
X269615101Y-113185316D01*
X269623001Y-113260483D01*
X269623000Y-122813839D01*
X269544937Y-122772852D01*
X268267789Y-124050000D01*
X268281931Y-124064142D01*
X268064142Y-124281931D01*
X268050000Y-124267789D01*
X266772852Y-125544937D01*
X266813839Y-125623000D01*
X138650000Y-125623000D01*
X138650000Y-125340278D01*
X138664108Y-125328700D01*
X138674395Y-125316165D01*
X139922150Y-124068410D01*
X263671600Y-124068410D01*
X263671600Y-124231590D01*
X263703435Y-124391635D01*
X263765882Y-124542394D01*
X263856540Y-124678074D01*
X263971926Y-124793460D01*
X264107606Y-124884118D01*
X264258365Y-124946565D01*
X264418410Y-124978400D01*
X264581590Y-124978400D01*
X264741635Y-124946565D01*
X264892394Y-124884118D01*
X265028074Y-124793460D01*
X265143460Y-124678074D01*
X265234118Y-124542394D01*
X265296565Y-124391635D01*
X265328400Y-124231590D01*
X265328400Y-124120942D01*
X265932988Y-124120942D01*
X265987506Y-124532587D01*
X266121284Y-124925687D01*
X266250356Y-125167163D01*
X266555063Y-125327148D01*
X267832211Y-124050000D01*
X266555063Y-122772852D01*
X266250356Y-122932837D01*
X266066988Y-123305396D01*
X265959826Y-123706570D01*
X265932988Y-124120942D01*
X265328400Y-124120942D01*
X265328400Y-124068410D01*
X265296565Y-123908365D01*
X265234118Y-123757606D01*
X265143460Y-123621926D01*
X265028074Y-123506540D01*
X264892394Y-123415882D01*
X264741635Y-123353435D01*
X264581590Y-123321600D01*
X264418410Y-123321600D01*
X264258365Y-123353435D01*
X264107606Y-123415882D01*
X263971926Y-123506540D01*
X263856540Y-123621926D01*
X263765882Y-123757606D01*
X263703435Y-123908365D01*
X263671600Y-124068410D01*
X139922150Y-124068410D01*
X140351231Y-123639330D01*
X248916218Y-123639330D01*
X248932350Y-123640919D01*
X248948482Y-123639330D01*
X248948485Y-123639330D01*
X248996767Y-123634575D01*
X249058708Y-123615785D01*
X249115793Y-123585272D01*
X249165829Y-123544209D01*
X249176116Y-123531674D01*
X250152727Y-122555063D01*
X266772852Y-122555063D01*
X268050000Y-123832211D01*
X269327148Y-122555063D01*
X269167163Y-122250356D01*
X268794604Y-122066988D01*
X268393430Y-121959826D01*
X267979058Y-121932988D01*
X267567413Y-121987506D01*
X267174313Y-122121284D01*
X266932837Y-122250356D01*
X266772852Y-122555063D01*
X250152727Y-122555063D01*
X250836310Y-121871480D01*
X250927876Y-121871480D01*
X251025711Y-121852019D01*
X251117870Y-121813846D01*
X251200811Y-121758426D01*
X251271346Y-121687891D01*
X251326766Y-121604950D01*
X251364939Y-121512791D01*
X251384400Y-121414956D01*
X251384400Y-121315204D01*
X251364939Y-121217369D01*
X251326766Y-121125210D01*
X251271346Y-121042269D01*
X251200811Y-120971734D01*
X251117870Y-120916314D01*
X251025711Y-120878141D01*
X250927876Y-120858680D01*
X250828124Y-120858680D01*
X250730289Y-120878141D01*
X250638130Y-120916314D01*
X250555189Y-120971734D01*
X250484654Y-121042269D01*
X250429234Y-121125210D01*
X250391061Y-121217369D01*
X250371600Y-121315204D01*
X250371600Y-121406770D01*
X248796240Y-122982130D01*
X248371840Y-122982130D01*
X249530751Y-121823220D01*
X249622316Y-121823220D01*
X249720151Y-121803759D01*
X249812310Y-121765586D01*
X249895251Y-121710166D01*
X249965786Y-121639631D01*
X250021206Y-121556690D01*
X250059379Y-121464531D01*
X250078840Y-121366696D01*
X250078840Y-121266944D01*
X250059379Y-121169109D01*
X250021206Y-121076950D01*
X249965786Y-120994009D01*
X249895251Y-120923474D01*
X249812310Y-120868054D01*
X249720151Y-120829881D01*
X249622316Y-120810420D01*
X249522564Y-120810420D01*
X249424729Y-120829881D01*
X249332570Y-120868054D01*
X249249629Y-120923474D01*
X249179094Y-120994009D01*
X249123674Y-121076950D01*
X249085501Y-121169109D01*
X249066040Y-121266944D01*
X249066040Y-121358509D01*
X247747230Y-122677320D01*
X236620000Y-122677320D01*
X236620000Y-120916441D01*
X249073707Y-120916441D01*
X249089839Y-120918030D01*
X249105971Y-120916441D01*
X249105974Y-120916441D01*
X249154256Y-120911686D01*
X249216197Y-120892896D01*
X249273282Y-120862383D01*
X249323318Y-120821320D01*
X249333605Y-120808785D01*
X249545990Y-120596400D01*
X249637556Y-120596400D01*
X249735391Y-120576939D01*
X249827550Y-120538766D01*
X249910491Y-120483346D01*
X249981026Y-120412811D01*
X250036446Y-120329870D01*
X250074619Y-120237711D01*
X250094080Y-120139876D01*
X250094080Y-120040124D01*
X250074619Y-119942289D01*
X250036446Y-119850130D01*
X249981026Y-119767189D01*
X249928856Y-119715019D01*
X250129749Y-119715019D01*
X250386840Y-119972110D01*
X250386840Y-120063676D01*
X250406301Y-120161511D01*
X250444474Y-120253670D01*
X250499894Y-120336611D01*
X250570429Y-120407146D01*
X250653370Y-120462566D01*
X250745529Y-120500739D01*
X250843364Y-120520200D01*
X250943116Y-120520200D01*
X251040951Y-120500739D01*
X251133110Y-120462566D01*
X251216051Y-120407146D01*
X251286586Y-120336611D01*
X251342006Y-120253670D01*
X251364600Y-120199123D01*
X251364600Y-120224893D01*
X251393822Y-120371800D01*
X251451142Y-120510184D01*
X251534359Y-120634727D01*
X251640273Y-120740641D01*
X251764816Y-120823858D01*
X251903200Y-120881178D01*
X252050107Y-120910400D01*
X252199893Y-120910400D01*
X252346800Y-120881178D01*
X252485184Y-120823858D01*
X252609727Y-120740641D01*
X252715641Y-120634727D01*
X252798858Y-120510184D01*
X252856178Y-120371800D01*
X252885400Y-120224893D01*
X252885400Y-120075107D01*
X252879770Y-120046801D01*
X257080176Y-120046801D01*
X257064600Y-120125107D01*
X257064600Y-120274893D01*
X257093822Y-120421800D01*
X257151142Y-120560184D01*
X257234359Y-120684727D01*
X257340273Y-120790641D01*
X257464816Y-120873858D01*
X257603200Y-120931178D01*
X257750107Y-120960400D01*
X257899893Y-120960400D01*
X258046800Y-120931178D01*
X258185184Y-120873858D01*
X258309727Y-120790641D01*
X258415641Y-120684727D01*
X258498858Y-120560184D01*
X258556178Y-120421800D01*
X258585400Y-120274893D01*
X258585400Y-120125107D01*
X258556178Y-119978200D01*
X258498858Y-119839816D01*
X258415641Y-119715273D01*
X258309727Y-119609359D01*
X258185184Y-119526142D01*
X258046800Y-119468822D01*
X257899893Y-119439600D01*
X257750107Y-119439600D01*
X257655827Y-119458354D01*
X257623411Y-119425938D01*
X257618109Y-119416018D01*
X257567523Y-119354380D01*
X257505885Y-119303794D01*
X257435562Y-119266206D01*
X257359257Y-119243059D01*
X257299781Y-119237201D01*
X257279902Y-119235243D01*
X257260023Y-119237201D01*
X252652870Y-119237201D01*
X252632998Y-119235244D01*
X252613126Y-119237201D01*
X252613120Y-119237201D01*
X252553644Y-119243059D01*
X252477339Y-119266206D01*
X252407016Y-119303794D01*
X252384830Y-119322002D01*
X252360818Y-119341708D01*
X252360815Y-119341711D01*
X252345378Y-119354380D01*
X252332708Y-119369818D01*
X252294173Y-119408354D01*
X252199893Y-119389600D01*
X252050107Y-119389600D01*
X251903200Y-119418822D01*
X251764816Y-119476142D01*
X251640273Y-119559359D01*
X251534359Y-119665273D01*
X251451142Y-119789816D01*
X251393822Y-119928200D01*
X251393178Y-119931438D01*
X251380179Y-119866089D01*
X251342006Y-119773930D01*
X251286586Y-119690989D01*
X251216051Y-119620454D01*
X251133110Y-119565034D01*
X251040951Y-119526861D01*
X250943116Y-119507400D01*
X250851550Y-119507400D01*
X250509623Y-119165473D01*
X250499338Y-119152940D01*
X250449302Y-119111877D01*
X250392217Y-119081364D01*
X250330276Y-119062574D01*
X250281994Y-119057819D01*
X250281991Y-119057819D01*
X250265859Y-119056230D01*
X250249727Y-119057819D01*
X242254159Y-119057819D01*
X239940000Y-116743660D01*
X239940000Y-115451037D01*
X240066663Y-115605377D01*
X240223105Y-115733765D01*
X240401589Y-115829166D01*
X240595254Y-115887914D01*
X240746189Y-115902780D01*
X242717131Y-115902780D01*
X242868066Y-115887914D01*
X243061731Y-115829166D01*
X243240215Y-115733765D01*
X243396657Y-115605377D01*
X243525045Y-115448935D01*
X243620446Y-115270451D01*
X243679194Y-115076786D01*
X243697671Y-114889183D01*
X243725463Y-114887303D01*
X243744126Y-115076786D01*
X243802874Y-115270451D01*
X243898275Y-115448935D01*
X244026663Y-115605377D01*
X244183105Y-115733765D01*
X244361589Y-115829166D01*
X244555254Y-115887914D01*
X244706189Y-115902780D01*
X246677131Y-115902780D01*
X246828066Y-115887914D01*
X247021731Y-115829166D01*
X247200215Y-115733765D01*
X247356657Y-115605377D01*
X247485045Y-115448935D01*
X247580446Y-115270451D01*
X247639194Y-115076786D01*
X247659031Y-114875380D01*
X247684289Y-114875380D01*
X247704126Y-115076786D01*
X247762874Y-115270451D01*
X247858275Y-115448935D01*
X247986663Y-115605377D01*
X248143105Y-115733765D01*
X248321589Y-115829166D01*
X248515254Y-115887914D01*
X248666189Y-115902780D01*
X250637131Y-115902780D01*
X250788066Y-115887914D01*
X250981731Y-115829166D01*
X251160215Y-115733765D01*
X251316657Y-115605377D01*
X251445045Y-115448935D01*
X251540446Y-115270451D01*
X251599194Y-115076786D01*
X251619031Y-114875380D01*
X251644289Y-114875380D01*
X251664126Y-115076786D01*
X251722874Y-115270451D01*
X251818275Y-115448935D01*
X251946663Y-115605377D01*
X252103105Y-115733765D01*
X252281589Y-115829166D01*
X252475254Y-115887914D01*
X252626189Y-115902780D01*
X254597131Y-115902780D01*
X254748066Y-115887914D01*
X254941731Y-115829166D01*
X255120215Y-115733765D01*
X255276657Y-115605377D01*
X255405045Y-115448935D01*
X255500446Y-115270451D01*
X255559194Y-115076786D01*
X255579031Y-114875380D01*
X255604289Y-114875380D01*
X255624126Y-115076786D01*
X255682874Y-115270451D01*
X255778275Y-115448935D01*
X255906663Y-115605377D01*
X256063105Y-115733765D01*
X256241589Y-115829166D01*
X256435254Y-115887914D01*
X256586189Y-115902780D01*
X258557131Y-115902780D01*
X258708066Y-115887914D01*
X258901731Y-115829166D01*
X259080215Y-115733765D01*
X259236657Y-115605377D01*
X259365045Y-115448935D01*
X259460446Y-115270451D01*
X259519194Y-115076786D01*
X259539031Y-114875380D01*
X259519194Y-114673974D01*
X259460446Y-114480309D01*
X259365045Y-114301825D01*
X259236657Y-114145383D01*
X259080215Y-114016995D01*
X258901731Y-113921594D01*
X258708066Y-113862846D01*
X258557131Y-113847980D01*
X256586189Y-113847980D01*
X256435254Y-113862846D01*
X256241589Y-113921594D01*
X256063105Y-114016995D01*
X255906663Y-114145383D01*
X255778275Y-114301825D01*
X255682874Y-114480309D01*
X255624126Y-114673974D01*
X255604289Y-114875380D01*
X255579031Y-114875380D01*
X255559194Y-114673974D01*
X255500446Y-114480309D01*
X255405045Y-114301825D01*
X255276657Y-114145383D01*
X255120215Y-114016995D01*
X254941731Y-113921594D01*
X254748066Y-113862846D01*
X254597131Y-113847980D01*
X252626189Y-113847980D01*
X252475254Y-113862846D01*
X252281589Y-113921594D01*
X252103105Y-114016995D01*
X251946663Y-114145383D01*
X251818275Y-114301825D01*
X251722874Y-114480309D01*
X251664126Y-114673974D01*
X251644289Y-114875380D01*
X251619031Y-114875380D01*
X251599194Y-114673974D01*
X251540446Y-114480309D01*
X251445045Y-114301825D01*
X251316657Y-114145383D01*
X251160215Y-114016995D01*
X250981731Y-113921594D01*
X250788066Y-113862846D01*
X250637131Y-113847980D01*
X248666189Y-113847980D01*
X248515254Y-113862846D01*
X248321589Y-113921594D01*
X248143105Y-114016995D01*
X247986663Y-114145383D01*
X247858275Y-114301825D01*
X247762874Y-114480309D01*
X247704126Y-114673974D01*
X247684289Y-114875380D01*
X247659031Y-114875380D01*
X247639194Y-114673974D01*
X247580446Y-114480309D01*
X247485045Y-114301825D01*
X247356657Y-114145383D01*
X247200215Y-114016995D01*
X247021731Y-113921594D01*
X246828066Y-113862846D01*
X246677131Y-113847980D01*
X244706189Y-113847980D01*
X244555254Y-113862846D01*
X244361589Y-113921594D01*
X244183105Y-114016995D01*
X244026663Y-114145383D01*
X243930000Y-114263168D01*
X243930000Y-112927000D01*
X269286452Y-112927000D01*
X269362479Y-112934455D01*
G37*
X269362479Y-112934455D02*
X269422578Y-112952599D01*
X269478011Y-112982073D01*
X269526662Y-113021752D01*
X269566678Y-113070122D01*
X269596537Y-113125347D01*
X269615101Y-113185316D01*
X269623001Y-113260483D01*
X269623000Y-122813839D01*
X269544937Y-122772852D01*
X268267789Y-124050000D01*
X268281931Y-124064142D01*
X268064142Y-124281931D01*
X268050000Y-124267789D01*
X266772852Y-125544937D01*
X266813839Y-125623000D01*
X138650000Y-125623000D01*
X138650000Y-125340278D01*
X138664108Y-125328700D01*
X138674395Y-125316165D01*
X139922150Y-124068410D01*
X263671600Y-124068410D01*
X263671600Y-124231590D01*
X263703435Y-124391635D01*
X263765882Y-124542394D01*
X263856540Y-124678074D01*
X263971926Y-124793460D01*
X264107606Y-124884118D01*
X264258365Y-124946565D01*
X264418410Y-124978400D01*
X264581590Y-124978400D01*
X264741635Y-124946565D01*
X264892394Y-124884118D01*
X265028074Y-124793460D01*
X265143460Y-124678074D01*
X265234118Y-124542394D01*
X265296565Y-124391635D01*
X265328400Y-124231590D01*
X265328400Y-124120942D01*
X265932988Y-124120942D01*
X265987506Y-124532587D01*
X266121284Y-124925687D01*
X266250356Y-125167163D01*
X266555063Y-125327148D01*
X267832211Y-124050000D01*
X266555063Y-122772852D01*
X266250356Y-122932837D01*
X266066988Y-123305396D01*
X265959826Y-123706570D01*
X265932988Y-124120942D01*
X265328400Y-124120942D01*
X265328400Y-124068410D01*
X265296565Y-123908365D01*
X265234118Y-123757606D01*
X265143460Y-123621926D01*
X265028074Y-123506540D01*
X264892394Y-123415882D01*
X264741635Y-123353435D01*
X264581590Y-123321600D01*
X264418410Y-123321600D01*
X264258365Y-123353435D01*
X264107606Y-123415882D01*
X263971926Y-123506540D01*
X263856540Y-123621926D01*
X263765882Y-123757606D01*
X263703435Y-123908365D01*
X263671600Y-124068410D01*
X139922150Y-124068410D01*
X140351231Y-123639330D01*
X248916218Y-123639330D01*
X248932350Y-123640919D01*
X248948482Y-123639330D01*
X248948485Y-123639330D01*
X248996767Y-123634575D01*
X249058708Y-123615785D01*
X249115793Y-123585272D01*
X249165829Y-123544209D01*
X249176116Y-123531674D01*
X250152727Y-122555063D01*
X266772852Y-122555063D01*
X268050000Y-123832211D01*
X269327148Y-122555063D01*
X269167163Y-122250356D01*
X268794604Y-122066988D01*
X268393430Y-121959826D01*
X267979058Y-121932988D01*
X267567413Y-121987506D01*
X267174313Y-122121284D01*
X266932837Y-122250356D01*
X266772852Y-122555063D01*
X250152727Y-122555063D01*
X250836310Y-121871480D01*
X250927876Y-121871480D01*
X251025711Y-121852019D01*
X251117870Y-121813846D01*
X251200811Y-121758426D01*
X251271346Y-121687891D01*
X251326766Y-121604950D01*
X251364939Y-121512791D01*
X251384400Y-121414956D01*
X251384400Y-121315204D01*
X251364939Y-121217369D01*
X251326766Y-121125210D01*
X251271346Y-121042269D01*
X251200811Y-120971734D01*
X251117870Y-120916314D01*
X251025711Y-120878141D01*
X250927876Y-120858680D01*
X250828124Y-120858680D01*
X250730289Y-120878141D01*
X250638130Y-120916314D01*
X250555189Y-120971734D01*
X250484654Y-121042269D01*
X250429234Y-121125210D01*
X250391061Y-121217369D01*
X250371600Y-121315204D01*
X250371600Y-121406770D01*
X248796240Y-122982130D01*
X248371840Y-122982130D01*
X249530751Y-121823220D01*
X249622316Y-121823220D01*
X249720151Y-121803759D01*
X249812310Y-121765586D01*
X249895251Y-121710166D01*
X249965786Y-121639631D01*
X250021206Y-121556690D01*
X250059379Y-121464531D01*
X250078840Y-121366696D01*
X250078840Y-121266944D01*
X250059379Y-121169109D01*
X250021206Y-121076950D01*
X249965786Y-120994009D01*
X249895251Y-120923474D01*
X249812310Y-120868054D01*
X249720151Y-120829881D01*
X249622316Y-120810420D01*
X249522564Y-120810420D01*
X249424729Y-120829881D01*
X249332570Y-120868054D01*
X249249629Y-120923474D01*
X249179094Y-120994009D01*
X249123674Y-121076950D01*
X249085501Y-121169109D01*
X249066040Y-121266944D01*
X249066040Y-121358509D01*
X247747230Y-122677320D01*
X236620000Y-122677320D01*
X236620000Y-120916441D01*
X249073707Y-120916441D01*
X249089839Y-120918030D01*
X249105971Y-120916441D01*
X249105974Y-120916441D01*
X249154256Y-120911686D01*
X249216197Y-120892896D01*
X249273282Y-120862383D01*
X249323318Y-120821320D01*
X249333605Y-120808785D01*
X249545990Y-120596400D01*
X249637556Y-120596400D01*
X249735391Y-120576939D01*
X249827550Y-120538766D01*
X249910491Y-120483346D01*
X249981026Y-120412811D01*
X250036446Y-120329870D01*
X250074619Y-120237711D01*
X250094080Y-120139876D01*
X250094080Y-120040124D01*
X250074619Y-119942289D01*
X250036446Y-119850130D01*
X249981026Y-119767189D01*
X249928856Y-119715019D01*
X250129749Y-119715019D01*
X250386840Y-119972110D01*
X250386840Y-120063676D01*
X250406301Y-120161511D01*
X250444474Y-120253670D01*
X250499894Y-120336611D01*
X250570429Y-120407146D01*
X250653370Y-120462566D01*
X250745529Y-120500739D01*
X250843364Y-120520200D01*
X250943116Y-120520200D01*
X251040951Y-120500739D01*
X251133110Y-120462566D01*
X251216051Y-120407146D01*
X251286586Y-120336611D01*
X251342006Y-120253670D01*
X251364600Y-120199123D01*
X251364600Y-120224893D01*
X251393822Y-120371800D01*
X251451142Y-120510184D01*
X251534359Y-120634727D01*
X251640273Y-120740641D01*
X251764816Y-120823858D01*
X251903200Y-120881178D01*
X252050107Y-120910400D01*
X252199893Y-120910400D01*
X252346800Y-120881178D01*
X252485184Y-120823858D01*
X252609727Y-120740641D01*
X252715641Y-120634727D01*
X252798858Y-120510184D01*
X252856178Y-120371800D01*
X252885400Y-120224893D01*
X252885400Y-120075107D01*
X252879770Y-120046801D01*
X257080176Y-120046801D01*
X257064600Y-120125107D01*
X257064600Y-120274893D01*
X257093822Y-120421800D01*
X257151142Y-120560184D01*
X257234359Y-120684727D01*
X257340273Y-120790641D01*
X257464816Y-120873858D01*
X257603200Y-120931178D01*
X257750107Y-120960400D01*
X257899893Y-120960400D01*
X258046800Y-120931178D01*
X258185184Y-120873858D01*
X258309727Y-120790641D01*
X258415641Y-120684727D01*
X258498858Y-120560184D01*
X258556178Y-120421800D01*
X258585400Y-120274893D01*
X258585400Y-120125107D01*
X258556178Y-119978200D01*
X258498858Y-119839816D01*
X258415641Y-119715273D01*
X258309727Y-119609359D01*
X258185184Y-119526142D01*
X258046800Y-119468822D01*
X257899893Y-119439600D01*
X257750107Y-119439600D01*
X257655827Y-119458354D01*
X257623411Y-119425938D01*
X257618109Y-119416018D01*
X257567523Y-119354380D01*
X257505885Y-119303794D01*
X257435562Y-119266206D01*
X257359257Y-119243059D01*
X257299781Y-119237201D01*
X257279902Y-119235243D01*
X257260023Y-119237201D01*
X252652870Y-119237201D01*
X252632998Y-119235244D01*
X252613126Y-119237201D01*
X252613120Y-119237201D01*
X252553644Y-119243059D01*
X252477339Y-119266206D01*
X252407016Y-119303794D01*
X252384830Y-119322002D01*
X252360818Y-119341708D01*
X252360815Y-119341711D01*
X252345378Y-119354380D01*
X252332708Y-119369818D01*
X252294173Y-119408354D01*
X252199893Y-119389600D01*
X252050107Y-119389600D01*
X251903200Y-119418822D01*
X251764816Y-119476142D01*
X251640273Y-119559359D01*
X251534359Y-119665273D01*
X251451142Y-119789816D01*
X251393822Y-119928200D01*
X251393178Y-119931438D01*
X251380179Y-119866089D01*
X251342006Y-119773930D01*
X251286586Y-119690989D01*
X251216051Y-119620454D01*
X251133110Y-119565034D01*
X251040951Y-119526861D01*
X250943116Y-119507400D01*
X250851550Y-119507400D01*
X250509623Y-119165473D01*
X250499338Y-119152940D01*
X250449302Y-119111877D01*
X250392217Y-119081364D01*
X250330276Y-119062574D01*
X250281994Y-119057819D01*
X250281991Y-119057819D01*
X250265859Y-119056230D01*
X250249727Y-119057819D01*
X242254159Y-119057819D01*
X239940000Y-116743660D01*
X239940000Y-115451037D01*
X240066663Y-115605377D01*
X240223105Y-115733765D01*
X240401589Y-115829166D01*
X240595254Y-115887914D01*
X240746189Y-115902780D01*
X242717131Y-115902780D01*
X242868066Y-115887914D01*
X243061731Y-115829166D01*
X243240215Y-115733765D01*
X243396657Y-115605377D01*
X243525045Y-115448935D01*
X243620446Y-115270451D01*
X243679194Y-115076786D01*
X243697671Y-114889183D01*
X243725463Y-114887303D01*
X243744126Y-115076786D01*
X243802874Y-115270451D01*
X243898275Y-115448935D01*
X244026663Y-115605377D01*
X244183105Y-115733765D01*
X244361589Y-115829166D01*
X244555254Y-115887914D01*
X244706189Y-115902780D01*
X246677131Y-115902780D01*
X246828066Y-115887914D01*
X247021731Y-115829166D01*
X247200215Y-115733765D01*
X247356657Y-115605377D01*
X247485045Y-115448935D01*
X247580446Y-115270451D01*
X247639194Y-115076786D01*
X247659031Y-114875380D01*
X247684289Y-114875380D01*
X247704126Y-115076786D01*
X247762874Y-115270451D01*
X247858275Y-115448935D01*
X247986663Y-115605377D01*
X248143105Y-115733765D01*
X248321589Y-115829166D01*
X248515254Y-115887914D01*
X248666189Y-115902780D01*
X250637131Y-115902780D01*
X250788066Y-115887914D01*
X250981731Y-115829166D01*
X251160215Y-115733765D01*
X251316657Y-115605377D01*
X251445045Y-115448935D01*
X251540446Y-115270451D01*
X251599194Y-115076786D01*
X251619031Y-114875380D01*
X251644289Y-114875380D01*
X251664126Y-115076786D01*
X251722874Y-115270451D01*
X251818275Y-115448935D01*
X251946663Y-115605377D01*
X252103105Y-115733765D01*
X252281589Y-115829166D01*
X252475254Y-115887914D01*
X252626189Y-115902780D01*
X254597131Y-115902780D01*
X254748066Y-115887914D01*
X254941731Y-115829166D01*
X255120215Y-115733765D01*
X255276657Y-115605377D01*
X255405045Y-115448935D01*
X255500446Y-115270451D01*
X255559194Y-115076786D01*
X255579031Y-114875380D01*
X255604289Y-114875380D01*
X255624126Y-115076786D01*
X255682874Y-115270451D01*
X255778275Y-115448935D01*
X255906663Y-115605377D01*
X256063105Y-115733765D01*
X256241589Y-115829166D01*
X256435254Y-115887914D01*
X256586189Y-115902780D01*
X258557131Y-115902780D01*
X258708066Y-115887914D01*
X258901731Y-115829166D01*
X259080215Y-115733765D01*
X259236657Y-115605377D01*
X259365045Y-115448935D01*
X259460446Y-115270451D01*
X259519194Y-115076786D01*
X259539031Y-114875380D01*
X259519194Y-114673974D01*
X259460446Y-114480309D01*
X259365045Y-114301825D01*
X259236657Y-114145383D01*
X259080215Y-114016995D01*
X258901731Y-113921594D01*
X258708066Y-113862846D01*
X258557131Y-113847980D01*
X256586189Y-113847980D01*
X256435254Y-113862846D01*
X256241589Y-113921594D01*
X256063105Y-114016995D01*
X255906663Y-114145383D01*
X255778275Y-114301825D01*
X255682874Y-114480309D01*
X255624126Y-114673974D01*
X255604289Y-114875380D01*
X255579031Y-114875380D01*
X255559194Y-114673974D01*
X255500446Y-114480309D01*
X255405045Y-114301825D01*
X255276657Y-114145383D01*
X255120215Y-114016995D01*
X254941731Y-113921594D01*
X254748066Y-113862846D01*
X254597131Y-113847980D01*
X252626189Y-113847980D01*
X252475254Y-113862846D01*
X252281589Y-113921594D01*
X252103105Y-114016995D01*
X251946663Y-114145383D01*
X251818275Y-114301825D01*
X251722874Y-114480309D01*
X251664126Y-114673974D01*
X251644289Y-114875380D01*
X251619031Y-114875380D01*
X251599194Y-114673974D01*
X251540446Y-114480309D01*
X251445045Y-114301825D01*
X251316657Y-114145383D01*
X251160215Y-114016995D01*
X250981731Y-113921594D01*
X250788066Y-113862846D01*
X250637131Y-113847980D01*
X248666189Y-113847980D01*
X248515254Y-113862846D01*
X248321589Y-113921594D01*
X248143105Y-114016995D01*
X247986663Y-114145383D01*
X247858275Y-114301825D01*
X247762874Y-114480309D01*
X247704126Y-114673974D01*
X247684289Y-114875380D01*
X247659031Y-114875380D01*
X247639194Y-114673974D01*
X247580446Y-114480309D01*
X247485045Y-114301825D01*
X247356657Y-114145383D01*
X247200215Y-114016995D01*
X247021731Y-113921594D01*
X246828066Y-113862846D01*
X246677131Y-113847980D01*
X244706189Y-113847980D01*
X244555254Y-113862846D01*
X244361589Y-113921594D01*
X244183105Y-114016995D01*
X244026663Y-114145383D01*
X243930000Y-114263168D01*
X243930000Y-112927000D01*
X269286452Y-112927000D01*
X269362479Y-112934455D01*
G36*
X241874283Y-119607363D02*
G01*
X241884570Y-119619898D01*
X241906050Y-119637526D01*
X241934605Y-119660961D01*
X241983714Y-119687210D01*
X241991691Y-119691474D01*
X242053632Y-119710264D01*
X242101914Y-119715019D01*
X242101917Y-119715019D01*
X242118049Y-119716608D01*
X242134181Y-119715019D01*
X249246504Y-119715019D01*
X249194334Y-119767189D01*
X249138914Y-119850130D01*
X249100741Y-119942289D01*
X249081280Y-120040124D01*
X249081280Y-120131690D01*
X248953729Y-120259241D01*
X239652016Y-120259241D01*
X239719426Y-120191831D01*
X239774846Y-120108890D01*
X239813019Y-120016731D01*
X239832480Y-119918896D01*
X239832480Y-119827330D01*
X240433485Y-119226325D01*
X240446019Y-119216039D01*
X240467142Y-119190300D01*
X240487082Y-119166004D01*
X240517595Y-119108918D01*
X240521371Y-119096469D01*
X240536385Y-119046977D01*
X240541140Y-118998695D01*
X240541140Y-118998692D01*
X240542729Y-118982560D01*
X240541140Y-118966428D01*
X240541140Y-118274220D01*
X241874283Y-119607363D01*
G37*
X241874283Y-119607363D02*
X241884570Y-119619898D01*
X241906050Y-119637526D01*
X241934605Y-119660961D01*
X241983714Y-119687210D01*
X241991691Y-119691474D01*
X242053632Y-119710264D01*
X242101914Y-119715019D01*
X242101917Y-119715019D01*
X242118049Y-119716608D01*
X242134181Y-119715019D01*
X249246504Y-119715019D01*
X249194334Y-119767189D01*
X249138914Y-119850130D01*
X249100741Y-119942289D01*
X249081280Y-120040124D01*
X249081280Y-120131690D01*
X248953729Y-120259241D01*
X239652016Y-120259241D01*
X239719426Y-120191831D01*
X239774846Y-120108890D01*
X239813019Y-120016731D01*
X239832480Y-119918896D01*
X239832480Y-119827330D01*
X240433485Y-119226325D01*
X240446019Y-119216039D01*
X240467142Y-119190300D01*
X240487082Y-119166004D01*
X240517595Y-119108918D01*
X240521371Y-119096469D01*
X240536385Y-119046977D01*
X240541140Y-118998695D01*
X240541140Y-118998692D01*
X240542729Y-118982560D01*
X240541140Y-118966428D01*
X240541140Y-118274220D01*
X241874283Y-119607363D01*
G36*
X148862479Y-107434455D02*
G01*
X148922578Y-107452599D01*
X148978011Y-107482073D01*
X149026662Y-107521752D01*
X149066678Y-107570122D01*
X149096537Y-107625347D01*
X149115101Y-107685316D01*
X149123001Y-107760483D01*
X149123000Y-112063605D01*
X149124181Y-112075594D01*
X149124155Y-112079293D01*
X149124532Y-112083143D01*
X149136772Y-112199600D01*
X149141827Y-112224225D01*
X149146525Y-112248855D01*
X149147641Y-112252550D01*
X149147642Y-112252557D01*
X149147645Y-112252563D01*
X149182270Y-112364420D01*
X149191999Y-112387565D01*
X149201403Y-112410840D01*
X149203217Y-112414252D01*
X149203219Y-112414257D01*
X149203222Y-112414261D01*
X149258914Y-112517263D01*
X149272955Y-112538080D01*
X149286701Y-112559086D01*
X149289145Y-112562083D01*
X149363788Y-112652309D01*
X149381598Y-112669996D01*
X149399166Y-112687936D01*
X149402140Y-112690396D01*
X149402147Y-112690403D01*
X149402155Y-112690408D01*
X149492892Y-112764412D01*
X149513802Y-112778304D01*
X149534519Y-112792490D01*
X149537921Y-112794330D01*
X149641315Y-112849305D01*
X149664547Y-112858881D01*
X149687602Y-112868762D01*
X149691293Y-112869905D01*
X149691299Y-112869907D01*
X149803398Y-112903751D01*
X149828046Y-112908632D01*
X149852582Y-112913847D01*
X149856419Y-112914250D01*
X149856429Y-112914252D01*
X149856438Y-112914252D01*
X149972970Y-112925678D01*
X149972971Y-112925678D01*
X149986394Y-112927000D01*
X243400000Y-112927000D01*
X243400000Y-113699036D01*
X243338189Y-113656588D01*
X243087511Y-113548998D01*
X242820660Y-113492380D01*
X241885660Y-113492380D01*
X241885660Y-114250000D01*
X241577660Y-114250000D01*
X241577660Y-113492380D01*
X240642660Y-113492380D01*
X240375809Y-113548998D01*
X240125131Y-113656588D01*
X239900260Y-113811016D01*
X239709837Y-114006346D01*
X239561180Y-114235073D01*
X239555831Y-114250000D01*
X239522513Y-114250000D01*
X239436657Y-114145383D01*
X239280215Y-114016995D01*
X239101731Y-113921594D01*
X238908066Y-113862846D01*
X238757131Y-113847980D01*
X236786189Y-113847980D01*
X236635254Y-113862846D01*
X236441589Y-113921594D01*
X236263105Y-114016995D01*
X236106663Y-114145383D01*
X235978275Y-114301825D01*
X235882874Y-114480309D01*
X235824126Y-114673974D01*
X235804289Y-114875380D01*
X235824126Y-115076786D01*
X235882874Y-115270451D01*
X235978275Y-115448935D01*
X236106663Y-115605377D01*
X236263105Y-115733765D01*
X236441589Y-115829166D01*
X236635254Y-115887914D01*
X236786189Y-115902780D01*
X238757131Y-115902780D01*
X238908066Y-115887914D01*
X239101731Y-115829166D01*
X239280215Y-115733765D01*
X239350000Y-115676494D01*
X239350000Y-116461939D01*
X130775585Y-116461939D01*
X130759460Y-116460351D01*
X130743336Y-116461939D01*
X130743326Y-116461939D01*
X130695044Y-116466694D01*
X130633103Y-116485484D01*
X130606530Y-116499688D01*
X130576017Y-116515997D01*
X130538514Y-116546775D01*
X130525982Y-116557060D01*
X130515699Y-116569590D01*
X127413890Y-119671400D01*
X124239651Y-119671400D01*
X124223519Y-119669811D01*
X124207387Y-119671400D01*
X124207385Y-119671400D01*
X124159103Y-119676155D01*
X124097162Y-119694945D01*
X124068503Y-119710264D01*
X124040076Y-119725458D01*
X124002868Y-119755994D01*
X123990041Y-119766521D01*
X123979758Y-119779051D01*
X120633772Y-123125037D01*
X120463874Y-123054663D01*
X120260552Y-123014220D01*
X120053248Y-123014220D01*
X119849926Y-123054663D01*
X119658402Y-123133995D01*
X119486034Y-123249168D01*
X119339448Y-123395754D01*
X119224275Y-123568122D01*
X119144943Y-123759646D01*
X119104500Y-123962968D01*
X119104500Y-124170272D01*
X119144943Y-124373594D01*
X119224275Y-124565118D01*
X119339448Y-124737486D01*
X119486034Y-124884072D01*
X119658402Y-124999245D01*
X119849926Y-125078577D01*
X120053248Y-125119020D01*
X120260552Y-125119020D01*
X120463874Y-125078577D01*
X120655398Y-124999245D01*
X120827766Y-124884072D01*
X120974352Y-124737486D01*
X121089525Y-124565118D01*
X121168857Y-124373594D01*
X121209300Y-124170272D01*
X121209300Y-123962968D01*
X121168857Y-123759646D01*
X121098483Y-123589748D01*
X124359631Y-120328600D01*
X127533868Y-120328600D01*
X127550000Y-120330189D01*
X127566132Y-120328600D01*
X127566135Y-120328600D01*
X127614417Y-120323845D01*
X127676358Y-120305055D01*
X127733443Y-120274542D01*
X127783479Y-120233479D01*
X127793766Y-120220944D01*
X130895572Y-117119139D01*
X132150736Y-117119139D01*
X130992576Y-118277300D01*
X130980041Y-118287587D01*
X130969756Y-118300120D01*
X130938978Y-118337623D01*
X130924164Y-118365339D01*
X130908465Y-118394709D01*
X130889675Y-118456650D01*
X130885663Y-118497386D01*
X130883331Y-118521066D01*
X130884920Y-118537198D01*
X130884921Y-120331342D01*
X130820174Y-120396089D01*
X130764754Y-120479030D01*
X130726581Y-120571189D01*
X130707120Y-120669024D01*
X130707120Y-120768776D01*
X130726581Y-120866611D01*
X130729186Y-120872901D01*
X125578150Y-120872901D01*
X125562018Y-120871312D01*
X125545886Y-120872901D01*
X125545884Y-120872901D01*
X125497602Y-120877656D01*
X125435661Y-120896446D01*
X125404351Y-120913182D01*
X125378575Y-120926959D01*
X125341072Y-120957737D01*
X125328540Y-120968022D01*
X125318257Y-120980552D01*
X123173772Y-123125037D01*
X123003874Y-123054663D01*
X122800552Y-123014220D01*
X122593248Y-123014220D01*
X122389926Y-123054663D01*
X122198402Y-123133995D01*
X122026034Y-123249168D01*
X121879448Y-123395754D01*
X121764275Y-123568122D01*
X121684943Y-123759646D01*
X121644500Y-123962968D01*
X121644500Y-124170272D01*
X121684943Y-124373594D01*
X121764275Y-124565118D01*
X121879448Y-124737486D01*
X122026034Y-124884072D01*
X122198402Y-124999245D01*
X122389926Y-125078577D01*
X122593248Y-125119020D01*
X122800552Y-125119020D01*
X123003874Y-125078577D01*
X123195398Y-124999245D01*
X123367766Y-124884072D01*
X123514352Y-124737486D01*
X123629525Y-124565118D01*
X123708857Y-124373594D01*
X123749300Y-124170272D01*
X123749300Y-123962968D01*
X123708857Y-123759646D01*
X123638483Y-123589748D01*
X125698130Y-121530101D01*
X131532367Y-121530101D01*
X131548499Y-121531690D01*
X131564631Y-121530101D01*
X131564634Y-121530101D01*
X131612916Y-121525346D01*
X131674857Y-121506556D01*
X131731942Y-121476043D01*
X131781978Y-121434980D01*
X131792265Y-121422445D01*
X133057827Y-120156884D01*
X133043554Y-120203935D01*
X133039515Y-120244945D01*
X133037210Y-120268351D01*
X133038799Y-120284483D01*
X133038800Y-121034358D01*
X131363739Y-122709419D01*
X128821622Y-122709419D01*
X128805500Y-122707831D01*
X128789378Y-122709419D01*
X128789366Y-122709419D01*
X128741084Y-122714174D01*
X128679143Y-122732964D01*
X128652570Y-122747168D01*
X128622057Y-122763477D01*
X128584554Y-122794255D01*
X128572022Y-122804540D01*
X128561739Y-122817070D01*
X128253772Y-123125037D01*
X128083874Y-123054663D01*
X127880552Y-123014220D01*
X127673248Y-123014220D01*
X127469926Y-123054663D01*
X127278402Y-123133995D01*
X127106034Y-123249168D01*
X126959448Y-123395754D01*
X126844275Y-123568122D01*
X126764943Y-123759646D01*
X126724500Y-123962968D01*
X126724500Y-124170272D01*
X126764943Y-124373594D01*
X126844275Y-124565118D01*
X126959448Y-124737486D01*
X126988583Y-124766621D01*
X126401612Y-124766621D01*
X126178483Y-124543492D01*
X126248857Y-124373594D01*
X126289300Y-124170272D01*
X126289300Y-123962968D01*
X126248857Y-123759646D01*
X126169525Y-123568122D01*
X126054352Y-123395754D01*
X125907766Y-123249168D01*
X125735398Y-123133995D01*
X125543874Y-123054663D01*
X125340552Y-123014220D01*
X125133248Y-123014220D01*
X124929926Y-123054663D01*
X124738402Y-123133995D01*
X124566034Y-123249168D01*
X124419448Y-123395754D01*
X124304275Y-123568122D01*
X124224943Y-123759646D01*
X124184500Y-123962968D01*
X124184500Y-124170272D01*
X124224943Y-124373594D01*
X124304275Y-124565118D01*
X124419448Y-124737486D01*
X124566034Y-124884072D01*
X124738402Y-124999245D01*
X124929926Y-125078577D01*
X125133248Y-125119020D01*
X125340552Y-125119020D01*
X125543874Y-125078577D01*
X125713772Y-125008203D01*
X126021739Y-125316170D01*
X126032022Y-125328700D01*
X126044552Y-125338983D01*
X126044554Y-125338985D01*
X126082057Y-125369763D01*
X126112570Y-125386072D01*
X126139143Y-125400276D01*
X126201084Y-125419066D01*
X126249366Y-125423821D01*
X126249378Y-125423821D01*
X126265500Y-125425409D01*
X126281622Y-125423821D01*
X138200000Y-125423821D01*
X138200000Y-125623000D01*
X108263548Y-125623000D01*
X108187521Y-125615545D01*
X108127419Y-125597400D01*
X108071986Y-125567925D01*
X108023340Y-125528249D01*
X107983321Y-125479875D01*
X107953463Y-125424653D01*
X107934899Y-125364684D01*
X107927000Y-125289526D01*
X107927000Y-123266620D01*
X108943279Y-123266620D01*
X108943279Y-124866620D01*
X108948152Y-124916099D01*
X108962585Y-124963677D01*
X108986022Y-125007524D01*
X109017563Y-125045957D01*
X109055996Y-125077498D01*
X109099843Y-125100935D01*
X109147421Y-125115368D01*
X109196900Y-125120241D01*
X110585810Y-125120241D01*
X110781739Y-125316170D01*
X110792022Y-125328700D01*
X110804552Y-125338983D01*
X110804554Y-125338985D01*
X110842057Y-125369763D01*
X110872570Y-125386072D01*
X110899143Y-125400276D01*
X110961084Y-125419066D01*
X111009366Y-125423821D01*
X111009378Y-125423821D01*
X111025500Y-125425409D01*
X111041622Y-125423821D01*
X113014497Y-125423821D01*
X113030629Y-125425410D01*
X113046761Y-125423821D01*
X113046764Y-125423821D01*
X113095046Y-125419066D01*
X113156987Y-125400276D01*
X113214072Y-125369763D01*
X113264108Y-125328700D01*
X113274395Y-125316165D01*
X113786451Y-124804110D01*
X113798980Y-124793828D01*
X113821308Y-124766621D01*
X113840043Y-124743793D01*
X113870555Y-124686708D01*
X113870556Y-124686707D01*
X113889346Y-124624766D01*
X113894101Y-124576484D01*
X113894101Y-124576482D01*
X113895690Y-124560350D01*
X113894101Y-124544218D01*
X113894101Y-123962968D01*
X114024500Y-123962968D01*
X114024500Y-124170272D01*
X114064943Y-124373594D01*
X114144275Y-124565118D01*
X114259448Y-124737486D01*
X114406034Y-124884072D01*
X114578402Y-124999245D01*
X114769926Y-125078577D01*
X114973248Y-125119020D01*
X115180552Y-125119020D01*
X115383874Y-125078577D01*
X115575398Y-124999245D01*
X115747766Y-124884072D01*
X115894352Y-124737486D01*
X116009525Y-124565118D01*
X116088857Y-124373594D01*
X116129300Y-124170272D01*
X116129300Y-123962968D01*
X116564500Y-123962968D01*
X116564500Y-124170272D01*
X116604943Y-124373594D01*
X116684275Y-124565118D01*
X116799448Y-124737486D01*
X116946034Y-124884072D01*
X117118402Y-124999245D01*
X117309926Y-125078577D01*
X117513248Y-125119020D01*
X117720552Y-125119020D01*
X117923874Y-125078577D01*
X118115398Y-124999245D01*
X118287766Y-124884072D01*
X118434352Y-124737486D01*
X118549525Y-124565118D01*
X118628857Y-124373594D01*
X118669300Y-124170272D01*
X118669300Y-123962968D01*
X118628857Y-123759646D01*
X118549525Y-123568122D01*
X118434352Y-123395754D01*
X118287766Y-123249168D01*
X118115398Y-123133995D01*
X117923874Y-123054663D01*
X117720552Y-123014220D01*
X117513248Y-123014220D01*
X117309926Y-123054663D01*
X117118402Y-123133995D01*
X116946034Y-123249168D01*
X116799448Y-123395754D01*
X116684275Y-123568122D01*
X116604943Y-123759646D01*
X116564500Y-123962968D01*
X116129300Y-123962968D01*
X116088857Y-123759646D01*
X116009525Y-123568122D01*
X115894352Y-123395754D01*
X115747766Y-123249168D01*
X115575398Y-123133995D01*
X115383874Y-123054663D01*
X115180552Y-123014220D01*
X114973248Y-123014220D01*
X114769926Y-123054663D01*
X114578402Y-123133995D01*
X114406034Y-123249168D01*
X114259448Y-123395754D01*
X114144275Y-123568122D01*
X114064943Y-123759646D01*
X114024500Y-123962968D01*
X113894101Y-123962968D01*
X113894101Y-123589023D01*
X113895690Y-123572891D01*
X113892865Y-123544209D01*
X113889346Y-123508474D01*
X113870556Y-123446533D01*
X113865508Y-123437089D01*
X113840043Y-123389447D01*
X113809265Y-123351944D01*
X113809263Y-123351942D01*
X113798980Y-123339412D01*
X113786450Y-123329129D01*
X113278600Y-122821280D01*
X113278600Y-119847400D01*
X115049440Y-119847400D01*
X115049440Y-120447400D01*
X115051759Y-120471048D01*
X115053911Y-120494695D01*
X115054160Y-120495543D01*
X115054247Y-120496425D01*
X115061112Y-120519162D01*
X115067819Y-120541951D01*
X115068230Y-120542737D01*
X115068485Y-120543582D01*
X115079622Y-120564527D01*
X115090641Y-120585605D01*
X115091196Y-120586295D01*
X115091611Y-120587076D01*
X115106638Y-120605502D01*
X115121507Y-120623995D01*
X115122183Y-120624562D01*
X115122744Y-120625250D01*
X115141030Y-120640377D01*
X115159242Y-120655659D01*
X115160021Y-120656087D01*
X115160700Y-120656649D01*
X115181524Y-120667909D01*
X115202409Y-120679390D01*
X115203255Y-120679658D01*
X115204031Y-120680078D01*
X115226730Y-120687105D01*
X115249363Y-120694284D01*
X115250239Y-120694382D01*
X115251088Y-120694645D01*
X115274795Y-120697137D01*
X115298316Y-120699775D01*
X115300012Y-120699787D01*
X115300078Y-120699794D01*
X115300144Y-120699788D01*
X115301840Y-120699800D01*
X117756247Y-120699800D01*
X117862969Y-120678572D01*
X117963500Y-120636931D01*
X118053975Y-120576477D01*
X118130917Y-120499535D01*
X118191371Y-120409060D01*
X118233012Y-120308529D01*
X118254240Y-120201807D01*
X118254240Y-120092993D01*
X118233012Y-119986271D01*
X118191371Y-119885740D01*
X118130917Y-119795265D01*
X118053975Y-119718323D01*
X117963500Y-119657869D01*
X117862969Y-119616228D01*
X117756247Y-119595000D01*
X115301840Y-119595000D01*
X115278192Y-119597319D01*
X115254545Y-119599471D01*
X115253697Y-119599720D01*
X115252815Y-119599807D01*
X115230078Y-119606672D01*
X115207289Y-119613379D01*
X115206503Y-119613790D01*
X115205658Y-119614045D01*
X115184713Y-119625182D01*
X115163635Y-119636201D01*
X115162945Y-119636756D01*
X115162164Y-119637171D01*
X115143738Y-119652198D01*
X115125245Y-119667067D01*
X115124678Y-119667743D01*
X115123990Y-119668304D01*
X115108863Y-119686590D01*
X115093581Y-119704802D01*
X115093153Y-119705581D01*
X115092591Y-119706260D01*
X115081331Y-119727084D01*
X115069850Y-119747969D01*
X115069582Y-119748815D01*
X115069162Y-119749591D01*
X115062135Y-119772290D01*
X115054956Y-119794923D01*
X115054858Y-119795799D01*
X115054595Y-119796648D01*
X115052103Y-119820355D01*
X115049465Y-119843876D01*
X115049453Y-119845572D01*
X115049446Y-119845638D01*
X115049452Y-119845704D01*
X115049440Y-119847400D01*
X113278600Y-119847400D01*
X113278600Y-117686110D01*
X114886111Y-116078600D01*
X124469618Y-116078600D01*
X124485750Y-116080189D01*
X124501882Y-116078600D01*
X124501885Y-116078600D01*
X124550167Y-116073845D01*
X124612108Y-116055055D01*
X124669193Y-116024542D01*
X124719229Y-115983479D01*
X124729516Y-115970944D01*
X128089330Y-112611131D01*
X128101234Y-112639870D01*
X128156654Y-112722811D01*
X128227189Y-112793346D01*
X128310130Y-112848766D01*
X128402289Y-112886939D01*
X128500124Y-112906400D01*
X128599876Y-112906400D01*
X128697711Y-112886939D01*
X128789870Y-112848766D01*
X128872811Y-112793346D01*
X128943346Y-112722811D01*
X128998766Y-112639870D01*
X129036939Y-112547711D01*
X129056400Y-112449876D01*
X129056400Y-112358310D01*
X129693070Y-111721641D01*
X130467062Y-111721641D01*
X129543397Y-112645307D01*
X129451831Y-112645307D01*
X129353996Y-112664768D01*
X129261837Y-112702941D01*
X129178896Y-112758361D01*
X129108361Y-112828896D01*
X129052941Y-112911837D01*
X129014768Y-113003996D01*
X128995307Y-113101831D01*
X128995307Y-113201583D01*
X129014768Y-113299418D01*
X129052941Y-113391577D01*
X129108361Y-113474518D01*
X129178896Y-113545053D01*
X129261837Y-113600473D01*
X129353996Y-113638646D01*
X129451831Y-113658107D01*
X129551583Y-113658107D01*
X129649418Y-113638646D01*
X129741577Y-113600473D01*
X129824518Y-113545053D01*
X129895053Y-113474518D01*
X129950473Y-113391577D01*
X129988646Y-113299418D01*
X130008107Y-113201583D01*
X130008107Y-113110017D01*
X131091674Y-112026451D01*
X139786008Y-112026449D01*
X139802150Y-112028039D01*
X139860585Y-112022283D01*
X139866567Y-112021694D01*
X139885356Y-112015994D01*
X139928507Y-112002905D01*
X139985593Y-111972392D01*
X140023096Y-111941614D01*
X140023099Y-111941611D01*
X140035629Y-111931328D01*
X140045912Y-111918798D01*
X141171811Y-110792899D01*
X141245259Y-110792899D01*
X141245259Y-112074047D01*
X140433481Y-112885826D01*
X130779246Y-112885826D01*
X130759374Y-112883869D01*
X130739502Y-112885826D01*
X130739495Y-112885826D01*
X130680019Y-112891684D01*
X130603714Y-112914831D01*
X130533391Y-112952419D01*
X130503989Y-112976549D01*
X130487193Y-112990333D01*
X130487190Y-112990336D01*
X130471753Y-113003005D01*
X130459084Y-113018442D01*
X126251047Y-117226480D01*
X120336127Y-117226480D01*
X120282721Y-117146553D01*
X120176807Y-117040639D01*
X120052264Y-116957422D01*
X119913880Y-116900102D01*
X119766973Y-116870880D01*
X119617187Y-116870880D01*
X119470280Y-116900102D01*
X119331896Y-116957422D01*
X119207353Y-117040639D01*
X119101439Y-117146553D01*
X119018222Y-117271096D01*
X118960902Y-117409480D01*
X118931680Y-117556387D01*
X118931680Y-117706173D01*
X118960902Y-117853080D01*
X119018222Y-117991464D01*
X119101439Y-118116007D01*
X119207353Y-118221921D01*
X119331896Y-118305138D01*
X119470280Y-118362458D01*
X119617187Y-118391680D01*
X119766973Y-118391680D01*
X119913880Y-118362458D01*
X120052264Y-118305138D01*
X120176807Y-118221921D01*
X120282721Y-118116007D01*
X120336127Y-118036080D01*
X126398848Y-118036080D01*
X126418720Y-118038037D01*
X126438592Y-118036080D01*
X126438599Y-118036080D01*
X126498075Y-118030222D01*
X126574380Y-118007075D01*
X126644703Y-117969487D01*
X126706341Y-117918901D01*
X126719015Y-117903458D01*
X129379986Y-115242487D01*
X140463273Y-115242487D01*
X140561180Y-115515687D01*
X140709837Y-115744414D01*
X140900260Y-115939744D01*
X141125131Y-116094172D01*
X141375809Y-116201762D01*
X141642660Y-116258380D01*
X142577660Y-116258380D01*
X142577660Y-115029380D01*
X140575331Y-115029380D01*
X140463273Y-115242487D01*
X129379986Y-115242487D01*
X130114200Y-114508273D01*
X140463273Y-114508273D01*
X140575331Y-114721380D01*
X142577660Y-114721380D01*
X142577660Y-113492380D01*
X142885660Y-113492380D01*
X142885660Y-114721380D01*
X142905660Y-114721380D01*
X142905660Y-115029380D01*
X142885660Y-115029380D01*
X142885660Y-116258380D01*
X143820660Y-116258380D01*
X144087511Y-116201762D01*
X144338189Y-116094172D01*
X144563060Y-115939744D01*
X144753483Y-115744414D01*
X144902140Y-115515687D01*
X144917616Y-115472502D01*
X145026663Y-115605377D01*
X145183105Y-115733765D01*
X145361589Y-115829166D01*
X145555254Y-115887914D01*
X145706189Y-115902780D01*
X147677131Y-115902780D01*
X147828066Y-115887914D01*
X148021731Y-115829166D01*
X148200215Y-115733765D01*
X148356657Y-115605377D01*
X148485045Y-115448935D01*
X148580446Y-115270451D01*
X148639194Y-115076786D01*
X148659031Y-114875380D01*
X148684289Y-114875380D01*
X148704126Y-115076786D01*
X148762874Y-115270451D01*
X148858275Y-115448935D01*
X148986663Y-115605377D01*
X149143105Y-115733765D01*
X149321589Y-115829166D01*
X149515254Y-115887914D01*
X149666189Y-115902780D01*
X151637131Y-115902780D01*
X151788066Y-115887914D01*
X151981731Y-115829166D01*
X152160215Y-115733765D01*
X152316657Y-115605377D01*
X152445045Y-115448935D01*
X152540446Y-115270451D01*
X152599194Y-115076786D01*
X152619031Y-114875380D01*
X152644289Y-114875380D01*
X152664126Y-115076786D01*
X152722874Y-115270451D01*
X152818275Y-115448935D01*
X152946663Y-115605377D01*
X153103105Y-115733765D01*
X153281589Y-115829166D01*
X153475254Y-115887914D01*
X153626189Y-115902780D01*
X155597131Y-115902780D01*
X155748066Y-115887914D01*
X155941731Y-115829166D01*
X156120215Y-115733765D01*
X156276657Y-115605377D01*
X156405045Y-115448935D01*
X156500446Y-115270451D01*
X156559194Y-115076786D01*
X156579031Y-114875380D01*
X156604289Y-114875380D01*
X156624126Y-115076786D01*
X156682874Y-115270451D01*
X156778275Y-115448935D01*
X156906663Y-115605377D01*
X157063105Y-115733765D01*
X157241589Y-115829166D01*
X157435254Y-115887914D01*
X157586189Y-115902780D01*
X159557131Y-115902780D01*
X159708066Y-115887914D01*
X159901731Y-115829166D01*
X160080215Y-115733765D01*
X160236657Y-115605377D01*
X160365045Y-115448935D01*
X160460446Y-115270451D01*
X160519194Y-115076786D01*
X160539031Y-114875380D01*
X160564289Y-114875380D01*
X160584126Y-115076786D01*
X160642874Y-115270451D01*
X160738275Y-115448935D01*
X160866663Y-115605377D01*
X161023105Y-115733765D01*
X161201589Y-115829166D01*
X161395254Y-115887914D01*
X161546189Y-115902780D01*
X163517131Y-115902780D01*
X163668066Y-115887914D01*
X163861731Y-115829166D01*
X164040215Y-115733765D01*
X164196657Y-115605377D01*
X164325045Y-115448935D01*
X164420446Y-115270451D01*
X164479194Y-115076786D01*
X164499031Y-114875380D01*
X164524289Y-114875380D01*
X164544126Y-115076786D01*
X164602874Y-115270451D01*
X164698275Y-115448935D01*
X164826663Y-115605377D01*
X164983105Y-115733765D01*
X165161589Y-115829166D01*
X165355254Y-115887914D01*
X165506189Y-115902780D01*
X167477131Y-115902780D01*
X167628066Y-115887914D01*
X167821731Y-115829166D01*
X168000215Y-115733765D01*
X168156657Y-115605377D01*
X168285045Y-115448935D01*
X168380446Y-115270451D01*
X168439194Y-115076786D01*
X168459031Y-114875380D01*
X168484289Y-114875380D01*
X168504126Y-115076786D01*
X168562874Y-115270451D01*
X168658275Y-115448935D01*
X168786663Y-115605377D01*
X168943105Y-115733765D01*
X169121589Y-115829166D01*
X169315254Y-115887914D01*
X169466189Y-115902780D01*
X171437131Y-115902780D01*
X171588066Y-115887914D01*
X171781731Y-115829166D01*
X171960215Y-115733765D01*
X172116657Y-115605377D01*
X172245045Y-115448935D01*
X172340446Y-115270451D01*
X172399194Y-115076786D01*
X172419031Y-114875380D01*
X172444289Y-114875380D01*
X172464126Y-115076786D01*
X172522874Y-115270451D01*
X172618275Y-115448935D01*
X172746663Y-115605377D01*
X172903105Y-115733765D01*
X173081589Y-115829166D01*
X173275254Y-115887914D01*
X173426189Y-115902780D01*
X175397131Y-115902780D01*
X175548066Y-115887914D01*
X175741731Y-115829166D01*
X175920215Y-115733765D01*
X176076657Y-115605377D01*
X176205045Y-115448935D01*
X176300446Y-115270451D01*
X176359194Y-115076786D01*
X176379031Y-114875380D01*
X176404289Y-114875380D01*
X176424126Y-115076786D01*
X176482874Y-115270451D01*
X176578275Y-115448935D01*
X176706663Y-115605377D01*
X176863105Y-115733765D01*
X177041589Y-115829166D01*
X177235254Y-115887914D01*
X177386189Y-115902780D01*
X179357131Y-115902780D01*
X179508066Y-115887914D01*
X179701731Y-115829166D01*
X179880215Y-115733765D01*
X180036657Y-115605377D01*
X180165045Y-115448935D01*
X180260446Y-115270451D01*
X180319194Y-115076786D01*
X180339031Y-114875380D01*
X180364289Y-114875380D01*
X180384126Y-115076786D01*
X180442874Y-115270451D01*
X180538275Y-115448935D01*
X180666663Y-115605377D01*
X180823105Y-115733765D01*
X181001589Y-115829166D01*
X181195254Y-115887914D01*
X181346189Y-115902780D01*
X183317131Y-115902780D01*
X183468066Y-115887914D01*
X183661731Y-115829166D01*
X183840215Y-115733765D01*
X183996657Y-115605377D01*
X184125045Y-115448935D01*
X184220446Y-115270451D01*
X184279194Y-115076786D01*
X184299031Y-114875380D01*
X184324289Y-114875380D01*
X184344126Y-115076786D01*
X184402874Y-115270451D01*
X184498275Y-115448935D01*
X184626663Y-115605377D01*
X184783105Y-115733765D01*
X184961589Y-115829166D01*
X185155254Y-115887914D01*
X185306189Y-115902780D01*
X187277131Y-115902780D01*
X187428066Y-115887914D01*
X187621731Y-115829166D01*
X187800215Y-115733765D01*
X187956657Y-115605377D01*
X188085045Y-115448935D01*
X188180446Y-115270451D01*
X188239194Y-115076786D01*
X188259031Y-114875380D01*
X188284289Y-114875380D01*
X188304126Y-115076786D01*
X188362874Y-115270451D01*
X188458275Y-115448935D01*
X188586663Y-115605377D01*
X188743105Y-115733765D01*
X188921589Y-115829166D01*
X189115254Y-115887914D01*
X189266189Y-115902780D01*
X191237131Y-115902780D01*
X191388066Y-115887914D01*
X191581731Y-115829166D01*
X191760215Y-115733765D01*
X191916657Y-115605377D01*
X192045045Y-115448935D01*
X192140446Y-115270451D01*
X192199194Y-115076786D01*
X192219031Y-114875380D01*
X192244289Y-114875380D01*
X192264126Y-115076786D01*
X192322874Y-115270451D01*
X192418275Y-115448935D01*
X192546663Y-115605377D01*
X192703105Y-115733765D01*
X192881589Y-115829166D01*
X193075254Y-115887914D01*
X193226189Y-115902780D01*
X195197131Y-115902780D01*
X195348066Y-115887914D01*
X195541731Y-115829166D01*
X195720215Y-115733765D01*
X195876657Y-115605377D01*
X196005045Y-115448935D01*
X196100446Y-115270451D01*
X196159194Y-115076786D01*
X196179031Y-114875380D01*
X196204289Y-114875380D01*
X196224126Y-115076786D01*
X196282874Y-115270451D01*
X196378275Y-115448935D01*
X196506663Y-115605377D01*
X196663105Y-115733765D01*
X196841589Y-115829166D01*
X197035254Y-115887914D01*
X197186189Y-115902780D01*
X199157131Y-115902780D01*
X199308066Y-115887914D01*
X199501731Y-115829166D01*
X199680215Y-115733765D01*
X199836657Y-115605377D01*
X199965045Y-115448935D01*
X200060446Y-115270451D01*
X200119194Y-115076786D01*
X200139031Y-114875380D01*
X200164289Y-114875380D01*
X200184126Y-115076786D01*
X200242874Y-115270451D01*
X200338275Y-115448935D01*
X200466663Y-115605377D01*
X200623105Y-115733765D01*
X200801589Y-115829166D01*
X200995254Y-115887914D01*
X201146189Y-115902780D01*
X203117131Y-115902780D01*
X203268066Y-115887914D01*
X203461731Y-115829166D01*
X203640215Y-115733765D01*
X203796657Y-115605377D01*
X203925045Y-115448935D01*
X204020446Y-115270451D01*
X204079194Y-115076786D01*
X204099031Y-114875380D01*
X204124289Y-114875380D01*
X204144126Y-115076786D01*
X204202874Y-115270451D01*
X204298275Y-115448935D01*
X204426663Y-115605377D01*
X204583105Y-115733765D01*
X204761589Y-115829166D01*
X204955254Y-115887914D01*
X205106189Y-115902780D01*
X207077131Y-115902780D01*
X207228066Y-115887914D01*
X207421731Y-115829166D01*
X207600215Y-115733765D01*
X207756657Y-115605377D01*
X207885045Y-115448935D01*
X207980446Y-115270451D01*
X208039194Y-115076786D01*
X208059031Y-114875380D01*
X208084289Y-114875380D01*
X208104126Y-115076786D01*
X208162874Y-115270451D01*
X208258275Y-115448935D01*
X208386663Y-115605377D01*
X208543105Y-115733765D01*
X208721589Y-115829166D01*
X208915254Y-115887914D01*
X209066189Y-115902780D01*
X211037131Y-115902780D01*
X211188066Y-115887914D01*
X211381731Y-115829166D01*
X211560215Y-115733765D01*
X211716657Y-115605377D01*
X211845045Y-115448935D01*
X211940446Y-115270451D01*
X211999194Y-115076786D01*
X212019031Y-114875380D01*
X212044289Y-114875380D01*
X212064126Y-115076786D01*
X212122874Y-115270451D01*
X212218275Y-115448935D01*
X212346663Y-115605377D01*
X212503105Y-115733765D01*
X212681589Y-115829166D01*
X212875254Y-115887914D01*
X213026189Y-115902780D01*
X214997131Y-115902780D01*
X215148066Y-115887914D01*
X215341731Y-115829166D01*
X215520215Y-115733765D01*
X215676657Y-115605377D01*
X215805045Y-115448935D01*
X215900446Y-115270451D01*
X215959194Y-115076786D01*
X215979031Y-114875380D01*
X216004289Y-114875380D01*
X216024126Y-115076786D01*
X216082874Y-115270451D01*
X216178275Y-115448935D01*
X216306663Y-115605377D01*
X216463105Y-115733765D01*
X216641589Y-115829166D01*
X216835254Y-115887914D01*
X216986189Y-115902780D01*
X218957131Y-115902780D01*
X219108066Y-115887914D01*
X219301731Y-115829166D01*
X219480215Y-115733765D01*
X219636657Y-115605377D01*
X219765045Y-115448935D01*
X219860446Y-115270451D01*
X219919194Y-115076786D01*
X219939031Y-114875380D01*
X219964289Y-114875380D01*
X219984126Y-115076786D01*
X220042874Y-115270451D01*
X220138275Y-115448935D01*
X220266663Y-115605377D01*
X220423105Y-115733765D01*
X220601589Y-115829166D01*
X220795254Y-115887914D01*
X220946189Y-115902780D01*
X222917131Y-115902780D01*
X223068066Y-115887914D01*
X223261731Y-115829166D01*
X223440215Y-115733765D01*
X223596657Y-115605377D01*
X223725045Y-115448935D01*
X223820446Y-115270451D01*
X223879194Y-115076786D01*
X223899031Y-114875380D01*
X223924289Y-114875380D01*
X223944126Y-115076786D01*
X224002874Y-115270451D01*
X224098275Y-115448935D01*
X224226663Y-115605377D01*
X224383105Y-115733765D01*
X224561589Y-115829166D01*
X224755254Y-115887914D01*
X224906189Y-115902780D01*
X226877131Y-115902780D01*
X227028066Y-115887914D01*
X227221731Y-115829166D01*
X227400215Y-115733765D01*
X227556657Y-115605377D01*
X227685045Y-115448935D01*
X227780446Y-115270451D01*
X227839194Y-115076786D01*
X227859031Y-114875380D01*
X227884289Y-114875380D01*
X227904126Y-115076786D01*
X227962874Y-115270451D01*
X228058275Y-115448935D01*
X228186663Y-115605377D01*
X228343105Y-115733765D01*
X228521589Y-115829166D01*
X228715254Y-115887914D01*
X228866189Y-115902780D01*
X230837131Y-115902780D01*
X230988066Y-115887914D01*
X231181731Y-115829166D01*
X231360215Y-115733765D01*
X231516657Y-115605377D01*
X231645045Y-115448935D01*
X231740446Y-115270451D01*
X231799194Y-115076786D01*
X231819031Y-114875380D01*
X231844289Y-114875380D01*
X231864126Y-115076786D01*
X231922874Y-115270451D01*
X232018275Y-115448935D01*
X232146663Y-115605377D01*
X232303105Y-115733765D01*
X232481589Y-115829166D01*
X232675254Y-115887914D01*
X232826189Y-115902780D01*
X234797131Y-115902780D01*
X234948066Y-115887914D01*
X235141731Y-115829166D01*
X235320215Y-115733765D01*
X235476657Y-115605377D01*
X235605045Y-115448935D01*
X235700446Y-115270451D01*
X235759194Y-115076786D01*
X235779031Y-114875380D01*
X235759194Y-114673974D01*
X235700446Y-114480309D01*
X235605045Y-114301825D01*
X235476657Y-114145383D01*
X235320215Y-114016995D01*
X235141731Y-113921594D01*
X234948066Y-113862846D01*
X234797131Y-113847980D01*
X232826189Y-113847980D01*
X232675254Y-113862846D01*
X232481589Y-113921594D01*
X232303105Y-114016995D01*
X232146663Y-114145383D01*
X232018275Y-114301825D01*
X231922874Y-114480309D01*
X231864126Y-114673974D01*
X231844289Y-114875380D01*
X231819031Y-114875380D01*
X231799194Y-114673974D01*
X231740446Y-114480309D01*
X231645045Y-114301825D01*
X231516657Y-114145383D01*
X231360215Y-114016995D01*
X231181731Y-113921594D01*
X230988066Y-113862846D01*
X230837131Y-113847980D01*
X228866189Y-113847980D01*
X228715254Y-113862846D01*
X228521589Y-113921594D01*
X228343105Y-114016995D01*
X228186663Y-114145383D01*
X228058275Y-114301825D01*
X227962874Y-114480309D01*
X227904126Y-114673974D01*
X227884289Y-114875380D01*
X227859031Y-114875380D01*
X227839194Y-114673974D01*
X227780446Y-114480309D01*
X227685045Y-114301825D01*
X227556657Y-114145383D01*
X227400215Y-114016995D01*
X227221731Y-113921594D01*
X227028066Y-113862846D01*
X226877131Y-113847980D01*
X224906189Y-113847980D01*
X224755254Y-113862846D01*
X224561589Y-113921594D01*
X224383105Y-114016995D01*
X224226663Y-114145383D01*
X224098275Y-114301825D01*
X224002874Y-114480309D01*
X223944126Y-114673974D01*
X223924289Y-114875380D01*
X223899031Y-114875380D01*
X223879194Y-114673974D01*
X223820446Y-114480309D01*
X223725045Y-114301825D01*
X223596657Y-114145383D01*
X223440215Y-114016995D01*
X223261731Y-113921594D01*
X223068066Y-113862846D01*
X222917131Y-113847980D01*
X220946189Y-113847980D01*
X220795254Y-113862846D01*
X220601589Y-113921594D01*
X220423105Y-114016995D01*
X220266663Y-114145383D01*
X220138275Y-114301825D01*
X220042874Y-114480309D01*
X219984126Y-114673974D01*
X219964289Y-114875380D01*
X219939031Y-114875380D01*
X219919194Y-114673974D01*
X219860446Y-114480309D01*
X219765045Y-114301825D01*
X219636657Y-114145383D01*
X219480215Y-114016995D01*
X219301731Y-113921594D01*
X219108066Y-113862846D01*
X218957131Y-113847980D01*
X216986189Y-113847980D01*
X216835254Y-113862846D01*
X216641589Y-113921594D01*
X216463105Y-114016995D01*
X216306663Y-114145383D01*
X216178275Y-114301825D01*
X216082874Y-114480309D01*
X216024126Y-114673974D01*
X216004289Y-114875380D01*
X215979031Y-114875380D01*
X215959194Y-114673974D01*
X215900446Y-114480309D01*
X215805045Y-114301825D01*
X215676657Y-114145383D01*
X215520215Y-114016995D01*
X215341731Y-113921594D01*
X215148066Y-113862846D01*
X214997131Y-113847980D01*
X213026189Y-113847980D01*
X212875254Y-113862846D01*
X212681589Y-113921594D01*
X212503105Y-114016995D01*
X212346663Y-114145383D01*
X212218275Y-114301825D01*
X212122874Y-114480309D01*
X212064126Y-114673974D01*
X212044289Y-114875380D01*
X212019031Y-114875380D01*
X211999194Y-114673974D01*
X211940446Y-114480309D01*
X211845045Y-114301825D01*
X211716657Y-114145383D01*
X211560215Y-114016995D01*
X211381731Y-113921594D01*
X211188066Y-113862846D01*
X211037131Y-113847980D01*
X209066189Y-113847980D01*
X208915254Y-113862846D01*
X208721589Y-113921594D01*
X208543105Y-114016995D01*
X208386663Y-114145383D01*
X208258275Y-114301825D01*
X208162874Y-114480309D01*
X208104126Y-114673974D01*
X208084289Y-114875380D01*
X208059031Y-114875380D01*
X208039194Y-114673974D01*
X207980446Y-114480309D01*
X207885045Y-114301825D01*
X207756657Y-114145383D01*
X207600215Y-114016995D01*
X207421731Y-113921594D01*
X207228066Y-113862846D01*
X207077131Y-113847980D01*
X205106189Y-113847980D01*
X204955254Y-113862846D01*
X204761589Y-113921594D01*
X204583105Y-114016995D01*
X204426663Y-114145383D01*
X204298275Y-114301825D01*
X204202874Y-114480309D01*
X204144126Y-114673974D01*
X204124289Y-114875380D01*
X204099031Y-114875380D01*
X204079194Y-114673974D01*
X204020446Y-114480309D01*
X203925045Y-114301825D01*
X203796657Y-114145383D01*
X203640215Y-114016995D01*
X203461731Y-113921594D01*
X203268066Y-113862846D01*
X203117131Y-113847980D01*
X201146189Y-113847980D01*
X200995254Y-113862846D01*
X200801589Y-113921594D01*
X200623105Y-114016995D01*
X200466663Y-114145383D01*
X200338275Y-114301825D01*
X200242874Y-114480309D01*
X200184126Y-114673974D01*
X200164289Y-114875380D01*
X200139031Y-114875380D01*
X200119194Y-114673974D01*
X200060446Y-114480309D01*
X199965045Y-114301825D01*
X199836657Y-114145383D01*
X199680215Y-114016995D01*
X199501731Y-113921594D01*
X199308066Y-113862846D01*
X199157131Y-113847980D01*
X197186189Y-113847980D01*
X197035254Y-113862846D01*
X196841589Y-113921594D01*
X196663105Y-114016995D01*
X196506663Y-114145383D01*
X196378275Y-114301825D01*
X196282874Y-114480309D01*
X196224126Y-114673974D01*
X196204289Y-114875380D01*
X196179031Y-114875380D01*
X196159194Y-114673974D01*
X196100446Y-114480309D01*
X196005045Y-114301825D01*
X195876657Y-114145383D01*
X195720215Y-114016995D01*
X195541731Y-113921594D01*
X195348066Y-113862846D01*
X195197131Y-113847980D01*
X193226189Y-113847980D01*
X193075254Y-113862846D01*
X192881589Y-113921594D01*
X192703105Y-114016995D01*
X192546663Y-114145383D01*
X192418275Y-114301825D01*
X192322874Y-114480309D01*
X192264126Y-114673974D01*
X192244289Y-114875380D01*
X192219031Y-114875380D01*
X192199194Y-114673974D01*
X192140446Y-114480309D01*
X192045045Y-114301825D01*
X191916657Y-114145383D01*
X191760215Y-114016995D01*
X191581731Y-113921594D01*
X191388066Y-113862846D01*
X191237131Y-113847980D01*
X189266189Y-113847980D01*
X189115254Y-113862846D01*
X188921589Y-113921594D01*
X188743105Y-114016995D01*
X188586663Y-114145383D01*
X188458275Y-114301825D01*
X188362874Y-114480309D01*
X188304126Y-114673974D01*
X188284289Y-114875380D01*
X188259031Y-114875380D01*
X188239194Y-114673974D01*
X188180446Y-114480309D01*
X188085045Y-114301825D01*
X187956657Y-114145383D01*
X187800215Y-114016995D01*
X187621731Y-113921594D01*
X187428066Y-113862846D01*
X187277131Y-113847980D01*
X185306189Y-113847980D01*
X185155254Y-113862846D01*
X184961589Y-113921594D01*
X184783105Y-114016995D01*
X184626663Y-114145383D01*
X184498275Y-114301825D01*
X184402874Y-114480309D01*
X184344126Y-114673974D01*
X184324289Y-114875380D01*
X184299031Y-114875380D01*
X184279194Y-114673974D01*
X184220446Y-114480309D01*
X184125045Y-114301825D01*
X183996657Y-114145383D01*
X183840215Y-114016995D01*
X183661731Y-113921594D01*
X183468066Y-113862846D01*
X183317131Y-113847980D01*
X181346189Y-113847980D01*
X181195254Y-113862846D01*
X181001589Y-113921594D01*
X180823105Y-114016995D01*
X180666663Y-114145383D01*
X180538275Y-114301825D01*
X180442874Y-114480309D01*
X180384126Y-114673974D01*
X180364289Y-114875380D01*
X180339031Y-114875380D01*
X180319194Y-114673974D01*
X180260446Y-114480309D01*
X180165045Y-114301825D01*
X180036657Y-114145383D01*
X179880215Y-114016995D01*
X179701731Y-113921594D01*
X179508066Y-113862846D01*
X179357131Y-113847980D01*
X177386189Y-113847980D01*
X177235254Y-113862846D01*
X177041589Y-113921594D01*
X176863105Y-114016995D01*
X176706663Y-114145383D01*
X176578275Y-114301825D01*
X176482874Y-114480309D01*
X176424126Y-114673974D01*
X176404289Y-114875380D01*
X176379031Y-114875380D01*
X176359194Y-114673974D01*
X176300446Y-114480309D01*
X176205045Y-114301825D01*
X176076657Y-114145383D01*
X175920215Y-114016995D01*
X175741731Y-113921594D01*
X175548066Y-113862846D01*
X175397131Y-113847980D01*
X173426189Y-113847980D01*
X173275254Y-113862846D01*
X173081589Y-113921594D01*
X172903105Y-114016995D01*
X172746663Y-114145383D01*
X172618275Y-114301825D01*
X172522874Y-114480309D01*
X172464126Y-114673974D01*
X172444289Y-114875380D01*
X172419031Y-114875380D01*
X172399194Y-114673974D01*
X172340446Y-114480309D01*
X172245045Y-114301825D01*
X172116657Y-114145383D01*
X171960215Y-114016995D01*
X171781731Y-113921594D01*
X171588066Y-113862846D01*
X171437131Y-113847980D01*
X169466189Y-113847980D01*
X169315254Y-113862846D01*
X169121589Y-113921594D01*
X168943105Y-114016995D01*
X168786663Y-114145383D01*
X168658275Y-114301825D01*
X168562874Y-114480309D01*
X168504126Y-114673974D01*
X168484289Y-114875380D01*
X168459031Y-114875380D01*
X168439194Y-114673974D01*
X168380446Y-114480309D01*
X168285045Y-114301825D01*
X168156657Y-114145383D01*
X168000215Y-114016995D01*
X167821731Y-113921594D01*
X167628066Y-113862846D01*
X167477131Y-113847980D01*
X165506189Y-113847980D01*
X165355254Y-113862846D01*
X165161589Y-113921594D01*
X164983105Y-114016995D01*
X164826663Y-114145383D01*
X164698275Y-114301825D01*
X164602874Y-114480309D01*
X164544126Y-114673974D01*
X164524289Y-114875380D01*
X164499031Y-114875380D01*
X164479194Y-114673974D01*
X164420446Y-114480309D01*
X164325045Y-114301825D01*
X164196657Y-114145383D01*
X164040215Y-114016995D01*
X163861731Y-113921594D01*
X163668066Y-113862846D01*
X163517131Y-113847980D01*
X161546189Y-113847980D01*
X161395254Y-113862846D01*
X161201589Y-113921594D01*
X161023105Y-114016995D01*
X160866663Y-114145383D01*
X160738275Y-114301825D01*
X160642874Y-114480309D01*
X160584126Y-114673974D01*
X160564289Y-114875380D01*
X160539031Y-114875380D01*
X160519194Y-114673974D01*
X160460446Y-114480309D01*
X160365045Y-114301825D01*
X160236657Y-114145383D01*
X160080215Y-114016995D01*
X159901731Y-113921594D01*
X159708066Y-113862846D01*
X159557131Y-113847980D01*
X157586189Y-113847980D01*
X157435254Y-113862846D01*
X157241589Y-113921594D01*
X157063105Y-114016995D01*
X156906663Y-114145383D01*
X156778275Y-114301825D01*
X156682874Y-114480309D01*
X156624126Y-114673974D01*
X156604289Y-114875380D01*
X156579031Y-114875380D01*
X156559194Y-114673974D01*
X156500446Y-114480309D01*
X156405045Y-114301825D01*
X156276657Y-114145383D01*
X156120215Y-114016995D01*
X155941731Y-113921594D01*
X155748066Y-113862846D01*
X155597131Y-113847980D01*
X153626189Y-113847980D01*
X153475254Y-113862846D01*
X153281589Y-113921594D01*
X153103105Y-114016995D01*
X152946663Y-114145383D01*
X152818275Y-114301825D01*
X152722874Y-114480309D01*
X152664126Y-114673974D01*
X152644289Y-114875380D01*
X152619031Y-114875380D01*
X152599194Y-114673974D01*
X152540446Y-114480309D01*
X152445045Y-114301825D01*
X152316657Y-114145383D01*
X152160215Y-114016995D01*
X151981731Y-113921594D01*
X151788066Y-113862846D01*
X151637131Y-113847980D01*
X149666189Y-113847980D01*
X149515254Y-113862846D01*
X149321589Y-113921594D01*
X149143105Y-114016995D01*
X148986663Y-114145383D01*
X148858275Y-114301825D01*
X148762874Y-114480309D01*
X148704126Y-114673974D01*
X148684289Y-114875380D01*
X148659031Y-114875380D01*
X148639194Y-114673974D01*
X148580446Y-114480309D01*
X148485045Y-114301825D01*
X148356657Y-114145383D01*
X148200215Y-114016995D01*
X148021731Y-113921594D01*
X147828066Y-113862846D01*
X147677131Y-113847980D01*
X145706189Y-113847980D01*
X145555254Y-113862846D01*
X145361589Y-113921594D01*
X145183105Y-114016995D01*
X145026663Y-114145383D01*
X144917616Y-114278258D01*
X144902140Y-114235073D01*
X144753483Y-114006346D01*
X144563060Y-113811016D01*
X144338189Y-113656588D01*
X144087511Y-113548998D01*
X143820660Y-113492380D01*
X142885660Y-113492380D01*
X142577660Y-113492380D01*
X141642660Y-113492380D01*
X141375809Y-113548998D01*
X141125131Y-113656588D01*
X140900260Y-113811016D01*
X140709837Y-114006346D01*
X140561180Y-114235073D01*
X140463273Y-114508273D01*
X130114200Y-114508273D01*
X130927048Y-113695426D01*
X140581282Y-113695426D01*
X140601154Y-113697383D01*
X140621026Y-113695426D01*
X140621033Y-113695426D01*
X140680509Y-113689568D01*
X140756814Y-113666421D01*
X140827137Y-113628833D01*
X140888775Y-113578247D01*
X140901449Y-113562804D01*
X141817733Y-112646521D01*
X143198880Y-112646521D01*
X143248359Y-112641648D01*
X143295937Y-112627215D01*
X143339784Y-112603778D01*
X143378217Y-112572237D01*
X143409758Y-112533804D01*
X143433195Y-112489957D01*
X143447628Y-112442379D01*
X143452501Y-112392900D01*
X143452501Y-110792899D01*
X144079852Y-110792899D01*
X144032590Y-110840161D01*
X143911946Y-111020718D01*
X143828845Y-111221342D01*
X143786480Y-111434323D01*
X143786480Y-111651477D01*
X143828845Y-111864458D01*
X143911946Y-112065082D01*
X144032590Y-112245639D01*
X144186141Y-112399190D01*
X144366698Y-112519834D01*
X144567322Y-112602935D01*
X144780303Y-112645300D01*
X144997457Y-112645300D01*
X145210438Y-112602935D01*
X145411062Y-112519834D01*
X145591619Y-112399190D01*
X145689024Y-112301785D01*
X146229689Y-112842450D01*
X146239972Y-112854980D01*
X146252502Y-112865263D01*
X146252504Y-112865265D01*
X146290007Y-112896043D01*
X146304428Y-112903751D01*
X146347093Y-112926556D01*
X146409034Y-112945346D01*
X146457316Y-112950101D01*
X146457318Y-112950101D01*
X146473450Y-112951690D01*
X146489582Y-112950101D01*
X147930477Y-112950101D01*
X147946609Y-112951690D01*
X147962741Y-112950101D01*
X147962744Y-112950101D01*
X148011026Y-112945346D01*
X148072967Y-112926556D01*
X148130052Y-112896043D01*
X148180088Y-112854980D01*
X148190375Y-112842445D01*
X148728425Y-112304395D01*
X148740960Y-112294108D01*
X148768063Y-112261083D01*
X148782023Y-112244073D01*
X148812536Y-112186987D01*
X148831326Y-112125046D01*
X148836081Y-112076764D01*
X148836081Y-112076761D01*
X148837670Y-112060629D01*
X148836081Y-112044497D01*
X148836081Y-111041303D01*
X148837670Y-111025171D01*
X148835621Y-111004368D01*
X148831326Y-110960754D01*
X148812536Y-110898813D01*
X148803814Y-110882496D01*
X148782023Y-110841727D01*
X148751245Y-110804225D01*
X148740960Y-110791692D01*
X148728426Y-110781406D01*
X148189672Y-110242652D01*
X148389002Y-110100146D01*
X148584616Y-109891752D01*
X148735815Y-109649200D01*
X148836789Y-109381811D01*
X148726730Y-109156900D01*
X147582880Y-109156900D01*
X147582880Y-109176900D01*
X147274880Y-109176900D01*
X147274880Y-109156900D01*
X147254880Y-109156900D01*
X147254880Y-108848900D01*
X147274880Y-108848900D01*
X147274880Y-107706011D01*
X147582880Y-107706011D01*
X147582880Y-108848900D01*
X148726730Y-108848900D01*
X148836789Y-108623989D01*
X148735815Y-108356600D01*
X148584616Y-108114048D01*
X148389002Y-107905654D01*
X148156491Y-107739427D01*
X147896019Y-107621754D01*
X147807790Y-107594997D01*
X147582880Y-107706011D01*
X147274880Y-107706011D01*
X147049970Y-107594997D01*
X146961741Y-107621754D01*
X146701269Y-107739427D01*
X146468758Y-107905654D01*
X146273144Y-108114048D01*
X146121945Y-108356600D01*
X146020971Y-108623989D01*
X146131029Y-108848898D01*
X145982244Y-108848898D01*
X145948915Y-108681342D01*
X145865814Y-108480718D01*
X145745170Y-108300161D01*
X145591619Y-108146610D01*
X145411062Y-108025966D01*
X145210438Y-107942865D01*
X144997457Y-107900500D01*
X144780303Y-107900500D01*
X144567322Y-107942865D01*
X144373740Y-108023049D01*
X144054045Y-107703355D01*
X144043758Y-107690820D01*
X143993722Y-107649757D01*
X143936637Y-107619244D01*
X143874696Y-107600454D01*
X143826414Y-107595699D01*
X143826411Y-107595699D01*
X143810279Y-107594110D01*
X143794147Y-107595699D01*
X141847282Y-107595699D01*
X141831150Y-107594110D01*
X141815018Y-107595699D01*
X141815016Y-107595699D01*
X141766734Y-107600454D01*
X141704793Y-107619244D01*
X141670450Y-107637601D01*
X141647707Y-107649757D01*
X141631031Y-107663443D01*
X141597672Y-107690820D01*
X141587389Y-107703350D01*
X140370257Y-108920483D01*
X140357722Y-108930770D01*
X140347437Y-108943303D01*
X140316659Y-108980806D01*
X140304850Y-109002899D01*
X140286146Y-109037892D01*
X140267356Y-109099833D01*
X140262601Y-109148114D01*
X140261012Y-109164249D01*
X140262601Y-109180381D01*
X140262601Y-109479490D01*
X139287271Y-110454821D01*
X129037404Y-110454823D01*
X129021262Y-110453233D01*
X128956845Y-110459578D01*
X128894904Y-110478367D01*
X128837819Y-110508879D01*
X128800316Y-110539658D01*
X128800313Y-110539661D01*
X128787783Y-110549944D01*
X128777500Y-110562474D01*
X124223384Y-115116590D01*
X114639874Y-115116592D01*
X114623742Y-115115003D01*
X114607610Y-115116592D01*
X114607608Y-115116592D01*
X114559326Y-115121347D01*
X114516174Y-115134437D01*
X114497384Y-115140137D01*
X114440299Y-115170649D01*
X114402796Y-115201427D01*
X114402788Y-115201435D01*
X114390264Y-115211713D01*
X114379986Y-115224237D01*
X112424246Y-117179978D01*
X112411711Y-117190265D01*
X112401426Y-117202798D01*
X112370648Y-117240301D01*
X112351856Y-117275458D01*
X112340135Y-117297387D01*
X112321345Y-117359328D01*
X112317324Y-117400159D01*
X112315001Y-117423744D01*
X112316590Y-117439876D01*
X112316591Y-123037424D01*
X112229926Y-123054663D01*
X112038402Y-123133995D01*
X111866034Y-123249168D01*
X111719448Y-123395754D01*
X111604275Y-123568122D01*
X111524943Y-123759646D01*
X111484500Y-123962968D01*
X111484500Y-124170272D01*
X111524943Y-124373594D01*
X111604275Y-124565118D01*
X111719448Y-124737486D01*
X111748583Y-124766621D01*
X111161612Y-124766621D01*
X111050521Y-124655530D01*
X111050521Y-123266620D01*
X111045648Y-123217141D01*
X111031215Y-123169563D01*
X111007778Y-123125716D01*
X110976237Y-123087283D01*
X110937804Y-123055742D01*
X110893957Y-123032305D01*
X110846379Y-123017872D01*
X110796900Y-123012999D01*
X109196900Y-123012999D01*
X109147421Y-123017872D01*
X109099843Y-123032305D01*
X109055996Y-123055742D01*
X109017563Y-123087283D01*
X108986022Y-123125716D01*
X108962585Y-123169563D01*
X108948152Y-123217141D01*
X108943279Y-123266620D01*
X107927000Y-123266620D01*
X107927000Y-121118410D01*
X109321600Y-121118410D01*
X109321600Y-121281590D01*
X109353435Y-121441635D01*
X109415882Y-121592394D01*
X109506540Y-121728074D01*
X109621926Y-121843460D01*
X109757606Y-121934118D01*
X109908365Y-121996565D01*
X110068410Y-122028400D01*
X110231590Y-122028400D01*
X110391635Y-121996565D01*
X110542394Y-121934118D01*
X110678074Y-121843460D01*
X110793460Y-121728074D01*
X110884118Y-121592394D01*
X110946565Y-121441635D01*
X110978400Y-121281590D01*
X110978400Y-121118410D01*
X110946565Y-120958365D01*
X110884118Y-120807606D01*
X110793460Y-120671926D01*
X110678074Y-120556540D01*
X110542394Y-120465882D01*
X110391635Y-120403435D01*
X110231590Y-120371600D01*
X110068410Y-120371600D01*
X109908365Y-120403435D01*
X109757606Y-120465882D01*
X109621926Y-120556540D01*
X109506540Y-120671926D01*
X109415882Y-120807606D01*
X109353435Y-120958365D01*
X109321600Y-121118410D01*
X107927000Y-121118410D01*
X107927000Y-110948993D01*
X115869580Y-110948993D01*
X115869580Y-111057807D01*
X115890808Y-111164529D01*
X115932449Y-111265060D01*
X115992903Y-111355535D01*
X116069845Y-111432477D01*
X116160320Y-111492931D01*
X116260851Y-111534572D01*
X116367573Y-111555800D01*
X118876387Y-111555800D01*
X118983109Y-111534572D01*
X119083640Y-111492931D01*
X119174115Y-111432477D01*
X119251057Y-111355535D01*
X119311511Y-111265060D01*
X119353152Y-111164529D01*
X119374380Y-111057807D01*
X119374380Y-110948993D01*
X119353152Y-110842271D01*
X119311511Y-110741740D01*
X119251057Y-110651265D01*
X119174115Y-110574323D01*
X119083640Y-110513869D01*
X118983109Y-110472228D01*
X118876387Y-110451000D01*
X116367573Y-110451000D01*
X116260851Y-110472228D01*
X116160320Y-110513869D01*
X116069845Y-110574323D01*
X115992903Y-110651265D01*
X115932449Y-110741740D01*
X115890808Y-110842271D01*
X115869580Y-110948993D01*
X107927000Y-110948993D01*
X107927000Y-108722968D01*
X108944500Y-108722968D01*
X108944500Y-108930272D01*
X108984943Y-109133594D01*
X109064275Y-109325118D01*
X109179448Y-109497486D01*
X109326034Y-109644072D01*
X109498402Y-109759245D01*
X109689926Y-109838577D01*
X109893248Y-109879020D01*
X110100552Y-109879020D01*
X110303874Y-109838577D01*
X110495398Y-109759245D01*
X110667766Y-109644072D01*
X110814352Y-109497486D01*
X110929525Y-109325118D01*
X111008857Y-109133594D01*
X111049300Y-108930272D01*
X111049300Y-108722968D01*
X111484500Y-108722968D01*
X111484500Y-108930272D01*
X111524943Y-109133594D01*
X111604275Y-109325118D01*
X111719448Y-109497486D01*
X111866034Y-109644072D01*
X112038402Y-109759245D01*
X112229926Y-109838577D01*
X112433248Y-109879020D01*
X112640552Y-109879020D01*
X112843874Y-109838577D01*
X113035398Y-109759245D01*
X113207766Y-109644072D01*
X113354352Y-109497486D01*
X113469525Y-109325118D01*
X113548857Y-109133594D01*
X113589300Y-108930272D01*
X113589300Y-108722968D01*
X114024500Y-108722968D01*
X114024500Y-108930272D01*
X114064943Y-109133594D01*
X114144275Y-109325118D01*
X114259448Y-109497486D01*
X114406034Y-109644072D01*
X114578402Y-109759245D01*
X114769926Y-109838577D01*
X114973248Y-109879020D01*
X115180552Y-109879020D01*
X115383874Y-109838577D01*
X115575398Y-109759245D01*
X115747766Y-109644072D01*
X115894352Y-109497486D01*
X116009525Y-109325118D01*
X116088857Y-109133594D01*
X116129300Y-108930272D01*
X116129300Y-108722968D01*
X116564500Y-108722968D01*
X116564500Y-108930272D01*
X116604943Y-109133594D01*
X116684275Y-109325118D01*
X116799448Y-109497486D01*
X116946034Y-109644072D01*
X117118402Y-109759245D01*
X117309926Y-109838577D01*
X117513248Y-109879020D01*
X117720552Y-109879020D01*
X117923874Y-109838577D01*
X118115398Y-109759245D01*
X118287766Y-109644072D01*
X118434352Y-109497486D01*
X118549525Y-109325118D01*
X118628857Y-109133594D01*
X118669300Y-108930272D01*
X118669300Y-108722968D01*
X119104500Y-108722968D01*
X119104500Y-108930272D01*
X119144943Y-109133594D01*
X119224275Y-109325118D01*
X119339448Y-109497486D01*
X119486034Y-109644072D01*
X119658402Y-109759245D01*
X119849926Y-109838577D01*
X120053248Y-109879020D01*
X120260552Y-109879020D01*
X120463874Y-109838577D01*
X120655398Y-109759245D01*
X120827766Y-109644072D01*
X120974352Y-109497486D01*
X121089525Y-109325118D01*
X121168857Y-109133594D01*
X121209300Y-108930272D01*
X121209300Y-108722968D01*
X121644500Y-108722968D01*
X121644500Y-108930272D01*
X121684943Y-109133594D01*
X121764275Y-109325118D01*
X121879448Y-109497486D01*
X122026034Y-109644072D01*
X122198402Y-109759245D01*
X122389926Y-109838577D01*
X122593248Y-109879020D01*
X122800552Y-109879020D01*
X123003874Y-109838577D01*
X123195398Y-109759245D01*
X123367766Y-109644072D01*
X123514352Y-109497486D01*
X123629525Y-109325118D01*
X123708857Y-109133594D01*
X123749300Y-108930272D01*
X123749300Y-108722968D01*
X124184500Y-108722968D01*
X124184500Y-108930272D01*
X124224943Y-109133594D01*
X124304275Y-109325118D01*
X124419448Y-109497486D01*
X124566034Y-109644072D01*
X124738402Y-109759245D01*
X124929926Y-109838577D01*
X125133248Y-109879020D01*
X125340552Y-109879020D01*
X125543874Y-109838577D01*
X125735398Y-109759245D01*
X125907766Y-109644072D01*
X126054352Y-109497486D01*
X126169525Y-109325118D01*
X126248857Y-109133594D01*
X126289300Y-108930272D01*
X126289300Y-108722968D01*
X126724500Y-108722968D01*
X126724500Y-108930272D01*
X126764943Y-109133594D01*
X126844275Y-109325118D01*
X126959448Y-109497486D01*
X127106034Y-109644072D01*
X127278402Y-109759245D01*
X127469926Y-109838577D01*
X127673248Y-109879020D01*
X127880552Y-109879020D01*
X128083874Y-109838577D01*
X128275398Y-109759245D01*
X128447766Y-109644072D01*
X128594352Y-109497486D01*
X128709525Y-109325118D01*
X128788857Y-109133594D01*
X128829300Y-108930272D01*
X128829300Y-108722968D01*
X129264500Y-108722968D01*
X129264500Y-108930272D01*
X129304943Y-109133594D01*
X129384275Y-109325118D01*
X129499448Y-109497486D01*
X129646034Y-109644072D01*
X129818402Y-109759245D01*
X130009926Y-109838577D01*
X130213248Y-109879020D01*
X130420552Y-109879020D01*
X130623874Y-109838577D01*
X130815398Y-109759245D01*
X130987766Y-109644072D01*
X131134352Y-109497486D01*
X131249525Y-109325118D01*
X131328857Y-109133594D01*
X131369300Y-108930272D01*
X131369300Y-108722968D01*
X131804500Y-108722968D01*
X131804500Y-108930272D01*
X131844943Y-109133594D01*
X131924275Y-109325118D01*
X132039448Y-109497486D01*
X132186034Y-109644072D01*
X132358402Y-109759245D01*
X132549926Y-109838577D01*
X132753248Y-109879020D01*
X132960552Y-109879020D01*
X133163874Y-109838577D01*
X133355398Y-109759245D01*
X133527766Y-109644072D01*
X133674352Y-109497486D01*
X133789525Y-109325118D01*
X133868857Y-109133594D01*
X133909300Y-108930272D01*
X133909300Y-108722968D01*
X134344500Y-108722968D01*
X134344500Y-108930272D01*
X134384943Y-109133594D01*
X134464275Y-109325118D01*
X134579448Y-109497486D01*
X134726034Y-109644072D01*
X134898402Y-109759245D01*
X135089926Y-109838577D01*
X135293248Y-109879020D01*
X135500552Y-109879020D01*
X135703874Y-109838577D01*
X135895398Y-109759245D01*
X136067766Y-109644072D01*
X136214352Y-109497486D01*
X136329525Y-109325118D01*
X136408857Y-109133594D01*
X136449300Y-108930272D01*
X136449300Y-108722968D01*
X136884500Y-108722968D01*
X136884500Y-108930272D01*
X136924943Y-109133594D01*
X137004275Y-109325118D01*
X137119448Y-109497486D01*
X137266034Y-109644072D01*
X137438402Y-109759245D01*
X137629926Y-109838577D01*
X137833248Y-109879020D01*
X138040552Y-109879020D01*
X138243874Y-109838577D01*
X138435398Y-109759245D01*
X138607766Y-109644072D01*
X138754352Y-109497486D01*
X138869525Y-109325118D01*
X138948857Y-109133594D01*
X138989300Y-108930272D01*
X138989300Y-108722968D01*
X138948857Y-108519646D01*
X138869525Y-108328122D01*
X138754352Y-108155754D01*
X138607766Y-108009168D01*
X138435398Y-107893995D01*
X138243874Y-107814663D01*
X138040552Y-107774220D01*
X137833248Y-107774220D01*
X137629926Y-107814663D01*
X137438402Y-107893995D01*
X137266034Y-108009168D01*
X137119448Y-108155754D01*
X137004275Y-108328122D01*
X136924943Y-108519646D01*
X136884500Y-108722968D01*
X136449300Y-108722968D01*
X136408857Y-108519646D01*
X136329525Y-108328122D01*
X136214352Y-108155754D01*
X136067766Y-108009168D01*
X135895398Y-107893995D01*
X135703874Y-107814663D01*
X135500552Y-107774220D01*
X135293248Y-107774220D01*
X135089926Y-107814663D01*
X134898402Y-107893995D01*
X134726034Y-108009168D01*
X134579448Y-108155754D01*
X134464275Y-108328122D01*
X134384943Y-108519646D01*
X134344500Y-108722968D01*
X133909300Y-108722968D01*
X133868857Y-108519646D01*
X133789525Y-108328122D01*
X133674352Y-108155754D01*
X133527766Y-108009168D01*
X133355398Y-107893995D01*
X133163874Y-107814663D01*
X132960552Y-107774220D01*
X132753248Y-107774220D01*
X132549926Y-107814663D01*
X132358402Y-107893995D01*
X132186034Y-108009168D01*
X132039448Y-108155754D01*
X131924275Y-108328122D01*
X131844943Y-108519646D01*
X131804500Y-108722968D01*
X131369300Y-108722968D01*
X131328857Y-108519646D01*
X131249525Y-108328122D01*
X131134352Y-108155754D01*
X130987766Y-108009168D01*
X130815398Y-107893995D01*
X130623874Y-107814663D01*
X130420552Y-107774220D01*
X130213248Y-107774220D01*
X130009926Y-107814663D01*
X129818402Y-107893995D01*
X129646034Y-108009168D01*
X129499448Y-108155754D01*
X129384275Y-108328122D01*
X129304943Y-108519646D01*
X129264500Y-108722968D01*
X128829300Y-108722968D01*
X128788857Y-108519646D01*
X128709525Y-108328122D01*
X128594352Y-108155754D01*
X128447766Y-108009168D01*
X128275398Y-107893995D01*
X128083874Y-107814663D01*
X127880552Y-107774220D01*
X127673248Y-107774220D01*
X127469926Y-107814663D01*
X127278402Y-107893995D01*
X127106034Y-108009168D01*
X126959448Y-108155754D01*
X126844275Y-108328122D01*
X126764943Y-108519646D01*
X126724500Y-108722968D01*
X126289300Y-108722968D01*
X126248857Y-108519646D01*
X126169525Y-108328122D01*
X126054352Y-108155754D01*
X125907766Y-108009168D01*
X125735398Y-107893995D01*
X125543874Y-107814663D01*
X125340552Y-107774220D01*
X125133248Y-107774220D01*
X124929926Y-107814663D01*
X124738402Y-107893995D01*
X124566034Y-108009168D01*
X124419448Y-108155754D01*
X124304275Y-108328122D01*
X124224943Y-108519646D01*
X124184500Y-108722968D01*
X123749300Y-108722968D01*
X123708857Y-108519646D01*
X123629525Y-108328122D01*
X123514352Y-108155754D01*
X123367766Y-108009168D01*
X123195398Y-107893995D01*
X123003874Y-107814663D01*
X122800552Y-107774220D01*
X122593248Y-107774220D01*
X122389926Y-107814663D01*
X122198402Y-107893995D01*
X122026034Y-108009168D01*
X121879448Y-108155754D01*
X121764275Y-108328122D01*
X121684943Y-108519646D01*
X121644500Y-108722968D01*
X121209300Y-108722968D01*
X121168857Y-108519646D01*
X121089525Y-108328122D01*
X120974352Y-108155754D01*
X120827766Y-108009168D01*
X120655398Y-107893995D01*
X120463874Y-107814663D01*
X120260552Y-107774220D01*
X120053248Y-107774220D01*
X119849926Y-107814663D01*
X119658402Y-107893995D01*
X119486034Y-108009168D01*
X119339448Y-108155754D01*
X119224275Y-108328122D01*
X119144943Y-108519646D01*
X119104500Y-108722968D01*
X118669300Y-108722968D01*
X118628857Y-108519646D01*
X118549525Y-108328122D01*
X118434352Y-108155754D01*
X118287766Y-108009168D01*
X118115398Y-107893995D01*
X117923874Y-107814663D01*
X117720552Y-107774220D01*
X117513248Y-107774220D01*
X117309926Y-107814663D01*
X117118402Y-107893995D01*
X116946034Y-108009168D01*
X116799448Y-108155754D01*
X116684275Y-108328122D01*
X116604943Y-108519646D01*
X116564500Y-108722968D01*
X116129300Y-108722968D01*
X116088857Y-108519646D01*
X116009525Y-108328122D01*
X115894352Y-108155754D01*
X115747766Y-108009168D01*
X115575398Y-107893995D01*
X115383874Y-107814663D01*
X115180552Y-107774220D01*
X114973248Y-107774220D01*
X114769926Y-107814663D01*
X114578402Y-107893995D01*
X114406034Y-108009168D01*
X114259448Y-108155754D01*
X114144275Y-108328122D01*
X114064943Y-108519646D01*
X114024500Y-108722968D01*
X113589300Y-108722968D01*
X113548857Y-108519646D01*
X113469525Y-108328122D01*
X113354352Y-108155754D01*
X113207766Y-108009168D01*
X113035398Y-107893995D01*
X112843874Y-107814663D01*
X112640552Y-107774220D01*
X112433248Y-107774220D01*
X112229926Y-107814663D01*
X112038402Y-107893995D01*
X111866034Y-108009168D01*
X111719448Y-108155754D01*
X111604275Y-108328122D01*
X111524943Y-108519646D01*
X111484500Y-108722968D01*
X111049300Y-108722968D01*
X111008857Y-108519646D01*
X110929525Y-108328122D01*
X110814352Y-108155754D01*
X110667766Y-108009168D01*
X110495398Y-107893995D01*
X110303874Y-107814663D01*
X110100552Y-107774220D01*
X109893248Y-107774220D01*
X109689926Y-107814663D01*
X109498402Y-107893995D01*
X109326034Y-108009168D01*
X109179448Y-108155754D01*
X109064275Y-108328122D01*
X108984943Y-108519646D01*
X108944500Y-108722968D01*
X107927000Y-108722968D01*
X107927000Y-107763548D01*
X107934455Y-107687521D01*
X107952599Y-107627422D01*
X107982073Y-107571989D01*
X108021752Y-107523338D01*
X108070122Y-107483322D01*
X108125347Y-107453463D01*
X108185316Y-107434899D01*
X108260473Y-107427000D01*
X148786452Y-107427000D01*
X148862479Y-107434455D01*
G37*
X148862479Y-107434455D02*
X148922578Y-107452599D01*
X148978011Y-107482073D01*
X149026662Y-107521752D01*
X149066678Y-107570122D01*
X149096537Y-107625347D01*
X149115101Y-107685316D01*
X149123001Y-107760483D01*
X149123000Y-112063605D01*
X149124181Y-112075594D01*
X149124155Y-112079293D01*
X149124532Y-112083143D01*
X149136772Y-112199600D01*
X149141827Y-112224225D01*
X149146525Y-112248855D01*
X149147641Y-112252550D01*
X149147642Y-112252557D01*
X149147645Y-112252563D01*
X149182270Y-112364420D01*
X149191999Y-112387565D01*
X149201403Y-112410840D01*
X149203217Y-112414252D01*
X149203219Y-112414257D01*
X149203222Y-112414261D01*
X149258914Y-112517263D01*
X149272955Y-112538080D01*
X149286701Y-112559086D01*
X149289145Y-112562083D01*
X149363788Y-112652309D01*
X149381598Y-112669996D01*
X149399166Y-112687936D01*
X149402140Y-112690396D01*
X149402147Y-112690403D01*
X149402155Y-112690408D01*
X149492892Y-112764412D01*
X149513802Y-112778304D01*
X149534519Y-112792490D01*
X149537921Y-112794330D01*
X149641315Y-112849305D01*
X149664547Y-112858881D01*
X149687602Y-112868762D01*
X149691293Y-112869905D01*
X149691299Y-112869907D01*
X149803398Y-112903751D01*
X149828046Y-112908632D01*
X149852582Y-112913847D01*
X149856419Y-112914250D01*
X149856429Y-112914252D01*
X149856438Y-112914252D01*
X149972970Y-112925678D01*
X149972971Y-112925678D01*
X149986394Y-112927000D01*
X243400000Y-112927000D01*
X243400000Y-113699036D01*
X243338189Y-113656588D01*
X243087511Y-113548998D01*
X242820660Y-113492380D01*
X241885660Y-113492380D01*
X241885660Y-114250000D01*
X241577660Y-114250000D01*
X241577660Y-113492380D01*
X240642660Y-113492380D01*
X240375809Y-113548998D01*
X240125131Y-113656588D01*
X239900260Y-113811016D01*
X239709837Y-114006346D01*
X239561180Y-114235073D01*
X239555831Y-114250000D01*
X239522513Y-114250000D01*
X239436657Y-114145383D01*
X239280215Y-114016995D01*
X239101731Y-113921594D01*
X238908066Y-113862846D01*
X238757131Y-113847980D01*
X236786189Y-113847980D01*
X236635254Y-113862846D01*
X236441589Y-113921594D01*
X236263105Y-114016995D01*
X236106663Y-114145383D01*
X235978275Y-114301825D01*
X235882874Y-114480309D01*
X235824126Y-114673974D01*
X235804289Y-114875380D01*
X235824126Y-115076786D01*
X235882874Y-115270451D01*
X235978275Y-115448935D01*
X236106663Y-115605377D01*
X236263105Y-115733765D01*
X236441589Y-115829166D01*
X236635254Y-115887914D01*
X236786189Y-115902780D01*
X238757131Y-115902780D01*
X238908066Y-115887914D01*
X239101731Y-115829166D01*
X239280215Y-115733765D01*
X239350000Y-115676494D01*
X239350000Y-116461939D01*
X130775585Y-116461939D01*
X130759460Y-116460351D01*
X130743336Y-116461939D01*
X130743326Y-116461939D01*
X130695044Y-116466694D01*
X130633103Y-116485484D01*
X130606530Y-116499688D01*
X130576017Y-116515997D01*
X130538514Y-116546775D01*
X130525982Y-116557060D01*
X130515699Y-116569590D01*
X127413890Y-119671400D01*
X124239651Y-119671400D01*
X124223519Y-119669811D01*
X124207387Y-119671400D01*
X124207385Y-119671400D01*
X124159103Y-119676155D01*
X124097162Y-119694945D01*
X124068503Y-119710264D01*
X124040076Y-119725458D01*
X124002868Y-119755994D01*
X123990041Y-119766521D01*
X123979758Y-119779051D01*
X120633772Y-123125037D01*
X120463874Y-123054663D01*
X120260552Y-123014220D01*
X120053248Y-123014220D01*
X119849926Y-123054663D01*
X119658402Y-123133995D01*
X119486034Y-123249168D01*
X119339448Y-123395754D01*
X119224275Y-123568122D01*
X119144943Y-123759646D01*
X119104500Y-123962968D01*
X119104500Y-124170272D01*
X119144943Y-124373594D01*
X119224275Y-124565118D01*
X119339448Y-124737486D01*
X119486034Y-124884072D01*
X119658402Y-124999245D01*
X119849926Y-125078577D01*
X120053248Y-125119020D01*
X120260552Y-125119020D01*
X120463874Y-125078577D01*
X120655398Y-124999245D01*
X120827766Y-124884072D01*
X120974352Y-124737486D01*
X121089525Y-124565118D01*
X121168857Y-124373594D01*
X121209300Y-124170272D01*
X121209300Y-123962968D01*
X121168857Y-123759646D01*
X121098483Y-123589748D01*
X124359631Y-120328600D01*
X127533868Y-120328600D01*
X127550000Y-120330189D01*
X127566132Y-120328600D01*
X127566135Y-120328600D01*
X127614417Y-120323845D01*
X127676358Y-120305055D01*
X127733443Y-120274542D01*
X127783479Y-120233479D01*
X127793766Y-120220944D01*
X130895572Y-117119139D01*
X132150736Y-117119139D01*
X130992576Y-118277300D01*
X130980041Y-118287587D01*
X130969756Y-118300120D01*
X130938978Y-118337623D01*
X130924164Y-118365339D01*
X130908465Y-118394709D01*
X130889675Y-118456650D01*
X130885663Y-118497386D01*
X130883331Y-118521066D01*
X130884920Y-118537198D01*
X130884921Y-120331342D01*
X130820174Y-120396089D01*
X130764754Y-120479030D01*
X130726581Y-120571189D01*
X130707120Y-120669024D01*
X130707120Y-120768776D01*
X130726581Y-120866611D01*
X130729186Y-120872901D01*
X125578150Y-120872901D01*
X125562018Y-120871312D01*
X125545886Y-120872901D01*
X125545884Y-120872901D01*
X125497602Y-120877656D01*
X125435661Y-120896446D01*
X125404351Y-120913182D01*
X125378575Y-120926959D01*
X125341072Y-120957737D01*
X125328540Y-120968022D01*
X125318257Y-120980552D01*
X123173772Y-123125037D01*
X123003874Y-123054663D01*
X122800552Y-123014220D01*
X122593248Y-123014220D01*
X122389926Y-123054663D01*
X122198402Y-123133995D01*
X122026034Y-123249168D01*
X121879448Y-123395754D01*
X121764275Y-123568122D01*
X121684943Y-123759646D01*
X121644500Y-123962968D01*
X121644500Y-124170272D01*
X121684943Y-124373594D01*
X121764275Y-124565118D01*
X121879448Y-124737486D01*
X122026034Y-124884072D01*
X122198402Y-124999245D01*
X122389926Y-125078577D01*
X122593248Y-125119020D01*
X122800552Y-125119020D01*
X123003874Y-125078577D01*
X123195398Y-124999245D01*
X123367766Y-124884072D01*
X123514352Y-124737486D01*
X123629525Y-124565118D01*
X123708857Y-124373594D01*
X123749300Y-124170272D01*
X123749300Y-123962968D01*
X123708857Y-123759646D01*
X123638483Y-123589748D01*
X125698130Y-121530101D01*
X131532367Y-121530101D01*
X131548499Y-121531690D01*
X131564631Y-121530101D01*
X131564634Y-121530101D01*
X131612916Y-121525346D01*
X131674857Y-121506556D01*
X131731942Y-121476043D01*
X131781978Y-121434980D01*
X131792265Y-121422445D01*
X133057827Y-120156884D01*
X133043554Y-120203935D01*
X133039515Y-120244945D01*
X133037210Y-120268351D01*
X133038799Y-120284483D01*
X133038800Y-121034358D01*
X131363739Y-122709419D01*
X128821622Y-122709419D01*
X128805500Y-122707831D01*
X128789378Y-122709419D01*
X128789366Y-122709419D01*
X128741084Y-122714174D01*
X128679143Y-122732964D01*
X128652570Y-122747168D01*
X128622057Y-122763477D01*
X128584554Y-122794255D01*
X128572022Y-122804540D01*
X128561739Y-122817070D01*
X128253772Y-123125037D01*
X128083874Y-123054663D01*
X127880552Y-123014220D01*
X127673248Y-123014220D01*
X127469926Y-123054663D01*
X127278402Y-123133995D01*
X127106034Y-123249168D01*
X126959448Y-123395754D01*
X126844275Y-123568122D01*
X126764943Y-123759646D01*
X126724500Y-123962968D01*
X126724500Y-124170272D01*
X126764943Y-124373594D01*
X126844275Y-124565118D01*
X126959448Y-124737486D01*
X126988583Y-124766621D01*
X126401612Y-124766621D01*
X126178483Y-124543492D01*
X126248857Y-124373594D01*
X126289300Y-124170272D01*
X126289300Y-123962968D01*
X126248857Y-123759646D01*
X126169525Y-123568122D01*
X126054352Y-123395754D01*
X125907766Y-123249168D01*
X125735398Y-123133995D01*
X125543874Y-123054663D01*
X125340552Y-123014220D01*
X125133248Y-123014220D01*
X124929926Y-123054663D01*
X124738402Y-123133995D01*
X124566034Y-123249168D01*
X124419448Y-123395754D01*
X124304275Y-123568122D01*
X124224943Y-123759646D01*
X124184500Y-123962968D01*
X124184500Y-124170272D01*
X124224943Y-124373594D01*
X124304275Y-124565118D01*
X124419448Y-124737486D01*
X124566034Y-124884072D01*
X124738402Y-124999245D01*
X124929926Y-125078577D01*
X125133248Y-125119020D01*
X125340552Y-125119020D01*
X125543874Y-125078577D01*
X125713772Y-125008203D01*
X126021739Y-125316170D01*
X126032022Y-125328700D01*
X126044552Y-125338983D01*
X126044554Y-125338985D01*
X126082057Y-125369763D01*
X126112570Y-125386072D01*
X126139143Y-125400276D01*
X126201084Y-125419066D01*
X126249366Y-125423821D01*
X126249378Y-125423821D01*
X126265500Y-125425409D01*
X126281622Y-125423821D01*
X138200000Y-125423821D01*
X138200000Y-125623000D01*
X108263548Y-125623000D01*
X108187521Y-125615545D01*
X108127419Y-125597400D01*
X108071986Y-125567925D01*
X108023340Y-125528249D01*
X107983321Y-125479875D01*
X107953463Y-125424653D01*
X107934899Y-125364684D01*
X107927000Y-125289526D01*
X107927000Y-123266620D01*
X108943279Y-123266620D01*
X108943279Y-124866620D01*
X108948152Y-124916099D01*
X108962585Y-124963677D01*
X108986022Y-125007524D01*
X109017563Y-125045957D01*
X109055996Y-125077498D01*
X109099843Y-125100935D01*
X109147421Y-125115368D01*
X109196900Y-125120241D01*
X110585810Y-125120241D01*
X110781739Y-125316170D01*
X110792022Y-125328700D01*
X110804552Y-125338983D01*
X110804554Y-125338985D01*
X110842057Y-125369763D01*
X110872570Y-125386072D01*
X110899143Y-125400276D01*
X110961084Y-125419066D01*
X111009366Y-125423821D01*
X111009378Y-125423821D01*
X111025500Y-125425409D01*
X111041622Y-125423821D01*
X113014497Y-125423821D01*
X113030629Y-125425410D01*
X113046761Y-125423821D01*
X113046764Y-125423821D01*
X113095046Y-125419066D01*
X113156987Y-125400276D01*
X113214072Y-125369763D01*
X113264108Y-125328700D01*
X113274395Y-125316165D01*
X113786451Y-124804110D01*
X113798980Y-124793828D01*
X113821308Y-124766621D01*
X113840043Y-124743793D01*
X113870555Y-124686708D01*
X113870556Y-124686707D01*
X113889346Y-124624766D01*
X113894101Y-124576484D01*
X113894101Y-124576482D01*
X113895690Y-124560350D01*
X113894101Y-124544218D01*
X113894101Y-123962968D01*
X114024500Y-123962968D01*
X114024500Y-124170272D01*
X114064943Y-124373594D01*
X114144275Y-124565118D01*
X114259448Y-124737486D01*
X114406034Y-124884072D01*
X114578402Y-124999245D01*
X114769926Y-125078577D01*
X114973248Y-125119020D01*
X115180552Y-125119020D01*
X115383874Y-125078577D01*
X115575398Y-124999245D01*
X115747766Y-124884072D01*
X115894352Y-124737486D01*
X116009525Y-124565118D01*
X116088857Y-124373594D01*
X116129300Y-124170272D01*
X116129300Y-123962968D01*
X116564500Y-123962968D01*
X116564500Y-124170272D01*
X116604943Y-124373594D01*
X116684275Y-124565118D01*
X116799448Y-124737486D01*
X116946034Y-124884072D01*
X117118402Y-124999245D01*
X117309926Y-125078577D01*
X117513248Y-125119020D01*
X117720552Y-125119020D01*
X117923874Y-125078577D01*
X118115398Y-124999245D01*
X118287766Y-124884072D01*
X118434352Y-124737486D01*
X118549525Y-124565118D01*
X118628857Y-124373594D01*
X118669300Y-124170272D01*
X118669300Y-123962968D01*
X118628857Y-123759646D01*
X118549525Y-123568122D01*
X118434352Y-123395754D01*
X118287766Y-123249168D01*
X118115398Y-123133995D01*
X117923874Y-123054663D01*
X117720552Y-123014220D01*
X117513248Y-123014220D01*
X117309926Y-123054663D01*
X117118402Y-123133995D01*
X116946034Y-123249168D01*
X116799448Y-123395754D01*
X116684275Y-123568122D01*
X116604943Y-123759646D01*
X116564500Y-123962968D01*
X116129300Y-123962968D01*
X116088857Y-123759646D01*
X116009525Y-123568122D01*
X115894352Y-123395754D01*
X115747766Y-123249168D01*
X115575398Y-123133995D01*
X115383874Y-123054663D01*
X115180552Y-123014220D01*
X114973248Y-123014220D01*
X114769926Y-123054663D01*
X114578402Y-123133995D01*
X114406034Y-123249168D01*
X114259448Y-123395754D01*
X114144275Y-123568122D01*
X114064943Y-123759646D01*
X114024500Y-123962968D01*
X113894101Y-123962968D01*
X113894101Y-123589023D01*
X113895690Y-123572891D01*
X113892865Y-123544209D01*
X113889346Y-123508474D01*
X113870556Y-123446533D01*
X113865508Y-123437089D01*
X113840043Y-123389447D01*
X113809265Y-123351944D01*
X113809263Y-123351942D01*
X113798980Y-123339412D01*
X113786450Y-123329129D01*
X113278600Y-122821280D01*
X113278600Y-119847400D01*
X115049440Y-119847400D01*
X115049440Y-120447400D01*
X115051759Y-120471048D01*
X115053911Y-120494695D01*
X115054160Y-120495543D01*
X115054247Y-120496425D01*
X115061112Y-120519162D01*
X115067819Y-120541951D01*
X115068230Y-120542737D01*
X115068485Y-120543582D01*
X115079622Y-120564527D01*
X115090641Y-120585605D01*
X115091196Y-120586295D01*
X115091611Y-120587076D01*
X115106638Y-120605502D01*
X115121507Y-120623995D01*
X115122183Y-120624562D01*
X115122744Y-120625250D01*
X115141030Y-120640377D01*
X115159242Y-120655659D01*
X115160021Y-120656087D01*
X115160700Y-120656649D01*
X115181524Y-120667909D01*
X115202409Y-120679390D01*
X115203255Y-120679658D01*
X115204031Y-120680078D01*
X115226730Y-120687105D01*
X115249363Y-120694284D01*
X115250239Y-120694382D01*
X115251088Y-120694645D01*
X115274795Y-120697137D01*
X115298316Y-120699775D01*
X115300012Y-120699787D01*
X115300078Y-120699794D01*
X115300144Y-120699788D01*
X115301840Y-120699800D01*
X117756247Y-120699800D01*
X117862969Y-120678572D01*
X117963500Y-120636931D01*
X118053975Y-120576477D01*
X118130917Y-120499535D01*
X118191371Y-120409060D01*
X118233012Y-120308529D01*
X118254240Y-120201807D01*
X118254240Y-120092993D01*
X118233012Y-119986271D01*
X118191371Y-119885740D01*
X118130917Y-119795265D01*
X118053975Y-119718323D01*
X117963500Y-119657869D01*
X117862969Y-119616228D01*
X117756247Y-119595000D01*
X115301840Y-119595000D01*
X115278192Y-119597319D01*
X115254545Y-119599471D01*
X115253697Y-119599720D01*
X115252815Y-119599807D01*
X115230078Y-119606672D01*
X115207289Y-119613379D01*
X115206503Y-119613790D01*
X115205658Y-119614045D01*
X115184713Y-119625182D01*
X115163635Y-119636201D01*
X115162945Y-119636756D01*
X115162164Y-119637171D01*
X115143738Y-119652198D01*
X115125245Y-119667067D01*
X115124678Y-119667743D01*
X115123990Y-119668304D01*
X115108863Y-119686590D01*
X115093581Y-119704802D01*
X115093153Y-119705581D01*
X115092591Y-119706260D01*
X115081331Y-119727084D01*
X115069850Y-119747969D01*
X115069582Y-119748815D01*
X115069162Y-119749591D01*
X115062135Y-119772290D01*
X115054956Y-119794923D01*
X115054858Y-119795799D01*
X115054595Y-119796648D01*
X115052103Y-119820355D01*
X115049465Y-119843876D01*
X115049453Y-119845572D01*
X115049446Y-119845638D01*
X115049452Y-119845704D01*
X115049440Y-119847400D01*
X113278600Y-119847400D01*
X113278600Y-117686110D01*
X114886111Y-116078600D01*
X124469618Y-116078600D01*
X124485750Y-116080189D01*
X124501882Y-116078600D01*
X124501885Y-116078600D01*
X124550167Y-116073845D01*
X124612108Y-116055055D01*
X124669193Y-116024542D01*
X124719229Y-115983479D01*
X124729516Y-115970944D01*
X128089330Y-112611131D01*
X128101234Y-112639870D01*
X128156654Y-112722811D01*
X128227189Y-112793346D01*
X128310130Y-112848766D01*
X128402289Y-112886939D01*
X128500124Y-112906400D01*
X128599876Y-112906400D01*
X128697711Y-112886939D01*
X128789870Y-112848766D01*
X128872811Y-112793346D01*
X128943346Y-112722811D01*
X128998766Y-112639870D01*
X129036939Y-112547711D01*
X129056400Y-112449876D01*
X129056400Y-112358310D01*
X129693070Y-111721641D01*
X130467062Y-111721641D01*
X129543397Y-112645307D01*
X129451831Y-112645307D01*
X129353996Y-112664768D01*
X129261837Y-112702941D01*
X129178896Y-112758361D01*
X129108361Y-112828896D01*
X129052941Y-112911837D01*
X129014768Y-113003996D01*
X128995307Y-113101831D01*
X128995307Y-113201583D01*
X129014768Y-113299418D01*
X129052941Y-113391577D01*
X129108361Y-113474518D01*
X129178896Y-113545053D01*
X129261837Y-113600473D01*
X129353996Y-113638646D01*
X129451831Y-113658107D01*
X129551583Y-113658107D01*
X129649418Y-113638646D01*
X129741577Y-113600473D01*
X129824518Y-113545053D01*
X129895053Y-113474518D01*
X129950473Y-113391577D01*
X129988646Y-113299418D01*
X130008107Y-113201583D01*
X130008107Y-113110017D01*
X131091674Y-112026451D01*
X139786008Y-112026449D01*
X139802150Y-112028039D01*
X139860585Y-112022283D01*
X139866567Y-112021694D01*
X139885356Y-112015994D01*
X139928507Y-112002905D01*
X139985593Y-111972392D01*
X140023096Y-111941614D01*
X140023099Y-111941611D01*
X140035629Y-111931328D01*
X140045912Y-111918798D01*
X141171811Y-110792899D01*
X141245259Y-110792899D01*
X141245259Y-112074047D01*
X140433481Y-112885826D01*
X130779246Y-112885826D01*
X130759374Y-112883869D01*
X130739502Y-112885826D01*
X130739495Y-112885826D01*
X130680019Y-112891684D01*
X130603714Y-112914831D01*
X130533391Y-112952419D01*
X130503989Y-112976549D01*
X130487193Y-112990333D01*
X130487190Y-112990336D01*
X130471753Y-113003005D01*
X130459084Y-113018442D01*
X126251047Y-117226480D01*
X120336127Y-117226480D01*
X120282721Y-117146553D01*
X120176807Y-117040639D01*
X120052264Y-116957422D01*
X119913880Y-116900102D01*
X119766973Y-116870880D01*
X119617187Y-116870880D01*
X119470280Y-116900102D01*
X119331896Y-116957422D01*
X119207353Y-117040639D01*
X119101439Y-117146553D01*
X119018222Y-117271096D01*
X118960902Y-117409480D01*
X118931680Y-117556387D01*
X118931680Y-117706173D01*
X118960902Y-117853080D01*
X119018222Y-117991464D01*
X119101439Y-118116007D01*
X119207353Y-118221921D01*
X119331896Y-118305138D01*
X119470280Y-118362458D01*
X119617187Y-118391680D01*
X119766973Y-118391680D01*
X119913880Y-118362458D01*
X120052264Y-118305138D01*
X120176807Y-118221921D01*
X120282721Y-118116007D01*
X120336127Y-118036080D01*
X126398848Y-118036080D01*
X126418720Y-118038037D01*
X126438592Y-118036080D01*
X126438599Y-118036080D01*
X126498075Y-118030222D01*
X126574380Y-118007075D01*
X126644703Y-117969487D01*
X126706341Y-117918901D01*
X126719015Y-117903458D01*
X129379986Y-115242487D01*
X140463273Y-115242487D01*
X140561180Y-115515687D01*
X140709837Y-115744414D01*
X140900260Y-115939744D01*
X141125131Y-116094172D01*
X141375809Y-116201762D01*
X141642660Y-116258380D01*
X142577660Y-116258380D01*
X142577660Y-115029380D01*
X140575331Y-115029380D01*
X140463273Y-115242487D01*
X129379986Y-115242487D01*
X130114200Y-114508273D01*
X140463273Y-114508273D01*
X140575331Y-114721380D01*
X142577660Y-114721380D01*
X142577660Y-113492380D01*
X142885660Y-113492380D01*
X142885660Y-114721380D01*
X142905660Y-114721380D01*
X142905660Y-115029380D01*
X142885660Y-115029380D01*
X142885660Y-116258380D01*
X143820660Y-116258380D01*
X144087511Y-116201762D01*
X144338189Y-116094172D01*
X144563060Y-115939744D01*
X144753483Y-115744414D01*
X144902140Y-115515687D01*
X144917616Y-115472502D01*
X145026663Y-115605377D01*
X145183105Y-115733765D01*
X145361589Y-115829166D01*
X145555254Y-115887914D01*
X145706189Y-115902780D01*
X147677131Y-115902780D01*
X147828066Y-115887914D01*
X148021731Y-115829166D01*
X148200215Y-115733765D01*
X148356657Y-115605377D01*
X148485045Y-115448935D01*
X148580446Y-115270451D01*
X148639194Y-115076786D01*
X148659031Y-114875380D01*
X148684289Y-114875380D01*
X148704126Y-115076786D01*
X148762874Y-115270451D01*
X148858275Y-115448935D01*
X148986663Y-115605377D01*
X149143105Y-115733765D01*
X149321589Y-115829166D01*
X149515254Y-115887914D01*
X149666189Y-115902780D01*
X151637131Y-115902780D01*
X151788066Y-115887914D01*
X151981731Y-115829166D01*
X152160215Y-115733765D01*
X152316657Y-115605377D01*
X152445045Y-115448935D01*
X152540446Y-115270451D01*
X152599194Y-115076786D01*
X152619031Y-114875380D01*
X152644289Y-114875380D01*
X152664126Y-115076786D01*
X152722874Y-115270451D01*
X152818275Y-115448935D01*
X152946663Y-115605377D01*
X153103105Y-115733765D01*
X153281589Y-115829166D01*
X153475254Y-115887914D01*
X153626189Y-115902780D01*
X155597131Y-115902780D01*
X155748066Y-115887914D01*
X155941731Y-115829166D01*
X156120215Y-115733765D01*
X156276657Y-115605377D01*
X156405045Y-115448935D01*
X156500446Y-115270451D01*
X156559194Y-115076786D01*
X156579031Y-114875380D01*
X156604289Y-114875380D01*
X156624126Y-115076786D01*
X156682874Y-115270451D01*
X156778275Y-115448935D01*
X156906663Y-115605377D01*
X157063105Y-115733765D01*
X157241589Y-115829166D01*
X157435254Y-115887914D01*
X157586189Y-115902780D01*
X159557131Y-115902780D01*
X159708066Y-115887914D01*
X159901731Y-115829166D01*
X160080215Y-115733765D01*
X160236657Y-115605377D01*
X160365045Y-115448935D01*
X160460446Y-115270451D01*
X160519194Y-115076786D01*
X160539031Y-114875380D01*
X160564289Y-114875380D01*
X160584126Y-115076786D01*
X160642874Y-115270451D01*
X160738275Y-115448935D01*
X160866663Y-115605377D01*
X161023105Y-115733765D01*
X161201589Y-115829166D01*
X161395254Y-115887914D01*
X161546189Y-115902780D01*
X163517131Y-115902780D01*
X163668066Y-115887914D01*
X163861731Y-115829166D01*
X164040215Y-115733765D01*
X164196657Y-115605377D01*
X164325045Y-115448935D01*
X164420446Y-115270451D01*
X164479194Y-115076786D01*
X164499031Y-114875380D01*
X164524289Y-114875380D01*
X164544126Y-115076786D01*
X164602874Y-115270451D01*
X164698275Y-115448935D01*
X164826663Y-115605377D01*
X164983105Y-115733765D01*
X165161589Y-115829166D01*
X165355254Y-115887914D01*
X165506189Y-115902780D01*
X167477131Y-115902780D01*
X167628066Y-115887914D01*
X167821731Y-115829166D01*
X168000215Y-115733765D01*
X168156657Y-115605377D01*
X168285045Y-115448935D01*
X168380446Y-115270451D01*
X168439194Y-115076786D01*
X168459031Y-114875380D01*
X168484289Y-114875380D01*
X168504126Y-115076786D01*
X168562874Y-115270451D01*
X168658275Y-115448935D01*
X168786663Y-115605377D01*
X168943105Y-115733765D01*
X169121589Y-115829166D01*
X169315254Y-115887914D01*
X169466189Y-115902780D01*
X171437131Y-115902780D01*
X171588066Y-115887914D01*
X171781731Y-115829166D01*
X171960215Y-115733765D01*
X172116657Y-115605377D01*
X172245045Y-115448935D01*
X172340446Y-115270451D01*
X172399194Y-115076786D01*
X172419031Y-114875380D01*
X172444289Y-114875380D01*
X172464126Y-115076786D01*
X172522874Y-115270451D01*
X172618275Y-115448935D01*
X172746663Y-115605377D01*
X172903105Y-115733765D01*
X173081589Y-115829166D01*
X173275254Y-115887914D01*
X173426189Y-115902780D01*
X175397131Y-115902780D01*
X175548066Y-115887914D01*
X175741731Y-115829166D01*
X175920215Y-115733765D01*
X176076657Y-115605377D01*
X176205045Y-115448935D01*
X176300446Y-115270451D01*
X176359194Y-115076786D01*
X176379031Y-114875380D01*
X176404289Y-114875380D01*
X176424126Y-115076786D01*
X176482874Y-115270451D01*
X176578275Y-115448935D01*
X176706663Y-115605377D01*
X176863105Y-115733765D01*
X177041589Y-115829166D01*
X177235254Y-115887914D01*
X177386189Y-115902780D01*
X179357131Y-115902780D01*
X179508066Y-115887914D01*
X179701731Y-115829166D01*
X179880215Y-115733765D01*
X180036657Y-115605377D01*
X180165045Y-115448935D01*
X180260446Y-115270451D01*
X180319194Y-115076786D01*
X180339031Y-114875380D01*
X180364289Y-114875380D01*
X180384126Y-115076786D01*
X180442874Y-115270451D01*
X180538275Y-115448935D01*
X180666663Y-115605377D01*
X180823105Y-115733765D01*
X181001589Y-115829166D01*
X181195254Y-115887914D01*
X181346189Y-115902780D01*
X183317131Y-115902780D01*
X183468066Y-115887914D01*
X183661731Y-115829166D01*
X183840215Y-115733765D01*
X183996657Y-115605377D01*
X184125045Y-115448935D01*
X184220446Y-115270451D01*
X184279194Y-115076786D01*
X184299031Y-114875380D01*
X184324289Y-114875380D01*
X184344126Y-115076786D01*
X184402874Y-115270451D01*
X184498275Y-115448935D01*
X184626663Y-115605377D01*
X184783105Y-115733765D01*
X184961589Y-115829166D01*
X185155254Y-115887914D01*
X185306189Y-115902780D01*
X187277131Y-115902780D01*
X187428066Y-115887914D01*
X187621731Y-115829166D01*
X187800215Y-115733765D01*
X187956657Y-115605377D01*
X188085045Y-115448935D01*
X188180446Y-115270451D01*
X188239194Y-115076786D01*
X188259031Y-114875380D01*
X188284289Y-114875380D01*
X188304126Y-115076786D01*
X188362874Y-115270451D01*
X188458275Y-115448935D01*
X188586663Y-115605377D01*
X188743105Y-115733765D01*
X188921589Y-115829166D01*
X189115254Y-115887914D01*
X189266189Y-115902780D01*
X191237131Y-115902780D01*
X191388066Y-115887914D01*
X191581731Y-115829166D01*
X191760215Y-115733765D01*
X191916657Y-115605377D01*
X192045045Y-115448935D01*
X192140446Y-115270451D01*
X192199194Y-115076786D01*
X192219031Y-114875380D01*
X192244289Y-114875380D01*
X192264126Y-115076786D01*
X192322874Y-115270451D01*
X192418275Y-115448935D01*
X192546663Y-115605377D01*
X192703105Y-115733765D01*
X192881589Y-115829166D01*
X193075254Y-115887914D01*
X193226189Y-115902780D01*
X195197131Y-115902780D01*
X195348066Y-115887914D01*
X195541731Y-115829166D01*
X195720215Y-115733765D01*
X195876657Y-115605377D01*
X196005045Y-115448935D01*
X196100446Y-115270451D01*
X196159194Y-115076786D01*
X196179031Y-114875380D01*
X196204289Y-114875380D01*
X196224126Y-115076786D01*
X196282874Y-115270451D01*
X196378275Y-115448935D01*
X196506663Y-115605377D01*
X196663105Y-115733765D01*
X196841589Y-115829166D01*
X197035254Y-115887914D01*
X197186189Y-115902780D01*
X199157131Y-115902780D01*
X199308066Y-115887914D01*
X199501731Y-115829166D01*
X199680215Y-115733765D01*
X199836657Y-115605377D01*
X199965045Y-115448935D01*
X200060446Y-115270451D01*
X200119194Y-115076786D01*
X200139031Y-114875380D01*
X200164289Y-114875380D01*
X200184126Y-115076786D01*
X200242874Y-115270451D01*
X200338275Y-115448935D01*
X200466663Y-115605377D01*
X200623105Y-115733765D01*
X200801589Y-115829166D01*
X200995254Y-115887914D01*
X201146189Y-115902780D01*
X203117131Y-115902780D01*
X203268066Y-115887914D01*
X203461731Y-115829166D01*
X203640215Y-115733765D01*
X203796657Y-115605377D01*
X203925045Y-115448935D01*
X204020446Y-115270451D01*
X204079194Y-115076786D01*
X204099031Y-114875380D01*
X204124289Y-114875380D01*
X204144126Y-115076786D01*
X204202874Y-115270451D01*
X204298275Y-115448935D01*
X204426663Y-115605377D01*
X204583105Y-115733765D01*
X204761589Y-115829166D01*
X204955254Y-115887914D01*
X205106189Y-115902780D01*
X207077131Y-115902780D01*
X207228066Y-115887914D01*
X207421731Y-115829166D01*
X207600215Y-115733765D01*
X207756657Y-115605377D01*
X207885045Y-115448935D01*
X207980446Y-115270451D01*
X208039194Y-115076786D01*
X208059031Y-114875380D01*
X208084289Y-114875380D01*
X208104126Y-115076786D01*
X208162874Y-115270451D01*
X208258275Y-115448935D01*
X208386663Y-115605377D01*
X208543105Y-115733765D01*
X208721589Y-115829166D01*
X208915254Y-115887914D01*
X209066189Y-115902780D01*
X211037131Y-115902780D01*
X211188066Y-115887914D01*
X211381731Y-115829166D01*
X211560215Y-115733765D01*
X211716657Y-115605377D01*
X211845045Y-115448935D01*
X211940446Y-115270451D01*
X211999194Y-115076786D01*
X212019031Y-114875380D01*
X212044289Y-114875380D01*
X212064126Y-115076786D01*
X212122874Y-115270451D01*
X212218275Y-115448935D01*
X212346663Y-115605377D01*
X212503105Y-115733765D01*
X212681589Y-115829166D01*
X212875254Y-115887914D01*
X213026189Y-115902780D01*
X214997131Y-115902780D01*
X215148066Y-115887914D01*
X215341731Y-115829166D01*
X215520215Y-115733765D01*
X215676657Y-115605377D01*
X215805045Y-115448935D01*
X215900446Y-115270451D01*
X215959194Y-115076786D01*
X215979031Y-114875380D01*
X216004289Y-114875380D01*
X216024126Y-115076786D01*
X216082874Y-115270451D01*
X216178275Y-115448935D01*
X216306663Y-115605377D01*
X216463105Y-115733765D01*
X216641589Y-115829166D01*
X216835254Y-115887914D01*
X216986189Y-115902780D01*
X218957131Y-115902780D01*
X219108066Y-115887914D01*
X219301731Y-115829166D01*
X219480215Y-115733765D01*
X219636657Y-115605377D01*
X219765045Y-115448935D01*
X219860446Y-115270451D01*
X219919194Y-115076786D01*
X219939031Y-114875380D01*
X219964289Y-114875380D01*
X219984126Y-115076786D01*
X220042874Y-115270451D01*
X220138275Y-115448935D01*
X220266663Y-115605377D01*
X220423105Y-115733765D01*
X220601589Y-115829166D01*
X220795254Y-115887914D01*
X220946189Y-115902780D01*
X222917131Y-115902780D01*
X223068066Y-115887914D01*
X223261731Y-115829166D01*
X223440215Y-115733765D01*
X223596657Y-115605377D01*
X223725045Y-115448935D01*
X223820446Y-115270451D01*
X223879194Y-115076786D01*
X223899031Y-114875380D01*
X223924289Y-114875380D01*
X223944126Y-115076786D01*
X224002874Y-115270451D01*
X224098275Y-115448935D01*
X224226663Y-115605377D01*
X224383105Y-115733765D01*
X224561589Y-115829166D01*
X224755254Y-115887914D01*
X224906189Y-115902780D01*
X226877131Y-115902780D01*
X227028066Y-115887914D01*
X227221731Y-115829166D01*
X227400215Y-115733765D01*
X227556657Y-115605377D01*
X227685045Y-115448935D01*
X227780446Y-115270451D01*
X227839194Y-115076786D01*
X227859031Y-114875380D01*
X227884289Y-114875380D01*
X227904126Y-115076786D01*
X227962874Y-115270451D01*
X228058275Y-115448935D01*
X228186663Y-115605377D01*
X228343105Y-115733765D01*
X228521589Y-115829166D01*
X228715254Y-115887914D01*
X228866189Y-115902780D01*
X230837131Y-115902780D01*
X230988066Y-115887914D01*
X231181731Y-115829166D01*
X231360215Y-115733765D01*
X231516657Y-115605377D01*
X231645045Y-115448935D01*
X231740446Y-115270451D01*
X231799194Y-115076786D01*
X231819031Y-114875380D01*
X231844289Y-114875380D01*
X231864126Y-115076786D01*
X231922874Y-115270451D01*
X232018275Y-115448935D01*
X232146663Y-115605377D01*
X232303105Y-115733765D01*
X232481589Y-115829166D01*
X232675254Y-115887914D01*
X232826189Y-115902780D01*
X234797131Y-115902780D01*
X234948066Y-115887914D01*
X235141731Y-115829166D01*
X235320215Y-115733765D01*
X235476657Y-115605377D01*
X235605045Y-115448935D01*
X235700446Y-115270451D01*
X235759194Y-115076786D01*
X235779031Y-114875380D01*
X235759194Y-114673974D01*
X235700446Y-114480309D01*
X235605045Y-114301825D01*
X235476657Y-114145383D01*
X235320215Y-114016995D01*
X235141731Y-113921594D01*
X234948066Y-113862846D01*
X234797131Y-113847980D01*
X232826189Y-113847980D01*
X232675254Y-113862846D01*
X232481589Y-113921594D01*
X232303105Y-114016995D01*
X232146663Y-114145383D01*
X232018275Y-114301825D01*
X231922874Y-114480309D01*
X231864126Y-114673974D01*
X231844289Y-114875380D01*
X231819031Y-114875380D01*
X231799194Y-114673974D01*
X231740446Y-114480309D01*
X231645045Y-114301825D01*
X231516657Y-114145383D01*
X231360215Y-114016995D01*
X231181731Y-113921594D01*
X230988066Y-113862846D01*
X230837131Y-113847980D01*
X228866189Y-113847980D01*
X228715254Y-113862846D01*
X228521589Y-113921594D01*
X228343105Y-114016995D01*
X228186663Y-114145383D01*
X228058275Y-114301825D01*
X227962874Y-114480309D01*
X227904126Y-114673974D01*
X227884289Y-114875380D01*
X227859031Y-114875380D01*
X227839194Y-114673974D01*
X227780446Y-114480309D01*
X227685045Y-114301825D01*
X227556657Y-114145383D01*
X227400215Y-114016995D01*
X227221731Y-113921594D01*
X227028066Y-113862846D01*
X226877131Y-113847980D01*
X224906189Y-113847980D01*
X224755254Y-113862846D01*
X224561589Y-113921594D01*
X224383105Y-114016995D01*
X224226663Y-114145383D01*
X224098275Y-114301825D01*
X224002874Y-114480309D01*
X223944126Y-114673974D01*
X223924289Y-114875380D01*
X223899031Y-114875380D01*
X223879194Y-114673974D01*
X223820446Y-114480309D01*
X223725045Y-114301825D01*
X223596657Y-114145383D01*
X223440215Y-114016995D01*
X223261731Y-113921594D01*
X223068066Y-113862846D01*
X222917131Y-113847980D01*
X220946189Y-113847980D01*
X220795254Y-113862846D01*
X220601589Y-113921594D01*
X220423105Y-114016995D01*
X220266663Y-114145383D01*
X220138275Y-114301825D01*
X220042874Y-114480309D01*
X219984126Y-114673974D01*
X219964289Y-114875380D01*
X219939031Y-114875380D01*
X219919194Y-114673974D01*
X219860446Y-114480309D01*
X219765045Y-114301825D01*
X219636657Y-114145383D01*
X219480215Y-114016995D01*
X219301731Y-113921594D01*
X219108066Y-113862846D01*
X218957131Y-113847980D01*
X216986189Y-113847980D01*
X216835254Y-113862846D01*
X216641589Y-113921594D01*
X216463105Y-114016995D01*
X216306663Y-114145383D01*
X216178275Y-114301825D01*
X216082874Y-114480309D01*
X216024126Y-114673974D01*
X216004289Y-114875380D01*
X215979031Y-114875380D01*
X215959194Y-114673974D01*
X215900446Y-114480309D01*
X215805045Y-114301825D01*
X215676657Y-114145383D01*
X215520215Y-114016995D01*
X215341731Y-113921594D01*
X215148066Y-113862846D01*
X214997131Y-113847980D01*
X213026189Y-113847980D01*
X212875254Y-113862846D01*
X212681589Y-113921594D01*
X212503105Y-114016995D01*
X212346663Y-114145383D01*
X212218275Y-114301825D01*
X212122874Y-114480309D01*
X212064126Y-114673974D01*
X212044289Y-114875380D01*
X212019031Y-114875380D01*
X211999194Y-114673974D01*
X211940446Y-114480309D01*
X211845045Y-114301825D01*
X211716657Y-114145383D01*
X211560215Y-114016995D01*
X211381731Y-113921594D01*
X211188066Y-113862846D01*
X211037131Y-113847980D01*
X209066189Y-113847980D01*
X208915254Y-113862846D01*
X208721589Y-113921594D01*
X208543105Y-114016995D01*
X208386663Y-114145383D01*
X208258275Y-114301825D01*
X208162874Y-114480309D01*
X208104126Y-114673974D01*
X208084289Y-114875380D01*
X208059031Y-114875380D01*
X208039194Y-114673974D01*
X207980446Y-114480309D01*
X207885045Y-114301825D01*
X207756657Y-114145383D01*
X207600215Y-114016995D01*
X207421731Y-113921594D01*
X207228066Y-113862846D01*
X207077131Y-113847980D01*
X205106189Y-113847980D01*
X204955254Y-113862846D01*
X204761589Y-113921594D01*
X204583105Y-114016995D01*
X204426663Y-114145383D01*
X204298275Y-114301825D01*
X204202874Y-114480309D01*
X204144126Y-114673974D01*
X204124289Y-114875380D01*
X204099031Y-114875380D01*
X204079194Y-114673974D01*
X204020446Y-114480309D01*
X203925045Y-114301825D01*
X203796657Y-114145383D01*
X203640215Y-114016995D01*
X203461731Y-113921594D01*
X203268066Y-113862846D01*
X203117131Y-113847980D01*
X201146189Y-113847980D01*
X200995254Y-113862846D01*
X200801589Y-113921594D01*
X200623105Y-114016995D01*
X200466663Y-114145383D01*
X200338275Y-114301825D01*
X200242874Y-114480309D01*
X200184126Y-114673974D01*
X200164289Y-114875380D01*
X200139031Y-114875380D01*
X200119194Y-114673974D01*
X200060446Y-114480309D01*
X199965045Y-114301825D01*
X199836657Y-114145383D01*
X199680215Y-114016995D01*
X199501731Y-113921594D01*
X199308066Y-113862846D01*
X199157131Y-113847980D01*
X197186189Y-113847980D01*
X197035254Y-113862846D01*
X196841589Y-113921594D01*
X196663105Y-114016995D01*
X196506663Y-114145383D01*
X196378275Y-114301825D01*
X196282874Y-114480309D01*
X196224126Y-114673974D01*
X196204289Y-114875380D01*
X196179031Y-114875380D01*
X196159194Y-114673974D01*
X196100446Y-114480309D01*
X196005045Y-114301825D01*
X195876657Y-114145383D01*
X195720215Y-114016995D01*
X195541731Y-113921594D01*
X195348066Y-113862846D01*
X195197131Y-113847980D01*
X193226189Y-113847980D01*
X193075254Y-113862846D01*
X192881589Y-113921594D01*
X192703105Y-114016995D01*
X192546663Y-114145383D01*
X192418275Y-114301825D01*
X192322874Y-114480309D01*
X192264126Y-114673974D01*
X192244289Y-114875380D01*
X192219031Y-114875380D01*
X192199194Y-114673974D01*
X192140446Y-114480309D01*
X192045045Y-114301825D01*
X191916657Y-114145383D01*
X191760215Y-114016995D01*
X191581731Y-113921594D01*
X191388066Y-113862846D01*
X191237131Y-113847980D01*
X189266189Y-113847980D01*
X189115254Y-113862846D01*
X188921589Y-113921594D01*
X188743105Y-114016995D01*
X188586663Y-114145383D01*
X188458275Y-114301825D01*
X188362874Y-114480309D01*
X188304126Y-114673974D01*
X188284289Y-114875380D01*
X188259031Y-114875380D01*
X188239194Y-114673974D01*
X188180446Y-114480309D01*
X188085045Y-114301825D01*
X187956657Y-114145383D01*
X187800215Y-114016995D01*
X187621731Y-113921594D01*
X187428066Y-113862846D01*
X187277131Y-113847980D01*
X185306189Y-113847980D01*
X185155254Y-113862846D01*
X184961589Y-113921594D01*
X184783105Y-114016995D01*
X184626663Y-114145383D01*
X184498275Y-114301825D01*
X184402874Y-114480309D01*
X184344126Y-114673974D01*
X184324289Y-114875380D01*
X184299031Y-114875380D01*
X184279194Y-114673974D01*
X184220446Y-114480309D01*
X184125045Y-114301825D01*
X183996657Y-114145383D01*
X183840215Y-114016995D01*
X183661731Y-113921594D01*
X183468066Y-113862846D01*
X183317131Y-113847980D01*
X181346189Y-113847980D01*
X181195254Y-113862846D01*
X181001589Y-113921594D01*
X180823105Y-114016995D01*
X180666663Y-114145383D01*
X180538275Y-114301825D01*
X180442874Y-114480309D01*
X180384126Y-114673974D01*
X180364289Y-114875380D01*
X180339031Y-114875380D01*
X180319194Y-114673974D01*
X180260446Y-114480309D01*
X180165045Y-114301825D01*
X180036657Y-114145383D01*
X179880215Y-114016995D01*
X179701731Y-113921594D01*
X179508066Y-113862846D01*
X179357131Y-113847980D01*
X177386189Y-113847980D01*
X177235254Y-113862846D01*
X177041589Y-113921594D01*
X176863105Y-114016995D01*
X176706663Y-114145383D01*
X176578275Y-114301825D01*
X176482874Y-114480309D01*
X176424126Y-114673974D01*
X176404289Y-114875380D01*
X176379031Y-114875380D01*
X176359194Y-114673974D01*
X176300446Y-114480309D01*
X176205045Y-114301825D01*
X176076657Y-114145383D01*
X175920215Y-114016995D01*
X175741731Y-113921594D01*
X175548066Y-113862846D01*
X175397131Y-113847980D01*
X173426189Y-113847980D01*
X173275254Y-113862846D01*
X173081589Y-113921594D01*
X172903105Y-114016995D01*
X172746663Y-114145383D01*
X172618275Y-114301825D01*
X172522874Y-114480309D01*
X172464126Y-114673974D01*
X172444289Y-114875380D01*
X172419031Y-114875380D01*
X172399194Y-114673974D01*
X172340446Y-114480309D01*
X172245045Y-114301825D01*
X172116657Y-114145383D01*
X171960215Y-114016995D01*
X171781731Y-113921594D01*
X171588066Y-113862846D01*
X171437131Y-113847980D01*
X169466189Y-113847980D01*
X169315254Y-113862846D01*
X169121589Y-113921594D01*
X168943105Y-114016995D01*
X168786663Y-114145383D01*
X168658275Y-114301825D01*
X168562874Y-114480309D01*
X168504126Y-114673974D01*
X168484289Y-114875380D01*
X168459031Y-114875380D01*
X168439194Y-114673974D01*
X168380446Y-114480309D01*
X168285045Y-114301825D01*
X168156657Y-114145383D01*
X168000215Y-114016995D01*
X167821731Y-113921594D01*
X167628066Y-113862846D01*
X167477131Y-113847980D01*
X165506189Y-113847980D01*
X165355254Y-113862846D01*
X165161589Y-113921594D01*
X164983105Y-114016995D01*
X164826663Y-114145383D01*
X164698275Y-114301825D01*
X164602874Y-114480309D01*
X164544126Y-114673974D01*
X164524289Y-114875380D01*
X164499031Y-114875380D01*
X164479194Y-114673974D01*
X164420446Y-114480309D01*
X164325045Y-114301825D01*
X164196657Y-114145383D01*
X164040215Y-114016995D01*
X163861731Y-113921594D01*
X163668066Y-113862846D01*
X163517131Y-113847980D01*
X161546189Y-113847980D01*
X161395254Y-113862846D01*
X161201589Y-113921594D01*
X161023105Y-114016995D01*
X160866663Y-114145383D01*
X160738275Y-114301825D01*
X160642874Y-114480309D01*
X160584126Y-114673974D01*
X160564289Y-114875380D01*
X160539031Y-114875380D01*
X160519194Y-114673974D01*
X160460446Y-114480309D01*
X160365045Y-114301825D01*
X160236657Y-114145383D01*
X160080215Y-114016995D01*
X159901731Y-113921594D01*
X159708066Y-113862846D01*
X159557131Y-113847980D01*
X157586189Y-113847980D01*
X157435254Y-113862846D01*
X157241589Y-113921594D01*
X157063105Y-114016995D01*
X156906663Y-114145383D01*
X156778275Y-114301825D01*
X156682874Y-114480309D01*
X156624126Y-114673974D01*
X156604289Y-114875380D01*
X156579031Y-114875380D01*
X156559194Y-114673974D01*
X156500446Y-114480309D01*
X156405045Y-114301825D01*
X156276657Y-114145383D01*
X156120215Y-114016995D01*
X155941731Y-113921594D01*
X155748066Y-113862846D01*
X155597131Y-113847980D01*
X153626189Y-113847980D01*
X153475254Y-113862846D01*
X153281589Y-113921594D01*
X153103105Y-114016995D01*
X152946663Y-114145383D01*
X152818275Y-114301825D01*
X152722874Y-114480309D01*
X152664126Y-114673974D01*
X152644289Y-114875380D01*
X152619031Y-114875380D01*
X152599194Y-114673974D01*
X152540446Y-114480309D01*
X152445045Y-114301825D01*
X152316657Y-114145383D01*
X152160215Y-114016995D01*
X151981731Y-113921594D01*
X151788066Y-113862846D01*
X151637131Y-113847980D01*
X149666189Y-113847980D01*
X149515254Y-113862846D01*
X149321589Y-113921594D01*
X149143105Y-114016995D01*
X148986663Y-114145383D01*
X148858275Y-114301825D01*
X148762874Y-114480309D01*
X148704126Y-114673974D01*
X148684289Y-114875380D01*
X148659031Y-114875380D01*
X148639194Y-114673974D01*
X148580446Y-114480309D01*
X148485045Y-114301825D01*
X148356657Y-114145383D01*
X148200215Y-114016995D01*
X148021731Y-113921594D01*
X147828066Y-113862846D01*
X147677131Y-113847980D01*
X145706189Y-113847980D01*
X145555254Y-113862846D01*
X145361589Y-113921594D01*
X145183105Y-114016995D01*
X145026663Y-114145383D01*
X144917616Y-114278258D01*
X144902140Y-114235073D01*
X144753483Y-114006346D01*
X144563060Y-113811016D01*
X144338189Y-113656588D01*
X144087511Y-113548998D01*
X143820660Y-113492380D01*
X142885660Y-113492380D01*
X142577660Y-113492380D01*
X141642660Y-113492380D01*
X141375809Y-113548998D01*
X141125131Y-113656588D01*
X140900260Y-113811016D01*
X140709837Y-114006346D01*
X140561180Y-114235073D01*
X140463273Y-114508273D01*
X130114200Y-114508273D01*
X130927048Y-113695426D01*
X140581282Y-113695426D01*
X140601154Y-113697383D01*
X140621026Y-113695426D01*
X140621033Y-113695426D01*
X140680509Y-113689568D01*
X140756814Y-113666421D01*
X140827137Y-113628833D01*
X140888775Y-113578247D01*
X140901449Y-113562804D01*
X141817733Y-112646521D01*
X143198880Y-112646521D01*
X143248359Y-112641648D01*
X143295937Y-112627215D01*
X143339784Y-112603778D01*
X143378217Y-112572237D01*
X143409758Y-112533804D01*
X143433195Y-112489957D01*
X143447628Y-112442379D01*
X143452501Y-112392900D01*
X143452501Y-110792899D01*
X144079852Y-110792899D01*
X144032590Y-110840161D01*
X143911946Y-111020718D01*
X143828845Y-111221342D01*
X143786480Y-111434323D01*
X143786480Y-111651477D01*
X143828845Y-111864458D01*
X143911946Y-112065082D01*
X144032590Y-112245639D01*
X144186141Y-112399190D01*
X144366698Y-112519834D01*
X144567322Y-112602935D01*
X144780303Y-112645300D01*
X144997457Y-112645300D01*
X145210438Y-112602935D01*
X145411062Y-112519834D01*
X145591619Y-112399190D01*
X145689024Y-112301785D01*
X146229689Y-112842450D01*
X146239972Y-112854980D01*
X146252502Y-112865263D01*
X146252504Y-112865265D01*
X146290007Y-112896043D01*
X146304428Y-112903751D01*
X146347093Y-112926556D01*
X146409034Y-112945346D01*
X146457316Y-112950101D01*
X146457318Y-112950101D01*
X146473450Y-112951690D01*
X146489582Y-112950101D01*
X147930477Y-112950101D01*
X147946609Y-112951690D01*
X147962741Y-112950101D01*
X147962744Y-112950101D01*
X148011026Y-112945346D01*
X148072967Y-112926556D01*
X148130052Y-112896043D01*
X148180088Y-112854980D01*
X148190375Y-112842445D01*
X148728425Y-112304395D01*
X148740960Y-112294108D01*
X148768063Y-112261083D01*
X148782023Y-112244073D01*
X148812536Y-112186987D01*
X148831326Y-112125046D01*
X148836081Y-112076764D01*
X148836081Y-112076761D01*
X148837670Y-112060629D01*
X148836081Y-112044497D01*
X148836081Y-111041303D01*
X148837670Y-111025171D01*
X148835621Y-111004368D01*
X148831326Y-110960754D01*
X148812536Y-110898813D01*
X148803814Y-110882496D01*
X148782023Y-110841727D01*
X148751245Y-110804225D01*
X148740960Y-110791692D01*
X148728426Y-110781406D01*
X148189672Y-110242652D01*
X148389002Y-110100146D01*
X148584616Y-109891752D01*
X148735815Y-109649200D01*
X148836789Y-109381811D01*
X148726730Y-109156900D01*
X147582880Y-109156900D01*
X147582880Y-109176900D01*
X147274880Y-109176900D01*
X147274880Y-109156900D01*
X147254880Y-109156900D01*
X147254880Y-108848900D01*
X147274880Y-108848900D01*
X147274880Y-107706011D01*
X147582880Y-107706011D01*
X147582880Y-108848900D01*
X148726730Y-108848900D01*
X148836789Y-108623989D01*
X148735815Y-108356600D01*
X148584616Y-108114048D01*
X148389002Y-107905654D01*
X148156491Y-107739427D01*
X147896019Y-107621754D01*
X147807790Y-107594997D01*
X147582880Y-107706011D01*
X147274880Y-107706011D01*
X147049970Y-107594997D01*
X146961741Y-107621754D01*
X146701269Y-107739427D01*
X146468758Y-107905654D01*
X146273144Y-108114048D01*
X146121945Y-108356600D01*
X146020971Y-108623989D01*
X146131029Y-108848898D01*
X145982244Y-108848898D01*
X145948915Y-108681342D01*
X145865814Y-108480718D01*
X145745170Y-108300161D01*
X145591619Y-108146610D01*
X145411062Y-108025966D01*
X145210438Y-107942865D01*
X144997457Y-107900500D01*
X144780303Y-107900500D01*
X144567322Y-107942865D01*
X144373740Y-108023049D01*
X144054045Y-107703355D01*
X144043758Y-107690820D01*
X143993722Y-107649757D01*
X143936637Y-107619244D01*
X143874696Y-107600454D01*
X143826414Y-107595699D01*
X143826411Y-107595699D01*
X143810279Y-107594110D01*
X143794147Y-107595699D01*
X141847282Y-107595699D01*
X141831150Y-107594110D01*
X141815018Y-107595699D01*
X141815016Y-107595699D01*
X141766734Y-107600454D01*
X141704793Y-107619244D01*
X141670450Y-107637601D01*
X141647707Y-107649757D01*
X141631031Y-107663443D01*
X141597672Y-107690820D01*
X141587389Y-107703350D01*
X140370257Y-108920483D01*
X140357722Y-108930770D01*
X140347437Y-108943303D01*
X140316659Y-108980806D01*
X140304850Y-109002899D01*
X140286146Y-109037892D01*
X140267356Y-109099833D01*
X140262601Y-109148114D01*
X140261012Y-109164249D01*
X140262601Y-109180381D01*
X140262601Y-109479490D01*
X139287271Y-110454821D01*
X129037404Y-110454823D01*
X129021262Y-110453233D01*
X128956845Y-110459578D01*
X128894904Y-110478367D01*
X128837819Y-110508879D01*
X128800316Y-110539658D01*
X128800313Y-110539661D01*
X128787783Y-110549944D01*
X128777500Y-110562474D01*
X124223384Y-115116590D01*
X114639874Y-115116592D01*
X114623742Y-115115003D01*
X114607610Y-115116592D01*
X114607608Y-115116592D01*
X114559326Y-115121347D01*
X114516174Y-115134437D01*
X114497384Y-115140137D01*
X114440299Y-115170649D01*
X114402796Y-115201427D01*
X114402788Y-115201435D01*
X114390264Y-115211713D01*
X114379986Y-115224237D01*
X112424246Y-117179978D01*
X112411711Y-117190265D01*
X112401426Y-117202798D01*
X112370648Y-117240301D01*
X112351856Y-117275458D01*
X112340135Y-117297387D01*
X112321345Y-117359328D01*
X112317324Y-117400159D01*
X112315001Y-117423744D01*
X112316590Y-117439876D01*
X112316591Y-123037424D01*
X112229926Y-123054663D01*
X112038402Y-123133995D01*
X111866034Y-123249168D01*
X111719448Y-123395754D01*
X111604275Y-123568122D01*
X111524943Y-123759646D01*
X111484500Y-123962968D01*
X111484500Y-124170272D01*
X111524943Y-124373594D01*
X111604275Y-124565118D01*
X111719448Y-124737486D01*
X111748583Y-124766621D01*
X111161612Y-124766621D01*
X111050521Y-124655530D01*
X111050521Y-123266620D01*
X111045648Y-123217141D01*
X111031215Y-123169563D01*
X111007778Y-123125716D01*
X110976237Y-123087283D01*
X110937804Y-123055742D01*
X110893957Y-123032305D01*
X110846379Y-123017872D01*
X110796900Y-123012999D01*
X109196900Y-123012999D01*
X109147421Y-123017872D01*
X109099843Y-123032305D01*
X109055996Y-123055742D01*
X109017563Y-123087283D01*
X108986022Y-123125716D01*
X108962585Y-123169563D01*
X108948152Y-123217141D01*
X108943279Y-123266620D01*
X107927000Y-123266620D01*
X107927000Y-121118410D01*
X109321600Y-121118410D01*
X109321600Y-121281590D01*
X109353435Y-121441635D01*
X109415882Y-121592394D01*
X109506540Y-121728074D01*
X109621926Y-121843460D01*
X109757606Y-121934118D01*
X109908365Y-121996565D01*
X110068410Y-122028400D01*
X110231590Y-122028400D01*
X110391635Y-121996565D01*
X110542394Y-121934118D01*
X110678074Y-121843460D01*
X110793460Y-121728074D01*
X110884118Y-121592394D01*
X110946565Y-121441635D01*
X110978400Y-121281590D01*
X110978400Y-121118410D01*
X110946565Y-120958365D01*
X110884118Y-120807606D01*
X110793460Y-120671926D01*
X110678074Y-120556540D01*
X110542394Y-120465882D01*
X110391635Y-120403435D01*
X110231590Y-120371600D01*
X110068410Y-120371600D01*
X109908365Y-120403435D01*
X109757606Y-120465882D01*
X109621926Y-120556540D01*
X109506540Y-120671926D01*
X109415882Y-120807606D01*
X109353435Y-120958365D01*
X109321600Y-121118410D01*
X107927000Y-121118410D01*
X107927000Y-110948993D01*
X115869580Y-110948993D01*
X115869580Y-111057807D01*
X115890808Y-111164529D01*
X115932449Y-111265060D01*
X115992903Y-111355535D01*
X116069845Y-111432477D01*
X116160320Y-111492931D01*
X116260851Y-111534572D01*
X116367573Y-111555800D01*
X118876387Y-111555800D01*
X118983109Y-111534572D01*
X119083640Y-111492931D01*
X119174115Y-111432477D01*
X119251057Y-111355535D01*
X119311511Y-111265060D01*
X119353152Y-111164529D01*
X119374380Y-111057807D01*
X119374380Y-110948993D01*
X119353152Y-110842271D01*
X119311511Y-110741740D01*
X119251057Y-110651265D01*
X119174115Y-110574323D01*
X119083640Y-110513869D01*
X118983109Y-110472228D01*
X118876387Y-110451000D01*
X116367573Y-110451000D01*
X116260851Y-110472228D01*
X116160320Y-110513869D01*
X116069845Y-110574323D01*
X115992903Y-110651265D01*
X115932449Y-110741740D01*
X115890808Y-110842271D01*
X115869580Y-110948993D01*
X107927000Y-110948993D01*
X107927000Y-108722968D01*
X108944500Y-108722968D01*
X108944500Y-108930272D01*
X108984943Y-109133594D01*
X109064275Y-109325118D01*
X109179448Y-109497486D01*
X109326034Y-109644072D01*
X109498402Y-109759245D01*
X109689926Y-109838577D01*
X109893248Y-109879020D01*
X110100552Y-109879020D01*
X110303874Y-109838577D01*
X110495398Y-109759245D01*
X110667766Y-109644072D01*
X110814352Y-109497486D01*
X110929525Y-109325118D01*
X111008857Y-109133594D01*
X111049300Y-108930272D01*
X111049300Y-108722968D01*
X111484500Y-108722968D01*
X111484500Y-108930272D01*
X111524943Y-109133594D01*
X111604275Y-109325118D01*
X111719448Y-109497486D01*
X111866034Y-109644072D01*
X112038402Y-109759245D01*
X112229926Y-109838577D01*
X112433248Y-109879020D01*
X112640552Y-109879020D01*
X112843874Y-109838577D01*
X113035398Y-109759245D01*
X113207766Y-109644072D01*
X113354352Y-109497486D01*
X113469525Y-109325118D01*
X113548857Y-109133594D01*
X113589300Y-108930272D01*
X113589300Y-108722968D01*
X114024500Y-108722968D01*
X114024500Y-108930272D01*
X114064943Y-109133594D01*
X114144275Y-109325118D01*
X114259448Y-109497486D01*
X114406034Y-109644072D01*
X114578402Y-109759245D01*
X114769926Y-109838577D01*
X114973248Y-109879020D01*
X115180552Y-109879020D01*
X115383874Y-109838577D01*
X115575398Y-109759245D01*
X115747766Y-109644072D01*
X115894352Y-109497486D01*
X116009525Y-109325118D01*
X116088857Y-109133594D01*
X116129300Y-108930272D01*
X116129300Y-108722968D01*
X116564500Y-108722968D01*
X116564500Y-108930272D01*
X116604943Y-109133594D01*
X116684275Y-109325118D01*
X116799448Y-109497486D01*
X116946034Y-109644072D01*
X117118402Y-109759245D01*
X117309926Y-109838577D01*
X117513248Y-109879020D01*
X117720552Y-109879020D01*
X117923874Y-109838577D01*
X118115398Y-109759245D01*
X118287766Y-109644072D01*
X118434352Y-109497486D01*
X118549525Y-109325118D01*
X118628857Y-109133594D01*
X118669300Y-108930272D01*
X118669300Y-108722968D01*
X119104500Y-108722968D01*
X119104500Y-108930272D01*
X119144943Y-109133594D01*
X119224275Y-109325118D01*
X119339448Y-109497486D01*
X119486034Y-109644072D01*
X119658402Y-109759245D01*
X119849926Y-109838577D01*
X120053248Y-109879020D01*
X120260552Y-109879020D01*
X120463874Y-109838577D01*
X120655398Y-109759245D01*
X120827766Y-109644072D01*
X120974352Y-109497486D01*
X121089525Y-109325118D01*
X121168857Y-109133594D01*
X121209300Y-108930272D01*
X121209300Y-108722968D01*
X121644500Y-108722968D01*
X121644500Y-108930272D01*
X121684943Y-109133594D01*
X121764275Y-109325118D01*
X121879448Y-109497486D01*
X122026034Y-109644072D01*
X122198402Y-109759245D01*
X122389926Y-109838577D01*
X122593248Y-109879020D01*
X122800552Y-109879020D01*
X123003874Y-109838577D01*
X123195398Y-109759245D01*
X123367766Y-109644072D01*
X123514352Y-109497486D01*
X123629525Y-109325118D01*
X123708857Y-109133594D01*
X123749300Y-108930272D01*
X123749300Y-108722968D01*
X124184500Y-108722968D01*
X124184500Y-108930272D01*
X124224943Y-109133594D01*
X124304275Y-109325118D01*
X124419448Y-109497486D01*
X124566034Y-109644072D01*
X124738402Y-109759245D01*
X124929926Y-109838577D01*
X125133248Y-109879020D01*
X125340552Y-109879020D01*
X125543874Y-109838577D01*
X125735398Y-109759245D01*
X125907766Y-109644072D01*
X126054352Y-109497486D01*
X126169525Y-109325118D01*
X126248857Y-109133594D01*
X126289300Y-108930272D01*
X126289300Y-108722968D01*
X126724500Y-108722968D01*
X126724500Y-108930272D01*
X126764943Y-109133594D01*
X126844275Y-109325118D01*
X126959448Y-109497486D01*
X127106034Y-109644072D01*
X127278402Y-109759245D01*
X127469926Y-109838577D01*
X127673248Y-109879020D01*
X127880552Y-109879020D01*
X128083874Y-109838577D01*
X128275398Y-109759245D01*
X128447766Y-109644072D01*
X128594352Y-109497486D01*
X128709525Y-109325118D01*
X128788857Y-109133594D01*
X128829300Y-108930272D01*
X128829300Y-108722968D01*
X129264500Y-108722968D01*
X129264500Y-108930272D01*
X129304943Y-109133594D01*
X129384275Y-109325118D01*
X129499448Y-109497486D01*
X129646034Y-109644072D01*
X129818402Y-109759245D01*
X130009926Y-109838577D01*
X130213248Y-109879020D01*
X130420552Y-109879020D01*
X130623874Y-109838577D01*
X130815398Y-109759245D01*
X130987766Y-109644072D01*
X131134352Y-109497486D01*
X131249525Y-109325118D01*
X131328857Y-109133594D01*
X131369300Y-108930272D01*
X131369300Y-108722968D01*
X131804500Y-108722968D01*
X131804500Y-108930272D01*
X131844943Y-109133594D01*
X131924275Y-109325118D01*
X132039448Y-109497486D01*
X132186034Y-109644072D01*
X132358402Y-109759245D01*
X132549926Y-109838577D01*
X132753248Y-109879020D01*
X132960552Y-109879020D01*
X133163874Y-109838577D01*
X133355398Y-109759245D01*
X133527766Y-109644072D01*
X133674352Y-109497486D01*
X133789525Y-109325118D01*
X133868857Y-109133594D01*
X133909300Y-108930272D01*
X133909300Y-108722968D01*
X134344500Y-108722968D01*
X134344500Y-108930272D01*
X134384943Y-109133594D01*
X134464275Y-109325118D01*
X134579448Y-109497486D01*
X134726034Y-109644072D01*
X134898402Y-109759245D01*
X135089926Y-109838577D01*
X135293248Y-109879020D01*
X135500552Y-109879020D01*
X135703874Y-109838577D01*
X135895398Y-109759245D01*
X136067766Y-109644072D01*
X136214352Y-109497486D01*
X136329525Y-109325118D01*
X136408857Y-109133594D01*
X136449300Y-108930272D01*
X136449300Y-108722968D01*
X136884500Y-108722968D01*
X136884500Y-108930272D01*
X136924943Y-109133594D01*
X137004275Y-109325118D01*
X137119448Y-109497486D01*
X137266034Y-109644072D01*
X137438402Y-109759245D01*
X137629926Y-109838577D01*
X137833248Y-109879020D01*
X138040552Y-109879020D01*
X138243874Y-109838577D01*
X138435398Y-109759245D01*
X138607766Y-109644072D01*
X138754352Y-109497486D01*
X138869525Y-109325118D01*
X138948857Y-109133594D01*
X138989300Y-108930272D01*
X138989300Y-108722968D01*
X138948857Y-108519646D01*
X138869525Y-108328122D01*
X138754352Y-108155754D01*
X138607766Y-108009168D01*
X138435398Y-107893995D01*
X138243874Y-107814663D01*
X138040552Y-107774220D01*
X137833248Y-107774220D01*
X137629926Y-107814663D01*
X137438402Y-107893995D01*
X137266034Y-108009168D01*
X137119448Y-108155754D01*
X137004275Y-108328122D01*
X136924943Y-108519646D01*
X136884500Y-108722968D01*
X136449300Y-108722968D01*
X136408857Y-108519646D01*
X136329525Y-108328122D01*
X136214352Y-108155754D01*
X136067766Y-108009168D01*
X135895398Y-107893995D01*
X135703874Y-107814663D01*
X135500552Y-107774220D01*
X135293248Y-107774220D01*
X135089926Y-107814663D01*
X134898402Y-107893995D01*
X134726034Y-108009168D01*
X134579448Y-108155754D01*
X134464275Y-108328122D01*
X134384943Y-108519646D01*
X134344500Y-108722968D01*
X133909300Y-108722968D01*
X133868857Y-108519646D01*
X133789525Y-108328122D01*
X133674352Y-108155754D01*
X133527766Y-108009168D01*
X133355398Y-107893995D01*
X133163874Y-107814663D01*
X132960552Y-107774220D01*
X132753248Y-107774220D01*
X132549926Y-107814663D01*
X132358402Y-107893995D01*
X132186034Y-108009168D01*
X132039448Y-108155754D01*
X131924275Y-108328122D01*
X131844943Y-108519646D01*
X131804500Y-108722968D01*
X131369300Y-108722968D01*
X131328857Y-108519646D01*
X131249525Y-108328122D01*
X131134352Y-108155754D01*
X130987766Y-108009168D01*
X130815398Y-107893995D01*
X130623874Y-107814663D01*
X130420552Y-107774220D01*
X130213248Y-107774220D01*
X130009926Y-107814663D01*
X129818402Y-107893995D01*
X129646034Y-108009168D01*
X129499448Y-108155754D01*
X129384275Y-108328122D01*
X129304943Y-108519646D01*
X129264500Y-108722968D01*
X128829300Y-108722968D01*
X128788857Y-108519646D01*
X128709525Y-108328122D01*
X128594352Y-108155754D01*
X128447766Y-108009168D01*
X128275398Y-107893995D01*
X128083874Y-107814663D01*
X127880552Y-107774220D01*
X127673248Y-107774220D01*
X127469926Y-107814663D01*
X127278402Y-107893995D01*
X127106034Y-108009168D01*
X126959448Y-108155754D01*
X126844275Y-108328122D01*
X126764943Y-108519646D01*
X126724500Y-108722968D01*
X126289300Y-108722968D01*
X126248857Y-108519646D01*
X126169525Y-108328122D01*
X126054352Y-108155754D01*
X125907766Y-108009168D01*
X125735398Y-107893995D01*
X125543874Y-107814663D01*
X125340552Y-107774220D01*
X125133248Y-107774220D01*
X124929926Y-107814663D01*
X124738402Y-107893995D01*
X124566034Y-108009168D01*
X124419448Y-108155754D01*
X124304275Y-108328122D01*
X124224943Y-108519646D01*
X124184500Y-108722968D01*
X123749300Y-108722968D01*
X123708857Y-108519646D01*
X123629525Y-108328122D01*
X123514352Y-108155754D01*
X123367766Y-108009168D01*
X123195398Y-107893995D01*
X123003874Y-107814663D01*
X122800552Y-107774220D01*
X122593248Y-107774220D01*
X122389926Y-107814663D01*
X122198402Y-107893995D01*
X122026034Y-108009168D01*
X121879448Y-108155754D01*
X121764275Y-108328122D01*
X121684943Y-108519646D01*
X121644500Y-108722968D01*
X121209300Y-108722968D01*
X121168857Y-108519646D01*
X121089525Y-108328122D01*
X120974352Y-108155754D01*
X120827766Y-108009168D01*
X120655398Y-107893995D01*
X120463874Y-107814663D01*
X120260552Y-107774220D01*
X120053248Y-107774220D01*
X119849926Y-107814663D01*
X119658402Y-107893995D01*
X119486034Y-108009168D01*
X119339448Y-108155754D01*
X119224275Y-108328122D01*
X119144943Y-108519646D01*
X119104500Y-108722968D01*
X118669300Y-108722968D01*
X118628857Y-108519646D01*
X118549525Y-108328122D01*
X118434352Y-108155754D01*
X118287766Y-108009168D01*
X118115398Y-107893995D01*
X117923874Y-107814663D01*
X117720552Y-107774220D01*
X117513248Y-107774220D01*
X117309926Y-107814663D01*
X117118402Y-107893995D01*
X116946034Y-108009168D01*
X116799448Y-108155754D01*
X116684275Y-108328122D01*
X116604943Y-108519646D01*
X116564500Y-108722968D01*
X116129300Y-108722968D01*
X116088857Y-108519646D01*
X116009525Y-108328122D01*
X115894352Y-108155754D01*
X115747766Y-108009168D01*
X115575398Y-107893995D01*
X115383874Y-107814663D01*
X115180552Y-107774220D01*
X114973248Y-107774220D01*
X114769926Y-107814663D01*
X114578402Y-107893995D01*
X114406034Y-108009168D01*
X114259448Y-108155754D01*
X114144275Y-108328122D01*
X114064943Y-108519646D01*
X114024500Y-108722968D01*
X113589300Y-108722968D01*
X113548857Y-108519646D01*
X113469525Y-108328122D01*
X113354352Y-108155754D01*
X113207766Y-108009168D01*
X113035398Y-107893995D01*
X112843874Y-107814663D01*
X112640552Y-107774220D01*
X112433248Y-107774220D01*
X112229926Y-107814663D01*
X112038402Y-107893995D01*
X111866034Y-108009168D01*
X111719448Y-108155754D01*
X111604275Y-108328122D01*
X111524943Y-108519646D01*
X111484500Y-108722968D01*
X111049300Y-108722968D01*
X111008857Y-108519646D01*
X110929525Y-108328122D01*
X110814352Y-108155754D01*
X110667766Y-108009168D01*
X110495398Y-107893995D01*
X110303874Y-107814663D01*
X110100552Y-107774220D01*
X109893248Y-107774220D01*
X109689926Y-107814663D01*
X109498402Y-107893995D01*
X109326034Y-108009168D01*
X109179448Y-108155754D01*
X109064275Y-108328122D01*
X108984943Y-108519646D01*
X108944500Y-108722968D01*
X107927000Y-108722968D01*
X107927000Y-107763548D01*
X107934455Y-107687521D01*
X107952599Y-107627422D01*
X107982073Y-107571989D01*
X108021752Y-107523338D01*
X108070122Y-107483322D01*
X108125347Y-107453463D01*
X108185316Y-107434899D01*
X108260473Y-107427000D01*
X148786452Y-107427000D01*
X148862479Y-107434455D01*
G36*
X139812158Y-123226869D02*
G01*
X139822125Y-123239014D01*
X138989300Y-124071840D01*
X138989300Y-123962968D01*
X138948857Y-123759646D01*
X138869525Y-123568122D01*
X138754352Y-123395754D01*
X138607766Y-123249168D01*
X138435398Y-123133995D01*
X138243874Y-123054663D01*
X138040552Y-123014220D01*
X137833248Y-123014220D01*
X137629926Y-123054663D01*
X137438402Y-123133995D01*
X137266034Y-123249168D01*
X137119448Y-123395754D01*
X137004275Y-123568122D01*
X136924943Y-123759646D01*
X136884500Y-123962968D01*
X136884500Y-124170272D01*
X136924943Y-124373594D01*
X137004275Y-124565118D01*
X137119448Y-124737486D01*
X137148583Y-124766621D01*
X136185217Y-124766621D01*
X136214352Y-124737486D01*
X136329525Y-124565118D01*
X136408857Y-124373594D01*
X136449300Y-124170272D01*
X136449300Y-123962968D01*
X136408857Y-123759646D01*
X136329525Y-123568122D01*
X136214352Y-123395754D01*
X136067766Y-123249168D01*
X135895398Y-123133995D01*
X135703874Y-123054663D01*
X135500552Y-123014220D01*
X135293248Y-123014220D01*
X135089926Y-123054663D01*
X134898402Y-123133995D01*
X134726034Y-123249168D01*
X134579448Y-123395754D01*
X134464275Y-123568122D01*
X134384943Y-123759646D01*
X134344500Y-123962968D01*
X134344500Y-124170272D01*
X134384943Y-124373594D01*
X134464275Y-124565118D01*
X134579448Y-124737486D01*
X134608583Y-124766621D01*
X133645217Y-124766621D01*
X133674352Y-124737486D01*
X133789525Y-124565118D01*
X133868857Y-124373594D01*
X133909300Y-124170272D01*
X133909300Y-123962968D01*
X133868857Y-123759646D01*
X133789525Y-123568122D01*
X133674352Y-123395754D01*
X133527766Y-123249168D01*
X133355398Y-123133995D01*
X133185500Y-123063621D01*
X133185500Y-122679210D01*
X134808311Y-121056400D01*
X134899876Y-121056400D01*
X134997711Y-121036939D01*
X135089870Y-120998766D01*
X135172811Y-120943346D01*
X135243346Y-120872811D01*
X135298766Y-120789870D01*
X135336939Y-120697711D01*
X135356400Y-120599876D01*
X135356400Y-120500124D01*
X135336939Y-120402289D01*
X135313623Y-120345999D01*
X136931289Y-120345999D01*
X139812158Y-123226869D01*
G37*
X139812158Y-123226869D02*
X139822125Y-123239014D01*
X138989300Y-124071840D01*
X138989300Y-123962968D01*
X138948857Y-123759646D01*
X138869525Y-123568122D01*
X138754352Y-123395754D01*
X138607766Y-123249168D01*
X138435398Y-123133995D01*
X138243874Y-123054663D01*
X138040552Y-123014220D01*
X137833248Y-123014220D01*
X137629926Y-123054663D01*
X137438402Y-123133995D01*
X137266034Y-123249168D01*
X137119448Y-123395754D01*
X137004275Y-123568122D01*
X136924943Y-123759646D01*
X136884500Y-123962968D01*
X136884500Y-124170272D01*
X136924943Y-124373594D01*
X137004275Y-124565118D01*
X137119448Y-124737486D01*
X137148583Y-124766621D01*
X136185217Y-124766621D01*
X136214352Y-124737486D01*
X136329525Y-124565118D01*
X136408857Y-124373594D01*
X136449300Y-124170272D01*
X136449300Y-123962968D01*
X136408857Y-123759646D01*
X136329525Y-123568122D01*
X136214352Y-123395754D01*
X136067766Y-123249168D01*
X135895398Y-123133995D01*
X135703874Y-123054663D01*
X135500552Y-123014220D01*
X135293248Y-123014220D01*
X135089926Y-123054663D01*
X134898402Y-123133995D01*
X134726034Y-123249168D01*
X134579448Y-123395754D01*
X134464275Y-123568122D01*
X134384943Y-123759646D01*
X134344500Y-123962968D01*
X134344500Y-124170272D01*
X134384943Y-124373594D01*
X134464275Y-124565118D01*
X134579448Y-124737486D01*
X134608583Y-124766621D01*
X133645217Y-124766621D01*
X133674352Y-124737486D01*
X133789525Y-124565118D01*
X133868857Y-124373594D01*
X133909300Y-124170272D01*
X133909300Y-123962968D01*
X133868857Y-123759646D01*
X133789525Y-123568122D01*
X133674352Y-123395754D01*
X133527766Y-123249168D01*
X133355398Y-123133995D01*
X133185500Y-123063621D01*
X133185500Y-122679210D01*
X134808311Y-121056400D01*
X134899876Y-121056400D01*
X134997711Y-121036939D01*
X135089870Y-120998766D01*
X135172811Y-120943346D01*
X135243346Y-120872811D01*
X135298766Y-120789870D01*
X135336939Y-120697711D01*
X135356400Y-120599876D01*
X135356400Y-120500124D01*
X135336939Y-120402289D01*
X135313623Y-120345999D01*
X136931289Y-120345999D01*
X139812158Y-123226869D01*
G36*
X236250000Y-122677320D02*
G01*
X196936850Y-122677320D01*
X198154171Y-121460000D01*
X198237550Y-121460000D01*
X199095095Y-122317545D01*
X199105382Y-122330080D01*
X199124518Y-122345784D01*
X199155418Y-122371144D01*
X199212503Y-122401656D01*
X199274444Y-122420446D01*
X199322726Y-122425201D01*
X199322729Y-122425201D01*
X199338861Y-122426790D01*
X199354993Y-122425201D01*
X229175347Y-122425201D01*
X229191479Y-122426790D01*
X229207611Y-122425201D01*
X229207614Y-122425201D01*
X229255896Y-122420446D01*
X229317837Y-122401656D01*
X229374922Y-122371143D01*
X229424958Y-122330080D01*
X229435245Y-122317545D01*
X230168331Y-121584460D01*
X230259896Y-121584460D01*
X230357731Y-121564999D01*
X230449890Y-121526826D01*
X230532831Y-121471406D01*
X230603366Y-121400871D01*
X230658786Y-121317930D01*
X230696959Y-121225771D01*
X230716420Y-121127936D01*
X230716420Y-121028184D01*
X230696959Y-120930349D01*
X230694354Y-120924059D01*
X230932429Y-120924059D01*
X230973620Y-120965250D01*
X230973620Y-121056816D01*
X230993081Y-121154651D01*
X231031254Y-121246810D01*
X231086674Y-121329751D01*
X231157209Y-121400286D01*
X231240150Y-121455706D01*
X231332309Y-121493879D01*
X231430144Y-121513340D01*
X231529896Y-121513340D01*
X231627731Y-121493879D01*
X231719890Y-121455706D01*
X231802831Y-121400286D01*
X231873366Y-121329751D01*
X231928786Y-121246810D01*
X231966959Y-121154651D01*
X231986420Y-121056816D01*
X231986420Y-120957064D01*
X231978339Y-120916441D01*
X236250000Y-120916441D01*
X236250000Y-122677320D01*
G37*
X236250000Y-122677320D02*
X196936850Y-122677320D01*
X198154171Y-121460000D01*
X198237550Y-121460000D01*
X199095095Y-122317545D01*
X199105382Y-122330080D01*
X199124518Y-122345784D01*
X199155418Y-122371144D01*
X199212503Y-122401656D01*
X199274444Y-122420446D01*
X199322726Y-122425201D01*
X199322729Y-122425201D01*
X199338861Y-122426790D01*
X199354993Y-122425201D01*
X229175347Y-122425201D01*
X229191479Y-122426790D01*
X229207611Y-122425201D01*
X229207614Y-122425201D01*
X229255896Y-122420446D01*
X229317837Y-122401656D01*
X229374922Y-122371143D01*
X229424958Y-122330080D01*
X229435245Y-122317545D01*
X230168331Y-121584460D01*
X230259896Y-121584460D01*
X230357731Y-121564999D01*
X230449890Y-121526826D01*
X230532831Y-121471406D01*
X230603366Y-121400871D01*
X230658786Y-121317930D01*
X230696959Y-121225771D01*
X230716420Y-121127936D01*
X230716420Y-121028184D01*
X230696959Y-120930349D01*
X230694354Y-120924059D01*
X230932429Y-120924059D01*
X230973620Y-120965250D01*
X230973620Y-121056816D01*
X230993081Y-121154651D01*
X231031254Y-121246810D01*
X231086674Y-121329751D01*
X231157209Y-121400286D01*
X231240150Y-121455706D01*
X231332309Y-121493879D01*
X231430144Y-121513340D01*
X231529896Y-121513340D01*
X231627731Y-121493879D01*
X231719890Y-121455706D01*
X231802831Y-121400286D01*
X231873366Y-121329751D01*
X231928786Y-121246810D01*
X231966959Y-121154651D01*
X231986420Y-121056816D01*
X231986420Y-120957064D01*
X231978339Y-120916441D01*
X236250000Y-120916441D01*
X236250000Y-122677320D01*
G36*
X146574620Y-121712130D02*
G01*
X144374761Y-121712130D01*
X143596960Y-120934330D01*
X143596960Y-120842764D01*
X143577499Y-120744929D01*
X143539326Y-120652770D01*
X143483906Y-120569829D01*
X143413371Y-120499294D01*
X143330430Y-120443874D01*
X143238271Y-120405701D01*
X143140436Y-120386240D01*
X143040684Y-120386240D01*
X142942849Y-120405701D01*
X142850690Y-120443874D01*
X142767749Y-120499294D01*
X142697214Y-120569829D01*
X142641794Y-120652770D01*
X142603621Y-120744929D01*
X142584160Y-120842764D01*
X142584160Y-120942516D01*
X142603621Y-121040351D01*
X142641794Y-121132510D01*
X142697214Y-121215451D01*
X142767749Y-121285986D01*
X142850690Y-121341406D01*
X142942849Y-121379579D01*
X143040684Y-121399040D01*
X143132250Y-121399040D01*
X143750149Y-122016940D01*
X141971930Y-122016940D01*
X141350499Y-121395509D01*
X141366840Y-121313356D01*
X141366840Y-121213604D01*
X141347379Y-121115769D01*
X141309206Y-121023610D01*
X141253786Y-120940669D01*
X141183251Y-120870134D01*
X141100310Y-120814714D01*
X141008151Y-120776541D01*
X140910316Y-120757080D01*
X140810564Y-120757080D01*
X140712729Y-120776541D01*
X140620570Y-120814714D01*
X140537629Y-120870134D01*
X140467094Y-120940669D01*
X140411674Y-121023610D01*
X140373501Y-121115769D01*
X140354040Y-121213604D01*
X140354040Y-121313356D01*
X140373501Y-121411191D01*
X140411674Y-121503350D01*
X140467094Y-121586291D01*
X140537629Y-121656826D01*
X140620570Y-121712246D01*
X140712729Y-121750419D01*
X140791697Y-121766127D01*
X141592054Y-122566484D01*
X141602341Y-122579019D01*
X141628080Y-122600142D01*
X141652376Y-122620082D01*
X141709462Y-122650595D01*
X141771403Y-122669385D01*
X141819685Y-122674140D01*
X141819688Y-122674140D01*
X141835820Y-122675729D01*
X141851952Y-122674140D01*
X161074430Y-122674140D01*
X161090562Y-122675729D01*
X161106694Y-122674140D01*
X161106697Y-122674140D01*
X161154979Y-122669385D01*
X161216920Y-122650595D01*
X161274005Y-122620082D01*
X161324041Y-122579019D01*
X161334328Y-122566484D01*
X162956433Y-120944380D01*
X163454803Y-120944380D01*
X163519549Y-121009126D01*
X163602490Y-121064546D01*
X163694649Y-121102719D01*
X163792484Y-121122180D01*
X163884050Y-121122180D01*
X165439189Y-122677320D01*
X140192031Y-122677320D01*
X137458330Y-119943620D01*
X144806110Y-119943620D01*
X146574620Y-121712130D01*
G37*
X146574620Y-121712130D02*
X144374761Y-121712130D01*
X143596960Y-120934330D01*
X143596960Y-120842764D01*
X143577499Y-120744929D01*
X143539326Y-120652770D01*
X143483906Y-120569829D01*
X143413371Y-120499294D01*
X143330430Y-120443874D01*
X143238271Y-120405701D01*
X143140436Y-120386240D01*
X143040684Y-120386240D01*
X142942849Y-120405701D01*
X142850690Y-120443874D01*
X142767749Y-120499294D01*
X142697214Y-120569829D01*
X142641794Y-120652770D01*
X142603621Y-120744929D01*
X142584160Y-120842764D01*
X142584160Y-120942516D01*
X142603621Y-121040351D01*
X142641794Y-121132510D01*
X142697214Y-121215451D01*
X142767749Y-121285986D01*
X142850690Y-121341406D01*
X142942849Y-121379579D01*
X143040684Y-121399040D01*
X143132250Y-121399040D01*
X143750149Y-122016940D01*
X141971930Y-122016940D01*
X141350499Y-121395509D01*
X141366840Y-121313356D01*
X141366840Y-121213604D01*
X141347379Y-121115769D01*
X141309206Y-121023610D01*
X141253786Y-120940669D01*
X141183251Y-120870134D01*
X141100310Y-120814714D01*
X141008151Y-120776541D01*
X140910316Y-120757080D01*
X140810564Y-120757080D01*
X140712729Y-120776541D01*
X140620570Y-120814714D01*
X140537629Y-120870134D01*
X140467094Y-120940669D01*
X140411674Y-121023610D01*
X140373501Y-121115769D01*
X140354040Y-121213604D01*
X140354040Y-121313356D01*
X140373501Y-121411191D01*
X140411674Y-121503350D01*
X140467094Y-121586291D01*
X140537629Y-121656826D01*
X140620570Y-121712246D01*
X140712729Y-121750419D01*
X140791697Y-121766127D01*
X141592054Y-122566484D01*
X141602341Y-122579019D01*
X141628080Y-122600142D01*
X141652376Y-122620082D01*
X141709462Y-122650595D01*
X141771403Y-122669385D01*
X141819685Y-122674140D01*
X141819688Y-122674140D01*
X141835820Y-122675729D01*
X141851952Y-122674140D01*
X161074430Y-122674140D01*
X161090562Y-122675729D01*
X161106694Y-122674140D01*
X161106697Y-122674140D01*
X161154979Y-122669385D01*
X161216920Y-122650595D01*
X161274005Y-122620082D01*
X161324041Y-122579019D01*
X161334328Y-122566484D01*
X162956433Y-120944380D01*
X163454803Y-120944380D01*
X163519549Y-121009126D01*
X163602490Y-121064546D01*
X163694649Y-121102719D01*
X163792484Y-121122180D01*
X163884050Y-121122180D01*
X165439189Y-122677320D01*
X140192031Y-122677320D01*
X137458330Y-119943620D01*
X144806110Y-119943620D01*
X146574620Y-121712130D01*
G36*
X198962000Y-120942391D02*
G01*
X198962000Y-121033956D01*
X198981461Y-121131791D01*
X199019634Y-121223950D01*
X199075054Y-121306891D01*
X199145589Y-121377426D01*
X199228530Y-121432846D01*
X199320689Y-121471019D01*
X199418524Y-121490480D01*
X199518276Y-121490480D01*
X199616111Y-121471019D01*
X199708270Y-121432846D01*
X199791211Y-121377426D01*
X199861746Y-121306891D01*
X199917166Y-121223950D01*
X199955339Y-121131791D01*
X199974800Y-121033956D01*
X199974800Y-120942391D01*
X199993132Y-120924059D01*
X203953210Y-120924059D01*
X203769669Y-121107600D01*
X203678104Y-121107600D01*
X203580269Y-121127061D01*
X203488110Y-121165234D01*
X203405169Y-121220654D01*
X203334634Y-121291189D01*
X203279214Y-121374130D01*
X203241041Y-121466289D01*
X203221580Y-121564124D01*
X203221580Y-121663876D01*
X203241041Y-121761711D01*
X203243646Y-121768001D01*
X199474971Y-121768001D01*
X198702260Y-120995290D01*
X198702260Y-120903724D01*
X198682799Y-120805889D01*
X198644626Y-120713730D01*
X198589206Y-120630789D01*
X198518671Y-120560254D01*
X198435730Y-120504834D01*
X198343571Y-120466661D01*
X198245736Y-120447200D01*
X198145984Y-120447200D01*
X198048149Y-120466661D01*
X197955990Y-120504834D01*
X197873049Y-120560254D01*
X197802514Y-120630789D01*
X197747094Y-120713730D01*
X197708921Y-120805889D01*
X197689460Y-120903724D01*
X197689460Y-120995289D01*
X196327469Y-122357281D01*
X169675934Y-122357281D01*
X169678539Y-122350991D01*
X169698000Y-122253156D01*
X169698000Y-122161590D01*
X170562150Y-121297440D01*
X195263223Y-121297440D01*
X195327969Y-121362186D01*
X195410910Y-121417606D01*
X195503069Y-121455779D01*
X195600904Y-121475240D01*
X195700656Y-121475240D01*
X195798491Y-121455779D01*
X195890650Y-121417606D01*
X195973591Y-121362186D01*
X196044126Y-121291651D01*
X196099546Y-121208710D01*
X196137719Y-121116551D01*
X196157180Y-121018716D01*
X196157180Y-120918964D01*
X196137719Y-120821129D01*
X196099546Y-120728970D01*
X196044126Y-120646029D01*
X195973591Y-120575494D01*
X195890650Y-120520074D01*
X195798491Y-120481901D01*
X195700656Y-120462440D01*
X195600904Y-120462440D01*
X195503069Y-120481901D01*
X195410910Y-120520074D01*
X195327969Y-120575494D01*
X195263223Y-120640240D01*
X170442172Y-120640240D01*
X170426040Y-120638651D01*
X170409908Y-120640240D01*
X170409905Y-120640240D01*
X170361623Y-120644995D01*
X170307976Y-120661269D01*
X170299682Y-120663785D01*
X170242596Y-120694298D01*
X170223280Y-120710151D01*
X170192561Y-120735361D01*
X170182274Y-120747896D01*
X169233290Y-121696880D01*
X169141724Y-121696880D01*
X169043889Y-121716341D01*
X168951730Y-121754514D01*
X168868789Y-121809934D01*
X168798254Y-121880469D01*
X168742834Y-121963410D01*
X168704661Y-122055569D01*
X168685200Y-122153404D01*
X168685200Y-122253156D01*
X168704661Y-122350991D01*
X168707266Y-122357281D01*
X166048572Y-122357281D01*
X164348760Y-120657470D01*
X164348760Y-120565904D01*
X164329299Y-120468069D01*
X164326694Y-120461779D01*
X164478409Y-120461779D01*
X164613580Y-120596950D01*
X164613580Y-120688516D01*
X164633041Y-120786351D01*
X164671214Y-120878510D01*
X164726634Y-120961451D01*
X164797169Y-121031986D01*
X164880110Y-121087406D01*
X164972269Y-121125579D01*
X165070104Y-121145040D01*
X165169856Y-121145040D01*
X165267691Y-121125579D01*
X165359850Y-121087406D01*
X165442791Y-121031986D01*
X165513326Y-120961451D01*
X165568746Y-120878510D01*
X165606919Y-120786351D01*
X165626380Y-120688516D01*
X165626380Y-120596950D01*
X165814892Y-120408439D01*
X198428049Y-120408439D01*
X198962000Y-120942391D01*
G37*
X198962000Y-120942391D02*
X198962000Y-121033956D01*
X198981461Y-121131791D01*
X199019634Y-121223950D01*
X199075054Y-121306891D01*
X199145589Y-121377426D01*
X199228530Y-121432846D01*
X199320689Y-121471019D01*
X199418524Y-121490480D01*
X199518276Y-121490480D01*
X199616111Y-121471019D01*
X199708270Y-121432846D01*
X199791211Y-121377426D01*
X199861746Y-121306891D01*
X199917166Y-121223950D01*
X199955339Y-121131791D01*
X199974800Y-121033956D01*
X199974800Y-120942391D01*
X199993132Y-120924059D01*
X203953210Y-120924059D01*
X203769669Y-121107600D01*
X203678104Y-121107600D01*
X203580269Y-121127061D01*
X203488110Y-121165234D01*
X203405169Y-121220654D01*
X203334634Y-121291189D01*
X203279214Y-121374130D01*
X203241041Y-121466289D01*
X203221580Y-121564124D01*
X203221580Y-121663876D01*
X203241041Y-121761711D01*
X203243646Y-121768001D01*
X199474971Y-121768001D01*
X198702260Y-120995290D01*
X198702260Y-120903724D01*
X198682799Y-120805889D01*
X198644626Y-120713730D01*
X198589206Y-120630789D01*
X198518671Y-120560254D01*
X198435730Y-120504834D01*
X198343571Y-120466661D01*
X198245736Y-120447200D01*
X198145984Y-120447200D01*
X198048149Y-120466661D01*
X197955990Y-120504834D01*
X197873049Y-120560254D01*
X197802514Y-120630789D01*
X197747094Y-120713730D01*
X197708921Y-120805889D01*
X197689460Y-120903724D01*
X197689460Y-120995289D01*
X196327469Y-122357281D01*
X169675934Y-122357281D01*
X169678539Y-122350991D01*
X169698000Y-122253156D01*
X169698000Y-122161590D01*
X170562150Y-121297440D01*
X195263223Y-121297440D01*
X195327969Y-121362186D01*
X195410910Y-121417606D01*
X195503069Y-121455779D01*
X195600904Y-121475240D01*
X195700656Y-121475240D01*
X195798491Y-121455779D01*
X195890650Y-121417606D01*
X195973591Y-121362186D01*
X196044126Y-121291651D01*
X196099546Y-121208710D01*
X196137719Y-121116551D01*
X196157180Y-121018716D01*
X196157180Y-120918964D01*
X196137719Y-120821129D01*
X196099546Y-120728970D01*
X196044126Y-120646029D01*
X195973591Y-120575494D01*
X195890650Y-120520074D01*
X195798491Y-120481901D01*
X195700656Y-120462440D01*
X195600904Y-120462440D01*
X195503069Y-120481901D01*
X195410910Y-120520074D01*
X195327969Y-120575494D01*
X195263223Y-120640240D01*
X170442172Y-120640240D01*
X170426040Y-120638651D01*
X170409908Y-120640240D01*
X170409905Y-120640240D01*
X170361623Y-120644995D01*
X170307976Y-120661269D01*
X170299682Y-120663785D01*
X170242596Y-120694298D01*
X170223280Y-120710151D01*
X170192561Y-120735361D01*
X170182274Y-120747896D01*
X169233290Y-121696880D01*
X169141724Y-121696880D01*
X169043889Y-121716341D01*
X168951730Y-121754514D01*
X168868789Y-121809934D01*
X168798254Y-121880469D01*
X168742834Y-121963410D01*
X168704661Y-122055569D01*
X168685200Y-122153404D01*
X168685200Y-122253156D01*
X168704661Y-122350991D01*
X168707266Y-122357281D01*
X166048572Y-122357281D01*
X164348760Y-120657470D01*
X164348760Y-120565904D01*
X164329299Y-120468069D01*
X164326694Y-120461779D01*
X164478409Y-120461779D01*
X164613580Y-120596950D01*
X164613580Y-120688516D01*
X164633041Y-120786351D01*
X164671214Y-120878510D01*
X164726634Y-120961451D01*
X164797169Y-121031986D01*
X164880110Y-121087406D01*
X164972269Y-121125579D01*
X165070104Y-121145040D01*
X165169856Y-121145040D01*
X165267691Y-121125579D01*
X165359850Y-121087406D01*
X165442791Y-121031986D01*
X165513326Y-120961451D01*
X165568746Y-120878510D01*
X165606919Y-120786351D01*
X165626380Y-120688516D01*
X165626380Y-120596950D01*
X165814892Y-120408439D01*
X198428049Y-120408439D01*
X198962000Y-120942391D01*
G36*
X229723081Y-120930349D02*
G01*
X229703620Y-121028184D01*
X229703620Y-121119749D01*
X229055369Y-121768001D01*
X204212314Y-121768001D01*
X204214919Y-121761711D01*
X204234380Y-121663876D01*
X204234380Y-121572311D01*
X204417043Y-121389648D01*
X204419823Y-121388162D01*
X204469859Y-121347099D01*
X204480146Y-121334564D01*
X204585841Y-121228869D01*
X227173780Y-121228869D01*
X227173780Y-121249876D01*
X227193241Y-121347711D01*
X227231414Y-121439870D01*
X227286834Y-121522811D01*
X227357369Y-121593346D01*
X227440310Y-121648766D01*
X227532469Y-121686939D01*
X227630304Y-121706400D01*
X227730056Y-121706400D01*
X227827891Y-121686939D01*
X227920050Y-121648766D01*
X228002991Y-121593346D01*
X228073526Y-121522811D01*
X228128946Y-121439870D01*
X228167119Y-121347711D01*
X228186580Y-121249876D01*
X228186580Y-121150124D01*
X228167119Y-121052289D01*
X228128946Y-120960130D01*
X228104844Y-120924059D01*
X229725686Y-120924059D01*
X229723081Y-120930349D01*
G37*
X229723081Y-120930349D02*
X229703620Y-121028184D01*
X229703620Y-121119749D01*
X229055369Y-121768001D01*
X204212314Y-121768001D01*
X204214919Y-121761711D01*
X204234380Y-121663876D01*
X204234380Y-121572311D01*
X204417043Y-121389648D01*
X204419823Y-121388162D01*
X204469859Y-121347099D01*
X204480146Y-121334564D01*
X204585841Y-121228869D01*
X227173780Y-121228869D01*
X227173780Y-121249876D01*
X227193241Y-121347711D01*
X227231414Y-121439870D01*
X227286834Y-121522811D01*
X227357369Y-121593346D01*
X227440310Y-121648766D01*
X227532469Y-121686939D01*
X227630304Y-121706400D01*
X227730056Y-121706400D01*
X227827891Y-121686939D01*
X227920050Y-121648766D01*
X228002991Y-121593346D01*
X228073526Y-121522811D01*
X228128946Y-121439870D01*
X228167119Y-121347711D01*
X228186580Y-121249876D01*
X228186580Y-121150124D01*
X228167119Y-121052289D01*
X228128946Y-120960130D01*
X228104844Y-120924059D01*
X229725686Y-120924059D01*
X229723081Y-120930349D01*
G36*
X161161170Y-117947840D02*
G01*
X135964211Y-117947840D01*
X135948079Y-117946251D01*
X135931947Y-117947840D01*
X135931945Y-117947840D01*
X135883663Y-117952595D01*
X135882592Y-117952920D01*
X135807317Y-117952920D01*
X135742571Y-117888174D01*
X135659630Y-117832754D01*
X135567471Y-117794581D01*
X135469636Y-117775120D01*
X135369884Y-117775120D01*
X135272049Y-117794581D01*
X135179890Y-117832754D01*
X135096949Y-117888174D01*
X135026414Y-117958709D01*
X134970994Y-118041650D01*
X134932821Y-118133809D01*
X134913360Y-118231644D01*
X134913360Y-118331396D01*
X134932821Y-118429231D01*
X134970994Y-118521390D01*
X135026414Y-118604331D01*
X135096949Y-118674866D01*
X135179890Y-118730286D01*
X135272049Y-118768459D01*
X135369884Y-118787920D01*
X135469636Y-118787920D01*
X135567471Y-118768459D01*
X135659630Y-118730286D01*
X135742571Y-118674866D01*
X135807317Y-118610120D01*
X135926868Y-118610120D01*
X135943000Y-118611709D01*
X135959132Y-118610120D01*
X135959135Y-118610120D01*
X136007417Y-118605365D01*
X136008488Y-118605040D01*
X160968680Y-118605040D01*
X160968681Y-120174882D01*
X160903934Y-120239629D01*
X160848514Y-120322570D01*
X160810341Y-120414729D01*
X160790880Y-120512564D01*
X160790880Y-120612316D01*
X160810341Y-120710151D01*
X160848514Y-120802310D01*
X160903934Y-120885251D01*
X160974469Y-120955786D01*
X161057410Y-121011206D01*
X161086150Y-121023110D01*
X160701940Y-121407320D01*
X147199230Y-121407320D01*
X145185986Y-119394076D01*
X145175699Y-119381541D01*
X145125663Y-119340478D01*
X145068578Y-119309965D01*
X145006637Y-119291175D01*
X144958355Y-119286420D01*
X144958352Y-119286420D01*
X144942220Y-119284831D01*
X144926088Y-119286420D01*
X133151112Y-119286420D01*
X133134980Y-119284831D01*
X133118848Y-119286420D01*
X133118845Y-119286420D01*
X133070563Y-119291175D01*
X133008622Y-119309965D01*
X132951536Y-119340478D01*
X132914033Y-119371256D01*
X132901501Y-119381541D01*
X132891218Y-119394071D01*
X131702722Y-120582567D01*
X131700459Y-120571189D01*
X131662286Y-120479030D01*
X131606866Y-120396089D01*
X131542120Y-120331343D01*
X131542120Y-118657176D01*
X132775348Y-117423949D01*
X161685060Y-117423949D01*
X161161170Y-117947840D01*
G37*
X161161170Y-117947840D02*
X135964211Y-117947840D01*
X135948079Y-117946251D01*
X135931947Y-117947840D01*
X135931945Y-117947840D01*
X135883663Y-117952595D01*
X135882592Y-117952920D01*
X135807317Y-117952920D01*
X135742571Y-117888174D01*
X135659630Y-117832754D01*
X135567471Y-117794581D01*
X135469636Y-117775120D01*
X135369884Y-117775120D01*
X135272049Y-117794581D01*
X135179890Y-117832754D01*
X135096949Y-117888174D01*
X135026414Y-117958709D01*
X134970994Y-118041650D01*
X134932821Y-118133809D01*
X134913360Y-118231644D01*
X134913360Y-118331396D01*
X134932821Y-118429231D01*
X134970994Y-118521390D01*
X135026414Y-118604331D01*
X135096949Y-118674866D01*
X135179890Y-118730286D01*
X135272049Y-118768459D01*
X135369884Y-118787920D01*
X135469636Y-118787920D01*
X135567471Y-118768459D01*
X135659630Y-118730286D01*
X135742571Y-118674866D01*
X135807317Y-118610120D01*
X135926868Y-118610120D01*
X135943000Y-118611709D01*
X135959132Y-118610120D01*
X135959135Y-118610120D01*
X136007417Y-118605365D01*
X136008488Y-118605040D01*
X160968680Y-118605040D01*
X160968681Y-120174882D01*
X160903934Y-120239629D01*
X160848514Y-120322570D01*
X160810341Y-120414729D01*
X160790880Y-120512564D01*
X160790880Y-120612316D01*
X160810341Y-120710151D01*
X160848514Y-120802310D01*
X160903934Y-120885251D01*
X160974469Y-120955786D01*
X161057410Y-121011206D01*
X161086150Y-121023110D01*
X160701940Y-121407320D01*
X147199230Y-121407320D01*
X145185986Y-119394076D01*
X145175699Y-119381541D01*
X145125663Y-119340478D01*
X145068578Y-119309965D01*
X145006637Y-119291175D01*
X144958355Y-119286420D01*
X144958352Y-119286420D01*
X144942220Y-119284831D01*
X144926088Y-119286420D01*
X133151112Y-119286420D01*
X133134980Y-119284831D01*
X133118848Y-119286420D01*
X133118845Y-119286420D01*
X133070563Y-119291175D01*
X133008622Y-119309965D01*
X132951536Y-119340478D01*
X132914033Y-119371256D01*
X132901501Y-119381541D01*
X132891218Y-119394071D01*
X131702722Y-120582567D01*
X131700459Y-120571189D01*
X131662286Y-120479030D01*
X131606866Y-120396089D01*
X131542120Y-120331343D01*
X131542120Y-118657176D01*
X132775348Y-117423949D01*
X161685060Y-117423949D01*
X161161170Y-117947840D01*
G36*
X238888260Y-118323651D02*
G01*
X238888260Y-118415216D01*
X238907721Y-118513051D01*
X238945894Y-118605210D01*
X239001314Y-118688151D01*
X239071849Y-118758686D01*
X239154790Y-118814106D01*
X239246949Y-118852279D01*
X239344784Y-118871740D01*
X239444536Y-118871740D01*
X239542371Y-118852279D01*
X239634530Y-118814106D01*
X239717471Y-118758686D01*
X239788006Y-118688151D01*
X239843426Y-118605210D01*
X239881599Y-118513051D01*
X239883940Y-118501280D01*
X239883940Y-118846450D01*
X239367770Y-119362620D01*
X239276204Y-119362620D01*
X239178369Y-119382081D01*
X239086210Y-119420254D01*
X239003269Y-119475674D01*
X238932734Y-119546209D01*
X238877314Y-119629150D01*
X238839141Y-119721309D01*
X238819680Y-119819144D01*
X238819680Y-119918896D01*
X238839141Y-120016731D01*
X238877314Y-120108890D01*
X238932734Y-120191831D01*
X239000144Y-120259241D01*
X231911282Y-120259241D01*
X231721745Y-120069705D01*
X231711458Y-120057170D01*
X231661422Y-120016107D01*
X231604337Y-119985594D01*
X231542396Y-119966804D01*
X231494114Y-119962049D01*
X231494111Y-119962049D01*
X231477979Y-119960460D01*
X231461847Y-119962049D01*
X199342146Y-119962049D01*
X198934178Y-119554082D01*
X198923895Y-119541552D01*
X198911365Y-119531269D01*
X198911362Y-119531266D01*
X198873859Y-119500488D01*
X198816773Y-119469975D01*
X198773622Y-119456886D01*
X198754833Y-119451186D01*
X198748851Y-119450597D01*
X198690416Y-119444841D01*
X198674274Y-119446431D01*
X162815073Y-119446429D01*
X162798941Y-119444840D01*
X162782809Y-119446429D01*
X162782807Y-119446429D01*
X162734525Y-119451184D01*
X162691373Y-119464274D01*
X162672583Y-119469974D01*
X162615497Y-119500487D01*
X162577995Y-119531265D01*
X162565463Y-119541550D01*
X162555180Y-119554080D01*
X161757950Y-120351310D01*
X161746046Y-120322570D01*
X161690626Y-120239629D01*
X161625880Y-120174883D01*
X161625880Y-118412550D01*
X162309672Y-117728759D01*
X238293369Y-117728759D01*
X238888260Y-118323651D01*
G37*
X238888260Y-118323651D02*
X238888260Y-118415216D01*
X238907721Y-118513051D01*
X238945894Y-118605210D01*
X239001314Y-118688151D01*
X239071849Y-118758686D01*
X239154790Y-118814106D01*
X239246949Y-118852279D01*
X239344784Y-118871740D01*
X239444536Y-118871740D01*
X239542371Y-118852279D01*
X239634530Y-118814106D01*
X239717471Y-118758686D01*
X239788006Y-118688151D01*
X239843426Y-118605210D01*
X239881599Y-118513051D01*
X239883940Y-118501280D01*
X239883940Y-118846450D01*
X239367770Y-119362620D01*
X239276204Y-119362620D01*
X239178369Y-119382081D01*
X239086210Y-119420254D01*
X239003269Y-119475674D01*
X238932734Y-119546209D01*
X238877314Y-119629150D01*
X238839141Y-119721309D01*
X238819680Y-119819144D01*
X238819680Y-119918896D01*
X238839141Y-120016731D01*
X238877314Y-120108890D01*
X238932734Y-120191831D01*
X239000144Y-120259241D01*
X231911282Y-120259241D01*
X231721745Y-120069705D01*
X231711458Y-120057170D01*
X231661422Y-120016107D01*
X231604337Y-119985594D01*
X231542396Y-119966804D01*
X231494114Y-119962049D01*
X231494111Y-119962049D01*
X231477979Y-119960460D01*
X231461847Y-119962049D01*
X199342146Y-119962049D01*
X198934178Y-119554082D01*
X198923895Y-119541552D01*
X198911365Y-119531269D01*
X198911362Y-119531266D01*
X198873859Y-119500488D01*
X198816773Y-119469975D01*
X198773622Y-119456886D01*
X198754833Y-119451186D01*
X198748851Y-119450597D01*
X198690416Y-119444841D01*
X198674274Y-119446431D01*
X162815073Y-119446429D01*
X162798941Y-119444840D01*
X162782809Y-119446429D01*
X162782807Y-119446429D01*
X162734525Y-119451184D01*
X162691373Y-119464274D01*
X162672583Y-119469974D01*
X162615497Y-119500487D01*
X162577995Y-119531265D01*
X162565463Y-119541550D01*
X162555180Y-119554080D01*
X161757950Y-120351310D01*
X161746046Y-120322570D01*
X161690626Y-120239629D01*
X161625880Y-120174883D01*
X161625880Y-118412550D01*
X162309672Y-117728759D01*
X238293369Y-117728759D01*
X238888260Y-118323651D01*
M02*
