M48
; DRILL file {KiCad 5.1.6+dfsg1-1~bpo10+1} date Wed Aug 19 09:24:13 2020
; FORMAT={-:-/ absolute / inch / decimal}
; #@! TF.CreationDate,2020-08-19T09:24:13+03:00
; #@! TF.GenerationSoftware,Kicad,Pcbnew,5.1.6+dfsg1-1~bpo10+1
FMAT,2
INCH
T1C0.0100
T2C0.0118
T3C0.0200
T4C0.0315
T5C0.0394
T6C0.0433
T7C0.0591
T8C0.0454
%
G90
G05
T1
X0.9277Y0.204
X0.9607Y0.5901
X1.0224Y0.5931
X1.0933Y0.2999
X1.1539Y0.5824
X1.2261Y0.5835
X1.2626Y0.2126
X1.2779Y0.6648
X1.3075Y0.1825
X1.3953Y0.1971
X1.4728Y0.3866
X1.4788Y0.4955
X1.4792Y0.077
X1.5283Y0.262
X1.6148Y0.4768
X1.6422Y0.0483
X1.7707Y0.4768
X1.8003Y0.2595
X1.8578Y0.0485
X1.9266Y0.4768
X1.9407Y0.2595
X2.0136Y0.1939
X2.0825Y0.4768
X2.1121Y0.2101
X2.2123Y0.208
X2.2384Y0.4768
X2.2626Y0.2071
X2.3943Y0.4768
X2.4216Y0.2988
X2.4229Y0.1455
X2.4949Y0.1623
X2.5502Y0.4768
X2.5528Y0.2918
X2.6723Y0.3046
X2.7061Y0.4768
X2.7134Y0.1665
X2.8121Y0.2877
X2.862Y0.4768
X2.8757Y0.2831
X2.9463Y0.1614
X2.9917Y0.2899
X3.0179Y0.4768
X3.1416Y0.1611
X3.1739Y0.4768
X3.1786Y0.291
X3.3104Y0.2932
X3.3298Y0.4768
X3.4646Y0.1941
X3.4857Y0.4768
X3.5146Y0.1977
X3.5648Y0.1947
X3.6149Y0.1935
X3.6416Y0.4768
X3.6915Y0.1829
X3.7612Y0.2883
X3.7826Y0.1687
X3.7975Y0.4768
X3.905Y0.2886
X3.9534Y0.4768
X4.0402Y0.2892
X4.1093Y0.4768
X4.1287Y0.1693
X4.151Y0.2886
X4.2652Y0.4768
X4.2715Y0.2866
X4.3541Y0.2876
X4.4211Y0.4768
X4.46Y0.3045
X4.577Y0.4768
X4.5847Y0.2953
X4.7256Y0.1884
X4.7329Y0.4768
X4.8252Y0.1898
X4.8752Y0.1926
X4.8888Y0.4768
X4.9089Y0.2595
X5.0232Y0.172
X5.0307Y0.3138
X5.0366Y0.2419
X5.0447Y0.4768
X5.1572Y0.042
X5.1841Y0.2374
X5.1868Y0.2966
X5.2362Y0.1673
X5.2375Y0.2386
X5.3705Y0.3197
X5.4289Y0.0476
X5.5015Y0.276
X5.5875Y0.1804
X5.5881Y0.2287
X5.6389Y0.1785
X5.6395Y0.2317
X5.6874Y0.1813
X5.748Y0.374
X5.7579Y0.2067
X5.8169Y0.374
X5.8268Y0.1969
X5.9075Y0.1788
X5.935Y0.3445
X5.9779Y0.0981
X5.9823Y0.3917
X6.0507Y0.23
X6.0945Y0.0807
X6.1212Y0.4939
X6.1967Y0.4932
X6.2067Y0.1519
X6.25Y0.4035
X6.2598Y0.2657
X6.3159Y0.2131
T2
X0.3454Y0.5865
X0.3926Y0.5865
X0.4398Y0.5865
X0.3013Y0.2265
X0.3485Y0.2265
X0.3957Y0.2265
T3
X0.4741Y0.3255
X0.9941Y0.4429
T5
X1.3661Y0.6652
X1.3661Y0.5652
X1.4661Y0.6652
X1.4661Y0.5652
X1.5661Y0.6652
X1.5661Y0.5652
T6
X0.0924Y0.6722
X0.0924Y0.0722
X0.1924Y0.6722
X0.1924Y0.0722
X0.2924Y0.6722
X0.2924Y0.0722
X0.3924Y0.6722
X0.3924Y0.0722
X0.4924Y0.6722
X0.4924Y0.0722
X0.5924Y0.6722
X0.5924Y0.0722
X0.6924Y0.6722
X0.6924Y0.0722
X0.7924Y0.6722
X0.7924Y0.0722
X0.8924Y0.6722
X0.8924Y0.0722
X0.9924Y0.6722
X0.9924Y0.0722
X1.0924Y0.6722
X1.0924Y0.0722
X1.1924Y0.6722
X1.1924Y0.0722
T7
X6.315Y0.0728
T8
X0.0984Y0.185
X6.1752Y0.0689
X6.1752Y0.8504
X0.0984Y0.8504
T4
G00X1.4186Y0.434
M15
G01X1.3438Y0.434
M16
G05
G00X1.5745Y0.434
M15
G01X1.4997Y0.434
M16
G05
G00X1.7304Y0.434
M15
G01X1.6556Y0.434
M16
G05
G00X1.8863Y0.434
M15
G01X1.8115Y0.434
M16
G05
G00X2.0422Y0.434
M15
G01X1.9674Y0.434
M16
G05
G00X2.1981Y0.434
M15
G01X2.1233Y0.434
M16
G05
G00X2.354Y0.434
M15
G01X2.2792Y0.434
M16
G05
G00X2.5099Y0.434
M15
G01X2.4351Y0.434
M16
G05
G00X2.6658Y0.434
M15
G01X2.591Y0.434
M16
G05
G00X2.8217Y0.434
M15
G01X2.7469Y0.434
M16
G05
G00X2.9776Y0.434
M15
G01X2.9028Y0.434
M16
G05
G00X3.1335Y0.434
M15
G01X3.0587Y0.434
M16
G05
G00X3.2894Y0.434
M15
G01X3.2146Y0.434
M16
G05
G00X3.4453Y0.434
M15
G01X3.3705Y0.434
M16
G05
G00X3.6012Y0.434
M15
G01X3.5264Y0.434
M16
G05
G00X3.7572Y0.434
M15
G01X3.6823Y0.434
M16
G05
G00X3.9131Y0.434
M15
G01X3.8383Y0.434
M16
G05
G00X4.069Y0.434
M15
G01X3.9942Y0.434
M16
G05
G00X4.2249Y0.434
M15
G01X4.1501Y0.434
M16
G05
G00X4.3808Y0.434
M15
G01X4.306Y0.434
M16
G05
G00X4.5367Y0.434
M15
G01X4.4619Y0.434
M16
G05
G00X4.6926Y0.434
M15
G01X4.6178Y0.434
M16
G05
G00X4.8485Y0.434
M15
G01X4.7737Y0.434
M16
G05
G00X5.0044Y0.434
M15
G01X4.9296Y0.434
M16
G05
G00X5.1603Y0.434
M15
G01X5.0855Y0.434
M16
G05
G00X5.3162Y0.434
M15
G01X5.2414Y0.434
M16
G05
G00X5.4721Y0.434
M15
G01X5.3973Y0.434
M16
G05
G00X5.628Y0.434
M15
G01X5.5532Y0.434
M16
G05
G00X5.7839Y0.434
M15
G01X5.7091Y0.434
M16
G05
G00X5.9398Y0.434
M15
G01X5.865Y0.434
M16
G05
T0
M30
