G04 #@! TF.GenerationSoftware,KiCad,Pcbnew,5.1.6+dfsg1-1~bpo10+1*
G04 #@! TF.CreationDate,2020-08-19T15:46:29+03:00*
G04 #@! TF.ProjectId,CompactBeamspringP1,436f6d70-6163-4744-9265-616d73707269,0.0.3*
G04 #@! TF.SameCoordinates,Original*
G04 #@! TF.FileFunction,Legend,Top*
G04 #@! TF.FilePolarity,Positive*
%FSLAX46Y46*%
G04 Gerber Fmt 4.6, Leading zero omitted, Abs format (unit mm)*
G04 Created by KiCad (PCBNEW 5.1.6+dfsg1-1~bpo10+1) date 2020-08-19 15:46:29*
%MOMM*%
%LPD*%
G01*
G04 APERTURE LIST*
%ADD10C,0.120000*%
%ADD11C,0.150000*%
G04 APERTURE END LIST*
D10*
X148758880Y-112872900D02*
X148758880Y-107672900D01*
X143618880Y-112872900D02*
X148758880Y-112872900D01*
X141018880Y-107672900D02*
X148758880Y-107672900D01*
X143618880Y-112872900D02*
X143618880Y-110272900D01*
X143618880Y-110272900D02*
X141018880Y-110272900D01*
X141018880Y-110272900D02*
X141018880Y-107672900D01*
X142348880Y-112872900D02*
X141018880Y-112872900D01*
X141018880Y-112872900D02*
X141018880Y-111542900D01*
D11*
X139206900Y-107556620D02*
X139206900Y-125336620D01*
X108726900Y-107556620D02*
X139206900Y-107556620D01*
X108726900Y-112636620D02*
X108726900Y-107556620D01*
X106186900Y-112636620D02*
X108726900Y-112636620D01*
X106186900Y-120256620D02*
X106186900Y-112636620D01*
X108726900Y-120256620D02*
X106186900Y-120256620D01*
X108726900Y-125336620D02*
X108726900Y-120256620D01*
X108726900Y-125336620D02*
X139206900Y-125336620D01*
X140566499Y-109939566D02*
X139852213Y-109939566D01*
X139709356Y-109891947D01*
X139614118Y-109796709D01*
X139566499Y-109653852D01*
X139566499Y-109558614D01*
X140566499Y-110320519D02*
X140566499Y-110939566D01*
X140185546Y-110606233D01*
X140185546Y-110749090D01*
X140137927Y-110844328D01*
X140090308Y-110891947D01*
X139995070Y-110939566D01*
X139756975Y-110939566D01*
X139661737Y-110891947D01*
X139614118Y-110844328D01*
X139566499Y-110749090D01*
X139566499Y-110463376D01*
X139614118Y-110368138D01*
X139661737Y-110320519D01*
X121377430Y-111444100D02*
X121377430Y-110444100D01*
X121758382Y-110444100D01*
X121853620Y-110491720D01*
X121901240Y-110539339D01*
X121948859Y-110634577D01*
X121948859Y-110777434D01*
X121901240Y-110872672D01*
X121853620Y-110920291D01*
X121758382Y-110967910D01*
X121377430Y-110967910D01*
X122377430Y-111444100D02*
X122377430Y-110777434D01*
X122377430Y-110967910D02*
X122425049Y-110872672D01*
X122472668Y-110825053D01*
X122567906Y-110777434D01*
X122663144Y-110777434D01*
X123139335Y-111444100D02*
X123044097Y-111396481D01*
X122996478Y-111348862D01*
X122948859Y-111253624D01*
X122948859Y-110967910D01*
X122996478Y-110872672D01*
X123044097Y-110825053D01*
X123139335Y-110777434D01*
X123282192Y-110777434D01*
X123377430Y-110825053D01*
X123425049Y-110872672D01*
X123472668Y-110967910D01*
X123472668Y-111253624D01*
X123425049Y-111348862D01*
X123377430Y-111396481D01*
X123282192Y-111444100D01*
X123139335Y-111444100D01*
X123901240Y-111444100D02*
X123901240Y-110444100D01*
X124234573Y-111158386D01*
X124567906Y-110444100D01*
X124567906Y-111444100D01*
X125044097Y-111444100D02*
X125044097Y-110777434D01*
X125044097Y-110444100D02*
X124996478Y-110491720D01*
X125044097Y-110539339D01*
X125091716Y-110491720D01*
X125044097Y-110444100D01*
X125044097Y-110539339D01*
X125948859Y-111396481D02*
X125853620Y-111444100D01*
X125663144Y-111444100D01*
X125567906Y-111396481D01*
X125520287Y-111348862D01*
X125472668Y-111253624D01*
X125472668Y-110967910D01*
X125520287Y-110872672D01*
X125567906Y-110825053D01*
X125663144Y-110777434D01*
X125853620Y-110777434D01*
X125948859Y-110825053D01*
X126377430Y-111444100D02*
X126377430Y-110777434D01*
X126377430Y-110967910D02*
X126425049Y-110872672D01*
X126472668Y-110825053D01*
X126567906Y-110777434D01*
X126663144Y-110777434D01*
X127139335Y-111444100D02*
X127044097Y-111396481D01*
X126996478Y-111348862D01*
X126948859Y-111253624D01*
X126948859Y-110967910D01*
X126996478Y-110872672D01*
X127044097Y-110825053D01*
X127139335Y-110777434D01*
X127282192Y-110777434D01*
X127377430Y-110825053D01*
X127425049Y-110872672D01*
X127472668Y-110967910D01*
X127472668Y-111253624D01*
X127425049Y-111348862D01*
X127377430Y-111396481D01*
X127282192Y-111444100D01*
X127139335Y-111444100D01*
M02*
