G04 #@! TF.GenerationSoftware,KiCad,Pcbnew,5.1.6+dfsg1-1~bpo10+1*
G04 #@! TF.CreationDate,2020-08-19T09:24:11+03:00*
G04 #@! TF.ProjectId,CompactBeamspringP1,436f6d70-6163-4744-9265-616d73707269,0.0.3*
G04 #@! TF.SameCoordinates,PX66a9bd0PY78114e0*
G04 #@! TF.FileFunction,Soldermask,Bot*
G04 #@! TF.FilePolarity,Negative*
%FSLAX46Y46*%
G04 Gerber Fmt 4.6, Leading zero omitted, Abs format (unit mm)*
G04 Created by KiCad (PCBNEW 5.1.6+dfsg1-1~bpo10+1) date 2020-08-19 09:24:11*
%MOMM*%
%LPD*%
G01*
G04 APERTURE LIST*
%ADD10C,0.100000*%
G04 APERTURE END LIST*
D10*
G36*
X160852352Y3341204D02*
G01*
X160852355Y3341203D01*
X160852354Y3341203D01*
X161134580Y3224301D01*
X161388578Y3054585D01*
X161604585Y2838578D01*
X161774301Y2584580D01*
X161774301Y2584579D01*
X161891204Y2302352D01*
X161950800Y2002741D01*
X161950800Y1697259D01*
X161891204Y1397648D01*
X161891203Y1397646D01*
X161774301Y1115420D01*
X161604585Y861422D01*
X161388578Y645415D01*
X161134580Y475699D01*
X160935014Y393036D01*
X160852352Y358796D01*
X160552741Y299200D01*
X160247259Y299200D01*
X159947648Y358796D01*
X159864986Y393036D01*
X159665420Y475699D01*
X159411422Y645415D01*
X159195415Y861422D01*
X159025699Y1115420D01*
X158908797Y1397646D01*
X158908796Y1397648D01*
X158849200Y1697259D01*
X158849200Y2002741D01*
X158908796Y2302352D01*
X159025699Y2584579D01*
X159025699Y2584580D01*
X159195415Y2838578D01*
X159411422Y3054585D01*
X159665420Y3224301D01*
X159947646Y3341203D01*
X159947645Y3341203D01*
X159947648Y3341204D01*
X160247259Y3400800D01*
X160552741Y3400800D01*
X160852352Y3341204D01*
G37*
G36*
X30535069Y2651485D02*
G01*
X30689905Y2587349D01*
X30829254Y2494240D01*
X30947760Y2375734D01*
X31040869Y2236385D01*
X31105005Y2081549D01*
X31137700Y1917177D01*
X31137700Y1749583D01*
X31105005Y1585211D01*
X31040869Y1430375D01*
X30947760Y1291026D01*
X30829254Y1172520D01*
X30689905Y1079411D01*
X30535069Y1015275D01*
X30370697Y982580D01*
X30203103Y982580D01*
X30038731Y1015275D01*
X29883895Y1079411D01*
X29744546Y1172520D01*
X29626040Y1291026D01*
X29532931Y1430375D01*
X29468795Y1585211D01*
X29436100Y1749583D01*
X29436100Y1917177D01*
X29468795Y2081549D01*
X29532931Y2236385D01*
X29626040Y2375734D01*
X29744546Y2494240D01*
X29883895Y2587349D01*
X30038731Y2651485D01*
X30203103Y2684180D01*
X30370697Y2684180D01*
X30535069Y2651485D01*
G37*
G36*
X27995069Y2651485D02*
G01*
X28149905Y2587349D01*
X28289254Y2494240D01*
X28407760Y2375734D01*
X28500869Y2236385D01*
X28565005Y2081549D01*
X28597700Y1917177D01*
X28597700Y1749583D01*
X28565005Y1585211D01*
X28500869Y1430375D01*
X28407760Y1291026D01*
X28289254Y1172520D01*
X28149905Y1079411D01*
X27995069Y1015275D01*
X27830697Y982580D01*
X27663103Y982580D01*
X27498731Y1015275D01*
X27343895Y1079411D01*
X27204546Y1172520D01*
X27086040Y1291026D01*
X26992931Y1430375D01*
X26928795Y1585211D01*
X26896100Y1749583D01*
X26896100Y1917177D01*
X26928795Y2081549D01*
X26992931Y2236385D01*
X27086040Y2375734D01*
X27204546Y2494240D01*
X27343895Y2587349D01*
X27498731Y2651485D01*
X27663103Y2684180D01*
X27830697Y2684180D01*
X27995069Y2651485D01*
G37*
G36*
X25455069Y2651485D02*
G01*
X25609905Y2587349D01*
X25749254Y2494240D01*
X25867760Y2375734D01*
X25960869Y2236385D01*
X26025005Y2081549D01*
X26057700Y1917177D01*
X26057700Y1749583D01*
X26025005Y1585211D01*
X25960869Y1430375D01*
X25867760Y1291026D01*
X25749254Y1172520D01*
X25609905Y1079411D01*
X25455069Y1015275D01*
X25290697Y982580D01*
X25123103Y982580D01*
X24958731Y1015275D01*
X24803895Y1079411D01*
X24664546Y1172520D01*
X24546040Y1291026D01*
X24452931Y1430375D01*
X24388795Y1585211D01*
X24356100Y1749583D01*
X24356100Y1917177D01*
X24388795Y2081549D01*
X24452931Y2236385D01*
X24546040Y2375734D01*
X24664546Y2494240D01*
X24803895Y2587349D01*
X24958731Y2651485D01*
X25123103Y2684180D01*
X25290697Y2684180D01*
X25455069Y2651485D01*
G37*
G36*
X22915069Y2651485D02*
G01*
X23069905Y2587349D01*
X23209254Y2494240D01*
X23327760Y2375734D01*
X23420869Y2236385D01*
X23485005Y2081549D01*
X23517700Y1917177D01*
X23517700Y1749583D01*
X23485005Y1585211D01*
X23420869Y1430375D01*
X23327760Y1291026D01*
X23209254Y1172520D01*
X23069905Y1079411D01*
X22915069Y1015275D01*
X22750697Y982580D01*
X22583103Y982580D01*
X22418731Y1015275D01*
X22263895Y1079411D01*
X22124546Y1172520D01*
X22006040Y1291026D01*
X21912931Y1430375D01*
X21848795Y1585211D01*
X21816100Y1749583D01*
X21816100Y1917177D01*
X21848795Y2081549D01*
X21912931Y2236385D01*
X22006040Y2375734D01*
X22124546Y2494240D01*
X22263895Y2587349D01*
X22418731Y2651485D01*
X22583103Y2684180D01*
X22750697Y2684180D01*
X22915069Y2651485D01*
G37*
G36*
X20375069Y2651485D02*
G01*
X20529905Y2587349D01*
X20669254Y2494240D01*
X20787760Y2375734D01*
X20880869Y2236385D01*
X20945005Y2081549D01*
X20977700Y1917177D01*
X20977700Y1749583D01*
X20945005Y1585211D01*
X20880869Y1430375D01*
X20787760Y1291026D01*
X20669254Y1172520D01*
X20529905Y1079411D01*
X20375069Y1015275D01*
X20210697Y982580D01*
X20043103Y982580D01*
X19878731Y1015275D01*
X19723895Y1079411D01*
X19584546Y1172520D01*
X19466040Y1291026D01*
X19372931Y1430375D01*
X19308795Y1585211D01*
X19276100Y1749583D01*
X19276100Y1917177D01*
X19308795Y2081549D01*
X19372931Y2236385D01*
X19466040Y2375734D01*
X19584546Y2494240D01*
X19723895Y2587349D01*
X19878731Y2651485D01*
X20043103Y2684180D01*
X20210697Y2684180D01*
X20375069Y2651485D01*
G37*
G36*
X17835069Y2651485D02*
G01*
X17989905Y2587349D01*
X18129254Y2494240D01*
X18247760Y2375734D01*
X18340869Y2236385D01*
X18405005Y2081549D01*
X18437700Y1917177D01*
X18437700Y1749583D01*
X18405005Y1585211D01*
X18340869Y1430375D01*
X18247760Y1291026D01*
X18129254Y1172520D01*
X17989905Y1079411D01*
X17835069Y1015275D01*
X17670697Y982580D01*
X17503103Y982580D01*
X17338731Y1015275D01*
X17183895Y1079411D01*
X17044546Y1172520D01*
X16926040Y1291026D01*
X16832931Y1430375D01*
X16768795Y1585211D01*
X16736100Y1749583D01*
X16736100Y1917177D01*
X16768795Y2081549D01*
X16832931Y2236385D01*
X16926040Y2375734D01*
X17044546Y2494240D01*
X17183895Y2587349D01*
X17338731Y2651485D01*
X17503103Y2684180D01*
X17670697Y2684180D01*
X17835069Y2651485D01*
G37*
G36*
X15295069Y2651485D02*
G01*
X15449905Y2587349D01*
X15589254Y2494240D01*
X15707760Y2375734D01*
X15800869Y2236385D01*
X15865005Y2081549D01*
X15897700Y1917177D01*
X15897700Y1749583D01*
X15865005Y1585211D01*
X15800869Y1430375D01*
X15707760Y1291026D01*
X15589254Y1172520D01*
X15449905Y1079411D01*
X15295069Y1015275D01*
X15130697Y982580D01*
X14963103Y982580D01*
X14798731Y1015275D01*
X14643895Y1079411D01*
X14504546Y1172520D01*
X14386040Y1291026D01*
X14292931Y1430375D01*
X14228795Y1585211D01*
X14196100Y1749583D01*
X14196100Y1917177D01*
X14228795Y2081549D01*
X14292931Y2236385D01*
X14386040Y2375734D01*
X14504546Y2494240D01*
X14643895Y2587349D01*
X14798731Y2651485D01*
X14963103Y2684180D01*
X15130697Y2684180D01*
X15295069Y2651485D01*
G37*
G36*
X12755069Y2651485D02*
G01*
X12909905Y2587349D01*
X13049254Y2494240D01*
X13167760Y2375734D01*
X13260869Y2236385D01*
X13325005Y2081549D01*
X13357700Y1917177D01*
X13357700Y1749583D01*
X13325005Y1585211D01*
X13260869Y1430375D01*
X13167760Y1291026D01*
X13049254Y1172520D01*
X12909905Y1079411D01*
X12755069Y1015275D01*
X12590697Y982580D01*
X12423103Y982580D01*
X12258731Y1015275D01*
X12103895Y1079411D01*
X11964546Y1172520D01*
X11846040Y1291026D01*
X11752931Y1430375D01*
X11688795Y1585211D01*
X11656100Y1749583D01*
X11656100Y1917177D01*
X11688795Y2081549D01*
X11752931Y2236385D01*
X11846040Y2375734D01*
X11964546Y2494240D01*
X12103895Y2587349D01*
X12258731Y2651485D01*
X12423103Y2684180D01*
X12590697Y2684180D01*
X12755069Y2651485D01*
G37*
G36*
X10215069Y2651485D02*
G01*
X10369905Y2587349D01*
X10509254Y2494240D01*
X10627760Y2375734D01*
X10720869Y2236385D01*
X10785005Y2081549D01*
X10817700Y1917177D01*
X10817700Y1749583D01*
X10785005Y1585211D01*
X10720869Y1430375D01*
X10627760Y1291026D01*
X10509254Y1172520D01*
X10369905Y1079411D01*
X10215069Y1015275D01*
X10050697Y982580D01*
X9883103Y982580D01*
X9718731Y1015275D01*
X9563895Y1079411D01*
X9424546Y1172520D01*
X9306040Y1291026D01*
X9212931Y1430375D01*
X9148795Y1585211D01*
X9116100Y1749583D01*
X9116100Y1917177D01*
X9148795Y2081549D01*
X9212931Y2236385D01*
X9306040Y2375734D01*
X9424546Y2494240D01*
X9563895Y2587349D01*
X9718731Y2651485D01*
X9883103Y2684180D01*
X10050697Y2684180D01*
X10215069Y2651485D01*
G37*
G36*
X7675069Y2651485D02*
G01*
X7829905Y2587349D01*
X7969254Y2494240D01*
X8087760Y2375734D01*
X8180869Y2236385D01*
X8245005Y2081549D01*
X8277700Y1917177D01*
X8277700Y1749583D01*
X8245005Y1585211D01*
X8180869Y1430375D01*
X8087760Y1291026D01*
X7969254Y1172520D01*
X7829905Y1079411D01*
X7675069Y1015275D01*
X7510697Y982580D01*
X7343103Y982580D01*
X7178731Y1015275D01*
X7023895Y1079411D01*
X6884546Y1172520D01*
X6766040Y1291026D01*
X6672931Y1430375D01*
X6608795Y1585211D01*
X6576100Y1749583D01*
X6576100Y1917177D01*
X6608795Y2081549D01*
X6672931Y2236385D01*
X6766040Y2375734D01*
X6884546Y2494240D01*
X7023895Y2587349D01*
X7178731Y2651485D01*
X7343103Y2684180D01*
X7510697Y2684180D01*
X7675069Y2651485D01*
G37*
G36*
X5135069Y2651485D02*
G01*
X5289905Y2587349D01*
X5429254Y2494240D01*
X5547760Y2375734D01*
X5640869Y2236385D01*
X5705005Y2081549D01*
X5737700Y1917177D01*
X5737700Y1749583D01*
X5705005Y1585211D01*
X5640869Y1430375D01*
X5547760Y1291026D01*
X5429254Y1172520D01*
X5289905Y1079411D01*
X5135069Y1015275D01*
X4970697Y982580D01*
X4803103Y982580D01*
X4638731Y1015275D01*
X4483895Y1079411D01*
X4344546Y1172520D01*
X4226040Y1291026D01*
X4132931Y1430375D01*
X4068795Y1585211D01*
X4036100Y1749583D01*
X4036100Y1917177D01*
X4068795Y2081549D01*
X4132931Y2236385D01*
X4226040Y2375734D01*
X4344546Y2494240D01*
X4483895Y2587349D01*
X4638731Y2651485D01*
X4803103Y2684180D01*
X4970697Y2684180D01*
X5135069Y2651485D01*
G37*
G36*
X3197700Y982580D02*
G01*
X1496100Y982580D01*
X1496100Y2684180D01*
X3197700Y2684180D01*
X3197700Y982580D01*
G37*
G36*
X157061183Y2446177D02*
G01*
X157192943Y2391600D01*
X157311523Y2312367D01*
X157412367Y2211523D01*
X157491600Y2092943D01*
X157546177Y1961183D01*
X157574000Y1821308D01*
X157574000Y1678692D01*
X157546177Y1538817D01*
X157491600Y1407057D01*
X157412367Y1288477D01*
X157311523Y1187633D01*
X157192943Y1108400D01*
X157061183Y1053823D01*
X156921308Y1026000D01*
X156778692Y1026000D01*
X156638817Y1053823D01*
X156507057Y1108400D01*
X156388477Y1187633D01*
X156287633Y1288477D01*
X156208400Y1407057D01*
X156153823Y1538817D01*
X156126000Y1678692D01*
X156126000Y1821308D01*
X156153823Y1961183D01*
X156208400Y2092943D01*
X156287633Y2211523D01*
X156388477Y2312367D01*
X156507057Y2391600D01*
X156638817Y2446177D01*
X156778692Y2474000D01*
X156921308Y2474000D01*
X157061183Y2446177D01*
G37*
G36*
X144712654Y3727756D02*
G01*
X144740779Y3719224D01*
X144766695Y3705372D01*
X144789409Y3686729D01*
X144808052Y3664015D01*
X144821904Y3638099D01*
X144830436Y3609974D01*
X144833560Y3578249D01*
X144833560Y1831911D01*
X144830436Y1800186D01*
X144821904Y1772061D01*
X144808052Y1746145D01*
X144789409Y1723431D01*
X144766695Y1704788D01*
X144740779Y1690936D01*
X144712654Y1682404D01*
X144680929Y1679280D01*
X144284591Y1679280D01*
X144252866Y1682404D01*
X144224741Y1690936D01*
X144198825Y1704788D01*
X144176111Y1723431D01*
X144157468Y1746145D01*
X144143616Y1772061D01*
X144135084Y1800186D01*
X144131960Y1831911D01*
X144131960Y3578249D01*
X144135084Y3609974D01*
X144143616Y3638099D01*
X144157468Y3664015D01*
X144176111Y3686729D01*
X144198825Y3705372D01*
X144224741Y3719224D01*
X144252866Y3727756D01*
X144284591Y3730880D01*
X144680929Y3730880D01*
X144712654Y3727756D01*
G37*
G36*
X142172654Y3727756D02*
G01*
X142200779Y3719224D01*
X142226695Y3705372D01*
X142249409Y3686729D01*
X142268052Y3664015D01*
X142281904Y3638099D01*
X142290436Y3609974D01*
X142293560Y3578249D01*
X142293560Y1831911D01*
X142290436Y1800186D01*
X142281904Y1772061D01*
X142268052Y1746145D01*
X142249409Y1723431D01*
X142226695Y1704788D01*
X142200779Y1690936D01*
X142172654Y1682404D01*
X142140929Y1679280D01*
X141744591Y1679280D01*
X141712866Y1682404D01*
X141684741Y1690936D01*
X141658825Y1704788D01*
X141636111Y1723431D01*
X141617468Y1746145D01*
X141603616Y1772061D01*
X141595084Y1800186D01*
X141591960Y1831911D01*
X141591960Y3578249D01*
X141595084Y3609974D01*
X141603616Y3638099D01*
X141617468Y3664015D01*
X141636111Y3686729D01*
X141658825Y3705372D01*
X141684741Y3719224D01*
X141712866Y3727756D01*
X141744591Y3730880D01*
X142140929Y3730880D01*
X142172654Y3727756D01*
G37*
G36*
X143442654Y3727756D02*
G01*
X143470779Y3719224D01*
X143496695Y3705372D01*
X143519409Y3686729D01*
X143538052Y3664015D01*
X143551904Y3638099D01*
X143560436Y3609974D01*
X143563560Y3578249D01*
X143563560Y1831911D01*
X143560436Y1800186D01*
X143551904Y1772061D01*
X143538052Y1746145D01*
X143519409Y1723431D01*
X143496695Y1704788D01*
X143470779Y1690936D01*
X143442654Y1682404D01*
X143410929Y1679280D01*
X143014591Y1679280D01*
X142982866Y1682404D01*
X142954741Y1690936D01*
X142928825Y1704788D01*
X142906111Y1723431D01*
X142887468Y1746145D01*
X142873616Y1772061D01*
X142865084Y1800186D01*
X142861960Y1831911D01*
X142861960Y3578249D01*
X142865084Y3609974D01*
X142873616Y3638099D01*
X142887468Y3664015D01*
X142906111Y3686729D01*
X142928825Y3705372D01*
X142954741Y3719224D01*
X142982866Y3727756D01*
X143014591Y3730880D01*
X143410929Y3730880D01*
X143442654Y3727756D01*
G37*
G36*
X148522654Y3727756D02*
G01*
X148550779Y3719224D01*
X148576695Y3705372D01*
X148599409Y3686729D01*
X148618052Y3664015D01*
X148631904Y3638099D01*
X148640436Y3609974D01*
X148643560Y3578249D01*
X148643560Y1831911D01*
X148640436Y1800186D01*
X148631904Y1772061D01*
X148618052Y1746145D01*
X148599409Y1723431D01*
X148576695Y1704788D01*
X148550779Y1690936D01*
X148522654Y1682404D01*
X148490929Y1679280D01*
X148094591Y1679280D01*
X148062866Y1682404D01*
X148034741Y1690936D01*
X148008825Y1704788D01*
X147986111Y1723431D01*
X147967468Y1746145D01*
X147953616Y1772061D01*
X147945084Y1800186D01*
X147941960Y1831911D01*
X147941960Y3578249D01*
X147945084Y3609974D01*
X147953616Y3638099D01*
X147967468Y3664015D01*
X147986111Y3686729D01*
X148008825Y3705372D01*
X148034741Y3719224D01*
X148062866Y3727756D01*
X148094591Y3730880D01*
X148490929Y3730880D01*
X148522654Y3727756D01*
G37*
G36*
X149792654Y3727756D02*
G01*
X149820779Y3719224D01*
X149846695Y3705372D01*
X149869409Y3686729D01*
X149888052Y3664015D01*
X149901904Y3638099D01*
X149910436Y3609974D01*
X149913560Y3578249D01*
X149913560Y1831911D01*
X149910436Y1800186D01*
X149901904Y1772061D01*
X149888052Y1746145D01*
X149869409Y1723431D01*
X149846695Y1704788D01*
X149820779Y1690936D01*
X149792654Y1682404D01*
X149760929Y1679280D01*
X149364591Y1679280D01*
X149332866Y1682404D01*
X149304741Y1690936D01*
X149278825Y1704788D01*
X149256111Y1723431D01*
X149237468Y1746145D01*
X149223616Y1772061D01*
X149215084Y1800186D01*
X149211960Y1831911D01*
X149211960Y3578249D01*
X149215084Y3609974D01*
X149223616Y3638099D01*
X149237468Y3664015D01*
X149256111Y3686729D01*
X149278825Y3705372D01*
X149304741Y3719224D01*
X149332866Y3727756D01*
X149364591Y3730880D01*
X149760929Y3730880D01*
X149792654Y3727756D01*
G37*
G36*
X147252654Y3727756D02*
G01*
X147280779Y3719224D01*
X147306695Y3705372D01*
X147329409Y3686729D01*
X147348052Y3664015D01*
X147361904Y3638099D01*
X147370436Y3609974D01*
X147373560Y3578249D01*
X147373560Y1831911D01*
X147370436Y1800186D01*
X147361904Y1772061D01*
X147348052Y1746145D01*
X147329409Y1723431D01*
X147306695Y1704788D01*
X147280779Y1690936D01*
X147252654Y1682404D01*
X147220929Y1679280D01*
X146824591Y1679280D01*
X146792866Y1682404D01*
X146764741Y1690936D01*
X146738825Y1704788D01*
X146716111Y1723431D01*
X146697468Y1746145D01*
X146683616Y1772061D01*
X146675084Y1800186D01*
X146671960Y1831911D01*
X146671960Y3578249D01*
X146675084Y3609974D01*
X146683616Y3638099D01*
X146697468Y3664015D01*
X146716111Y3686729D01*
X146738825Y3705372D01*
X146764741Y3719224D01*
X146792866Y3727756D01*
X146824591Y3730880D01*
X147220929Y3730880D01*
X147252654Y3727756D01*
G37*
G36*
X145982654Y3727756D02*
G01*
X146010779Y3719224D01*
X146036695Y3705372D01*
X146059409Y3686729D01*
X146078052Y3664015D01*
X146091904Y3638099D01*
X146100436Y3609974D01*
X146103560Y3578249D01*
X146103560Y1831911D01*
X146100436Y1800186D01*
X146091904Y1772061D01*
X146078052Y1746145D01*
X146059409Y1723431D01*
X146036695Y1704788D01*
X146010779Y1690936D01*
X145982654Y1682404D01*
X145950929Y1679280D01*
X145554591Y1679280D01*
X145522866Y1682404D01*
X145494741Y1690936D01*
X145468825Y1704788D01*
X145446111Y1723431D01*
X145427468Y1746145D01*
X145413616Y1772061D01*
X145405084Y1800186D01*
X145401960Y1831911D01*
X145401960Y3578249D01*
X145405084Y3609974D01*
X145413616Y3638099D01*
X145427468Y3664015D01*
X145446111Y3686729D01*
X145468825Y3705372D01*
X145494741Y3719224D01*
X145522866Y3727756D01*
X145554591Y3730880D01*
X145950929Y3730880D01*
X145982654Y3727756D01*
G37*
G36*
X131365506Y3586620D02*
G01*
X131411142Y3572776D01*
X131453207Y3550292D01*
X131490075Y3520035D01*
X131520332Y3483167D01*
X131542816Y3441102D01*
X131556660Y3395466D01*
X131561580Y3345514D01*
X131561580Y2335966D01*
X131556660Y2286014D01*
X131542816Y2240378D01*
X131520332Y2198313D01*
X131490075Y2161445D01*
X131453207Y2131188D01*
X131411142Y2108704D01*
X131365506Y2094860D01*
X131315554Y2089940D01*
X130556006Y2089940D01*
X130506054Y2094860D01*
X130460418Y2108704D01*
X130418353Y2131188D01*
X130381485Y2161445D01*
X130351228Y2198313D01*
X130328744Y2240378D01*
X130314900Y2286014D01*
X130309980Y2335966D01*
X130309980Y3345514D01*
X130314900Y3395466D01*
X130328744Y3441102D01*
X130351228Y3483167D01*
X130381485Y3520035D01*
X130418353Y3550292D01*
X130460418Y3572776D01*
X130506054Y3586620D01*
X130556006Y3591540D01*
X131315554Y3591540D01*
X131365506Y3586620D01*
G37*
G36*
X129315506Y3586620D02*
G01*
X129361142Y3572776D01*
X129403207Y3550292D01*
X129440075Y3520035D01*
X129470332Y3483167D01*
X129492816Y3441102D01*
X129506660Y3395466D01*
X129511580Y3345514D01*
X129511580Y2335966D01*
X129506660Y2286014D01*
X129492816Y2240378D01*
X129470332Y2198313D01*
X129440075Y2161445D01*
X129403207Y2131188D01*
X129361142Y2108704D01*
X129315506Y2094860D01*
X129265554Y2089940D01*
X128506006Y2089940D01*
X128456054Y2094860D01*
X128410418Y2108704D01*
X128368353Y2131188D01*
X128331485Y2161445D01*
X128301228Y2198313D01*
X128278744Y2240378D01*
X128264900Y2286014D01*
X128259980Y2335966D01*
X128259980Y3345514D01*
X128264900Y3395466D01*
X128278744Y3441102D01*
X128301228Y3483167D01*
X128331485Y3520035D01*
X128368353Y3550292D01*
X128410418Y3572776D01*
X128456054Y3586620D01*
X128506006Y3591540D01*
X129265554Y3591540D01*
X129315506Y3586620D01*
G37*
G36*
X133382046Y3586620D02*
G01*
X133427682Y3572776D01*
X133469747Y3550292D01*
X133506615Y3520035D01*
X133536872Y3483167D01*
X133559356Y3441102D01*
X133573200Y3395466D01*
X133578120Y3345514D01*
X133578120Y2335966D01*
X133573200Y2286014D01*
X133559356Y2240378D01*
X133536872Y2198313D01*
X133506615Y2161445D01*
X133469747Y2131188D01*
X133427682Y2108704D01*
X133382046Y2094860D01*
X133332094Y2089940D01*
X132572546Y2089940D01*
X132522594Y2094860D01*
X132476958Y2108704D01*
X132434893Y2131188D01*
X132398025Y2161445D01*
X132367768Y2198313D01*
X132345284Y2240378D01*
X132331440Y2286014D01*
X132326520Y2335966D01*
X132326520Y3345514D01*
X132331440Y3395466D01*
X132345284Y3441102D01*
X132367768Y3483167D01*
X132398025Y3520035D01*
X132434893Y3550292D01*
X132476958Y3572776D01*
X132522594Y3586620D01*
X132572546Y3591540D01*
X133332094Y3591540D01*
X133382046Y3586620D01*
G37*
G36*
X135432046Y3586620D02*
G01*
X135477682Y3572776D01*
X135519747Y3550292D01*
X135556615Y3520035D01*
X135586872Y3483167D01*
X135609356Y3441102D01*
X135623200Y3395466D01*
X135628120Y3345514D01*
X135628120Y2335966D01*
X135623200Y2286014D01*
X135609356Y2240378D01*
X135586872Y2198313D01*
X135556615Y2161445D01*
X135519747Y2131188D01*
X135477682Y2108704D01*
X135432046Y2094860D01*
X135382094Y2089940D01*
X134622546Y2089940D01*
X134572594Y2094860D01*
X134526958Y2108704D01*
X134484893Y2131188D01*
X134448025Y2161445D01*
X134417768Y2198313D01*
X134395284Y2240378D01*
X134381440Y2286014D01*
X134376520Y2335966D01*
X134376520Y3345514D01*
X134381440Y3395466D01*
X134395284Y3441102D01*
X134417768Y3483167D01*
X134448025Y3520035D01*
X134484893Y3550292D01*
X134526958Y3572776D01*
X134572594Y3586620D01*
X134622546Y3591540D01*
X135382094Y3591540D01*
X135432046Y3586620D01*
G37*
G36*
X60234794Y4144316D02*
G01*
X60262919Y4135784D01*
X60288835Y4121932D01*
X60311549Y4103289D01*
X60330192Y4080575D01*
X60344044Y4054659D01*
X60352576Y4026534D01*
X60355700Y3994809D01*
X60355700Y2248471D01*
X60352576Y2216746D01*
X60344044Y2188621D01*
X60330192Y2162705D01*
X60311549Y2139991D01*
X60288835Y2121348D01*
X60262919Y2107496D01*
X60234794Y2098964D01*
X60203069Y2095840D01*
X59806731Y2095840D01*
X59775006Y2098964D01*
X59746881Y2107496D01*
X59720965Y2121348D01*
X59698251Y2139991D01*
X59679608Y2162705D01*
X59665756Y2188621D01*
X59657224Y2216746D01*
X59654100Y2248471D01*
X59654100Y3994809D01*
X59657224Y4026534D01*
X59665756Y4054659D01*
X59679608Y4080575D01*
X59698251Y4103289D01*
X59720965Y4121932D01*
X59746881Y4135784D01*
X59775006Y4144316D01*
X59806731Y4147440D01*
X60203069Y4147440D01*
X60234794Y4144316D01*
G37*
G36*
X88230674Y4144316D02*
G01*
X88258799Y4135784D01*
X88284715Y4121932D01*
X88307429Y4103289D01*
X88326072Y4080575D01*
X88339924Y4054659D01*
X88348456Y4026534D01*
X88351580Y3994809D01*
X88351580Y2248471D01*
X88348456Y2216746D01*
X88339924Y2188621D01*
X88326072Y2162705D01*
X88307429Y2139991D01*
X88284715Y2121348D01*
X88258799Y2107496D01*
X88230674Y2098964D01*
X88198949Y2095840D01*
X87802611Y2095840D01*
X87770886Y2098964D01*
X87742761Y2107496D01*
X87716845Y2121348D01*
X87694131Y2139991D01*
X87675488Y2162705D01*
X87661636Y2188621D01*
X87653104Y2216746D01*
X87649980Y2248471D01*
X87649980Y3994809D01*
X87653104Y4026534D01*
X87661636Y4054659D01*
X87675488Y4080575D01*
X87694131Y4103289D01*
X87716845Y4121932D01*
X87742761Y4135784D01*
X87770886Y4144316D01*
X87802611Y4147440D01*
X88198949Y4147440D01*
X88230674Y4144316D01*
G37*
G36*
X56424794Y4144316D02*
G01*
X56452919Y4135784D01*
X56478835Y4121932D01*
X56501549Y4103289D01*
X56520192Y4080575D01*
X56534044Y4054659D01*
X56542576Y4026534D01*
X56545700Y3994809D01*
X56545700Y2248471D01*
X56542576Y2216746D01*
X56534044Y2188621D01*
X56520192Y2162705D01*
X56501549Y2139991D01*
X56478835Y2121348D01*
X56452919Y2107496D01*
X56424794Y2098964D01*
X56393069Y2095840D01*
X55996731Y2095840D01*
X55965006Y2098964D01*
X55936881Y2107496D01*
X55910965Y2121348D01*
X55888251Y2139991D01*
X55869608Y2162705D01*
X55855756Y2188621D01*
X55847224Y2216746D01*
X55844100Y2248471D01*
X55844100Y3994809D01*
X55847224Y4026534D01*
X55855756Y4054659D01*
X55869608Y4080575D01*
X55888251Y4103289D01*
X55910965Y4121932D01*
X55936881Y4135784D01*
X55965006Y4144316D01*
X55996731Y4147440D01*
X56393069Y4147440D01*
X56424794Y4144316D01*
G37*
G36*
X55154794Y4144316D02*
G01*
X55182919Y4135784D01*
X55208835Y4121932D01*
X55231549Y4103289D01*
X55250192Y4080575D01*
X55264044Y4054659D01*
X55272576Y4026534D01*
X55275700Y3994809D01*
X55275700Y2248471D01*
X55272576Y2216746D01*
X55264044Y2188621D01*
X55250192Y2162705D01*
X55231549Y2139991D01*
X55208835Y2121348D01*
X55182919Y2107496D01*
X55154794Y2098964D01*
X55123069Y2095840D01*
X54726731Y2095840D01*
X54695006Y2098964D01*
X54666881Y2107496D01*
X54640965Y2121348D01*
X54618251Y2139991D01*
X54599608Y2162705D01*
X54585756Y2188621D01*
X54577224Y2216746D01*
X54574100Y2248471D01*
X54574100Y3994809D01*
X54577224Y4026534D01*
X54585756Y4054659D01*
X54599608Y4080575D01*
X54618251Y4103289D01*
X54640965Y4121932D01*
X54666881Y4135784D01*
X54695006Y4144316D01*
X54726731Y4147440D01*
X55123069Y4147440D01*
X55154794Y4144316D01*
G37*
G36*
X53884794Y4144316D02*
G01*
X53912919Y4135784D01*
X53938835Y4121932D01*
X53961549Y4103289D01*
X53980192Y4080575D01*
X53994044Y4054659D01*
X54002576Y4026534D01*
X54005700Y3994809D01*
X54005700Y2248471D01*
X54002576Y2216746D01*
X53994044Y2188621D01*
X53980192Y2162705D01*
X53961549Y2139991D01*
X53938835Y2121348D01*
X53912919Y2107496D01*
X53884794Y2098964D01*
X53853069Y2095840D01*
X53456731Y2095840D01*
X53425006Y2098964D01*
X53396881Y2107496D01*
X53370965Y2121348D01*
X53348251Y2139991D01*
X53329608Y2162705D01*
X53315756Y2188621D01*
X53307224Y2216746D01*
X53304100Y2248471D01*
X53304100Y3994809D01*
X53307224Y4026534D01*
X53315756Y4054659D01*
X53329608Y4080575D01*
X53348251Y4103289D01*
X53370965Y4121932D01*
X53396881Y4135784D01*
X53425006Y4144316D01*
X53456731Y4147440D01*
X53853069Y4147440D01*
X53884794Y4144316D01*
G37*
G36*
X90770674Y4144316D02*
G01*
X90798799Y4135784D01*
X90824715Y4121932D01*
X90847429Y4103289D01*
X90866072Y4080575D01*
X90879924Y4054659D01*
X90888456Y4026534D01*
X90891580Y3994809D01*
X90891580Y2248471D01*
X90888456Y2216746D01*
X90879924Y2188621D01*
X90866072Y2162705D01*
X90847429Y2139991D01*
X90824715Y2121348D01*
X90798799Y2107496D01*
X90770674Y2098964D01*
X90738949Y2095840D01*
X90342611Y2095840D01*
X90310886Y2098964D01*
X90282761Y2107496D01*
X90256845Y2121348D01*
X90234131Y2139991D01*
X90215488Y2162705D01*
X90201636Y2188621D01*
X90193104Y2216746D01*
X90189980Y2248471D01*
X90189980Y3994809D01*
X90193104Y4026534D01*
X90201636Y4054659D01*
X90215488Y4080575D01*
X90234131Y4103289D01*
X90256845Y4121932D01*
X90282761Y4135784D01*
X90310886Y4144316D01*
X90342611Y4147440D01*
X90738949Y4147440D01*
X90770674Y4144316D01*
G37*
G36*
X89500674Y4144316D02*
G01*
X89528799Y4135784D01*
X89554715Y4121932D01*
X89577429Y4103289D01*
X89596072Y4080575D01*
X89609924Y4054659D01*
X89618456Y4026534D01*
X89621580Y3994809D01*
X89621580Y2248471D01*
X89618456Y2216746D01*
X89609924Y2188621D01*
X89596072Y2162705D01*
X89577429Y2139991D01*
X89554715Y2121348D01*
X89528799Y2107496D01*
X89500674Y2098964D01*
X89468949Y2095840D01*
X89072611Y2095840D01*
X89040886Y2098964D01*
X89012761Y2107496D01*
X88986845Y2121348D01*
X88964131Y2139991D01*
X88945488Y2162705D01*
X88931636Y2188621D01*
X88923104Y2216746D01*
X88919980Y2248471D01*
X88919980Y3994809D01*
X88923104Y4026534D01*
X88931636Y4054659D01*
X88945488Y4080575D01*
X88964131Y4103289D01*
X88986845Y4121932D01*
X89012761Y4135784D01*
X89040886Y4144316D01*
X89072611Y4147440D01*
X89468949Y4147440D01*
X89500674Y4144316D01*
G37*
G36*
X85690674Y4144316D02*
G01*
X85718799Y4135784D01*
X85744715Y4121932D01*
X85767429Y4103289D01*
X85786072Y4080575D01*
X85799924Y4054659D01*
X85808456Y4026534D01*
X85811580Y3994809D01*
X85811580Y2248471D01*
X85808456Y2216746D01*
X85799924Y2188621D01*
X85786072Y2162705D01*
X85767429Y2139991D01*
X85744715Y2121348D01*
X85718799Y2107496D01*
X85690674Y2098964D01*
X85658949Y2095840D01*
X85262611Y2095840D01*
X85230886Y2098964D01*
X85202761Y2107496D01*
X85176845Y2121348D01*
X85154131Y2139991D01*
X85135488Y2162705D01*
X85121636Y2188621D01*
X85113104Y2216746D01*
X85109980Y2248471D01*
X85109980Y3994809D01*
X85113104Y4026534D01*
X85121636Y4054659D01*
X85135488Y4080575D01*
X85154131Y4103289D01*
X85176845Y4121932D01*
X85202761Y4135784D01*
X85230886Y4144316D01*
X85262611Y4147440D01*
X85658949Y4147440D01*
X85690674Y4144316D01*
G37*
G36*
X124072614Y4144316D02*
G01*
X124100739Y4135784D01*
X124126655Y4121932D01*
X124149369Y4103289D01*
X124168012Y4080575D01*
X124181864Y4054659D01*
X124190396Y4026534D01*
X124193520Y3994809D01*
X124193520Y2248471D01*
X124190396Y2216746D01*
X124181864Y2188621D01*
X124168012Y2162705D01*
X124149369Y2139991D01*
X124126655Y2121348D01*
X124100739Y2107496D01*
X124072614Y2098964D01*
X124040889Y2095840D01*
X123644551Y2095840D01*
X123612826Y2098964D01*
X123584701Y2107496D01*
X123558785Y2121348D01*
X123536071Y2139991D01*
X123517428Y2162705D01*
X123503576Y2188621D01*
X123495044Y2216746D01*
X123491920Y2248471D01*
X123491920Y3994809D01*
X123495044Y4026534D01*
X123503576Y4054659D01*
X123517428Y4080575D01*
X123536071Y4103289D01*
X123558785Y4121932D01*
X123584701Y4135784D01*
X123612826Y4144316D01*
X123644551Y4147440D01*
X124040889Y4147440D01*
X124072614Y4144316D01*
G37*
G36*
X122802614Y4144316D02*
G01*
X122830739Y4135784D01*
X122856655Y4121932D01*
X122879369Y4103289D01*
X122898012Y4080575D01*
X122911864Y4054659D01*
X122920396Y4026534D01*
X122923520Y3994809D01*
X122923520Y2248471D01*
X122920396Y2216746D01*
X122911864Y2188621D01*
X122898012Y2162705D01*
X122879369Y2139991D01*
X122856655Y2121348D01*
X122830739Y2107496D01*
X122802614Y2098964D01*
X122770889Y2095840D01*
X122374551Y2095840D01*
X122342826Y2098964D01*
X122314701Y2107496D01*
X122288785Y2121348D01*
X122266071Y2139991D01*
X122247428Y2162705D01*
X122233576Y2188621D01*
X122225044Y2216746D01*
X122221920Y2248471D01*
X122221920Y3994809D01*
X122225044Y4026534D01*
X122233576Y4054659D01*
X122247428Y4080575D01*
X122266071Y4103289D01*
X122288785Y4121932D01*
X122314701Y4135784D01*
X122342826Y4144316D01*
X122374551Y4147440D01*
X122770889Y4147440D01*
X122802614Y4144316D01*
G37*
G36*
X58964794Y4144316D02*
G01*
X58992919Y4135784D01*
X59018835Y4121932D01*
X59041549Y4103289D01*
X59060192Y4080575D01*
X59074044Y4054659D01*
X59082576Y4026534D01*
X59085700Y3994809D01*
X59085700Y2248471D01*
X59082576Y2216746D01*
X59074044Y2188621D01*
X59060192Y2162705D01*
X59041549Y2139991D01*
X59018835Y2121348D01*
X58992919Y2107496D01*
X58964794Y2098964D01*
X58933069Y2095840D01*
X58536731Y2095840D01*
X58505006Y2098964D01*
X58476881Y2107496D01*
X58450965Y2121348D01*
X58428251Y2139991D01*
X58409608Y2162705D01*
X58395756Y2188621D01*
X58387224Y2216746D01*
X58384100Y2248471D01*
X58384100Y3994809D01*
X58387224Y4026534D01*
X58395756Y4054659D01*
X58409608Y4080575D01*
X58428251Y4103289D01*
X58450965Y4121932D01*
X58476881Y4135784D01*
X58505006Y4144316D01*
X58536731Y4147440D01*
X58933069Y4147440D01*
X58964794Y4144316D01*
G37*
G36*
X86960674Y4144316D02*
G01*
X86988799Y4135784D01*
X87014715Y4121932D01*
X87037429Y4103289D01*
X87056072Y4080575D01*
X87069924Y4054659D01*
X87078456Y4026534D01*
X87081580Y3994809D01*
X87081580Y2248471D01*
X87078456Y2216746D01*
X87069924Y2188621D01*
X87056072Y2162705D01*
X87037429Y2139991D01*
X87014715Y2121348D01*
X86988799Y2107496D01*
X86960674Y2098964D01*
X86928949Y2095840D01*
X86532611Y2095840D01*
X86500886Y2098964D01*
X86472761Y2107496D01*
X86446845Y2121348D01*
X86424131Y2139991D01*
X86405488Y2162705D01*
X86391636Y2188621D01*
X86383104Y2216746D01*
X86379980Y2248471D01*
X86379980Y3994809D01*
X86383104Y4026534D01*
X86391636Y4054659D01*
X86405488Y4080575D01*
X86424131Y4103289D01*
X86446845Y4121932D01*
X86472761Y4135784D01*
X86500886Y4144316D01*
X86532611Y4147440D01*
X86928949Y4147440D01*
X86960674Y4144316D01*
G37*
G36*
X52614794Y4144316D02*
G01*
X52642919Y4135784D01*
X52668835Y4121932D01*
X52691549Y4103289D01*
X52710192Y4080575D01*
X52724044Y4054659D01*
X52732576Y4026534D01*
X52735700Y3994809D01*
X52735700Y2248471D01*
X52732576Y2216746D01*
X52724044Y2188621D01*
X52710192Y2162705D01*
X52691549Y2139991D01*
X52668835Y2121348D01*
X52642919Y2107496D01*
X52614794Y2098964D01*
X52583069Y2095840D01*
X52186731Y2095840D01*
X52155006Y2098964D01*
X52126881Y2107496D01*
X52100965Y2121348D01*
X52078251Y2139991D01*
X52059608Y2162705D01*
X52045756Y2188621D01*
X52037224Y2216746D01*
X52034100Y2248471D01*
X52034100Y3994809D01*
X52037224Y4026534D01*
X52045756Y4054659D01*
X52059608Y4080575D01*
X52078251Y4103289D01*
X52100965Y4121932D01*
X52126881Y4135784D01*
X52155006Y4144316D01*
X52186731Y4147440D01*
X52583069Y4147440D01*
X52614794Y4144316D01*
G37*
G36*
X57694794Y4144316D02*
G01*
X57722919Y4135784D01*
X57748835Y4121932D01*
X57771549Y4103289D01*
X57790192Y4080575D01*
X57804044Y4054659D01*
X57812576Y4026534D01*
X57815700Y3994809D01*
X57815700Y2248471D01*
X57812576Y2216746D01*
X57804044Y2188621D01*
X57790192Y2162705D01*
X57771549Y2139991D01*
X57748835Y2121348D01*
X57722919Y2107496D01*
X57694794Y2098964D01*
X57663069Y2095840D01*
X57266731Y2095840D01*
X57235006Y2098964D01*
X57206881Y2107496D01*
X57180965Y2121348D01*
X57158251Y2139991D01*
X57139608Y2162705D01*
X57125756Y2188621D01*
X57117224Y2216746D01*
X57114100Y2248471D01*
X57114100Y3994809D01*
X57117224Y4026534D01*
X57125756Y4054659D01*
X57139608Y4080575D01*
X57158251Y4103289D01*
X57180965Y4121932D01*
X57206881Y4135784D01*
X57235006Y4144316D01*
X57266731Y4147440D01*
X57663069Y4147440D01*
X57694794Y4144316D01*
G37*
G36*
X125342614Y4144316D02*
G01*
X125370739Y4135784D01*
X125396655Y4121932D01*
X125419369Y4103289D01*
X125438012Y4080575D01*
X125451864Y4054659D01*
X125460396Y4026534D01*
X125463520Y3994809D01*
X125463520Y2248471D01*
X125460396Y2216746D01*
X125451864Y2188621D01*
X125438012Y2162705D01*
X125419369Y2139991D01*
X125396655Y2121348D01*
X125370739Y2107496D01*
X125342614Y2098964D01*
X125310889Y2095840D01*
X124914551Y2095840D01*
X124882826Y2098964D01*
X124854701Y2107496D01*
X124828785Y2121348D01*
X124806071Y2139991D01*
X124787428Y2162705D01*
X124773576Y2188621D01*
X124765044Y2216746D01*
X124761920Y2248471D01*
X124761920Y3994809D01*
X124765044Y4026534D01*
X124773576Y4054659D01*
X124787428Y4080575D01*
X124806071Y4103289D01*
X124828785Y4121932D01*
X124854701Y4135784D01*
X124882826Y4144316D01*
X124914551Y4147440D01*
X125310889Y4147440D01*
X125342614Y4144316D01*
G37*
G36*
X126612614Y4144316D02*
G01*
X126640739Y4135784D01*
X126666655Y4121932D01*
X126689369Y4103289D01*
X126708012Y4080575D01*
X126721864Y4054659D01*
X126730396Y4026534D01*
X126733520Y3994809D01*
X126733520Y2248471D01*
X126730396Y2216746D01*
X126721864Y2188621D01*
X126708012Y2162705D01*
X126689369Y2139991D01*
X126666655Y2121348D01*
X126640739Y2107496D01*
X126612614Y2098964D01*
X126580889Y2095840D01*
X126184551Y2095840D01*
X126152826Y2098964D01*
X126124701Y2107496D01*
X126098785Y2121348D01*
X126076071Y2139991D01*
X126057428Y2162705D01*
X126043576Y2188621D01*
X126035044Y2216746D01*
X126031920Y2248471D01*
X126031920Y3994809D01*
X126035044Y4026534D01*
X126043576Y4054659D01*
X126057428Y4080575D01*
X126076071Y4103289D01*
X126098785Y4121932D01*
X126124701Y4135784D01*
X126152826Y4144316D01*
X126184551Y4147440D01*
X126580889Y4147440D01*
X126612614Y4144316D01*
G37*
G36*
X121532614Y4144316D02*
G01*
X121560739Y4135784D01*
X121586655Y4121932D01*
X121609369Y4103289D01*
X121628012Y4080575D01*
X121641864Y4054659D01*
X121650396Y4026534D01*
X121653520Y3994809D01*
X121653520Y2248471D01*
X121650396Y2216746D01*
X121641864Y2188621D01*
X121628012Y2162705D01*
X121609369Y2139991D01*
X121586655Y2121348D01*
X121560739Y2107496D01*
X121532614Y2098964D01*
X121500889Y2095840D01*
X121104551Y2095840D01*
X121072826Y2098964D01*
X121044701Y2107496D01*
X121018785Y2121348D01*
X120996071Y2139991D01*
X120977428Y2162705D01*
X120963576Y2188621D01*
X120955044Y2216746D01*
X120951920Y2248471D01*
X120951920Y3994809D01*
X120955044Y4026534D01*
X120963576Y4054659D01*
X120977428Y4080575D01*
X120996071Y4103289D01*
X121018785Y4121932D01*
X121044701Y4135784D01*
X121072826Y4144316D01*
X121104551Y4147440D01*
X121500889Y4147440D01*
X121532614Y4144316D01*
G37*
G36*
X120262614Y4144316D02*
G01*
X120290739Y4135784D01*
X120316655Y4121932D01*
X120339369Y4103289D01*
X120358012Y4080575D01*
X120371864Y4054659D01*
X120380396Y4026534D01*
X120383520Y3994809D01*
X120383520Y2248471D01*
X120380396Y2216746D01*
X120371864Y2188621D01*
X120358012Y2162705D01*
X120339369Y2139991D01*
X120316655Y2121348D01*
X120290739Y2107496D01*
X120262614Y2098964D01*
X120230889Y2095840D01*
X119834551Y2095840D01*
X119802826Y2098964D01*
X119774701Y2107496D01*
X119748785Y2121348D01*
X119726071Y2139991D01*
X119707428Y2162705D01*
X119693576Y2188621D01*
X119685044Y2216746D01*
X119681920Y2248471D01*
X119681920Y3994809D01*
X119685044Y4026534D01*
X119693576Y4054659D01*
X119707428Y4080575D01*
X119726071Y4103289D01*
X119748785Y4121932D01*
X119774701Y4135784D01*
X119802826Y4144316D01*
X119834551Y4147440D01*
X120230889Y4147440D01*
X120262614Y4144316D01*
G37*
G36*
X118992614Y4144316D02*
G01*
X119020739Y4135784D01*
X119046655Y4121932D01*
X119069369Y4103289D01*
X119088012Y4080575D01*
X119101864Y4054659D01*
X119110396Y4026534D01*
X119113520Y3994809D01*
X119113520Y2248471D01*
X119110396Y2216746D01*
X119101864Y2188621D01*
X119088012Y2162705D01*
X119069369Y2139991D01*
X119046655Y2121348D01*
X119020739Y2107496D01*
X118992614Y2098964D01*
X118960889Y2095840D01*
X118564551Y2095840D01*
X118532826Y2098964D01*
X118504701Y2107496D01*
X118478785Y2121348D01*
X118456071Y2139991D01*
X118437428Y2162705D01*
X118423576Y2188621D01*
X118415044Y2216746D01*
X118411920Y2248471D01*
X118411920Y3994809D01*
X118415044Y4026534D01*
X118423576Y4054659D01*
X118437428Y4080575D01*
X118456071Y4103289D01*
X118478785Y4121932D01*
X118504701Y4135784D01*
X118532826Y4144316D01*
X118564551Y4147440D01*
X118960889Y4147440D01*
X118992614Y4144316D01*
G37*
G36*
X117722614Y4144316D02*
G01*
X117750739Y4135784D01*
X117776655Y4121932D01*
X117799369Y4103289D01*
X117818012Y4080575D01*
X117831864Y4054659D01*
X117840396Y4026534D01*
X117843520Y3994809D01*
X117843520Y2248471D01*
X117840396Y2216746D01*
X117831864Y2188621D01*
X117818012Y2162705D01*
X117799369Y2139991D01*
X117776655Y2121348D01*
X117750739Y2107496D01*
X117722614Y2098964D01*
X117690889Y2095840D01*
X117294551Y2095840D01*
X117262826Y2098964D01*
X117234701Y2107496D01*
X117208785Y2121348D01*
X117186071Y2139991D01*
X117167428Y2162705D01*
X117153576Y2188621D01*
X117145044Y2216746D01*
X117141920Y2248471D01*
X117141920Y3994809D01*
X117145044Y4026534D01*
X117153576Y4054659D01*
X117167428Y4080575D01*
X117186071Y4103289D01*
X117208785Y4121932D01*
X117234701Y4135784D01*
X117262826Y4144316D01*
X117294551Y4147440D01*
X117690889Y4147440D01*
X117722614Y4144316D01*
G37*
G36*
X94580674Y4144316D02*
G01*
X94608799Y4135784D01*
X94634715Y4121932D01*
X94657429Y4103289D01*
X94676072Y4080575D01*
X94689924Y4054659D01*
X94698456Y4026534D01*
X94701580Y3994809D01*
X94701580Y2248471D01*
X94698456Y2216746D01*
X94689924Y2188621D01*
X94676072Y2162705D01*
X94657429Y2139991D01*
X94634715Y2121348D01*
X94608799Y2107496D01*
X94580674Y2098964D01*
X94548949Y2095840D01*
X94152611Y2095840D01*
X94120886Y2098964D01*
X94092761Y2107496D01*
X94066845Y2121348D01*
X94044131Y2139991D01*
X94025488Y2162705D01*
X94011636Y2188621D01*
X94003104Y2216746D01*
X93999980Y2248471D01*
X93999980Y3994809D01*
X94003104Y4026534D01*
X94011636Y4054659D01*
X94025488Y4080575D01*
X94044131Y4103289D01*
X94066845Y4121932D01*
X94092761Y4135784D01*
X94120886Y4144316D01*
X94152611Y4147440D01*
X94548949Y4147440D01*
X94580674Y4144316D01*
G37*
G36*
X93310674Y4144316D02*
G01*
X93338799Y4135784D01*
X93364715Y4121932D01*
X93387429Y4103289D01*
X93406072Y4080575D01*
X93419924Y4054659D01*
X93428456Y4026534D01*
X93431580Y3994809D01*
X93431580Y2248471D01*
X93428456Y2216746D01*
X93419924Y2188621D01*
X93406072Y2162705D01*
X93387429Y2139991D01*
X93364715Y2121348D01*
X93338799Y2107496D01*
X93310674Y2098964D01*
X93278949Y2095840D01*
X92882611Y2095840D01*
X92850886Y2098964D01*
X92822761Y2107496D01*
X92796845Y2121348D01*
X92774131Y2139991D01*
X92755488Y2162705D01*
X92741636Y2188621D01*
X92733104Y2216746D01*
X92729980Y2248471D01*
X92729980Y3994809D01*
X92733104Y4026534D01*
X92741636Y4054659D01*
X92755488Y4080575D01*
X92774131Y4103289D01*
X92796845Y4121932D01*
X92822761Y4135784D01*
X92850886Y4144316D01*
X92882611Y4147440D01*
X93278949Y4147440D01*
X93310674Y4144316D01*
G37*
G36*
X92040674Y4144316D02*
G01*
X92068799Y4135784D01*
X92094715Y4121932D01*
X92117429Y4103289D01*
X92136072Y4080575D01*
X92149924Y4054659D01*
X92158456Y4026534D01*
X92161580Y3994809D01*
X92161580Y2248471D01*
X92158456Y2216746D01*
X92149924Y2188621D01*
X92136072Y2162705D01*
X92117429Y2139991D01*
X92094715Y2121348D01*
X92068799Y2107496D01*
X92040674Y2098964D01*
X92008949Y2095840D01*
X91612611Y2095840D01*
X91580886Y2098964D01*
X91552761Y2107496D01*
X91526845Y2121348D01*
X91504131Y2139991D01*
X91485488Y2162705D01*
X91471636Y2188621D01*
X91463104Y2216746D01*
X91459980Y2248471D01*
X91459980Y3994809D01*
X91463104Y4026534D01*
X91471636Y4054659D01*
X91485488Y4080575D01*
X91504131Y4103289D01*
X91526845Y4121932D01*
X91552761Y4135784D01*
X91580886Y4144316D01*
X91612611Y4147440D01*
X92008949Y4147440D01*
X92040674Y4144316D01*
G37*
G36*
X51344794Y4144316D02*
G01*
X51372919Y4135784D01*
X51398835Y4121932D01*
X51421549Y4103289D01*
X51440192Y4080575D01*
X51454044Y4054659D01*
X51462576Y4026534D01*
X51465700Y3994809D01*
X51465700Y2248471D01*
X51462576Y2216746D01*
X51454044Y2188621D01*
X51440192Y2162705D01*
X51421549Y2139991D01*
X51398835Y2121348D01*
X51372919Y2107496D01*
X51344794Y2098964D01*
X51313069Y2095840D01*
X50916731Y2095840D01*
X50885006Y2098964D01*
X50856881Y2107496D01*
X50830965Y2121348D01*
X50808251Y2139991D01*
X50789608Y2162705D01*
X50775756Y2188621D01*
X50767224Y2216746D01*
X50764100Y2248471D01*
X50764100Y3994809D01*
X50767224Y4026534D01*
X50775756Y4054659D01*
X50789608Y4080575D01*
X50808251Y4103289D01*
X50830965Y4121932D01*
X50856881Y4135784D01*
X50885006Y4144316D01*
X50916731Y4147440D01*
X51313069Y4147440D01*
X51344794Y4144316D01*
G37*
G36*
X140287686Y4293360D02*
G01*
X140333322Y4279516D01*
X140375387Y4257032D01*
X140412255Y4226775D01*
X140442512Y4189907D01*
X140464996Y4147842D01*
X140478840Y4102206D01*
X140483760Y4052254D01*
X140483760Y3292706D01*
X140478840Y3242754D01*
X140464996Y3197118D01*
X140442512Y3155053D01*
X140412255Y3118185D01*
X140375387Y3087928D01*
X140333322Y3065444D01*
X140287686Y3051600D01*
X140237734Y3046680D01*
X139228186Y3046680D01*
X139178234Y3051600D01*
X139132598Y3065444D01*
X139090533Y3087928D01*
X139053665Y3118185D01*
X139023408Y3155053D01*
X139000924Y3197118D01*
X138987080Y3242754D01*
X138982160Y3292706D01*
X138982160Y4052254D01*
X138987080Y4102206D01*
X139000924Y4147842D01*
X139023408Y4189907D01*
X139053665Y4226775D01*
X139090533Y4257032D01*
X139132598Y4279516D01*
X139178234Y4293360D01*
X139228186Y4298280D01*
X140237734Y4298280D01*
X140287686Y4293360D01*
G37*
G36*
X137846746Y4664200D02*
G01*
X137892382Y4650356D01*
X137934447Y4627872D01*
X137971315Y4597615D01*
X138001572Y4560747D01*
X138024056Y4518682D01*
X138037900Y4473046D01*
X138042820Y4423094D01*
X138042820Y3663546D01*
X138037900Y3613594D01*
X138024056Y3567958D01*
X138001572Y3525893D01*
X137971315Y3489025D01*
X137934447Y3458768D01*
X137892382Y3436284D01*
X137846746Y3422440D01*
X137796794Y3417520D01*
X136787246Y3417520D01*
X136737294Y3422440D01*
X136691658Y3436284D01*
X136649593Y3458768D01*
X136612725Y3489025D01*
X136582468Y3525893D01*
X136559984Y3567958D01*
X136546140Y3613594D01*
X136541220Y3663546D01*
X136541220Y4423094D01*
X136546140Y4473046D01*
X136559984Y4518682D01*
X136582468Y4560747D01*
X136612725Y4597615D01*
X136649593Y4627872D01*
X136691658Y4650356D01*
X136737294Y4664200D01*
X136787246Y4669120D01*
X137796794Y4669120D01*
X137846746Y4664200D01*
G37*
G36*
X152378086Y5134100D02*
G01*
X152423722Y5120256D01*
X152465787Y5097772D01*
X152502655Y5067515D01*
X152532912Y5030647D01*
X152555396Y4988582D01*
X152569240Y4942946D01*
X152574160Y4892994D01*
X152574160Y4133446D01*
X152569240Y4083494D01*
X152555396Y4037858D01*
X152532912Y3995793D01*
X152502655Y3958925D01*
X152465787Y3928668D01*
X152423722Y3906184D01*
X152378086Y3892340D01*
X152328134Y3887420D01*
X151318586Y3887420D01*
X151268634Y3892340D01*
X151222998Y3906184D01*
X151180933Y3928668D01*
X151144065Y3958925D01*
X151113808Y3995793D01*
X151091324Y4037858D01*
X151077480Y4083494D01*
X151072560Y4133446D01*
X151072560Y4892994D01*
X151077480Y4942946D01*
X151091324Y4988582D01*
X151113808Y5030647D01*
X151144065Y5067515D01*
X151180933Y5097772D01*
X151222998Y5120256D01*
X151268634Y5134100D01*
X151318586Y5139020D01*
X152328134Y5139020D01*
X152378086Y5134100D01*
G37*
G36*
X115337266Y5162040D02*
G01*
X115382902Y5148196D01*
X115424967Y5125712D01*
X115461835Y5095455D01*
X115492092Y5058587D01*
X115514576Y5016522D01*
X115528420Y4970886D01*
X115533340Y4920934D01*
X115533340Y4161386D01*
X115528420Y4111434D01*
X115514576Y4065798D01*
X115492092Y4023733D01*
X115461835Y3986865D01*
X115424967Y3956608D01*
X115382902Y3934124D01*
X115337266Y3920280D01*
X115287314Y3915360D01*
X114277766Y3915360D01*
X114227814Y3920280D01*
X114182178Y3934124D01*
X114140113Y3956608D01*
X114103245Y3986865D01*
X114072988Y4023733D01*
X114050504Y4065798D01*
X114036660Y4111434D01*
X114031740Y4161386D01*
X114031740Y4920934D01*
X114036660Y4970886D01*
X114050504Y5016522D01*
X114072988Y5058587D01*
X114103245Y5095455D01*
X114140113Y5125712D01*
X114182178Y5148196D01*
X114227814Y5162040D01*
X114277766Y5166960D01*
X115287314Y5166960D01*
X115337266Y5162040D01*
G37*
G36*
X82836446Y5162040D02*
G01*
X82882082Y5148196D01*
X82924147Y5125712D01*
X82961015Y5095455D01*
X82991272Y5058587D01*
X83013756Y5016522D01*
X83027600Y4970886D01*
X83032520Y4920934D01*
X83032520Y4161386D01*
X83027600Y4111434D01*
X83013756Y4065798D01*
X82991272Y4023733D01*
X82961015Y3986865D01*
X82924147Y3956608D01*
X82882082Y3934124D01*
X82836446Y3920280D01*
X82786494Y3915360D01*
X81776946Y3915360D01*
X81726994Y3920280D01*
X81681358Y3934124D01*
X81639293Y3956608D01*
X81602425Y3986865D01*
X81572168Y4023733D01*
X81549684Y4065798D01*
X81535840Y4111434D01*
X81530920Y4161386D01*
X81530920Y4920934D01*
X81535840Y4970886D01*
X81549684Y5016522D01*
X81572168Y5058587D01*
X81602425Y5095455D01*
X81639293Y5125712D01*
X81681358Y5148196D01*
X81726994Y5162040D01*
X81776946Y5166960D01*
X82786494Y5166960D01*
X82836446Y5162040D01*
G37*
G36*
X48096866Y5162040D02*
G01*
X48142502Y5148196D01*
X48184567Y5125712D01*
X48221435Y5095455D01*
X48251692Y5058587D01*
X48274176Y5016522D01*
X48288020Y4970886D01*
X48292940Y4920934D01*
X48292940Y4161386D01*
X48288020Y4111434D01*
X48274176Y4065798D01*
X48251692Y4023733D01*
X48221435Y3986865D01*
X48184567Y3956608D01*
X48142502Y3934124D01*
X48096866Y3920280D01*
X48046914Y3915360D01*
X47037366Y3915360D01*
X46987414Y3920280D01*
X46941778Y3934124D01*
X46899713Y3956608D01*
X46862845Y3986865D01*
X46832588Y4023733D01*
X46810104Y4065798D01*
X46796260Y4111434D01*
X46791340Y4161386D01*
X46791340Y4920934D01*
X46796260Y4970886D01*
X46810104Y5016522D01*
X46832588Y5058587D01*
X46862845Y5095455D01*
X46899713Y5125712D01*
X46941778Y5148196D01*
X46987414Y5162040D01*
X47037366Y5166960D01*
X48046914Y5166960D01*
X48096866Y5162040D01*
G37*
G36*
X2711183Y5396177D02*
G01*
X2842943Y5341600D01*
X2961523Y5262367D01*
X3062367Y5161523D01*
X3141600Y5042943D01*
X3196177Y4911183D01*
X3224000Y4771308D01*
X3224000Y4628692D01*
X3196177Y4488817D01*
X3141600Y4357057D01*
X3062367Y4238477D01*
X2961523Y4137633D01*
X2842943Y4058400D01*
X2711183Y4003823D01*
X2571308Y3976000D01*
X2428692Y3976000D01*
X2288817Y4003823D01*
X2157057Y4058400D01*
X2038477Y4137633D01*
X1937633Y4238477D01*
X1858400Y4357057D01*
X1803823Y4488817D01*
X1776000Y4628692D01*
X1776000Y4771308D01*
X1803823Y4911183D01*
X1858400Y5042943D01*
X1937633Y5161523D01*
X2038477Y5262367D01*
X2157057Y5341600D01*
X2288817Y5396177D01*
X2428692Y5424000D01*
X2571308Y5424000D01*
X2711183Y5396177D01*
G37*
G36*
X135551274Y5149296D02*
G01*
X135579399Y5140764D01*
X135605315Y5126912D01*
X135628029Y5108269D01*
X135646672Y5085555D01*
X135660524Y5059639D01*
X135669056Y5031514D01*
X135672180Y4999789D01*
X135672180Y4603451D01*
X135669056Y4571726D01*
X135660524Y4543601D01*
X135646672Y4517685D01*
X135628029Y4494971D01*
X135605315Y4476328D01*
X135579399Y4462476D01*
X135551274Y4453944D01*
X135519549Y4450820D01*
X133773211Y4450820D01*
X133741486Y4453944D01*
X133713361Y4462476D01*
X133687445Y4476328D01*
X133664731Y4494971D01*
X133646088Y4517685D01*
X133632236Y4543601D01*
X133623704Y4571726D01*
X133620580Y4603451D01*
X133620580Y4999789D01*
X133623704Y5031514D01*
X133632236Y5059639D01*
X133646088Y5085555D01*
X133664731Y5108269D01*
X133687445Y5126912D01*
X133713361Y5140764D01*
X133741486Y5149296D01*
X133773211Y5152420D01*
X135519549Y5152420D01*
X135551274Y5149296D01*
G37*
G36*
X130601274Y5149296D02*
G01*
X130629399Y5140764D01*
X130655315Y5126912D01*
X130678029Y5108269D01*
X130696672Y5085555D01*
X130710524Y5059639D01*
X130719056Y5031514D01*
X130722180Y4999789D01*
X130722180Y4603451D01*
X130719056Y4571726D01*
X130710524Y4543601D01*
X130696672Y4517685D01*
X130678029Y4494971D01*
X130655315Y4476328D01*
X130629399Y4462476D01*
X130601274Y4453944D01*
X130569549Y4450820D01*
X128823211Y4450820D01*
X128791486Y4453944D01*
X128763361Y4462476D01*
X128737445Y4476328D01*
X128714731Y4494971D01*
X128696088Y4517685D01*
X128682236Y4543601D01*
X128673704Y4571726D01*
X128670580Y4603451D01*
X128670580Y4999789D01*
X128673704Y5031514D01*
X128682236Y5059639D01*
X128696088Y5085555D01*
X128714731Y5108269D01*
X128737445Y5126912D01*
X128763361Y5140764D01*
X128791486Y5149296D01*
X128823211Y5152420D01*
X130569549Y5152420D01*
X130601274Y5149296D01*
G37*
G36*
X140287686Y6343360D02*
G01*
X140333322Y6329516D01*
X140375387Y6307032D01*
X140412255Y6276775D01*
X140442512Y6239907D01*
X140464996Y6197842D01*
X140478840Y6152206D01*
X140483760Y6102254D01*
X140483760Y5342706D01*
X140478840Y5292754D01*
X140464996Y5247118D01*
X140442512Y5205053D01*
X140412255Y5168185D01*
X140375387Y5137928D01*
X140333322Y5115444D01*
X140287686Y5101600D01*
X140237734Y5096680D01*
X139228186Y5096680D01*
X139178234Y5101600D01*
X139132598Y5115444D01*
X139090533Y5137928D01*
X139053665Y5168185D01*
X139023408Y5205053D01*
X139000924Y5247118D01*
X138987080Y5292754D01*
X138982160Y5342706D01*
X138982160Y6102254D01*
X138987080Y6152206D01*
X139000924Y6197842D01*
X139023408Y6239907D01*
X139053665Y6276775D01*
X139090533Y6307032D01*
X139132598Y6329516D01*
X139178234Y6343360D01*
X139228186Y6348280D01*
X140237734Y6348280D01*
X140287686Y6343360D01*
G37*
G36*
X137846746Y6714200D02*
G01*
X137892382Y6700356D01*
X137934447Y6677872D01*
X137971315Y6647615D01*
X138001572Y6610747D01*
X138024056Y6568682D01*
X138037900Y6523046D01*
X138042820Y6473094D01*
X138042820Y5713546D01*
X138037900Y5663594D01*
X138024056Y5617958D01*
X138001572Y5575893D01*
X137971315Y5539025D01*
X137934447Y5508768D01*
X137892382Y5486284D01*
X137846746Y5472440D01*
X137796794Y5467520D01*
X136787246Y5467520D01*
X136737294Y5472440D01*
X136691658Y5486284D01*
X136649593Y5508768D01*
X136612725Y5539025D01*
X136582468Y5575893D01*
X136559984Y5617958D01*
X136546140Y5663594D01*
X136541220Y5713546D01*
X136541220Y6473094D01*
X136546140Y6523046D01*
X136559984Y6568682D01*
X136582468Y6610747D01*
X136612725Y6647615D01*
X136649593Y6677872D01*
X136691658Y6700356D01*
X136737294Y6714200D01*
X136787246Y6719120D01*
X137796794Y6719120D01*
X137846746Y6714200D01*
G37*
G36*
X130601274Y6419296D02*
G01*
X130629399Y6410764D01*
X130655315Y6396912D01*
X130678029Y6378269D01*
X130696672Y6355555D01*
X130710524Y6329639D01*
X130719056Y6301514D01*
X130722180Y6269789D01*
X130722180Y5873451D01*
X130719056Y5841726D01*
X130710524Y5813601D01*
X130696672Y5787685D01*
X130678029Y5764971D01*
X130655315Y5746328D01*
X130629399Y5732476D01*
X130601274Y5723944D01*
X130569549Y5720820D01*
X128823211Y5720820D01*
X128791486Y5723944D01*
X128763361Y5732476D01*
X128737445Y5746328D01*
X128714731Y5764971D01*
X128696088Y5787685D01*
X128682236Y5813601D01*
X128673704Y5841726D01*
X128670580Y5873451D01*
X128670580Y6269789D01*
X128673704Y6301514D01*
X128682236Y6329639D01*
X128696088Y6355555D01*
X128714731Y6378269D01*
X128737445Y6396912D01*
X128763361Y6410764D01*
X128791486Y6419296D01*
X128823211Y6422420D01*
X130569549Y6422420D01*
X130601274Y6419296D01*
G37*
G36*
X135551274Y6419296D02*
G01*
X135579399Y6410764D01*
X135605315Y6396912D01*
X135628029Y6378269D01*
X135646672Y6355555D01*
X135660524Y6329639D01*
X135669056Y6301514D01*
X135672180Y6269789D01*
X135672180Y5873451D01*
X135669056Y5841726D01*
X135660524Y5813601D01*
X135646672Y5787685D01*
X135628029Y5764971D01*
X135605315Y5746328D01*
X135579399Y5732476D01*
X135551274Y5723944D01*
X135519549Y5720820D01*
X133773211Y5720820D01*
X133741486Y5723944D01*
X133713361Y5732476D01*
X133687445Y5746328D01*
X133664731Y5764971D01*
X133646088Y5787685D01*
X133632236Y5813601D01*
X133623704Y5841726D01*
X133620580Y5873451D01*
X133620580Y6269789D01*
X133623704Y6301514D01*
X133632236Y6329639D01*
X133646088Y6355555D01*
X133664731Y6378269D01*
X133687445Y6396912D01*
X133713361Y6410764D01*
X133741486Y6419296D01*
X133773211Y6422420D01*
X135519549Y6422420D01*
X135551274Y6419296D01*
G37*
G36*
X152378086Y7184100D02*
G01*
X152423722Y7170256D01*
X152465787Y7147772D01*
X152502655Y7117515D01*
X152532912Y7080647D01*
X152555396Y7038582D01*
X152569240Y6992946D01*
X152574160Y6942994D01*
X152574160Y6183446D01*
X152569240Y6133494D01*
X152555396Y6087858D01*
X152532912Y6045793D01*
X152502655Y6008925D01*
X152465787Y5978668D01*
X152423722Y5956184D01*
X152378086Y5942340D01*
X152328134Y5937420D01*
X151318586Y5937420D01*
X151268634Y5942340D01*
X151222998Y5956184D01*
X151180933Y5978668D01*
X151144065Y6008925D01*
X151113808Y6045793D01*
X151091324Y6087858D01*
X151077480Y6133494D01*
X151072560Y6183446D01*
X151072560Y6942994D01*
X151077480Y6992946D01*
X151091324Y7038582D01*
X151113808Y7080647D01*
X151144065Y7117515D01*
X151180933Y7147772D01*
X151222998Y7170256D01*
X151268634Y7184100D01*
X151318586Y7189020D01*
X152328134Y7189020D01*
X152378086Y7184100D01*
G37*
G36*
X115337266Y7212040D02*
G01*
X115382902Y7198196D01*
X115424967Y7175712D01*
X115461835Y7145455D01*
X115492092Y7108587D01*
X115514576Y7066522D01*
X115528420Y7020886D01*
X115533340Y6970934D01*
X115533340Y6211386D01*
X115528420Y6161434D01*
X115514576Y6115798D01*
X115492092Y6073733D01*
X115461835Y6036865D01*
X115424967Y6006608D01*
X115382902Y5984124D01*
X115337266Y5970280D01*
X115287314Y5965360D01*
X114277766Y5965360D01*
X114227814Y5970280D01*
X114182178Y5984124D01*
X114140113Y6006608D01*
X114103245Y6036865D01*
X114072988Y6073733D01*
X114050504Y6115798D01*
X114036660Y6161434D01*
X114031740Y6211386D01*
X114031740Y6970934D01*
X114036660Y7020886D01*
X114050504Y7066522D01*
X114072988Y7108587D01*
X114103245Y7145455D01*
X114140113Y7175712D01*
X114182178Y7198196D01*
X114227814Y7212040D01*
X114277766Y7216960D01*
X115287314Y7216960D01*
X115337266Y7212040D01*
G37*
G36*
X82836446Y7212040D02*
G01*
X82882082Y7198196D01*
X82924147Y7175712D01*
X82961015Y7145455D01*
X82991272Y7108587D01*
X83013756Y7066522D01*
X83027600Y7020886D01*
X83032520Y6970934D01*
X83032520Y6211386D01*
X83027600Y6161434D01*
X83013756Y6115798D01*
X82991272Y6073733D01*
X82961015Y6036865D01*
X82924147Y6006608D01*
X82882082Y5984124D01*
X82836446Y5970280D01*
X82786494Y5965360D01*
X81776946Y5965360D01*
X81726994Y5970280D01*
X81681358Y5984124D01*
X81639293Y6006608D01*
X81602425Y6036865D01*
X81572168Y6073733D01*
X81549684Y6115798D01*
X81535840Y6161434D01*
X81530920Y6211386D01*
X81530920Y6970934D01*
X81535840Y7020886D01*
X81549684Y7066522D01*
X81572168Y7108587D01*
X81602425Y7145455D01*
X81639293Y7175712D01*
X81681358Y7198196D01*
X81726994Y7212040D01*
X81776946Y7216960D01*
X82786494Y7216960D01*
X82836446Y7212040D01*
G37*
G36*
X48096866Y7212040D02*
G01*
X48142502Y7198196D01*
X48184567Y7175712D01*
X48221435Y7145455D01*
X48251692Y7108587D01*
X48274176Y7066522D01*
X48288020Y7020886D01*
X48292940Y6970934D01*
X48292940Y6211386D01*
X48288020Y6161434D01*
X48274176Y6115798D01*
X48251692Y6073733D01*
X48221435Y6036865D01*
X48184567Y6006608D01*
X48142502Y5984124D01*
X48096866Y5970280D01*
X48046914Y5965360D01*
X47037366Y5965360D01*
X46987414Y5970280D01*
X46941778Y5984124D01*
X46899713Y6006608D01*
X46862845Y6036865D01*
X46832588Y6073733D01*
X46810104Y6115798D01*
X46796260Y6161434D01*
X46791340Y6211386D01*
X46791340Y6970934D01*
X46796260Y7020886D01*
X46810104Y7066522D01*
X46832588Y7108587D01*
X46862845Y7145455D01*
X46899713Y7175712D01*
X46941778Y7198196D01*
X46987414Y7212040D01*
X47037366Y7216960D01*
X48046914Y7216960D01*
X48096866Y7212040D01*
G37*
G36*
X148522654Y8677756D02*
G01*
X148550779Y8669224D01*
X148576695Y8655372D01*
X148599409Y8636729D01*
X148618052Y8614015D01*
X148631904Y8588099D01*
X148640436Y8559974D01*
X148643560Y8528249D01*
X148643560Y6781911D01*
X148640436Y6750186D01*
X148631904Y6722061D01*
X148618052Y6696145D01*
X148599409Y6673431D01*
X148576695Y6654788D01*
X148550779Y6640936D01*
X148522654Y6632404D01*
X148490929Y6629280D01*
X148094591Y6629280D01*
X148062866Y6632404D01*
X148034741Y6640936D01*
X148008825Y6654788D01*
X147986111Y6673431D01*
X147967468Y6696145D01*
X147953616Y6722061D01*
X147945084Y6750186D01*
X147941960Y6781911D01*
X147941960Y8528249D01*
X147945084Y8559974D01*
X147953616Y8588099D01*
X147967468Y8614015D01*
X147986111Y8636729D01*
X148008825Y8655372D01*
X148034741Y8669224D01*
X148062866Y8677756D01*
X148094591Y8680880D01*
X148490929Y8680880D01*
X148522654Y8677756D01*
G37*
G36*
X149792654Y8677756D02*
G01*
X149820779Y8669224D01*
X149846695Y8655372D01*
X149869409Y8636729D01*
X149888052Y8614015D01*
X149901904Y8588099D01*
X149910436Y8559974D01*
X149913560Y8528249D01*
X149913560Y6781911D01*
X149910436Y6750186D01*
X149901904Y6722061D01*
X149888052Y6696145D01*
X149869409Y6673431D01*
X149846695Y6654788D01*
X149820779Y6640936D01*
X149792654Y6632404D01*
X149760929Y6629280D01*
X149364591Y6629280D01*
X149332866Y6632404D01*
X149304741Y6640936D01*
X149278825Y6654788D01*
X149256111Y6673431D01*
X149237468Y6696145D01*
X149223616Y6722061D01*
X149215084Y6750186D01*
X149211960Y6781911D01*
X149211960Y8528249D01*
X149215084Y8559974D01*
X149223616Y8588099D01*
X149237468Y8614015D01*
X149256111Y8636729D01*
X149278825Y8655372D01*
X149304741Y8669224D01*
X149332866Y8677756D01*
X149364591Y8680880D01*
X149760929Y8680880D01*
X149792654Y8677756D01*
G37*
G36*
X147252654Y8677756D02*
G01*
X147280779Y8669224D01*
X147306695Y8655372D01*
X147329409Y8636729D01*
X147348052Y8614015D01*
X147361904Y8588099D01*
X147370436Y8559974D01*
X147373560Y8528249D01*
X147373560Y6781911D01*
X147370436Y6750186D01*
X147361904Y6722061D01*
X147348052Y6696145D01*
X147329409Y6673431D01*
X147306695Y6654788D01*
X147280779Y6640936D01*
X147252654Y6632404D01*
X147220929Y6629280D01*
X146824591Y6629280D01*
X146792866Y6632404D01*
X146764741Y6640936D01*
X146738825Y6654788D01*
X146716111Y6673431D01*
X146697468Y6696145D01*
X146683616Y6722061D01*
X146675084Y6750186D01*
X146671960Y6781911D01*
X146671960Y8528249D01*
X146675084Y8559974D01*
X146683616Y8588099D01*
X146697468Y8614015D01*
X146716111Y8636729D01*
X146738825Y8655372D01*
X146764741Y8669224D01*
X146792866Y8677756D01*
X146824591Y8680880D01*
X147220929Y8680880D01*
X147252654Y8677756D01*
G37*
G36*
X145982654Y8677756D02*
G01*
X146010779Y8669224D01*
X146036695Y8655372D01*
X146059409Y8636729D01*
X146078052Y8614015D01*
X146091904Y8588099D01*
X146100436Y8559974D01*
X146103560Y8528249D01*
X146103560Y6781911D01*
X146100436Y6750186D01*
X146091904Y6722061D01*
X146078052Y6696145D01*
X146059409Y6673431D01*
X146036695Y6654788D01*
X146010779Y6640936D01*
X145982654Y6632404D01*
X145950929Y6629280D01*
X145554591Y6629280D01*
X145522866Y6632404D01*
X145494741Y6640936D01*
X145468825Y6654788D01*
X145446111Y6673431D01*
X145427468Y6696145D01*
X145413616Y6722061D01*
X145405084Y6750186D01*
X145401960Y6781911D01*
X145401960Y8528249D01*
X145405084Y8559974D01*
X145413616Y8588099D01*
X145427468Y8614015D01*
X145446111Y8636729D01*
X145468825Y8655372D01*
X145494741Y8669224D01*
X145522866Y8677756D01*
X145554591Y8680880D01*
X145950929Y8680880D01*
X145982654Y8677756D01*
G37*
G36*
X144712654Y8677756D02*
G01*
X144740779Y8669224D01*
X144766695Y8655372D01*
X144789409Y8636729D01*
X144808052Y8614015D01*
X144821904Y8588099D01*
X144830436Y8559974D01*
X144833560Y8528249D01*
X144833560Y6781911D01*
X144830436Y6750186D01*
X144821904Y6722061D01*
X144808052Y6696145D01*
X144789409Y6673431D01*
X144766695Y6654788D01*
X144740779Y6640936D01*
X144712654Y6632404D01*
X144680929Y6629280D01*
X144284591Y6629280D01*
X144252866Y6632404D01*
X144224741Y6640936D01*
X144198825Y6654788D01*
X144176111Y6673431D01*
X144157468Y6696145D01*
X144143616Y6722061D01*
X144135084Y6750186D01*
X144131960Y6781911D01*
X144131960Y8528249D01*
X144135084Y8559974D01*
X144143616Y8588099D01*
X144157468Y8614015D01*
X144176111Y8636729D01*
X144198825Y8655372D01*
X144224741Y8669224D01*
X144252866Y8677756D01*
X144284591Y8680880D01*
X144680929Y8680880D01*
X144712654Y8677756D01*
G37*
G36*
X142172654Y8677756D02*
G01*
X142200779Y8669224D01*
X142226695Y8655372D01*
X142249409Y8636729D01*
X142268052Y8614015D01*
X142281904Y8588099D01*
X142290436Y8559974D01*
X142293560Y8528249D01*
X142293560Y6781911D01*
X142290436Y6750186D01*
X142281904Y6722061D01*
X142268052Y6696145D01*
X142249409Y6673431D01*
X142226695Y6654788D01*
X142200779Y6640936D01*
X142172654Y6632404D01*
X142140929Y6629280D01*
X141744591Y6629280D01*
X141712866Y6632404D01*
X141684741Y6640936D01*
X141658825Y6654788D01*
X141636111Y6673431D01*
X141617468Y6696145D01*
X141603616Y6722061D01*
X141595084Y6750186D01*
X141591960Y6781911D01*
X141591960Y8528249D01*
X141595084Y8559974D01*
X141603616Y8588099D01*
X141617468Y8614015D01*
X141636111Y8636729D01*
X141658825Y8655372D01*
X141684741Y8669224D01*
X141712866Y8677756D01*
X141744591Y8680880D01*
X142140929Y8680880D01*
X142172654Y8677756D01*
G37*
G36*
X143442654Y8677756D02*
G01*
X143470779Y8669224D01*
X143496695Y8655372D01*
X143519409Y8636729D01*
X143538052Y8614015D01*
X143551904Y8588099D01*
X143560436Y8559974D01*
X143563560Y8528249D01*
X143563560Y6781911D01*
X143560436Y6750186D01*
X143551904Y6722061D01*
X143538052Y6696145D01*
X143519409Y6673431D01*
X143496695Y6654788D01*
X143470779Y6640936D01*
X143442654Y6632404D01*
X143410929Y6629280D01*
X143014591Y6629280D01*
X142982866Y6632404D01*
X142954741Y6640936D01*
X142928825Y6654788D01*
X142906111Y6673431D01*
X142887468Y6696145D01*
X142873616Y6722061D01*
X142865084Y6750186D01*
X142861960Y6781911D01*
X142861960Y8528249D01*
X142865084Y8559974D01*
X142873616Y8588099D01*
X142887468Y8614015D01*
X142906111Y8636729D01*
X142928825Y8655372D01*
X142954741Y8669224D01*
X142982866Y8677756D01*
X143014591Y8680880D01*
X143410929Y8680880D01*
X143442654Y8677756D01*
G37*
G36*
X130601274Y7689296D02*
G01*
X130629399Y7680764D01*
X130655315Y7666912D01*
X130678029Y7648269D01*
X130696672Y7625555D01*
X130710524Y7599639D01*
X130719056Y7571514D01*
X130722180Y7539789D01*
X130722180Y7143451D01*
X130719056Y7111726D01*
X130710524Y7083601D01*
X130696672Y7057685D01*
X130678029Y7034971D01*
X130655315Y7016328D01*
X130629399Y7002476D01*
X130601274Y6993944D01*
X130569549Y6990820D01*
X128823211Y6990820D01*
X128791486Y6993944D01*
X128763361Y7002476D01*
X128737445Y7016328D01*
X128714731Y7034971D01*
X128696088Y7057685D01*
X128682236Y7083601D01*
X128673704Y7111726D01*
X128670580Y7143451D01*
X128670580Y7539789D01*
X128673704Y7571514D01*
X128682236Y7599639D01*
X128696088Y7625555D01*
X128714731Y7648269D01*
X128737445Y7666912D01*
X128763361Y7680764D01*
X128791486Y7689296D01*
X128823211Y7692420D01*
X130569549Y7692420D01*
X130601274Y7689296D01*
G37*
G36*
X135551274Y7689296D02*
G01*
X135579399Y7680764D01*
X135605315Y7666912D01*
X135628029Y7648269D01*
X135646672Y7625555D01*
X135660524Y7599639D01*
X135669056Y7571514D01*
X135672180Y7539789D01*
X135672180Y7143451D01*
X135669056Y7111726D01*
X135660524Y7083601D01*
X135646672Y7057685D01*
X135628029Y7034971D01*
X135605315Y7016328D01*
X135579399Y7002476D01*
X135551274Y6993944D01*
X135519549Y6990820D01*
X133773211Y6990820D01*
X133741486Y6993944D01*
X133713361Y7002476D01*
X133687445Y7016328D01*
X133664731Y7034971D01*
X133646088Y7057685D01*
X133632236Y7083601D01*
X133623704Y7111726D01*
X133620580Y7143451D01*
X133620580Y7539789D01*
X133623704Y7571514D01*
X133632236Y7599639D01*
X133646088Y7625555D01*
X133664731Y7648269D01*
X133687445Y7666912D01*
X133713361Y7680764D01*
X133741486Y7689296D01*
X133773211Y7692420D01*
X135519549Y7692420D01*
X135551274Y7689296D01*
G37*
G36*
X120262614Y9094316D02*
G01*
X120290739Y9085784D01*
X120316655Y9071932D01*
X120339369Y9053289D01*
X120358012Y9030575D01*
X120371864Y9004659D01*
X120380396Y8976534D01*
X120383520Y8944809D01*
X120383520Y7198471D01*
X120380396Y7166746D01*
X120371864Y7138621D01*
X120358012Y7112705D01*
X120339369Y7089991D01*
X120316655Y7071348D01*
X120290739Y7057496D01*
X120262614Y7048964D01*
X120230889Y7045840D01*
X119834551Y7045840D01*
X119802826Y7048964D01*
X119774701Y7057496D01*
X119748785Y7071348D01*
X119726071Y7089991D01*
X119707428Y7112705D01*
X119693576Y7138621D01*
X119685044Y7166746D01*
X119681920Y7198471D01*
X119681920Y8944809D01*
X119685044Y8976534D01*
X119693576Y9004659D01*
X119707428Y9030575D01*
X119726071Y9053289D01*
X119748785Y9071932D01*
X119774701Y9085784D01*
X119802826Y9094316D01*
X119834551Y9097440D01*
X120230889Y9097440D01*
X120262614Y9094316D01*
G37*
G36*
X88230674Y9094316D02*
G01*
X88258799Y9085784D01*
X88284715Y9071932D01*
X88307429Y9053289D01*
X88326072Y9030575D01*
X88339924Y9004659D01*
X88348456Y8976534D01*
X88351580Y8944809D01*
X88351580Y7198471D01*
X88348456Y7166746D01*
X88339924Y7138621D01*
X88326072Y7112705D01*
X88307429Y7089991D01*
X88284715Y7071348D01*
X88258799Y7057496D01*
X88230674Y7048964D01*
X88198949Y7045840D01*
X87802611Y7045840D01*
X87770886Y7048964D01*
X87742761Y7057496D01*
X87716845Y7071348D01*
X87694131Y7089991D01*
X87675488Y7112705D01*
X87661636Y7138621D01*
X87653104Y7166746D01*
X87649980Y7198471D01*
X87649980Y8944809D01*
X87653104Y8976534D01*
X87661636Y9004659D01*
X87675488Y9030575D01*
X87694131Y9053289D01*
X87716845Y9071932D01*
X87742761Y9085784D01*
X87770886Y9094316D01*
X87802611Y9097440D01*
X88198949Y9097440D01*
X88230674Y9094316D01*
G37*
G36*
X58964794Y9094316D02*
G01*
X58992919Y9085784D01*
X59018835Y9071932D01*
X59041549Y9053289D01*
X59060192Y9030575D01*
X59074044Y9004659D01*
X59082576Y8976534D01*
X59085700Y8944809D01*
X59085700Y7198471D01*
X59082576Y7166746D01*
X59074044Y7138621D01*
X59060192Y7112705D01*
X59041549Y7089991D01*
X59018835Y7071348D01*
X58992919Y7057496D01*
X58964794Y7048964D01*
X58933069Y7045840D01*
X58536731Y7045840D01*
X58505006Y7048964D01*
X58476881Y7057496D01*
X58450965Y7071348D01*
X58428251Y7089991D01*
X58409608Y7112705D01*
X58395756Y7138621D01*
X58387224Y7166746D01*
X58384100Y7198471D01*
X58384100Y8944809D01*
X58387224Y8976534D01*
X58395756Y9004659D01*
X58409608Y9030575D01*
X58428251Y9053289D01*
X58450965Y9071932D01*
X58476881Y9085784D01*
X58505006Y9094316D01*
X58536731Y9097440D01*
X58933069Y9097440D01*
X58964794Y9094316D01*
G37*
G36*
X122802614Y9094316D02*
G01*
X122830739Y9085784D01*
X122856655Y9071932D01*
X122879369Y9053289D01*
X122898012Y9030575D01*
X122911864Y9004659D01*
X122920396Y8976534D01*
X122923520Y8944809D01*
X122923520Y7198471D01*
X122920396Y7166746D01*
X122911864Y7138621D01*
X122898012Y7112705D01*
X122879369Y7089991D01*
X122856655Y7071348D01*
X122830739Y7057496D01*
X122802614Y7048964D01*
X122770889Y7045840D01*
X122374551Y7045840D01*
X122342826Y7048964D01*
X122314701Y7057496D01*
X122288785Y7071348D01*
X122266071Y7089991D01*
X122247428Y7112705D01*
X122233576Y7138621D01*
X122225044Y7166746D01*
X122221920Y7198471D01*
X122221920Y8944809D01*
X122225044Y8976534D01*
X122233576Y9004659D01*
X122247428Y9030575D01*
X122266071Y9053289D01*
X122288785Y9071932D01*
X122314701Y9085784D01*
X122342826Y9094316D01*
X122374551Y9097440D01*
X122770889Y9097440D01*
X122802614Y9094316D01*
G37*
G36*
X124072614Y9094316D02*
G01*
X124100739Y9085784D01*
X124126655Y9071932D01*
X124149369Y9053289D01*
X124168012Y9030575D01*
X124181864Y9004659D01*
X124190396Y8976534D01*
X124193520Y8944809D01*
X124193520Y7198471D01*
X124190396Y7166746D01*
X124181864Y7138621D01*
X124168012Y7112705D01*
X124149369Y7089991D01*
X124126655Y7071348D01*
X124100739Y7057496D01*
X124072614Y7048964D01*
X124040889Y7045840D01*
X123644551Y7045840D01*
X123612826Y7048964D01*
X123584701Y7057496D01*
X123558785Y7071348D01*
X123536071Y7089991D01*
X123517428Y7112705D01*
X123503576Y7138621D01*
X123495044Y7166746D01*
X123491920Y7198471D01*
X123491920Y8944809D01*
X123495044Y8976534D01*
X123503576Y9004659D01*
X123517428Y9030575D01*
X123536071Y9053289D01*
X123558785Y9071932D01*
X123584701Y9085784D01*
X123612826Y9094316D01*
X123644551Y9097440D01*
X124040889Y9097440D01*
X124072614Y9094316D01*
G37*
G36*
X125342614Y9094316D02*
G01*
X125370739Y9085784D01*
X125396655Y9071932D01*
X125419369Y9053289D01*
X125438012Y9030575D01*
X125451864Y9004659D01*
X125460396Y8976534D01*
X125463520Y8944809D01*
X125463520Y7198471D01*
X125460396Y7166746D01*
X125451864Y7138621D01*
X125438012Y7112705D01*
X125419369Y7089991D01*
X125396655Y7071348D01*
X125370739Y7057496D01*
X125342614Y7048964D01*
X125310889Y7045840D01*
X124914551Y7045840D01*
X124882826Y7048964D01*
X124854701Y7057496D01*
X124828785Y7071348D01*
X124806071Y7089991D01*
X124787428Y7112705D01*
X124773576Y7138621D01*
X124765044Y7166746D01*
X124761920Y7198471D01*
X124761920Y8944809D01*
X124765044Y8976534D01*
X124773576Y9004659D01*
X124787428Y9030575D01*
X124806071Y9053289D01*
X124828785Y9071932D01*
X124854701Y9085784D01*
X124882826Y9094316D01*
X124914551Y9097440D01*
X125310889Y9097440D01*
X125342614Y9094316D01*
G37*
G36*
X126612614Y9094316D02*
G01*
X126640739Y9085784D01*
X126666655Y9071932D01*
X126689369Y9053289D01*
X126708012Y9030575D01*
X126721864Y9004659D01*
X126730396Y8976534D01*
X126733520Y8944809D01*
X126733520Y7198471D01*
X126730396Y7166746D01*
X126721864Y7138621D01*
X126708012Y7112705D01*
X126689369Y7089991D01*
X126666655Y7071348D01*
X126640739Y7057496D01*
X126612614Y7048964D01*
X126580889Y7045840D01*
X126184551Y7045840D01*
X126152826Y7048964D01*
X126124701Y7057496D01*
X126098785Y7071348D01*
X126076071Y7089991D01*
X126057428Y7112705D01*
X126043576Y7138621D01*
X126035044Y7166746D01*
X126031920Y7198471D01*
X126031920Y8944809D01*
X126035044Y8976534D01*
X126043576Y9004659D01*
X126057428Y9030575D01*
X126076071Y9053289D01*
X126098785Y9071932D01*
X126124701Y9085784D01*
X126152826Y9094316D01*
X126184551Y9097440D01*
X126580889Y9097440D01*
X126612614Y9094316D01*
G37*
G36*
X94580674Y9094316D02*
G01*
X94608799Y9085784D01*
X94634715Y9071932D01*
X94657429Y9053289D01*
X94676072Y9030575D01*
X94689924Y9004659D01*
X94698456Y8976534D01*
X94701580Y8944809D01*
X94701580Y7198471D01*
X94698456Y7166746D01*
X94689924Y7138621D01*
X94676072Y7112705D01*
X94657429Y7089991D01*
X94634715Y7071348D01*
X94608799Y7057496D01*
X94580674Y7048964D01*
X94548949Y7045840D01*
X94152611Y7045840D01*
X94120886Y7048964D01*
X94092761Y7057496D01*
X94066845Y7071348D01*
X94044131Y7089991D01*
X94025488Y7112705D01*
X94011636Y7138621D01*
X94003104Y7166746D01*
X93999980Y7198471D01*
X93999980Y8944809D01*
X94003104Y8976534D01*
X94011636Y9004659D01*
X94025488Y9030575D01*
X94044131Y9053289D01*
X94066845Y9071932D01*
X94092761Y9085784D01*
X94120886Y9094316D01*
X94152611Y9097440D01*
X94548949Y9097440D01*
X94580674Y9094316D01*
G37*
G36*
X93310674Y9094316D02*
G01*
X93338799Y9085784D01*
X93364715Y9071932D01*
X93387429Y9053289D01*
X93406072Y9030575D01*
X93419924Y9004659D01*
X93428456Y8976534D01*
X93431580Y8944809D01*
X93431580Y7198471D01*
X93428456Y7166746D01*
X93419924Y7138621D01*
X93406072Y7112705D01*
X93387429Y7089991D01*
X93364715Y7071348D01*
X93338799Y7057496D01*
X93310674Y7048964D01*
X93278949Y7045840D01*
X92882611Y7045840D01*
X92850886Y7048964D01*
X92822761Y7057496D01*
X92796845Y7071348D01*
X92774131Y7089991D01*
X92755488Y7112705D01*
X92741636Y7138621D01*
X92733104Y7166746D01*
X92729980Y7198471D01*
X92729980Y8944809D01*
X92733104Y8976534D01*
X92741636Y9004659D01*
X92755488Y9030575D01*
X92774131Y9053289D01*
X92796845Y9071932D01*
X92822761Y9085784D01*
X92850886Y9094316D01*
X92882611Y9097440D01*
X93278949Y9097440D01*
X93310674Y9094316D01*
G37*
G36*
X92040674Y9094316D02*
G01*
X92068799Y9085784D01*
X92094715Y9071932D01*
X92117429Y9053289D01*
X92136072Y9030575D01*
X92149924Y9004659D01*
X92158456Y8976534D01*
X92161580Y8944809D01*
X92161580Y7198471D01*
X92158456Y7166746D01*
X92149924Y7138621D01*
X92136072Y7112705D01*
X92117429Y7089991D01*
X92094715Y7071348D01*
X92068799Y7057496D01*
X92040674Y7048964D01*
X92008949Y7045840D01*
X91612611Y7045840D01*
X91580886Y7048964D01*
X91552761Y7057496D01*
X91526845Y7071348D01*
X91504131Y7089991D01*
X91485488Y7112705D01*
X91471636Y7138621D01*
X91463104Y7166746D01*
X91459980Y7198471D01*
X91459980Y8944809D01*
X91463104Y8976534D01*
X91471636Y9004659D01*
X91485488Y9030575D01*
X91504131Y9053289D01*
X91526845Y9071932D01*
X91552761Y9085784D01*
X91580886Y9094316D01*
X91612611Y9097440D01*
X92008949Y9097440D01*
X92040674Y9094316D01*
G37*
G36*
X90770674Y9094316D02*
G01*
X90798799Y9085784D01*
X90824715Y9071932D01*
X90847429Y9053289D01*
X90866072Y9030575D01*
X90879924Y9004659D01*
X90888456Y8976534D01*
X90891580Y8944809D01*
X90891580Y7198471D01*
X90888456Y7166746D01*
X90879924Y7138621D01*
X90866072Y7112705D01*
X90847429Y7089991D01*
X90824715Y7071348D01*
X90798799Y7057496D01*
X90770674Y7048964D01*
X90738949Y7045840D01*
X90342611Y7045840D01*
X90310886Y7048964D01*
X90282761Y7057496D01*
X90256845Y7071348D01*
X90234131Y7089991D01*
X90215488Y7112705D01*
X90201636Y7138621D01*
X90193104Y7166746D01*
X90189980Y7198471D01*
X90189980Y8944809D01*
X90193104Y8976534D01*
X90201636Y9004659D01*
X90215488Y9030575D01*
X90234131Y9053289D01*
X90256845Y9071932D01*
X90282761Y9085784D01*
X90310886Y9094316D01*
X90342611Y9097440D01*
X90738949Y9097440D01*
X90770674Y9094316D01*
G37*
G36*
X89500674Y9094316D02*
G01*
X89528799Y9085784D01*
X89554715Y9071932D01*
X89577429Y9053289D01*
X89596072Y9030575D01*
X89609924Y9004659D01*
X89618456Y8976534D01*
X89621580Y8944809D01*
X89621580Y7198471D01*
X89618456Y7166746D01*
X89609924Y7138621D01*
X89596072Y7112705D01*
X89577429Y7089991D01*
X89554715Y7071348D01*
X89528799Y7057496D01*
X89500674Y7048964D01*
X89468949Y7045840D01*
X89072611Y7045840D01*
X89040886Y7048964D01*
X89012761Y7057496D01*
X88986845Y7071348D01*
X88964131Y7089991D01*
X88945488Y7112705D01*
X88931636Y7138621D01*
X88923104Y7166746D01*
X88919980Y7198471D01*
X88919980Y8944809D01*
X88923104Y8976534D01*
X88931636Y9004659D01*
X88945488Y9030575D01*
X88964131Y9053289D01*
X88986845Y9071932D01*
X89012761Y9085784D01*
X89040886Y9094316D01*
X89072611Y9097440D01*
X89468949Y9097440D01*
X89500674Y9094316D01*
G37*
G36*
X86960674Y9094316D02*
G01*
X86988799Y9085784D01*
X87014715Y9071932D01*
X87037429Y9053289D01*
X87056072Y9030575D01*
X87069924Y9004659D01*
X87078456Y8976534D01*
X87081580Y8944809D01*
X87081580Y7198471D01*
X87078456Y7166746D01*
X87069924Y7138621D01*
X87056072Y7112705D01*
X87037429Y7089991D01*
X87014715Y7071348D01*
X86988799Y7057496D01*
X86960674Y7048964D01*
X86928949Y7045840D01*
X86532611Y7045840D01*
X86500886Y7048964D01*
X86472761Y7057496D01*
X86446845Y7071348D01*
X86424131Y7089991D01*
X86405488Y7112705D01*
X86391636Y7138621D01*
X86383104Y7166746D01*
X86379980Y7198471D01*
X86379980Y8944809D01*
X86383104Y8976534D01*
X86391636Y9004659D01*
X86405488Y9030575D01*
X86424131Y9053289D01*
X86446845Y9071932D01*
X86472761Y9085784D01*
X86500886Y9094316D01*
X86532611Y9097440D01*
X86928949Y9097440D01*
X86960674Y9094316D01*
G37*
G36*
X118992614Y9094316D02*
G01*
X119020739Y9085784D01*
X119046655Y9071932D01*
X119069369Y9053289D01*
X119088012Y9030575D01*
X119101864Y9004659D01*
X119110396Y8976534D01*
X119113520Y8944809D01*
X119113520Y7198471D01*
X119110396Y7166746D01*
X119101864Y7138621D01*
X119088012Y7112705D01*
X119069369Y7089991D01*
X119046655Y7071348D01*
X119020739Y7057496D01*
X118992614Y7048964D01*
X118960889Y7045840D01*
X118564551Y7045840D01*
X118532826Y7048964D01*
X118504701Y7057496D01*
X118478785Y7071348D01*
X118456071Y7089991D01*
X118437428Y7112705D01*
X118423576Y7138621D01*
X118415044Y7166746D01*
X118411920Y7198471D01*
X118411920Y8944809D01*
X118415044Y8976534D01*
X118423576Y9004659D01*
X118437428Y9030575D01*
X118456071Y9053289D01*
X118478785Y9071932D01*
X118504701Y9085784D01*
X118532826Y9094316D01*
X118564551Y9097440D01*
X118960889Y9097440D01*
X118992614Y9094316D01*
G37*
G36*
X51344794Y9094316D02*
G01*
X51372919Y9085784D01*
X51398835Y9071932D01*
X51421549Y9053289D01*
X51440192Y9030575D01*
X51454044Y9004659D01*
X51462576Y8976534D01*
X51465700Y8944809D01*
X51465700Y7198471D01*
X51462576Y7166746D01*
X51454044Y7138621D01*
X51440192Y7112705D01*
X51421549Y7089991D01*
X51398835Y7071348D01*
X51372919Y7057496D01*
X51344794Y7048964D01*
X51313069Y7045840D01*
X50916731Y7045840D01*
X50885006Y7048964D01*
X50856881Y7057496D01*
X50830965Y7071348D01*
X50808251Y7089991D01*
X50789608Y7112705D01*
X50775756Y7138621D01*
X50767224Y7166746D01*
X50764100Y7198471D01*
X50764100Y8944809D01*
X50767224Y8976534D01*
X50775756Y9004659D01*
X50789608Y9030575D01*
X50808251Y9053289D01*
X50830965Y9071932D01*
X50856881Y9085784D01*
X50885006Y9094316D01*
X50916731Y9097440D01*
X51313069Y9097440D01*
X51344794Y9094316D01*
G37*
G36*
X85690674Y9094316D02*
G01*
X85718799Y9085784D01*
X85744715Y9071932D01*
X85767429Y9053289D01*
X85786072Y9030575D01*
X85799924Y9004659D01*
X85808456Y8976534D01*
X85811580Y8944809D01*
X85811580Y7198471D01*
X85808456Y7166746D01*
X85799924Y7138621D01*
X85786072Y7112705D01*
X85767429Y7089991D01*
X85744715Y7071348D01*
X85718799Y7057496D01*
X85690674Y7048964D01*
X85658949Y7045840D01*
X85262611Y7045840D01*
X85230886Y7048964D01*
X85202761Y7057496D01*
X85176845Y7071348D01*
X85154131Y7089991D01*
X85135488Y7112705D01*
X85121636Y7138621D01*
X85113104Y7166746D01*
X85109980Y7198471D01*
X85109980Y8944809D01*
X85113104Y8976534D01*
X85121636Y9004659D01*
X85135488Y9030575D01*
X85154131Y9053289D01*
X85176845Y9071932D01*
X85202761Y9085784D01*
X85230886Y9094316D01*
X85262611Y9097440D01*
X85658949Y9097440D01*
X85690674Y9094316D01*
G37*
G36*
X121532614Y9094316D02*
G01*
X121560739Y9085784D01*
X121586655Y9071932D01*
X121609369Y9053289D01*
X121628012Y9030575D01*
X121641864Y9004659D01*
X121650396Y8976534D01*
X121653520Y8944809D01*
X121653520Y7198471D01*
X121650396Y7166746D01*
X121641864Y7138621D01*
X121628012Y7112705D01*
X121609369Y7089991D01*
X121586655Y7071348D01*
X121560739Y7057496D01*
X121532614Y7048964D01*
X121500889Y7045840D01*
X121104551Y7045840D01*
X121072826Y7048964D01*
X121044701Y7057496D01*
X121018785Y7071348D01*
X120996071Y7089991D01*
X120977428Y7112705D01*
X120963576Y7138621D01*
X120955044Y7166746D01*
X120951920Y7198471D01*
X120951920Y8944809D01*
X120955044Y8976534D01*
X120963576Y9004659D01*
X120977428Y9030575D01*
X120996071Y9053289D01*
X121018785Y9071932D01*
X121044701Y9085784D01*
X121072826Y9094316D01*
X121104551Y9097440D01*
X121500889Y9097440D01*
X121532614Y9094316D01*
G37*
G36*
X52614794Y9094316D02*
G01*
X52642919Y9085784D01*
X52668835Y9071932D01*
X52691549Y9053289D01*
X52710192Y9030575D01*
X52724044Y9004659D01*
X52732576Y8976534D01*
X52735700Y8944809D01*
X52735700Y7198471D01*
X52732576Y7166746D01*
X52724044Y7138621D01*
X52710192Y7112705D01*
X52691549Y7089991D01*
X52668835Y7071348D01*
X52642919Y7057496D01*
X52614794Y7048964D01*
X52583069Y7045840D01*
X52186731Y7045840D01*
X52155006Y7048964D01*
X52126881Y7057496D01*
X52100965Y7071348D01*
X52078251Y7089991D01*
X52059608Y7112705D01*
X52045756Y7138621D01*
X52037224Y7166746D01*
X52034100Y7198471D01*
X52034100Y8944809D01*
X52037224Y8976534D01*
X52045756Y9004659D01*
X52059608Y9030575D01*
X52078251Y9053289D01*
X52100965Y9071932D01*
X52126881Y9085784D01*
X52155006Y9094316D01*
X52186731Y9097440D01*
X52583069Y9097440D01*
X52614794Y9094316D01*
G37*
G36*
X53884794Y9094316D02*
G01*
X53912919Y9085784D01*
X53938835Y9071932D01*
X53961549Y9053289D01*
X53980192Y9030575D01*
X53994044Y9004659D01*
X54002576Y8976534D01*
X54005700Y8944809D01*
X54005700Y7198471D01*
X54002576Y7166746D01*
X53994044Y7138621D01*
X53980192Y7112705D01*
X53961549Y7089991D01*
X53938835Y7071348D01*
X53912919Y7057496D01*
X53884794Y7048964D01*
X53853069Y7045840D01*
X53456731Y7045840D01*
X53425006Y7048964D01*
X53396881Y7057496D01*
X53370965Y7071348D01*
X53348251Y7089991D01*
X53329608Y7112705D01*
X53315756Y7138621D01*
X53307224Y7166746D01*
X53304100Y7198471D01*
X53304100Y8944809D01*
X53307224Y8976534D01*
X53315756Y9004659D01*
X53329608Y9030575D01*
X53348251Y9053289D01*
X53370965Y9071932D01*
X53396881Y9085784D01*
X53425006Y9094316D01*
X53456731Y9097440D01*
X53853069Y9097440D01*
X53884794Y9094316D01*
G37*
G36*
X55154794Y9094316D02*
G01*
X55182919Y9085784D01*
X55208835Y9071932D01*
X55231549Y9053289D01*
X55250192Y9030575D01*
X55264044Y9004659D01*
X55272576Y8976534D01*
X55275700Y8944809D01*
X55275700Y7198471D01*
X55272576Y7166746D01*
X55264044Y7138621D01*
X55250192Y7112705D01*
X55231549Y7089991D01*
X55208835Y7071348D01*
X55182919Y7057496D01*
X55154794Y7048964D01*
X55123069Y7045840D01*
X54726731Y7045840D01*
X54695006Y7048964D01*
X54666881Y7057496D01*
X54640965Y7071348D01*
X54618251Y7089991D01*
X54599608Y7112705D01*
X54585756Y7138621D01*
X54577224Y7166746D01*
X54574100Y7198471D01*
X54574100Y8944809D01*
X54577224Y8976534D01*
X54585756Y9004659D01*
X54599608Y9030575D01*
X54618251Y9053289D01*
X54640965Y9071932D01*
X54666881Y9085784D01*
X54695006Y9094316D01*
X54726731Y9097440D01*
X55123069Y9097440D01*
X55154794Y9094316D01*
G37*
G36*
X56424794Y9094316D02*
G01*
X56452919Y9085784D01*
X56478835Y9071932D01*
X56501549Y9053289D01*
X56520192Y9030575D01*
X56534044Y9004659D01*
X56542576Y8976534D01*
X56545700Y8944809D01*
X56545700Y7198471D01*
X56542576Y7166746D01*
X56534044Y7138621D01*
X56520192Y7112705D01*
X56501549Y7089991D01*
X56478835Y7071348D01*
X56452919Y7057496D01*
X56424794Y7048964D01*
X56393069Y7045840D01*
X55996731Y7045840D01*
X55965006Y7048964D01*
X55936881Y7057496D01*
X55910965Y7071348D01*
X55888251Y7089991D01*
X55869608Y7112705D01*
X55855756Y7138621D01*
X55847224Y7166746D01*
X55844100Y7198471D01*
X55844100Y8944809D01*
X55847224Y8976534D01*
X55855756Y9004659D01*
X55869608Y9030575D01*
X55888251Y9053289D01*
X55910965Y9071932D01*
X55936881Y9085784D01*
X55965006Y9094316D01*
X55996731Y9097440D01*
X56393069Y9097440D01*
X56424794Y9094316D01*
G37*
G36*
X57694794Y9094316D02*
G01*
X57722919Y9085784D01*
X57748835Y9071932D01*
X57771549Y9053289D01*
X57790192Y9030575D01*
X57804044Y9004659D01*
X57812576Y8976534D01*
X57815700Y8944809D01*
X57815700Y7198471D01*
X57812576Y7166746D01*
X57804044Y7138621D01*
X57790192Y7112705D01*
X57771549Y7089991D01*
X57748835Y7071348D01*
X57722919Y7057496D01*
X57694794Y7048964D01*
X57663069Y7045840D01*
X57266731Y7045840D01*
X57235006Y7048964D01*
X57206881Y7057496D01*
X57180965Y7071348D01*
X57158251Y7089991D01*
X57139608Y7112705D01*
X57125756Y7138621D01*
X57117224Y7166746D01*
X57114100Y7198471D01*
X57114100Y8944809D01*
X57117224Y8976534D01*
X57125756Y9004659D01*
X57139608Y9030575D01*
X57158251Y9053289D01*
X57180965Y9071932D01*
X57206881Y9085784D01*
X57235006Y9094316D01*
X57266731Y9097440D01*
X57663069Y9097440D01*
X57694794Y9094316D01*
G37*
G36*
X60234794Y9094316D02*
G01*
X60262919Y9085784D01*
X60288835Y9071932D01*
X60311549Y9053289D01*
X60330192Y9030575D01*
X60344044Y9004659D01*
X60352576Y8976534D01*
X60355700Y8944809D01*
X60355700Y7198471D01*
X60352576Y7166746D01*
X60344044Y7138621D01*
X60330192Y7112705D01*
X60311549Y7089991D01*
X60288835Y7071348D01*
X60262919Y7057496D01*
X60234794Y7048964D01*
X60203069Y7045840D01*
X59806731Y7045840D01*
X59775006Y7048964D01*
X59746881Y7057496D01*
X59720965Y7071348D01*
X59698251Y7089991D01*
X59679608Y7112705D01*
X59665756Y7138621D01*
X59657224Y7166746D01*
X59654100Y7198471D01*
X59654100Y8944809D01*
X59657224Y8976534D01*
X59665756Y9004659D01*
X59679608Y9030575D01*
X59698251Y9053289D01*
X59720965Y9071932D01*
X59746881Y9085784D01*
X59775006Y9094316D01*
X59806731Y9097440D01*
X60203069Y9097440D01*
X60234794Y9094316D01*
G37*
G36*
X117722614Y9094316D02*
G01*
X117750739Y9085784D01*
X117776655Y9071932D01*
X117799369Y9053289D01*
X117818012Y9030575D01*
X117831864Y9004659D01*
X117840396Y8976534D01*
X117843520Y8944809D01*
X117843520Y7198471D01*
X117840396Y7166746D01*
X117831864Y7138621D01*
X117818012Y7112705D01*
X117799369Y7089991D01*
X117776655Y7071348D01*
X117750739Y7057496D01*
X117722614Y7048964D01*
X117690889Y7045840D01*
X117294551Y7045840D01*
X117262826Y7048964D01*
X117234701Y7057496D01*
X117208785Y7071348D01*
X117186071Y7089991D01*
X117167428Y7112705D01*
X117153576Y7138621D01*
X117145044Y7166746D01*
X117141920Y7198471D01*
X117141920Y8944809D01*
X117145044Y8976534D01*
X117153576Y9004659D01*
X117167428Y9030575D01*
X117186071Y9053289D01*
X117208785Y9071932D01*
X117234701Y9085784D01*
X117262826Y9094316D01*
X117294551Y9097440D01*
X117690889Y9097440D01*
X117722614Y9094316D01*
G37*
G36*
X140037066Y8877440D02*
G01*
X140082702Y8863596D01*
X140124767Y8841112D01*
X140161635Y8810855D01*
X140191892Y8773987D01*
X140214376Y8731922D01*
X140228220Y8686286D01*
X140233140Y8636334D01*
X140233140Y7626786D01*
X140228220Y7576834D01*
X140214376Y7531198D01*
X140191892Y7489133D01*
X140161635Y7452265D01*
X140124767Y7422008D01*
X140082702Y7399524D01*
X140037066Y7385680D01*
X139987114Y7380760D01*
X139227566Y7380760D01*
X139177614Y7385680D01*
X139131978Y7399524D01*
X139089913Y7422008D01*
X139053045Y7452265D01*
X139022788Y7489133D01*
X139000304Y7531198D01*
X138986460Y7576834D01*
X138981540Y7626786D01*
X138981540Y8636334D01*
X138986460Y8686286D01*
X139000304Y8731922D01*
X139022788Y8773987D01*
X139053045Y8810855D01*
X139089913Y8841112D01*
X139131978Y8863596D01*
X139177614Y8877440D01*
X139227566Y8882360D01*
X139987114Y8882360D01*
X140037066Y8877440D01*
G37*
G36*
X137987066Y8877440D02*
G01*
X138032702Y8863596D01*
X138074767Y8841112D01*
X138111635Y8810855D01*
X138141892Y8773987D01*
X138164376Y8731922D01*
X138178220Y8686286D01*
X138183140Y8636334D01*
X138183140Y7626786D01*
X138178220Y7576834D01*
X138164376Y7531198D01*
X138141892Y7489133D01*
X138111635Y7452265D01*
X138074767Y7422008D01*
X138032702Y7399524D01*
X137987066Y7385680D01*
X137937114Y7380760D01*
X137177566Y7380760D01*
X137127614Y7385680D01*
X137081978Y7399524D01*
X137039913Y7422008D01*
X137003045Y7452265D01*
X136972788Y7489133D01*
X136950304Y7531198D01*
X136936460Y7576834D01*
X136931540Y7626786D01*
X136931540Y8636334D01*
X136936460Y8686286D01*
X136950304Y8731922D01*
X136972788Y8773987D01*
X137003045Y8810855D01*
X137039913Y8841112D01*
X137081978Y8863596D01*
X137127614Y8877440D01*
X137177566Y8882360D01*
X137937114Y8882360D01*
X137987066Y8877440D01*
G37*
G36*
X135551274Y8959296D02*
G01*
X135579399Y8950764D01*
X135605315Y8936912D01*
X135628029Y8918269D01*
X135646672Y8895555D01*
X135660524Y8869639D01*
X135669056Y8841514D01*
X135672180Y8809789D01*
X135672180Y8413451D01*
X135669056Y8381726D01*
X135660524Y8353601D01*
X135646672Y8327685D01*
X135628029Y8304971D01*
X135605315Y8286328D01*
X135579399Y8272476D01*
X135551274Y8263944D01*
X135519549Y8260820D01*
X133773211Y8260820D01*
X133741486Y8263944D01*
X133713361Y8272476D01*
X133687445Y8286328D01*
X133664731Y8304971D01*
X133646088Y8327685D01*
X133632236Y8353601D01*
X133623704Y8381726D01*
X133620580Y8413451D01*
X133620580Y8809789D01*
X133623704Y8841514D01*
X133632236Y8869639D01*
X133646088Y8895555D01*
X133664731Y8918269D01*
X133687445Y8936912D01*
X133713361Y8950764D01*
X133741486Y8959296D01*
X133773211Y8962420D01*
X135519549Y8962420D01*
X135551274Y8959296D01*
G37*
G36*
X130601274Y8959296D02*
G01*
X130629399Y8950764D01*
X130655315Y8936912D01*
X130678029Y8918269D01*
X130696672Y8895555D01*
X130710524Y8869639D01*
X130719056Y8841514D01*
X130722180Y8809789D01*
X130722180Y8413451D01*
X130719056Y8381726D01*
X130710524Y8353601D01*
X130696672Y8327685D01*
X130678029Y8304971D01*
X130655315Y8286328D01*
X130629399Y8272476D01*
X130601274Y8263944D01*
X130569549Y8260820D01*
X128823211Y8260820D01*
X128791486Y8263944D01*
X128763361Y8272476D01*
X128737445Y8286328D01*
X128714731Y8304971D01*
X128696088Y8327685D01*
X128682236Y8353601D01*
X128673704Y8381726D01*
X128670580Y8413451D01*
X128670580Y8809789D01*
X128673704Y8841514D01*
X128682236Y8869639D01*
X128696088Y8895555D01*
X128714731Y8918269D01*
X128737445Y8936912D01*
X128763361Y8950764D01*
X128791486Y8959296D01*
X128823211Y8962420D01*
X130569549Y8962420D01*
X130601274Y8959296D01*
G37*
G36*
X158451226Y9862420D02*
G01*
X158496862Y9848576D01*
X158538927Y9826092D01*
X158575795Y9795835D01*
X158606052Y9758967D01*
X158628536Y9716902D01*
X158642380Y9671266D01*
X158647300Y9621314D01*
X158647300Y8861766D01*
X158642380Y8811814D01*
X158628536Y8766178D01*
X158606052Y8724113D01*
X158575795Y8687245D01*
X158538927Y8656988D01*
X158496862Y8634504D01*
X158451226Y8620660D01*
X158401274Y8615740D01*
X157391726Y8615740D01*
X157341774Y8620660D01*
X157296138Y8634504D01*
X157254073Y8656988D01*
X157217205Y8687245D01*
X157186948Y8724113D01*
X157164464Y8766178D01*
X157150620Y8811814D01*
X157145700Y8861766D01*
X157145700Y9621314D01*
X157150620Y9671266D01*
X157164464Y9716902D01*
X157186948Y9758967D01*
X157217205Y9795835D01*
X157254073Y9826092D01*
X157296138Y9848576D01*
X157341774Y9862420D01*
X157391726Y9867340D01*
X158401274Y9867340D01*
X158451226Y9862420D01*
G37*
G36*
X160757546Y9868660D02*
G01*
X160803182Y9854816D01*
X160845247Y9832332D01*
X160882115Y9802075D01*
X160912372Y9765207D01*
X160934856Y9723142D01*
X160948700Y9677506D01*
X160953620Y9627554D01*
X160953620Y8868006D01*
X160948700Y8818054D01*
X160934856Y8772418D01*
X160912372Y8730353D01*
X160882115Y8693485D01*
X160845247Y8663228D01*
X160803182Y8640744D01*
X160757546Y8626900D01*
X160707594Y8621980D01*
X159698046Y8621980D01*
X159648094Y8626900D01*
X159602458Y8640744D01*
X159560393Y8663228D01*
X159523525Y8693485D01*
X159493268Y8730353D01*
X159470784Y8772418D01*
X159456940Y8818054D01*
X159452020Y8868006D01*
X159452020Y9627554D01*
X159456940Y9677506D01*
X159470784Y9723142D01*
X159493268Y9765207D01*
X159523525Y9802075D01*
X159560393Y9832332D01*
X159602458Y9854816D01*
X159648094Y9868660D01*
X159698046Y9873580D01*
X160707594Y9873580D01*
X160757546Y9868660D01*
G37*
G36*
X155556520Y8711020D02*
G01*
X154654920Y8711020D01*
X154654920Y9312620D01*
X155556520Y9312620D01*
X155556520Y8711020D01*
G37*
G36*
X153756520Y8711020D02*
G01*
X152854920Y8711020D01*
X152854920Y9312620D01*
X153756520Y9312620D01*
X153756520Y8711020D01*
G37*
G36*
X155556520Y9561020D02*
G01*
X154654920Y9561020D01*
X154654920Y10062620D01*
X155556520Y10062620D01*
X155556520Y9561020D01*
G37*
G36*
X153756520Y9561020D02*
G01*
X152854920Y9561020D01*
X152854920Y10062620D01*
X153756520Y10062620D01*
X153756520Y9561020D01*
G37*
G36*
X139138544Y11838472D02*
G01*
X139294212Y11791250D01*
X139437670Y11714569D01*
X139563414Y11611374D01*
X139666609Y11485630D01*
X139743290Y11342172D01*
X139790512Y11186504D01*
X139806455Y11024620D01*
X139790512Y10862736D01*
X139743290Y10707068D01*
X139666609Y10563610D01*
X139563414Y10437866D01*
X139437670Y10334671D01*
X139294212Y10257990D01*
X139138544Y10210768D01*
X139017227Y10198820D01*
X137066093Y10198820D01*
X136944776Y10210768D01*
X136789108Y10257990D01*
X136645650Y10334671D01*
X136519906Y10437866D01*
X136416711Y10563610D01*
X136340030Y10707068D01*
X136292808Y10862736D01*
X136276865Y11024620D01*
X136292808Y11186504D01*
X136340030Y11342172D01*
X136416711Y11485630D01*
X136519906Y11611374D01*
X136645650Y11714569D01*
X136789108Y11791250D01*
X136944776Y11838472D01*
X137066093Y11850420D01*
X139017227Y11850420D01*
X139138544Y11838472D01*
G37*
G36*
X135178544Y11838472D02*
G01*
X135334212Y11791250D01*
X135477670Y11714569D01*
X135603414Y11611374D01*
X135706609Y11485630D01*
X135783290Y11342172D01*
X135830512Y11186504D01*
X135846455Y11024620D01*
X135830512Y10862736D01*
X135783290Y10707068D01*
X135706609Y10563610D01*
X135603414Y10437866D01*
X135477670Y10334671D01*
X135334212Y10257990D01*
X135178544Y10210768D01*
X135057227Y10198820D01*
X133106093Y10198820D01*
X132984776Y10210768D01*
X132829108Y10257990D01*
X132685650Y10334671D01*
X132559906Y10437866D01*
X132456711Y10563610D01*
X132380030Y10707068D01*
X132332808Y10862736D01*
X132316865Y11024620D01*
X132332808Y11186504D01*
X132380030Y11342172D01*
X132456711Y11485630D01*
X132559906Y11611374D01*
X132685650Y11714569D01*
X132829108Y11791250D01*
X132984776Y11838472D01*
X133106093Y11850420D01*
X135057227Y11850420D01*
X135178544Y11838472D01*
G37*
G36*
X131218544Y11838472D02*
G01*
X131374212Y11791250D01*
X131517670Y11714569D01*
X131643414Y11611374D01*
X131746609Y11485630D01*
X131823290Y11342172D01*
X131870512Y11186504D01*
X131886455Y11024620D01*
X131870512Y10862736D01*
X131823290Y10707068D01*
X131746609Y10563610D01*
X131643414Y10437866D01*
X131517670Y10334671D01*
X131374212Y10257990D01*
X131218544Y10210768D01*
X131097227Y10198820D01*
X129146093Y10198820D01*
X129024776Y10210768D01*
X128869108Y10257990D01*
X128725650Y10334671D01*
X128599906Y10437866D01*
X128496711Y10563610D01*
X128420030Y10707068D01*
X128372808Y10862736D01*
X128356865Y11024620D01*
X128372808Y11186504D01*
X128420030Y11342172D01*
X128496711Y11485630D01*
X128599906Y11611374D01*
X128725650Y11714569D01*
X128869108Y11791250D01*
X129024776Y11838472D01*
X129146093Y11850420D01*
X131097227Y11850420D01*
X131218544Y11838472D01*
G37*
G36*
X127258544Y11838472D02*
G01*
X127414212Y11791250D01*
X127557670Y11714569D01*
X127683414Y11611374D01*
X127786609Y11485630D01*
X127863290Y11342172D01*
X127910512Y11186504D01*
X127926455Y11024620D01*
X127910512Y10862736D01*
X127863290Y10707068D01*
X127786609Y10563610D01*
X127683414Y10437866D01*
X127557670Y10334671D01*
X127414212Y10257990D01*
X127258544Y10210768D01*
X127137227Y10198820D01*
X125186093Y10198820D01*
X125064776Y10210768D01*
X124909108Y10257990D01*
X124765650Y10334671D01*
X124639906Y10437866D01*
X124536711Y10563610D01*
X124460030Y10707068D01*
X124412808Y10862736D01*
X124396865Y11024620D01*
X124412808Y11186504D01*
X124460030Y11342172D01*
X124536711Y11485630D01*
X124639906Y11611374D01*
X124765650Y11714569D01*
X124909108Y11791250D01*
X125064776Y11838472D01*
X125186093Y11850420D01*
X127137227Y11850420D01*
X127258544Y11838472D01*
G37*
G36*
X123298544Y11838472D02*
G01*
X123454212Y11791250D01*
X123597670Y11714569D01*
X123723414Y11611374D01*
X123826609Y11485630D01*
X123903290Y11342172D01*
X123950512Y11186504D01*
X123966455Y11024620D01*
X123950512Y10862736D01*
X123903290Y10707068D01*
X123826609Y10563610D01*
X123723414Y10437866D01*
X123597670Y10334671D01*
X123454212Y10257990D01*
X123298544Y10210768D01*
X123177227Y10198820D01*
X121226093Y10198820D01*
X121104776Y10210768D01*
X120949108Y10257990D01*
X120805650Y10334671D01*
X120679906Y10437866D01*
X120576711Y10563610D01*
X120500030Y10707068D01*
X120452808Y10862736D01*
X120436865Y11024620D01*
X120452808Y11186504D01*
X120500030Y11342172D01*
X120576711Y11485630D01*
X120679906Y11611374D01*
X120805650Y11714569D01*
X120949108Y11791250D01*
X121104776Y11838472D01*
X121226093Y11850420D01*
X123177227Y11850420D01*
X123298544Y11838472D01*
G37*
G36*
X119338544Y11838472D02*
G01*
X119494212Y11791250D01*
X119637670Y11714569D01*
X119763414Y11611374D01*
X119866609Y11485630D01*
X119943290Y11342172D01*
X119990512Y11186504D01*
X120006455Y11024620D01*
X119990512Y10862736D01*
X119943290Y10707068D01*
X119866609Y10563610D01*
X119763414Y10437866D01*
X119637670Y10334671D01*
X119494212Y10257990D01*
X119338544Y10210768D01*
X119217227Y10198820D01*
X117266093Y10198820D01*
X117144776Y10210768D01*
X116989108Y10257990D01*
X116845650Y10334671D01*
X116719906Y10437866D01*
X116616711Y10563610D01*
X116540030Y10707068D01*
X116492808Y10862736D01*
X116476865Y11024620D01*
X116492808Y11186504D01*
X116540030Y11342172D01*
X116616711Y11485630D01*
X116719906Y11611374D01*
X116845650Y11714569D01*
X116989108Y11791250D01*
X117144776Y11838472D01*
X117266093Y11850420D01*
X119217227Y11850420D01*
X119338544Y11838472D01*
G37*
G36*
X115378544Y11838472D02*
G01*
X115534212Y11791250D01*
X115677670Y11714569D01*
X115803414Y11611374D01*
X115906609Y11485630D01*
X115983290Y11342172D01*
X116030512Y11186504D01*
X116046455Y11024620D01*
X116030512Y10862736D01*
X115983290Y10707068D01*
X115906609Y10563610D01*
X115803414Y10437866D01*
X115677670Y10334671D01*
X115534212Y10257990D01*
X115378544Y10210768D01*
X115257227Y10198820D01*
X113306093Y10198820D01*
X113184776Y10210768D01*
X113029108Y10257990D01*
X112885650Y10334671D01*
X112759906Y10437866D01*
X112656711Y10563610D01*
X112580030Y10707068D01*
X112532808Y10862736D01*
X112516865Y11024620D01*
X112532808Y11186504D01*
X112580030Y11342172D01*
X112656711Y11485630D01*
X112759906Y11611374D01*
X112885650Y11714569D01*
X113029108Y11791250D01*
X113184776Y11838472D01*
X113306093Y11850420D01*
X115257227Y11850420D01*
X115378544Y11838472D01*
G37*
G36*
X111418544Y11838472D02*
G01*
X111574212Y11791250D01*
X111717670Y11714569D01*
X111843414Y11611374D01*
X111946609Y11485630D01*
X112023290Y11342172D01*
X112070512Y11186504D01*
X112086455Y11024620D01*
X112070512Y10862736D01*
X112023290Y10707068D01*
X111946609Y10563610D01*
X111843414Y10437866D01*
X111717670Y10334671D01*
X111574212Y10257990D01*
X111418544Y10210768D01*
X111297227Y10198820D01*
X109346093Y10198820D01*
X109224776Y10210768D01*
X109069108Y10257990D01*
X108925650Y10334671D01*
X108799906Y10437866D01*
X108696711Y10563610D01*
X108620030Y10707068D01*
X108572808Y10862736D01*
X108556865Y11024620D01*
X108572808Y11186504D01*
X108620030Y11342172D01*
X108696711Y11485630D01*
X108799906Y11611374D01*
X108925650Y11714569D01*
X109069108Y11791250D01*
X109224776Y11838472D01*
X109346093Y11850420D01*
X111297227Y11850420D01*
X111418544Y11838472D01*
G37*
G36*
X83698544Y11838472D02*
G01*
X83854212Y11791250D01*
X83997670Y11714569D01*
X84123414Y11611374D01*
X84226609Y11485630D01*
X84303290Y11342172D01*
X84350512Y11186504D01*
X84366455Y11024620D01*
X84350512Y10862736D01*
X84303290Y10707068D01*
X84226609Y10563610D01*
X84123414Y10437866D01*
X83997670Y10334671D01*
X83854212Y10257990D01*
X83698544Y10210768D01*
X83577227Y10198820D01*
X81626093Y10198820D01*
X81504776Y10210768D01*
X81349108Y10257990D01*
X81205650Y10334671D01*
X81079906Y10437866D01*
X80976711Y10563610D01*
X80900030Y10707068D01*
X80852808Y10862736D01*
X80836865Y11024620D01*
X80852808Y11186504D01*
X80900030Y11342172D01*
X80976711Y11485630D01*
X81079906Y11611374D01*
X81205650Y11714569D01*
X81349108Y11791250D01*
X81504776Y11838472D01*
X81626093Y11850420D01*
X83577227Y11850420D01*
X83698544Y11838472D01*
G37*
G36*
X87658544Y11838472D02*
G01*
X87814212Y11791250D01*
X87957670Y11714569D01*
X88083414Y11611374D01*
X88186609Y11485630D01*
X88263290Y11342172D01*
X88310512Y11186504D01*
X88326455Y11024620D01*
X88310512Y10862736D01*
X88263290Y10707068D01*
X88186609Y10563610D01*
X88083414Y10437866D01*
X87957670Y10334671D01*
X87814212Y10257990D01*
X87658544Y10210768D01*
X87537227Y10198820D01*
X85586093Y10198820D01*
X85464776Y10210768D01*
X85309108Y10257990D01*
X85165650Y10334671D01*
X85039906Y10437866D01*
X84936711Y10563610D01*
X84860030Y10707068D01*
X84812808Y10862736D01*
X84796865Y11024620D01*
X84812808Y11186504D01*
X84860030Y11342172D01*
X84936711Y11485630D01*
X85039906Y11611374D01*
X85165650Y11714569D01*
X85309108Y11791250D01*
X85464776Y11838472D01*
X85586093Y11850420D01*
X87537227Y11850420D01*
X87658544Y11838472D01*
G37*
G36*
X91618544Y11838472D02*
G01*
X91774212Y11791250D01*
X91917670Y11714569D01*
X92043414Y11611374D01*
X92146609Y11485630D01*
X92223290Y11342172D01*
X92270512Y11186504D01*
X92286455Y11024620D01*
X92270512Y10862736D01*
X92223290Y10707068D01*
X92146609Y10563610D01*
X92043414Y10437866D01*
X91917670Y10334671D01*
X91774212Y10257990D01*
X91618544Y10210768D01*
X91497227Y10198820D01*
X89546093Y10198820D01*
X89424776Y10210768D01*
X89269108Y10257990D01*
X89125650Y10334671D01*
X88999906Y10437866D01*
X88896711Y10563610D01*
X88820030Y10707068D01*
X88772808Y10862736D01*
X88756865Y11024620D01*
X88772808Y11186504D01*
X88820030Y11342172D01*
X88896711Y11485630D01*
X88999906Y11611374D01*
X89125650Y11714569D01*
X89269108Y11791250D01*
X89424776Y11838472D01*
X89546093Y11850420D01*
X91497227Y11850420D01*
X91618544Y11838472D01*
G37*
G36*
X107458544Y11838472D02*
G01*
X107614212Y11791250D01*
X107757670Y11714569D01*
X107883414Y11611374D01*
X107986609Y11485630D01*
X108063290Y11342172D01*
X108110512Y11186504D01*
X108126455Y11024620D01*
X108110512Y10862736D01*
X108063290Y10707068D01*
X107986609Y10563610D01*
X107883414Y10437866D01*
X107757670Y10334671D01*
X107614212Y10257990D01*
X107458544Y10210768D01*
X107337227Y10198820D01*
X105386093Y10198820D01*
X105264776Y10210768D01*
X105109108Y10257990D01*
X104965650Y10334671D01*
X104839906Y10437866D01*
X104736711Y10563610D01*
X104660030Y10707068D01*
X104612808Y10862736D01*
X104596865Y11024620D01*
X104612808Y11186504D01*
X104660030Y11342172D01*
X104736711Y11485630D01*
X104839906Y11611374D01*
X104965650Y11714569D01*
X105109108Y11791250D01*
X105264776Y11838472D01*
X105386093Y11850420D01*
X107337227Y11850420D01*
X107458544Y11838472D01*
G37*
G36*
X103498544Y11838472D02*
G01*
X103654212Y11791250D01*
X103797670Y11714569D01*
X103923414Y11611374D01*
X104026609Y11485630D01*
X104103290Y11342172D01*
X104150512Y11186504D01*
X104166455Y11024620D01*
X104150512Y10862736D01*
X104103290Y10707068D01*
X104026609Y10563610D01*
X103923414Y10437866D01*
X103797670Y10334671D01*
X103654212Y10257990D01*
X103498544Y10210768D01*
X103377227Y10198820D01*
X101426093Y10198820D01*
X101304776Y10210768D01*
X101149108Y10257990D01*
X101005650Y10334671D01*
X100879906Y10437866D01*
X100776711Y10563610D01*
X100700030Y10707068D01*
X100652808Y10862736D01*
X100636865Y11024620D01*
X100652808Y11186504D01*
X100700030Y11342172D01*
X100776711Y11485630D01*
X100879906Y11611374D01*
X101005650Y11714569D01*
X101149108Y11791250D01*
X101304776Y11838472D01*
X101426093Y11850420D01*
X103377227Y11850420D01*
X103498544Y11838472D01*
G37*
G36*
X95578544Y11838472D02*
G01*
X95734212Y11791250D01*
X95877670Y11714569D01*
X96003414Y11611374D01*
X96106609Y11485630D01*
X96183290Y11342172D01*
X96230512Y11186504D01*
X96246455Y11024620D01*
X96230512Y10862736D01*
X96183290Y10707068D01*
X96106609Y10563610D01*
X96003414Y10437866D01*
X95877670Y10334671D01*
X95734212Y10257990D01*
X95578544Y10210768D01*
X95457227Y10198820D01*
X93506093Y10198820D01*
X93384776Y10210768D01*
X93229108Y10257990D01*
X93085650Y10334671D01*
X92959906Y10437866D01*
X92856711Y10563610D01*
X92780030Y10707068D01*
X92732808Y10862736D01*
X92716865Y11024620D01*
X92732808Y11186504D01*
X92780030Y11342172D01*
X92856711Y11485630D01*
X92959906Y11611374D01*
X93085650Y11714569D01*
X93229108Y11791250D01*
X93384776Y11838472D01*
X93506093Y11850420D01*
X95457227Y11850420D01*
X95578544Y11838472D01*
G37*
G36*
X99538544Y11838472D02*
G01*
X99694212Y11791250D01*
X99837670Y11714569D01*
X99963414Y11611374D01*
X100066609Y11485630D01*
X100143290Y11342172D01*
X100190512Y11186504D01*
X100206455Y11024620D01*
X100190512Y10862736D01*
X100143290Y10707068D01*
X100066609Y10563610D01*
X99963414Y10437866D01*
X99837670Y10334671D01*
X99694212Y10257990D01*
X99538544Y10210768D01*
X99417227Y10198820D01*
X97466093Y10198820D01*
X97344776Y10210768D01*
X97189108Y10257990D01*
X97045650Y10334671D01*
X96919906Y10437866D01*
X96816711Y10563610D01*
X96740030Y10707068D01*
X96692808Y10862736D01*
X96676865Y11024620D01*
X96692808Y11186504D01*
X96740030Y11342172D01*
X96816711Y11485630D01*
X96919906Y11611374D01*
X97045650Y11714569D01*
X97189108Y11791250D01*
X97344776Y11838472D01*
X97466093Y11850420D01*
X99417227Y11850420D01*
X99538544Y11838472D01*
G37*
G36*
X143098544Y11838472D02*
G01*
X143254212Y11791250D01*
X143397670Y11714569D01*
X143523414Y11611374D01*
X143626609Y11485630D01*
X143703290Y11342172D01*
X143750512Y11186504D01*
X143766455Y11024620D01*
X143750512Y10862736D01*
X143703290Y10707068D01*
X143626609Y10563610D01*
X143523414Y10437866D01*
X143397670Y10334671D01*
X143254212Y10257990D01*
X143098544Y10210768D01*
X142977227Y10198820D01*
X141026093Y10198820D01*
X140904776Y10210768D01*
X140749108Y10257990D01*
X140605650Y10334671D01*
X140479906Y10437866D01*
X140376711Y10563610D01*
X140300030Y10707068D01*
X140252808Y10862736D01*
X140236865Y11024620D01*
X140252808Y11186504D01*
X140300030Y11342172D01*
X140376711Y11485630D01*
X140479906Y11611374D01*
X140605650Y11714569D01*
X140749108Y11791250D01*
X140904776Y11838472D01*
X141026093Y11850420D01*
X142977227Y11850420D01*
X143098544Y11838472D01*
G37*
G36*
X75778544Y11838472D02*
G01*
X75934212Y11791250D01*
X76077670Y11714569D01*
X76203414Y11611374D01*
X76306609Y11485630D01*
X76383290Y11342172D01*
X76430512Y11186504D01*
X76446455Y11024620D01*
X76430512Y10862736D01*
X76383290Y10707068D01*
X76306609Y10563610D01*
X76203414Y10437866D01*
X76077670Y10334671D01*
X75934212Y10257990D01*
X75778544Y10210768D01*
X75657227Y10198820D01*
X73706093Y10198820D01*
X73584776Y10210768D01*
X73429108Y10257990D01*
X73285650Y10334671D01*
X73159906Y10437866D01*
X73056711Y10563610D01*
X72980030Y10707068D01*
X72932808Y10862736D01*
X72916865Y11024620D01*
X72932808Y11186504D01*
X72980030Y11342172D01*
X73056711Y11485630D01*
X73159906Y11611374D01*
X73285650Y11714569D01*
X73429108Y11791250D01*
X73584776Y11838472D01*
X73706093Y11850420D01*
X75657227Y11850420D01*
X75778544Y11838472D01*
G37*
G36*
X79738544Y11838472D02*
G01*
X79894212Y11791250D01*
X80037670Y11714569D01*
X80163414Y11611374D01*
X80266609Y11485630D01*
X80343290Y11342172D01*
X80390512Y11186504D01*
X80406455Y11024620D01*
X80390512Y10862736D01*
X80343290Y10707068D01*
X80266609Y10563610D01*
X80163414Y10437866D01*
X80037670Y10334671D01*
X79894212Y10257990D01*
X79738544Y10210768D01*
X79617227Y10198820D01*
X77666093Y10198820D01*
X77544776Y10210768D01*
X77389108Y10257990D01*
X77245650Y10334671D01*
X77119906Y10437866D01*
X77016711Y10563610D01*
X76940030Y10707068D01*
X76892808Y10862736D01*
X76876865Y11024620D01*
X76892808Y11186504D01*
X76940030Y11342172D01*
X77016711Y11485630D01*
X77119906Y11611374D01*
X77245650Y11714569D01*
X77389108Y11791250D01*
X77544776Y11838472D01*
X77666093Y11850420D01*
X79617227Y11850420D01*
X79738544Y11838472D01*
G37*
G36*
X147058544Y11838472D02*
G01*
X147214212Y11791250D01*
X147357670Y11714569D01*
X147483414Y11611374D01*
X147586609Y11485630D01*
X147663290Y11342172D01*
X147710512Y11186504D01*
X147726455Y11024620D01*
X147710512Y10862736D01*
X147663290Y10707068D01*
X147586609Y10563610D01*
X147483414Y10437866D01*
X147357670Y10334671D01*
X147214212Y10257990D01*
X147058544Y10210768D01*
X146937227Y10198820D01*
X144986093Y10198820D01*
X144864776Y10210768D01*
X144709108Y10257990D01*
X144565650Y10334671D01*
X144439906Y10437866D01*
X144336711Y10563610D01*
X144260030Y10707068D01*
X144212808Y10862736D01*
X144196865Y11024620D01*
X144212808Y11186504D01*
X144260030Y11342172D01*
X144336711Y11485630D01*
X144439906Y11611374D01*
X144565650Y11714569D01*
X144709108Y11791250D01*
X144864776Y11838472D01*
X144986093Y11850420D01*
X146937227Y11850420D01*
X147058544Y11838472D01*
G37*
G36*
X151018544Y11838472D02*
G01*
X151174212Y11791250D01*
X151317670Y11714569D01*
X151443414Y11611374D01*
X151546609Y11485630D01*
X151623290Y11342172D01*
X151670512Y11186504D01*
X151686455Y11024620D01*
X151670512Y10862736D01*
X151623290Y10707068D01*
X151546609Y10563610D01*
X151443414Y10437866D01*
X151317670Y10334671D01*
X151174212Y10257990D01*
X151018544Y10210768D01*
X150897227Y10198820D01*
X148946093Y10198820D01*
X148824776Y10210768D01*
X148669108Y10257990D01*
X148525650Y10334671D01*
X148399906Y10437866D01*
X148296711Y10563610D01*
X148220030Y10707068D01*
X148172808Y10862736D01*
X148156865Y11024620D01*
X148172808Y11186504D01*
X148220030Y11342172D01*
X148296711Y11485630D01*
X148399906Y11611374D01*
X148525650Y11714569D01*
X148669108Y11791250D01*
X148824776Y11838472D01*
X148946093Y11850420D01*
X150897227Y11850420D01*
X151018544Y11838472D01*
G37*
G36*
X36178544Y11838472D02*
G01*
X36334212Y11791250D01*
X36477670Y11714569D01*
X36603414Y11611374D01*
X36706609Y11485630D01*
X36783290Y11342172D01*
X36830512Y11186504D01*
X36846455Y11024620D01*
X36830512Y10862736D01*
X36783290Y10707068D01*
X36706609Y10563610D01*
X36603414Y10437866D01*
X36477670Y10334671D01*
X36334212Y10257990D01*
X36178544Y10210768D01*
X36057227Y10198820D01*
X34106093Y10198820D01*
X33984776Y10210768D01*
X33829108Y10257990D01*
X33685650Y10334671D01*
X33559906Y10437866D01*
X33456711Y10563610D01*
X33380030Y10707068D01*
X33332808Y10862736D01*
X33316865Y11024620D01*
X33332808Y11186504D01*
X33380030Y11342172D01*
X33456711Y11485630D01*
X33559906Y11611374D01*
X33685650Y11714569D01*
X33829108Y11791250D01*
X33984776Y11838472D01*
X34106093Y11850420D01*
X36057227Y11850420D01*
X36178544Y11838472D01*
G37*
G36*
X40138544Y11838472D02*
G01*
X40294212Y11791250D01*
X40437670Y11714569D01*
X40563414Y11611374D01*
X40666609Y11485630D01*
X40743290Y11342172D01*
X40790512Y11186504D01*
X40806455Y11024620D01*
X40790512Y10862736D01*
X40743290Y10707068D01*
X40666609Y10563610D01*
X40563414Y10437866D01*
X40437670Y10334671D01*
X40294212Y10257990D01*
X40138544Y10210768D01*
X40017227Y10198820D01*
X38066093Y10198820D01*
X37944776Y10210768D01*
X37789108Y10257990D01*
X37645650Y10334671D01*
X37519906Y10437866D01*
X37416711Y10563610D01*
X37340030Y10707068D01*
X37292808Y10862736D01*
X37276865Y11024620D01*
X37292808Y11186504D01*
X37340030Y11342172D01*
X37416711Y11485630D01*
X37519906Y11611374D01*
X37645650Y11714569D01*
X37789108Y11791250D01*
X37944776Y11838472D01*
X38066093Y11850420D01*
X40017227Y11850420D01*
X40138544Y11838472D01*
G37*
G36*
X44098544Y11838472D02*
G01*
X44254212Y11791250D01*
X44397670Y11714569D01*
X44523414Y11611374D01*
X44626609Y11485630D01*
X44703290Y11342172D01*
X44750512Y11186504D01*
X44766455Y11024620D01*
X44750512Y10862736D01*
X44703290Y10707068D01*
X44626609Y10563610D01*
X44523414Y10437866D01*
X44397670Y10334671D01*
X44254212Y10257990D01*
X44098544Y10210768D01*
X43977227Y10198820D01*
X42026093Y10198820D01*
X41904776Y10210768D01*
X41749108Y10257990D01*
X41605650Y10334671D01*
X41479906Y10437866D01*
X41376711Y10563610D01*
X41300030Y10707068D01*
X41252808Y10862736D01*
X41236865Y11024620D01*
X41252808Y11186504D01*
X41300030Y11342172D01*
X41376711Y11485630D01*
X41479906Y11611374D01*
X41605650Y11714569D01*
X41749108Y11791250D01*
X41904776Y11838472D01*
X42026093Y11850420D01*
X43977227Y11850420D01*
X44098544Y11838472D01*
G37*
G36*
X48058544Y11838472D02*
G01*
X48214212Y11791250D01*
X48357670Y11714569D01*
X48483414Y11611374D01*
X48586609Y11485630D01*
X48663290Y11342172D01*
X48710512Y11186504D01*
X48726455Y11024620D01*
X48710512Y10862736D01*
X48663290Y10707068D01*
X48586609Y10563610D01*
X48483414Y10437866D01*
X48357670Y10334671D01*
X48214212Y10257990D01*
X48058544Y10210768D01*
X47937227Y10198820D01*
X45986093Y10198820D01*
X45864776Y10210768D01*
X45709108Y10257990D01*
X45565650Y10334671D01*
X45439906Y10437866D01*
X45336711Y10563610D01*
X45260030Y10707068D01*
X45212808Y10862736D01*
X45196865Y11024620D01*
X45212808Y11186504D01*
X45260030Y11342172D01*
X45336711Y11485630D01*
X45439906Y11611374D01*
X45565650Y11714569D01*
X45709108Y11791250D01*
X45864776Y11838472D01*
X45986093Y11850420D01*
X47937227Y11850420D01*
X48058544Y11838472D01*
G37*
G36*
X52018544Y11838472D02*
G01*
X52174212Y11791250D01*
X52317670Y11714569D01*
X52443414Y11611374D01*
X52546609Y11485630D01*
X52623290Y11342172D01*
X52670512Y11186504D01*
X52686455Y11024620D01*
X52670512Y10862736D01*
X52623290Y10707068D01*
X52546609Y10563610D01*
X52443414Y10437866D01*
X52317670Y10334671D01*
X52174212Y10257990D01*
X52018544Y10210768D01*
X51897227Y10198820D01*
X49946093Y10198820D01*
X49824776Y10210768D01*
X49669108Y10257990D01*
X49525650Y10334671D01*
X49399906Y10437866D01*
X49296711Y10563610D01*
X49220030Y10707068D01*
X49172808Y10862736D01*
X49156865Y11024620D01*
X49172808Y11186504D01*
X49220030Y11342172D01*
X49296711Y11485630D01*
X49399906Y11611374D01*
X49525650Y11714569D01*
X49669108Y11791250D01*
X49824776Y11838472D01*
X49946093Y11850420D01*
X51897227Y11850420D01*
X52018544Y11838472D01*
G37*
G36*
X55978544Y11838472D02*
G01*
X56134212Y11791250D01*
X56277670Y11714569D01*
X56403414Y11611374D01*
X56506609Y11485630D01*
X56583290Y11342172D01*
X56630512Y11186504D01*
X56646455Y11024620D01*
X56630512Y10862736D01*
X56583290Y10707068D01*
X56506609Y10563610D01*
X56403414Y10437866D01*
X56277670Y10334671D01*
X56134212Y10257990D01*
X55978544Y10210768D01*
X55857227Y10198820D01*
X53906093Y10198820D01*
X53784776Y10210768D01*
X53629108Y10257990D01*
X53485650Y10334671D01*
X53359906Y10437866D01*
X53256711Y10563610D01*
X53180030Y10707068D01*
X53132808Y10862736D01*
X53116865Y11024620D01*
X53132808Y11186504D01*
X53180030Y11342172D01*
X53256711Y11485630D01*
X53359906Y11611374D01*
X53485650Y11714569D01*
X53629108Y11791250D01*
X53784776Y11838472D01*
X53906093Y11850420D01*
X55857227Y11850420D01*
X55978544Y11838472D01*
G37*
G36*
X59938544Y11838472D02*
G01*
X60094212Y11791250D01*
X60237670Y11714569D01*
X60363414Y11611374D01*
X60466609Y11485630D01*
X60543290Y11342172D01*
X60590512Y11186504D01*
X60606455Y11024620D01*
X60590512Y10862736D01*
X60543290Y10707068D01*
X60466609Y10563610D01*
X60363414Y10437866D01*
X60237670Y10334671D01*
X60094212Y10257990D01*
X59938544Y10210768D01*
X59817227Y10198820D01*
X57866093Y10198820D01*
X57744776Y10210768D01*
X57589108Y10257990D01*
X57445650Y10334671D01*
X57319906Y10437866D01*
X57216711Y10563610D01*
X57140030Y10707068D01*
X57092808Y10862736D01*
X57076865Y11024620D01*
X57092808Y11186504D01*
X57140030Y11342172D01*
X57216711Y11485630D01*
X57319906Y11611374D01*
X57445650Y11714569D01*
X57589108Y11791250D01*
X57744776Y11838472D01*
X57866093Y11850420D01*
X59817227Y11850420D01*
X59938544Y11838472D01*
G37*
G36*
X63898544Y11838472D02*
G01*
X64054212Y11791250D01*
X64197670Y11714569D01*
X64323414Y11611374D01*
X64426609Y11485630D01*
X64503290Y11342172D01*
X64550512Y11186504D01*
X64566455Y11024620D01*
X64550512Y10862736D01*
X64503290Y10707068D01*
X64426609Y10563610D01*
X64323414Y10437866D01*
X64197670Y10334671D01*
X64054212Y10257990D01*
X63898544Y10210768D01*
X63777227Y10198820D01*
X61826093Y10198820D01*
X61704776Y10210768D01*
X61549108Y10257990D01*
X61405650Y10334671D01*
X61279906Y10437866D01*
X61176711Y10563610D01*
X61100030Y10707068D01*
X61052808Y10862736D01*
X61036865Y11024620D01*
X61052808Y11186504D01*
X61100030Y11342172D01*
X61176711Y11485630D01*
X61279906Y11611374D01*
X61405650Y11714569D01*
X61549108Y11791250D01*
X61704776Y11838472D01*
X61826093Y11850420D01*
X63777227Y11850420D01*
X63898544Y11838472D01*
G37*
G36*
X67858544Y11838472D02*
G01*
X68014212Y11791250D01*
X68157670Y11714569D01*
X68283414Y11611374D01*
X68386609Y11485630D01*
X68463290Y11342172D01*
X68510512Y11186504D01*
X68526455Y11024620D01*
X68510512Y10862736D01*
X68463290Y10707068D01*
X68386609Y10563610D01*
X68283414Y10437866D01*
X68157670Y10334671D01*
X68014212Y10257990D01*
X67858544Y10210768D01*
X67737227Y10198820D01*
X65786093Y10198820D01*
X65664776Y10210768D01*
X65509108Y10257990D01*
X65365650Y10334671D01*
X65239906Y10437866D01*
X65136711Y10563610D01*
X65060030Y10707068D01*
X65012808Y10862736D01*
X64996865Y11024620D01*
X65012808Y11186504D01*
X65060030Y11342172D01*
X65136711Y11485630D01*
X65239906Y11611374D01*
X65365650Y11714569D01*
X65509108Y11791250D01*
X65664776Y11838472D01*
X65786093Y11850420D01*
X67737227Y11850420D01*
X67858544Y11838472D01*
G37*
G36*
X71818544Y11838472D02*
G01*
X71974212Y11791250D01*
X72117670Y11714569D01*
X72243414Y11611374D01*
X72346609Y11485630D01*
X72423290Y11342172D01*
X72470512Y11186504D01*
X72486455Y11024620D01*
X72470512Y10862736D01*
X72423290Y10707068D01*
X72346609Y10563610D01*
X72243414Y10437866D01*
X72117670Y10334671D01*
X71974212Y10257990D01*
X71818544Y10210768D01*
X71697227Y10198820D01*
X69746093Y10198820D01*
X69624776Y10210768D01*
X69469108Y10257990D01*
X69325650Y10334671D01*
X69199906Y10437866D01*
X69096711Y10563610D01*
X69020030Y10707068D01*
X68972808Y10862736D01*
X68956865Y11024620D01*
X68972808Y11186504D01*
X69020030Y11342172D01*
X69096711Y11485630D01*
X69199906Y11611374D01*
X69325650Y11714569D01*
X69469108Y11791250D01*
X69624776Y11838472D01*
X69746093Y11850420D01*
X71697227Y11850420D01*
X71818544Y11838472D01*
G37*
G36*
X155556520Y10361020D02*
G01*
X154654920Y10361020D01*
X154654920Y10862620D01*
X155556520Y10862620D01*
X155556520Y10361020D01*
G37*
G36*
X153756520Y10361020D02*
G01*
X152854920Y10361020D01*
X152854920Y10862620D01*
X153756520Y10862620D01*
X153756520Y10361020D01*
G37*
G36*
X29629726Y11995880D02*
G01*
X29675362Y11982036D01*
X29717427Y11959552D01*
X29754295Y11929295D01*
X29784552Y11892427D01*
X29807036Y11850362D01*
X29820880Y11804726D01*
X29825800Y11754774D01*
X29825800Y10745226D01*
X29820880Y10695274D01*
X29807036Y10649638D01*
X29784552Y10607573D01*
X29754295Y10570705D01*
X29717427Y10540448D01*
X29675362Y10517964D01*
X29629726Y10504120D01*
X29579774Y10499200D01*
X28820226Y10499200D01*
X28770274Y10504120D01*
X28724638Y10517964D01*
X28682573Y10540448D01*
X28645705Y10570705D01*
X28615448Y10607573D01*
X28592964Y10649638D01*
X28579120Y10695274D01*
X28574200Y10745226D01*
X28574200Y11754774D01*
X28579120Y11804726D01*
X28592964Y11850362D01*
X28615448Y11892427D01*
X28645705Y11929295D01*
X28682573Y11959552D01*
X28724638Y11982036D01*
X28770274Y11995880D01*
X28820226Y12000800D01*
X29579774Y12000800D01*
X29629726Y11995880D01*
G37*
G36*
X31679726Y11995880D02*
G01*
X31725362Y11982036D01*
X31767427Y11959552D01*
X31804295Y11929295D01*
X31834552Y11892427D01*
X31857036Y11850362D01*
X31870880Y11804726D01*
X31875800Y11754774D01*
X31875800Y10745226D01*
X31870880Y10695274D01*
X31857036Y10649638D01*
X31834552Y10607573D01*
X31804295Y10570705D01*
X31767427Y10540448D01*
X31725362Y10517964D01*
X31679726Y10504120D01*
X31629774Y10499200D01*
X30870226Y10499200D01*
X30820274Y10504120D01*
X30774638Y10517964D01*
X30732573Y10540448D01*
X30695705Y10570705D01*
X30665448Y10607573D01*
X30642964Y10649638D01*
X30629120Y10695274D01*
X30624200Y10745226D01*
X30624200Y11754774D01*
X30629120Y11804726D01*
X30642964Y11850362D01*
X30665448Y11892427D01*
X30695705Y11929295D01*
X30732573Y11959552D01*
X30774638Y11982036D01*
X30820274Y11995880D01*
X30870226Y12000800D01*
X31629774Y12000800D01*
X31679726Y11995880D01*
G37*
G36*
X158451226Y11912420D02*
G01*
X158496862Y11898576D01*
X158538927Y11876092D01*
X158575795Y11845835D01*
X158606052Y11808967D01*
X158628536Y11766902D01*
X158642380Y11721266D01*
X158647300Y11671314D01*
X158647300Y10911766D01*
X158642380Y10861814D01*
X158628536Y10816178D01*
X158606052Y10774113D01*
X158575795Y10737245D01*
X158538927Y10706988D01*
X158496862Y10684504D01*
X158451226Y10670660D01*
X158401274Y10665740D01*
X157391726Y10665740D01*
X157341774Y10670660D01*
X157296138Y10684504D01*
X157254073Y10706988D01*
X157217205Y10737245D01*
X157186948Y10774113D01*
X157164464Y10816178D01*
X157150620Y10861814D01*
X157145700Y10911766D01*
X157145700Y11671314D01*
X157150620Y11721266D01*
X157164464Y11766902D01*
X157186948Y11808967D01*
X157217205Y11845835D01*
X157254073Y11876092D01*
X157296138Y11898576D01*
X157341774Y11912420D01*
X157391726Y11917340D01*
X158401274Y11917340D01*
X158451226Y11912420D01*
G37*
G36*
X160757546Y11918660D02*
G01*
X160803182Y11904816D01*
X160845247Y11882332D01*
X160882115Y11852075D01*
X160912372Y11815207D01*
X160934856Y11773142D01*
X160948700Y11727506D01*
X160953620Y11677554D01*
X160953620Y10918006D01*
X160948700Y10868054D01*
X160934856Y10822418D01*
X160912372Y10780353D01*
X160882115Y10743485D01*
X160845247Y10713228D01*
X160803182Y10690744D01*
X160757546Y10676900D01*
X160707594Y10671980D01*
X159698046Y10671980D01*
X159648094Y10676900D01*
X159602458Y10690744D01*
X159560393Y10713228D01*
X159523525Y10743485D01*
X159493268Y10780353D01*
X159470784Y10822418D01*
X159456940Y10868054D01*
X159452020Y10918006D01*
X159452020Y11677554D01*
X159456940Y11727506D01*
X159470784Y11773142D01*
X159493268Y11815207D01*
X159523525Y11852075D01*
X159560393Y11882332D01*
X159602458Y11904816D01*
X159648094Y11918660D01*
X159698046Y11923580D01*
X160707594Y11923580D01*
X160757546Y11918660D01*
G37*
G36*
X153756520Y11111020D02*
G01*
X152854920Y11111020D01*
X152854920Y11712620D01*
X153756520Y11712620D01*
X153756520Y11111020D01*
G37*
G36*
X155556520Y11111020D02*
G01*
X154654920Y11111020D01*
X154654920Y11712620D01*
X155556520Y11712620D01*
X155556520Y11111020D01*
G37*
G36*
X29654726Y13995880D02*
G01*
X29700362Y13982036D01*
X29742427Y13959552D01*
X29779295Y13929295D01*
X29809552Y13892427D01*
X29832036Y13850362D01*
X29845880Y13804726D01*
X29850800Y13754774D01*
X29850800Y12745226D01*
X29845880Y12695274D01*
X29832036Y12649638D01*
X29809552Y12607573D01*
X29779295Y12570705D01*
X29742427Y12540448D01*
X29700362Y12517964D01*
X29654726Y12504120D01*
X29604774Y12499200D01*
X28845226Y12499200D01*
X28795274Y12504120D01*
X28749638Y12517964D01*
X28707573Y12540448D01*
X28670705Y12570705D01*
X28640448Y12607573D01*
X28617964Y12649638D01*
X28604120Y12695274D01*
X28599200Y12745226D01*
X28599200Y13754774D01*
X28604120Y13804726D01*
X28617964Y13850362D01*
X28640448Y13892427D01*
X28670705Y13929295D01*
X28707573Y13959552D01*
X28749638Y13982036D01*
X28795274Y13995880D01*
X28845226Y14000800D01*
X29604774Y14000800D01*
X29654726Y13995880D01*
G37*
G36*
X31704726Y13995880D02*
G01*
X31750362Y13982036D01*
X31792427Y13959552D01*
X31829295Y13929295D01*
X31859552Y13892427D01*
X31882036Y13850362D01*
X31895880Y13804726D01*
X31900800Y13754774D01*
X31900800Y12745226D01*
X31895880Y12695274D01*
X31882036Y12649638D01*
X31859552Y12607573D01*
X31829295Y12570705D01*
X31792427Y12540448D01*
X31750362Y12517964D01*
X31704726Y12504120D01*
X31654774Y12499200D01*
X30895226Y12499200D01*
X30845274Y12504120D01*
X30799638Y12517964D01*
X30757573Y12540448D01*
X30720705Y12570705D01*
X30690448Y12607573D01*
X30667964Y12649638D01*
X30654120Y12695274D01*
X30649200Y12745226D01*
X30649200Y13754774D01*
X30654120Y13804726D01*
X30667964Y13850362D01*
X30690448Y13892427D01*
X30720705Y13929295D01*
X30757573Y13959552D01*
X30799638Y13982036D01*
X30845274Y13995880D01*
X30895226Y14000800D01*
X31654774Y14000800D01*
X31704726Y13995880D01*
G37*
G36*
X35599680Y13456300D02*
G01*
X33798080Y13456300D01*
X33798080Y15257900D01*
X35599680Y15257900D01*
X35599680Y13456300D01*
G37*
G36*
X37501634Y15223283D02*
G01*
X37665569Y15155379D01*
X37813107Y15056797D01*
X37938577Y14931327D01*
X38037159Y14783789D01*
X38105063Y14619854D01*
X38139680Y14445821D01*
X38139680Y14268379D01*
X38105063Y14094346D01*
X38037159Y13930411D01*
X37938577Y13782873D01*
X37813107Y13657403D01*
X37665569Y13558821D01*
X37501634Y13490917D01*
X37327601Y13456300D01*
X37150159Y13456300D01*
X36976126Y13490917D01*
X36812191Y13558821D01*
X36664653Y13657403D01*
X36539183Y13782873D01*
X36440601Y13930411D01*
X36372697Y14094346D01*
X36338080Y14268379D01*
X36338080Y14445821D01*
X36372697Y14619854D01*
X36440601Y14783789D01*
X36539183Y14931327D01*
X36664653Y15056797D01*
X36812191Y15155379D01*
X36976126Y15223283D01*
X37150159Y15257900D01*
X37327601Y15257900D01*
X37501634Y15223283D01*
G37*
G36*
X40041634Y15223283D02*
G01*
X40205569Y15155379D01*
X40353107Y15056797D01*
X40478577Y14931327D01*
X40577159Y14783789D01*
X40645063Y14619854D01*
X40679680Y14445821D01*
X40679680Y14268379D01*
X40645063Y14094346D01*
X40577159Y13930411D01*
X40478577Y13782873D01*
X40353107Y13657403D01*
X40205569Y13558821D01*
X40041634Y13490917D01*
X39867601Y13456300D01*
X39690159Y13456300D01*
X39516126Y13490917D01*
X39352191Y13558821D01*
X39204653Y13657403D01*
X39079183Y13782873D01*
X38980601Y13930411D01*
X38912697Y14094346D01*
X38878080Y14268379D01*
X38878080Y14445821D01*
X38912697Y14619854D01*
X38980601Y14783789D01*
X39079183Y14931327D01*
X39204653Y15056797D01*
X39352191Y15155379D01*
X39516126Y15223283D01*
X39690159Y15257900D01*
X39867601Y15257900D01*
X40041634Y15223283D01*
G37*
G36*
X40041634Y17763283D02*
G01*
X40205569Y17695379D01*
X40353107Y17596797D01*
X40478577Y17471327D01*
X40577159Y17323789D01*
X40645063Y17159854D01*
X40679680Y16985821D01*
X40679680Y16808379D01*
X40645063Y16634346D01*
X40577159Y16470411D01*
X40478577Y16322873D01*
X40353107Y16197403D01*
X40205569Y16098821D01*
X40041634Y16030917D01*
X39867601Y15996300D01*
X39690159Y15996300D01*
X39516126Y16030917D01*
X39352191Y16098821D01*
X39204653Y16197403D01*
X39079183Y16322873D01*
X38980601Y16470411D01*
X38912697Y16634346D01*
X38878080Y16808379D01*
X38878080Y16985821D01*
X38912697Y17159854D01*
X38980601Y17323789D01*
X39079183Y17471327D01*
X39204653Y17596797D01*
X39352191Y17695379D01*
X39516126Y17763283D01*
X39690159Y17797900D01*
X39867601Y17797900D01*
X40041634Y17763283D01*
G37*
G36*
X34961634Y17763283D02*
G01*
X35125569Y17695379D01*
X35273107Y17596797D01*
X35398577Y17471327D01*
X35497159Y17323789D01*
X35565063Y17159854D01*
X35599680Y16985821D01*
X35599680Y16808379D01*
X35565063Y16634346D01*
X35497159Y16470411D01*
X35398577Y16322873D01*
X35273107Y16197403D01*
X35125569Y16098821D01*
X34961634Y16030917D01*
X34787601Y15996300D01*
X34610159Y15996300D01*
X34436126Y16030917D01*
X34272191Y16098821D01*
X34124653Y16197403D01*
X33999183Y16322873D01*
X33900601Y16470411D01*
X33832697Y16634346D01*
X33798080Y16808379D01*
X33798080Y16985821D01*
X33832697Y17159854D01*
X33900601Y17323789D01*
X33999183Y17471327D01*
X34124653Y17596797D01*
X34272191Y17695379D01*
X34436126Y17763283D01*
X34610159Y17797900D01*
X34787601Y17797900D01*
X34961634Y17763283D01*
G37*
G36*
X37501634Y17763283D02*
G01*
X37665569Y17695379D01*
X37813107Y17596797D01*
X37938577Y17471327D01*
X38037159Y17323789D01*
X38105063Y17159854D01*
X38139680Y16985821D01*
X38139680Y16808379D01*
X38105063Y16634346D01*
X38037159Y16470411D01*
X37938577Y16322873D01*
X37813107Y16197403D01*
X37665569Y16098821D01*
X37501634Y16030917D01*
X37327601Y15996300D01*
X37150159Y15996300D01*
X36976126Y16030917D01*
X36812191Y16098821D01*
X36664653Y16197403D01*
X36539183Y16322873D01*
X36440601Y16470411D01*
X36372697Y16634346D01*
X36338080Y16808379D01*
X36338080Y16985821D01*
X36372697Y17159854D01*
X36440601Y17323789D01*
X36539183Y17471327D01*
X36664653Y17596797D01*
X36812191Y17695379D01*
X36976126Y17763283D01*
X37150159Y17797900D01*
X37327601Y17797900D01*
X37501634Y17763283D01*
G37*
G36*
X27995069Y17891485D02*
G01*
X28149905Y17827349D01*
X28289254Y17734240D01*
X28407760Y17615734D01*
X28500869Y17476385D01*
X28565005Y17321549D01*
X28597700Y17157177D01*
X28597700Y16989583D01*
X28565005Y16825211D01*
X28500869Y16670375D01*
X28407760Y16531026D01*
X28289254Y16412520D01*
X28149905Y16319411D01*
X27995069Y16255275D01*
X27830697Y16222580D01*
X27663103Y16222580D01*
X27498731Y16255275D01*
X27343895Y16319411D01*
X27204546Y16412520D01*
X27086040Y16531026D01*
X26992931Y16670375D01*
X26928795Y16825211D01*
X26896100Y16989583D01*
X26896100Y17157177D01*
X26928795Y17321549D01*
X26992931Y17476385D01*
X27086040Y17615734D01*
X27204546Y17734240D01*
X27343895Y17827349D01*
X27498731Y17891485D01*
X27663103Y17924180D01*
X27830697Y17924180D01*
X27995069Y17891485D01*
G37*
G36*
X7675069Y17891485D02*
G01*
X7829905Y17827349D01*
X7969254Y17734240D01*
X8087760Y17615734D01*
X8180869Y17476385D01*
X8245005Y17321549D01*
X8277700Y17157177D01*
X8277700Y16989583D01*
X8245005Y16825211D01*
X8180869Y16670375D01*
X8087760Y16531026D01*
X7969254Y16412520D01*
X7829905Y16319411D01*
X7675069Y16255275D01*
X7510697Y16222580D01*
X7343103Y16222580D01*
X7178731Y16255275D01*
X7023895Y16319411D01*
X6884546Y16412520D01*
X6766040Y16531026D01*
X6672931Y16670375D01*
X6608795Y16825211D01*
X6576100Y16989583D01*
X6576100Y17157177D01*
X6608795Y17321549D01*
X6672931Y17476385D01*
X6766040Y17615734D01*
X6884546Y17734240D01*
X7023895Y17827349D01*
X7178731Y17891485D01*
X7343103Y17924180D01*
X7510697Y17924180D01*
X7675069Y17891485D01*
G37*
G36*
X2595069Y17891485D02*
G01*
X2749905Y17827349D01*
X2889254Y17734240D01*
X3007760Y17615734D01*
X3100869Y17476385D01*
X3165005Y17321549D01*
X3197700Y17157177D01*
X3197700Y16989583D01*
X3165005Y16825211D01*
X3100869Y16670375D01*
X3007760Y16531026D01*
X2889254Y16412520D01*
X2749905Y16319411D01*
X2595069Y16255275D01*
X2430697Y16222580D01*
X2263103Y16222580D01*
X2098731Y16255275D01*
X1943895Y16319411D01*
X1804546Y16412520D01*
X1686040Y16531026D01*
X1592931Y16670375D01*
X1528795Y16825211D01*
X1496100Y16989583D01*
X1496100Y17157177D01*
X1528795Y17321549D01*
X1592931Y17476385D01*
X1686040Y17615734D01*
X1804546Y17734240D01*
X1943895Y17827349D01*
X2098731Y17891485D01*
X2263103Y17924180D01*
X2430697Y17924180D01*
X2595069Y17891485D01*
G37*
G36*
X10215069Y17891485D02*
G01*
X10369905Y17827349D01*
X10509254Y17734240D01*
X10627760Y17615734D01*
X10720869Y17476385D01*
X10785005Y17321549D01*
X10817700Y17157177D01*
X10817700Y16989583D01*
X10785005Y16825211D01*
X10720869Y16670375D01*
X10627760Y16531026D01*
X10509254Y16412520D01*
X10369905Y16319411D01*
X10215069Y16255275D01*
X10050697Y16222580D01*
X9883103Y16222580D01*
X9718731Y16255275D01*
X9563895Y16319411D01*
X9424546Y16412520D01*
X9306040Y16531026D01*
X9212931Y16670375D01*
X9148795Y16825211D01*
X9116100Y16989583D01*
X9116100Y17157177D01*
X9148795Y17321549D01*
X9212931Y17476385D01*
X9306040Y17615734D01*
X9424546Y17734240D01*
X9563895Y17827349D01*
X9718731Y17891485D01*
X9883103Y17924180D01*
X10050697Y17924180D01*
X10215069Y17891485D01*
G37*
G36*
X12755069Y17891485D02*
G01*
X12909905Y17827349D01*
X13049254Y17734240D01*
X13167760Y17615734D01*
X13260869Y17476385D01*
X13325005Y17321549D01*
X13357700Y17157177D01*
X13357700Y16989583D01*
X13325005Y16825211D01*
X13260869Y16670375D01*
X13167760Y16531026D01*
X13049254Y16412520D01*
X12909905Y16319411D01*
X12755069Y16255275D01*
X12590697Y16222580D01*
X12423103Y16222580D01*
X12258731Y16255275D01*
X12103895Y16319411D01*
X11964546Y16412520D01*
X11846040Y16531026D01*
X11752931Y16670375D01*
X11688795Y16825211D01*
X11656100Y16989583D01*
X11656100Y17157177D01*
X11688795Y17321549D01*
X11752931Y17476385D01*
X11846040Y17615734D01*
X11964546Y17734240D01*
X12103895Y17827349D01*
X12258731Y17891485D01*
X12423103Y17924180D01*
X12590697Y17924180D01*
X12755069Y17891485D01*
G37*
G36*
X15295069Y17891485D02*
G01*
X15449905Y17827349D01*
X15589254Y17734240D01*
X15707760Y17615734D01*
X15800869Y17476385D01*
X15865005Y17321549D01*
X15897700Y17157177D01*
X15897700Y16989583D01*
X15865005Y16825211D01*
X15800869Y16670375D01*
X15707760Y16531026D01*
X15589254Y16412520D01*
X15449905Y16319411D01*
X15295069Y16255275D01*
X15130697Y16222580D01*
X14963103Y16222580D01*
X14798731Y16255275D01*
X14643895Y16319411D01*
X14504546Y16412520D01*
X14386040Y16531026D01*
X14292931Y16670375D01*
X14228795Y16825211D01*
X14196100Y16989583D01*
X14196100Y17157177D01*
X14228795Y17321549D01*
X14292931Y17476385D01*
X14386040Y17615734D01*
X14504546Y17734240D01*
X14643895Y17827349D01*
X14798731Y17891485D01*
X14963103Y17924180D01*
X15130697Y17924180D01*
X15295069Y17891485D01*
G37*
G36*
X17835069Y17891485D02*
G01*
X17989905Y17827349D01*
X18129254Y17734240D01*
X18247760Y17615734D01*
X18340869Y17476385D01*
X18405005Y17321549D01*
X18437700Y17157177D01*
X18437700Y16989583D01*
X18405005Y16825211D01*
X18340869Y16670375D01*
X18247760Y16531026D01*
X18129254Y16412520D01*
X17989905Y16319411D01*
X17835069Y16255275D01*
X17670697Y16222580D01*
X17503103Y16222580D01*
X17338731Y16255275D01*
X17183895Y16319411D01*
X17044546Y16412520D01*
X16926040Y16531026D01*
X16832931Y16670375D01*
X16768795Y16825211D01*
X16736100Y16989583D01*
X16736100Y17157177D01*
X16768795Y17321549D01*
X16832931Y17476385D01*
X16926040Y17615734D01*
X17044546Y17734240D01*
X17183895Y17827349D01*
X17338731Y17891485D01*
X17503103Y17924180D01*
X17670697Y17924180D01*
X17835069Y17891485D01*
G37*
G36*
X20375069Y17891485D02*
G01*
X20529905Y17827349D01*
X20669254Y17734240D01*
X20787760Y17615734D01*
X20880869Y17476385D01*
X20945005Y17321549D01*
X20977700Y17157177D01*
X20977700Y16989583D01*
X20945005Y16825211D01*
X20880869Y16670375D01*
X20787760Y16531026D01*
X20669254Y16412520D01*
X20529905Y16319411D01*
X20375069Y16255275D01*
X20210697Y16222580D01*
X20043103Y16222580D01*
X19878731Y16255275D01*
X19723895Y16319411D01*
X19584546Y16412520D01*
X19466040Y16531026D01*
X19372931Y16670375D01*
X19308795Y16825211D01*
X19276100Y16989583D01*
X19276100Y17157177D01*
X19308795Y17321549D01*
X19372931Y17476385D01*
X19466040Y17615734D01*
X19584546Y17734240D01*
X19723895Y17827349D01*
X19878731Y17891485D01*
X20043103Y17924180D01*
X20210697Y17924180D01*
X20375069Y17891485D01*
G37*
G36*
X22915069Y17891485D02*
G01*
X23069905Y17827349D01*
X23209254Y17734240D01*
X23327760Y17615734D01*
X23420869Y17476385D01*
X23485005Y17321549D01*
X23517700Y17157177D01*
X23517700Y16989583D01*
X23485005Y16825211D01*
X23420869Y16670375D01*
X23327760Y16531026D01*
X23209254Y16412520D01*
X23069905Y16319411D01*
X22915069Y16255275D01*
X22750697Y16222580D01*
X22583103Y16222580D01*
X22418731Y16255275D01*
X22263895Y16319411D01*
X22124546Y16412520D01*
X22006040Y16531026D01*
X21912931Y16670375D01*
X21848795Y16825211D01*
X21816100Y16989583D01*
X21816100Y17157177D01*
X21848795Y17321549D01*
X21912931Y17476385D01*
X22006040Y17615734D01*
X22124546Y17734240D01*
X22263895Y17827349D01*
X22418731Y17891485D01*
X22583103Y17924180D01*
X22750697Y17924180D01*
X22915069Y17891485D01*
G37*
G36*
X25455069Y17891485D02*
G01*
X25609905Y17827349D01*
X25749254Y17734240D01*
X25867760Y17615734D01*
X25960869Y17476385D01*
X26025005Y17321549D01*
X26057700Y17157177D01*
X26057700Y16989583D01*
X26025005Y16825211D01*
X25960869Y16670375D01*
X25867760Y16531026D01*
X25749254Y16412520D01*
X25609905Y16319411D01*
X25455069Y16255275D01*
X25290697Y16222580D01*
X25123103Y16222580D01*
X24958731Y16255275D01*
X24803895Y16319411D01*
X24664546Y16412520D01*
X24546040Y16531026D01*
X24452931Y16670375D01*
X24388795Y16825211D01*
X24356100Y16989583D01*
X24356100Y17157177D01*
X24388795Y17321549D01*
X24452931Y17476385D01*
X24546040Y17615734D01*
X24664546Y17734240D01*
X24803895Y17827349D01*
X24958731Y17891485D01*
X25123103Y17924180D01*
X25290697Y17924180D01*
X25455069Y17891485D01*
G37*
G36*
X30535069Y17891485D02*
G01*
X30689905Y17827349D01*
X30829254Y17734240D01*
X30947760Y17615734D01*
X31040869Y17476385D01*
X31105005Y17321549D01*
X31137700Y17157177D01*
X31137700Y16989583D01*
X31105005Y16825211D01*
X31040869Y16670375D01*
X30947760Y16531026D01*
X30829254Y16412520D01*
X30689905Y16319411D01*
X30535069Y16255275D01*
X30370697Y16222580D01*
X30203103Y16222580D01*
X30038731Y16255275D01*
X29883895Y16319411D01*
X29744546Y16412520D01*
X29626040Y16531026D01*
X29532931Y16670375D01*
X29468795Y16825211D01*
X29436100Y16989583D01*
X29436100Y17157177D01*
X29468795Y17321549D01*
X29532931Y17476385D01*
X29626040Y17615734D01*
X29744546Y17734240D01*
X29883895Y17827349D01*
X30038731Y17891485D01*
X30203103Y17924180D01*
X30370697Y17924180D01*
X30535069Y17891485D01*
G37*
G36*
X5135069Y17891485D02*
G01*
X5289905Y17827349D01*
X5429254Y17734240D01*
X5547760Y17615734D01*
X5640869Y17476385D01*
X5705005Y17321549D01*
X5737700Y17157177D01*
X5737700Y16989583D01*
X5705005Y16825211D01*
X5640869Y16670375D01*
X5547760Y16531026D01*
X5429254Y16412520D01*
X5289905Y16319411D01*
X5135069Y16255275D01*
X4970697Y16222580D01*
X4803103Y16222580D01*
X4638731Y16255275D01*
X4483895Y16319411D01*
X4344546Y16412520D01*
X4226040Y16531026D01*
X4132931Y16670375D01*
X4068795Y16825211D01*
X4036100Y16989583D01*
X4036100Y17157177D01*
X4068795Y17321549D01*
X4132931Y17476385D01*
X4226040Y17615734D01*
X4344546Y17734240D01*
X4483895Y17827349D01*
X4638731Y17891485D01*
X4803103Y17924180D01*
X4970697Y17924180D01*
X5135069Y17891485D01*
G37*
G36*
X157061183Y22296177D02*
G01*
X157192943Y22241600D01*
X157311523Y22162367D01*
X157412367Y22061523D01*
X157491600Y21942943D01*
X157546177Y21811183D01*
X157574000Y21671308D01*
X157574000Y21528692D01*
X157546177Y21388817D01*
X157491600Y21257057D01*
X157412367Y21138477D01*
X157311523Y21037633D01*
X157192943Y20958400D01*
X157061183Y20903823D01*
X156921308Y20876000D01*
X156778692Y20876000D01*
X156638817Y20903823D01*
X156507057Y20958400D01*
X156388477Y21037633D01*
X156287633Y21138477D01*
X156208400Y21257057D01*
X156153823Y21388817D01*
X156126000Y21528692D01*
X156126000Y21671308D01*
X156153823Y21811183D01*
X156208400Y21942943D01*
X156287633Y22061523D01*
X156388477Y22162367D01*
X156507057Y22241600D01*
X156638817Y22296177D01*
X156778692Y22324000D01*
X156921308Y22324000D01*
X157061183Y22296177D01*
G37*
G36*
X2711183Y22296177D02*
G01*
X2842943Y22241600D01*
X2961523Y22162367D01*
X3062367Y22061523D01*
X3141600Y21942943D01*
X3196177Y21811183D01*
X3224000Y21671308D01*
X3224000Y21528692D01*
X3196177Y21388817D01*
X3141600Y21257057D01*
X3062367Y21138477D01*
X2961523Y21037633D01*
X2842943Y20958400D01*
X2711183Y20903823D01*
X2571308Y20876000D01*
X2428692Y20876000D01*
X2288817Y20903823D01*
X2157057Y20958400D01*
X2038477Y21037633D01*
X1937633Y21138477D01*
X1858400Y21257057D01*
X1803823Y21388817D01*
X1776000Y21528692D01*
X1776000Y21671308D01*
X1803823Y21811183D01*
X1858400Y21942943D01*
X1937633Y22061523D01*
X2038477Y22162367D01*
X2157057Y22241600D01*
X2288817Y22296177D01*
X2428692Y22324000D01*
X2571308Y22324000D01*
X2711183Y22296177D01*
G37*
M02*
