M48
; DRILL file {KiCad 5.1.6+dfsg1-1~bpo10+1} date Wed Aug 19 20:33:58 2020
; FORMAT={-:-/ absolute / inch / decimal}
; #@! TF.CreationDate,2020-08-19T20:33:58+03:00
; #@! TF.GenerationSoftware,Kicad,Pcbnew,5.1.6+dfsg1-1~bpo10+1
FMAT,2
INCH
T1C0.0100
T2C0.0118
T3C0.0200
T4C0.0315
T5C0.0394
T6C0.0433
T7C0.0591
T8C0.0454
%
G90
G05
T1
X0.6102Y0.5433
X0.7047Y0.3819
X0.7894Y0.3012
X0.8228Y0.5315
X0.8543Y0.2303
X0.8603Y0.5019
X0.8622Y0.3898
X0.9277Y0.204
X0.9724Y0.2756
X0.9902Y0.5315
X1.0374Y0.2126
X1.0453Y0.313
X1.0709Y0.2106
X1.0933Y0.2999
X1.1102Y0.1594
X1.3138Y0.2126
X1.3291Y0.6648
X1.3587Y0.1825
X1.3622Y0.565
X1.3839Y0.2756
X1.4465Y0.1971
X1.4705Y0.0512
X1.5079Y0.2008
X1.524Y0.3866
X1.53Y0.4955
X1.5795Y0.262
X1.666Y0.4768
X1.6897Y0.0512
X1.8219Y0.4768
X1.8514Y0.2595
X1.909Y0.0512
X1.9778Y0.4768
X1.9918Y0.2595
X2.0648Y0.1939
X2.1337Y0.4768
X2.1633Y0.2101
X2.2635Y0.208
X2.2896Y0.4768
X2.3138Y0.2071
X2.4455Y0.4768
X2.4728Y0.2913
X2.4741Y0.1455
X2.5461Y0.1623
X2.5981Y0.2913
X2.6014Y0.4768
X2.7235Y0.2913
X2.7573Y0.4768
X2.7646Y0.1665
X2.8642Y0.2913
X2.9132Y0.4768
X2.9291Y0.2913
X2.9975Y0.1614
X3.0433Y0.2913
X3.0691Y0.4768
X3.1928Y0.1611
X3.225Y0.4768
X3.2298Y0.291
X3.3616Y0.2932
X3.3622Y0.1614
X3.3809Y0.4768
X3.5158Y0.1941
X3.5368Y0.4768
X3.5658Y0.1977
X3.616Y0.1947
X3.6661Y0.1935
X3.6928Y0.4768
X3.7427Y0.1829
X3.8124Y0.2883
X3.8338Y0.1687
X3.8487Y0.4768
X3.9401Y0.2883
X4.0046Y0.4768
X4.0677Y0.2883
X4.1605Y0.4768
X4.1799Y0.1732
X4.1954Y0.2883
X4.3164Y0.4768
X4.3231Y0.2883
X4.4508Y0.2883
X4.4723Y0.4768
X4.5112Y0.3045
X4.6282Y0.4768
X4.6359Y0.2953
X4.6398Y0.1732
X4.7768Y0.185
X4.7841Y0.4768
X4.8764Y0.1898
X4.9264Y0.1926
X4.94Y0.4768
X4.96Y0.2595
X5.0744Y0.172
X5.0819Y0.3138
X5.0878Y0.2419
X5.0959Y0.4768
X5.2084Y0.042
X5.2353Y0.2374
X5.238Y0.2966
X5.2874Y0.1673
X5.2887Y0.2386
X5.4217Y0.3197
X5.4941Y0.4882
X5.5423Y0.0413
X5.5453Y0.376
X5.5527Y0.276
X5.5591Y0.4744
X5.6387Y0.1804
X5.6393Y0.2287
X5.6901Y0.1785
X5.6907Y0.2317
X5.7992Y0.374
X5.8091Y0.2067
X5.8652Y0.3652
X5.878Y0.1969
X5.9173Y0.3799
X6.0Y0.3543
X6.0236Y0.0758
X6.0266Y0.1181
X6.0768Y0.1772
X6.124Y0.4626
X6.2146Y0.1201
X6.2165Y0.4606
X6.2677Y0.0315
X6.2815Y0.1417
X6.3091Y0.4626
X6.4114Y0.1673
T2
X0.3454Y0.5865
X0.3926Y0.5865
X0.4398Y0.5865
X0.3013Y0.2265
X0.3485Y0.2265
X0.3957Y0.2265
T3
X0.4741Y0.3255
X0.9567Y0.4311
X5.7392Y0.2264
X5.7392Y0.1801
X5.9596Y0.1772
X5.9636Y0.2244
T5
X1.4173Y0.6652
X1.4173Y0.5652
X1.5173Y0.6652
X1.5173Y0.5652
X1.6173Y0.6652
X1.6173Y0.5652
T6
X0.0924Y0.6722
X0.0924Y0.0722
X0.1924Y0.6722
X0.1924Y0.0722
X0.2924Y0.6722
X0.2924Y0.0722
X0.3924Y0.6722
X0.3924Y0.0722
X0.4924Y0.6722
X0.4924Y0.0722
X0.5924Y0.6722
X0.5924Y0.0722
X0.6924Y0.6722
X0.6924Y0.0722
X0.7924Y0.6722
X0.7924Y0.0722
X0.8924Y0.6722
X0.8924Y0.0722
X0.9924Y0.6722
X0.9924Y0.0722
X1.0924Y0.6722
X1.0924Y0.0722
X1.1924Y0.6722
X1.1924Y0.0722
T7
X6.3661Y0.0728
T8
X0.1063Y0.187
X6.2205Y0.065
X0.1063Y0.8504
X6.2205Y0.8504
T4
G00X1.4698Y0.434
M15
G01X1.3949Y0.434
M16
G05
G00X1.6257Y0.434
M15
G01X1.5509Y0.434
M16
G05
G00X1.7816Y0.434
M15
G01X1.7068Y0.434
M16
G05
G00X1.9375Y0.434
M15
G01X1.8627Y0.434
M16
G05
G00X2.0934Y0.434
M15
G01X2.0186Y0.434
M16
G05
G00X2.2493Y0.434
M15
G01X2.1745Y0.434
M16
G05
G00X2.4052Y0.434
M15
G01X2.3304Y0.434
M16
G05
G00X2.5611Y0.434
M15
G01X2.4863Y0.434
M16
G05
G00X2.717Y0.434
M15
G01X2.6422Y0.434
M16
G05
G00X2.8729Y0.434
M15
G01X2.7981Y0.434
M16
G05
G00X3.0288Y0.434
M15
G01X2.954Y0.434
M16
G05
G00X3.1847Y0.434
M15
G01X3.1099Y0.434
M16
G05
G00X3.3406Y0.434
M15
G01X3.2658Y0.434
M16
G05
G00X3.4965Y0.434
M15
G01X3.4217Y0.434
M16
G05
G00X3.6524Y0.434
M15
G01X3.5776Y0.434
M16
G05
G00X3.8083Y0.434
M15
G01X3.7335Y0.434
M16
G05
G00X3.9642Y0.434
M15
G01X3.8894Y0.434
M16
G05
G00X4.1201Y0.434
M15
G01X4.0453Y0.434
M16
G05
G00X4.276Y0.434
M15
G01X4.2012Y0.434
M16
G05
G00X4.432Y0.434
M15
G01X4.3572Y0.434
M16
G05
G00X4.5879Y0.434
M15
G01X4.5131Y0.434
M16
G05
G00X4.7438Y0.434
M15
G01X4.669Y0.434
M16
G05
G00X4.8997Y0.434
M15
G01X4.8249Y0.434
M16
G05
G00X5.0556Y0.434
M15
G01X4.9808Y0.434
M16
G05
G00X5.2115Y0.434
M15
G01X5.1367Y0.434
M16
G05
G00X5.3674Y0.434
M15
G01X5.2926Y0.434
M16
G05
G00X5.5233Y0.434
M15
G01X5.4485Y0.434
M16
G05
G00X5.6792Y0.434
M15
G01X5.6044Y0.434
M16
G05
G00X5.8351Y0.434
M15
G01X5.7603Y0.434
M16
G05
G00X5.991Y0.434
M15
G01X5.9162Y0.434
M16
G05
T0
M30
