G04 #@! TF.GenerationSoftware,KiCad,Pcbnew,5.1.6+dfsg1-1~bpo10+1*
G04 #@! TF.CreationDate,2020-08-19T15:46:29+03:00*
G04 #@! TF.ProjectId,CompactBeamspringP1,436f6d70-6163-4744-9265-616d73707269,0.0.3*
G04 #@! TF.SameCoordinates,Original*
G04 #@! TF.FileFunction,Soldermask,Top*
G04 #@! TF.FilePolarity,Negative*
%FSLAX46Y46*%
G04 Gerber Fmt 4.6, Leading zero omitted, Abs format (unit mm)*
G04 Created by KiCad (PCBNEW 5.1.6+dfsg1-1~bpo10+1) date 2020-08-19 15:46:29*
%MOMM*%
%LPD*%
G01*
G04 APERTURE LIST*
%ADD10C,0.100000*%
G04 APERTURE END LIST*
D10*
G36*
X268502352Y-122558796D02*
G01*
X268502355Y-122558797D01*
X268502354Y-122558797D01*
X268784580Y-122675699D01*
X269038578Y-122845415D01*
X269254585Y-123061422D01*
X269424301Y-123315420D01*
X269424301Y-123315421D01*
X269541204Y-123597648D01*
X269600800Y-123897259D01*
X269600800Y-124202741D01*
X269541204Y-124502352D01*
X269541203Y-124502354D01*
X269424301Y-124784580D01*
X269254585Y-125038578D01*
X269038578Y-125254585D01*
X268784580Y-125424301D01*
X268585014Y-125506964D01*
X268502352Y-125541204D01*
X268202741Y-125600800D01*
X267897259Y-125600800D01*
X267597648Y-125541204D01*
X267514986Y-125506964D01*
X267315420Y-125424301D01*
X267061422Y-125254585D01*
X266845415Y-125038578D01*
X266675699Y-124784580D01*
X266558797Y-124502354D01*
X266558796Y-124502352D01*
X266499200Y-124202741D01*
X266499200Y-123897259D01*
X266558796Y-123597648D01*
X266675699Y-123315421D01*
X266675699Y-123315420D01*
X266845415Y-123061422D01*
X267061422Y-122845415D01*
X267315420Y-122675699D01*
X267597646Y-122558797D01*
X267597645Y-122558797D01*
X267597648Y-122558796D01*
X267897259Y-122499200D01*
X268202741Y-122499200D01*
X268502352Y-122558796D01*
G37*
G36*
X138185069Y-123248515D02*
G01*
X138339905Y-123312651D01*
X138479254Y-123405760D01*
X138597760Y-123524266D01*
X138690869Y-123663615D01*
X138755005Y-123818451D01*
X138787700Y-123982823D01*
X138787700Y-124150417D01*
X138755005Y-124314789D01*
X138690869Y-124469625D01*
X138597760Y-124608974D01*
X138479254Y-124727480D01*
X138339905Y-124820589D01*
X138185069Y-124884725D01*
X138020697Y-124917420D01*
X137853103Y-124917420D01*
X137688731Y-124884725D01*
X137533895Y-124820589D01*
X137394546Y-124727480D01*
X137276040Y-124608974D01*
X137182931Y-124469625D01*
X137118795Y-124314789D01*
X137086100Y-124150417D01*
X137086100Y-123982823D01*
X137118795Y-123818451D01*
X137182931Y-123663615D01*
X137276040Y-123524266D01*
X137394546Y-123405760D01*
X137533895Y-123312651D01*
X137688731Y-123248515D01*
X137853103Y-123215820D01*
X138020697Y-123215820D01*
X138185069Y-123248515D01*
G37*
G36*
X135645069Y-123248515D02*
G01*
X135799905Y-123312651D01*
X135939254Y-123405760D01*
X136057760Y-123524266D01*
X136150869Y-123663615D01*
X136215005Y-123818451D01*
X136247700Y-123982823D01*
X136247700Y-124150417D01*
X136215005Y-124314789D01*
X136150869Y-124469625D01*
X136057760Y-124608974D01*
X135939254Y-124727480D01*
X135799905Y-124820589D01*
X135645069Y-124884725D01*
X135480697Y-124917420D01*
X135313103Y-124917420D01*
X135148731Y-124884725D01*
X134993895Y-124820589D01*
X134854546Y-124727480D01*
X134736040Y-124608974D01*
X134642931Y-124469625D01*
X134578795Y-124314789D01*
X134546100Y-124150417D01*
X134546100Y-123982823D01*
X134578795Y-123818451D01*
X134642931Y-123663615D01*
X134736040Y-123524266D01*
X134854546Y-123405760D01*
X134993895Y-123312651D01*
X135148731Y-123248515D01*
X135313103Y-123215820D01*
X135480697Y-123215820D01*
X135645069Y-123248515D01*
G37*
G36*
X133105069Y-123248515D02*
G01*
X133259905Y-123312651D01*
X133399254Y-123405760D01*
X133517760Y-123524266D01*
X133610869Y-123663615D01*
X133675005Y-123818451D01*
X133707700Y-123982823D01*
X133707700Y-124150417D01*
X133675005Y-124314789D01*
X133610869Y-124469625D01*
X133517760Y-124608974D01*
X133399254Y-124727480D01*
X133259905Y-124820589D01*
X133105069Y-124884725D01*
X132940697Y-124917420D01*
X132773103Y-124917420D01*
X132608731Y-124884725D01*
X132453895Y-124820589D01*
X132314546Y-124727480D01*
X132196040Y-124608974D01*
X132102931Y-124469625D01*
X132038795Y-124314789D01*
X132006100Y-124150417D01*
X132006100Y-123982823D01*
X132038795Y-123818451D01*
X132102931Y-123663615D01*
X132196040Y-123524266D01*
X132314546Y-123405760D01*
X132453895Y-123312651D01*
X132608731Y-123248515D01*
X132773103Y-123215820D01*
X132940697Y-123215820D01*
X133105069Y-123248515D01*
G37*
G36*
X130565069Y-123248515D02*
G01*
X130719905Y-123312651D01*
X130859254Y-123405760D01*
X130977760Y-123524266D01*
X131070869Y-123663615D01*
X131135005Y-123818451D01*
X131167700Y-123982823D01*
X131167700Y-124150417D01*
X131135005Y-124314789D01*
X131070869Y-124469625D01*
X130977760Y-124608974D01*
X130859254Y-124727480D01*
X130719905Y-124820589D01*
X130565069Y-124884725D01*
X130400697Y-124917420D01*
X130233103Y-124917420D01*
X130068731Y-124884725D01*
X129913895Y-124820589D01*
X129774546Y-124727480D01*
X129656040Y-124608974D01*
X129562931Y-124469625D01*
X129498795Y-124314789D01*
X129466100Y-124150417D01*
X129466100Y-123982823D01*
X129498795Y-123818451D01*
X129562931Y-123663615D01*
X129656040Y-123524266D01*
X129774546Y-123405760D01*
X129913895Y-123312651D01*
X130068731Y-123248515D01*
X130233103Y-123215820D01*
X130400697Y-123215820D01*
X130565069Y-123248515D01*
G37*
G36*
X128025069Y-123248515D02*
G01*
X128179905Y-123312651D01*
X128319254Y-123405760D01*
X128437760Y-123524266D01*
X128530869Y-123663615D01*
X128595005Y-123818451D01*
X128627700Y-123982823D01*
X128627700Y-124150417D01*
X128595005Y-124314789D01*
X128530869Y-124469625D01*
X128437760Y-124608974D01*
X128319254Y-124727480D01*
X128179905Y-124820589D01*
X128025069Y-124884725D01*
X127860697Y-124917420D01*
X127693103Y-124917420D01*
X127528731Y-124884725D01*
X127373895Y-124820589D01*
X127234546Y-124727480D01*
X127116040Y-124608974D01*
X127022931Y-124469625D01*
X126958795Y-124314789D01*
X126926100Y-124150417D01*
X126926100Y-123982823D01*
X126958795Y-123818451D01*
X127022931Y-123663615D01*
X127116040Y-123524266D01*
X127234546Y-123405760D01*
X127373895Y-123312651D01*
X127528731Y-123248515D01*
X127693103Y-123215820D01*
X127860697Y-123215820D01*
X128025069Y-123248515D01*
G37*
G36*
X125485069Y-123248515D02*
G01*
X125639905Y-123312651D01*
X125779254Y-123405760D01*
X125897760Y-123524266D01*
X125990869Y-123663615D01*
X126055005Y-123818451D01*
X126087700Y-123982823D01*
X126087700Y-124150417D01*
X126055005Y-124314789D01*
X125990869Y-124469625D01*
X125897760Y-124608974D01*
X125779254Y-124727480D01*
X125639905Y-124820589D01*
X125485069Y-124884725D01*
X125320697Y-124917420D01*
X125153103Y-124917420D01*
X124988731Y-124884725D01*
X124833895Y-124820589D01*
X124694546Y-124727480D01*
X124576040Y-124608974D01*
X124482931Y-124469625D01*
X124418795Y-124314789D01*
X124386100Y-124150417D01*
X124386100Y-123982823D01*
X124418795Y-123818451D01*
X124482931Y-123663615D01*
X124576040Y-123524266D01*
X124694546Y-123405760D01*
X124833895Y-123312651D01*
X124988731Y-123248515D01*
X125153103Y-123215820D01*
X125320697Y-123215820D01*
X125485069Y-123248515D01*
G37*
G36*
X122945069Y-123248515D02*
G01*
X123099905Y-123312651D01*
X123239254Y-123405760D01*
X123357760Y-123524266D01*
X123450869Y-123663615D01*
X123515005Y-123818451D01*
X123547700Y-123982823D01*
X123547700Y-124150417D01*
X123515005Y-124314789D01*
X123450869Y-124469625D01*
X123357760Y-124608974D01*
X123239254Y-124727480D01*
X123099905Y-124820589D01*
X122945069Y-124884725D01*
X122780697Y-124917420D01*
X122613103Y-124917420D01*
X122448731Y-124884725D01*
X122293895Y-124820589D01*
X122154546Y-124727480D01*
X122036040Y-124608974D01*
X121942931Y-124469625D01*
X121878795Y-124314789D01*
X121846100Y-124150417D01*
X121846100Y-123982823D01*
X121878795Y-123818451D01*
X121942931Y-123663615D01*
X122036040Y-123524266D01*
X122154546Y-123405760D01*
X122293895Y-123312651D01*
X122448731Y-123248515D01*
X122613103Y-123215820D01*
X122780697Y-123215820D01*
X122945069Y-123248515D01*
G37*
G36*
X120405069Y-123248515D02*
G01*
X120559905Y-123312651D01*
X120699254Y-123405760D01*
X120817760Y-123524266D01*
X120910869Y-123663615D01*
X120975005Y-123818451D01*
X121007700Y-123982823D01*
X121007700Y-124150417D01*
X120975005Y-124314789D01*
X120910869Y-124469625D01*
X120817760Y-124608974D01*
X120699254Y-124727480D01*
X120559905Y-124820589D01*
X120405069Y-124884725D01*
X120240697Y-124917420D01*
X120073103Y-124917420D01*
X119908731Y-124884725D01*
X119753895Y-124820589D01*
X119614546Y-124727480D01*
X119496040Y-124608974D01*
X119402931Y-124469625D01*
X119338795Y-124314789D01*
X119306100Y-124150417D01*
X119306100Y-123982823D01*
X119338795Y-123818451D01*
X119402931Y-123663615D01*
X119496040Y-123524266D01*
X119614546Y-123405760D01*
X119753895Y-123312651D01*
X119908731Y-123248515D01*
X120073103Y-123215820D01*
X120240697Y-123215820D01*
X120405069Y-123248515D01*
G37*
G36*
X117865069Y-123248515D02*
G01*
X118019905Y-123312651D01*
X118159254Y-123405760D01*
X118277760Y-123524266D01*
X118370869Y-123663615D01*
X118435005Y-123818451D01*
X118467700Y-123982823D01*
X118467700Y-124150417D01*
X118435005Y-124314789D01*
X118370869Y-124469625D01*
X118277760Y-124608974D01*
X118159254Y-124727480D01*
X118019905Y-124820589D01*
X117865069Y-124884725D01*
X117700697Y-124917420D01*
X117533103Y-124917420D01*
X117368731Y-124884725D01*
X117213895Y-124820589D01*
X117074546Y-124727480D01*
X116956040Y-124608974D01*
X116862931Y-124469625D01*
X116798795Y-124314789D01*
X116766100Y-124150417D01*
X116766100Y-123982823D01*
X116798795Y-123818451D01*
X116862931Y-123663615D01*
X116956040Y-123524266D01*
X117074546Y-123405760D01*
X117213895Y-123312651D01*
X117368731Y-123248515D01*
X117533103Y-123215820D01*
X117700697Y-123215820D01*
X117865069Y-123248515D01*
G37*
G36*
X115325069Y-123248515D02*
G01*
X115479905Y-123312651D01*
X115619254Y-123405760D01*
X115737760Y-123524266D01*
X115830869Y-123663615D01*
X115895005Y-123818451D01*
X115927700Y-123982823D01*
X115927700Y-124150417D01*
X115895005Y-124314789D01*
X115830869Y-124469625D01*
X115737760Y-124608974D01*
X115619254Y-124727480D01*
X115479905Y-124820589D01*
X115325069Y-124884725D01*
X115160697Y-124917420D01*
X114993103Y-124917420D01*
X114828731Y-124884725D01*
X114673895Y-124820589D01*
X114534546Y-124727480D01*
X114416040Y-124608974D01*
X114322931Y-124469625D01*
X114258795Y-124314789D01*
X114226100Y-124150417D01*
X114226100Y-123982823D01*
X114258795Y-123818451D01*
X114322931Y-123663615D01*
X114416040Y-123524266D01*
X114534546Y-123405760D01*
X114673895Y-123312651D01*
X114828731Y-123248515D01*
X114993103Y-123215820D01*
X115160697Y-123215820D01*
X115325069Y-123248515D01*
G37*
G36*
X112785069Y-123248515D02*
G01*
X112939905Y-123312651D01*
X113079254Y-123405760D01*
X113197760Y-123524266D01*
X113290869Y-123663615D01*
X113355005Y-123818451D01*
X113387700Y-123982823D01*
X113387700Y-124150417D01*
X113355005Y-124314789D01*
X113290869Y-124469625D01*
X113197760Y-124608974D01*
X113079254Y-124727480D01*
X112939905Y-124820589D01*
X112785069Y-124884725D01*
X112620697Y-124917420D01*
X112453103Y-124917420D01*
X112288731Y-124884725D01*
X112133895Y-124820589D01*
X111994546Y-124727480D01*
X111876040Y-124608974D01*
X111782931Y-124469625D01*
X111718795Y-124314789D01*
X111686100Y-124150417D01*
X111686100Y-123982823D01*
X111718795Y-123818451D01*
X111782931Y-123663615D01*
X111876040Y-123524266D01*
X111994546Y-123405760D01*
X112133895Y-123312651D01*
X112288731Y-123248515D01*
X112453103Y-123215820D01*
X112620697Y-123215820D01*
X112785069Y-123248515D01*
G37*
G36*
X110847700Y-124917420D02*
G01*
X109146100Y-124917420D01*
X109146100Y-123215820D01*
X110847700Y-123215820D01*
X110847700Y-124917420D01*
G37*
G36*
X264711183Y-123453823D02*
G01*
X264842943Y-123508400D01*
X264961523Y-123587633D01*
X265062367Y-123688477D01*
X265141600Y-123807057D01*
X265196177Y-123938817D01*
X265224000Y-124078692D01*
X265224000Y-124221308D01*
X265196177Y-124361183D01*
X265141600Y-124492943D01*
X265062367Y-124611523D01*
X264961523Y-124712367D01*
X264842943Y-124791600D01*
X264711183Y-124846177D01*
X264571308Y-124874000D01*
X264428692Y-124874000D01*
X264288817Y-124846177D01*
X264157057Y-124791600D01*
X264038477Y-124712367D01*
X263937633Y-124611523D01*
X263858400Y-124492943D01*
X263803823Y-124361183D01*
X263776000Y-124221308D01*
X263776000Y-124078692D01*
X263803823Y-123938817D01*
X263858400Y-123807057D01*
X263937633Y-123688477D01*
X264038477Y-123587633D01*
X264157057Y-123508400D01*
X264288817Y-123453823D01*
X264428692Y-123426000D01*
X264571308Y-123426000D01*
X264711183Y-123453823D01*
G37*
G36*
X110361183Y-120503823D02*
G01*
X110492943Y-120558400D01*
X110611523Y-120637633D01*
X110712367Y-120738477D01*
X110791600Y-120857057D01*
X110846177Y-120988817D01*
X110874000Y-121128692D01*
X110874000Y-121271308D01*
X110846177Y-121411183D01*
X110791600Y-121542943D01*
X110712367Y-121661523D01*
X110611523Y-121762367D01*
X110492943Y-121841600D01*
X110361183Y-121896177D01*
X110221308Y-121924000D01*
X110078692Y-121924000D01*
X109938817Y-121896177D01*
X109807057Y-121841600D01*
X109688477Y-121762367D01*
X109587633Y-121661523D01*
X109508400Y-121542943D01*
X109453823Y-121411183D01*
X109426000Y-121271308D01*
X109426000Y-121128692D01*
X109453823Y-120988817D01*
X109508400Y-120857057D01*
X109587633Y-120738477D01*
X109688477Y-120637633D01*
X109807057Y-120558400D01*
X109938817Y-120503823D01*
X110078692Y-120476000D01*
X110221308Y-120476000D01*
X110361183Y-120503823D01*
G37*
G36*
X223028544Y-114061528D02*
G01*
X223184212Y-114108750D01*
X223327670Y-114185431D01*
X223453414Y-114288626D01*
X223556609Y-114414370D01*
X223633290Y-114557828D01*
X223680512Y-114713496D01*
X223696455Y-114875380D01*
X223680512Y-115037264D01*
X223633290Y-115192932D01*
X223556609Y-115336390D01*
X223453414Y-115462134D01*
X223327670Y-115565329D01*
X223184212Y-115642010D01*
X223028544Y-115689232D01*
X222907227Y-115701180D01*
X220956093Y-115701180D01*
X220834776Y-115689232D01*
X220679108Y-115642010D01*
X220535650Y-115565329D01*
X220409906Y-115462134D01*
X220306711Y-115336390D01*
X220230030Y-115192932D01*
X220182808Y-115037264D01*
X220166865Y-114875380D01*
X220182808Y-114713496D01*
X220230030Y-114557828D01*
X220306711Y-114414370D01*
X220409906Y-114288626D01*
X220535650Y-114185431D01*
X220679108Y-114108750D01*
X220834776Y-114061528D01*
X220956093Y-114049580D01*
X222907227Y-114049580D01*
X223028544Y-114061528D01*
G37*
G36*
X226988544Y-114061528D02*
G01*
X227144212Y-114108750D01*
X227287670Y-114185431D01*
X227413414Y-114288626D01*
X227516609Y-114414370D01*
X227593290Y-114557828D01*
X227640512Y-114713496D01*
X227656455Y-114875380D01*
X227640512Y-115037264D01*
X227593290Y-115192932D01*
X227516609Y-115336390D01*
X227413414Y-115462134D01*
X227287670Y-115565329D01*
X227144212Y-115642010D01*
X226988544Y-115689232D01*
X226867227Y-115701180D01*
X224916093Y-115701180D01*
X224794776Y-115689232D01*
X224639108Y-115642010D01*
X224495650Y-115565329D01*
X224369906Y-115462134D01*
X224266711Y-115336390D01*
X224190030Y-115192932D01*
X224142808Y-115037264D01*
X224126865Y-114875380D01*
X224142808Y-114713496D01*
X224190030Y-114557828D01*
X224266711Y-114414370D01*
X224369906Y-114288626D01*
X224495650Y-114185431D01*
X224639108Y-114108750D01*
X224794776Y-114061528D01*
X224916093Y-114049580D01*
X226867227Y-114049580D01*
X226988544Y-114061528D01*
G37*
G36*
X230948544Y-114061528D02*
G01*
X231104212Y-114108750D01*
X231247670Y-114185431D01*
X231373414Y-114288626D01*
X231476609Y-114414370D01*
X231553290Y-114557828D01*
X231600512Y-114713496D01*
X231616455Y-114875380D01*
X231600512Y-115037264D01*
X231553290Y-115192932D01*
X231476609Y-115336390D01*
X231373414Y-115462134D01*
X231247670Y-115565329D01*
X231104212Y-115642010D01*
X230948544Y-115689232D01*
X230827227Y-115701180D01*
X228876093Y-115701180D01*
X228754776Y-115689232D01*
X228599108Y-115642010D01*
X228455650Y-115565329D01*
X228329906Y-115462134D01*
X228226711Y-115336390D01*
X228150030Y-115192932D01*
X228102808Y-115037264D01*
X228086865Y-114875380D01*
X228102808Y-114713496D01*
X228150030Y-114557828D01*
X228226711Y-114414370D01*
X228329906Y-114288626D01*
X228455650Y-114185431D01*
X228599108Y-114108750D01*
X228754776Y-114061528D01*
X228876093Y-114049580D01*
X230827227Y-114049580D01*
X230948544Y-114061528D01*
G37*
G36*
X219068544Y-114061528D02*
G01*
X219224212Y-114108750D01*
X219367670Y-114185431D01*
X219493414Y-114288626D01*
X219596609Y-114414370D01*
X219673290Y-114557828D01*
X219720512Y-114713496D01*
X219736455Y-114875380D01*
X219720512Y-115037264D01*
X219673290Y-115192932D01*
X219596609Y-115336390D01*
X219493414Y-115462134D01*
X219367670Y-115565329D01*
X219224212Y-115642010D01*
X219068544Y-115689232D01*
X218947227Y-115701180D01*
X216996093Y-115701180D01*
X216874776Y-115689232D01*
X216719108Y-115642010D01*
X216575650Y-115565329D01*
X216449906Y-115462134D01*
X216346711Y-115336390D01*
X216270030Y-115192932D01*
X216222808Y-115037264D01*
X216206865Y-114875380D01*
X216222808Y-114713496D01*
X216270030Y-114557828D01*
X216346711Y-114414370D01*
X216449906Y-114288626D01*
X216575650Y-114185431D01*
X216719108Y-114108750D01*
X216874776Y-114061528D01*
X216996093Y-114049580D01*
X218947227Y-114049580D01*
X219068544Y-114061528D01*
G37*
G36*
X167588544Y-114061528D02*
G01*
X167744212Y-114108750D01*
X167887670Y-114185431D01*
X168013414Y-114288626D01*
X168116609Y-114414370D01*
X168193290Y-114557828D01*
X168240512Y-114713496D01*
X168256455Y-114875380D01*
X168240512Y-115037264D01*
X168193290Y-115192932D01*
X168116609Y-115336390D01*
X168013414Y-115462134D01*
X167887670Y-115565329D01*
X167744212Y-115642010D01*
X167588544Y-115689232D01*
X167467227Y-115701180D01*
X165516093Y-115701180D01*
X165394776Y-115689232D01*
X165239108Y-115642010D01*
X165095650Y-115565329D01*
X164969906Y-115462134D01*
X164866711Y-115336390D01*
X164790030Y-115192932D01*
X164742808Y-115037264D01*
X164726865Y-114875380D01*
X164742808Y-114713496D01*
X164790030Y-114557828D01*
X164866711Y-114414370D01*
X164969906Y-114288626D01*
X165095650Y-114185431D01*
X165239108Y-114108750D01*
X165394776Y-114061528D01*
X165516093Y-114049580D01*
X167467227Y-114049580D01*
X167588544Y-114061528D01*
G37*
G36*
X211148544Y-114061528D02*
G01*
X211304212Y-114108750D01*
X211447670Y-114185431D01*
X211573414Y-114288626D01*
X211676609Y-114414370D01*
X211753290Y-114557828D01*
X211800512Y-114713496D01*
X211816455Y-114875380D01*
X211800512Y-115037264D01*
X211753290Y-115192932D01*
X211676609Y-115336390D01*
X211573414Y-115462134D01*
X211447670Y-115565329D01*
X211304212Y-115642010D01*
X211148544Y-115689232D01*
X211027227Y-115701180D01*
X209076093Y-115701180D01*
X208954776Y-115689232D01*
X208799108Y-115642010D01*
X208655650Y-115565329D01*
X208529906Y-115462134D01*
X208426711Y-115336390D01*
X208350030Y-115192932D01*
X208302808Y-115037264D01*
X208286865Y-114875380D01*
X208302808Y-114713496D01*
X208350030Y-114557828D01*
X208426711Y-114414370D01*
X208529906Y-114288626D01*
X208655650Y-114185431D01*
X208799108Y-114108750D01*
X208954776Y-114061528D01*
X209076093Y-114049580D01*
X211027227Y-114049580D01*
X211148544Y-114061528D01*
G37*
G36*
X207188544Y-114061528D02*
G01*
X207344212Y-114108750D01*
X207487670Y-114185431D01*
X207613414Y-114288626D01*
X207716609Y-114414370D01*
X207793290Y-114557828D01*
X207840512Y-114713496D01*
X207856455Y-114875380D01*
X207840512Y-115037264D01*
X207793290Y-115192932D01*
X207716609Y-115336390D01*
X207613414Y-115462134D01*
X207487670Y-115565329D01*
X207344212Y-115642010D01*
X207188544Y-115689232D01*
X207067227Y-115701180D01*
X205116093Y-115701180D01*
X204994776Y-115689232D01*
X204839108Y-115642010D01*
X204695650Y-115565329D01*
X204569906Y-115462134D01*
X204466711Y-115336390D01*
X204390030Y-115192932D01*
X204342808Y-115037264D01*
X204326865Y-114875380D01*
X204342808Y-114713496D01*
X204390030Y-114557828D01*
X204466711Y-114414370D01*
X204569906Y-114288626D01*
X204695650Y-114185431D01*
X204839108Y-114108750D01*
X204994776Y-114061528D01*
X205116093Y-114049580D01*
X207067227Y-114049580D01*
X207188544Y-114061528D01*
G37*
G36*
X203228544Y-114061528D02*
G01*
X203384212Y-114108750D01*
X203527670Y-114185431D01*
X203653414Y-114288626D01*
X203756609Y-114414370D01*
X203833290Y-114557828D01*
X203880512Y-114713496D01*
X203896455Y-114875380D01*
X203880512Y-115037264D01*
X203833290Y-115192932D01*
X203756609Y-115336390D01*
X203653414Y-115462134D01*
X203527670Y-115565329D01*
X203384212Y-115642010D01*
X203228544Y-115689232D01*
X203107227Y-115701180D01*
X201156093Y-115701180D01*
X201034776Y-115689232D01*
X200879108Y-115642010D01*
X200735650Y-115565329D01*
X200609906Y-115462134D01*
X200506711Y-115336390D01*
X200430030Y-115192932D01*
X200382808Y-115037264D01*
X200366865Y-114875380D01*
X200382808Y-114713496D01*
X200430030Y-114557828D01*
X200506711Y-114414370D01*
X200609906Y-114288626D01*
X200735650Y-114185431D01*
X200879108Y-114108750D01*
X201034776Y-114061528D01*
X201156093Y-114049580D01*
X203107227Y-114049580D01*
X203228544Y-114061528D01*
G37*
G36*
X199268544Y-114061528D02*
G01*
X199424212Y-114108750D01*
X199567670Y-114185431D01*
X199693414Y-114288626D01*
X199796609Y-114414370D01*
X199873290Y-114557828D01*
X199920512Y-114713496D01*
X199936455Y-114875380D01*
X199920512Y-115037264D01*
X199873290Y-115192932D01*
X199796609Y-115336390D01*
X199693414Y-115462134D01*
X199567670Y-115565329D01*
X199424212Y-115642010D01*
X199268544Y-115689232D01*
X199147227Y-115701180D01*
X197196093Y-115701180D01*
X197074776Y-115689232D01*
X196919108Y-115642010D01*
X196775650Y-115565329D01*
X196649906Y-115462134D01*
X196546711Y-115336390D01*
X196470030Y-115192932D01*
X196422808Y-115037264D01*
X196406865Y-114875380D01*
X196422808Y-114713496D01*
X196470030Y-114557828D01*
X196546711Y-114414370D01*
X196649906Y-114288626D01*
X196775650Y-114185431D01*
X196919108Y-114108750D01*
X197074776Y-114061528D01*
X197196093Y-114049580D01*
X199147227Y-114049580D01*
X199268544Y-114061528D01*
G37*
G36*
X195308544Y-114061528D02*
G01*
X195464212Y-114108750D01*
X195607670Y-114185431D01*
X195733414Y-114288626D01*
X195836609Y-114414370D01*
X195913290Y-114557828D01*
X195960512Y-114713496D01*
X195976455Y-114875380D01*
X195960512Y-115037264D01*
X195913290Y-115192932D01*
X195836609Y-115336390D01*
X195733414Y-115462134D01*
X195607670Y-115565329D01*
X195464212Y-115642010D01*
X195308544Y-115689232D01*
X195187227Y-115701180D01*
X193236093Y-115701180D01*
X193114776Y-115689232D01*
X192959108Y-115642010D01*
X192815650Y-115565329D01*
X192689906Y-115462134D01*
X192586711Y-115336390D01*
X192510030Y-115192932D01*
X192462808Y-115037264D01*
X192446865Y-114875380D01*
X192462808Y-114713496D01*
X192510030Y-114557828D01*
X192586711Y-114414370D01*
X192689906Y-114288626D01*
X192815650Y-114185431D01*
X192959108Y-114108750D01*
X193114776Y-114061528D01*
X193236093Y-114049580D01*
X195187227Y-114049580D01*
X195308544Y-114061528D01*
G37*
G36*
X191348544Y-114061528D02*
G01*
X191504212Y-114108750D01*
X191647670Y-114185431D01*
X191773414Y-114288626D01*
X191876609Y-114414370D01*
X191953290Y-114557828D01*
X192000512Y-114713496D01*
X192016455Y-114875380D01*
X192000512Y-115037264D01*
X191953290Y-115192932D01*
X191876609Y-115336390D01*
X191773414Y-115462134D01*
X191647670Y-115565329D01*
X191504212Y-115642010D01*
X191348544Y-115689232D01*
X191227227Y-115701180D01*
X189276093Y-115701180D01*
X189154776Y-115689232D01*
X188999108Y-115642010D01*
X188855650Y-115565329D01*
X188729906Y-115462134D01*
X188626711Y-115336390D01*
X188550030Y-115192932D01*
X188502808Y-115037264D01*
X188486865Y-114875380D01*
X188502808Y-114713496D01*
X188550030Y-114557828D01*
X188626711Y-114414370D01*
X188729906Y-114288626D01*
X188855650Y-114185431D01*
X188999108Y-114108750D01*
X189154776Y-114061528D01*
X189276093Y-114049580D01*
X191227227Y-114049580D01*
X191348544Y-114061528D01*
G37*
G36*
X187388544Y-114061528D02*
G01*
X187544212Y-114108750D01*
X187687670Y-114185431D01*
X187813414Y-114288626D01*
X187916609Y-114414370D01*
X187993290Y-114557828D01*
X188040512Y-114713496D01*
X188056455Y-114875380D01*
X188040512Y-115037264D01*
X187993290Y-115192932D01*
X187916609Y-115336390D01*
X187813414Y-115462134D01*
X187687670Y-115565329D01*
X187544212Y-115642010D01*
X187388544Y-115689232D01*
X187267227Y-115701180D01*
X185316093Y-115701180D01*
X185194776Y-115689232D01*
X185039108Y-115642010D01*
X184895650Y-115565329D01*
X184769906Y-115462134D01*
X184666711Y-115336390D01*
X184590030Y-115192932D01*
X184542808Y-115037264D01*
X184526865Y-114875380D01*
X184542808Y-114713496D01*
X184590030Y-114557828D01*
X184666711Y-114414370D01*
X184769906Y-114288626D01*
X184895650Y-114185431D01*
X185039108Y-114108750D01*
X185194776Y-114061528D01*
X185316093Y-114049580D01*
X187267227Y-114049580D01*
X187388544Y-114061528D01*
G37*
G36*
X183428544Y-114061528D02*
G01*
X183584212Y-114108750D01*
X183727670Y-114185431D01*
X183853414Y-114288626D01*
X183956609Y-114414370D01*
X184033290Y-114557828D01*
X184080512Y-114713496D01*
X184096455Y-114875380D01*
X184080512Y-115037264D01*
X184033290Y-115192932D01*
X183956609Y-115336390D01*
X183853414Y-115462134D01*
X183727670Y-115565329D01*
X183584212Y-115642010D01*
X183428544Y-115689232D01*
X183307227Y-115701180D01*
X181356093Y-115701180D01*
X181234776Y-115689232D01*
X181079108Y-115642010D01*
X180935650Y-115565329D01*
X180809906Y-115462134D01*
X180706711Y-115336390D01*
X180630030Y-115192932D01*
X180582808Y-115037264D01*
X180566865Y-114875380D01*
X180582808Y-114713496D01*
X180630030Y-114557828D01*
X180706711Y-114414370D01*
X180809906Y-114288626D01*
X180935650Y-114185431D01*
X181079108Y-114108750D01*
X181234776Y-114061528D01*
X181356093Y-114049580D01*
X183307227Y-114049580D01*
X183428544Y-114061528D01*
G37*
G36*
X179468544Y-114061528D02*
G01*
X179624212Y-114108750D01*
X179767670Y-114185431D01*
X179893414Y-114288626D01*
X179996609Y-114414370D01*
X180073290Y-114557828D01*
X180120512Y-114713496D01*
X180136455Y-114875380D01*
X180120512Y-115037264D01*
X180073290Y-115192932D01*
X179996609Y-115336390D01*
X179893414Y-115462134D01*
X179767670Y-115565329D01*
X179624212Y-115642010D01*
X179468544Y-115689232D01*
X179347227Y-115701180D01*
X177396093Y-115701180D01*
X177274776Y-115689232D01*
X177119108Y-115642010D01*
X176975650Y-115565329D01*
X176849906Y-115462134D01*
X176746711Y-115336390D01*
X176670030Y-115192932D01*
X176622808Y-115037264D01*
X176606865Y-114875380D01*
X176622808Y-114713496D01*
X176670030Y-114557828D01*
X176746711Y-114414370D01*
X176849906Y-114288626D01*
X176975650Y-114185431D01*
X177119108Y-114108750D01*
X177274776Y-114061528D01*
X177396093Y-114049580D01*
X179347227Y-114049580D01*
X179468544Y-114061528D01*
G37*
G36*
X175508544Y-114061528D02*
G01*
X175664212Y-114108750D01*
X175807670Y-114185431D01*
X175933414Y-114288626D01*
X176036609Y-114414370D01*
X176113290Y-114557828D01*
X176160512Y-114713496D01*
X176176455Y-114875380D01*
X176160512Y-115037264D01*
X176113290Y-115192932D01*
X176036609Y-115336390D01*
X175933414Y-115462134D01*
X175807670Y-115565329D01*
X175664212Y-115642010D01*
X175508544Y-115689232D01*
X175387227Y-115701180D01*
X173436093Y-115701180D01*
X173314776Y-115689232D01*
X173159108Y-115642010D01*
X173015650Y-115565329D01*
X172889906Y-115462134D01*
X172786711Y-115336390D01*
X172710030Y-115192932D01*
X172662808Y-115037264D01*
X172646865Y-114875380D01*
X172662808Y-114713496D01*
X172710030Y-114557828D01*
X172786711Y-114414370D01*
X172889906Y-114288626D01*
X173015650Y-114185431D01*
X173159108Y-114108750D01*
X173314776Y-114061528D01*
X173436093Y-114049580D01*
X175387227Y-114049580D01*
X175508544Y-114061528D01*
G37*
G36*
X238868544Y-114061528D02*
G01*
X239024212Y-114108750D01*
X239167670Y-114185431D01*
X239293414Y-114288626D01*
X239396609Y-114414370D01*
X239473290Y-114557828D01*
X239520512Y-114713496D01*
X239536455Y-114875380D01*
X239520512Y-115037264D01*
X239473290Y-115192932D01*
X239396609Y-115336390D01*
X239293414Y-115462134D01*
X239167670Y-115565329D01*
X239024212Y-115642010D01*
X238868544Y-115689232D01*
X238747227Y-115701180D01*
X236796093Y-115701180D01*
X236674776Y-115689232D01*
X236519108Y-115642010D01*
X236375650Y-115565329D01*
X236249906Y-115462134D01*
X236146711Y-115336390D01*
X236070030Y-115192932D01*
X236022808Y-115037264D01*
X236006865Y-114875380D01*
X236022808Y-114713496D01*
X236070030Y-114557828D01*
X236146711Y-114414370D01*
X236249906Y-114288626D01*
X236375650Y-114185431D01*
X236519108Y-114108750D01*
X236674776Y-114061528D01*
X236796093Y-114049580D01*
X238747227Y-114049580D01*
X238868544Y-114061528D01*
G37*
G36*
X242828544Y-114061528D02*
G01*
X242984212Y-114108750D01*
X243127670Y-114185431D01*
X243253414Y-114288626D01*
X243356609Y-114414370D01*
X243433290Y-114557828D01*
X243480512Y-114713496D01*
X243496455Y-114875380D01*
X243480512Y-115037264D01*
X243433290Y-115192932D01*
X243356609Y-115336390D01*
X243253414Y-115462134D01*
X243127670Y-115565329D01*
X242984212Y-115642010D01*
X242828544Y-115689232D01*
X242707227Y-115701180D01*
X240756093Y-115701180D01*
X240634776Y-115689232D01*
X240479108Y-115642010D01*
X240335650Y-115565329D01*
X240209906Y-115462134D01*
X240106711Y-115336390D01*
X240030030Y-115192932D01*
X239982808Y-115037264D01*
X239966865Y-114875380D01*
X239982808Y-114713496D01*
X240030030Y-114557828D01*
X240106711Y-114414370D01*
X240209906Y-114288626D01*
X240335650Y-114185431D01*
X240479108Y-114108750D01*
X240634776Y-114061528D01*
X240756093Y-114049580D01*
X242707227Y-114049580D01*
X242828544Y-114061528D01*
G37*
G36*
X246788544Y-114061528D02*
G01*
X246944212Y-114108750D01*
X247087670Y-114185431D01*
X247213414Y-114288626D01*
X247316609Y-114414370D01*
X247393290Y-114557828D01*
X247440512Y-114713496D01*
X247456455Y-114875380D01*
X247440512Y-115037264D01*
X247393290Y-115192932D01*
X247316609Y-115336390D01*
X247213414Y-115462134D01*
X247087670Y-115565329D01*
X246944212Y-115642010D01*
X246788544Y-115689232D01*
X246667227Y-115701180D01*
X244716093Y-115701180D01*
X244594776Y-115689232D01*
X244439108Y-115642010D01*
X244295650Y-115565329D01*
X244169906Y-115462134D01*
X244066711Y-115336390D01*
X243990030Y-115192932D01*
X243942808Y-115037264D01*
X243926865Y-114875380D01*
X243942808Y-114713496D01*
X243990030Y-114557828D01*
X244066711Y-114414370D01*
X244169906Y-114288626D01*
X244295650Y-114185431D01*
X244439108Y-114108750D01*
X244594776Y-114061528D01*
X244716093Y-114049580D01*
X246667227Y-114049580D01*
X246788544Y-114061528D01*
G37*
G36*
X250748544Y-114061528D02*
G01*
X250904212Y-114108750D01*
X251047670Y-114185431D01*
X251173414Y-114288626D01*
X251276609Y-114414370D01*
X251353290Y-114557828D01*
X251400512Y-114713496D01*
X251416455Y-114875380D01*
X251400512Y-115037264D01*
X251353290Y-115192932D01*
X251276609Y-115336390D01*
X251173414Y-115462134D01*
X251047670Y-115565329D01*
X250904212Y-115642010D01*
X250748544Y-115689232D01*
X250627227Y-115701180D01*
X248676093Y-115701180D01*
X248554776Y-115689232D01*
X248399108Y-115642010D01*
X248255650Y-115565329D01*
X248129906Y-115462134D01*
X248026711Y-115336390D01*
X247950030Y-115192932D01*
X247902808Y-115037264D01*
X247886865Y-114875380D01*
X247902808Y-114713496D01*
X247950030Y-114557828D01*
X248026711Y-114414370D01*
X248129906Y-114288626D01*
X248255650Y-114185431D01*
X248399108Y-114108750D01*
X248554776Y-114061528D01*
X248676093Y-114049580D01*
X250627227Y-114049580D01*
X250748544Y-114061528D01*
G37*
G36*
X254708544Y-114061528D02*
G01*
X254864212Y-114108750D01*
X255007670Y-114185431D01*
X255133414Y-114288626D01*
X255236609Y-114414370D01*
X255313290Y-114557828D01*
X255360512Y-114713496D01*
X255376455Y-114875380D01*
X255360512Y-115037264D01*
X255313290Y-115192932D01*
X255236609Y-115336390D01*
X255133414Y-115462134D01*
X255007670Y-115565329D01*
X254864212Y-115642010D01*
X254708544Y-115689232D01*
X254587227Y-115701180D01*
X252636093Y-115701180D01*
X252514776Y-115689232D01*
X252359108Y-115642010D01*
X252215650Y-115565329D01*
X252089906Y-115462134D01*
X251986711Y-115336390D01*
X251910030Y-115192932D01*
X251862808Y-115037264D01*
X251846865Y-114875380D01*
X251862808Y-114713496D01*
X251910030Y-114557828D01*
X251986711Y-114414370D01*
X252089906Y-114288626D01*
X252215650Y-114185431D01*
X252359108Y-114108750D01*
X252514776Y-114061528D01*
X252636093Y-114049580D01*
X254587227Y-114049580D01*
X254708544Y-114061528D01*
G37*
G36*
X215108544Y-114061528D02*
G01*
X215264212Y-114108750D01*
X215407670Y-114185431D01*
X215533414Y-114288626D01*
X215636609Y-114414370D01*
X215713290Y-114557828D01*
X215760512Y-114713496D01*
X215776455Y-114875380D01*
X215760512Y-115037264D01*
X215713290Y-115192932D01*
X215636609Y-115336390D01*
X215533414Y-115462134D01*
X215407670Y-115565329D01*
X215264212Y-115642010D01*
X215108544Y-115689232D01*
X214987227Y-115701180D01*
X213036093Y-115701180D01*
X212914776Y-115689232D01*
X212759108Y-115642010D01*
X212615650Y-115565329D01*
X212489906Y-115462134D01*
X212386711Y-115336390D01*
X212310030Y-115192932D01*
X212262808Y-115037264D01*
X212246865Y-114875380D01*
X212262808Y-114713496D01*
X212310030Y-114557828D01*
X212386711Y-114414370D01*
X212489906Y-114288626D01*
X212615650Y-114185431D01*
X212759108Y-114108750D01*
X212914776Y-114061528D01*
X213036093Y-114049580D01*
X214987227Y-114049580D01*
X215108544Y-114061528D01*
G37*
G36*
X171548544Y-114061528D02*
G01*
X171704212Y-114108750D01*
X171847670Y-114185431D01*
X171973414Y-114288626D01*
X172076609Y-114414370D01*
X172153290Y-114557828D01*
X172200512Y-114713496D01*
X172216455Y-114875380D01*
X172200512Y-115037264D01*
X172153290Y-115192932D01*
X172076609Y-115336390D01*
X171973414Y-115462134D01*
X171847670Y-115565329D01*
X171704212Y-115642010D01*
X171548544Y-115689232D01*
X171427227Y-115701180D01*
X169476093Y-115701180D01*
X169354776Y-115689232D01*
X169199108Y-115642010D01*
X169055650Y-115565329D01*
X168929906Y-115462134D01*
X168826711Y-115336390D01*
X168750030Y-115192932D01*
X168702808Y-115037264D01*
X168686865Y-114875380D01*
X168702808Y-114713496D01*
X168750030Y-114557828D01*
X168826711Y-114414370D01*
X168929906Y-114288626D01*
X169055650Y-114185431D01*
X169199108Y-114108750D01*
X169354776Y-114061528D01*
X169476093Y-114049580D01*
X171427227Y-114049580D01*
X171548544Y-114061528D01*
G37*
G36*
X163628544Y-114061528D02*
G01*
X163784212Y-114108750D01*
X163927670Y-114185431D01*
X164053414Y-114288626D01*
X164156609Y-114414370D01*
X164233290Y-114557828D01*
X164280512Y-114713496D01*
X164296455Y-114875380D01*
X164280512Y-115037264D01*
X164233290Y-115192932D01*
X164156609Y-115336390D01*
X164053414Y-115462134D01*
X163927670Y-115565329D01*
X163784212Y-115642010D01*
X163628544Y-115689232D01*
X163507227Y-115701180D01*
X161556093Y-115701180D01*
X161434776Y-115689232D01*
X161279108Y-115642010D01*
X161135650Y-115565329D01*
X161009906Y-115462134D01*
X160906711Y-115336390D01*
X160830030Y-115192932D01*
X160782808Y-115037264D01*
X160766865Y-114875380D01*
X160782808Y-114713496D01*
X160830030Y-114557828D01*
X160906711Y-114414370D01*
X161009906Y-114288626D01*
X161135650Y-114185431D01*
X161279108Y-114108750D01*
X161434776Y-114061528D01*
X161556093Y-114049580D01*
X163507227Y-114049580D01*
X163628544Y-114061528D01*
G37*
G36*
X159668544Y-114061528D02*
G01*
X159824212Y-114108750D01*
X159967670Y-114185431D01*
X160093414Y-114288626D01*
X160196609Y-114414370D01*
X160273290Y-114557828D01*
X160320512Y-114713496D01*
X160336455Y-114875380D01*
X160320512Y-115037264D01*
X160273290Y-115192932D01*
X160196609Y-115336390D01*
X160093414Y-115462134D01*
X159967670Y-115565329D01*
X159824212Y-115642010D01*
X159668544Y-115689232D01*
X159547227Y-115701180D01*
X157596093Y-115701180D01*
X157474776Y-115689232D01*
X157319108Y-115642010D01*
X157175650Y-115565329D01*
X157049906Y-115462134D01*
X156946711Y-115336390D01*
X156870030Y-115192932D01*
X156822808Y-115037264D01*
X156806865Y-114875380D01*
X156822808Y-114713496D01*
X156870030Y-114557828D01*
X156946711Y-114414370D01*
X157049906Y-114288626D01*
X157175650Y-114185431D01*
X157319108Y-114108750D01*
X157474776Y-114061528D01*
X157596093Y-114049580D01*
X159547227Y-114049580D01*
X159668544Y-114061528D01*
G37*
G36*
X155708544Y-114061528D02*
G01*
X155864212Y-114108750D01*
X156007670Y-114185431D01*
X156133414Y-114288626D01*
X156236609Y-114414370D01*
X156313290Y-114557828D01*
X156360512Y-114713496D01*
X156376455Y-114875380D01*
X156360512Y-115037264D01*
X156313290Y-115192932D01*
X156236609Y-115336390D01*
X156133414Y-115462134D01*
X156007670Y-115565329D01*
X155864212Y-115642010D01*
X155708544Y-115689232D01*
X155587227Y-115701180D01*
X153636093Y-115701180D01*
X153514776Y-115689232D01*
X153359108Y-115642010D01*
X153215650Y-115565329D01*
X153089906Y-115462134D01*
X152986711Y-115336390D01*
X152910030Y-115192932D01*
X152862808Y-115037264D01*
X152846865Y-114875380D01*
X152862808Y-114713496D01*
X152910030Y-114557828D01*
X152986711Y-114414370D01*
X153089906Y-114288626D01*
X153215650Y-114185431D01*
X153359108Y-114108750D01*
X153514776Y-114061528D01*
X153636093Y-114049580D01*
X155587227Y-114049580D01*
X155708544Y-114061528D01*
G37*
G36*
X151748544Y-114061528D02*
G01*
X151904212Y-114108750D01*
X152047670Y-114185431D01*
X152173414Y-114288626D01*
X152276609Y-114414370D01*
X152353290Y-114557828D01*
X152400512Y-114713496D01*
X152416455Y-114875380D01*
X152400512Y-115037264D01*
X152353290Y-115192932D01*
X152276609Y-115336390D01*
X152173414Y-115462134D01*
X152047670Y-115565329D01*
X151904212Y-115642010D01*
X151748544Y-115689232D01*
X151627227Y-115701180D01*
X149676093Y-115701180D01*
X149554776Y-115689232D01*
X149399108Y-115642010D01*
X149255650Y-115565329D01*
X149129906Y-115462134D01*
X149026711Y-115336390D01*
X148950030Y-115192932D01*
X148902808Y-115037264D01*
X148886865Y-114875380D01*
X148902808Y-114713496D01*
X148950030Y-114557828D01*
X149026711Y-114414370D01*
X149129906Y-114288626D01*
X149255650Y-114185431D01*
X149399108Y-114108750D01*
X149554776Y-114061528D01*
X149676093Y-114049580D01*
X151627227Y-114049580D01*
X151748544Y-114061528D01*
G37*
G36*
X147788544Y-114061528D02*
G01*
X147944212Y-114108750D01*
X148087670Y-114185431D01*
X148213414Y-114288626D01*
X148316609Y-114414370D01*
X148393290Y-114557828D01*
X148440512Y-114713496D01*
X148456455Y-114875380D01*
X148440512Y-115037264D01*
X148393290Y-115192932D01*
X148316609Y-115336390D01*
X148213414Y-115462134D01*
X148087670Y-115565329D01*
X147944212Y-115642010D01*
X147788544Y-115689232D01*
X147667227Y-115701180D01*
X145716093Y-115701180D01*
X145594776Y-115689232D01*
X145439108Y-115642010D01*
X145295650Y-115565329D01*
X145169906Y-115462134D01*
X145066711Y-115336390D01*
X144990030Y-115192932D01*
X144942808Y-115037264D01*
X144926865Y-114875380D01*
X144942808Y-114713496D01*
X144990030Y-114557828D01*
X145066711Y-114414370D01*
X145169906Y-114288626D01*
X145295650Y-114185431D01*
X145439108Y-114108750D01*
X145594776Y-114061528D01*
X145716093Y-114049580D01*
X147667227Y-114049580D01*
X147788544Y-114061528D01*
G37*
G36*
X143828544Y-114061528D02*
G01*
X143984212Y-114108750D01*
X144127670Y-114185431D01*
X144253414Y-114288626D01*
X144356609Y-114414370D01*
X144433290Y-114557828D01*
X144480512Y-114713496D01*
X144496455Y-114875380D01*
X144480512Y-115037264D01*
X144433290Y-115192932D01*
X144356609Y-115336390D01*
X144253414Y-115462134D01*
X144127670Y-115565329D01*
X143984212Y-115642010D01*
X143828544Y-115689232D01*
X143707227Y-115701180D01*
X141756093Y-115701180D01*
X141634776Y-115689232D01*
X141479108Y-115642010D01*
X141335650Y-115565329D01*
X141209906Y-115462134D01*
X141106711Y-115336390D01*
X141030030Y-115192932D01*
X140982808Y-115037264D01*
X140966865Y-114875380D01*
X140982808Y-114713496D01*
X141030030Y-114557828D01*
X141106711Y-114414370D01*
X141209906Y-114288626D01*
X141335650Y-114185431D01*
X141479108Y-114108750D01*
X141634776Y-114061528D01*
X141756093Y-114049580D01*
X143707227Y-114049580D01*
X143828544Y-114061528D01*
G37*
G36*
X258668544Y-114061528D02*
G01*
X258824212Y-114108750D01*
X258967670Y-114185431D01*
X259093414Y-114288626D01*
X259196609Y-114414370D01*
X259273290Y-114557828D01*
X259320512Y-114713496D01*
X259336455Y-114875380D01*
X259320512Y-115037264D01*
X259273290Y-115192932D01*
X259196609Y-115336390D01*
X259093414Y-115462134D01*
X258967670Y-115565329D01*
X258824212Y-115642010D01*
X258668544Y-115689232D01*
X258547227Y-115701180D01*
X256596093Y-115701180D01*
X256474776Y-115689232D01*
X256319108Y-115642010D01*
X256175650Y-115565329D01*
X256049906Y-115462134D01*
X255946711Y-115336390D01*
X255870030Y-115192932D01*
X255822808Y-115037264D01*
X255806865Y-114875380D01*
X255822808Y-114713496D01*
X255870030Y-114557828D01*
X255946711Y-114414370D01*
X256049906Y-114288626D01*
X256175650Y-114185431D01*
X256319108Y-114108750D01*
X256474776Y-114061528D01*
X256596093Y-114049580D01*
X258547227Y-114049580D01*
X258668544Y-114061528D01*
G37*
G36*
X234908544Y-114061528D02*
G01*
X235064212Y-114108750D01*
X235207670Y-114185431D01*
X235333414Y-114288626D01*
X235436609Y-114414370D01*
X235513290Y-114557828D01*
X235560512Y-114713496D01*
X235576455Y-114875380D01*
X235560512Y-115037264D01*
X235513290Y-115192932D01*
X235436609Y-115336390D01*
X235333414Y-115462134D01*
X235207670Y-115565329D01*
X235064212Y-115642010D01*
X234908544Y-115689232D01*
X234787227Y-115701180D01*
X232836093Y-115701180D01*
X232714776Y-115689232D01*
X232559108Y-115642010D01*
X232415650Y-115565329D01*
X232289906Y-115462134D01*
X232186711Y-115336390D01*
X232110030Y-115192932D01*
X232062808Y-115037264D01*
X232046865Y-114875380D01*
X232062808Y-114713496D01*
X232110030Y-114557828D01*
X232186711Y-114414370D01*
X232289906Y-114288626D01*
X232415650Y-114185431D01*
X232559108Y-114108750D01*
X232714776Y-114061528D01*
X232836093Y-114049580D01*
X234787227Y-114049580D01*
X234908544Y-114061528D01*
G37*
G36*
X143249680Y-112443700D02*
G01*
X141448080Y-112443700D01*
X141448080Y-110642100D01*
X143249680Y-110642100D01*
X143249680Y-112443700D01*
G37*
G36*
X145151634Y-110676717D02*
G01*
X145315569Y-110744621D01*
X145463107Y-110843203D01*
X145588577Y-110968673D01*
X145687159Y-111116211D01*
X145755063Y-111280146D01*
X145789680Y-111454179D01*
X145789680Y-111631621D01*
X145755063Y-111805654D01*
X145687159Y-111969589D01*
X145588577Y-112117127D01*
X145463107Y-112242597D01*
X145315569Y-112341179D01*
X145151634Y-112409083D01*
X144977601Y-112443700D01*
X144800159Y-112443700D01*
X144626126Y-112409083D01*
X144462191Y-112341179D01*
X144314653Y-112242597D01*
X144189183Y-112117127D01*
X144090601Y-111969589D01*
X144022697Y-111805654D01*
X143988080Y-111631621D01*
X143988080Y-111454179D01*
X144022697Y-111280146D01*
X144090601Y-111116211D01*
X144189183Y-110968673D01*
X144314653Y-110843203D01*
X144462191Y-110744621D01*
X144626126Y-110676717D01*
X144800159Y-110642100D01*
X144977601Y-110642100D01*
X145151634Y-110676717D01*
G37*
G36*
X147691634Y-110676717D02*
G01*
X147855569Y-110744621D01*
X148003107Y-110843203D01*
X148128577Y-110968673D01*
X148227159Y-111116211D01*
X148295063Y-111280146D01*
X148329680Y-111454179D01*
X148329680Y-111631621D01*
X148295063Y-111805654D01*
X148227159Y-111969589D01*
X148128577Y-112117127D01*
X148003107Y-112242597D01*
X147855569Y-112341179D01*
X147691634Y-112409083D01*
X147517601Y-112443700D01*
X147340159Y-112443700D01*
X147166126Y-112409083D01*
X147002191Y-112341179D01*
X146854653Y-112242597D01*
X146729183Y-112117127D01*
X146630601Y-111969589D01*
X146562697Y-111805654D01*
X146528080Y-111631621D01*
X146528080Y-111454179D01*
X146562697Y-111280146D01*
X146630601Y-111116211D01*
X146729183Y-110968673D01*
X146854653Y-110843203D01*
X147002191Y-110744621D01*
X147166126Y-110676717D01*
X147340159Y-110642100D01*
X147517601Y-110642100D01*
X147691634Y-110676717D01*
G37*
G36*
X142611634Y-108136717D02*
G01*
X142775569Y-108204621D01*
X142923107Y-108303203D01*
X143048577Y-108428673D01*
X143147159Y-108576211D01*
X143215063Y-108740146D01*
X143249680Y-108914179D01*
X143249680Y-109091621D01*
X143215063Y-109265654D01*
X143147159Y-109429589D01*
X143048577Y-109577127D01*
X142923107Y-109702597D01*
X142775569Y-109801179D01*
X142611634Y-109869083D01*
X142437601Y-109903700D01*
X142260159Y-109903700D01*
X142086126Y-109869083D01*
X141922191Y-109801179D01*
X141774653Y-109702597D01*
X141649183Y-109577127D01*
X141550601Y-109429589D01*
X141482697Y-109265654D01*
X141448080Y-109091621D01*
X141448080Y-108914179D01*
X141482697Y-108740146D01*
X141550601Y-108576211D01*
X141649183Y-108428673D01*
X141774653Y-108303203D01*
X141922191Y-108204621D01*
X142086126Y-108136717D01*
X142260159Y-108102100D01*
X142437601Y-108102100D01*
X142611634Y-108136717D01*
G37*
G36*
X145151634Y-108136717D02*
G01*
X145315569Y-108204621D01*
X145463107Y-108303203D01*
X145588577Y-108428673D01*
X145687159Y-108576211D01*
X145755063Y-108740146D01*
X145789680Y-108914179D01*
X145789680Y-109091621D01*
X145755063Y-109265654D01*
X145687159Y-109429589D01*
X145588577Y-109577127D01*
X145463107Y-109702597D01*
X145315569Y-109801179D01*
X145151634Y-109869083D01*
X144977601Y-109903700D01*
X144800159Y-109903700D01*
X144626126Y-109869083D01*
X144462191Y-109801179D01*
X144314653Y-109702597D01*
X144189183Y-109577127D01*
X144090601Y-109429589D01*
X144022697Y-109265654D01*
X143988080Y-109091621D01*
X143988080Y-108914179D01*
X144022697Y-108740146D01*
X144090601Y-108576211D01*
X144189183Y-108428673D01*
X144314653Y-108303203D01*
X144462191Y-108204621D01*
X144626126Y-108136717D01*
X144800159Y-108102100D01*
X144977601Y-108102100D01*
X145151634Y-108136717D01*
G37*
G36*
X147691634Y-108136717D02*
G01*
X147855569Y-108204621D01*
X148003107Y-108303203D01*
X148128577Y-108428673D01*
X148227159Y-108576211D01*
X148295063Y-108740146D01*
X148329680Y-108914179D01*
X148329680Y-109091621D01*
X148295063Y-109265654D01*
X148227159Y-109429589D01*
X148128577Y-109577127D01*
X148003107Y-109702597D01*
X147855569Y-109801179D01*
X147691634Y-109869083D01*
X147517601Y-109903700D01*
X147340159Y-109903700D01*
X147166126Y-109869083D01*
X147002191Y-109801179D01*
X146854653Y-109702597D01*
X146729183Y-109577127D01*
X146630601Y-109429589D01*
X146562697Y-109265654D01*
X146528080Y-109091621D01*
X146528080Y-108914179D01*
X146562697Y-108740146D01*
X146630601Y-108576211D01*
X146729183Y-108428673D01*
X146854653Y-108303203D01*
X147002191Y-108204621D01*
X147166126Y-108136717D01*
X147340159Y-108102100D01*
X147517601Y-108102100D01*
X147691634Y-108136717D01*
G37*
G36*
X120405069Y-108008515D02*
G01*
X120559905Y-108072651D01*
X120699254Y-108165760D01*
X120817760Y-108284266D01*
X120910869Y-108423615D01*
X120975005Y-108578451D01*
X121007700Y-108742823D01*
X121007700Y-108910417D01*
X120975005Y-109074789D01*
X120910869Y-109229625D01*
X120817760Y-109368974D01*
X120699254Y-109487480D01*
X120559905Y-109580589D01*
X120405069Y-109644725D01*
X120240697Y-109677420D01*
X120073103Y-109677420D01*
X119908731Y-109644725D01*
X119753895Y-109580589D01*
X119614546Y-109487480D01*
X119496040Y-109368974D01*
X119402931Y-109229625D01*
X119338795Y-109074789D01*
X119306100Y-108910417D01*
X119306100Y-108742823D01*
X119338795Y-108578451D01*
X119402931Y-108423615D01*
X119496040Y-108284266D01*
X119614546Y-108165760D01*
X119753895Y-108072651D01*
X119908731Y-108008515D01*
X120073103Y-107975820D01*
X120240697Y-107975820D01*
X120405069Y-108008515D01*
G37*
G36*
X115325069Y-108008515D02*
G01*
X115479905Y-108072651D01*
X115619254Y-108165760D01*
X115737760Y-108284266D01*
X115830869Y-108423615D01*
X115895005Y-108578451D01*
X115927700Y-108742823D01*
X115927700Y-108910417D01*
X115895005Y-109074789D01*
X115830869Y-109229625D01*
X115737760Y-109368974D01*
X115619254Y-109487480D01*
X115479905Y-109580589D01*
X115325069Y-109644725D01*
X115160697Y-109677420D01*
X114993103Y-109677420D01*
X114828731Y-109644725D01*
X114673895Y-109580589D01*
X114534546Y-109487480D01*
X114416040Y-109368974D01*
X114322931Y-109229625D01*
X114258795Y-109074789D01*
X114226100Y-108910417D01*
X114226100Y-108742823D01*
X114258795Y-108578451D01*
X114322931Y-108423615D01*
X114416040Y-108284266D01*
X114534546Y-108165760D01*
X114673895Y-108072651D01*
X114828731Y-108008515D01*
X114993103Y-107975820D01*
X115160697Y-107975820D01*
X115325069Y-108008515D01*
G37*
G36*
X138185069Y-108008515D02*
G01*
X138339905Y-108072651D01*
X138479254Y-108165760D01*
X138597760Y-108284266D01*
X138690869Y-108423615D01*
X138755005Y-108578451D01*
X138787700Y-108742823D01*
X138787700Y-108910417D01*
X138755005Y-109074789D01*
X138690869Y-109229625D01*
X138597760Y-109368974D01*
X138479254Y-109487480D01*
X138339905Y-109580589D01*
X138185069Y-109644725D01*
X138020697Y-109677420D01*
X137853103Y-109677420D01*
X137688731Y-109644725D01*
X137533895Y-109580589D01*
X137394546Y-109487480D01*
X137276040Y-109368974D01*
X137182931Y-109229625D01*
X137118795Y-109074789D01*
X137086100Y-108910417D01*
X137086100Y-108742823D01*
X137118795Y-108578451D01*
X137182931Y-108423615D01*
X137276040Y-108284266D01*
X137394546Y-108165760D01*
X137533895Y-108072651D01*
X137688731Y-108008515D01*
X137853103Y-107975820D01*
X138020697Y-107975820D01*
X138185069Y-108008515D01*
G37*
G36*
X133105069Y-108008515D02*
G01*
X133259905Y-108072651D01*
X133399254Y-108165760D01*
X133517760Y-108284266D01*
X133610869Y-108423615D01*
X133675005Y-108578451D01*
X133707700Y-108742823D01*
X133707700Y-108910417D01*
X133675005Y-109074789D01*
X133610869Y-109229625D01*
X133517760Y-109368974D01*
X133399254Y-109487480D01*
X133259905Y-109580589D01*
X133105069Y-109644725D01*
X132940697Y-109677420D01*
X132773103Y-109677420D01*
X132608731Y-109644725D01*
X132453895Y-109580589D01*
X132314546Y-109487480D01*
X132196040Y-109368974D01*
X132102931Y-109229625D01*
X132038795Y-109074789D01*
X132006100Y-108910417D01*
X132006100Y-108742823D01*
X132038795Y-108578451D01*
X132102931Y-108423615D01*
X132196040Y-108284266D01*
X132314546Y-108165760D01*
X132453895Y-108072651D01*
X132608731Y-108008515D01*
X132773103Y-107975820D01*
X132940697Y-107975820D01*
X133105069Y-108008515D01*
G37*
G36*
X130565069Y-108008515D02*
G01*
X130719905Y-108072651D01*
X130859254Y-108165760D01*
X130977760Y-108284266D01*
X131070869Y-108423615D01*
X131135005Y-108578451D01*
X131167700Y-108742823D01*
X131167700Y-108910417D01*
X131135005Y-109074789D01*
X131070869Y-109229625D01*
X130977760Y-109368974D01*
X130859254Y-109487480D01*
X130719905Y-109580589D01*
X130565069Y-109644725D01*
X130400697Y-109677420D01*
X130233103Y-109677420D01*
X130068731Y-109644725D01*
X129913895Y-109580589D01*
X129774546Y-109487480D01*
X129656040Y-109368974D01*
X129562931Y-109229625D01*
X129498795Y-109074789D01*
X129466100Y-108910417D01*
X129466100Y-108742823D01*
X129498795Y-108578451D01*
X129562931Y-108423615D01*
X129656040Y-108284266D01*
X129774546Y-108165760D01*
X129913895Y-108072651D01*
X130068731Y-108008515D01*
X130233103Y-107975820D01*
X130400697Y-107975820D01*
X130565069Y-108008515D01*
G37*
G36*
X128025069Y-108008515D02*
G01*
X128179905Y-108072651D01*
X128319254Y-108165760D01*
X128437760Y-108284266D01*
X128530869Y-108423615D01*
X128595005Y-108578451D01*
X128627700Y-108742823D01*
X128627700Y-108910417D01*
X128595005Y-109074789D01*
X128530869Y-109229625D01*
X128437760Y-109368974D01*
X128319254Y-109487480D01*
X128179905Y-109580589D01*
X128025069Y-109644725D01*
X127860697Y-109677420D01*
X127693103Y-109677420D01*
X127528731Y-109644725D01*
X127373895Y-109580589D01*
X127234546Y-109487480D01*
X127116040Y-109368974D01*
X127022931Y-109229625D01*
X126958795Y-109074789D01*
X126926100Y-108910417D01*
X126926100Y-108742823D01*
X126958795Y-108578451D01*
X127022931Y-108423615D01*
X127116040Y-108284266D01*
X127234546Y-108165760D01*
X127373895Y-108072651D01*
X127528731Y-108008515D01*
X127693103Y-107975820D01*
X127860697Y-107975820D01*
X128025069Y-108008515D01*
G37*
G36*
X125485069Y-108008515D02*
G01*
X125639905Y-108072651D01*
X125779254Y-108165760D01*
X125897760Y-108284266D01*
X125990869Y-108423615D01*
X126055005Y-108578451D01*
X126087700Y-108742823D01*
X126087700Y-108910417D01*
X126055005Y-109074789D01*
X125990869Y-109229625D01*
X125897760Y-109368974D01*
X125779254Y-109487480D01*
X125639905Y-109580589D01*
X125485069Y-109644725D01*
X125320697Y-109677420D01*
X125153103Y-109677420D01*
X124988731Y-109644725D01*
X124833895Y-109580589D01*
X124694546Y-109487480D01*
X124576040Y-109368974D01*
X124482931Y-109229625D01*
X124418795Y-109074789D01*
X124386100Y-108910417D01*
X124386100Y-108742823D01*
X124418795Y-108578451D01*
X124482931Y-108423615D01*
X124576040Y-108284266D01*
X124694546Y-108165760D01*
X124833895Y-108072651D01*
X124988731Y-108008515D01*
X125153103Y-107975820D01*
X125320697Y-107975820D01*
X125485069Y-108008515D01*
G37*
G36*
X122945069Y-108008515D02*
G01*
X123099905Y-108072651D01*
X123239254Y-108165760D01*
X123357760Y-108284266D01*
X123450869Y-108423615D01*
X123515005Y-108578451D01*
X123547700Y-108742823D01*
X123547700Y-108910417D01*
X123515005Y-109074789D01*
X123450869Y-109229625D01*
X123357760Y-109368974D01*
X123239254Y-109487480D01*
X123099905Y-109580589D01*
X122945069Y-109644725D01*
X122780697Y-109677420D01*
X122613103Y-109677420D01*
X122448731Y-109644725D01*
X122293895Y-109580589D01*
X122154546Y-109487480D01*
X122036040Y-109368974D01*
X121942931Y-109229625D01*
X121878795Y-109074789D01*
X121846100Y-108910417D01*
X121846100Y-108742823D01*
X121878795Y-108578451D01*
X121942931Y-108423615D01*
X122036040Y-108284266D01*
X122154546Y-108165760D01*
X122293895Y-108072651D01*
X122448731Y-108008515D01*
X122613103Y-107975820D01*
X122780697Y-107975820D01*
X122945069Y-108008515D01*
G37*
G36*
X117865069Y-108008515D02*
G01*
X118019905Y-108072651D01*
X118159254Y-108165760D01*
X118277760Y-108284266D01*
X118370869Y-108423615D01*
X118435005Y-108578451D01*
X118467700Y-108742823D01*
X118467700Y-108910417D01*
X118435005Y-109074789D01*
X118370869Y-109229625D01*
X118277760Y-109368974D01*
X118159254Y-109487480D01*
X118019905Y-109580589D01*
X117865069Y-109644725D01*
X117700697Y-109677420D01*
X117533103Y-109677420D01*
X117368731Y-109644725D01*
X117213895Y-109580589D01*
X117074546Y-109487480D01*
X116956040Y-109368974D01*
X116862931Y-109229625D01*
X116798795Y-109074789D01*
X116766100Y-108910417D01*
X116766100Y-108742823D01*
X116798795Y-108578451D01*
X116862931Y-108423615D01*
X116956040Y-108284266D01*
X117074546Y-108165760D01*
X117213895Y-108072651D01*
X117368731Y-108008515D01*
X117533103Y-107975820D01*
X117700697Y-107975820D01*
X117865069Y-108008515D01*
G37*
G36*
X110245069Y-108008515D02*
G01*
X110399905Y-108072651D01*
X110539254Y-108165760D01*
X110657760Y-108284266D01*
X110750869Y-108423615D01*
X110815005Y-108578451D01*
X110847700Y-108742823D01*
X110847700Y-108910417D01*
X110815005Y-109074789D01*
X110750869Y-109229625D01*
X110657760Y-109368974D01*
X110539254Y-109487480D01*
X110399905Y-109580589D01*
X110245069Y-109644725D01*
X110080697Y-109677420D01*
X109913103Y-109677420D01*
X109748731Y-109644725D01*
X109593895Y-109580589D01*
X109454546Y-109487480D01*
X109336040Y-109368974D01*
X109242931Y-109229625D01*
X109178795Y-109074789D01*
X109146100Y-108910417D01*
X109146100Y-108742823D01*
X109178795Y-108578451D01*
X109242931Y-108423615D01*
X109336040Y-108284266D01*
X109454546Y-108165760D01*
X109593895Y-108072651D01*
X109748731Y-108008515D01*
X109913103Y-107975820D01*
X110080697Y-107975820D01*
X110245069Y-108008515D01*
G37*
G36*
X135645069Y-108008515D02*
G01*
X135799905Y-108072651D01*
X135939254Y-108165760D01*
X136057760Y-108284266D01*
X136150869Y-108423615D01*
X136215005Y-108578451D01*
X136247700Y-108742823D01*
X136247700Y-108910417D01*
X136215005Y-109074789D01*
X136150869Y-109229625D01*
X136057760Y-109368974D01*
X135939254Y-109487480D01*
X135799905Y-109580589D01*
X135645069Y-109644725D01*
X135480697Y-109677420D01*
X135313103Y-109677420D01*
X135148731Y-109644725D01*
X134993895Y-109580589D01*
X134854546Y-109487480D01*
X134736040Y-109368974D01*
X134642931Y-109229625D01*
X134578795Y-109074789D01*
X134546100Y-108910417D01*
X134546100Y-108742823D01*
X134578795Y-108578451D01*
X134642931Y-108423615D01*
X134736040Y-108284266D01*
X134854546Y-108165760D01*
X134993895Y-108072651D01*
X135148731Y-108008515D01*
X135313103Y-107975820D01*
X135480697Y-107975820D01*
X135645069Y-108008515D01*
G37*
G36*
X112785069Y-108008515D02*
G01*
X112939905Y-108072651D01*
X113079254Y-108165760D01*
X113197760Y-108284266D01*
X113290869Y-108423615D01*
X113355005Y-108578451D01*
X113387700Y-108742823D01*
X113387700Y-108910417D01*
X113355005Y-109074789D01*
X113290869Y-109229625D01*
X113197760Y-109368974D01*
X113079254Y-109487480D01*
X112939905Y-109580589D01*
X112785069Y-109644725D01*
X112620697Y-109677420D01*
X112453103Y-109677420D01*
X112288731Y-109644725D01*
X112133895Y-109580589D01*
X111994546Y-109487480D01*
X111876040Y-109368974D01*
X111782931Y-109229625D01*
X111718795Y-109074789D01*
X111686100Y-108910417D01*
X111686100Y-108742823D01*
X111718795Y-108578451D01*
X111782931Y-108423615D01*
X111876040Y-108284266D01*
X111994546Y-108165760D01*
X112133895Y-108072651D01*
X112288731Y-108008515D01*
X112453103Y-107975820D01*
X112620697Y-107975820D01*
X112785069Y-108008515D01*
G37*
G36*
X110361183Y-103603823D02*
G01*
X110492943Y-103658400D01*
X110611523Y-103737633D01*
X110712367Y-103838477D01*
X110791600Y-103957057D01*
X110846177Y-104088817D01*
X110874000Y-104228692D01*
X110874000Y-104371308D01*
X110846177Y-104511183D01*
X110791600Y-104642943D01*
X110712367Y-104761523D01*
X110611523Y-104862367D01*
X110492943Y-104941600D01*
X110361183Y-104996177D01*
X110221308Y-105024000D01*
X110078692Y-105024000D01*
X109938817Y-104996177D01*
X109807057Y-104941600D01*
X109688477Y-104862367D01*
X109587633Y-104761523D01*
X109508400Y-104642943D01*
X109453823Y-104511183D01*
X109426000Y-104371308D01*
X109426000Y-104228692D01*
X109453823Y-104088817D01*
X109508400Y-103957057D01*
X109587633Y-103838477D01*
X109688477Y-103737633D01*
X109807057Y-103658400D01*
X109938817Y-103603823D01*
X110078692Y-103576000D01*
X110221308Y-103576000D01*
X110361183Y-103603823D01*
G37*
G36*
X264711183Y-103603823D02*
G01*
X264842943Y-103658400D01*
X264961523Y-103737633D01*
X265062367Y-103838477D01*
X265141600Y-103957057D01*
X265196177Y-104088817D01*
X265224000Y-104228692D01*
X265224000Y-104371308D01*
X265196177Y-104511183D01*
X265141600Y-104642943D01*
X265062367Y-104761523D01*
X264961523Y-104862367D01*
X264842943Y-104941600D01*
X264711183Y-104996177D01*
X264571308Y-105024000D01*
X264428692Y-105024000D01*
X264288817Y-104996177D01*
X264157057Y-104941600D01*
X264038477Y-104862367D01*
X263937633Y-104761523D01*
X263858400Y-104642943D01*
X263803823Y-104511183D01*
X263776000Y-104371308D01*
X263776000Y-104228692D01*
X263803823Y-104088817D01*
X263858400Y-103957057D01*
X263937633Y-103838477D01*
X264038477Y-103737633D01*
X264157057Y-103658400D01*
X264288817Y-103603823D01*
X264428692Y-103576000D01*
X264571308Y-103576000D01*
X264711183Y-103603823D01*
G37*
M02*
