G04 #@! TF.GenerationSoftware,KiCad,Pcbnew,5.1.6+dfsg1-1~bpo10+1*
G04 #@! TF.CreationDate,2020-08-19T09:24:11+03:00*
G04 #@! TF.ProjectId,CompactBeamspringP1,436f6d70-6163-4744-9265-616d73707269,0.0.3*
G04 #@! TF.SameCoordinates,PX66a9bd0PY78114e0*
G04 #@! TF.FileFunction,Legend,Top*
G04 #@! TF.FilePolarity,Positive*
%FSLAX46Y46*%
G04 Gerber Fmt 4.6, Leading zero omitted, Abs format (unit mm)*
G04 Created by KiCad (PCBNEW 5.1.6+dfsg1-1~bpo10+1) date 2020-08-19 09:24:11*
%MOMM*%
%LPD*%
G01*
G04 APERTURE LIST*
%ADD10C,0.120000*%
%ADD11C,0.150000*%
G04 APERTURE END LIST*
D10*
X33368880Y13027100D02*
X33368880Y14357100D01*
X34698880Y13027100D02*
X33368880Y13027100D01*
X33368880Y15627100D02*
X33368880Y18227100D01*
X35968880Y15627100D02*
X33368880Y15627100D01*
X35968880Y13027100D02*
X35968880Y15627100D01*
X33368880Y18227100D02*
X41108880Y18227100D01*
X35968880Y13027100D02*
X41108880Y13027100D01*
X41108880Y13027100D02*
X41108880Y18227100D01*
D11*
X1076900Y563380D02*
X31556900Y563380D01*
X1076900Y563380D02*
X1076900Y5643380D01*
X1076900Y5643380D02*
X-1463100Y5643380D01*
X-1463100Y5643380D02*
X-1463100Y13263380D01*
X-1463100Y13263380D02*
X1076900Y13263380D01*
X1076900Y13263380D02*
X1076900Y18343380D01*
X1076900Y18343380D02*
X31556900Y18343380D01*
X31556900Y18343380D02*
X31556900Y563380D01*
X32916499Y15960434D02*
X32202213Y15960434D01*
X32059356Y16008053D01*
X31964118Y16103291D01*
X31916499Y16246148D01*
X31916499Y16341386D01*
X32916499Y15579481D02*
X32916499Y14960434D01*
X32535546Y15293767D01*
X32535546Y15150910D01*
X32487927Y15055672D01*
X32440308Y15008053D01*
X32345070Y14960434D01*
X32106975Y14960434D01*
X32011737Y15008053D01*
X31964118Y15055672D01*
X31916499Y15150910D01*
X31916499Y15436624D01*
X31964118Y15531862D01*
X32011737Y15579481D01*
X13727430Y14455900D02*
X13727430Y15455900D01*
X14108382Y15455900D01*
X14203620Y15408280D01*
X14251240Y15360661D01*
X14298859Y15265423D01*
X14298859Y15122566D01*
X14251240Y15027328D01*
X14203620Y14979709D01*
X14108382Y14932090D01*
X13727430Y14932090D01*
X14727430Y14455900D02*
X14727430Y15122566D01*
X14727430Y14932090D02*
X14775049Y15027328D01*
X14822668Y15074947D01*
X14917906Y15122566D01*
X15013144Y15122566D01*
X15489335Y14455900D02*
X15394097Y14503519D01*
X15346478Y14551138D01*
X15298859Y14646376D01*
X15298859Y14932090D01*
X15346478Y15027328D01*
X15394097Y15074947D01*
X15489335Y15122566D01*
X15632192Y15122566D01*
X15727430Y15074947D01*
X15775049Y15027328D01*
X15822668Y14932090D01*
X15822668Y14646376D01*
X15775049Y14551138D01*
X15727430Y14503519D01*
X15632192Y14455900D01*
X15489335Y14455900D01*
X16251240Y14455900D02*
X16251240Y15455900D01*
X16584573Y14741614D01*
X16917906Y15455900D01*
X16917906Y14455900D01*
X17394097Y14455900D02*
X17394097Y15122566D01*
X17394097Y15455900D02*
X17346478Y15408280D01*
X17394097Y15360661D01*
X17441716Y15408280D01*
X17394097Y15455900D01*
X17394097Y15360661D01*
X18298859Y14503519D02*
X18203620Y14455900D01*
X18013144Y14455900D01*
X17917906Y14503519D01*
X17870287Y14551138D01*
X17822668Y14646376D01*
X17822668Y14932090D01*
X17870287Y15027328D01*
X17917906Y15074947D01*
X18013144Y15122566D01*
X18203620Y15122566D01*
X18298859Y15074947D01*
X18727430Y14455900D02*
X18727430Y15122566D01*
X18727430Y14932090D02*
X18775049Y15027328D01*
X18822668Y15074947D01*
X18917906Y15122566D01*
X19013144Y15122566D01*
X19489335Y14455900D02*
X19394097Y14503519D01*
X19346478Y14551138D01*
X19298859Y14646376D01*
X19298859Y14932090D01*
X19346478Y15027328D01*
X19394097Y15074947D01*
X19489335Y15122566D01*
X19632192Y15122566D01*
X19727430Y15074947D01*
X19775049Y15027328D01*
X19822668Y14932090D01*
X19822668Y14646376D01*
X19775049Y14551138D01*
X19727430Y14503519D01*
X19632192Y14455900D01*
X19489335Y14455900D01*
M02*
