G04 #@! TF.GenerationSoftware,KiCad,Pcbnew,5.1.6+dfsg1-1~bpo10+1*
G04 #@! TF.CreationDate,2020-08-19T09:24:11+03:00*
G04 #@! TF.ProjectId,CompactBeamspringP1,436f6d70-6163-4744-9265-616d73707269,0.0.3*
G04 #@! TF.SameCoordinates,PX66a9bd0PY78114e0*
G04 #@! TF.FileFunction,Legend,Bot*
G04 #@! TF.FilePolarity,Positive*
%FSLAX46Y46*%
G04 Gerber Fmt 4.6, Leading zero omitted, Abs format (unit mm)*
G04 Created by KiCad (PCBNEW 5.1.6+dfsg1-1~bpo10+1) date 2020-08-19 09:24:11*
%MOMM*%
%LPD*%
G01*
G04 APERTURE LIST*
%ADD10C,0.150000*%
%ADD11C,0.300000*%
%ADD12C,0.120000*%
G04 APERTURE END LIST*
D10*
X157242857Y17547620D02*
X156909523Y16547620D01*
X156576190Y17547620D01*
X155480952Y16547620D02*
X155480952Y17547620D01*
X155147619Y16833334D01*
X154814285Y17547620D01*
X154814285Y16547620D01*
X154195238Y16547620D02*
X154290476Y16595239D01*
X154338095Y16642858D01*
X154385714Y16738096D01*
X154385714Y17023810D01*
X154338095Y17119048D01*
X154290476Y17166667D01*
X154195238Y17214286D01*
X154052380Y17214286D01*
X153957142Y17166667D01*
X153909523Y17119048D01*
X153861904Y17023810D01*
X153861904Y16738096D01*
X153909523Y16642858D01*
X153957142Y16595239D01*
X154052380Y16547620D01*
X154195238Y16547620D01*
X153433333Y16547620D02*
X153433333Y17214286D01*
X153433333Y17023810D02*
X153385714Y17119048D01*
X153338095Y17166667D01*
X153242857Y17214286D01*
X153147619Y17214286D01*
X152433333Y16595239D02*
X152528571Y16547620D01*
X152719047Y16547620D01*
X152814285Y16595239D01*
X152861904Y16690477D01*
X152861904Y17071429D01*
X152814285Y17166667D01*
X152719047Y17214286D01*
X152528571Y17214286D01*
X152433333Y17166667D01*
X152385714Y17071429D01*
X152385714Y16976191D01*
X152861904Y16880953D01*
X151338095Y17214286D02*
X150957142Y17214286D01*
X151195238Y17547620D02*
X151195238Y16690477D01*
X151147619Y16595239D01*
X151052380Y16547620D01*
X150957142Y16547620D01*
X150480952Y16547620D02*
X150576190Y16595239D01*
X150623809Y16642858D01*
X150671428Y16738096D01*
X150671428Y17023810D01*
X150623809Y17119048D01*
X150576190Y17166667D01*
X150480952Y17214286D01*
X150338095Y17214286D01*
X150242857Y17166667D01*
X150195238Y17119048D01*
X150147619Y17023810D01*
X150147619Y16738096D01*
X150195238Y16642858D01*
X150242857Y16595239D01*
X150338095Y16547620D01*
X150480952Y16547620D01*
X149576190Y16547620D02*
X149671428Y16595239D01*
X149719047Y16642858D01*
X149766666Y16738096D01*
X149766666Y17023810D01*
X149719047Y17119048D01*
X149671428Y17166667D01*
X149576190Y17214286D01*
X149433333Y17214286D01*
X149338095Y17166667D01*
X149290476Y17119048D01*
X149242857Y17023810D01*
X149242857Y16738096D01*
X149290476Y16642858D01*
X149338095Y16595239D01*
X149433333Y16547620D01*
X149576190Y16547620D01*
X148671428Y16547620D02*
X148766666Y16595239D01*
X148814285Y16690477D01*
X148814285Y17547620D01*
X148290476Y16547620D02*
X148290476Y17214286D01*
X148290476Y17547620D02*
X148338095Y17500000D01*
X148290476Y17452381D01*
X148242857Y17500000D01*
X148290476Y17547620D01*
X148290476Y17452381D01*
X147814285Y17214286D02*
X147814285Y16547620D01*
X147814285Y17119048D02*
X147766666Y17166667D01*
X147671428Y17214286D01*
X147528571Y17214286D01*
X147433333Y17166667D01*
X147385714Y17071429D01*
X147385714Y16547620D01*
X146480952Y17214286D02*
X146480952Y16404762D01*
X146528571Y16309524D01*
X146576190Y16261905D01*
X146671428Y16214286D01*
X146814285Y16214286D01*
X146909523Y16261905D01*
X146480952Y16595239D02*
X146576190Y16547620D01*
X146766666Y16547620D01*
X146861904Y16595239D01*
X146909523Y16642858D01*
X146957142Y16738096D01*
X146957142Y17023810D01*
X146909523Y17119048D01*
X146861904Y17166667D01*
X146766666Y17214286D01*
X146576190Y17214286D01*
X146480952Y17166667D01*
X145242857Y16547620D02*
X145242857Y17547620D01*
X144814285Y16547620D02*
X144814285Y17071429D01*
X144861904Y17166667D01*
X144957142Y17214286D01*
X145100000Y17214286D01*
X145195238Y17166667D01*
X145242857Y17119048D01*
X144195238Y16547620D02*
X144290476Y16595239D01*
X144338095Y16642858D01*
X144385714Y16738096D01*
X144385714Y17023810D01*
X144338095Y17119048D01*
X144290476Y17166667D01*
X144195238Y17214286D01*
X144052380Y17214286D01*
X143957142Y17166667D01*
X143909523Y17119048D01*
X143861904Y17023810D01*
X143861904Y16738096D01*
X143909523Y16642858D01*
X143957142Y16595239D01*
X144052380Y16547620D01*
X144195238Y16547620D01*
X143290476Y16547620D02*
X143385714Y16595239D01*
X143433333Y16690477D01*
X143433333Y17547620D01*
X142528571Y16595239D02*
X142623809Y16547620D01*
X142814285Y16547620D01*
X142909523Y16595239D01*
X142957142Y16690477D01*
X142957142Y17071429D01*
X142909523Y17166667D01*
X142814285Y17214286D01*
X142623809Y17214286D01*
X142528571Y17166667D01*
X142480952Y17071429D01*
X142480952Y16976191D01*
X142957142Y16880953D01*
X142100000Y16595239D02*
X142004761Y16547620D01*
X141814285Y16547620D01*
X141719047Y16595239D01*
X141671428Y16690477D01*
X141671428Y16738096D01*
X141719047Y16833334D01*
X141814285Y16880953D01*
X141957142Y16880953D01*
X142052380Y16928572D01*
X142100000Y17023810D01*
X142100000Y17071429D01*
X142052380Y17166667D01*
X141957142Y17214286D01*
X141814285Y17214286D01*
X141719047Y17166667D01*
X140052380Y16547620D02*
X140052380Y17071429D01*
X140100000Y17166667D01*
X140195238Y17214286D01*
X140385714Y17214286D01*
X140480952Y17166667D01*
X140052380Y16595239D02*
X140147619Y16547620D01*
X140385714Y16547620D01*
X140480952Y16595239D01*
X140528571Y16690477D01*
X140528571Y16785715D01*
X140480952Y16880953D01*
X140385714Y16928572D01*
X140147619Y16928572D01*
X140052380Y16976191D01*
X139671428Y17214286D02*
X139433333Y16547620D01*
X139195238Y17214286D01*
X138385714Y16547620D02*
X138385714Y17071429D01*
X138433333Y17166667D01*
X138528571Y17214286D01*
X138719047Y17214286D01*
X138814285Y17166667D01*
X138385714Y16595239D02*
X138480952Y16547620D01*
X138719047Y16547620D01*
X138814285Y16595239D01*
X138861904Y16690477D01*
X138861904Y16785715D01*
X138814285Y16880953D01*
X138719047Y16928572D01*
X138480952Y16928572D01*
X138385714Y16976191D01*
X137909523Y16547620D02*
X137909523Y17214286D01*
X137909523Y17547620D02*
X137957142Y17500000D01*
X137909523Y17452381D01*
X137861904Y17500000D01*
X137909523Y17547620D01*
X137909523Y17452381D01*
X137290476Y16547620D02*
X137385714Y16595239D01*
X137433333Y16690477D01*
X137433333Y17547620D01*
X136480952Y16547620D02*
X136480952Y17071429D01*
X136528571Y17166667D01*
X136623809Y17214286D01*
X136814285Y17214286D01*
X136909523Y17166667D01*
X136480952Y16595239D02*
X136576190Y16547620D01*
X136814285Y16547620D01*
X136909523Y16595239D01*
X136957142Y16690477D01*
X136957142Y16785715D01*
X136909523Y16880953D01*
X136814285Y16928572D01*
X136576190Y16928572D01*
X136480952Y16976191D01*
X136004761Y16547620D02*
X136004761Y17547620D01*
X136004761Y17166667D02*
X135909523Y17214286D01*
X135719047Y17214286D01*
X135623809Y17166667D01*
X135576190Y17119048D01*
X135528571Y17023810D01*
X135528571Y16738096D01*
X135576190Y16642858D01*
X135623809Y16595239D01*
X135719047Y16547620D01*
X135909523Y16547620D01*
X136004761Y16595239D01*
X134957142Y16547620D02*
X135052380Y16595239D01*
X135100000Y16690477D01*
X135100000Y17547620D01*
X134195238Y16595239D02*
X134290476Y16547620D01*
X134480952Y16547620D01*
X134576190Y16595239D01*
X134623809Y16690477D01*
X134623809Y17071429D01*
X134576190Y17166667D01*
X134480952Y17214286D01*
X134290476Y17214286D01*
X134195238Y17166667D01*
X134147619Y17071429D01*
X134147619Y16976191D01*
X134623809Y16880953D01*
X132814285Y16547620D02*
X132909523Y16595239D01*
X132957142Y16642858D01*
X133004761Y16738096D01*
X133004761Y17023810D01*
X132957142Y17119048D01*
X132909523Y17166667D01*
X132814285Y17214286D01*
X132671428Y17214286D01*
X132576190Y17166667D01*
X132528571Y17119048D01*
X132480952Y17023810D01*
X132480952Y16738096D01*
X132528571Y16642858D01*
X132576190Y16595239D01*
X132671428Y16547620D01*
X132814285Y16547620D01*
X132052380Y17214286D02*
X132052380Y16547620D01*
X132052380Y17119048D02*
X132004761Y17166667D01*
X131909523Y17214286D01*
X131766666Y17214286D01*
X131671428Y17166667D01*
X131623809Y17071429D01*
X131623809Y16547620D01*
X130528571Y17214286D02*
X130147619Y17214286D01*
X130385714Y17547620D02*
X130385714Y16690477D01*
X130338095Y16595239D01*
X130242857Y16547620D01*
X130147619Y16547620D01*
X129814285Y16547620D02*
X129814285Y17547620D01*
X129385714Y16547620D02*
X129385714Y17071429D01*
X129433333Y17166667D01*
X129528571Y17214286D01*
X129671428Y17214286D01*
X129766666Y17166667D01*
X129814285Y17119048D01*
X128528571Y16595239D02*
X128623809Y16547620D01*
X128814285Y16547620D01*
X128909523Y16595239D01*
X128957142Y16690477D01*
X128957142Y17071429D01*
X128909523Y17166667D01*
X128814285Y17214286D01*
X128623809Y17214286D01*
X128528571Y17166667D01*
X128480952Y17071429D01*
X128480952Y16976191D01*
X128957142Y16880953D01*
X127147619Y16547620D02*
X127242857Y16595239D01*
X127290476Y16642858D01*
X127338095Y16738096D01*
X127338095Y17023810D01*
X127290476Y17119048D01*
X127242857Y17166667D01*
X127147619Y17214286D01*
X127004761Y17214286D01*
X126909523Y17166667D01*
X126861904Y17119048D01*
X126814285Y17023810D01*
X126814285Y16738096D01*
X126861904Y16642858D01*
X126909523Y16595239D01*
X127004761Y16547620D01*
X127147619Y16547620D01*
X126528571Y17214286D02*
X126147619Y17214286D01*
X126385714Y17547620D02*
X126385714Y16690477D01*
X126338095Y16595239D01*
X126242857Y16547620D01*
X126147619Y16547620D01*
X125814285Y16547620D02*
X125814285Y17547620D01*
X125385714Y16547620D02*
X125385714Y17071429D01*
X125433333Y17166667D01*
X125528571Y17214286D01*
X125671428Y17214286D01*
X125766666Y17166667D01*
X125814285Y17119048D01*
X124528571Y16595239D02*
X124623809Y16547620D01*
X124814285Y16547620D01*
X124909523Y16595239D01*
X124957142Y16690477D01*
X124957142Y17071429D01*
X124909523Y17166667D01*
X124814285Y17214286D01*
X124623809Y17214286D01*
X124528571Y17166667D01*
X124480952Y17071429D01*
X124480952Y16976191D01*
X124957142Y16880953D01*
X124052380Y16547620D02*
X124052380Y17214286D01*
X124052380Y17023810D02*
X124004761Y17119048D01*
X123957142Y17166667D01*
X123861904Y17214286D01*
X123766666Y17214286D01*
X122719047Y16595239D02*
X122623809Y16547620D01*
X122433333Y16547620D01*
X122338095Y16595239D01*
X122290476Y16690477D01*
X122290476Y16738096D01*
X122338095Y16833334D01*
X122433333Y16880953D01*
X122576190Y16880953D01*
X122671428Y16928572D01*
X122719047Y17023810D01*
X122719047Y17071429D01*
X122671428Y17166667D01*
X122576190Y17214286D01*
X122433333Y17214286D01*
X122338095Y17166667D01*
X121861904Y16547620D02*
X121861904Y17214286D01*
X121861904Y17547620D02*
X121909523Y17500000D01*
X121861904Y17452381D01*
X121814285Y17500000D01*
X121861904Y17547620D01*
X121861904Y17452381D01*
X120957142Y16547620D02*
X120957142Y17547620D01*
X120957142Y16595239D02*
X121052380Y16547620D01*
X121242857Y16547620D01*
X121338095Y16595239D01*
X121385714Y16642858D01*
X121433333Y16738096D01*
X121433333Y17023810D01*
X121385714Y17119048D01*
X121338095Y17166667D01*
X121242857Y17214286D01*
X121052380Y17214286D01*
X120957142Y17166667D01*
X120100000Y16595239D02*
X120195238Y16547620D01*
X120385714Y16547620D01*
X120480952Y16595239D01*
X120528571Y16690477D01*
X120528571Y17071429D01*
X120480952Y17166667D01*
X120385714Y17214286D01*
X120195238Y17214286D01*
X120100000Y17166667D01*
X120052380Y17071429D01*
X120052380Y16976191D01*
X120528571Y16880953D01*
D11*
X153907142Y22021429D02*
X155050000Y21592858D01*
X153907142Y21164286D01*
X152264285Y22521429D02*
X151407142Y22521429D01*
X151835714Y21021429D02*
X151835714Y22521429D01*
X150692857Y21021429D02*
X150835714Y21092858D01*
X150907142Y21164286D01*
X150978571Y21307143D01*
X150978571Y21735715D01*
X150907142Y21878572D01*
X150835714Y21950000D01*
X150692857Y22021429D01*
X150478571Y22021429D01*
X150335714Y21950000D01*
X150264285Y21878572D01*
X150192857Y21735715D01*
X150192857Y21307143D01*
X150264285Y21164286D01*
X150335714Y21092858D01*
X150478571Y21021429D01*
X150692857Y21021429D01*
X149335714Y21021429D02*
X149478571Y21092858D01*
X149550000Y21164286D01*
X149621428Y21307143D01*
X149621428Y21735715D01*
X149550000Y21878572D01*
X149478571Y21950000D01*
X149335714Y22021429D01*
X149121428Y22021429D01*
X148978571Y21950000D01*
X148907142Y21878572D01*
X148835714Y21735715D01*
X148835714Y21307143D01*
X148907142Y21164286D01*
X148978571Y21092858D01*
X149121428Y21021429D01*
X149335714Y21021429D01*
X147978571Y21021429D02*
X148121428Y21092858D01*
X148192857Y21235715D01*
X148192857Y22521429D01*
X147407142Y21021429D02*
X147407142Y22021429D01*
X147407142Y22521429D02*
X147478571Y22450000D01*
X147407142Y22378572D01*
X147335714Y22450000D01*
X147407142Y22521429D01*
X147407142Y22378572D01*
X146692857Y22021429D02*
X146692857Y21021429D01*
X146692857Y21878572D02*
X146621428Y21950000D01*
X146478571Y22021429D01*
X146264285Y22021429D01*
X146121428Y21950000D01*
X146050000Y21807143D01*
X146050000Y21021429D01*
X144692857Y22021429D02*
X144692857Y20807143D01*
X144764285Y20664286D01*
X144835714Y20592858D01*
X144978571Y20521429D01*
X145192857Y20521429D01*
X145335714Y20592858D01*
X144692857Y21092858D02*
X144835714Y21021429D01*
X145121428Y21021429D01*
X145264285Y21092858D01*
X145335714Y21164286D01*
X145407142Y21307143D01*
X145407142Y21735715D01*
X145335714Y21878572D01*
X145264285Y21950000D01*
X145121428Y22021429D01*
X144835714Y22021429D01*
X144692857Y21950000D01*
X142835714Y21021429D02*
X142835714Y22521429D01*
X142835714Y21807143D02*
X141978571Y21807143D01*
X141978571Y21021429D02*
X141978571Y22521429D01*
X141050000Y21021429D02*
X141192857Y21092858D01*
X141264285Y21164286D01*
X141335714Y21307143D01*
X141335714Y21735715D01*
X141264285Y21878572D01*
X141192857Y21950000D01*
X141050000Y22021429D01*
X140835714Y22021429D01*
X140692857Y21950000D01*
X140621428Y21878572D01*
X140550000Y21735715D01*
X140550000Y21307143D01*
X140621428Y21164286D01*
X140692857Y21092858D01*
X140835714Y21021429D01*
X141050000Y21021429D01*
X139692857Y21021429D02*
X139835714Y21092858D01*
X139907142Y21235715D01*
X139907142Y22521429D01*
X138550000Y21092858D02*
X138692857Y21021429D01*
X138978571Y21021429D01*
X139121428Y21092858D01*
X139192857Y21235715D01*
X139192857Y21807143D01*
X139121428Y21950000D01*
X138978571Y22021429D01*
X138692857Y22021429D01*
X138550000Y21950000D01*
X138478571Y21807143D01*
X138478571Y21664286D01*
X139192857Y21521429D01*
X93728571Y22421429D02*
X93728571Y21350000D01*
X93800000Y21135715D01*
X93942857Y20992858D01*
X94157142Y20921429D01*
X94300000Y20921429D01*
X92300000Y20921429D02*
X93014285Y20921429D01*
X93014285Y22421429D01*
X90942857Y21064286D02*
X91014285Y20992858D01*
X91228571Y20921429D01*
X91371428Y20921429D01*
X91585714Y20992858D01*
X91728571Y21135715D01*
X91800000Y21278572D01*
X91871428Y21564286D01*
X91871428Y21778572D01*
X91800000Y22064286D01*
X91728571Y22207143D01*
X91585714Y22350000D01*
X91371428Y22421429D01*
X91228571Y22421429D01*
X91014285Y22350000D01*
X90942857Y22278572D01*
X89871428Y22421429D02*
X89871428Y21350000D01*
X89942857Y21135715D01*
X90085714Y20992858D01*
X90300000Y20921429D01*
X90442857Y20921429D01*
X88442857Y20921429D02*
X89157142Y20921429D01*
X89157142Y22421429D01*
X87085714Y21064286D02*
X87157142Y20992858D01*
X87371428Y20921429D01*
X87514285Y20921429D01*
X87728571Y20992858D01*
X87871428Y21135715D01*
X87942857Y21278572D01*
X88014285Y21564286D01*
X88014285Y21778572D01*
X87942857Y22064286D01*
X87871428Y22207143D01*
X87728571Y22350000D01*
X87514285Y22421429D01*
X87371428Y22421429D01*
X87157142Y22350000D01*
X87085714Y22278572D01*
X86014285Y22421429D02*
X86014285Y21350000D01*
X86085714Y21135715D01*
X86228571Y20992858D01*
X86442857Y20921429D01*
X86585714Y20921429D01*
X84585714Y20921429D02*
X85300000Y20921429D01*
X85300000Y22421429D01*
X83228571Y21064286D02*
X83300000Y20992858D01*
X83514285Y20921429D01*
X83657142Y20921429D01*
X83871428Y20992858D01*
X84014285Y21135715D01*
X84085714Y21278572D01*
X84157142Y21564286D01*
X84157142Y21778572D01*
X84085714Y22064286D01*
X84014285Y22207143D01*
X83871428Y22350000D01*
X83657142Y22421429D01*
X83514285Y22421429D01*
X83300000Y22350000D01*
X83228571Y22278572D01*
X82157142Y22421429D02*
X82157142Y21350000D01*
X82228571Y21135715D01*
X82371428Y20992858D01*
X82585714Y20921429D01*
X82728571Y20921429D01*
X80728571Y20921429D02*
X81442857Y20921429D01*
X81442857Y22421429D01*
X79371428Y21064286D02*
X79442857Y20992858D01*
X79657142Y20921429D01*
X79800000Y20921429D01*
X80014285Y20992858D01*
X80157142Y21135715D01*
X80228571Y21278572D01*
X80300000Y21564286D01*
X80300000Y21778572D01*
X80228571Y22064286D01*
X80157142Y22207143D01*
X80014285Y22350000D01*
X79800000Y22421429D01*
X79657142Y22421429D01*
X79442857Y22350000D01*
X79371428Y22278572D01*
X21114285Y22621429D02*
X20257142Y22621429D01*
X20685714Y21121429D02*
X20685714Y22621429D01*
X19542857Y21121429D02*
X19685714Y21192858D01*
X19757142Y21264286D01*
X19828571Y21407143D01*
X19828571Y21835715D01*
X19757142Y21978572D01*
X19685714Y22050000D01*
X19542857Y22121429D01*
X19328571Y22121429D01*
X19185714Y22050000D01*
X19114285Y21978572D01*
X19042857Y21835715D01*
X19042857Y21407143D01*
X19114285Y21264286D01*
X19185714Y21192858D01*
X19328571Y21121429D01*
X19542857Y21121429D01*
X18185714Y21121429D02*
X18328571Y21192858D01*
X18400000Y21264286D01*
X18471428Y21407143D01*
X18471428Y21835715D01*
X18400000Y21978572D01*
X18328571Y22050000D01*
X18185714Y22121429D01*
X17971428Y22121429D01*
X17828571Y22050000D01*
X17757142Y21978572D01*
X17685714Y21835715D01*
X17685714Y21407143D01*
X17757142Y21264286D01*
X17828571Y21192858D01*
X17971428Y21121429D01*
X18185714Y21121429D01*
X16828571Y21121429D02*
X16971428Y21192858D01*
X17042857Y21335715D01*
X17042857Y22621429D01*
X16257142Y21121429D02*
X16257142Y22121429D01*
X16257142Y22621429D02*
X16328571Y22550000D01*
X16257142Y22478572D01*
X16185714Y22550000D01*
X16257142Y22621429D01*
X16257142Y22478572D01*
X15542857Y22121429D02*
X15542857Y21121429D01*
X15542857Y21978572D02*
X15471428Y22050000D01*
X15328571Y22121429D01*
X15114285Y22121429D01*
X14971428Y22050000D01*
X14900000Y21907143D01*
X14900000Y21121429D01*
X13542857Y22121429D02*
X13542857Y20907143D01*
X13614285Y20764286D01*
X13685714Y20692858D01*
X13828571Y20621429D01*
X14042857Y20621429D01*
X14185714Y20692858D01*
X13542857Y21192858D02*
X13685714Y21121429D01*
X13971428Y21121429D01*
X14114285Y21192858D01*
X14185714Y21264286D01*
X14257142Y21407143D01*
X14257142Y21835715D01*
X14185714Y21978572D01*
X14114285Y22050000D01*
X13971428Y22121429D01*
X13685714Y22121429D01*
X13542857Y22050000D01*
X11685714Y21121429D02*
X11685714Y22621429D01*
X11685714Y21907143D02*
X10828571Y21907143D01*
X10828571Y21121429D02*
X10828571Y22621429D01*
X9900000Y21121429D02*
X10042857Y21192858D01*
X10114285Y21264286D01*
X10185714Y21407143D01*
X10185714Y21835715D01*
X10114285Y21978572D01*
X10042857Y22050000D01*
X9900000Y22121429D01*
X9685714Y22121429D01*
X9542857Y22050000D01*
X9471428Y21978572D01*
X9400000Y21835715D01*
X9400000Y21407143D01*
X9471428Y21264286D01*
X9542857Y21192858D01*
X9685714Y21121429D01*
X9900000Y21121429D01*
X8542857Y21121429D02*
X8685714Y21192858D01*
X8757142Y21335715D01*
X8757142Y22621429D01*
X7400000Y21192858D02*
X7542857Y21121429D01*
X7828571Y21121429D01*
X7971428Y21192858D01*
X8042857Y21335715D01*
X8042857Y21907143D01*
X7971428Y22050000D01*
X7828571Y22121429D01*
X7542857Y22121429D01*
X7400000Y22050000D01*
X7328571Y21907143D01*
X7328571Y21764286D01*
X8042857Y21621429D01*
X5542857Y22121429D02*
X4400000Y21692858D01*
X5542857Y21264286D01*
D10*
X45340476Y3046429D02*
X45197619Y2998810D01*
X45150000Y2951191D01*
X45102380Y2855953D01*
X45102380Y2713096D01*
X45150000Y2617858D01*
X45197619Y2570239D01*
X45292857Y2522620D01*
X45673809Y2522620D01*
X45673809Y3522620D01*
X45340476Y3522620D01*
X45245238Y3475000D01*
X45197619Y3427381D01*
X45150000Y3332143D01*
X45150000Y3236905D01*
X45197619Y3141667D01*
X45245238Y3094048D01*
X45340476Y3046429D01*
X45673809Y3046429D01*
X44245238Y2522620D02*
X44245238Y3046429D01*
X44292857Y3141667D01*
X44388095Y3189286D01*
X44578571Y3189286D01*
X44673809Y3141667D01*
X44245238Y2570239D02*
X44340476Y2522620D01*
X44578571Y2522620D01*
X44673809Y2570239D01*
X44721428Y2665477D01*
X44721428Y2760715D01*
X44673809Y2855953D01*
X44578571Y2903572D01*
X44340476Y2903572D01*
X44245238Y2951191D01*
X43816666Y2570239D02*
X43721428Y2522620D01*
X43530952Y2522620D01*
X43435714Y2570239D01*
X43388095Y2665477D01*
X43388095Y2713096D01*
X43435714Y2808334D01*
X43530952Y2855953D01*
X43673809Y2855953D01*
X43769047Y2903572D01*
X43816666Y2998810D01*
X43816666Y3046429D01*
X43769047Y3141667D01*
X43673809Y3189286D01*
X43530952Y3189286D01*
X43435714Y3141667D01*
X42578571Y2570239D02*
X42673809Y2522620D01*
X42864285Y2522620D01*
X42959523Y2570239D01*
X43007142Y2665477D01*
X43007142Y3046429D01*
X42959523Y3141667D01*
X42864285Y3189286D01*
X42673809Y3189286D01*
X42578571Y3141667D01*
X42530952Y3046429D01*
X42530952Y2951191D01*
X43007142Y2855953D01*
X41673809Y2522620D02*
X41673809Y3522620D01*
X41673809Y2570239D02*
X41769047Y2522620D01*
X41959523Y2522620D01*
X42054761Y2570239D01*
X42102380Y2617858D01*
X42150000Y2713096D01*
X42150000Y2998810D01*
X42102380Y3094048D01*
X42054761Y3141667D01*
X41959523Y3189286D01*
X41769047Y3189286D01*
X41673809Y3141667D01*
X40292857Y2522620D02*
X40388095Y2570239D01*
X40435714Y2617858D01*
X40483333Y2713096D01*
X40483333Y2998810D01*
X40435714Y3094048D01*
X40388095Y3141667D01*
X40292857Y3189286D01*
X40150000Y3189286D01*
X40054761Y3141667D01*
X40007142Y3094048D01*
X39959523Y2998810D01*
X39959523Y2713096D01*
X40007142Y2617858D01*
X40054761Y2570239D01*
X40150000Y2522620D01*
X40292857Y2522620D01*
X39530952Y3189286D02*
X39530952Y2522620D01*
X39530952Y3094048D02*
X39483333Y3141667D01*
X39388095Y3189286D01*
X39245238Y3189286D01*
X39150000Y3141667D01*
X39102380Y3046429D01*
X39102380Y2522620D01*
X37721428Y2522620D02*
X37816666Y2570239D01*
X37864285Y2617858D01*
X37911904Y2713096D01*
X37911904Y2998810D01*
X37864285Y3094048D01*
X37816666Y3141667D01*
X37721428Y3189286D01*
X37578571Y3189286D01*
X37483333Y3141667D01*
X37435714Y3094048D01*
X37388095Y2998810D01*
X37388095Y2713096D01*
X37435714Y2617858D01*
X37483333Y2570239D01*
X37578571Y2522620D01*
X37721428Y2522620D01*
X36959523Y2522620D02*
X36959523Y3189286D01*
X36959523Y2998810D02*
X36911904Y3094048D01*
X36864285Y3141667D01*
X36769047Y3189286D01*
X36673809Y3189286D01*
X36340476Y2522620D02*
X36340476Y3189286D01*
X36340476Y3522620D02*
X36388095Y3475000D01*
X36340476Y3427381D01*
X36292857Y3475000D01*
X36340476Y3522620D01*
X36340476Y3427381D01*
X35435714Y3189286D02*
X35435714Y2379762D01*
X35483333Y2284524D01*
X35530952Y2236905D01*
X35626190Y2189286D01*
X35769047Y2189286D01*
X35864285Y2236905D01*
X35435714Y2570239D02*
X35530952Y2522620D01*
X35721428Y2522620D01*
X35816666Y2570239D01*
X35864285Y2617858D01*
X35911904Y2713096D01*
X35911904Y2998810D01*
X35864285Y3094048D01*
X35816666Y3141667D01*
X35721428Y3189286D01*
X35530952Y3189286D01*
X35435714Y3141667D01*
X34959523Y2522620D02*
X34959523Y3189286D01*
X34959523Y3522620D02*
X35007142Y3475000D01*
X34959523Y3427381D01*
X34911904Y3475000D01*
X34959523Y3522620D01*
X34959523Y3427381D01*
X34483333Y3189286D02*
X34483333Y2522620D01*
X34483333Y3094048D02*
X34435714Y3141667D01*
X34340476Y3189286D01*
X34197619Y3189286D01*
X34102380Y3141667D01*
X34054761Y3046429D01*
X34054761Y2522620D01*
X33150000Y2522620D02*
X33150000Y3046429D01*
X33197619Y3141667D01*
X33292857Y3189286D01*
X33483333Y3189286D01*
X33578571Y3141667D01*
X33150000Y2570239D02*
X33245238Y2522620D01*
X33483333Y2522620D01*
X33578571Y2570239D01*
X33626190Y2665477D01*
X33626190Y2760715D01*
X33578571Y2855953D01*
X33483333Y2903572D01*
X33245238Y2903572D01*
X33150000Y2951191D01*
X32530952Y2522620D02*
X32626190Y2570239D01*
X32673809Y2665477D01*
X32673809Y3522620D01*
X45340476Y1539286D02*
X45150000Y872620D01*
X44959523Y1348810D01*
X44769047Y872620D01*
X44578571Y1539286D01*
X44054761Y872620D02*
X44150000Y920239D01*
X44197619Y967858D01*
X44245238Y1063096D01*
X44245238Y1348810D01*
X44197619Y1444048D01*
X44150000Y1491667D01*
X44054761Y1539286D01*
X43911904Y1539286D01*
X43816666Y1491667D01*
X43769047Y1444048D01*
X43721428Y1348810D01*
X43721428Y1063096D01*
X43769047Y967858D01*
X43816666Y920239D01*
X43911904Y872620D01*
X44054761Y872620D01*
X43292857Y872620D02*
X43292857Y1539286D01*
X43292857Y1348810D02*
X43245238Y1444048D01*
X43197619Y1491667D01*
X43102380Y1539286D01*
X43007142Y1539286D01*
X42673809Y872620D02*
X42673809Y1872620D01*
X42578571Y1253572D02*
X42292857Y872620D01*
X42292857Y1539286D02*
X42673809Y1158334D01*
X41102380Y872620D02*
X41102380Y1872620D01*
X41102380Y1491667D02*
X41007142Y1539286D01*
X40816666Y1539286D01*
X40721428Y1491667D01*
X40673809Y1444048D01*
X40626190Y1348810D01*
X40626190Y1063096D01*
X40673809Y967858D01*
X40721428Y920239D01*
X40816666Y872620D01*
X41007142Y872620D01*
X41102380Y920239D01*
X40292857Y1539286D02*
X40054761Y872620D01*
X39816666Y1539286D02*
X40054761Y872620D01*
X40150000Y634524D01*
X40197619Y586905D01*
X40292857Y539286D01*
X38769047Y872620D02*
X38245238Y1539286D01*
X38769047Y1539286D02*
X38245238Y872620D01*
X37959523Y1539286D02*
X37769047Y872620D01*
X37578571Y1348810D01*
X37388095Y872620D01*
X37197619Y1539286D01*
X36816666Y872620D02*
X36816666Y1872620D01*
X36388095Y872620D02*
X36388095Y1396429D01*
X36435714Y1491667D01*
X36530952Y1539286D01*
X36673809Y1539286D01*
X36769047Y1491667D01*
X36816666Y1444048D01*
X35483333Y872620D02*
X35483333Y1396429D01*
X35530952Y1491667D01*
X35626190Y1539286D01*
X35816666Y1539286D01*
X35911904Y1491667D01*
X35483333Y920239D02*
X35578571Y872620D01*
X35816666Y872620D01*
X35911904Y920239D01*
X35959523Y1015477D01*
X35959523Y1110715D01*
X35911904Y1205953D01*
X35816666Y1253572D01*
X35578571Y1253572D01*
X35483333Y1301191D01*
X35150000Y1539286D02*
X34769047Y1539286D01*
X35007142Y1872620D02*
X35007142Y1015477D01*
X34959523Y920239D01*
X34864285Y872620D01*
X34769047Y872620D01*
X34483333Y920239D02*
X34388095Y872620D01*
X34197619Y872620D01*
X34102380Y920239D01*
X34054761Y1015477D01*
X34054761Y1063096D01*
X34102380Y1158334D01*
X34197619Y1205953D01*
X34340476Y1205953D01*
X34435714Y1253572D01*
X34483333Y1348810D01*
X34483333Y1396429D01*
X34435714Y1491667D01*
X34340476Y1539286D01*
X34197619Y1539286D01*
X34102380Y1491667D01*
X33626190Y872620D02*
X33626190Y1539286D01*
X33626190Y1872620D02*
X33673809Y1825000D01*
X33626190Y1777381D01*
X33578571Y1825000D01*
X33626190Y1872620D01*
X33626190Y1777381D01*
X33292857Y1539286D02*
X32911904Y1539286D01*
X33150000Y1872620D02*
X33150000Y1015477D01*
X33102380Y920239D01*
X33007142Y872620D01*
X32911904Y872620D01*
X4450000Y15011905D02*
X4402380Y15107143D01*
X4402380Y15250000D01*
X4450000Y15392858D01*
X4545238Y15488096D01*
X4640476Y15535715D01*
X4830952Y15583334D01*
X4973809Y15583334D01*
X5164285Y15535715D01*
X5259523Y15488096D01*
X5354761Y15392858D01*
X5402380Y15250000D01*
X5402380Y15154762D01*
X5354761Y15011905D01*
X5307142Y14964286D01*
X4973809Y14964286D01*
X4973809Y15154762D01*
X5402380Y14535715D02*
X4402380Y14535715D01*
X5402380Y13964286D01*
X4402380Y13964286D01*
X5402380Y13488096D02*
X4402380Y13488096D01*
X4402380Y13250000D01*
X4450000Y13107143D01*
X4545238Y13011905D01*
X4640476Y12964286D01*
X4830952Y12916667D01*
X4973809Y12916667D01*
X5164285Y12964286D01*
X5259523Y13011905D01*
X5354761Y13107143D01*
X5402380Y13250000D01*
X5402380Y13488096D01*
X7902380Y14947620D02*
X7426190Y15280953D01*
X7902380Y15519048D02*
X6902380Y15519048D01*
X6902380Y15138096D01*
X6950000Y15042858D01*
X6997619Y14995239D01*
X7092857Y14947620D01*
X7235714Y14947620D01*
X7330952Y14995239D01*
X7378571Y15042858D01*
X7426190Y15138096D01*
X7426190Y15519048D01*
X7854761Y14566667D02*
X7902380Y14423810D01*
X7902380Y14185715D01*
X7854761Y14090477D01*
X7807142Y14042858D01*
X7711904Y13995239D01*
X7616666Y13995239D01*
X7521428Y14042858D01*
X7473809Y14090477D01*
X7426190Y14185715D01*
X7378571Y14376191D01*
X7330952Y14471429D01*
X7283333Y14519048D01*
X7188095Y14566667D01*
X7092857Y14566667D01*
X6997619Y14519048D01*
X6950000Y14471429D01*
X6902380Y14376191D01*
X6902380Y14138096D01*
X6950000Y13995239D01*
X6902380Y13709524D02*
X6902380Y13138096D01*
X7902380Y13423810D02*
X6902380Y13423810D01*
X111904761Y4967858D02*
X111952380Y4920239D01*
X112095238Y4872620D01*
X112190476Y4872620D01*
X112333333Y4920239D01*
X112428571Y5015477D01*
X112476190Y5110715D01*
X112523809Y5301191D01*
X112523809Y5444048D01*
X112476190Y5634524D01*
X112428571Y5729762D01*
X112333333Y5825000D01*
X112190476Y5872620D01*
X112095238Y5872620D01*
X111952380Y5825000D01*
X111904761Y5777381D01*
X111333333Y4872620D02*
X111428571Y4920239D01*
X111476190Y4967858D01*
X111523809Y5063096D01*
X111523809Y5348810D01*
X111476190Y5444048D01*
X111428571Y5491667D01*
X111333333Y5539286D01*
X111190476Y5539286D01*
X111095238Y5491667D01*
X111047619Y5444048D01*
X111000000Y5348810D01*
X111000000Y5063096D01*
X111047619Y4967858D01*
X111095238Y4920239D01*
X111190476Y4872620D01*
X111333333Y4872620D01*
X110571428Y4872620D02*
X110571428Y5539286D01*
X110571428Y5444048D02*
X110523809Y5491667D01*
X110428571Y5539286D01*
X110285714Y5539286D01*
X110190476Y5491667D01*
X110142857Y5396429D01*
X110142857Y4872620D01*
X110142857Y5396429D02*
X110095238Y5491667D01*
X110000000Y5539286D01*
X109857142Y5539286D01*
X109761904Y5491667D01*
X109714285Y5396429D01*
X109714285Y4872620D01*
X109238095Y5539286D02*
X109238095Y4539286D01*
X109238095Y5491667D02*
X109142857Y5539286D01*
X108952380Y5539286D01*
X108857142Y5491667D01*
X108809523Y5444048D01*
X108761904Y5348810D01*
X108761904Y5063096D01*
X108809523Y4967858D01*
X108857142Y4920239D01*
X108952380Y4872620D01*
X109142857Y4872620D01*
X109238095Y4920239D01*
X107904761Y4872620D02*
X107904761Y5396429D01*
X107952380Y5491667D01*
X108047619Y5539286D01*
X108238095Y5539286D01*
X108333333Y5491667D01*
X107904761Y4920239D02*
X108000000Y4872620D01*
X108238095Y4872620D01*
X108333333Y4920239D01*
X108380952Y5015477D01*
X108380952Y5110715D01*
X108333333Y5205953D01*
X108238095Y5253572D01*
X108000000Y5253572D01*
X107904761Y5301191D01*
X107000000Y4920239D02*
X107095238Y4872620D01*
X107285714Y4872620D01*
X107380952Y4920239D01*
X107428571Y4967858D01*
X107476190Y5063096D01*
X107476190Y5348810D01*
X107428571Y5444048D01*
X107380952Y5491667D01*
X107285714Y5539286D01*
X107095238Y5539286D01*
X107000000Y5491667D01*
X106714285Y5539286D02*
X106333333Y5539286D01*
X106571428Y5872620D02*
X106571428Y5015477D01*
X106523809Y4920239D01*
X106428571Y4872620D01*
X106333333Y4872620D01*
X106000000Y5253572D02*
X105238095Y5253572D01*
X104428571Y5396429D02*
X104285714Y5348810D01*
X104238095Y5301191D01*
X104190476Y5205953D01*
X104190476Y5063096D01*
X104238095Y4967858D01*
X104285714Y4920239D01*
X104380952Y4872620D01*
X104761904Y4872620D01*
X104761904Y5872620D01*
X104428571Y5872620D01*
X104333333Y5825000D01*
X104285714Y5777381D01*
X104238095Y5682143D01*
X104238095Y5586905D01*
X104285714Y5491667D01*
X104333333Y5444048D01*
X104428571Y5396429D01*
X104761904Y5396429D01*
X103380952Y4920239D02*
X103476190Y4872620D01*
X103666666Y4872620D01*
X103761904Y4920239D01*
X103809523Y5015477D01*
X103809523Y5396429D01*
X103761904Y5491667D01*
X103666666Y5539286D01*
X103476190Y5539286D01*
X103380952Y5491667D01*
X103333333Y5396429D01*
X103333333Y5301191D01*
X103809523Y5205953D01*
X102476190Y4872620D02*
X102476190Y5396429D01*
X102523809Y5491667D01*
X102619047Y5539286D01*
X102809523Y5539286D01*
X102904761Y5491667D01*
X102476190Y4920239D02*
X102571428Y4872620D01*
X102809523Y4872620D01*
X102904761Y4920239D01*
X102952380Y5015477D01*
X102952380Y5110715D01*
X102904761Y5205953D01*
X102809523Y5253572D01*
X102571428Y5253572D01*
X102476190Y5301191D01*
X102000000Y4872620D02*
X102000000Y5539286D01*
X102000000Y5444048D02*
X101952380Y5491667D01*
X101857142Y5539286D01*
X101714285Y5539286D01*
X101619047Y5491667D01*
X101571428Y5396429D01*
X101571428Y4872620D01*
X101571428Y5396429D02*
X101523809Y5491667D01*
X101428571Y5539286D01*
X101285714Y5539286D01*
X101190476Y5491667D01*
X101142857Y5396429D01*
X101142857Y4872620D01*
X100714285Y4920239D02*
X100619047Y4872620D01*
X100428571Y4872620D01*
X100333333Y4920239D01*
X100285714Y5015477D01*
X100285714Y5063096D01*
X100333333Y5158334D01*
X100428571Y5205953D01*
X100571428Y5205953D01*
X100666666Y5253572D01*
X100714285Y5348810D01*
X100714285Y5396429D01*
X100666666Y5491667D01*
X100571428Y5539286D01*
X100428571Y5539286D01*
X100333333Y5491667D01*
X99857142Y5539286D02*
X99857142Y4539286D01*
X99857142Y5491667D02*
X99761904Y5539286D01*
X99571428Y5539286D01*
X99476190Y5491667D01*
X99428571Y5444048D01*
X99380952Y5348810D01*
X99380952Y5063096D01*
X99428571Y4967858D01*
X99476190Y4920239D01*
X99571428Y4872620D01*
X99761904Y4872620D01*
X99857142Y4920239D01*
X98952380Y4872620D02*
X98952380Y5539286D01*
X98952380Y5348810D02*
X98904761Y5444048D01*
X98857142Y5491667D01*
X98761904Y5539286D01*
X98666666Y5539286D01*
X98333333Y4872620D02*
X98333333Y5539286D01*
X98333333Y5872620D02*
X98380952Y5825000D01*
X98333333Y5777381D01*
X98285714Y5825000D01*
X98333333Y5872620D01*
X98333333Y5777381D01*
X97857142Y5539286D02*
X97857142Y4872620D01*
X97857142Y5444048D02*
X97809523Y5491667D01*
X97714285Y5539286D01*
X97571428Y5539286D01*
X97476190Y5491667D01*
X97428571Y5396429D01*
X97428571Y4872620D01*
X96523809Y5539286D02*
X96523809Y4729762D01*
X96571428Y4634524D01*
X96619047Y4586905D01*
X96714285Y4539286D01*
X96857142Y4539286D01*
X96952380Y4586905D01*
X96523809Y4920239D02*
X96619047Y4872620D01*
X96809523Y4872620D01*
X96904761Y4920239D01*
X96952380Y4967858D01*
X97000000Y5063096D01*
X97000000Y5348810D01*
X96952380Y5444048D01*
X96904761Y5491667D01*
X96809523Y5539286D01*
X96619047Y5539286D01*
X96523809Y5491667D01*
X106190476Y3222620D02*
X106523809Y3698810D01*
X106761904Y3222620D02*
X106761904Y4222620D01*
X106380952Y4222620D01*
X106285714Y4175000D01*
X106238095Y4127381D01*
X106190476Y4032143D01*
X106190476Y3889286D01*
X106238095Y3794048D01*
X106285714Y3746429D01*
X106380952Y3698810D01*
X106761904Y3698810D01*
X105380952Y3270239D02*
X105476190Y3222620D01*
X105666666Y3222620D01*
X105761904Y3270239D01*
X105809523Y3365477D01*
X105809523Y3746429D01*
X105761904Y3841667D01*
X105666666Y3889286D01*
X105476190Y3889286D01*
X105380952Y3841667D01*
X105333333Y3746429D01*
X105333333Y3651191D01*
X105809523Y3555953D01*
X105000000Y3889286D02*
X104761904Y3222620D01*
X104523809Y3889286D01*
X103619047Y3222620D02*
X104190476Y3222620D01*
X103904761Y3222620D02*
X103904761Y4222620D01*
X104000000Y4079762D01*
X104095238Y3984524D01*
X104190476Y3936905D01*
X103190476Y3317858D02*
X103142857Y3270239D01*
X103190476Y3222620D01*
X103238095Y3270239D01*
X103190476Y3317858D01*
X103190476Y3222620D01*
X102190476Y3222620D02*
X102761904Y3222620D01*
X102476190Y3222620D02*
X102476190Y4222620D01*
X102571428Y4079762D01*
X102666666Y3984524D01*
X102761904Y3936905D01*
X77842976Y7942858D02*
X77890595Y7895239D01*
X78033452Y7847620D01*
X78128690Y7847620D01*
X78271547Y7895239D01*
X78366785Y7990477D01*
X78414404Y8085715D01*
X78462023Y8276191D01*
X78462023Y8419048D01*
X78414404Y8609524D01*
X78366785Y8704762D01*
X78271547Y8800000D01*
X78128690Y8847620D01*
X78033452Y8847620D01*
X77890595Y8800000D01*
X77842976Y8752381D01*
X77271547Y7847620D02*
X77366785Y7895239D01*
X77414404Y7942858D01*
X77462023Y8038096D01*
X77462023Y8323810D01*
X77414404Y8419048D01*
X77366785Y8466667D01*
X77271547Y8514286D01*
X77128690Y8514286D01*
X77033452Y8466667D01*
X76985833Y8419048D01*
X76938214Y8323810D01*
X76938214Y8038096D01*
X76985833Y7942858D01*
X77033452Y7895239D01*
X77128690Y7847620D01*
X77271547Y7847620D01*
X76509642Y8514286D02*
X76509642Y7847620D01*
X76509642Y8419048D02*
X76462023Y8466667D01*
X76366785Y8514286D01*
X76223928Y8514286D01*
X76128690Y8466667D01*
X76081071Y8371429D01*
X76081071Y7847620D01*
X75747738Y8514286D02*
X75366785Y8514286D01*
X75604880Y8847620D02*
X75604880Y7990477D01*
X75557261Y7895239D01*
X75462023Y7847620D01*
X75366785Y7847620D01*
X75033452Y7847620D02*
X75033452Y8514286D01*
X75033452Y8323810D02*
X74985833Y8419048D01*
X74938214Y8466667D01*
X74842976Y8514286D01*
X74747738Y8514286D01*
X74414404Y7847620D02*
X74414404Y8514286D01*
X74414404Y8847620D02*
X74462023Y8800000D01*
X74414404Y8752381D01*
X74366785Y8800000D01*
X74414404Y8847620D01*
X74414404Y8752381D01*
X73938214Y7847620D02*
X73938214Y8847620D01*
X73938214Y8466667D02*
X73842976Y8514286D01*
X73652500Y8514286D01*
X73557261Y8466667D01*
X73509642Y8419048D01*
X73462023Y8323810D01*
X73462023Y8038096D01*
X73509642Y7942858D01*
X73557261Y7895239D01*
X73652500Y7847620D01*
X73842976Y7847620D01*
X73938214Y7895239D01*
X72604880Y8514286D02*
X72604880Y7847620D01*
X73033452Y8514286D02*
X73033452Y7990477D01*
X72985833Y7895239D01*
X72890595Y7847620D01*
X72747738Y7847620D01*
X72652500Y7895239D01*
X72604880Y7942858D01*
X72271547Y8514286D02*
X71890595Y8514286D01*
X72128690Y8847620D02*
X72128690Y7990477D01*
X72081071Y7895239D01*
X71985833Y7847620D01*
X71890595Y7847620D01*
X71414404Y7847620D02*
X71509642Y7895239D01*
X71557261Y7942858D01*
X71604880Y8038096D01*
X71604880Y8323810D01*
X71557261Y8419048D01*
X71509642Y8466667D01*
X71414404Y8514286D01*
X71271547Y8514286D01*
X71176309Y8466667D01*
X71128690Y8419048D01*
X71081071Y8323810D01*
X71081071Y8038096D01*
X71128690Y7942858D01*
X71176309Y7895239D01*
X71271547Y7847620D01*
X71414404Y7847620D01*
X70652500Y7847620D02*
X70652500Y8514286D01*
X70652500Y8323810D02*
X70604880Y8419048D01*
X70557261Y8466667D01*
X70462023Y8514286D01*
X70366785Y8514286D01*
X70081071Y7895239D02*
X69985833Y7847620D01*
X69795357Y7847620D01*
X69700119Y7895239D01*
X69652500Y7990477D01*
X69652500Y8038096D01*
X69700119Y8133334D01*
X69795357Y8180953D01*
X69938214Y8180953D01*
X70033452Y8228572D01*
X70081071Y8323810D01*
X70081071Y8371429D01*
X70033452Y8466667D01*
X69938214Y8514286D01*
X69795357Y8514286D01*
X69700119Y8466667D01*
X69223928Y7942858D02*
X69176309Y7895239D01*
X69223928Y7847620D01*
X69271547Y7895239D01*
X69223928Y7942858D01*
X69223928Y7847620D01*
X69223928Y8466667D02*
X69176309Y8419048D01*
X69223928Y8371429D01*
X69271547Y8419048D01*
X69223928Y8466667D01*
X69223928Y8371429D01*
X76747738Y7197620D02*
X76747738Y6959524D01*
X76985833Y7054762D02*
X76747738Y6959524D01*
X76509642Y7054762D01*
X76890595Y6769048D02*
X76747738Y6959524D01*
X76604880Y6769048D01*
X75366785Y6864286D02*
X75366785Y5864286D01*
X75366785Y6816667D02*
X75271547Y6864286D01*
X75081071Y6864286D01*
X74985833Y6816667D01*
X74938214Y6769048D01*
X74890595Y6673810D01*
X74890595Y6388096D01*
X74938214Y6292858D01*
X74985833Y6245239D01*
X75081071Y6197620D01*
X75271547Y6197620D01*
X75366785Y6245239D01*
X74033452Y6197620D02*
X74033452Y6721429D01*
X74081071Y6816667D01*
X74176309Y6864286D01*
X74366785Y6864286D01*
X74462023Y6816667D01*
X74033452Y6245239D02*
X74128690Y6197620D01*
X74366785Y6197620D01*
X74462023Y6245239D01*
X74509642Y6340477D01*
X74509642Y6435715D01*
X74462023Y6530953D01*
X74366785Y6578572D01*
X74128690Y6578572D01*
X74033452Y6626191D01*
X73557261Y6864286D02*
X73557261Y6197620D01*
X73557261Y6769048D02*
X73509642Y6816667D01*
X73414404Y6864286D01*
X73271547Y6864286D01*
X73176309Y6816667D01*
X73128690Y6721429D01*
X73128690Y6197620D01*
X72223928Y6197620D02*
X72223928Y7197620D01*
X72223928Y6245239D02*
X72319166Y6197620D01*
X72509642Y6197620D01*
X72604880Y6245239D01*
X72652500Y6292858D01*
X72700119Y6388096D01*
X72700119Y6673810D01*
X72652500Y6769048D01*
X72604880Y6816667D01*
X72509642Y6864286D01*
X72319166Y6864286D01*
X72223928Y6816667D01*
X71747738Y6197620D02*
X71747738Y6864286D01*
X71747738Y6673810D02*
X71700119Y6769048D01*
X71652500Y6816667D01*
X71557261Y6864286D01*
X71462023Y6864286D01*
X70747738Y6245239D02*
X70842976Y6197620D01*
X71033452Y6197620D01*
X71128690Y6245239D01*
X71176309Y6340477D01*
X71176309Y6721429D01*
X71128690Y6816667D01*
X71033452Y6864286D01*
X70842976Y6864286D01*
X70747738Y6816667D01*
X70700119Y6721429D01*
X70700119Y6626191D01*
X71176309Y6530953D01*
X70366785Y6864286D02*
X70176309Y6197620D01*
X69985833Y6673810D01*
X69795357Y6197620D01*
X69604880Y6864286D01*
X76747738Y5547620D02*
X76747738Y5309524D01*
X76985833Y5404762D02*
X76747738Y5309524D01*
X76509642Y5404762D01*
X76890595Y5119048D02*
X76747738Y5309524D01*
X76604880Y5119048D01*
X75223928Y4547620D02*
X75319166Y4595239D01*
X75366785Y4690477D01*
X75366785Y5547620D01*
X74842976Y4547620D02*
X74842976Y5214286D01*
X74842976Y5547620D02*
X74890595Y5500000D01*
X74842976Y5452381D01*
X74795357Y5500000D01*
X74842976Y5547620D01*
X74842976Y5452381D01*
X74414404Y4595239D02*
X74319166Y4547620D01*
X74128690Y4547620D01*
X74033452Y4595239D01*
X73985833Y4690477D01*
X73985833Y4738096D01*
X74033452Y4833334D01*
X74128690Y4880953D01*
X74271547Y4880953D01*
X74366785Y4928572D01*
X74414404Y5023810D01*
X74414404Y5071429D01*
X74366785Y5166667D01*
X74271547Y5214286D01*
X74128690Y5214286D01*
X74033452Y5166667D01*
X73700119Y5214286D02*
X73319166Y5214286D01*
X73557261Y5547620D02*
X73557261Y4690477D01*
X73509642Y4595239D01*
X73414404Y4547620D01*
X73319166Y4547620D01*
X72842976Y4547620D02*
X72938214Y4595239D01*
X72985833Y4642858D01*
X73033452Y4738096D01*
X73033452Y5023810D01*
X72985833Y5119048D01*
X72938214Y5166667D01*
X72842976Y5214286D01*
X72700119Y5214286D01*
X72604880Y5166667D01*
X72557261Y5119048D01*
X72509642Y5023810D01*
X72509642Y4738096D01*
X72557261Y4642858D01*
X72604880Y4595239D01*
X72700119Y4547620D01*
X72842976Y4547620D01*
X72223928Y5214286D02*
X71842976Y5214286D01*
X72081071Y4547620D02*
X72081071Y5404762D01*
X72033452Y5500000D01*
X71938214Y5547620D01*
X71842976Y5547620D01*
X71366785Y4547620D02*
X71462023Y4595239D01*
X71509642Y4642858D01*
X71557261Y4738096D01*
X71557261Y5023810D01*
X71509642Y5119048D01*
X71462023Y5166667D01*
X71366785Y5214286D01*
X71223928Y5214286D01*
X71128690Y5166667D01*
X71081071Y5119048D01*
X71033452Y5023810D01*
X71033452Y4738096D01*
X71081071Y4642858D01*
X71128690Y4595239D01*
X71223928Y4547620D01*
X71366785Y4547620D01*
X70604880Y5214286D02*
X70604880Y4214286D01*
X70604880Y5166667D02*
X70509642Y5214286D01*
X70319166Y5214286D01*
X70223928Y5166667D01*
X70176309Y5119048D01*
X70128690Y5023810D01*
X70128690Y4738096D01*
X70176309Y4642858D01*
X70223928Y4595239D01*
X70319166Y4547620D01*
X70509642Y4547620D01*
X70604880Y4595239D01*
X69842976Y5214286D02*
X69462023Y5214286D01*
X69700119Y5547620D02*
X69700119Y4690477D01*
X69652500Y4595239D01*
X69557261Y4547620D01*
X69462023Y4547620D01*
X69128690Y4547620D02*
X69128690Y5214286D01*
X69128690Y5547620D02*
X69176309Y5500000D01*
X69128690Y5452381D01*
X69081071Y5500000D01*
X69128690Y5547620D01*
X69128690Y5452381D01*
X68509642Y4547620D02*
X68604880Y4595239D01*
X68652500Y4642858D01*
X68700119Y4738096D01*
X68700119Y5023810D01*
X68652500Y5119048D01*
X68604880Y5166667D01*
X68509642Y5214286D01*
X68366785Y5214286D01*
X68271547Y5166667D01*
X68223928Y5119048D01*
X68176309Y5023810D01*
X68176309Y4738096D01*
X68223928Y4642858D01*
X68271547Y4595239D01*
X68366785Y4547620D01*
X68509642Y4547620D01*
X67747738Y5214286D02*
X67747738Y4547620D01*
X67747738Y5119048D02*
X67700119Y5166667D01*
X67604880Y5214286D01*
X67462023Y5214286D01*
X67366785Y5166667D01*
X67319166Y5071429D01*
X67319166Y4547620D01*
X66890595Y4595239D02*
X66795357Y4547620D01*
X66604880Y4547620D01*
X66509642Y4595239D01*
X66462023Y4690477D01*
X66462023Y4738096D01*
X66509642Y4833334D01*
X66604880Y4880953D01*
X66747738Y4880953D01*
X66842976Y4928572D01*
X66890595Y5023810D01*
X66890595Y5071429D01*
X66842976Y5166667D01*
X66747738Y5214286D01*
X66604880Y5214286D01*
X66509642Y5166667D01*
X76747738Y3897620D02*
X76747738Y3659524D01*
X76985833Y3754762D02*
X76747738Y3659524D01*
X76509642Y3754762D01*
X76890595Y3469048D02*
X76747738Y3659524D01*
X76604880Y3469048D01*
X75366785Y2897620D02*
X75366785Y3897620D01*
X75271547Y3278572D02*
X74985833Y2897620D01*
X74985833Y3564286D02*
X75366785Y3183334D01*
X74557261Y2897620D02*
X74557261Y3564286D01*
X74557261Y3469048D02*
X74509642Y3516667D01*
X74414404Y3564286D01*
X74271547Y3564286D01*
X74176309Y3516667D01*
X74128690Y3421429D01*
X74128690Y2897620D01*
X74128690Y3421429D02*
X74081071Y3516667D01*
X73985833Y3564286D01*
X73842976Y3564286D01*
X73747738Y3516667D01*
X73700119Y3421429D01*
X73700119Y2897620D01*
X73223928Y3564286D02*
X73223928Y2897620D01*
X73223928Y3469048D02*
X73176309Y3516667D01*
X73081071Y3564286D01*
X72938214Y3564286D01*
X72842976Y3516667D01*
X72795357Y3421429D01*
X72795357Y2897620D01*
X72176309Y2897620D02*
X72271547Y2945239D01*
X72319166Y2992858D01*
X72366785Y3088096D01*
X72366785Y3373810D01*
X72319166Y3469048D01*
X72271547Y3516667D01*
X72176309Y3564286D01*
X72033452Y3564286D01*
X71938214Y3516667D01*
X71890595Y3469048D01*
X71842976Y3373810D01*
X71842976Y3088096D01*
X71890595Y2992858D01*
X71938214Y2945239D01*
X72033452Y2897620D01*
X72176309Y2897620D01*
X71509642Y3564286D02*
X71271547Y2897620D01*
X71033452Y3564286D01*
X70700119Y3802381D02*
X70652500Y3850000D01*
X70557261Y3897620D01*
X70319166Y3897620D01*
X70223928Y3850000D01*
X70176309Y3802381D01*
X70128690Y3707143D01*
X70128690Y3611905D01*
X70176309Y3469048D01*
X70747738Y2897620D01*
X70128690Y2897620D01*
X69509642Y3897620D02*
X69414404Y3897620D01*
X69319166Y3850000D01*
X69271547Y3802381D01*
X69223928Y3707143D01*
X69176309Y3516667D01*
X69176309Y3278572D01*
X69223928Y3088096D01*
X69271547Y2992858D01*
X69319166Y2945239D01*
X69414404Y2897620D01*
X69509642Y2897620D01*
X69604880Y2945239D01*
X69652500Y2992858D01*
X69700119Y3088096D01*
X69747738Y3278572D01*
X69747738Y3516667D01*
X69700119Y3707143D01*
X69652500Y3802381D01*
X69604880Y3850000D01*
X69509642Y3897620D01*
X68223928Y2897620D02*
X68795357Y2897620D01*
X68509642Y2897620D02*
X68509642Y3897620D01*
X68604880Y3754762D01*
X68700119Y3659524D01*
X68795357Y3611905D01*
X67890595Y3897620D02*
X67223928Y3897620D01*
X67652500Y2897620D01*
X76747738Y2247620D02*
X76747738Y2009524D01*
X76985833Y2104762D02*
X76747738Y2009524D01*
X76509642Y2104762D01*
X76890595Y1819048D02*
X76747738Y2009524D01*
X76604880Y1819048D01*
X75509642Y1914286D02*
X75128690Y1914286D01*
X75366785Y2247620D02*
X75366785Y1390477D01*
X75319166Y1295239D01*
X75223928Y1247620D01*
X75128690Y1247620D01*
X74414404Y1295239D02*
X74509642Y1247620D01*
X74700119Y1247620D01*
X74795357Y1295239D01*
X74842976Y1390477D01*
X74842976Y1771429D01*
X74795357Y1866667D01*
X74700119Y1914286D01*
X74509642Y1914286D01*
X74414404Y1866667D01*
X74366785Y1771429D01*
X74366785Y1676191D01*
X74842976Y1580953D01*
X73938214Y1914286D02*
X73938214Y1247620D01*
X73938214Y1819048D02*
X73890595Y1866667D01*
X73795357Y1914286D01*
X73652500Y1914286D01*
X73557261Y1866667D01*
X73509642Y1771429D01*
X73509642Y1247620D01*
X73176309Y1914286D02*
X72795357Y1914286D01*
X73033452Y2247620D02*
X73033452Y1390477D01*
X72985833Y1295239D01*
X72890595Y1247620D01*
X72795357Y1247620D01*
X72033452Y1247620D02*
X72033452Y1771429D01*
X72081071Y1866667D01*
X72176309Y1914286D01*
X72366785Y1914286D01*
X72462023Y1866667D01*
X72033452Y1295239D02*
X72128690Y1247620D01*
X72366785Y1247620D01*
X72462023Y1295239D01*
X72509642Y1390477D01*
X72509642Y1485715D01*
X72462023Y1580953D01*
X72366785Y1628572D01*
X72128690Y1628572D01*
X72033452Y1676191D01*
X71700119Y1914286D02*
X71319166Y1914286D01*
X71557261Y2247620D02*
X71557261Y1390477D01*
X71509642Y1295239D01*
X71414404Y1247620D01*
X71319166Y1247620D01*
X70842976Y1247620D02*
X70938214Y1295239D01*
X70985833Y1342858D01*
X71033452Y1438096D01*
X71033452Y1723810D01*
X70985833Y1819048D01*
X70938214Y1866667D01*
X70842976Y1914286D01*
X70700119Y1914286D01*
X70604880Y1866667D01*
X70557261Y1819048D01*
X70509642Y1723810D01*
X70509642Y1438096D01*
X70557261Y1342858D01*
X70604880Y1295239D01*
X70700119Y1247620D01*
X70842976Y1247620D01*
X70081071Y1247620D02*
X70081071Y1914286D01*
X70081071Y1723810D02*
X70033452Y1819048D01*
X69985833Y1866667D01*
X69890595Y1914286D01*
X69795357Y1914286D01*
X159309523Y4217858D02*
X159357142Y4170239D01*
X159500000Y4122620D01*
X159595238Y4122620D01*
X159738095Y4170239D01*
X159833333Y4265477D01*
X159880952Y4360715D01*
X159928571Y4551191D01*
X159928571Y4694048D01*
X159880952Y4884524D01*
X159833333Y4979762D01*
X159738095Y5075000D01*
X159595238Y5122620D01*
X159500000Y5122620D01*
X159357142Y5075000D01*
X159309523Y5027381D01*
X158880952Y4122620D02*
X158880952Y5122620D01*
X158880952Y4646429D02*
X158309523Y4646429D01*
X158309523Y4122620D02*
X158309523Y5122620D01*
X157880952Y4408334D02*
X157404761Y4408334D01*
X157976190Y4122620D02*
X157642857Y5122620D01*
X157309523Y4122620D01*
X157023809Y4170239D02*
X156880952Y4122620D01*
X156642857Y4122620D01*
X156547619Y4170239D01*
X156500000Y4217858D01*
X156452380Y4313096D01*
X156452380Y4408334D01*
X156500000Y4503572D01*
X156547619Y4551191D01*
X156642857Y4598810D01*
X156833333Y4646429D01*
X156928571Y4694048D01*
X156976190Y4741667D01*
X157023809Y4836905D01*
X157023809Y4932143D01*
X156976190Y5027381D01*
X156928571Y5075000D01*
X156833333Y5122620D01*
X156595238Y5122620D01*
X156452380Y5075000D01*
X156071428Y4170239D02*
X155928571Y4122620D01*
X155690476Y4122620D01*
X155595238Y4170239D01*
X155547619Y4217858D01*
X155500000Y4313096D01*
X155500000Y4408334D01*
X155547619Y4503572D01*
X155595238Y4551191D01*
X155690476Y4598810D01*
X155880952Y4646429D01*
X155976190Y4694048D01*
X156023809Y4741667D01*
X156071428Y4836905D01*
X156071428Y4932143D01*
X156023809Y5027381D01*
X155976190Y5075000D01*
X155880952Y5122620D01*
X155642857Y5122620D01*
X155500000Y5075000D01*
X155071428Y4122620D02*
X155071428Y5122620D01*
X154642857Y4170239D02*
X154500000Y4122620D01*
X154261904Y4122620D01*
X154166666Y4170239D01*
X154119047Y4217858D01*
X154071428Y4313096D01*
X154071428Y4408334D01*
X154119047Y4503572D01*
X154166666Y4551191D01*
X154261904Y4598810D01*
X154452380Y4646429D01*
X154547619Y4694048D01*
X154595238Y4741667D01*
X154642857Y4836905D01*
X154642857Y4932143D01*
X154595238Y5027381D01*
X154547619Y5075000D01*
X154452380Y5122620D01*
X154214285Y5122620D01*
X154071428Y5075000D01*
X157761904Y3425000D02*
X157857142Y3472620D01*
X158000000Y3472620D01*
X158142857Y3425000D01*
X158238095Y3329762D01*
X158285714Y3234524D01*
X158333333Y3044048D01*
X158333333Y2901191D01*
X158285714Y2710715D01*
X158238095Y2615477D01*
X158142857Y2520239D01*
X158000000Y2472620D01*
X157904761Y2472620D01*
X157761904Y2520239D01*
X157714285Y2567858D01*
X157714285Y2901191D01*
X157904761Y2901191D01*
X157285714Y2472620D02*
X157285714Y3472620D01*
X156714285Y2472620D01*
X156714285Y3472620D01*
X156238095Y2472620D02*
X156238095Y3472620D01*
X156000000Y3472620D01*
X155857142Y3425000D01*
X155761904Y3329762D01*
X155714285Y3234524D01*
X155666666Y3044048D01*
X155666666Y2901191D01*
X155714285Y2710715D01*
X155761904Y2615477D01*
X155857142Y2520239D01*
X156000000Y2472620D01*
X156238095Y2472620D01*
D12*
X33368880Y15627100D02*
X33368880Y18227100D01*
X35968880Y15627100D02*
X33368880Y15627100D01*
X41108880Y13027100D02*
X41108880Y18227100D01*
X33368880Y18227100D02*
X41108880Y18227100D01*
X35968880Y13027100D02*
X41108880Y13027100D01*
X34698880Y13027100D02*
X33368880Y13027100D01*
X33368880Y13027100D02*
X33368880Y14357100D01*
X35968880Y13027100D02*
X35968880Y15627100D01*
D11*
X162400000Y1850000D02*
G75*
G03*
X162400000Y1850000I-2000000J0D01*
G01*
D12*
X29963748Y10540000D02*
X30486252Y10540000D01*
X29963748Y11960000D02*
X30486252Y11960000D01*
X30511252Y12540000D02*
X29988748Y12540000D01*
X30511252Y13960000D02*
X29988748Y13960000D01*
X140442960Y4958732D02*
X140442960Y4436228D01*
X139022960Y4958732D02*
X139022960Y4436228D01*
X134238572Y2130740D02*
X133716068Y2130740D01*
X134238572Y3550740D02*
X133716068Y3550740D01*
X136582020Y4807068D02*
X136582020Y5329572D01*
X138002020Y4807068D02*
X138002020Y5329572D01*
X159492820Y10011528D02*
X159492820Y10534032D01*
X160912820Y10011528D02*
X160912820Y10534032D01*
X157186500Y10005288D02*
X157186500Y10527792D01*
X158606500Y10005288D02*
X158606500Y10527792D01*
X138321088Y8841560D02*
X138843592Y8841560D01*
X138321088Y7421560D02*
X138843592Y7421560D01*
X115492540Y5827412D02*
X115492540Y5304908D01*
X114072540Y5827412D02*
X114072540Y5304908D01*
X82991720Y5827412D02*
X82991720Y5304908D01*
X81571720Y5827412D02*
X81571720Y5304908D01*
X151113360Y5276968D02*
X151113360Y5799472D01*
X152533360Y5276968D02*
X152533360Y5799472D01*
X48252140Y5827412D02*
X48252140Y5304908D01*
X46832140Y5827412D02*
X46832140Y5304908D01*
X130172032Y2130740D02*
X129649528Y2130740D01*
X130172032Y3550740D02*
X129649528Y3550740D01*
X94965780Y5596640D02*
X94965780Y3646640D01*
X94965780Y5596640D02*
X94965780Y7546640D01*
X84845780Y5596640D02*
X84845780Y3646640D01*
X84845780Y5596640D02*
X84845780Y9046640D01*
X153705720Y11891820D02*
X154705720Y11891820D01*
X153705720Y8531820D02*
X154705720Y8531820D01*
D10*
X31556900Y18343380D02*
X31556900Y563380D01*
X31556900Y563380D02*
X1076900Y563380D01*
X1076900Y563380D02*
X1076900Y5643380D01*
X1076900Y5643380D02*
X-1463100Y5643380D01*
X-1463100Y5643380D02*
X-1463100Y13263380D01*
X-1463100Y13263380D02*
X1076900Y13263380D01*
X1076900Y13263380D02*
X1076900Y18343380D01*
X1076900Y18343380D02*
X31556900Y18343380D01*
D12*
X132171380Y4146620D02*
X128721380Y4146620D01*
X132171380Y4146620D02*
X134121380Y4146620D01*
X132171380Y9266620D02*
X130221380Y9266620D01*
X132171380Y9266620D02*
X134121380Y9266620D01*
X116877720Y5596640D02*
X116877720Y9046640D01*
X116877720Y5596640D02*
X116877720Y3646640D01*
X126997720Y5596640D02*
X126997720Y7546640D01*
X126997720Y5596640D02*
X126997720Y3646640D01*
X150187760Y5180080D02*
X150187760Y3230080D01*
X150187760Y5180080D02*
X150187760Y7130080D01*
X141317760Y5180080D02*
X141317760Y3230080D01*
X141317760Y5180080D02*
X141317760Y8630080D01*
X50499900Y5596640D02*
X50499900Y9046640D01*
X50499900Y5596640D02*
X50499900Y3646640D01*
X60619900Y5596640D02*
X60619900Y7546640D01*
X60619900Y5596640D02*
X60619900Y3646640D01*
D10*
X30391666Y9147620D02*
X30725000Y9623810D01*
X30963095Y9147620D02*
X30963095Y10147620D01*
X30582142Y10147620D01*
X30486904Y10100000D01*
X30439285Y10052381D01*
X30391666Y9957143D01*
X30391666Y9814286D01*
X30439285Y9719048D01*
X30486904Y9671429D01*
X30582142Y9623810D01*
X30963095Y9623810D01*
X30058333Y10147620D02*
X29391666Y10147620D01*
X29820238Y9147620D01*
X30416666Y14447620D02*
X30750000Y14923810D01*
X30988095Y14447620D02*
X30988095Y15447620D01*
X30607142Y15447620D01*
X30511904Y15400000D01*
X30464285Y15352381D01*
X30416666Y15257143D01*
X30416666Y15114286D01*
X30464285Y15019048D01*
X30511904Y14971429D01*
X30607142Y14923810D01*
X30988095Y14923810D01*
X29559523Y15447620D02*
X29750000Y15447620D01*
X29845238Y15400000D01*
X29892857Y15352381D01*
X29988095Y15209524D01*
X30035714Y15019048D01*
X30035714Y14638096D01*
X29988095Y14542858D01*
X29940476Y14495239D01*
X29845238Y14447620D01*
X29654761Y14447620D01*
X29559523Y14495239D01*
X29511904Y14542858D01*
X29464285Y14638096D01*
X29464285Y14876191D01*
X29511904Y14971429D01*
X29559523Y15019048D01*
X29654761Y15066667D01*
X29845238Y15066667D01*
X29940476Y15019048D01*
X29988095Y14971429D01*
X30035714Y14876191D01*
X139935186Y1786380D02*
X140268520Y2262570D01*
X140506615Y1786380D02*
X140506615Y2786380D01*
X140125662Y2786380D01*
X140030424Y2738760D01*
X139982805Y2691141D01*
X139935186Y2595903D01*
X139935186Y2453046D01*
X139982805Y2357808D01*
X140030424Y2310189D01*
X140125662Y2262570D01*
X140506615Y2262570D01*
X139030424Y2786380D02*
X139506615Y2786380D01*
X139554234Y2310189D01*
X139506615Y2357808D01*
X139411377Y2405427D01*
X139173281Y2405427D01*
X139078043Y2357808D01*
X139030424Y2310189D01*
X138982805Y2214951D01*
X138982805Y1976856D01*
X139030424Y1881618D01*
X139078043Y1833999D01*
X139173281Y1786380D01*
X139411377Y1786380D01*
X139506615Y1833999D01*
X139554234Y1881618D01*
X134143986Y727200D02*
X134477320Y1203390D01*
X134715415Y727200D02*
X134715415Y1727200D01*
X134334462Y1727200D01*
X134239224Y1679580D01*
X134191605Y1631961D01*
X134143986Y1536723D01*
X134143986Y1393866D01*
X134191605Y1298628D01*
X134239224Y1251009D01*
X134334462Y1203390D01*
X134715415Y1203390D01*
X133286843Y1393866D02*
X133286843Y727200D01*
X133524939Y1774819D02*
X133763034Y1060533D01*
X133143986Y1060533D01*
X137296126Y2149600D02*
X137629460Y2625790D01*
X137867555Y2149600D02*
X137867555Y3149600D01*
X137486602Y3149600D01*
X137391364Y3101980D01*
X137343745Y3054361D01*
X137296126Y2959123D01*
X137296126Y2816266D01*
X137343745Y2721028D01*
X137391364Y2673409D01*
X137486602Y2625790D01*
X137867555Y2625790D01*
X136962793Y3149600D02*
X136343745Y3149600D01*
X136677079Y2768647D01*
X136534221Y2768647D01*
X136438983Y2721028D01*
X136391364Y2673409D01*
X136343745Y2578171D01*
X136343745Y2340076D01*
X136391364Y2244838D01*
X136438983Y2197219D01*
X136534221Y2149600D01*
X136819936Y2149600D01*
X136915174Y2197219D01*
X136962793Y2244838D01*
X160415206Y7196580D02*
X160748540Y7672770D01*
X160986635Y7196580D02*
X160986635Y8196580D01*
X160605682Y8196580D01*
X160510444Y8148960D01*
X160462825Y8101341D01*
X160415206Y8006103D01*
X160415206Y7863246D01*
X160462825Y7768008D01*
X160510444Y7720389D01*
X160605682Y7672770D01*
X160986635Y7672770D01*
X160034254Y8101341D02*
X159986635Y8148960D01*
X159891397Y8196580D01*
X159653301Y8196580D01*
X159558063Y8148960D01*
X159510444Y8101341D01*
X159462825Y8006103D01*
X159462825Y7910865D01*
X159510444Y7768008D01*
X160081873Y7196580D01*
X159462825Y7196580D01*
X157908226Y7133080D02*
X158241560Y7609270D01*
X158479655Y7133080D02*
X158479655Y8133080D01*
X158098702Y8133080D01*
X158003464Y8085460D01*
X157955845Y8037841D01*
X157908226Y7942603D01*
X157908226Y7799746D01*
X157955845Y7704508D01*
X158003464Y7656889D01*
X158098702Y7609270D01*
X158479655Y7609270D01*
X156955845Y7133080D02*
X157527274Y7133080D01*
X157241560Y7133080D02*
X157241560Y8133080D01*
X157336798Y7990222D01*
X157432036Y7894984D01*
X157527274Y7847365D01*
X138751546Y8947898D02*
X138799165Y8900279D01*
X138942022Y8852660D01*
X139037260Y8852660D01*
X139180118Y8900279D01*
X139275356Y8995517D01*
X139322975Y9090755D01*
X139370594Y9281231D01*
X139370594Y9424088D01*
X139322975Y9614564D01*
X139275356Y9709802D01*
X139180118Y9805040D01*
X139037260Y9852660D01*
X138942022Y9852660D01*
X138799165Y9805040D01*
X138751546Y9757421D01*
X137894403Y9852660D02*
X138084880Y9852660D01*
X138180118Y9805040D01*
X138227737Y9757421D01*
X138322975Y9614564D01*
X138370594Y9424088D01*
X138370594Y9043136D01*
X138322975Y8947898D01*
X138275356Y8900279D01*
X138180118Y8852660D01*
X137989641Y8852660D01*
X137894403Y8900279D01*
X137846784Y8947898D01*
X137799165Y9043136D01*
X137799165Y9281231D01*
X137846784Y9376469D01*
X137894403Y9424088D01*
X137989641Y9471707D01*
X138180118Y9471707D01*
X138275356Y9424088D01*
X138322975Y9376469D01*
X138370594Y9281231D01*
X114974606Y2727438D02*
X115022225Y2679819D01*
X115165082Y2632200D01*
X115260320Y2632200D01*
X115403178Y2679819D01*
X115498416Y2775057D01*
X115546035Y2870295D01*
X115593654Y3060771D01*
X115593654Y3203628D01*
X115546035Y3394104D01*
X115498416Y3489342D01*
X115403178Y3584580D01*
X115260320Y3632200D01*
X115165082Y3632200D01*
X115022225Y3584580D01*
X114974606Y3536961D01*
X114069844Y3632200D02*
X114546035Y3632200D01*
X114593654Y3156009D01*
X114546035Y3203628D01*
X114450797Y3251247D01*
X114212701Y3251247D01*
X114117463Y3203628D01*
X114069844Y3156009D01*
X114022225Y3060771D01*
X114022225Y2822676D01*
X114069844Y2727438D01*
X114117463Y2679819D01*
X114212701Y2632200D01*
X114450797Y2632200D01*
X114546035Y2679819D01*
X114593654Y2727438D01*
X82399106Y2475978D02*
X82446725Y2428359D01*
X82589582Y2380740D01*
X82684820Y2380740D01*
X82827678Y2428359D01*
X82922916Y2523597D01*
X82970535Y2618835D01*
X83018154Y2809311D01*
X83018154Y2952168D01*
X82970535Y3142644D01*
X82922916Y3237882D01*
X82827678Y3333120D01*
X82684820Y3380740D01*
X82589582Y3380740D01*
X82446725Y3333120D01*
X82399106Y3285501D01*
X81541963Y3047406D02*
X81541963Y2380740D01*
X81780059Y3428359D02*
X82018154Y2714073D01*
X81399106Y2714073D01*
X152005266Y2859518D02*
X152052885Y2811899D01*
X152195742Y2764280D01*
X152290980Y2764280D01*
X152433838Y2811899D01*
X152529076Y2907137D01*
X152576695Y3002375D01*
X152624314Y3192851D01*
X152624314Y3335708D01*
X152576695Y3526184D01*
X152529076Y3621422D01*
X152433838Y3716660D01*
X152290980Y3764280D01*
X152195742Y3764280D01*
X152052885Y3716660D01*
X152005266Y3669041D01*
X151671933Y3764280D02*
X151052885Y3764280D01*
X151386219Y3383327D01*
X151243361Y3383327D01*
X151148123Y3335708D01*
X151100504Y3288089D01*
X151052885Y3192851D01*
X151052885Y2954756D01*
X151100504Y2859518D01*
X151148123Y2811899D01*
X151243361Y2764280D01*
X151529076Y2764280D01*
X151624314Y2811899D01*
X151671933Y2859518D01*
X47603646Y2483598D02*
X47651265Y2435979D01*
X47794122Y2388360D01*
X47889360Y2388360D01*
X48032218Y2435979D01*
X48127456Y2531217D01*
X48175075Y2626455D01*
X48222694Y2816931D01*
X48222694Y2959788D01*
X48175075Y3150264D01*
X48127456Y3245502D01*
X48032218Y3340740D01*
X47889360Y3388360D01*
X47794122Y3388360D01*
X47651265Y3340740D01*
X47603646Y3293121D01*
X47222694Y3293121D02*
X47175075Y3340740D01*
X47079837Y3388360D01*
X46841741Y3388360D01*
X46746503Y3340740D01*
X46698884Y3293121D01*
X46651265Y3197883D01*
X46651265Y3102645D01*
X46698884Y2959788D01*
X47270313Y2388360D01*
X46651265Y2388360D01*
X130029186Y852918D02*
X130076805Y805299D01*
X130219662Y757680D01*
X130314900Y757680D01*
X130457758Y805299D01*
X130552996Y900537D01*
X130600615Y995775D01*
X130648234Y1186251D01*
X130648234Y1329108D01*
X130600615Y1519584D01*
X130552996Y1614822D01*
X130457758Y1710060D01*
X130314900Y1757680D01*
X130219662Y1757680D01*
X130076805Y1710060D01*
X130029186Y1662441D01*
X129076805Y757680D02*
X129648234Y757680D01*
X129362520Y757680D02*
X129362520Y1757680D01*
X129457758Y1614822D01*
X129552996Y1519584D01*
X129648234Y1471965D01*
X94995844Y1531620D02*
X94995844Y722096D01*
X94948225Y626858D01*
X94900606Y579239D01*
X94805368Y531620D01*
X94614892Y531620D01*
X94519654Y579239D01*
X94472035Y626858D01*
X94424416Y722096D01*
X94424416Y1531620D01*
X93519654Y1198286D02*
X93519654Y531620D01*
X93757749Y1579239D02*
X93995844Y864953D01*
X93376797Y864953D01*
X91935096Y1480820D02*
X91268429Y1480820D01*
X91697000Y480820D01*
X90458905Y1147486D02*
X90458905Y480820D01*
X90697000Y1528439D02*
X90935096Y814153D01*
X90316048Y814153D01*
X89982715Y766534D02*
X89506524Y766534D01*
X90077953Y480820D02*
X89744620Y1480820D01*
X89411286Y480820D01*
X89077953Y480820D02*
X89077953Y1480820D01*
X89077953Y1004629D02*
X88506524Y1004629D01*
X88506524Y480820D02*
X88506524Y1480820D01*
X87458905Y576058D02*
X87506524Y528439D01*
X87649381Y480820D01*
X87744620Y480820D01*
X87887477Y528439D01*
X87982715Y623677D01*
X88030334Y718915D01*
X88077953Y909391D01*
X88077953Y1052248D01*
X88030334Y1242724D01*
X87982715Y1337962D01*
X87887477Y1433200D01*
X87744620Y1480820D01*
X87649381Y1480820D01*
X87506524Y1433200D01*
X87458905Y1385581D01*
X86554143Y1480820D02*
X87030334Y1480820D01*
X87077953Y1004629D01*
X87030334Y1052248D01*
X86935096Y1099867D01*
X86697000Y1099867D01*
X86601762Y1052248D01*
X86554143Y1004629D01*
X86506524Y909391D01*
X86506524Y671296D01*
X86554143Y576058D01*
X86601762Y528439D01*
X86697000Y480820D01*
X86935096Y480820D01*
X87030334Y528439D01*
X87077953Y576058D01*
X86030334Y480820D02*
X85839858Y480820D01*
X85744620Y528439D01*
X85697000Y576058D01*
X85601762Y718915D01*
X85554143Y909391D01*
X85554143Y1290343D01*
X85601762Y1385581D01*
X85649381Y1433200D01*
X85744620Y1480820D01*
X85935096Y1480820D01*
X86030334Y1433200D01*
X86077953Y1385581D01*
X86125572Y1290343D01*
X86125572Y1052248D01*
X86077953Y957010D01*
X86030334Y909391D01*
X85935096Y861772D01*
X85744620Y861772D01*
X85649381Y909391D01*
X85601762Y957010D01*
X85554143Y1052248D01*
X84649381Y1480820D02*
X85125572Y1480820D01*
X85173191Y1004629D01*
X85125572Y1052248D01*
X85030334Y1099867D01*
X84792239Y1099867D01*
X84697000Y1052248D01*
X84649381Y1004629D01*
X84601762Y909391D01*
X84601762Y671296D01*
X84649381Y576058D01*
X84697000Y528439D01*
X84792239Y480820D01*
X85030334Y480820D01*
X85125572Y528439D01*
X85173191Y576058D01*
X154774276Y6934960D02*
X155107609Y7411150D01*
X155345704Y6934960D02*
X155345704Y7934960D01*
X154964752Y7934960D01*
X154869514Y7887340D01*
X154821895Y7839721D01*
X154774276Y7744483D01*
X154774276Y7601626D01*
X154821895Y7506388D01*
X154869514Y7458769D01*
X154964752Y7411150D01*
X155345704Y7411150D01*
X154345704Y6934960D02*
X154345704Y7934960D01*
X153774276Y6934960D01*
X153774276Y7934960D01*
X152774276Y6934960D02*
X153345704Y6934960D01*
X153059990Y6934960D02*
X153059990Y7934960D01*
X153155228Y7792102D01*
X153250466Y7696864D01*
X153345704Y7649245D01*
X132572604Y4688840D02*
X132572604Y3879316D01*
X132524985Y3784078D01*
X132477366Y3736459D01*
X132382128Y3688840D01*
X132191652Y3688840D01*
X132096414Y3736459D01*
X132048795Y3784078D01*
X132001176Y3879316D01*
X132001176Y4688840D01*
X131001176Y3688840D02*
X131572604Y3688840D01*
X131286890Y3688840D02*
X131286890Y4688840D01*
X131382128Y4545982D01*
X131477366Y4450744D01*
X131572604Y4403125D01*
X135718903Y9030460D02*
X135718903Y10030460D01*
X135385570Y9316174D01*
X135052237Y10030460D01*
X135052237Y9030460D01*
X134004618Y9125698D02*
X134052237Y9078079D01*
X134195094Y9030460D01*
X134290332Y9030460D01*
X134433189Y9078079D01*
X134528427Y9173317D01*
X134576046Y9268555D01*
X134623665Y9459031D01*
X134623665Y9601888D01*
X134576046Y9792364D01*
X134528427Y9887602D01*
X134433189Y9982840D01*
X134290332Y10030460D01*
X134195094Y10030460D01*
X134052237Y9982840D01*
X134004618Y9935221D01*
X133576046Y9030460D02*
X133576046Y10030460D01*
X133195094Y10030460D01*
X133099856Y9982840D01*
X133052237Y9935221D01*
X133004618Y9839983D01*
X133004618Y9697126D01*
X133052237Y9601888D01*
X133099856Y9554269D01*
X133195094Y9506650D01*
X133576046Y9506650D01*
X132147475Y9697126D02*
X132147475Y9030460D01*
X132385570Y10078079D02*
X132623665Y9363793D01*
X132004618Y9363793D01*
X131576046Y9030460D02*
X131385570Y9030460D01*
X131290332Y9078079D01*
X131242713Y9125698D01*
X131147475Y9268555D01*
X131099856Y9459031D01*
X131099856Y9839983D01*
X131147475Y9935221D01*
X131195094Y9982840D01*
X131290332Y10030460D01*
X131480808Y10030460D01*
X131576046Y9982840D01*
X131623665Y9935221D01*
X131671284Y9839983D01*
X131671284Y9601888D01*
X131623665Y9506650D01*
X131576046Y9459031D01*
X131480808Y9411412D01*
X131290332Y9411412D01*
X131195094Y9459031D01*
X131147475Y9506650D01*
X131099856Y9601888D01*
X130718903Y9935221D02*
X130671284Y9982840D01*
X130576046Y10030460D01*
X130337951Y10030460D01*
X130242713Y9982840D01*
X130195094Y9935221D01*
X130147475Y9839983D01*
X130147475Y9744745D01*
X130195094Y9601888D01*
X130766522Y9030460D01*
X130147475Y9030460D01*
X129195094Y9030460D02*
X129766522Y9030460D01*
X129480808Y9030460D02*
X129480808Y10030460D01*
X129576046Y9887602D01*
X129671284Y9792364D01*
X129766522Y9744745D01*
X128766522Y9411412D02*
X128004618Y9411412D01*
X127528427Y9554269D02*
X127195094Y9554269D01*
X127052237Y9030460D02*
X127528427Y9030460D01*
X127528427Y10030460D01*
X127052237Y10030460D01*
X126918564Y1691640D02*
X126918564Y882116D01*
X126870945Y786878D01*
X126823326Y739259D01*
X126728088Y691640D01*
X126537612Y691640D01*
X126442374Y739259D01*
X126394755Y786878D01*
X126347136Y882116D01*
X126347136Y1691640D01*
X125966183Y1691640D02*
X125299517Y1691640D01*
X125728088Y691640D01*
X124248976Y1541780D02*
X123582309Y1541780D01*
X124010880Y541780D01*
X122772785Y1208446D02*
X122772785Y541780D01*
X123010880Y1589399D02*
X123248976Y875113D01*
X122629928Y875113D01*
X122296595Y827494D02*
X121820404Y827494D01*
X122391833Y541780D02*
X122058500Y1541780D01*
X121725166Y541780D01*
X121391833Y541780D02*
X121391833Y1541780D01*
X121391833Y1065589D02*
X120820404Y1065589D01*
X120820404Y541780D02*
X120820404Y1541780D01*
X119772785Y637018D02*
X119820404Y589399D01*
X119963261Y541780D01*
X120058500Y541780D01*
X120201357Y589399D01*
X120296595Y684637D01*
X120344214Y779875D01*
X120391833Y970351D01*
X120391833Y1113208D01*
X120344214Y1303684D01*
X120296595Y1398922D01*
X120201357Y1494160D01*
X120058500Y1541780D01*
X119963261Y1541780D01*
X119820404Y1494160D01*
X119772785Y1446541D01*
X118868023Y1541780D02*
X119344214Y1541780D01*
X119391833Y1065589D01*
X119344214Y1113208D01*
X119248976Y1160827D01*
X119010880Y1160827D01*
X118915642Y1113208D01*
X118868023Y1065589D01*
X118820404Y970351D01*
X118820404Y732256D01*
X118868023Y637018D01*
X118915642Y589399D01*
X119010880Y541780D01*
X119248976Y541780D01*
X119344214Y589399D01*
X119391833Y637018D01*
X118344214Y541780D02*
X118153738Y541780D01*
X118058500Y589399D01*
X118010880Y637018D01*
X117915642Y779875D01*
X117868023Y970351D01*
X117868023Y1351303D01*
X117915642Y1446541D01*
X117963261Y1494160D01*
X118058500Y1541780D01*
X118248976Y1541780D01*
X118344214Y1494160D01*
X118391833Y1446541D01*
X118439452Y1351303D01*
X118439452Y1113208D01*
X118391833Y1017970D01*
X118344214Y970351D01*
X118248976Y922732D01*
X118058500Y922732D01*
X117963261Y970351D01*
X117915642Y1017970D01*
X117868023Y1113208D01*
X116963261Y1541780D02*
X117439452Y1541780D01*
X117487071Y1065589D01*
X117439452Y1113208D01*
X117344214Y1160827D01*
X117106119Y1160827D01*
X117010880Y1113208D01*
X116963261Y1065589D01*
X116915642Y970351D01*
X116915642Y732256D01*
X116963261Y637018D01*
X117010880Y589399D01*
X117106119Y541780D01*
X117344214Y541780D01*
X117439452Y589399D01*
X117487071Y637018D01*
X150393244Y1254760D02*
X150393244Y445236D01*
X150345625Y349998D01*
X150298006Y302379D01*
X150202768Y254760D01*
X150012292Y254760D01*
X149917054Y302379D01*
X149869435Y349998D01*
X149821816Y445236D01*
X149821816Y1254760D01*
X149393244Y1159521D02*
X149345625Y1207140D01*
X149250387Y1254760D01*
X149012292Y1254760D01*
X148917054Y1207140D01*
X148869435Y1159521D01*
X148821816Y1064283D01*
X148821816Y969045D01*
X148869435Y826188D01*
X149440863Y254760D01*
X148821816Y254760D01*
X145900767Y193800D02*
X146376958Y193800D01*
X146376958Y1193800D01*
X145567434Y193800D02*
X145567434Y1193800D01*
X145234100Y479514D01*
X144900767Y1193800D01*
X144900767Y193800D01*
X144519815Y1193800D02*
X143900767Y1193800D01*
X144234100Y812847D01*
X144091243Y812847D01*
X143996005Y765228D01*
X143948386Y717609D01*
X143900767Y622371D01*
X143900767Y384276D01*
X143948386Y289038D01*
X143996005Y241419D01*
X144091243Y193800D01*
X144376958Y193800D01*
X144472196Y241419D01*
X144519815Y289038D01*
X143567434Y1193800D02*
X142948386Y1193800D01*
X143281720Y812847D01*
X143138862Y812847D01*
X143043624Y765228D01*
X142996005Y717609D01*
X142948386Y622371D01*
X142948386Y384276D01*
X142996005Y289038D01*
X143043624Y241419D01*
X143138862Y193800D01*
X143424577Y193800D01*
X143519815Y241419D01*
X143567434Y289038D01*
X142472196Y193800D02*
X142281720Y193800D01*
X142186481Y241419D01*
X142138862Y289038D01*
X142043624Y431895D01*
X141996005Y622371D01*
X141996005Y1003323D01*
X142043624Y1098561D01*
X142091243Y1146180D01*
X142186481Y1193800D01*
X142376958Y1193800D01*
X142472196Y1146180D01*
X142519815Y1098561D01*
X142567434Y1003323D01*
X142567434Y765228D01*
X142519815Y669990D01*
X142472196Y622371D01*
X142376958Y574752D01*
X142186481Y574752D01*
X142091243Y622371D01*
X142043624Y669990D01*
X141996005Y765228D01*
X141615053Y479514D02*
X141138862Y479514D01*
X141710291Y193800D02*
X141376958Y1193800D01*
X141043624Y193800D01*
X60652504Y1506220D02*
X60652504Y696696D01*
X60604885Y601458D01*
X60557266Y553839D01*
X60462028Y506220D01*
X60271552Y506220D01*
X60176314Y553839D01*
X60128695Y601458D01*
X60081076Y696696D01*
X60081076Y1506220D01*
X59700123Y1506220D02*
X59081076Y1506220D01*
X59414409Y1125267D01*
X59271552Y1125267D01*
X59176314Y1077648D01*
X59128695Y1030029D01*
X59081076Y934791D01*
X59081076Y696696D01*
X59128695Y601458D01*
X59176314Y553839D01*
X59271552Y506220D01*
X59557266Y506220D01*
X59652504Y553839D01*
X59700123Y601458D01*
X57622236Y1595120D02*
X56955569Y1595120D01*
X57384140Y595120D01*
X56146045Y1261786D02*
X56146045Y595120D01*
X56384140Y1642739D02*
X56622236Y928453D01*
X56003188Y928453D01*
X55669855Y880834D02*
X55193664Y880834D01*
X55765093Y595120D02*
X55431760Y1595120D01*
X55098426Y595120D01*
X54765093Y595120D02*
X54765093Y1595120D01*
X54765093Y1118929D02*
X54193664Y1118929D01*
X54193664Y595120D02*
X54193664Y1595120D01*
X53146045Y690358D02*
X53193664Y642739D01*
X53336521Y595120D01*
X53431760Y595120D01*
X53574617Y642739D01*
X53669855Y737977D01*
X53717474Y833215D01*
X53765093Y1023691D01*
X53765093Y1166548D01*
X53717474Y1357024D01*
X53669855Y1452262D01*
X53574617Y1547500D01*
X53431760Y1595120D01*
X53336521Y1595120D01*
X53193664Y1547500D01*
X53146045Y1499881D01*
X52241283Y1595120D02*
X52717474Y1595120D01*
X52765093Y1118929D01*
X52717474Y1166548D01*
X52622236Y1214167D01*
X52384140Y1214167D01*
X52288902Y1166548D01*
X52241283Y1118929D01*
X52193664Y1023691D01*
X52193664Y785596D01*
X52241283Y690358D01*
X52288902Y642739D01*
X52384140Y595120D01*
X52622236Y595120D01*
X52717474Y642739D01*
X52765093Y690358D01*
X51717474Y595120D02*
X51526998Y595120D01*
X51431760Y642739D01*
X51384140Y690358D01*
X51288902Y833215D01*
X51241283Y1023691D01*
X51241283Y1404643D01*
X51288902Y1499881D01*
X51336521Y1547500D01*
X51431760Y1595120D01*
X51622236Y1595120D01*
X51717474Y1547500D01*
X51765093Y1499881D01*
X51812712Y1404643D01*
X51812712Y1166548D01*
X51765093Y1071310D01*
X51717474Y1023691D01*
X51622236Y976072D01*
X51431760Y976072D01*
X51336521Y1023691D01*
X51288902Y1071310D01*
X51241283Y1166548D01*
X50336521Y1595120D02*
X50812712Y1595120D01*
X50860331Y1118929D01*
X50812712Y1166548D01*
X50717474Y1214167D01*
X50479379Y1214167D01*
X50384140Y1166548D01*
X50336521Y1118929D01*
X50288902Y1023691D01*
X50288902Y785596D01*
X50336521Y690358D01*
X50384140Y642739D01*
X50479379Y595120D01*
X50717474Y595120D01*
X50812712Y642739D01*
X50860331Y690358D01*
M02*
