G04 #@! TF.GenerationSoftware,KiCad,Pcbnew,5.1.6+dfsg1-1~bpo10+1*
G04 #@! TF.CreationDate,2020-08-19T15:46:29+03:00*
G04 #@! TF.ProjectId,CompactBeamspringP1,436f6d70-6163-4744-9265-616d73707269,0.0.3*
G04 #@! TF.SameCoordinates,Original*
G04 #@! TF.FileFunction,Soldermask,Bot*
G04 #@! TF.FilePolarity,Negative*
%FSLAX46Y46*%
G04 Gerber Fmt 4.6, Leading zero omitted, Abs format (unit mm)*
G04 Created by KiCad (PCBNEW 5.1.6+dfsg1-1~bpo10+1) date 2020-08-19 15:46:29*
%MOMM*%
%LPD*%
G01*
G04 APERTURE LIST*
%ADD10C,0.100000*%
G04 APERTURE END LIST*
D10*
G36*
X268502352Y-122558796D02*
G01*
X268502355Y-122558797D01*
X268502354Y-122558797D01*
X268784580Y-122675699D01*
X269038578Y-122845415D01*
X269254585Y-123061422D01*
X269424301Y-123315420D01*
X269467931Y-123420753D01*
X269541204Y-123597648D01*
X269600800Y-123897259D01*
X269600800Y-124202741D01*
X269541204Y-124502352D01*
X269541203Y-124502354D01*
X269424301Y-124784580D01*
X269254585Y-125038578D01*
X269038578Y-125254585D01*
X268784580Y-125424301D01*
X268585014Y-125506964D01*
X268502352Y-125541204D01*
X268202741Y-125600800D01*
X267897259Y-125600800D01*
X267597648Y-125541204D01*
X267514986Y-125506964D01*
X267315420Y-125424301D01*
X267061422Y-125254585D01*
X266845415Y-125038578D01*
X266675699Y-124784580D01*
X266558797Y-124502354D01*
X266558796Y-124502352D01*
X266499200Y-124202741D01*
X266499200Y-123897259D01*
X266558796Y-123597648D01*
X266632069Y-123420753D01*
X266675699Y-123315420D01*
X266845415Y-123061422D01*
X267061422Y-122845415D01*
X267315420Y-122675699D01*
X267597646Y-122558797D01*
X267597645Y-122558797D01*
X267597648Y-122558796D01*
X267897259Y-122499200D01*
X268202741Y-122499200D01*
X268502352Y-122558796D01*
G37*
G36*
X245810662Y-124195367D02*
G01*
X245910902Y-124236887D01*
X246001114Y-124297166D01*
X246077834Y-124373886D01*
X246138113Y-124464098D01*
X246179633Y-124564338D01*
X246200800Y-124670751D01*
X246200800Y-124779249D01*
X246179633Y-124885662D01*
X246138113Y-124985902D01*
X246077834Y-125076114D01*
X246001114Y-125152834D01*
X245910902Y-125213113D01*
X245810662Y-125254633D01*
X245704249Y-125275800D01*
X245595751Y-125275800D01*
X245489338Y-125254633D01*
X245389098Y-125213113D01*
X245298886Y-125152834D01*
X245222166Y-125076114D01*
X245161887Y-124985902D01*
X245120367Y-124885662D01*
X245099200Y-124779249D01*
X245099200Y-124670751D01*
X245120367Y-124564338D01*
X245161887Y-124464098D01*
X245222166Y-124373886D01*
X245298886Y-124297166D01*
X245389098Y-124236887D01*
X245489338Y-124195367D01*
X245595751Y-124174200D01*
X245704249Y-124174200D01*
X245810662Y-124195367D01*
G37*
G36*
X120405069Y-123248515D02*
G01*
X120559905Y-123312651D01*
X120699254Y-123405760D01*
X120817760Y-123524266D01*
X120910869Y-123663615D01*
X120975005Y-123818451D01*
X121007700Y-123982823D01*
X121007700Y-124150417D01*
X120975005Y-124314789D01*
X120910869Y-124469625D01*
X120817760Y-124608974D01*
X120699254Y-124727480D01*
X120559905Y-124820589D01*
X120405069Y-124884725D01*
X120240697Y-124917420D01*
X120073103Y-124917420D01*
X119908731Y-124884725D01*
X119753895Y-124820589D01*
X119614546Y-124727480D01*
X119496040Y-124608974D01*
X119402931Y-124469625D01*
X119338795Y-124314789D01*
X119306100Y-124150417D01*
X119306100Y-123982823D01*
X119338795Y-123818451D01*
X119402931Y-123663615D01*
X119496040Y-123524266D01*
X119614546Y-123405760D01*
X119753895Y-123312651D01*
X119908731Y-123248515D01*
X120073103Y-123215820D01*
X120240697Y-123215820D01*
X120405069Y-123248515D01*
G37*
G36*
X110847700Y-124917420D02*
G01*
X109146100Y-124917420D01*
X109146100Y-123215820D01*
X110847700Y-123215820D01*
X110847700Y-124917420D01*
G37*
G36*
X112785069Y-123248515D02*
G01*
X112939905Y-123312651D01*
X113079254Y-123405760D01*
X113197760Y-123524266D01*
X113290869Y-123663615D01*
X113355005Y-123818451D01*
X113387700Y-123982823D01*
X113387700Y-124150417D01*
X113355005Y-124314789D01*
X113290869Y-124469625D01*
X113197760Y-124608974D01*
X113079254Y-124727480D01*
X112939905Y-124820589D01*
X112785069Y-124884725D01*
X112620697Y-124917420D01*
X112453103Y-124917420D01*
X112288731Y-124884725D01*
X112133895Y-124820589D01*
X111994546Y-124727480D01*
X111876040Y-124608974D01*
X111782931Y-124469625D01*
X111718795Y-124314789D01*
X111686100Y-124150417D01*
X111686100Y-123982823D01*
X111718795Y-123818451D01*
X111782931Y-123663615D01*
X111876040Y-123524266D01*
X111994546Y-123405760D01*
X112133895Y-123312651D01*
X112288731Y-123248515D01*
X112453103Y-123215820D01*
X112620697Y-123215820D01*
X112785069Y-123248515D01*
G37*
G36*
X115325069Y-123248515D02*
G01*
X115479905Y-123312651D01*
X115619254Y-123405760D01*
X115737760Y-123524266D01*
X115830869Y-123663615D01*
X115895005Y-123818451D01*
X115927700Y-123982823D01*
X115927700Y-124150417D01*
X115895005Y-124314789D01*
X115830869Y-124469625D01*
X115737760Y-124608974D01*
X115619254Y-124727480D01*
X115479905Y-124820589D01*
X115325069Y-124884725D01*
X115160697Y-124917420D01*
X114993103Y-124917420D01*
X114828731Y-124884725D01*
X114673895Y-124820589D01*
X114534546Y-124727480D01*
X114416040Y-124608974D01*
X114322931Y-124469625D01*
X114258795Y-124314789D01*
X114226100Y-124150417D01*
X114226100Y-123982823D01*
X114258795Y-123818451D01*
X114322931Y-123663615D01*
X114416040Y-123524266D01*
X114534546Y-123405760D01*
X114673895Y-123312651D01*
X114828731Y-123248515D01*
X114993103Y-123215820D01*
X115160697Y-123215820D01*
X115325069Y-123248515D01*
G37*
G36*
X117865069Y-123248515D02*
G01*
X118019905Y-123312651D01*
X118159254Y-123405760D01*
X118277760Y-123524266D01*
X118370869Y-123663615D01*
X118435005Y-123818451D01*
X118467700Y-123982823D01*
X118467700Y-124150417D01*
X118435005Y-124314789D01*
X118370869Y-124469625D01*
X118277760Y-124608974D01*
X118159254Y-124727480D01*
X118019905Y-124820589D01*
X117865069Y-124884725D01*
X117700697Y-124917420D01*
X117533103Y-124917420D01*
X117368731Y-124884725D01*
X117213895Y-124820589D01*
X117074546Y-124727480D01*
X116956040Y-124608974D01*
X116862931Y-124469625D01*
X116798795Y-124314789D01*
X116766100Y-124150417D01*
X116766100Y-123982823D01*
X116798795Y-123818451D01*
X116862931Y-123663615D01*
X116956040Y-123524266D01*
X117074546Y-123405760D01*
X117213895Y-123312651D01*
X117368731Y-123248515D01*
X117533103Y-123215820D01*
X117700697Y-123215820D01*
X117865069Y-123248515D01*
G37*
G36*
X122945069Y-123248515D02*
G01*
X123099905Y-123312651D01*
X123239254Y-123405760D01*
X123357760Y-123524266D01*
X123450869Y-123663615D01*
X123515005Y-123818451D01*
X123547700Y-123982823D01*
X123547700Y-124150417D01*
X123515005Y-124314789D01*
X123450869Y-124469625D01*
X123357760Y-124608974D01*
X123239254Y-124727480D01*
X123099905Y-124820589D01*
X122945069Y-124884725D01*
X122780697Y-124917420D01*
X122613103Y-124917420D01*
X122448731Y-124884725D01*
X122293895Y-124820589D01*
X122154546Y-124727480D01*
X122036040Y-124608974D01*
X121942931Y-124469625D01*
X121878795Y-124314789D01*
X121846100Y-124150417D01*
X121846100Y-123982823D01*
X121878795Y-123818451D01*
X121942931Y-123663615D01*
X122036040Y-123524266D01*
X122154546Y-123405760D01*
X122293895Y-123312651D01*
X122448731Y-123248515D01*
X122613103Y-123215820D01*
X122780697Y-123215820D01*
X122945069Y-123248515D01*
G37*
G36*
X125485069Y-123248515D02*
G01*
X125639905Y-123312651D01*
X125779254Y-123405760D01*
X125897760Y-123524266D01*
X125990869Y-123663615D01*
X126055005Y-123818451D01*
X126087700Y-123982823D01*
X126087700Y-124150417D01*
X126055005Y-124314789D01*
X125990869Y-124469625D01*
X125897760Y-124608974D01*
X125779254Y-124727480D01*
X125639905Y-124820589D01*
X125485069Y-124884725D01*
X125320697Y-124917420D01*
X125153103Y-124917420D01*
X124988731Y-124884725D01*
X124833895Y-124820589D01*
X124694546Y-124727480D01*
X124576040Y-124608974D01*
X124482931Y-124469625D01*
X124418795Y-124314789D01*
X124386100Y-124150417D01*
X124386100Y-123982823D01*
X124418795Y-123818451D01*
X124482931Y-123663615D01*
X124576040Y-123524266D01*
X124694546Y-123405760D01*
X124833895Y-123312651D01*
X124988731Y-123248515D01*
X125153103Y-123215820D01*
X125320697Y-123215820D01*
X125485069Y-123248515D01*
G37*
G36*
X128025069Y-123248515D02*
G01*
X128179905Y-123312651D01*
X128319254Y-123405760D01*
X128437760Y-123524266D01*
X128530869Y-123663615D01*
X128595005Y-123818451D01*
X128627700Y-123982823D01*
X128627700Y-124150417D01*
X128595005Y-124314789D01*
X128530869Y-124469625D01*
X128437760Y-124608974D01*
X128319254Y-124727480D01*
X128179905Y-124820589D01*
X128025069Y-124884725D01*
X127860697Y-124917420D01*
X127693103Y-124917420D01*
X127528731Y-124884725D01*
X127373895Y-124820589D01*
X127234546Y-124727480D01*
X127116040Y-124608974D01*
X127022931Y-124469625D01*
X126958795Y-124314789D01*
X126926100Y-124150417D01*
X126926100Y-123982823D01*
X126958795Y-123818451D01*
X127022931Y-123663615D01*
X127116040Y-123524266D01*
X127234546Y-123405760D01*
X127373895Y-123312651D01*
X127528731Y-123248515D01*
X127693103Y-123215820D01*
X127860697Y-123215820D01*
X128025069Y-123248515D01*
G37*
G36*
X133105069Y-123248515D02*
G01*
X133259905Y-123312651D01*
X133399254Y-123405760D01*
X133517760Y-123524266D01*
X133610869Y-123663615D01*
X133675005Y-123818451D01*
X133707700Y-123982823D01*
X133707700Y-124150417D01*
X133675005Y-124314789D01*
X133610869Y-124469625D01*
X133517760Y-124608974D01*
X133399254Y-124727480D01*
X133259905Y-124820589D01*
X133105069Y-124884725D01*
X132940697Y-124917420D01*
X132773103Y-124917420D01*
X132608731Y-124884725D01*
X132453895Y-124820589D01*
X132314546Y-124727480D01*
X132196040Y-124608974D01*
X132102931Y-124469625D01*
X132038795Y-124314789D01*
X132006100Y-124150417D01*
X132006100Y-123982823D01*
X132038795Y-123818451D01*
X132102931Y-123663615D01*
X132196040Y-123524266D01*
X132314546Y-123405760D01*
X132453895Y-123312651D01*
X132608731Y-123248515D01*
X132773103Y-123215820D01*
X132940697Y-123215820D01*
X133105069Y-123248515D01*
G37*
G36*
X135645069Y-123248515D02*
G01*
X135799905Y-123312651D01*
X135939254Y-123405760D01*
X136057760Y-123524266D01*
X136150869Y-123663615D01*
X136215005Y-123818451D01*
X136247700Y-123982823D01*
X136247700Y-124150417D01*
X136215005Y-124314789D01*
X136150869Y-124469625D01*
X136057760Y-124608974D01*
X135939254Y-124727480D01*
X135799905Y-124820589D01*
X135645069Y-124884725D01*
X135480697Y-124917420D01*
X135313103Y-124917420D01*
X135148731Y-124884725D01*
X134993895Y-124820589D01*
X134854546Y-124727480D01*
X134736040Y-124608974D01*
X134642931Y-124469625D01*
X134578795Y-124314789D01*
X134546100Y-124150417D01*
X134546100Y-123982823D01*
X134578795Y-123818451D01*
X134642931Y-123663615D01*
X134736040Y-123524266D01*
X134854546Y-123405760D01*
X134993895Y-123312651D01*
X135148731Y-123248515D01*
X135313103Y-123215820D01*
X135480697Y-123215820D01*
X135645069Y-123248515D01*
G37*
G36*
X138185069Y-123248515D02*
G01*
X138339905Y-123312651D01*
X138479254Y-123405760D01*
X138597760Y-123524266D01*
X138690869Y-123663615D01*
X138755005Y-123818451D01*
X138787700Y-123982823D01*
X138787700Y-124150417D01*
X138755005Y-124314789D01*
X138690869Y-124469625D01*
X138597760Y-124608974D01*
X138479254Y-124727480D01*
X138339905Y-124820589D01*
X138185069Y-124884725D01*
X138020697Y-124917420D01*
X137853103Y-124917420D01*
X137688731Y-124884725D01*
X137533895Y-124820589D01*
X137394546Y-124727480D01*
X137276040Y-124608974D01*
X137182931Y-124469625D01*
X137118795Y-124314789D01*
X137086100Y-124150417D01*
X137086100Y-123982823D01*
X137118795Y-123818451D01*
X137182931Y-123663615D01*
X137276040Y-123524266D01*
X137394546Y-123405760D01*
X137533895Y-123312651D01*
X137688731Y-123248515D01*
X137853103Y-123215820D01*
X138020697Y-123215820D01*
X138185069Y-123248515D01*
G37*
G36*
X130565069Y-123248515D02*
G01*
X130719905Y-123312651D01*
X130859254Y-123405760D01*
X130977760Y-123524266D01*
X131070869Y-123663615D01*
X131135005Y-123818451D01*
X131167700Y-123982823D01*
X131167700Y-124150417D01*
X131135005Y-124314789D01*
X131070869Y-124469625D01*
X130977760Y-124608974D01*
X130859254Y-124727480D01*
X130719905Y-124820589D01*
X130565069Y-124884725D01*
X130400697Y-124917420D01*
X130233103Y-124917420D01*
X130068731Y-124884725D01*
X129913895Y-124820589D01*
X129774546Y-124727480D01*
X129656040Y-124608974D01*
X129562931Y-124469625D01*
X129498795Y-124314789D01*
X129466100Y-124150417D01*
X129466100Y-123982823D01*
X129498795Y-123818451D01*
X129562931Y-123663615D01*
X129656040Y-123524266D01*
X129774546Y-123405760D01*
X129913895Y-123312651D01*
X130068731Y-123248515D01*
X130233103Y-123215820D01*
X130400697Y-123215820D01*
X130565069Y-123248515D01*
G37*
G36*
X264711183Y-123453823D02*
G01*
X264842943Y-123508400D01*
X264961523Y-123587633D01*
X265062367Y-123688477D01*
X265141600Y-123807057D01*
X265196177Y-123938817D01*
X265224000Y-124078692D01*
X265224000Y-124221308D01*
X265196177Y-124361183D01*
X265141600Y-124492943D01*
X265062367Y-124611523D01*
X264961523Y-124712367D01*
X264842943Y-124791600D01*
X264711183Y-124846177D01*
X264571308Y-124874000D01*
X264428692Y-124874000D01*
X264288817Y-124846177D01*
X264157057Y-124791600D01*
X264038477Y-124712367D01*
X263937633Y-124611523D01*
X263858400Y-124492943D01*
X263803823Y-124361183D01*
X263776000Y-124221308D01*
X263776000Y-124078692D01*
X263803823Y-123938817D01*
X263858400Y-123807057D01*
X263937633Y-123688477D01*
X264038477Y-123587633D01*
X264157057Y-123508400D01*
X264288817Y-123453823D01*
X264428692Y-123426000D01*
X264571308Y-123426000D01*
X264711183Y-123453823D01*
G37*
G36*
X253632654Y-122172244D02*
G01*
X253660779Y-122180776D01*
X253686695Y-122194628D01*
X253709409Y-122213271D01*
X253728052Y-122235985D01*
X253741904Y-122261901D01*
X253750436Y-122290026D01*
X253753560Y-122321751D01*
X253753560Y-124068089D01*
X253750436Y-124099814D01*
X253741904Y-124127939D01*
X253728052Y-124153855D01*
X253709409Y-124176569D01*
X253686695Y-124195212D01*
X253660779Y-124209064D01*
X253632654Y-124217596D01*
X253600929Y-124220720D01*
X253204591Y-124220720D01*
X253172866Y-124217596D01*
X253144741Y-124209064D01*
X253118825Y-124195212D01*
X253096111Y-124176569D01*
X253077468Y-124153855D01*
X253063616Y-124127939D01*
X253055084Y-124099814D01*
X253051960Y-124068089D01*
X253051960Y-122321751D01*
X253055084Y-122290026D01*
X253063616Y-122261901D01*
X253077468Y-122235985D01*
X253096111Y-122213271D01*
X253118825Y-122194628D01*
X253144741Y-122180776D01*
X253172866Y-122172244D01*
X253204591Y-122169120D01*
X253600929Y-122169120D01*
X253632654Y-122172244D01*
G37*
G36*
X252362654Y-122172244D02*
G01*
X252390779Y-122180776D01*
X252416695Y-122194628D01*
X252439409Y-122213271D01*
X252458052Y-122235985D01*
X252471904Y-122261901D01*
X252480436Y-122290026D01*
X252483560Y-122321751D01*
X252483560Y-124068089D01*
X252480436Y-124099814D01*
X252471904Y-124127939D01*
X252458052Y-124153855D01*
X252439409Y-124176569D01*
X252416695Y-124195212D01*
X252390779Y-124209064D01*
X252362654Y-124217596D01*
X252330929Y-124220720D01*
X251934591Y-124220720D01*
X251902866Y-124217596D01*
X251874741Y-124209064D01*
X251848825Y-124195212D01*
X251826111Y-124176569D01*
X251807468Y-124153855D01*
X251793616Y-124127939D01*
X251785084Y-124099814D01*
X251781960Y-124068089D01*
X251781960Y-122321751D01*
X251785084Y-122290026D01*
X251793616Y-122261901D01*
X251807468Y-122235985D01*
X251826111Y-122213271D01*
X251848825Y-122194628D01*
X251874741Y-122180776D01*
X251902866Y-122172244D01*
X251934591Y-122169120D01*
X252330929Y-122169120D01*
X252362654Y-122172244D01*
G37*
G36*
X249822654Y-122172244D02*
G01*
X249850779Y-122180776D01*
X249876695Y-122194628D01*
X249899409Y-122213271D01*
X249918052Y-122235985D01*
X249931904Y-122261901D01*
X249940436Y-122290026D01*
X249943560Y-122321751D01*
X249943560Y-124068089D01*
X249940436Y-124099814D01*
X249931904Y-124127939D01*
X249918052Y-124153855D01*
X249899409Y-124176569D01*
X249876695Y-124195212D01*
X249850779Y-124209064D01*
X249822654Y-124217596D01*
X249790929Y-124220720D01*
X249394591Y-124220720D01*
X249362866Y-124217596D01*
X249334741Y-124209064D01*
X249308825Y-124195212D01*
X249286111Y-124176569D01*
X249267468Y-124153855D01*
X249253616Y-124127939D01*
X249245084Y-124099814D01*
X249241960Y-124068089D01*
X249241960Y-122321751D01*
X249245084Y-122290026D01*
X249253616Y-122261901D01*
X249267468Y-122235985D01*
X249286111Y-122213271D01*
X249308825Y-122194628D01*
X249334741Y-122180776D01*
X249362866Y-122172244D01*
X249394591Y-122169120D01*
X249790929Y-122169120D01*
X249822654Y-122172244D01*
G37*
G36*
X256172654Y-122172244D02*
G01*
X256200779Y-122180776D01*
X256226695Y-122194628D01*
X256249409Y-122213271D01*
X256268052Y-122235985D01*
X256281904Y-122261901D01*
X256290436Y-122290026D01*
X256293560Y-122321751D01*
X256293560Y-124068089D01*
X256290436Y-124099814D01*
X256281904Y-124127939D01*
X256268052Y-124153855D01*
X256249409Y-124176569D01*
X256226695Y-124195212D01*
X256200779Y-124209064D01*
X256172654Y-124217596D01*
X256140929Y-124220720D01*
X255744591Y-124220720D01*
X255712866Y-124217596D01*
X255684741Y-124209064D01*
X255658825Y-124195212D01*
X255636111Y-124176569D01*
X255617468Y-124153855D01*
X255603616Y-124127939D01*
X255595084Y-124099814D01*
X255591960Y-124068089D01*
X255591960Y-122321751D01*
X255595084Y-122290026D01*
X255603616Y-122261901D01*
X255617468Y-122235985D01*
X255636111Y-122213271D01*
X255658825Y-122194628D01*
X255684741Y-122180776D01*
X255712866Y-122172244D01*
X255744591Y-122169120D01*
X256140929Y-122169120D01*
X256172654Y-122172244D01*
G37*
G36*
X257442654Y-122172244D02*
G01*
X257470779Y-122180776D01*
X257496695Y-122194628D01*
X257519409Y-122213271D01*
X257538052Y-122235985D01*
X257551904Y-122261901D01*
X257560436Y-122290026D01*
X257563560Y-122321751D01*
X257563560Y-124068089D01*
X257560436Y-124099814D01*
X257551904Y-124127939D01*
X257538052Y-124153855D01*
X257519409Y-124176569D01*
X257496695Y-124195212D01*
X257470779Y-124209064D01*
X257442654Y-124217596D01*
X257410929Y-124220720D01*
X257014591Y-124220720D01*
X256982866Y-124217596D01*
X256954741Y-124209064D01*
X256928825Y-124195212D01*
X256906111Y-124176569D01*
X256887468Y-124153855D01*
X256873616Y-124127939D01*
X256865084Y-124099814D01*
X256861960Y-124068089D01*
X256861960Y-122321751D01*
X256865084Y-122290026D01*
X256873616Y-122261901D01*
X256887468Y-122235985D01*
X256906111Y-122213271D01*
X256928825Y-122194628D01*
X256954741Y-122180776D01*
X256982866Y-122172244D01*
X257014591Y-122169120D01*
X257410929Y-122169120D01*
X257442654Y-122172244D01*
G37*
G36*
X251092654Y-122172244D02*
G01*
X251120779Y-122180776D01*
X251146695Y-122194628D01*
X251169409Y-122213271D01*
X251188052Y-122235985D01*
X251201904Y-122261901D01*
X251210436Y-122290026D01*
X251213560Y-122321751D01*
X251213560Y-124068089D01*
X251210436Y-124099814D01*
X251201904Y-124127939D01*
X251188052Y-124153855D01*
X251169409Y-124176569D01*
X251146695Y-124195212D01*
X251120779Y-124209064D01*
X251092654Y-124217596D01*
X251060929Y-124220720D01*
X250664591Y-124220720D01*
X250632866Y-124217596D01*
X250604741Y-124209064D01*
X250578825Y-124195212D01*
X250556111Y-124176569D01*
X250537468Y-124153855D01*
X250523616Y-124127939D01*
X250515084Y-124099814D01*
X250511960Y-124068089D01*
X250511960Y-122321751D01*
X250515084Y-122290026D01*
X250523616Y-122261901D01*
X250537468Y-122235985D01*
X250556111Y-122213271D01*
X250578825Y-122194628D01*
X250604741Y-122180776D01*
X250632866Y-122172244D01*
X250664591Y-122169120D01*
X251060929Y-122169120D01*
X251092654Y-122172244D01*
G37*
G36*
X254902654Y-122172244D02*
G01*
X254930779Y-122180776D01*
X254956695Y-122194628D01*
X254979409Y-122213271D01*
X254998052Y-122235985D01*
X255011904Y-122261901D01*
X255020436Y-122290026D01*
X255023560Y-122321751D01*
X255023560Y-124068089D01*
X255020436Y-124099814D01*
X255011904Y-124127939D01*
X254998052Y-124153855D01*
X254979409Y-124176569D01*
X254956695Y-124195212D01*
X254930779Y-124209064D01*
X254902654Y-124217596D01*
X254870929Y-124220720D01*
X254474591Y-124220720D01*
X254442866Y-124217596D01*
X254414741Y-124209064D01*
X254388825Y-124195212D01*
X254366111Y-124176569D01*
X254347468Y-124153855D01*
X254333616Y-124127939D01*
X254325084Y-124099814D01*
X254321960Y-124068089D01*
X254321960Y-122321751D01*
X254325084Y-122290026D01*
X254333616Y-122261901D01*
X254347468Y-122235985D01*
X254366111Y-122213271D01*
X254388825Y-122194628D01*
X254414741Y-122180776D01*
X254442866Y-122172244D01*
X254474591Y-122169120D01*
X254870929Y-122169120D01*
X254902654Y-122172244D01*
G37*
G36*
X261660662Y-122945367D02*
G01*
X261760902Y-122986887D01*
X261851114Y-123047166D01*
X261927834Y-123123886D01*
X261988113Y-123214098D01*
X262029633Y-123314338D01*
X262050800Y-123420751D01*
X262050800Y-123529249D01*
X262029633Y-123635662D01*
X261988113Y-123735902D01*
X261927834Y-123826114D01*
X261851114Y-123902834D01*
X261760902Y-123963113D01*
X261660662Y-124004633D01*
X261554249Y-124025800D01*
X261445751Y-124025800D01*
X261339338Y-124004633D01*
X261239098Y-123963113D01*
X261148886Y-123902834D01*
X261072166Y-123826114D01*
X261011887Y-123735902D01*
X260970367Y-123635662D01*
X260949200Y-123529249D01*
X260949200Y-123420751D01*
X260970367Y-123314338D01*
X261011887Y-123214098D01*
X261072166Y-123123886D01*
X261148886Y-123047166D01*
X261239098Y-122986887D01*
X261339338Y-122945367D01*
X261445751Y-122924200D01*
X261554249Y-122924200D01*
X261660662Y-122945367D01*
G37*
G36*
X241032046Y-122313380D02*
G01*
X241077682Y-122327224D01*
X241119747Y-122349708D01*
X241156615Y-122379965D01*
X241186872Y-122416833D01*
X241209356Y-122458898D01*
X241223200Y-122504534D01*
X241228120Y-122554486D01*
X241228120Y-123564034D01*
X241223200Y-123613986D01*
X241209356Y-123659622D01*
X241186872Y-123701687D01*
X241156615Y-123738555D01*
X241119747Y-123768812D01*
X241077682Y-123791296D01*
X241032046Y-123805140D01*
X240982094Y-123810060D01*
X240222546Y-123810060D01*
X240172594Y-123805140D01*
X240126958Y-123791296D01*
X240084893Y-123768812D01*
X240048025Y-123738555D01*
X240017768Y-123701687D01*
X239995284Y-123659622D01*
X239981440Y-123613986D01*
X239976520Y-123564034D01*
X239976520Y-122554486D01*
X239981440Y-122504534D01*
X239995284Y-122458898D01*
X240017768Y-122416833D01*
X240048025Y-122379965D01*
X240084893Y-122349708D01*
X240126958Y-122327224D01*
X240172594Y-122313380D01*
X240222546Y-122308460D01*
X240982094Y-122308460D01*
X241032046Y-122313380D01*
G37*
G36*
X239015506Y-122313380D02*
G01*
X239061142Y-122327224D01*
X239103207Y-122349708D01*
X239140075Y-122379965D01*
X239170332Y-122416833D01*
X239192816Y-122458898D01*
X239206660Y-122504534D01*
X239211580Y-122554486D01*
X239211580Y-123564034D01*
X239206660Y-123613986D01*
X239192816Y-123659622D01*
X239170332Y-123701687D01*
X239140075Y-123738555D01*
X239103207Y-123768812D01*
X239061142Y-123791296D01*
X239015506Y-123805140D01*
X238965554Y-123810060D01*
X238206006Y-123810060D01*
X238156054Y-123805140D01*
X238110418Y-123791296D01*
X238068353Y-123768812D01*
X238031485Y-123738555D01*
X238001228Y-123701687D01*
X237978744Y-123659622D01*
X237964900Y-123613986D01*
X237959980Y-123564034D01*
X237959980Y-122554486D01*
X237964900Y-122504534D01*
X237978744Y-122458898D01*
X238001228Y-122416833D01*
X238031485Y-122379965D01*
X238068353Y-122349708D01*
X238110418Y-122327224D01*
X238156054Y-122313380D01*
X238206006Y-122308460D01*
X238965554Y-122308460D01*
X239015506Y-122313380D01*
G37*
G36*
X236965506Y-122313380D02*
G01*
X237011142Y-122327224D01*
X237053207Y-122349708D01*
X237090075Y-122379965D01*
X237120332Y-122416833D01*
X237142816Y-122458898D01*
X237156660Y-122504534D01*
X237161580Y-122554486D01*
X237161580Y-123564034D01*
X237156660Y-123613986D01*
X237142816Y-123659622D01*
X237120332Y-123701687D01*
X237090075Y-123738555D01*
X237053207Y-123768812D01*
X237011142Y-123791296D01*
X236965506Y-123805140D01*
X236915554Y-123810060D01*
X236156006Y-123810060D01*
X236106054Y-123805140D01*
X236060418Y-123791296D01*
X236018353Y-123768812D01*
X235981485Y-123738555D01*
X235951228Y-123701687D01*
X235928744Y-123659622D01*
X235914900Y-123613986D01*
X235909980Y-123564034D01*
X235909980Y-122554486D01*
X235914900Y-122504534D01*
X235928744Y-122458898D01*
X235951228Y-122416833D01*
X235981485Y-122379965D01*
X236018353Y-122349708D01*
X236060418Y-122327224D01*
X236106054Y-122313380D01*
X236156006Y-122308460D01*
X236915554Y-122308460D01*
X236965506Y-122313380D01*
G37*
G36*
X243082046Y-122313380D02*
G01*
X243127682Y-122327224D01*
X243169747Y-122349708D01*
X243206615Y-122379965D01*
X243236872Y-122416833D01*
X243259356Y-122458898D01*
X243273200Y-122504534D01*
X243278120Y-122554486D01*
X243278120Y-123564034D01*
X243273200Y-123613986D01*
X243259356Y-123659622D01*
X243236872Y-123701687D01*
X243206615Y-123738555D01*
X243169747Y-123768812D01*
X243127682Y-123791296D01*
X243082046Y-123805140D01*
X243032094Y-123810060D01*
X242272546Y-123810060D01*
X242222594Y-123805140D01*
X242176958Y-123791296D01*
X242134893Y-123768812D01*
X242098025Y-123738555D01*
X242067768Y-123701687D01*
X242045284Y-123659622D01*
X242031440Y-123613986D01*
X242026520Y-123564034D01*
X242026520Y-122554486D01*
X242031440Y-122504534D01*
X242045284Y-122458898D01*
X242067768Y-122416833D01*
X242098025Y-122379965D01*
X242134893Y-122349708D01*
X242176958Y-122327224D01*
X242222594Y-122313380D01*
X242272546Y-122308460D01*
X243032094Y-122308460D01*
X243082046Y-122313380D01*
G37*
G36*
X202230674Y-121755684D02*
G01*
X202258799Y-121764216D01*
X202284715Y-121778068D01*
X202307429Y-121796711D01*
X202326072Y-121819425D01*
X202339924Y-121845341D01*
X202348456Y-121873466D01*
X202351580Y-121905191D01*
X202351580Y-123651529D01*
X202348456Y-123683254D01*
X202339924Y-123711379D01*
X202326072Y-123737295D01*
X202307429Y-123760009D01*
X202284715Y-123778652D01*
X202258799Y-123792504D01*
X202230674Y-123801036D01*
X202198949Y-123804160D01*
X201802611Y-123804160D01*
X201770886Y-123801036D01*
X201742761Y-123792504D01*
X201716845Y-123778652D01*
X201694131Y-123760009D01*
X201675488Y-123737295D01*
X201661636Y-123711379D01*
X201653104Y-123683254D01*
X201649980Y-123651529D01*
X201649980Y-121905191D01*
X201653104Y-121873466D01*
X201661636Y-121845341D01*
X201675488Y-121819425D01*
X201694131Y-121796711D01*
X201716845Y-121778068D01*
X201742761Y-121764216D01*
X201770886Y-121755684D01*
X201802611Y-121752560D01*
X202198949Y-121752560D01*
X202230674Y-121755684D01*
G37*
G36*
X229182614Y-121755684D02*
G01*
X229210739Y-121764216D01*
X229236655Y-121778068D01*
X229259369Y-121796711D01*
X229278012Y-121819425D01*
X229291864Y-121845341D01*
X229300396Y-121873466D01*
X229303520Y-121905191D01*
X229303520Y-123651529D01*
X229300396Y-123683254D01*
X229291864Y-123711379D01*
X229278012Y-123737295D01*
X229259369Y-123760009D01*
X229236655Y-123778652D01*
X229210739Y-123792504D01*
X229182614Y-123801036D01*
X229150889Y-123804160D01*
X228754551Y-123804160D01*
X228722826Y-123801036D01*
X228694701Y-123792504D01*
X228668785Y-123778652D01*
X228646071Y-123760009D01*
X228627428Y-123737295D01*
X228613576Y-123711379D01*
X228605044Y-123683254D01*
X228601920Y-123651529D01*
X228601920Y-121905191D01*
X228605044Y-121873466D01*
X228613576Y-121845341D01*
X228627428Y-121819425D01*
X228646071Y-121796711D01*
X228668785Y-121778068D01*
X228694701Y-121764216D01*
X228722826Y-121755684D01*
X228754551Y-121752560D01*
X229150889Y-121752560D01*
X229182614Y-121755684D01*
G37*
G36*
X227912614Y-121755684D02*
G01*
X227940739Y-121764216D01*
X227966655Y-121778068D01*
X227989369Y-121796711D01*
X228008012Y-121819425D01*
X228021864Y-121845341D01*
X228030396Y-121873466D01*
X228033520Y-121905191D01*
X228033520Y-123651529D01*
X228030396Y-123683254D01*
X228021864Y-123711379D01*
X228008012Y-123737295D01*
X227989369Y-123760009D01*
X227966655Y-123778652D01*
X227940739Y-123792504D01*
X227912614Y-123801036D01*
X227880889Y-123804160D01*
X227484551Y-123804160D01*
X227452826Y-123801036D01*
X227424701Y-123792504D01*
X227398785Y-123778652D01*
X227376071Y-123760009D01*
X227357428Y-123737295D01*
X227343576Y-123711379D01*
X227335044Y-123683254D01*
X227331920Y-123651529D01*
X227331920Y-121905191D01*
X227335044Y-121873466D01*
X227343576Y-121845341D01*
X227357428Y-121819425D01*
X227376071Y-121796711D01*
X227398785Y-121778068D01*
X227424701Y-121764216D01*
X227452826Y-121755684D01*
X227484551Y-121752560D01*
X227880889Y-121752560D01*
X227912614Y-121755684D01*
G37*
G36*
X226642614Y-121755684D02*
G01*
X226670739Y-121764216D01*
X226696655Y-121778068D01*
X226719369Y-121796711D01*
X226738012Y-121819425D01*
X226751864Y-121845341D01*
X226760396Y-121873466D01*
X226763520Y-121905191D01*
X226763520Y-123651529D01*
X226760396Y-123683254D01*
X226751864Y-123711379D01*
X226738012Y-123737295D01*
X226719369Y-123760009D01*
X226696655Y-123778652D01*
X226670739Y-123792504D01*
X226642614Y-123801036D01*
X226610889Y-123804160D01*
X226214551Y-123804160D01*
X226182826Y-123801036D01*
X226154701Y-123792504D01*
X226128785Y-123778652D01*
X226106071Y-123760009D01*
X226087428Y-123737295D01*
X226073576Y-123711379D01*
X226065044Y-123683254D01*
X226061920Y-123651529D01*
X226061920Y-121905191D01*
X226065044Y-121873466D01*
X226073576Y-121845341D01*
X226087428Y-121819425D01*
X226106071Y-121796711D01*
X226128785Y-121778068D01*
X226154701Y-121764216D01*
X226182826Y-121755684D01*
X226214551Y-121752560D01*
X226610889Y-121752560D01*
X226642614Y-121755684D01*
G37*
G36*
X225372614Y-121755684D02*
G01*
X225400739Y-121764216D01*
X225426655Y-121778068D01*
X225449369Y-121796711D01*
X225468012Y-121819425D01*
X225481864Y-121845341D01*
X225490396Y-121873466D01*
X225493520Y-121905191D01*
X225493520Y-123651529D01*
X225490396Y-123683254D01*
X225481864Y-123711379D01*
X225468012Y-123737295D01*
X225449369Y-123760009D01*
X225426655Y-123778652D01*
X225400739Y-123792504D01*
X225372614Y-123801036D01*
X225340889Y-123804160D01*
X224944551Y-123804160D01*
X224912826Y-123801036D01*
X224884701Y-123792504D01*
X224858785Y-123778652D01*
X224836071Y-123760009D01*
X224817428Y-123737295D01*
X224803576Y-123711379D01*
X224795044Y-123683254D01*
X224791920Y-123651529D01*
X224791920Y-121905191D01*
X224795044Y-121873466D01*
X224803576Y-121845341D01*
X224817428Y-121819425D01*
X224836071Y-121796711D01*
X224858785Y-121778068D01*
X224884701Y-121764216D01*
X224912826Y-121755684D01*
X224944551Y-121752560D01*
X225340889Y-121752560D01*
X225372614Y-121755684D01*
G37*
G36*
X193340674Y-121755684D02*
G01*
X193368799Y-121764216D01*
X193394715Y-121778068D01*
X193417429Y-121796711D01*
X193436072Y-121819425D01*
X193449924Y-121845341D01*
X193458456Y-121873466D01*
X193461580Y-121905191D01*
X193461580Y-123651529D01*
X193458456Y-123683254D01*
X193449924Y-123711379D01*
X193436072Y-123737295D01*
X193417429Y-123760009D01*
X193394715Y-123778652D01*
X193368799Y-123792504D01*
X193340674Y-123801036D01*
X193308949Y-123804160D01*
X192912611Y-123804160D01*
X192880886Y-123801036D01*
X192852761Y-123792504D01*
X192826845Y-123778652D01*
X192804131Y-123760009D01*
X192785488Y-123737295D01*
X192771636Y-123711379D01*
X192763104Y-123683254D01*
X192759980Y-123651529D01*
X192759980Y-121905191D01*
X192763104Y-121873466D01*
X192771636Y-121845341D01*
X192785488Y-121819425D01*
X192804131Y-121796711D01*
X192826845Y-121778068D01*
X192852761Y-121764216D01*
X192880886Y-121755684D01*
X192912611Y-121752560D01*
X193308949Y-121752560D01*
X193340674Y-121755684D01*
G37*
G36*
X195880674Y-121755684D02*
G01*
X195908799Y-121764216D01*
X195934715Y-121778068D01*
X195957429Y-121796711D01*
X195976072Y-121819425D01*
X195989924Y-121845341D01*
X195998456Y-121873466D01*
X196001580Y-121905191D01*
X196001580Y-123651529D01*
X195998456Y-123683254D01*
X195989924Y-123711379D01*
X195976072Y-123737295D01*
X195957429Y-123760009D01*
X195934715Y-123778652D01*
X195908799Y-123792504D01*
X195880674Y-123801036D01*
X195848949Y-123804160D01*
X195452611Y-123804160D01*
X195420886Y-123801036D01*
X195392761Y-123792504D01*
X195366845Y-123778652D01*
X195344131Y-123760009D01*
X195325488Y-123737295D01*
X195311636Y-123711379D01*
X195303104Y-123683254D01*
X195299980Y-123651529D01*
X195299980Y-121905191D01*
X195303104Y-121873466D01*
X195311636Y-121845341D01*
X195325488Y-121819425D01*
X195344131Y-121796711D01*
X195366845Y-121778068D01*
X195392761Y-121764216D01*
X195420886Y-121755684D01*
X195452611Y-121752560D01*
X195848949Y-121752560D01*
X195880674Y-121755684D01*
G37*
G36*
X197150674Y-121755684D02*
G01*
X197178799Y-121764216D01*
X197204715Y-121778068D01*
X197227429Y-121796711D01*
X197246072Y-121819425D01*
X197259924Y-121845341D01*
X197268456Y-121873466D01*
X197271580Y-121905191D01*
X197271580Y-123651529D01*
X197268456Y-123683254D01*
X197259924Y-123711379D01*
X197246072Y-123737295D01*
X197227429Y-123760009D01*
X197204715Y-123778652D01*
X197178799Y-123792504D01*
X197150674Y-123801036D01*
X197118949Y-123804160D01*
X196722611Y-123804160D01*
X196690886Y-123801036D01*
X196662761Y-123792504D01*
X196636845Y-123778652D01*
X196614131Y-123760009D01*
X196595488Y-123737295D01*
X196581636Y-123711379D01*
X196573104Y-123683254D01*
X196569980Y-123651529D01*
X196569980Y-121905191D01*
X196573104Y-121873466D01*
X196581636Y-121845341D01*
X196595488Y-121819425D01*
X196614131Y-121796711D01*
X196636845Y-121778068D01*
X196662761Y-121764216D01*
X196690886Y-121755684D01*
X196722611Y-121752560D01*
X197118949Y-121752560D01*
X197150674Y-121755684D01*
G37*
G36*
X198420674Y-121755684D02*
G01*
X198448799Y-121764216D01*
X198474715Y-121778068D01*
X198497429Y-121796711D01*
X198516072Y-121819425D01*
X198529924Y-121845341D01*
X198538456Y-121873466D01*
X198541580Y-121905191D01*
X198541580Y-123651529D01*
X198538456Y-123683254D01*
X198529924Y-123711379D01*
X198516072Y-123737295D01*
X198497429Y-123760009D01*
X198474715Y-123778652D01*
X198448799Y-123792504D01*
X198420674Y-123801036D01*
X198388949Y-123804160D01*
X197992611Y-123804160D01*
X197960886Y-123801036D01*
X197932761Y-123792504D01*
X197906845Y-123778652D01*
X197884131Y-123760009D01*
X197865488Y-123737295D01*
X197851636Y-123711379D01*
X197843104Y-123683254D01*
X197839980Y-123651529D01*
X197839980Y-121905191D01*
X197843104Y-121873466D01*
X197851636Y-121845341D01*
X197865488Y-121819425D01*
X197884131Y-121796711D01*
X197906845Y-121778068D01*
X197932761Y-121764216D01*
X197960886Y-121755684D01*
X197992611Y-121752560D01*
X198388949Y-121752560D01*
X198420674Y-121755684D01*
G37*
G36*
X199690674Y-121755684D02*
G01*
X199718799Y-121764216D01*
X199744715Y-121778068D01*
X199767429Y-121796711D01*
X199786072Y-121819425D01*
X199799924Y-121845341D01*
X199808456Y-121873466D01*
X199811580Y-121905191D01*
X199811580Y-123651529D01*
X199808456Y-123683254D01*
X199799924Y-123711379D01*
X199786072Y-123737295D01*
X199767429Y-123760009D01*
X199744715Y-123778652D01*
X199718799Y-123792504D01*
X199690674Y-123801036D01*
X199658949Y-123804160D01*
X199262611Y-123804160D01*
X199230886Y-123801036D01*
X199202761Y-123792504D01*
X199176845Y-123778652D01*
X199154131Y-123760009D01*
X199135488Y-123737295D01*
X199121636Y-123711379D01*
X199113104Y-123683254D01*
X199109980Y-123651529D01*
X199109980Y-121905191D01*
X199113104Y-121873466D01*
X199121636Y-121845341D01*
X199135488Y-121819425D01*
X199154131Y-121796711D01*
X199176845Y-121778068D01*
X199202761Y-121764216D01*
X199230886Y-121755684D01*
X199262611Y-121752560D01*
X199658949Y-121752560D01*
X199690674Y-121755684D01*
G37*
G36*
X200960674Y-121755684D02*
G01*
X200988799Y-121764216D01*
X201014715Y-121778068D01*
X201037429Y-121796711D01*
X201056072Y-121819425D01*
X201069924Y-121845341D01*
X201078456Y-121873466D01*
X201081580Y-121905191D01*
X201081580Y-123651529D01*
X201078456Y-123683254D01*
X201069924Y-123711379D01*
X201056072Y-123737295D01*
X201037429Y-123760009D01*
X201014715Y-123778652D01*
X200988799Y-123792504D01*
X200960674Y-123801036D01*
X200928949Y-123804160D01*
X200532611Y-123804160D01*
X200500886Y-123801036D01*
X200472761Y-123792504D01*
X200446845Y-123778652D01*
X200424131Y-123760009D01*
X200405488Y-123737295D01*
X200391636Y-123711379D01*
X200383104Y-123683254D01*
X200379980Y-123651529D01*
X200379980Y-121905191D01*
X200383104Y-121873466D01*
X200391636Y-121845341D01*
X200405488Y-121819425D01*
X200424131Y-121796711D01*
X200446845Y-121778068D01*
X200472761Y-121764216D01*
X200500886Y-121755684D01*
X200532611Y-121752560D01*
X200928949Y-121752560D01*
X200960674Y-121755684D01*
G37*
G36*
X194610674Y-121755684D02*
G01*
X194638799Y-121764216D01*
X194664715Y-121778068D01*
X194687429Y-121796711D01*
X194706072Y-121819425D01*
X194719924Y-121845341D01*
X194728456Y-121873466D01*
X194731580Y-121905191D01*
X194731580Y-123651529D01*
X194728456Y-123683254D01*
X194719924Y-123711379D01*
X194706072Y-123737295D01*
X194687429Y-123760009D01*
X194664715Y-123778652D01*
X194638799Y-123792504D01*
X194610674Y-123801036D01*
X194578949Y-123804160D01*
X194182611Y-123804160D01*
X194150886Y-123801036D01*
X194122761Y-123792504D01*
X194096845Y-123778652D01*
X194074131Y-123760009D01*
X194055488Y-123737295D01*
X194041636Y-123711379D01*
X194033104Y-123683254D01*
X194029980Y-123651529D01*
X194029980Y-121905191D01*
X194033104Y-121873466D01*
X194041636Y-121845341D01*
X194055488Y-121819425D01*
X194074131Y-121796711D01*
X194096845Y-121778068D01*
X194122761Y-121764216D01*
X194150886Y-121755684D01*
X194182611Y-121752560D01*
X194578949Y-121752560D01*
X194610674Y-121755684D01*
G37*
G36*
X231722614Y-121755684D02*
G01*
X231750739Y-121764216D01*
X231776655Y-121778068D01*
X231799369Y-121796711D01*
X231818012Y-121819425D01*
X231831864Y-121845341D01*
X231840396Y-121873466D01*
X231843520Y-121905191D01*
X231843520Y-123651529D01*
X231840396Y-123683254D01*
X231831864Y-123711379D01*
X231818012Y-123737295D01*
X231799369Y-123760009D01*
X231776655Y-123778652D01*
X231750739Y-123792504D01*
X231722614Y-123801036D01*
X231690889Y-123804160D01*
X231294551Y-123804160D01*
X231262826Y-123801036D01*
X231234701Y-123792504D01*
X231208785Y-123778652D01*
X231186071Y-123760009D01*
X231167428Y-123737295D01*
X231153576Y-123711379D01*
X231145044Y-123683254D01*
X231141920Y-123651529D01*
X231141920Y-121905191D01*
X231145044Y-121873466D01*
X231153576Y-121845341D01*
X231167428Y-121819425D01*
X231186071Y-121796711D01*
X231208785Y-121778068D01*
X231234701Y-121764216D01*
X231262826Y-121755684D01*
X231294551Y-121752560D01*
X231690889Y-121752560D01*
X231722614Y-121755684D01*
G37*
G36*
X230452614Y-121755684D02*
G01*
X230480739Y-121764216D01*
X230506655Y-121778068D01*
X230529369Y-121796711D01*
X230548012Y-121819425D01*
X230561864Y-121845341D01*
X230570396Y-121873466D01*
X230573520Y-121905191D01*
X230573520Y-123651529D01*
X230570396Y-123683254D01*
X230561864Y-123711379D01*
X230548012Y-123737295D01*
X230529369Y-123760009D01*
X230506655Y-123778652D01*
X230480739Y-123792504D01*
X230452614Y-123801036D01*
X230420889Y-123804160D01*
X230024551Y-123804160D01*
X229992826Y-123801036D01*
X229964701Y-123792504D01*
X229938785Y-123778652D01*
X229916071Y-123760009D01*
X229897428Y-123737295D01*
X229883576Y-123711379D01*
X229875044Y-123683254D01*
X229871920Y-123651529D01*
X229871920Y-121905191D01*
X229875044Y-121873466D01*
X229883576Y-121845341D01*
X229897428Y-121819425D01*
X229916071Y-121796711D01*
X229938785Y-121778068D01*
X229964701Y-121764216D01*
X229992826Y-121755684D01*
X230024551Y-121752560D01*
X230420889Y-121752560D01*
X230452614Y-121755684D01*
G37*
G36*
X167884794Y-121755684D02*
G01*
X167912919Y-121764216D01*
X167938835Y-121778068D01*
X167961549Y-121796711D01*
X167980192Y-121819425D01*
X167994044Y-121845341D01*
X168002576Y-121873466D01*
X168005700Y-121905191D01*
X168005700Y-123651529D01*
X168002576Y-123683254D01*
X167994044Y-123711379D01*
X167980192Y-123737295D01*
X167961549Y-123760009D01*
X167938835Y-123778652D01*
X167912919Y-123792504D01*
X167884794Y-123801036D01*
X167853069Y-123804160D01*
X167456731Y-123804160D01*
X167425006Y-123801036D01*
X167396881Y-123792504D01*
X167370965Y-123778652D01*
X167348251Y-123760009D01*
X167329608Y-123737295D01*
X167315756Y-123711379D01*
X167307224Y-123683254D01*
X167304100Y-123651529D01*
X167304100Y-121905191D01*
X167307224Y-121873466D01*
X167315756Y-121845341D01*
X167329608Y-121819425D01*
X167348251Y-121796711D01*
X167370965Y-121778068D01*
X167396881Y-121764216D01*
X167425006Y-121755684D01*
X167456731Y-121752560D01*
X167853069Y-121752560D01*
X167884794Y-121755684D01*
G37*
G36*
X166614794Y-121755684D02*
G01*
X166642919Y-121764216D01*
X166668835Y-121778068D01*
X166691549Y-121796711D01*
X166710192Y-121819425D01*
X166724044Y-121845341D01*
X166732576Y-121873466D01*
X166735700Y-121905191D01*
X166735700Y-123651529D01*
X166732576Y-123683254D01*
X166724044Y-123711379D01*
X166710192Y-123737295D01*
X166691549Y-123760009D01*
X166668835Y-123778652D01*
X166642919Y-123792504D01*
X166614794Y-123801036D01*
X166583069Y-123804160D01*
X166186731Y-123804160D01*
X166155006Y-123801036D01*
X166126881Y-123792504D01*
X166100965Y-123778652D01*
X166078251Y-123760009D01*
X166059608Y-123737295D01*
X166045756Y-123711379D01*
X166037224Y-123683254D01*
X166034100Y-123651529D01*
X166034100Y-121905191D01*
X166037224Y-121873466D01*
X166045756Y-121845341D01*
X166059608Y-121819425D01*
X166078251Y-121796711D01*
X166100965Y-121778068D01*
X166126881Y-121764216D01*
X166155006Y-121755684D01*
X166186731Y-121752560D01*
X166583069Y-121752560D01*
X166614794Y-121755684D01*
G37*
G36*
X165344794Y-121755684D02*
G01*
X165372919Y-121764216D01*
X165398835Y-121778068D01*
X165421549Y-121796711D01*
X165440192Y-121819425D01*
X165454044Y-121845341D01*
X165462576Y-121873466D01*
X165465700Y-121905191D01*
X165465700Y-123651529D01*
X165462576Y-123683254D01*
X165454044Y-123711379D01*
X165440192Y-123737295D01*
X165421549Y-123760009D01*
X165398835Y-123778652D01*
X165372919Y-123792504D01*
X165344794Y-123801036D01*
X165313069Y-123804160D01*
X164916731Y-123804160D01*
X164885006Y-123801036D01*
X164856881Y-123792504D01*
X164830965Y-123778652D01*
X164808251Y-123760009D01*
X164789608Y-123737295D01*
X164775756Y-123711379D01*
X164767224Y-123683254D01*
X164764100Y-123651529D01*
X164764100Y-121905191D01*
X164767224Y-121873466D01*
X164775756Y-121845341D01*
X164789608Y-121819425D01*
X164808251Y-121796711D01*
X164830965Y-121778068D01*
X164856881Y-121764216D01*
X164885006Y-121755684D01*
X164916731Y-121752560D01*
X165313069Y-121752560D01*
X165344794Y-121755684D01*
G37*
G36*
X164074794Y-121755684D02*
G01*
X164102919Y-121764216D01*
X164128835Y-121778068D01*
X164151549Y-121796711D01*
X164170192Y-121819425D01*
X164184044Y-121845341D01*
X164192576Y-121873466D01*
X164195700Y-121905191D01*
X164195700Y-123651529D01*
X164192576Y-123683254D01*
X164184044Y-123711379D01*
X164170192Y-123737295D01*
X164151549Y-123760009D01*
X164128835Y-123778652D01*
X164102919Y-123792504D01*
X164074794Y-123801036D01*
X164043069Y-123804160D01*
X163646731Y-123804160D01*
X163615006Y-123801036D01*
X163586881Y-123792504D01*
X163560965Y-123778652D01*
X163538251Y-123760009D01*
X163519608Y-123737295D01*
X163505756Y-123711379D01*
X163497224Y-123683254D01*
X163494100Y-123651529D01*
X163494100Y-121905191D01*
X163497224Y-121873466D01*
X163505756Y-121845341D01*
X163519608Y-121819425D01*
X163538251Y-121796711D01*
X163560965Y-121778068D01*
X163586881Y-121764216D01*
X163615006Y-121755684D01*
X163646731Y-121752560D01*
X164043069Y-121752560D01*
X164074794Y-121755684D01*
G37*
G36*
X161534794Y-121755684D02*
G01*
X161562919Y-121764216D01*
X161588835Y-121778068D01*
X161611549Y-121796711D01*
X161630192Y-121819425D01*
X161644044Y-121845341D01*
X161652576Y-121873466D01*
X161655700Y-121905191D01*
X161655700Y-123651529D01*
X161652576Y-123683254D01*
X161644044Y-123711379D01*
X161630192Y-123737295D01*
X161611549Y-123760009D01*
X161588835Y-123778652D01*
X161562919Y-123792504D01*
X161534794Y-123801036D01*
X161503069Y-123804160D01*
X161106731Y-123804160D01*
X161075006Y-123801036D01*
X161046881Y-123792504D01*
X161020965Y-123778652D01*
X160998251Y-123760009D01*
X160979608Y-123737295D01*
X160965756Y-123711379D01*
X160957224Y-123683254D01*
X160954100Y-123651529D01*
X160954100Y-121905191D01*
X160957224Y-121873466D01*
X160965756Y-121845341D01*
X160979608Y-121819425D01*
X160998251Y-121796711D01*
X161020965Y-121778068D01*
X161046881Y-121764216D01*
X161075006Y-121755684D01*
X161106731Y-121752560D01*
X161503069Y-121752560D01*
X161534794Y-121755684D01*
G37*
G36*
X162804794Y-121755684D02*
G01*
X162832919Y-121764216D01*
X162858835Y-121778068D01*
X162881549Y-121796711D01*
X162900192Y-121819425D01*
X162914044Y-121845341D01*
X162922576Y-121873466D01*
X162925700Y-121905191D01*
X162925700Y-123651529D01*
X162922576Y-123683254D01*
X162914044Y-123711379D01*
X162900192Y-123737295D01*
X162881549Y-123760009D01*
X162858835Y-123778652D01*
X162832919Y-123792504D01*
X162804794Y-123801036D01*
X162773069Y-123804160D01*
X162376731Y-123804160D01*
X162345006Y-123801036D01*
X162316881Y-123792504D01*
X162290965Y-123778652D01*
X162268251Y-123760009D01*
X162249608Y-123737295D01*
X162235756Y-123711379D01*
X162227224Y-123683254D01*
X162224100Y-123651529D01*
X162224100Y-121905191D01*
X162227224Y-121873466D01*
X162235756Y-121845341D01*
X162249608Y-121819425D01*
X162268251Y-121796711D01*
X162290965Y-121778068D01*
X162316881Y-121764216D01*
X162345006Y-121755684D01*
X162376731Y-121752560D01*
X162773069Y-121752560D01*
X162804794Y-121755684D01*
G37*
G36*
X158994794Y-121755684D02*
G01*
X159022919Y-121764216D01*
X159048835Y-121778068D01*
X159071549Y-121796711D01*
X159090192Y-121819425D01*
X159104044Y-121845341D01*
X159112576Y-121873466D01*
X159115700Y-121905191D01*
X159115700Y-123651529D01*
X159112576Y-123683254D01*
X159104044Y-123711379D01*
X159090192Y-123737295D01*
X159071549Y-123760009D01*
X159048835Y-123778652D01*
X159022919Y-123792504D01*
X158994794Y-123801036D01*
X158963069Y-123804160D01*
X158566731Y-123804160D01*
X158535006Y-123801036D01*
X158506881Y-123792504D01*
X158480965Y-123778652D01*
X158458251Y-123760009D01*
X158439608Y-123737295D01*
X158425756Y-123711379D01*
X158417224Y-123683254D01*
X158414100Y-123651529D01*
X158414100Y-121905191D01*
X158417224Y-121873466D01*
X158425756Y-121845341D01*
X158439608Y-121819425D01*
X158458251Y-121796711D01*
X158480965Y-121778068D01*
X158506881Y-121764216D01*
X158535006Y-121755684D01*
X158566731Y-121752560D01*
X158963069Y-121752560D01*
X158994794Y-121755684D01*
G37*
G36*
X234262614Y-121755684D02*
G01*
X234290739Y-121764216D01*
X234316655Y-121778068D01*
X234339369Y-121796711D01*
X234358012Y-121819425D01*
X234371864Y-121845341D01*
X234380396Y-121873466D01*
X234383520Y-121905191D01*
X234383520Y-123651529D01*
X234380396Y-123683254D01*
X234371864Y-123711379D01*
X234358012Y-123737295D01*
X234339369Y-123760009D01*
X234316655Y-123778652D01*
X234290739Y-123792504D01*
X234262614Y-123801036D01*
X234230889Y-123804160D01*
X233834551Y-123804160D01*
X233802826Y-123801036D01*
X233774701Y-123792504D01*
X233748785Y-123778652D01*
X233726071Y-123760009D01*
X233707428Y-123737295D01*
X233693576Y-123711379D01*
X233685044Y-123683254D01*
X233681920Y-123651529D01*
X233681920Y-121905191D01*
X233685044Y-121873466D01*
X233693576Y-121845341D01*
X233707428Y-121819425D01*
X233726071Y-121796711D01*
X233748785Y-121778068D01*
X233774701Y-121764216D01*
X233802826Y-121755684D01*
X233834551Y-121752560D01*
X234230889Y-121752560D01*
X234262614Y-121755684D01*
G37*
G36*
X232992614Y-121755684D02*
G01*
X233020739Y-121764216D01*
X233046655Y-121778068D01*
X233069369Y-121796711D01*
X233088012Y-121819425D01*
X233101864Y-121845341D01*
X233110396Y-121873466D01*
X233113520Y-121905191D01*
X233113520Y-123651529D01*
X233110396Y-123683254D01*
X233101864Y-123711379D01*
X233088012Y-123737295D01*
X233069369Y-123760009D01*
X233046655Y-123778652D01*
X233020739Y-123792504D01*
X232992614Y-123801036D01*
X232960889Y-123804160D01*
X232564551Y-123804160D01*
X232532826Y-123801036D01*
X232504701Y-123792504D01*
X232478785Y-123778652D01*
X232456071Y-123760009D01*
X232437428Y-123737295D01*
X232423576Y-123711379D01*
X232415044Y-123683254D01*
X232411920Y-123651529D01*
X232411920Y-121905191D01*
X232415044Y-121873466D01*
X232423576Y-121845341D01*
X232437428Y-121819425D01*
X232456071Y-121796711D01*
X232478785Y-121778068D01*
X232504701Y-121764216D01*
X232532826Y-121755684D01*
X232564551Y-121752560D01*
X232960889Y-121752560D01*
X232992614Y-121755684D01*
G37*
G36*
X160264794Y-121755684D02*
G01*
X160292919Y-121764216D01*
X160318835Y-121778068D01*
X160341549Y-121796711D01*
X160360192Y-121819425D01*
X160374044Y-121845341D01*
X160382576Y-121873466D01*
X160385700Y-121905191D01*
X160385700Y-123651529D01*
X160382576Y-123683254D01*
X160374044Y-123711379D01*
X160360192Y-123737295D01*
X160341549Y-123760009D01*
X160318835Y-123778652D01*
X160292919Y-123792504D01*
X160264794Y-123801036D01*
X160233069Y-123804160D01*
X159836731Y-123804160D01*
X159805006Y-123801036D01*
X159776881Y-123792504D01*
X159750965Y-123778652D01*
X159728251Y-123760009D01*
X159709608Y-123737295D01*
X159695756Y-123711379D01*
X159687224Y-123683254D01*
X159684100Y-123651529D01*
X159684100Y-121905191D01*
X159687224Y-121873466D01*
X159695756Y-121845341D01*
X159709608Y-121819425D01*
X159728251Y-121796711D01*
X159750965Y-121778068D01*
X159776881Y-121764216D01*
X159805006Y-121755684D01*
X159836731Y-121752560D01*
X160233069Y-121752560D01*
X160264794Y-121755684D01*
G37*
G36*
X247937686Y-121606640D02*
G01*
X247983322Y-121620484D01*
X248025387Y-121642968D01*
X248062255Y-121673225D01*
X248092512Y-121710093D01*
X248114996Y-121752158D01*
X248128840Y-121797794D01*
X248133760Y-121847746D01*
X248133760Y-122607294D01*
X248128840Y-122657246D01*
X248114996Y-122702882D01*
X248092512Y-122744947D01*
X248062255Y-122781815D01*
X248025387Y-122812072D01*
X247983322Y-122834556D01*
X247937686Y-122848400D01*
X247887734Y-122853320D01*
X246878186Y-122853320D01*
X246828234Y-122848400D01*
X246782598Y-122834556D01*
X246740533Y-122812072D01*
X246703665Y-122781815D01*
X246673408Y-122744947D01*
X246650924Y-122702882D01*
X246637080Y-122657246D01*
X246632160Y-122607294D01*
X246632160Y-121847746D01*
X246637080Y-121797794D01*
X246650924Y-121752158D01*
X246673408Y-121710093D01*
X246703665Y-121673225D01*
X246740533Y-121642968D01*
X246782598Y-121620484D01*
X246828234Y-121606640D01*
X246878186Y-121601720D01*
X247887734Y-121601720D01*
X247937686Y-121606640D01*
G37*
G36*
X245496746Y-121235800D02*
G01*
X245542382Y-121249644D01*
X245584447Y-121272128D01*
X245621315Y-121302385D01*
X245651572Y-121339253D01*
X245674056Y-121381318D01*
X245687900Y-121426954D01*
X245692820Y-121476906D01*
X245692820Y-122236454D01*
X245687900Y-122286406D01*
X245674056Y-122332042D01*
X245651572Y-122374107D01*
X245621315Y-122410975D01*
X245584447Y-122441232D01*
X245542382Y-122463716D01*
X245496746Y-122477560D01*
X245446794Y-122482480D01*
X244437246Y-122482480D01*
X244387294Y-122477560D01*
X244341658Y-122463716D01*
X244299593Y-122441232D01*
X244262725Y-122410975D01*
X244232468Y-122374107D01*
X244209984Y-122332042D01*
X244196140Y-122286406D01*
X244191220Y-122236454D01*
X244191220Y-121476906D01*
X244196140Y-121426954D01*
X244209984Y-121381318D01*
X244232468Y-121339253D01*
X244262725Y-121302385D01*
X244299593Y-121272128D01*
X244341658Y-121249644D01*
X244387294Y-121235800D01*
X244437246Y-121230880D01*
X245446794Y-121230880D01*
X245496746Y-121235800D01*
G37*
G36*
X260028086Y-120765900D02*
G01*
X260073722Y-120779744D01*
X260115787Y-120802228D01*
X260152655Y-120832485D01*
X260182912Y-120869353D01*
X260205396Y-120911418D01*
X260219240Y-120957054D01*
X260224160Y-121007006D01*
X260224160Y-121766554D01*
X260219240Y-121816506D01*
X260205396Y-121862142D01*
X260182912Y-121904207D01*
X260152655Y-121941075D01*
X260115787Y-121971332D01*
X260073722Y-121993816D01*
X260028086Y-122007660D01*
X259978134Y-122012580D01*
X258968586Y-122012580D01*
X258918634Y-122007660D01*
X258872998Y-121993816D01*
X258830933Y-121971332D01*
X258794065Y-121941075D01*
X258763808Y-121904207D01*
X258741324Y-121862142D01*
X258727480Y-121816506D01*
X258722560Y-121766554D01*
X258722560Y-121007006D01*
X258727480Y-120957054D01*
X258741324Y-120911418D01*
X258763808Y-120869353D01*
X258794065Y-120832485D01*
X258830933Y-120802228D01*
X258872998Y-120779744D01*
X258918634Y-120765900D01*
X258968586Y-120760980D01*
X259978134Y-120760980D01*
X260028086Y-120765900D01*
G37*
G36*
X155746866Y-120737960D02*
G01*
X155792502Y-120751804D01*
X155834567Y-120774288D01*
X155871435Y-120804545D01*
X155901692Y-120841413D01*
X155924176Y-120883478D01*
X155938020Y-120929114D01*
X155942940Y-120979066D01*
X155942940Y-121738614D01*
X155938020Y-121788566D01*
X155924176Y-121834202D01*
X155901692Y-121876267D01*
X155871435Y-121913135D01*
X155834567Y-121943392D01*
X155792502Y-121965876D01*
X155746866Y-121979720D01*
X155696914Y-121984640D01*
X154687366Y-121984640D01*
X154637414Y-121979720D01*
X154591778Y-121965876D01*
X154549713Y-121943392D01*
X154512845Y-121913135D01*
X154482588Y-121876267D01*
X154460104Y-121834202D01*
X154446260Y-121788566D01*
X154441340Y-121738614D01*
X154441340Y-120979066D01*
X154446260Y-120929114D01*
X154460104Y-120883478D01*
X154482588Y-120841413D01*
X154512845Y-120804545D01*
X154549713Y-120774288D01*
X154591778Y-120751804D01*
X154637414Y-120737960D01*
X154687366Y-120733040D01*
X155696914Y-120733040D01*
X155746866Y-120737960D01*
G37*
G36*
X222987266Y-120737960D02*
G01*
X223032902Y-120751804D01*
X223074967Y-120774288D01*
X223111835Y-120804545D01*
X223142092Y-120841413D01*
X223164576Y-120883478D01*
X223178420Y-120929114D01*
X223183340Y-120979066D01*
X223183340Y-121738614D01*
X223178420Y-121788566D01*
X223164576Y-121834202D01*
X223142092Y-121876267D01*
X223111835Y-121913135D01*
X223074967Y-121943392D01*
X223032902Y-121965876D01*
X222987266Y-121979720D01*
X222937314Y-121984640D01*
X221927766Y-121984640D01*
X221877814Y-121979720D01*
X221832178Y-121965876D01*
X221790113Y-121943392D01*
X221753245Y-121913135D01*
X221722988Y-121876267D01*
X221700504Y-121834202D01*
X221686660Y-121788566D01*
X221681740Y-121738614D01*
X221681740Y-120979066D01*
X221686660Y-120929114D01*
X221700504Y-120883478D01*
X221722988Y-120841413D01*
X221753245Y-120804545D01*
X221790113Y-120774288D01*
X221832178Y-120751804D01*
X221877814Y-120737960D01*
X221927766Y-120733040D01*
X222937314Y-120733040D01*
X222987266Y-120737960D01*
G37*
G36*
X190486446Y-120737960D02*
G01*
X190532082Y-120751804D01*
X190574147Y-120774288D01*
X190611015Y-120804545D01*
X190641272Y-120841413D01*
X190663756Y-120883478D01*
X190677600Y-120929114D01*
X190682520Y-120979066D01*
X190682520Y-121738614D01*
X190677600Y-121788566D01*
X190663756Y-121834202D01*
X190641272Y-121876267D01*
X190611015Y-121913135D01*
X190574147Y-121943392D01*
X190532082Y-121965876D01*
X190486446Y-121979720D01*
X190436494Y-121984640D01*
X189426946Y-121984640D01*
X189376994Y-121979720D01*
X189331358Y-121965876D01*
X189289293Y-121943392D01*
X189252425Y-121913135D01*
X189222168Y-121876267D01*
X189199684Y-121834202D01*
X189185840Y-121788566D01*
X189180920Y-121738614D01*
X189180920Y-120979066D01*
X189185840Y-120929114D01*
X189199684Y-120883478D01*
X189222168Y-120841413D01*
X189252425Y-120804545D01*
X189289293Y-120774288D01*
X189331358Y-120751804D01*
X189376994Y-120737960D01*
X189426946Y-120733040D01*
X190436494Y-120733040D01*
X190486446Y-120737960D01*
G37*
G36*
X110361183Y-120503823D02*
G01*
X110492943Y-120558400D01*
X110611523Y-120637633D01*
X110712367Y-120738477D01*
X110791600Y-120857057D01*
X110846177Y-120988817D01*
X110874000Y-121128692D01*
X110874000Y-121271308D01*
X110846177Y-121411183D01*
X110791600Y-121542943D01*
X110712367Y-121661523D01*
X110611523Y-121762367D01*
X110492943Y-121841600D01*
X110361183Y-121896177D01*
X110221308Y-121924000D01*
X110078692Y-121924000D01*
X109938817Y-121896177D01*
X109807057Y-121841600D01*
X109688477Y-121762367D01*
X109587633Y-121661523D01*
X109508400Y-121542943D01*
X109453823Y-121411183D01*
X109426000Y-121271308D01*
X109426000Y-121128692D01*
X109453823Y-120988817D01*
X109508400Y-120857057D01*
X109587633Y-120738477D01*
X109688477Y-120637633D01*
X109807057Y-120558400D01*
X109938817Y-120503823D01*
X110078692Y-120476000D01*
X110221308Y-120476000D01*
X110361183Y-120503823D01*
G37*
G36*
X243201274Y-120750704D02*
G01*
X243229399Y-120759236D01*
X243255315Y-120773088D01*
X243278029Y-120791731D01*
X243296672Y-120814445D01*
X243310524Y-120840361D01*
X243319056Y-120868486D01*
X243322180Y-120900211D01*
X243322180Y-121296549D01*
X243319056Y-121328274D01*
X243310524Y-121356399D01*
X243296672Y-121382315D01*
X243278029Y-121405029D01*
X243255315Y-121423672D01*
X243229399Y-121437524D01*
X243201274Y-121446056D01*
X243169549Y-121449180D01*
X241423211Y-121449180D01*
X241391486Y-121446056D01*
X241363361Y-121437524D01*
X241337445Y-121423672D01*
X241314731Y-121405029D01*
X241296088Y-121382315D01*
X241282236Y-121356399D01*
X241273704Y-121328274D01*
X241270580Y-121296549D01*
X241270580Y-120900211D01*
X241273704Y-120868486D01*
X241282236Y-120840361D01*
X241296088Y-120814445D01*
X241314731Y-120791731D01*
X241337445Y-120773088D01*
X241363361Y-120759236D01*
X241391486Y-120750704D01*
X241423211Y-120747580D01*
X243169549Y-120747580D01*
X243201274Y-120750704D01*
G37*
G36*
X238251274Y-120750704D02*
G01*
X238279399Y-120759236D01*
X238305315Y-120773088D01*
X238328029Y-120791731D01*
X238346672Y-120814445D01*
X238360524Y-120840361D01*
X238369056Y-120868486D01*
X238372180Y-120900211D01*
X238372180Y-121296549D01*
X238369056Y-121328274D01*
X238360524Y-121356399D01*
X238346672Y-121382315D01*
X238328029Y-121405029D01*
X238305315Y-121423672D01*
X238279399Y-121437524D01*
X238251274Y-121446056D01*
X238219549Y-121449180D01*
X236473211Y-121449180D01*
X236441486Y-121446056D01*
X236413361Y-121437524D01*
X236387445Y-121423672D01*
X236364731Y-121405029D01*
X236346088Y-121382315D01*
X236332236Y-121356399D01*
X236323704Y-121328274D01*
X236320580Y-121296549D01*
X236320580Y-120900211D01*
X236323704Y-120868486D01*
X236332236Y-120840361D01*
X236346088Y-120814445D01*
X236364731Y-120791731D01*
X236387445Y-120773088D01*
X236413361Y-120759236D01*
X236441486Y-120750704D01*
X236473211Y-120747580D01*
X238219549Y-120747580D01*
X238251274Y-120750704D01*
G37*
G36*
X247937686Y-119556640D02*
G01*
X247983322Y-119570484D01*
X248025387Y-119592968D01*
X248062255Y-119623225D01*
X248092512Y-119660093D01*
X248114996Y-119702158D01*
X248128840Y-119747794D01*
X248133760Y-119797746D01*
X248133760Y-120557294D01*
X248128840Y-120607246D01*
X248114996Y-120652882D01*
X248092512Y-120694947D01*
X248062255Y-120731815D01*
X248025387Y-120762072D01*
X247983322Y-120784556D01*
X247937686Y-120798400D01*
X247887734Y-120803320D01*
X246878186Y-120803320D01*
X246828234Y-120798400D01*
X246782598Y-120784556D01*
X246740533Y-120762072D01*
X246703665Y-120731815D01*
X246673408Y-120694947D01*
X246650924Y-120652882D01*
X246637080Y-120607246D01*
X246632160Y-120557294D01*
X246632160Y-119797746D01*
X246637080Y-119747794D01*
X246650924Y-119702158D01*
X246673408Y-119660093D01*
X246703665Y-119623225D01*
X246740533Y-119592968D01*
X246782598Y-119570484D01*
X246828234Y-119556640D01*
X246878186Y-119551720D01*
X247887734Y-119551720D01*
X247937686Y-119556640D01*
G37*
G36*
X245496746Y-119185800D02*
G01*
X245542382Y-119199644D01*
X245584447Y-119222128D01*
X245621315Y-119252385D01*
X245651572Y-119289253D01*
X245674056Y-119331318D01*
X245687900Y-119376954D01*
X245692820Y-119426906D01*
X245692820Y-120186454D01*
X245687900Y-120236406D01*
X245674056Y-120282042D01*
X245651572Y-120324107D01*
X245621315Y-120360975D01*
X245584447Y-120391232D01*
X245542382Y-120413716D01*
X245496746Y-120427560D01*
X245446794Y-120432480D01*
X244437246Y-120432480D01*
X244387294Y-120427560D01*
X244341658Y-120413716D01*
X244299593Y-120391232D01*
X244262725Y-120360975D01*
X244232468Y-120324107D01*
X244209984Y-120282042D01*
X244196140Y-120236406D01*
X244191220Y-120186454D01*
X244191220Y-119426906D01*
X244196140Y-119376954D01*
X244209984Y-119331318D01*
X244232468Y-119289253D01*
X244262725Y-119252385D01*
X244299593Y-119222128D01*
X244341658Y-119199644D01*
X244387294Y-119185800D01*
X244437246Y-119180880D01*
X245446794Y-119180880D01*
X245496746Y-119185800D01*
G37*
G36*
X243201274Y-119480704D02*
G01*
X243229399Y-119489236D01*
X243255315Y-119503088D01*
X243278029Y-119521731D01*
X243296672Y-119544445D01*
X243310524Y-119570361D01*
X243319056Y-119598486D01*
X243322180Y-119630211D01*
X243322180Y-120026549D01*
X243319056Y-120058274D01*
X243310524Y-120086399D01*
X243296672Y-120112315D01*
X243278029Y-120135029D01*
X243255315Y-120153672D01*
X243229399Y-120167524D01*
X243201274Y-120176056D01*
X243169549Y-120179180D01*
X241423211Y-120179180D01*
X241391486Y-120176056D01*
X241363361Y-120167524D01*
X241337445Y-120153672D01*
X241314731Y-120135029D01*
X241296088Y-120112315D01*
X241282236Y-120086399D01*
X241273704Y-120058274D01*
X241270580Y-120026549D01*
X241270580Y-119630211D01*
X241273704Y-119598486D01*
X241282236Y-119570361D01*
X241296088Y-119544445D01*
X241314731Y-119521731D01*
X241337445Y-119503088D01*
X241363361Y-119489236D01*
X241391486Y-119480704D01*
X241423211Y-119477580D01*
X243169549Y-119477580D01*
X243201274Y-119480704D01*
G37*
G36*
X238251274Y-119480704D02*
G01*
X238279399Y-119489236D01*
X238305315Y-119503088D01*
X238328029Y-119521731D01*
X238346672Y-119544445D01*
X238360524Y-119570361D01*
X238369056Y-119598486D01*
X238372180Y-119630211D01*
X238372180Y-120026549D01*
X238369056Y-120058274D01*
X238360524Y-120086399D01*
X238346672Y-120112315D01*
X238328029Y-120135029D01*
X238305315Y-120153672D01*
X238279399Y-120167524D01*
X238251274Y-120176056D01*
X238219549Y-120179180D01*
X236473211Y-120179180D01*
X236441486Y-120176056D01*
X236413361Y-120167524D01*
X236387445Y-120153672D01*
X236364731Y-120135029D01*
X236346088Y-120112315D01*
X236332236Y-120086399D01*
X236323704Y-120058274D01*
X236320580Y-120026549D01*
X236320580Y-119630211D01*
X236323704Y-119598486D01*
X236332236Y-119570361D01*
X236346088Y-119544445D01*
X236364731Y-119521731D01*
X236387445Y-119503088D01*
X236413361Y-119489236D01*
X236441486Y-119480704D01*
X236473211Y-119477580D01*
X238219549Y-119477580D01*
X238251274Y-119480704D01*
G37*
G36*
X260028086Y-118715900D02*
G01*
X260073722Y-118729744D01*
X260115787Y-118752228D01*
X260152655Y-118782485D01*
X260182912Y-118819353D01*
X260205396Y-118861418D01*
X260219240Y-118907054D01*
X260224160Y-118957006D01*
X260224160Y-119716554D01*
X260219240Y-119766506D01*
X260205396Y-119812142D01*
X260182912Y-119854207D01*
X260152655Y-119891075D01*
X260115787Y-119921332D01*
X260073722Y-119943816D01*
X260028086Y-119957660D01*
X259978134Y-119962580D01*
X258968586Y-119962580D01*
X258918634Y-119957660D01*
X258872998Y-119943816D01*
X258830933Y-119921332D01*
X258794065Y-119891075D01*
X258763808Y-119854207D01*
X258741324Y-119812142D01*
X258727480Y-119766506D01*
X258722560Y-119716554D01*
X258722560Y-118957006D01*
X258727480Y-118907054D01*
X258741324Y-118861418D01*
X258763808Y-118819353D01*
X258794065Y-118782485D01*
X258830933Y-118752228D01*
X258872998Y-118729744D01*
X258918634Y-118715900D01*
X258968586Y-118710980D01*
X259978134Y-118710980D01*
X260028086Y-118715900D01*
G37*
G36*
X222987266Y-118687960D02*
G01*
X223032902Y-118701804D01*
X223074967Y-118724288D01*
X223111835Y-118754545D01*
X223142092Y-118791413D01*
X223164576Y-118833478D01*
X223178420Y-118879114D01*
X223183340Y-118929066D01*
X223183340Y-119688614D01*
X223178420Y-119738566D01*
X223164576Y-119784202D01*
X223142092Y-119826267D01*
X223111835Y-119863135D01*
X223074967Y-119893392D01*
X223032902Y-119915876D01*
X222987266Y-119929720D01*
X222937314Y-119934640D01*
X221927766Y-119934640D01*
X221877814Y-119929720D01*
X221832178Y-119915876D01*
X221790113Y-119893392D01*
X221753245Y-119863135D01*
X221722988Y-119826267D01*
X221700504Y-119784202D01*
X221686660Y-119738566D01*
X221681740Y-119688614D01*
X221681740Y-118929066D01*
X221686660Y-118879114D01*
X221700504Y-118833478D01*
X221722988Y-118791413D01*
X221753245Y-118754545D01*
X221790113Y-118724288D01*
X221832178Y-118701804D01*
X221877814Y-118687960D01*
X221927766Y-118683040D01*
X222937314Y-118683040D01*
X222987266Y-118687960D01*
G37*
G36*
X190486446Y-118687960D02*
G01*
X190532082Y-118701804D01*
X190574147Y-118724288D01*
X190611015Y-118754545D01*
X190641272Y-118791413D01*
X190663756Y-118833478D01*
X190677600Y-118879114D01*
X190682520Y-118929066D01*
X190682520Y-119688614D01*
X190677600Y-119738566D01*
X190663756Y-119784202D01*
X190641272Y-119826267D01*
X190611015Y-119863135D01*
X190574147Y-119893392D01*
X190532082Y-119915876D01*
X190486446Y-119929720D01*
X190436494Y-119934640D01*
X189426946Y-119934640D01*
X189376994Y-119929720D01*
X189331358Y-119915876D01*
X189289293Y-119893392D01*
X189252425Y-119863135D01*
X189222168Y-119826267D01*
X189199684Y-119784202D01*
X189185840Y-119738566D01*
X189180920Y-119688614D01*
X189180920Y-118929066D01*
X189185840Y-118879114D01*
X189199684Y-118833478D01*
X189222168Y-118791413D01*
X189252425Y-118754545D01*
X189289293Y-118724288D01*
X189331358Y-118701804D01*
X189376994Y-118687960D01*
X189426946Y-118683040D01*
X190436494Y-118683040D01*
X190486446Y-118687960D01*
G37*
G36*
X155746866Y-118687960D02*
G01*
X155792502Y-118701804D01*
X155834567Y-118724288D01*
X155871435Y-118754545D01*
X155901692Y-118791413D01*
X155924176Y-118833478D01*
X155938020Y-118879114D01*
X155942940Y-118929066D01*
X155942940Y-119688614D01*
X155938020Y-119738566D01*
X155924176Y-119784202D01*
X155901692Y-119826267D01*
X155871435Y-119863135D01*
X155834567Y-119893392D01*
X155792502Y-119915876D01*
X155746866Y-119929720D01*
X155696914Y-119934640D01*
X154687366Y-119934640D01*
X154637414Y-119929720D01*
X154591778Y-119915876D01*
X154549713Y-119893392D01*
X154512845Y-119863135D01*
X154482588Y-119826267D01*
X154460104Y-119784202D01*
X154446260Y-119738566D01*
X154441340Y-119688614D01*
X154441340Y-118929066D01*
X154446260Y-118879114D01*
X154460104Y-118833478D01*
X154482588Y-118791413D01*
X154512845Y-118754545D01*
X154549713Y-118724288D01*
X154591778Y-118701804D01*
X154637414Y-118687960D01*
X154687366Y-118683040D01*
X155696914Y-118683040D01*
X155746866Y-118687960D01*
G37*
G36*
X257442654Y-117222244D02*
G01*
X257470779Y-117230776D01*
X257496695Y-117244628D01*
X257519409Y-117263271D01*
X257538052Y-117285985D01*
X257551904Y-117311901D01*
X257560436Y-117340026D01*
X257563560Y-117371751D01*
X257563560Y-119118089D01*
X257560436Y-119149814D01*
X257551904Y-119177939D01*
X257538052Y-119203855D01*
X257519409Y-119226569D01*
X257496695Y-119245212D01*
X257470779Y-119259064D01*
X257442654Y-119267596D01*
X257410929Y-119270720D01*
X257014591Y-119270720D01*
X256982866Y-119267596D01*
X256954741Y-119259064D01*
X256928825Y-119245212D01*
X256906111Y-119226569D01*
X256887468Y-119203855D01*
X256873616Y-119177939D01*
X256865084Y-119149814D01*
X256861960Y-119118089D01*
X256861960Y-117371751D01*
X256865084Y-117340026D01*
X256873616Y-117311901D01*
X256887468Y-117285985D01*
X256906111Y-117263271D01*
X256928825Y-117244628D01*
X256954741Y-117230776D01*
X256982866Y-117222244D01*
X257014591Y-117219120D01*
X257410929Y-117219120D01*
X257442654Y-117222244D01*
G37*
G36*
X256172654Y-117222244D02*
G01*
X256200779Y-117230776D01*
X256226695Y-117244628D01*
X256249409Y-117263271D01*
X256268052Y-117285985D01*
X256281904Y-117311901D01*
X256290436Y-117340026D01*
X256293560Y-117371751D01*
X256293560Y-119118089D01*
X256290436Y-119149814D01*
X256281904Y-119177939D01*
X256268052Y-119203855D01*
X256249409Y-119226569D01*
X256226695Y-119245212D01*
X256200779Y-119259064D01*
X256172654Y-119267596D01*
X256140929Y-119270720D01*
X255744591Y-119270720D01*
X255712866Y-119267596D01*
X255684741Y-119259064D01*
X255658825Y-119245212D01*
X255636111Y-119226569D01*
X255617468Y-119203855D01*
X255603616Y-119177939D01*
X255595084Y-119149814D01*
X255591960Y-119118089D01*
X255591960Y-117371751D01*
X255595084Y-117340026D01*
X255603616Y-117311901D01*
X255617468Y-117285985D01*
X255636111Y-117263271D01*
X255658825Y-117244628D01*
X255684741Y-117230776D01*
X255712866Y-117222244D01*
X255744591Y-117219120D01*
X256140929Y-117219120D01*
X256172654Y-117222244D01*
G37*
G36*
X251092654Y-117222244D02*
G01*
X251120779Y-117230776D01*
X251146695Y-117244628D01*
X251169409Y-117263271D01*
X251188052Y-117285985D01*
X251201904Y-117311901D01*
X251210436Y-117340026D01*
X251213560Y-117371751D01*
X251213560Y-119118089D01*
X251210436Y-119149814D01*
X251201904Y-119177939D01*
X251188052Y-119203855D01*
X251169409Y-119226569D01*
X251146695Y-119245212D01*
X251120779Y-119259064D01*
X251092654Y-119267596D01*
X251060929Y-119270720D01*
X250664591Y-119270720D01*
X250632866Y-119267596D01*
X250604741Y-119259064D01*
X250578825Y-119245212D01*
X250556111Y-119226569D01*
X250537468Y-119203855D01*
X250523616Y-119177939D01*
X250515084Y-119149814D01*
X250511960Y-119118089D01*
X250511960Y-117371751D01*
X250515084Y-117340026D01*
X250523616Y-117311901D01*
X250537468Y-117285985D01*
X250556111Y-117263271D01*
X250578825Y-117244628D01*
X250604741Y-117230776D01*
X250632866Y-117222244D01*
X250664591Y-117219120D01*
X251060929Y-117219120D01*
X251092654Y-117222244D01*
G37*
G36*
X252362654Y-117222244D02*
G01*
X252390779Y-117230776D01*
X252416695Y-117244628D01*
X252439409Y-117263271D01*
X252458052Y-117285985D01*
X252471904Y-117311901D01*
X252480436Y-117340026D01*
X252483560Y-117371751D01*
X252483560Y-119118089D01*
X252480436Y-119149814D01*
X252471904Y-119177939D01*
X252458052Y-119203855D01*
X252439409Y-119226569D01*
X252416695Y-119245212D01*
X252390779Y-119259064D01*
X252362654Y-119267596D01*
X252330929Y-119270720D01*
X251934591Y-119270720D01*
X251902866Y-119267596D01*
X251874741Y-119259064D01*
X251848825Y-119245212D01*
X251826111Y-119226569D01*
X251807468Y-119203855D01*
X251793616Y-119177939D01*
X251785084Y-119149814D01*
X251781960Y-119118089D01*
X251781960Y-117371751D01*
X251785084Y-117340026D01*
X251793616Y-117311901D01*
X251807468Y-117285985D01*
X251826111Y-117263271D01*
X251848825Y-117244628D01*
X251874741Y-117230776D01*
X251902866Y-117222244D01*
X251934591Y-117219120D01*
X252330929Y-117219120D01*
X252362654Y-117222244D01*
G37*
G36*
X254902654Y-117222244D02*
G01*
X254930779Y-117230776D01*
X254956695Y-117244628D01*
X254979409Y-117263271D01*
X254998052Y-117285985D01*
X255011904Y-117311901D01*
X255020436Y-117340026D01*
X255023560Y-117371751D01*
X255023560Y-119118089D01*
X255020436Y-119149814D01*
X255011904Y-119177939D01*
X254998052Y-119203855D01*
X254979409Y-119226569D01*
X254956695Y-119245212D01*
X254930779Y-119259064D01*
X254902654Y-119267596D01*
X254870929Y-119270720D01*
X254474591Y-119270720D01*
X254442866Y-119267596D01*
X254414741Y-119259064D01*
X254388825Y-119245212D01*
X254366111Y-119226569D01*
X254347468Y-119203855D01*
X254333616Y-119177939D01*
X254325084Y-119149814D01*
X254321960Y-119118089D01*
X254321960Y-117371751D01*
X254325084Y-117340026D01*
X254333616Y-117311901D01*
X254347468Y-117285985D01*
X254366111Y-117263271D01*
X254388825Y-117244628D01*
X254414741Y-117230776D01*
X254442866Y-117222244D01*
X254474591Y-117219120D01*
X254870929Y-117219120D01*
X254902654Y-117222244D01*
G37*
G36*
X253632654Y-117222244D02*
G01*
X253660779Y-117230776D01*
X253686695Y-117244628D01*
X253709409Y-117263271D01*
X253728052Y-117285985D01*
X253741904Y-117311901D01*
X253750436Y-117340026D01*
X253753560Y-117371751D01*
X253753560Y-119118089D01*
X253750436Y-119149814D01*
X253741904Y-119177939D01*
X253728052Y-119203855D01*
X253709409Y-119226569D01*
X253686695Y-119245212D01*
X253660779Y-119259064D01*
X253632654Y-119267596D01*
X253600929Y-119270720D01*
X253204591Y-119270720D01*
X253172866Y-119267596D01*
X253144741Y-119259064D01*
X253118825Y-119245212D01*
X253096111Y-119226569D01*
X253077468Y-119203855D01*
X253063616Y-119177939D01*
X253055084Y-119149814D01*
X253051960Y-119118089D01*
X253051960Y-117371751D01*
X253055084Y-117340026D01*
X253063616Y-117311901D01*
X253077468Y-117285985D01*
X253096111Y-117263271D01*
X253118825Y-117244628D01*
X253144741Y-117230776D01*
X253172866Y-117222244D01*
X253204591Y-117219120D01*
X253600929Y-117219120D01*
X253632654Y-117222244D01*
G37*
G36*
X249822654Y-117222244D02*
G01*
X249850779Y-117230776D01*
X249876695Y-117244628D01*
X249899409Y-117263271D01*
X249918052Y-117285985D01*
X249931904Y-117311901D01*
X249940436Y-117340026D01*
X249943560Y-117371751D01*
X249943560Y-119118089D01*
X249940436Y-119149814D01*
X249931904Y-119177939D01*
X249918052Y-119203855D01*
X249899409Y-119226569D01*
X249876695Y-119245212D01*
X249850779Y-119259064D01*
X249822654Y-119267596D01*
X249790929Y-119270720D01*
X249394591Y-119270720D01*
X249362866Y-119267596D01*
X249334741Y-119259064D01*
X249308825Y-119245212D01*
X249286111Y-119226569D01*
X249267468Y-119203855D01*
X249253616Y-119177939D01*
X249245084Y-119149814D01*
X249241960Y-119118089D01*
X249241960Y-117371751D01*
X249245084Y-117340026D01*
X249253616Y-117311901D01*
X249267468Y-117285985D01*
X249286111Y-117263271D01*
X249308825Y-117244628D01*
X249334741Y-117230776D01*
X249362866Y-117222244D01*
X249394591Y-117219120D01*
X249790929Y-117219120D01*
X249822654Y-117222244D01*
G37*
G36*
X243201274Y-118210704D02*
G01*
X243229399Y-118219236D01*
X243255315Y-118233088D01*
X243278029Y-118251731D01*
X243296672Y-118274445D01*
X243310524Y-118300361D01*
X243319056Y-118328486D01*
X243322180Y-118360211D01*
X243322180Y-118756549D01*
X243319056Y-118788274D01*
X243310524Y-118816399D01*
X243296672Y-118842315D01*
X243278029Y-118865029D01*
X243255315Y-118883672D01*
X243229399Y-118897524D01*
X243201274Y-118906056D01*
X243169549Y-118909180D01*
X241423211Y-118909180D01*
X241391486Y-118906056D01*
X241363361Y-118897524D01*
X241337445Y-118883672D01*
X241314731Y-118865029D01*
X241296088Y-118842315D01*
X241282236Y-118816399D01*
X241273704Y-118788274D01*
X241270580Y-118756549D01*
X241270580Y-118360211D01*
X241273704Y-118328486D01*
X241282236Y-118300361D01*
X241296088Y-118274445D01*
X241314731Y-118251731D01*
X241337445Y-118233088D01*
X241363361Y-118219236D01*
X241391486Y-118210704D01*
X241423211Y-118207580D01*
X243169549Y-118207580D01*
X243201274Y-118210704D01*
G37*
G36*
X238251274Y-118210704D02*
G01*
X238279399Y-118219236D01*
X238305315Y-118233088D01*
X238328029Y-118251731D01*
X238346672Y-118274445D01*
X238360524Y-118300361D01*
X238369056Y-118328486D01*
X238372180Y-118360211D01*
X238372180Y-118756549D01*
X238369056Y-118788274D01*
X238360524Y-118816399D01*
X238346672Y-118842315D01*
X238328029Y-118865029D01*
X238305315Y-118883672D01*
X238279399Y-118897524D01*
X238251274Y-118906056D01*
X238219549Y-118909180D01*
X236473211Y-118909180D01*
X236441486Y-118906056D01*
X236413361Y-118897524D01*
X236387445Y-118883672D01*
X236364731Y-118865029D01*
X236346088Y-118842315D01*
X236332236Y-118816399D01*
X236323704Y-118788274D01*
X236320580Y-118756549D01*
X236320580Y-118360211D01*
X236323704Y-118328486D01*
X236332236Y-118300361D01*
X236346088Y-118274445D01*
X236364731Y-118251731D01*
X236387445Y-118233088D01*
X236413361Y-118219236D01*
X236441486Y-118210704D01*
X236473211Y-118207580D01*
X238219549Y-118207580D01*
X238251274Y-118210704D01*
G37*
G36*
X193340674Y-116805684D02*
G01*
X193368799Y-116814216D01*
X193394715Y-116828068D01*
X193417429Y-116846711D01*
X193436072Y-116869425D01*
X193449924Y-116895341D01*
X193458456Y-116923466D01*
X193461580Y-116955191D01*
X193461580Y-118701529D01*
X193458456Y-118733254D01*
X193449924Y-118761379D01*
X193436072Y-118787295D01*
X193417429Y-118810009D01*
X193394715Y-118828652D01*
X193368799Y-118842504D01*
X193340674Y-118851036D01*
X193308949Y-118854160D01*
X192912611Y-118854160D01*
X192880886Y-118851036D01*
X192852761Y-118842504D01*
X192826845Y-118828652D01*
X192804131Y-118810009D01*
X192785488Y-118787295D01*
X192771636Y-118761379D01*
X192763104Y-118733254D01*
X192759980Y-118701529D01*
X192759980Y-116955191D01*
X192763104Y-116923466D01*
X192771636Y-116895341D01*
X192785488Y-116869425D01*
X192804131Y-116846711D01*
X192826845Y-116828068D01*
X192852761Y-116814216D01*
X192880886Y-116805684D01*
X192912611Y-116802560D01*
X193308949Y-116802560D01*
X193340674Y-116805684D01*
G37*
G36*
X226642614Y-116805684D02*
G01*
X226670739Y-116814216D01*
X226696655Y-116828068D01*
X226719369Y-116846711D01*
X226738012Y-116869425D01*
X226751864Y-116895341D01*
X226760396Y-116923466D01*
X226763520Y-116955191D01*
X226763520Y-118701529D01*
X226760396Y-118733254D01*
X226751864Y-118761379D01*
X226738012Y-118787295D01*
X226719369Y-118810009D01*
X226696655Y-118828652D01*
X226670739Y-118842504D01*
X226642614Y-118851036D01*
X226610889Y-118854160D01*
X226214551Y-118854160D01*
X226182826Y-118851036D01*
X226154701Y-118842504D01*
X226128785Y-118828652D01*
X226106071Y-118810009D01*
X226087428Y-118787295D01*
X226073576Y-118761379D01*
X226065044Y-118733254D01*
X226061920Y-118701529D01*
X226061920Y-116955191D01*
X226065044Y-116923466D01*
X226073576Y-116895341D01*
X226087428Y-116869425D01*
X226106071Y-116846711D01*
X226128785Y-116828068D01*
X226154701Y-116814216D01*
X226182826Y-116805684D01*
X226214551Y-116802560D01*
X226610889Y-116802560D01*
X226642614Y-116805684D01*
G37*
G36*
X231722614Y-116805684D02*
G01*
X231750739Y-116814216D01*
X231776655Y-116828068D01*
X231799369Y-116846711D01*
X231818012Y-116869425D01*
X231831864Y-116895341D01*
X231840396Y-116923466D01*
X231843520Y-116955191D01*
X231843520Y-118701529D01*
X231840396Y-118733254D01*
X231831864Y-118761379D01*
X231818012Y-118787295D01*
X231799369Y-118810009D01*
X231776655Y-118828652D01*
X231750739Y-118842504D01*
X231722614Y-118851036D01*
X231690889Y-118854160D01*
X231294551Y-118854160D01*
X231262826Y-118851036D01*
X231234701Y-118842504D01*
X231208785Y-118828652D01*
X231186071Y-118810009D01*
X231167428Y-118787295D01*
X231153576Y-118761379D01*
X231145044Y-118733254D01*
X231141920Y-118701529D01*
X231141920Y-116955191D01*
X231145044Y-116923466D01*
X231153576Y-116895341D01*
X231167428Y-116869425D01*
X231186071Y-116846711D01*
X231208785Y-116828068D01*
X231234701Y-116814216D01*
X231262826Y-116805684D01*
X231294551Y-116802560D01*
X231690889Y-116802560D01*
X231722614Y-116805684D01*
G37*
G36*
X232992614Y-116805684D02*
G01*
X233020739Y-116814216D01*
X233046655Y-116828068D01*
X233069369Y-116846711D01*
X233088012Y-116869425D01*
X233101864Y-116895341D01*
X233110396Y-116923466D01*
X233113520Y-116955191D01*
X233113520Y-118701529D01*
X233110396Y-118733254D01*
X233101864Y-118761379D01*
X233088012Y-118787295D01*
X233069369Y-118810009D01*
X233046655Y-118828652D01*
X233020739Y-118842504D01*
X232992614Y-118851036D01*
X232960889Y-118854160D01*
X232564551Y-118854160D01*
X232532826Y-118851036D01*
X232504701Y-118842504D01*
X232478785Y-118828652D01*
X232456071Y-118810009D01*
X232437428Y-118787295D01*
X232423576Y-118761379D01*
X232415044Y-118733254D01*
X232411920Y-118701529D01*
X232411920Y-116955191D01*
X232415044Y-116923466D01*
X232423576Y-116895341D01*
X232437428Y-116869425D01*
X232456071Y-116846711D01*
X232478785Y-116828068D01*
X232504701Y-116814216D01*
X232532826Y-116805684D01*
X232564551Y-116802560D01*
X232960889Y-116802560D01*
X232992614Y-116805684D01*
G37*
G36*
X234262614Y-116805684D02*
G01*
X234290739Y-116814216D01*
X234316655Y-116828068D01*
X234339369Y-116846711D01*
X234358012Y-116869425D01*
X234371864Y-116895341D01*
X234380396Y-116923466D01*
X234383520Y-116955191D01*
X234383520Y-118701529D01*
X234380396Y-118733254D01*
X234371864Y-118761379D01*
X234358012Y-118787295D01*
X234339369Y-118810009D01*
X234316655Y-118828652D01*
X234290739Y-118842504D01*
X234262614Y-118851036D01*
X234230889Y-118854160D01*
X233834551Y-118854160D01*
X233802826Y-118851036D01*
X233774701Y-118842504D01*
X233748785Y-118828652D01*
X233726071Y-118810009D01*
X233707428Y-118787295D01*
X233693576Y-118761379D01*
X233685044Y-118733254D01*
X233681920Y-118701529D01*
X233681920Y-116955191D01*
X233685044Y-116923466D01*
X233693576Y-116895341D01*
X233707428Y-116869425D01*
X233726071Y-116846711D01*
X233748785Y-116828068D01*
X233774701Y-116814216D01*
X233802826Y-116805684D01*
X233834551Y-116802560D01*
X234230889Y-116802560D01*
X234262614Y-116805684D01*
G37*
G36*
X202230674Y-116805684D02*
G01*
X202258799Y-116814216D01*
X202284715Y-116828068D01*
X202307429Y-116846711D01*
X202326072Y-116869425D01*
X202339924Y-116895341D01*
X202348456Y-116923466D01*
X202351580Y-116955191D01*
X202351580Y-118701529D01*
X202348456Y-118733254D01*
X202339924Y-118761379D01*
X202326072Y-118787295D01*
X202307429Y-118810009D01*
X202284715Y-118828652D01*
X202258799Y-118842504D01*
X202230674Y-118851036D01*
X202198949Y-118854160D01*
X201802611Y-118854160D01*
X201770886Y-118851036D01*
X201742761Y-118842504D01*
X201716845Y-118828652D01*
X201694131Y-118810009D01*
X201675488Y-118787295D01*
X201661636Y-118761379D01*
X201653104Y-118733254D01*
X201649980Y-118701529D01*
X201649980Y-116955191D01*
X201653104Y-116923466D01*
X201661636Y-116895341D01*
X201675488Y-116869425D01*
X201694131Y-116846711D01*
X201716845Y-116828068D01*
X201742761Y-116814216D01*
X201770886Y-116805684D01*
X201802611Y-116802560D01*
X202198949Y-116802560D01*
X202230674Y-116805684D01*
G37*
G36*
X200960674Y-116805684D02*
G01*
X200988799Y-116814216D01*
X201014715Y-116828068D01*
X201037429Y-116846711D01*
X201056072Y-116869425D01*
X201069924Y-116895341D01*
X201078456Y-116923466D01*
X201081580Y-116955191D01*
X201081580Y-118701529D01*
X201078456Y-118733254D01*
X201069924Y-118761379D01*
X201056072Y-118787295D01*
X201037429Y-118810009D01*
X201014715Y-118828652D01*
X200988799Y-118842504D01*
X200960674Y-118851036D01*
X200928949Y-118854160D01*
X200532611Y-118854160D01*
X200500886Y-118851036D01*
X200472761Y-118842504D01*
X200446845Y-118828652D01*
X200424131Y-118810009D01*
X200405488Y-118787295D01*
X200391636Y-118761379D01*
X200383104Y-118733254D01*
X200379980Y-118701529D01*
X200379980Y-116955191D01*
X200383104Y-116923466D01*
X200391636Y-116895341D01*
X200405488Y-116869425D01*
X200424131Y-116846711D01*
X200446845Y-116828068D01*
X200472761Y-116814216D01*
X200500886Y-116805684D01*
X200532611Y-116802560D01*
X200928949Y-116802560D01*
X200960674Y-116805684D01*
G37*
G36*
X199690674Y-116805684D02*
G01*
X199718799Y-116814216D01*
X199744715Y-116828068D01*
X199767429Y-116846711D01*
X199786072Y-116869425D01*
X199799924Y-116895341D01*
X199808456Y-116923466D01*
X199811580Y-116955191D01*
X199811580Y-118701529D01*
X199808456Y-118733254D01*
X199799924Y-118761379D01*
X199786072Y-118787295D01*
X199767429Y-118810009D01*
X199744715Y-118828652D01*
X199718799Y-118842504D01*
X199690674Y-118851036D01*
X199658949Y-118854160D01*
X199262611Y-118854160D01*
X199230886Y-118851036D01*
X199202761Y-118842504D01*
X199176845Y-118828652D01*
X199154131Y-118810009D01*
X199135488Y-118787295D01*
X199121636Y-118761379D01*
X199113104Y-118733254D01*
X199109980Y-118701529D01*
X199109980Y-116955191D01*
X199113104Y-116923466D01*
X199121636Y-116895341D01*
X199135488Y-116869425D01*
X199154131Y-116846711D01*
X199176845Y-116828068D01*
X199202761Y-116814216D01*
X199230886Y-116805684D01*
X199262611Y-116802560D01*
X199658949Y-116802560D01*
X199690674Y-116805684D01*
G37*
G36*
X198420674Y-116805684D02*
G01*
X198448799Y-116814216D01*
X198474715Y-116828068D01*
X198497429Y-116846711D01*
X198516072Y-116869425D01*
X198529924Y-116895341D01*
X198538456Y-116923466D01*
X198541580Y-116955191D01*
X198541580Y-118701529D01*
X198538456Y-118733254D01*
X198529924Y-118761379D01*
X198516072Y-118787295D01*
X198497429Y-118810009D01*
X198474715Y-118828652D01*
X198448799Y-118842504D01*
X198420674Y-118851036D01*
X198388949Y-118854160D01*
X197992611Y-118854160D01*
X197960886Y-118851036D01*
X197932761Y-118842504D01*
X197906845Y-118828652D01*
X197884131Y-118810009D01*
X197865488Y-118787295D01*
X197851636Y-118761379D01*
X197843104Y-118733254D01*
X197839980Y-118701529D01*
X197839980Y-116955191D01*
X197843104Y-116923466D01*
X197851636Y-116895341D01*
X197865488Y-116869425D01*
X197884131Y-116846711D01*
X197906845Y-116828068D01*
X197932761Y-116814216D01*
X197960886Y-116805684D01*
X197992611Y-116802560D01*
X198388949Y-116802560D01*
X198420674Y-116805684D01*
G37*
G36*
X197150674Y-116805684D02*
G01*
X197178799Y-116814216D01*
X197204715Y-116828068D01*
X197227429Y-116846711D01*
X197246072Y-116869425D01*
X197259924Y-116895341D01*
X197268456Y-116923466D01*
X197271580Y-116955191D01*
X197271580Y-118701529D01*
X197268456Y-118733254D01*
X197259924Y-118761379D01*
X197246072Y-118787295D01*
X197227429Y-118810009D01*
X197204715Y-118828652D01*
X197178799Y-118842504D01*
X197150674Y-118851036D01*
X197118949Y-118854160D01*
X196722611Y-118854160D01*
X196690886Y-118851036D01*
X196662761Y-118842504D01*
X196636845Y-118828652D01*
X196614131Y-118810009D01*
X196595488Y-118787295D01*
X196581636Y-118761379D01*
X196573104Y-118733254D01*
X196569980Y-118701529D01*
X196569980Y-116955191D01*
X196573104Y-116923466D01*
X196581636Y-116895341D01*
X196595488Y-116869425D01*
X196614131Y-116846711D01*
X196636845Y-116828068D01*
X196662761Y-116814216D01*
X196690886Y-116805684D01*
X196722611Y-116802560D01*
X197118949Y-116802560D01*
X197150674Y-116805684D01*
G37*
G36*
X160264794Y-116805684D02*
G01*
X160292919Y-116814216D01*
X160318835Y-116828068D01*
X160341549Y-116846711D01*
X160360192Y-116869425D01*
X160374044Y-116895341D01*
X160382576Y-116923466D01*
X160385700Y-116955191D01*
X160385700Y-118701529D01*
X160382576Y-118733254D01*
X160374044Y-118761379D01*
X160360192Y-118787295D01*
X160341549Y-118810009D01*
X160318835Y-118828652D01*
X160292919Y-118842504D01*
X160264794Y-118851036D01*
X160233069Y-118854160D01*
X159836731Y-118854160D01*
X159805006Y-118851036D01*
X159776881Y-118842504D01*
X159750965Y-118828652D01*
X159728251Y-118810009D01*
X159709608Y-118787295D01*
X159695756Y-118761379D01*
X159687224Y-118733254D01*
X159684100Y-118701529D01*
X159684100Y-116955191D01*
X159687224Y-116923466D01*
X159695756Y-116895341D01*
X159709608Y-116869425D01*
X159728251Y-116846711D01*
X159750965Y-116828068D01*
X159776881Y-116814216D01*
X159805006Y-116805684D01*
X159836731Y-116802560D01*
X160233069Y-116802560D01*
X160264794Y-116805684D01*
G37*
G36*
X194610674Y-116805684D02*
G01*
X194638799Y-116814216D01*
X194664715Y-116828068D01*
X194687429Y-116846711D01*
X194706072Y-116869425D01*
X194719924Y-116895341D01*
X194728456Y-116923466D01*
X194731580Y-116955191D01*
X194731580Y-118701529D01*
X194728456Y-118733254D01*
X194719924Y-118761379D01*
X194706072Y-118787295D01*
X194687429Y-118810009D01*
X194664715Y-118828652D01*
X194638799Y-118842504D01*
X194610674Y-118851036D01*
X194578949Y-118854160D01*
X194182611Y-118854160D01*
X194150886Y-118851036D01*
X194122761Y-118842504D01*
X194096845Y-118828652D01*
X194074131Y-118810009D01*
X194055488Y-118787295D01*
X194041636Y-118761379D01*
X194033104Y-118733254D01*
X194029980Y-118701529D01*
X194029980Y-116955191D01*
X194033104Y-116923466D01*
X194041636Y-116895341D01*
X194055488Y-116869425D01*
X194074131Y-116846711D01*
X194096845Y-116828068D01*
X194122761Y-116814216D01*
X194150886Y-116805684D01*
X194182611Y-116802560D01*
X194578949Y-116802560D01*
X194610674Y-116805684D01*
G37*
G36*
X230452614Y-116805684D02*
G01*
X230480739Y-116814216D01*
X230506655Y-116828068D01*
X230529369Y-116846711D01*
X230548012Y-116869425D01*
X230561864Y-116895341D01*
X230570396Y-116923466D01*
X230573520Y-116955191D01*
X230573520Y-118701529D01*
X230570396Y-118733254D01*
X230561864Y-118761379D01*
X230548012Y-118787295D01*
X230529369Y-118810009D01*
X230506655Y-118828652D01*
X230480739Y-118842504D01*
X230452614Y-118851036D01*
X230420889Y-118854160D01*
X230024551Y-118854160D01*
X229992826Y-118851036D01*
X229964701Y-118842504D01*
X229938785Y-118828652D01*
X229916071Y-118810009D01*
X229897428Y-118787295D01*
X229883576Y-118761379D01*
X229875044Y-118733254D01*
X229871920Y-118701529D01*
X229871920Y-116955191D01*
X229875044Y-116923466D01*
X229883576Y-116895341D01*
X229897428Y-116869425D01*
X229916071Y-116846711D01*
X229938785Y-116828068D01*
X229964701Y-116814216D01*
X229992826Y-116805684D01*
X230024551Y-116802560D01*
X230420889Y-116802560D01*
X230452614Y-116805684D01*
G37*
G36*
X229182614Y-116805684D02*
G01*
X229210739Y-116814216D01*
X229236655Y-116828068D01*
X229259369Y-116846711D01*
X229278012Y-116869425D01*
X229291864Y-116895341D01*
X229300396Y-116923466D01*
X229303520Y-116955191D01*
X229303520Y-118701529D01*
X229300396Y-118733254D01*
X229291864Y-118761379D01*
X229278012Y-118787295D01*
X229259369Y-118810009D01*
X229236655Y-118828652D01*
X229210739Y-118842504D01*
X229182614Y-118851036D01*
X229150889Y-118854160D01*
X228754551Y-118854160D01*
X228722826Y-118851036D01*
X228694701Y-118842504D01*
X228668785Y-118828652D01*
X228646071Y-118810009D01*
X228627428Y-118787295D01*
X228613576Y-118761379D01*
X228605044Y-118733254D01*
X228601920Y-118701529D01*
X228601920Y-116955191D01*
X228605044Y-116923466D01*
X228613576Y-116895341D01*
X228627428Y-116869425D01*
X228646071Y-116846711D01*
X228668785Y-116828068D01*
X228694701Y-116814216D01*
X228722826Y-116805684D01*
X228754551Y-116802560D01*
X229150889Y-116802560D01*
X229182614Y-116805684D01*
G37*
G36*
X195880674Y-116805684D02*
G01*
X195908799Y-116814216D01*
X195934715Y-116828068D01*
X195957429Y-116846711D01*
X195976072Y-116869425D01*
X195989924Y-116895341D01*
X195998456Y-116923466D01*
X196001580Y-116955191D01*
X196001580Y-118701529D01*
X195998456Y-118733254D01*
X195989924Y-118761379D01*
X195976072Y-118787295D01*
X195957429Y-118810009D01*
X195934715Y-118828652D01*
X195908799Y-118842504D01*
X195880674Y-118851036D01*
X195848949Y-118854160D01*
X195452611Y-118854160D01*
X195420886Y-118851036D01*
X195392761Y-118842504D01*
X195366845Y-118828652D01*
X195344131Y-118810009D01*
X195325488Y-118787295D01*
X195311636Y-118761379D01*
X195303104Y-118733254D01*
X195299980Y-118701529D01*
X195299980Y-116955191D01*
X195303104Y-116923466D01*
X195311636Y-116895341D01*
X195325488Y-116869425D01*
X195344131Y-116846711D01*
X195366845Y-116828068D01*
X195392761Y-116814216D01*
X195420886Y-116805684D01*
X195452611Y-116802560D01*
X195848949Y-116802560D01*
X195880674Y-116805684D01*
G37*
G36*
X161534794Y-116805684D02*
G01*
X161562919Y-116814216D01*
X161588835Y-116828068D01*
X161611549Y-116846711D01*
X161630192Y-116869425D01*
X161644044Y-116895341D01*
X161652576Y-116923466D01*
X161655700Y-116955191D01*
X161655700Y-118701529D01*
X161652576Y-118733254D01*
X161644044Y-118761379D01*
X161630192Y-118787295D01*
X161611549Y-118810009D01*
X161588835Y-118828652D01*
X161562919Y-118842504D01*
X161534794Y-118851036D01*
X161503069Y-118854160D01*
X161106731Y-118854160D01*
X161075006Y-118851036D01*
X161046881Y-118842504D01*
X161020965Y-118828652D01*
X160998251Y-118810009D01*
X160979608Y-118787295D01*
X160965756Y-118761379D01*
X160957224Y-118733254D01*
X160954100Y-118701529D01*
X160954100Y-116955191D01*
X160957224Y-116923466D01*
X160965756Y-116895341D01*
X160979608Y-116869425D01*
X160998251Y-116846711D01*
X161020965Y-116828068D01*
X161046881Y-116814216D01*
X161075006Y-116805684D01*
X161106731Y-116802560D01*
X161503069Y-116802560D01*
X161534794Y-116805684D01*
G37*
G36*
X162804794Y-116805684D02*
G01*
X162832919Y-116814216D01*
X162858835Y-116828068D01*
X162881549Y-116846711D01*
X162900192Y-116869425D01*
X162914044Y-116895341D01*
X162922576Y-116923466D01*
X162925700Y-116955191D01*
X162925700Y-118701529D01*
X162922576Y-118733254D01*
X162914044Y-118761379D01*
X162900192Y-118787295D01*
X162881549Y-118810009D01*
X162858835Y-118828652D01*
X162832919Y-118842504D01*
X162804794Y-118851036D01*
X162773069Y-118854160D01*
X162376731Y-118854160D01*
X162345006Y-118851036D01*
X162316881Y-118842504D01*
X162290965Y-118828652D01*
X162268251Y-118810009D01*
X162249608Y-118787295D01*
X162235756Y-118761379D01*
X162227224Y-118733254D01*
X162224100Y-118701529D01*
X162224100Y-116955191D01*
X162227224Y-116923466D01*
X162235756Y-116895341D01*
X162249608Y-116869425D01*
X162268251Y-116846711D01*
X162290965Y-116828068D01*
X162316881Y-116814216D01*
X162345006Y-116805684D01*
X162376731Y-116802560D01*
X162773069Y-116802560D01*
X162804794Y-116805684D01*
G37*
G36*
X164074794Y-116805684D02*
G01*
X164102919Y-116814216D01*
X164128835Y-116828068D01*
X164151549Y-116846711D01*
X164170192Y-116869425D01*
X164184044Y-116895341D01*
X164192576Y-116923466D01*
X164195700Y-116955191D01*
X164195700Y-118701529D01*
X164192576Y-118733254D01*
X164184044Y-118761379D01*
X164170192Y-118787295D01*
X164151549Y-118810009D01*
X164128835Y-118828652D01*
X164102919Y-118842504D01*
X164074794Y-118851036D01*
X164043069Y-118854160D01*
X163646731Y-118854160D01*
X163615006Y-118851036D01*
X163586881Y-118842504D01*
X163560965Y-118828652D01*
X163538251Y-118810009D01*
X163519608Y-118787295D01*
X163505756Y-118761379D01*
X163497224Y-118733254D01*
X163494100Y-118701529D01*
X163494100Y-116955191D01*
X163497224Y-116923466D01*
X163505756Y-116895341D01*
X163519608Y-116869425D01*
X163538251Y-116846711D01*
X163560965Y-116828068D01*
X163586881Y-116814216D01*
X163615006Y-116805684D01*
X163646731Y-116802560D01*
X164043069Y-116802560D01*
X164074794Y-116805684D01*
G37*
G36*
X165344794Y-116805684D02*
G01*
X165372919Y-116814216D01*
X165398835Y-116828068D01*
X165421549Y-116846711D01*
X165440192Y-116869425D01*
X165454044Y-116895341D01*
X165462576Y-116923466D01*
X165465700Y-116955191D01*
X165465700Y-118701529D01*
X165462576Y-118733254D01*
X165454044Y-118761379D01*
X165440192Y-118787295D01*
X165421549Y-118810009D01*
X165398835Y-118828652D01*
X165372919Y-118842504D01*
X165344794Y-118851036D01*
X165313069Y-118854160D01*
X164916731Y-118854160D01*
X164885006Y-118851036D01*
X164856881Y-118842504D01*
X164830965Y-118828652D01*
X164808251Y-118810009D01*
X164789608Y-118787295D01*
X164775756Y-118761379D01*
X164767224Y-118733254D01*
X164764100Y-118701529D01*
X164764100Y-116955191D01*
X164767224Y-116923466D01*
X164775756Y-116895341D01*
X164789608Y-116869425D01*
X164808251Y-116846711D01*
X164830965Y-116828068D01*
X164856881Y-116814216D01*
X164885006Y-116805684D01*
X164916731Y-116802560D01*
X165313069Y-116802560D01*
X165344794Y-116805684D01*
G37*
G36*
X166614794Y-116805684D02*
G01*
X166642919Y-116814216D01*
X166668835Y-116828068D01*
X166691549Y-116846711D01*
X166710192Y-116869425D01*
X166724044Y-116895341D01*
X166732576Y-116923466D01*
X166735700Y-116955191D01*
X166735700Y-118701529D01*
X166732576Y-118733254D01*
X166724044Y-118761379D01*
X166710192Y-118787295D01*
X166691549Y-118810009D01*
X166668835Y-118828652D01*
X166642919Y-118842504D01*
X166614794Y-118851036D01*
X166583069Y-118854160D01*
X166186731Y-118854160D01*
X166155006Y-118851036D01*
X166126881Y-118842504D01*
X166100965Y-118828652D01*
X166078251Y-118810009D01*
X166059608Y-118787295D01*
X166045756Y-118761379D01*
X166037224Y-118733254D01*
X166034100Y-118701529D01*
X166034100Y-116955191D01*
X166037224Y-116923466D01*
X166045756Y-116895341D01*
X166059608Y-116869425D01*
X166078251Y-116846711D01*
X166100965Y-116828068D01*
X166126881Y-116814216D01*
X166155006Y-116805684D01*
X166186731Y-116802560D01*
X166583069Y-116802560D01*
X166614794Y-116805684D01*
G37*
G36*
X167884794Y-116805684D02*
G01*
X167912919Y-116814216D01*
X167938835Y-116828068D01*
X167961549Y-116846711D01*
X167980192Y-116869425D01*
X167994044Y-116895341D01*
X168002576Y-116923466D01*
X168005700Y-116955191D01*
X168005700Y-118701529D01*
X168002576Y-118733254D01*
X167994044Y-118761379D01*
X167980192Y-118787295D01*
X167961549Y-118810009D01*
X167938835Y-118828652D01*
X167912919Y-118842504D01*
X167884794Y-118851036D01*
X167853069Y-118854160D01*
X167456731Y-118854160D01*
X167425006Y-118851036D01*
X167396881Y-118842504D01*
X167370965Y-118828652D01*
X167348251Y-118810009D01*
X167329608Y-118787295D01*
X167315756Y-118761379D01*
X167307224Y-118733254D01*
X167304100Y-118701529D01*
X167304100Y-116955191D01*
X167307224Y-116923466D01*
X167315756Y-116895341D01*
X167329608Y-116869425D01*
X167348251Y-116846711D01*
X167370965Y-116828068D01*
X167396881Y-116814216D01*
X167425006Y-116805684D01*
X167456731Y-116802560D01*
X167853069Y-116802560D01*
X167884794Y-116805684D01*
G37*
G36*
X158994794Y-116805684D02*
G01*
X159022919Y-116814216D01*
X159048835Y-116828068D01*
X159071549Y-116846711D01*
X159090192Y-116869425D01*
X159104044Y-116895341D01*
X159112576Y-116923466D01*
X159115700Y-116955191D01*
X159115700Y-118701529D01*
X159112576Y-118733254D01*
X159104044Y-118761379D01*
X159090192Y-118787295D01*
X159071549Y-118810009D01*
X159048835Y-118828652D01*
X159022919Y-118842504D01*
X158994794Y-118851036D01*
X158963069Y-118854160D01*
X158566731Y-118854160D01*
X158535006Y-118851036D01*
X158506881Y-118842504D01*
X158480965Y-118828652D01*
X158458251Y-118810009D01*
X158439608Y-118787295D01*
X158425756Y-118761379D01*
X158417224Y-118733254D01*
X158414100Y-118701529D01*
X158414100Y-116955191D01*
X158417224Y-116923466D01*
X158425756Y-116895341D01*
X158439608Y-116869425D01*
X158458251Y-116846711D01*
X158480965Y-116828068D01*
X158506881Y-116814216D01*
X158535006Y-116805684D01*
X158566731Y-116802560D01*
X158963069Y-116802560D01*
X158994794Y-116805684D01*
G37*
G36*
X225372614Y-116805684D02*
G01*
X225400739Y-116814216D01*
X225426655Y-116828068D01*
X225449369Y-116846711D01*
X225468012Y-116869425D01*
X225481864Y-116895341D01*
X225490396Y-116923466D01*
X225493520Y-116955191D01*
X225493520Y-118701529D01*
X225490396Y-118733254D01*
X225481864Y-118761379D01*
X225468012Y-118787295D01*
X225449369Y-118810009D01*
X225426655Y-118828652D01*
X225400739Y-118842504D01*
X225372614Y-118851036D01*
X225340889Y-118854160D01*
X224944551Y-118854160D01*
X224912826Y-118851036D01*
X224884701Y-118842504D01*
X224858785Y-118828652D01*
X224836071Y-118810009D01*
X224817428Y-118787295D01*
X224803576Y-118761379D01*
X224795044Y-118733254D01*
X224791920Y-118701529D01*
X224791920Y-116955191D01*
X224795044Y-116923466D01*
X224803576Y-116895341D01*
X224817428Y-116869425D01*
X224836071Y-116846711D01*
X224858785Y-116828068D01*
X224884701Y-116814216D01*
X224912826Y-116805684D01*
X224944551Y-116802560D01*
X225340889Y-116802560D01*
X225372614Y-116805684D01*
G37*
G36*
X227912614Y-116805684D02*
G01*
X227940739Y-116814216D01*
X227966655Y-116828068D01*
X227989369Y-116846711D01*
X228008012Y-116869425D01*
X228021864Y-116895341D01*
X228030396Y-116923466D01*
X228033520Y-116955191D01*
X228033520Y-118701529D01*
X228030396Y-118733254D01*
X228021864Y-118761379D01*
X228008012Y-118787295D01*
X227989369Y-118810009D01*
X227966655Y-118828652D01*
X227940739Y-118842504D01*
X227912614Y-118851036D01*
X227880889Y-118854160D01*
X227484551Y-118854160D01*
X227452826Y-118851036D01*
X227424701Y-118842504D01*
X227398785Y-118828652D01*
X227376071Y-118810009D01*
X227357428Y-118787295D01*
X227343576Y-118761379D01*
X227335044Y-118733254D01*
X227331920Y-118701529D01*
X227331920Y-116955191D01*
X227335044Y-116923466D01*
X227343576Y-116895341D01*
X227357428Y-116869425D01*
X227376071Y-116846711D01*
X227398785Y-116828068D01*
X227424701Y-116814216D01*
X227452826Y-116805684D01*
X227484551Y-116802560D01*
X227880889Y-116802560D01*
X227912614Y-116805684D01*
G37*
G36*
X247687066Y-117022560D02*
G01*
X247732702Y-117036404D01*
X247774767Y-117058888D01*
X247811635Y-117089145D01*
X247841892Y-117126013D01*
X247864376Y-117168078D01*
X247878220Y-117213714D01*
X247883140Y-117263666D01*
X247883140Y-118273214D01*
X247878220Y-118323166D01*
X247864376Y-118368802D01*
X247841892Y-118410867D01*
X247811635Y-118447735D01*
X247774767Y-118477992D01*
X247732702Y-118500476D01*
X247687066Y-118514320D01*
X247637114Y-118519240D01*
X246877566Y-118519240D01*
X246827614Y-118514320D01*
X246781978Y-118500476D01*
X246739913Y-118477992D01*
X246703045Y-118447735D01*
X246672788Y-118410867D01*
X246650304Y-118368802D01*
X246636460Y-118323166D01*
X246631540Y-118273214D01*
X246631540Y-117263666D01*
X246636460Y-117213714D01*
X246650304Y-117168078D01*
X246672788Y-117126013D01*
X246703045Y-117089145D01*
X246739913Y-117058888D01*
X246781978Y-117036404D01*
X246827614Y-117022560D01*
X246877566Y-117017640D01*
X247637114Y-117017640D01*
X247687066Y-117022560D01*
G37*
G36*
X245637066Y-117022560D02*
G01*
X245682702Y-117036404D01*
X245724767Y-117058888D01*
X245761635Y-117089145D01*
X245791892Y-117126013D01*
X245814376Y-117168078D01*
X245828220Y-117213714D01*
X245833140Y-117263666D01*
X245833140Y-118273214D01*
X245828220Y-118323166D01*
X245814376Y-118368802D01*
X245791892Y-118410867D01*
X245761635Y-118447735D01*
X245724767Y-118477992D01*
X245682702Y-118500476D01*
X245637066Y-118514320D01*
X245587114Y-118519240D01*
X244827566Y-118519240D01*
X244777614Y-118514320D01*
X244731978Y-118500476D01*
X244689913Y-118477992D01*
X244653045Y-118447735D01*
X244622788Y-118410867D01*
X244600304Y-118368802D01*
X244586460Y-118323166D01*
X244581540Y-118273214D01*
X244581540Y-117263666D01*
X244586460Y-117213714D01*
X244600304Y-117168078D01*
X244622788Y-117126013D01*
X244653045Y-117089145D01*
X244689913Y-117058888D01*
X244731978Y-117036404D01*
X244777614Y-117022560D01*
X244827566Y-117017640D01*
X245587114Y-117017640D01*
X245637066Y-117022560D01*
G37*
G36*
X243201274Y-116940704D02*
G01*
X243229399Y-116949236D01*
X243255315Y-116963088D01*
X243278029Y-116981731D01*
X243296672Y-117004445D01*
X243310524Y-117030361D01*
X243319056Y-117058486D01*
X243322180Y-117090211D01*
X243322180Y-117486549D01*
X243319056Y-117518274D01*
X243310524Y-117546399D01*
X243296672Y-117572315D01*
X243278029Y-117595029D01*
X243255315Y-117613672D01*
X243229399Y-117627524D01*
X243201274Y-117636056D01*
X243169549Y-117639180D01*
X241423211Y-117639180D01*
X241391486Y-117636056D01*
X241363361Y-117627524D01*
X241337445Y-117613672D01*
X241314731Y-117595029D01*
X241296088Y-117572315D01*
X241282236Y-117546399D01*
X241273704Y-117518274D01*
X241270580Y-117486549D01*
X241270580Y-117090211D01*
X241273704Y-117058486D01*
X241282236Y-117030361D01*
X241296088Y-117004445D01*
X241314731Y-116981731D01*
X241337445Y-116963088D01*
X241363361Y-116949236D01*
X241391486Y-116940704D01*
X241423211Y-116937580D01*
X243169549Y-116937580D01*
X243201274Y-116940704D01*
G37*
G36*
X238251274Y-116940704D02*
G01*
X238279399Y-116949236D01*
X238305315Y-116963088D01*
X238328029Y-116981731D01*
X238346672Y-117004445D01*
X238360524Y-117030361D01*
X238369056Y-117058486D01*
X238372180Y-117090211D01*
X238372180Y-117486549D01*
X238369056Y-117518274D01*
X238360524Y-117546399D01*
X238346672Y-117572315D01*
X238328029Y-117595029D01*
X238305315Y-117613672D01*
X238279399Y-117627524D01*
X238251274Y-117636056D01*
X238219549Y-117639180D01*
X236473211Y-117639180D01*
X236441486Y-117636056D01*
X236413361Y-117627524D01*
X236387445Y-117613672D01*
X236364731Y-117595029D01*
X236346088Y-117572315D01*
X236332236Y-117546399D01*
X236323704Y-117518274D01*
X236320580Y-117486549D01*
X236320580Y-117090211D01*
X236323704Y-117058486D01*
X236332236Y-117030361D01*
X236346088Y-117004445D01*
X236364731Y-116981731D01*
X236387445Y-116963088D01*
X236413361Y-116949236D01*
X236441486Y-116940704D01*
X236473211Y-116937580D01*
X238219549Y-116937580D01*
X238251274Y-116940704D01*
G37*
G36*
X138504726Y-115829120D02*
G01*
X138550362Y-115842964D01*
X138592427Y-115865448D01*
X138629295Y-115895705D01*
X138659552Y-115932573D01*
X138682036Y-115974638D01*
X138695880Y-116020274D01*
X138700800Y-116070226D01*
X138700800Y-117079774D01*
X138695880Y-117129726D01*
X138682036Y-117175362D01*
X138659552Y-117217427D01*
X138629295Y-117254295D01*
X138592427Y-117284552D01*
X138550362Y-117307036D01*
X138504726Y-117320880D01*
X138454774Y-117325800D01*
X137695226Y-117325800D01*
X137645274Y-117320880D01*
X137599638Y-117307036D01*
X137557573Y-117284552D01*
X137520705Y-117254295D01*
X137490448Y-117217427D01*
X137467964Y-117175362D01*
X137454120Y-117129726D01*
X137449200Y-117079774D01*
X137449200Y-116070226D01*
X137454120Y-116020274D01*
X137467964Y-115974638D01*
X137490448Y-115932573D01*
X137520705Y-115895705D01*
X137557573Y-115865448D01*
X137599638Y-115842964D01*
X137645274Y-115829120D01*
X137695226Y-115824200D01*
X138454774Y-115824200D01*
X138504726Y-115829120D01*
G37*
G36*
X136454726Y-115829120D02*
G01*
X136500362Y-115842964D01*
X136542427Y-115865448D01*
X136579295Y-115895705D01*
X136609552Y-115932573D01*
X136632036Y-115974638D01*
X136645880Y-116020274D01*
X136650800Y-116070226D01*
X136650800Y-117079774D01*
X136645880Y-117129726D01*
X136632036Y-117175362D01*
X136609552Y-117217427D01*
X136579295Y-117254295D01*
X136542427Y-117284552D01*
X136500362Y-117307036D01*
X136454726Y-117320880D01*
X136404774Y-117325800D01*
X135645226Y-117325800D01*
X135595274Y-117320880D01*
X135549638Y-117307036D01*
X135507573Y-117284552D01*
X135470705Y-117254295D01*
X135440448Y-117217427D01*
X135417964Y-117175362D01*
X135404120Y-117129726D01*
X135399200Y-117079774D01*
X135399200Y-116070226D01*
X135404120Y-116020274D01*
X135417964Y-115974638D01*
X135440448Y-115932573D01*
X135470705Y-115895705D01*
X135507573Y-115865448D01*
X135549638Y-115842964D01*
X135595274Y-115829120D01*
X135645226Y-115824200D01*
X136404774Y-115824200D01*
X136454726Y-115829120D01*
G37*
G36*
X266101226Y-116037580D02*
G01*
X266146862Y-116051424D01*
X266188927Y-116073908D01*
X266225795Y-116104165D01*
X266256052Y-116141033D01*
X266278536Y-116183098D01*
X266292380Y-116228734D01*
X266297300Y-116278686D01*
X266297300Y-117038234D01*
X266292380Y-117088186D01*
X266278536Y-117133822D01*
X266256052Y-117175887D01*
X266225795Y-117212755D01*
X266188927Y-117243012D01*
X266146862Y-117265496D01*
X266101226Y-117279340D01*
X266051274Y-117284260D01*
X265041726Y-117284260D01*
X264991774Y-117279340D01*
X264946138Y-117265496D01*
X264904073Y-117243012D01*
X264867205Y-117212755D01*
X264836948Y-117175887D01*
X264814464Y-117133822D01*
X264800620Y-117088186D01*
X264795700Y-117038234D01*
X264795700Y-116278686D01*
X264800620Y-116228734D01*
X264814464Y-116183098D01*
X264836948Y-116141033D01*
X264867205Y-116104165D01*
X264904073Y-116073908D01*
X264946138Y-116051424D01*
X264991774Y-116037580D01*
X265041726Y-116032660D01*
X266051274Y-116032660D01*
X266101226Y-116037580D01*
G37*
G36*
X268407546Y-116031340D02*
G01*
X268453182Y-116045184D01*
X268495247Y-116067668D01*
X268532115Y-116097925D01*
X268562372Y-116134793D01*
X268584856Y-116176858D01*
X268598700Y-116222494D01*
X268603620Y-116272446D01*
X268603620Y-117031994D01*
X268598700Y-117081946D01*
X268584856Y-117127582D01*
X268562372Y-117169647D01*
X268532115Y-117206515D01*
X268495247Y-117236772D01*
X268453182Y-117259256D01*
X268407546Y-117273100D01*
X268357594Y-117278020D01*
X267348046Y-117278020D01*
X267298094Y-117273100D01*
X267252458Y-117259256D01*
X267210393Y-117236772D01*
X267173525Y-117206515D01*
X267143268Y-117169647D01*
X267120784Y-117127582D01*
X267106940Y-117081946D01*
X267102020Y-117031994D01*
X267102020Y-116272446D01*
X267106940Y-116222494D01*
X267120784Y-116176858D01*
X267143268Y-116134793D01*
X267173525Y-116097925D01*
X267210393Y-116067668D01*
X267252458Y-116045184D01*
X267298094Y-116031340D01*
X267348046Y-116026420D01*
X268357594Y-116026420D01*
X268407546Y-116031340D01*
G37*
G36*
X261406520Y-117188980D02*
G01*
X260504920Y-117188980D01*
X260504920Y-116587380D01*
X261406520Y-116587380D01*
X261406520Y-117188980D01*
G37*
G36*
X263206520Y-117188980D02*
G01*
X262304920Y-117188980D01*
X262304920Y-116587380D01*
X263206520Y-116587380D01*
X263206520Y-117188980D01*
G37*
G36*
X117000800Y-116575800D02*
G01*
X113899200Y-116575800D01*
X113899200Y-113474200D01*
X117000800Y-113474200D01*
X117000800Y-116575800D01*
G37*
G36*
X113500800Y-116575800D02*
G01*
X110399200Y-116575800D01*
X110399200Y-113474200D01*
X113500800Y-113474200D01*
X113500800Y-116575800D01*
G37*
G36*
X263206520Y-116338980D02*
G01*
X262304920Y-116338980D01*
X262304920Y-115837380D01*
X263206520Y-115837380D01*
X263206520Y-116338980D01*
G37*
G36*
X261406520Y-116338980D02*
G01*
X260504920Y-116338980D01*
X260504920Y-115837380D01*
X261406520Y-115837380D01*
X261406520Y-116338980D01*
G37*
G36*
X246788544Y-114061528D02*
G01*
X246944212Y-114108750D01*
X247087670Y-114185431D01*
X247213414Y-114288626D01*
X247316609Y-114414370D01*
X247393290Y-114557828D01*
X247440512Y-114713496D01*
X247456455Y-114875380D01*
X247440512Y-115037264D01*
X247393290Y-115192932D01*
X247316609Y-115336390D01*
X247213414Y-115462134D01*
X247087670Y-115565329D01*
X246944212Y-115642010D01*
X246788544Y-115689232D01*
X246667227Y-115701180D01*
X244716093Y-115701180D01*
X244594776Y-115689232D01*
X244439108Y-115642010D01*
X244295650Y-115565329D01*
X244169906Y-115462134D01*
X244066711Y-115336390D01*
X243990030Y-115192932D01*
X243942808Y-115037264D01*
X243926865Y-114875380D01*
X243942808Y-114713496D01*
X243990030Y-114557828D01*
X244066711Y-114414370D01*
X244169906Y-114288626D01*
X244295650Y-114185431D01*
X244439108Y-114108750D01*
X244594776Y-114061528D01*
X244716093Y-114049580D01*
X246667227Y-114049580D01*
X246788544Y-114061528D01*
G37*
G36*
X242828544Y-114061528D02*
G01*
X242984212Y-114108750D01*
X243127670Y-114185431D01*
X243253414Y-114288626D01*
X243356609Y-114414370D01*
X243433290Y-114557828D01*
X243480512Y-114713496D01*
X243496455Y-114875380D01*
X243480512Y-115037264D01*
X243433290Y-115192932D01*
X243356609Y-115336390D01*
X243253414Y-115462134D01*
X243127670Y-115565329D01*
X242984212Y-115642010D01*
X242828544Y-115689232D01*
X242707227Y-115701180D01*
X240756093Y-115701180D01*
X240634776Y-115689232D01*
X240479108Y-115642010D01*
X240335650Y-115565329D01*
X240209906Y-115462134D01*
X240106711Y-115336390D01*
X240030030Y-115192932D01*
X239982808Y-115037264D01*
X239966865Y-114875380D01*
X239982808Y-114713496D01*
X240030030Y-114557828D01*
X240106711Y-114414370D01*
X240209906Y-114288626D01*
X240335650Y-114185431D01*
X240479108Y-114108750D01*
X240634776Y-114061528D01*
X240756093Y-114049580D01*
X242707227Y-114049580D01*
X242828544Y-114061528D01*
G37*
G36*
X203228544Y-114061528D02*
G01*
X203384212Y-114108750D01*
X203527670Y-114185431D01*
X203653414Y-114288626D01*
X203756609Y-114414370D01*
X203833290Y-114557828D01*
X203880512Y-114713496D01*
X203896455Y-114875380D01*
X203880512Y-115037264D01*
X203833290Y-115192932D01*
X203756609Y-115336390D01*
X203653414Y-115462134D01*
X203527670Y-115565329D01*
X203384212Y-115642010D01*
X203228544Y-115689232D01*
X203107227Y-115701180D01*
X201156093Y-115701180D01*
X201034776Y-115689232D01*
X200879108Y-115642010D01*
X200735650Y-115565329D01*
X200609906Y-115462134D01*
X200506711Y-115336390D01*
X200430030Y-115192932D01*
X200382808Y-115037264D01*
X200366865Y-114875380D01*
X200382808Y-114713496D01*
X200430030Y-114557828D01*
X200506711Y-114414370D01*
X200609906Y-114288626D01*
X200735650Y-114185431D01*
X200879108Y-114108750D01*
X201034776Y-114061528D01*
X201156093Y-114049580D01*
X203107227Y-114049580D01*
X203228544Y-114061528D01*
G37*
G36*
X226988544Y-114061528D02*
G01*
X227144212Y-114108750D01*
X227287670Y-114185431D01*
X227413414Y-114288626D01*
X227516609Y-114414370D01*
X227593290Y-114557828D01*
X227640512Y-114713496D01*
X227656455Y-114875380D01*
X227640512Y-115037264D01*
X227593290Y-115192932D01*
X227516609Y-115336390D01*
X227413414Y-115462134D01*
X227287670Y-115565329D01*
X227144212Y-115642010D01*
X226988544Y-115689232D01*
X226867227Y-115701180D01*
X224916093Y-115701180D01*
X224794776Y-115689232D01*
X224639108Y-115642010D01*
X224495650Y-115565329D01*
X224369906Y-115462134D01*
X224266711Y-115336390D01*
X224190030Y-115192932D01*
X224142808Y-115037264D01*
X224126865Y-114875380D01*
X224142808Y-114713496D01*
X224190030Y-114557828D01*
X224266711Y-114414370D01*
X224369906Y-114288626D01*
X224495650Y-114185431D01*
X224639108Y-114108750D01*
X224794776Y-114061528D01*
X224916093Y-114049580D01*
X226867227Y-114049580D01*
X226988544Y-114061528D01*
G37*
G36*
X234908544Y-114061528D02*
G01*
X235064212Y-114108750D01*
X235207670Y-114185431D01*
X235333414Y-114288626D01*
X235436609Y-114414370D01*
X235513290Y-114557828D01*
X235560512Y-114713496D01*
X235576455Y-114875380D01*
X235560512Y-115037264D01*
X235513290Y-115192932D01*
X235436609Y-115336390D01*
X235333414Y-115462134D01*
X235207670Y-115565329D01*
X235064212Y-115642010D01*
X234908544Y-115689232D01*
X234787227Y-115701180D01*
X232836093Y-115701180D01*
X232714776Y-115689232D01*
X232559108Y-115642010D01*
X232415650Y-115565329D01*
X232289906Y-115462134D01*
X232186711Y-115336390D01*
X232110030Y-115192932D01*
X232062808Y-115037264D01*
X232046865Y-114875380D01*
X232062808Y-114713496D01*
X232110030Y-114557828D01*
X232186711Y-114414370D01*
X232289906Y-114288626D01*
X232415650Y-114185431D01*
X232559108Y-114108750D01*
X232714776Y-114061528D01*
X232836093Y-114049580D01*
X234787227Y-114049580D01*
X234908544Y-114061528D01*
G37*
G36*
X230948544Y-114061528D02*
G01*
X231104212Y-114108750D01*
X231247670Y-114185431D01*
X231373414Y-114288626D01*
X231476609Y-114414370D01*
X231553290Y-114557828D01*
X231600512Y-114713496D01*
X231616455Y-114875380D01*
X231600512Y-115037264D01*
X231553290Y-115192932D01*
X231476609Y-115336390D01*
X231373414Y-115462134D01*
X231247670Y-115565329D01*
X231104212Y-115642010D01*
X230948544Y-115689232D01*
X230827227Y-115701180D01*
X228876093Y-115701180D01*
X228754776Y-115689232D01*
X228599108Y-115642010D01*
X228455650Y-115565329D01*
X228329906Y-115462134D01*
X228226711Y-115336390D01*
X228150030Y-115192932D01*
X228102808Y-115037264D01*
X228086865Y-114875380D01*
X228102808Y-114713496D01*
X228150030Y-114557828D01*
X228226711Y-114414370D01*
X228329906Y-114288626D01*
X228455650Y-114185431D01*
X228599108Y-114108750D01*
X228754776Y-114061528D01*
X228876093Y-114049580D01*
X230827227Y-114049580D01*
X230948544Y-114061528D01*
G37*
G36*
X187388544Y-114061528D02*
G01*
X187544212Y-114108750D01*
X187687670Y-114185431D01*
X187813414Y-114288626D01*
X187916609Y-114414370D01*
X187993290Y-114557828D01*
X188040512Y-114713496D01*
X188056455Y-114875380D01*
X188040512Y-115037264D01*
X187993290Y-115192932D01*
X187916609Y-115336390D01*
X187813414Y-115462134D01*
X187687670Y-115565329D01*
X187544212Y-115642010D01*
X187388544Y-115689232D01*
X187267227Y-115701180D01*
X185316093Y-115701180D01*
X185194776Y-115689232D01*
X185039108Y-115642010D01*
X184895650Y-115565329D01*
X184769906Y-115462134D01*
X184666711Y-115336390D01*
X184590030Y-115192932D01*
X184542808Y-115037264D01*
X184526865Y-114875380D01*
X184542808Y-114713496D01*
X184590030Y-114557828D01*
X184666711Y-114414370D01*
X184769906Y-114288626D01*
X184895650Y-114185431D01*
X185039108Y-114108750D01*
X185194776Y-114061528D01*
X185316093Y-114049580D01*
X187267227Y-114049580D01*
X187388544Y-114061528D01*
G37*
G36*
X223028544Y-114061528D02*
G01*
X223184212Y-114108750D01*
X223327670Y-114185431D01*
X223453414Y-114288626D01*
X223556609Y-114414370D01*
X223633290Y-114557828D01*
X223680512Y-114713496D01*
X223696455Y-114875380D01*
X223680512Y-115037264D01*
X223633290Y-115192932D01*
X223556609Y-115336390D01*
X223453414Y-115462134D01*
X223327670Y-115565329D01*
X223184212Y-115642010D01*
X223028544Y-115689232D01*
X222907227Y-115701180D01*
X220956093Y-115701180D01*
X220834776Y-115689232D01*
X220679108Y-115642010D01*
X220535650Y-115565329D01*
X220409906Y-115462134D01*
X220306711Y-115336390D01*
X220230030Y-115192932D01*
X220182808Y-115037264D01*
X220166865Y-114875380D01*
X220182808Y-114713496D01*
X220230030Y-114557828D01*
X220306711Y-114414370D01*
X220409906Y-114288626D01*
X220535650Y-114185431D01*
X220679108Y-114108750D01*
X220834776Y-114061528D01*
X220956093Y-114049580D01*
X222907227Y-114049580D01*
X223028544Y-114061528D01*
G37*
G36*
X219068544Y-114061528D02*
G01*
X219224212Y-114108750D01*
X219367670Y-114185431D01*
X219493414Y-114288626D01*
X219596609Y-114414370D01*
X219673290Y-114557828D01*
X219720512Y-114713496D01*
X219736455Y-114875380D01*
X219720512Y-115037264D01*
X219673290Y-115192932D01*
X219596609Y-115336390D01*
X219493414Y-115462134D01*
X219367670Y-115565329D01*
X219224212Y-115642010D01*
X219068544Y-115689232D01*
X218947227Y-115701180D01*
X216996093Y-115701180D01*
X216874776Y-115689232D01*
X216719108Y-115642010D01*
X216575650Y-115565329D01*
X216449906Y-115462134D01*
X216346711Y-115336390D01*
X216270030Y-115192932D01*
X216222808Y-115037264D01*
X216206865Y-114875380D01*
X216222808Y-114713496D01*
X216270030Y-114557828D01*
X216346711Y-114414370D01*
X216449906Y-114288626D01*
X216575650Y-114185431D01*
X216719108Y-114108750D01*
X216874776Y-114061528D01*
X216996093Y-114049580D01*
X218947227Y-114049580D01*
X219068544Y-114061528D01*
G37*
G36*
X215108544Y-114061528D02*
G01*
X215264212Y-114108750D01*
X215407670Y-114185431D01*
X215533414Y-114288626D01*
X215636609Y-114414370D01*
X215713290Y-114557828D01*
X215760512Y-114713496D01*
X215776455Y-114875380D01*
X215760512Y-115037264D01*
X215713290Y-115192932D01*
X215636609Y-115336390D01*
X215533414Y-115462134D01*
X215407670Y-115565329D01*
X215264212Y-115642010D01*
X215108544Y-115689232D01*
X214987227Y-115701180D01*
X213036093Y-115701180D01*
X212914776Y-115689232D01*
X212759108Y-115642010D01*
X212615650Y-115565329D01*
X212489906Y-115462134D01*
X212386711Y-115336390D01*
X212310030Y-115192932D01*
X212262808Y-115037264D01*
X212246865Y-114875380D01*
X212262808Y-114713496D01*
X212310030Y-114557828D01*
X212386711Y-114414370D01*
X212489906Y-114288626D01*
X212615650Y-114185431D01*
X212759108Y-114108750D01*
X212914776Y-114061528D01*
X213036093Y-114049580D01*
X214987227Y-114049580D01*
X215108544Y-114061528D01*
G37*
G36*
X211148544Y-114061528D02*
G01*
X211304212Y-114108750D01*
X211447670Y-114185431D01*
X211573414Y-114288626D01*
X211676609Y-114414370D01*
X211753290Y-114557828D01*
X211800512Y-114713496D01*
X211816455Y-114875380D01*
X211800512Y-115037264D01*
X211753290Y-115192932D01*
X211676609Y-115336390D01*
X211573414Y-115462134D01*
X211447670Y-115565329D01*
X211304212Y-115642010D01*
X211148544Y-115689232D01*
X211027227Y-115701180D01*
X209076093Y-115701180D01*
X208954776Y-115689232D01*
X208799108Y-115642010D01*
X208655650Y-115565329D01*
X208529906Y-115462134D01*
X208426711Y-115336390D01*
X208350030Y-115192932D01*
X208302808Y-115037264D01*
X208286865Y-114875380D01*
X208302808Y-114713496D01*
X208350030Y-114557828D01*
X208426711Y-114414370D01*
X208529906Y-114288626D01*
X208655650Y-114185431D01*
X208799108Y-114108750D01*
X208954776Y-114061528D01*
X209076093Y-114049580D01*
X211027227Y-114049580D01*
X211148544Y-114061528D01*
G37*
G36*
X207188544Y-114061528D02*
G01*
X207344212Y-114108750D01*
X207487670Y-114185431D01*
X207613414Y-114288626D01*
X207716609Y-114414370D01*
X207793290Y-114557828D01*
X207840512Y-114713496D01*
X207856455Y-114875380D01*
X207840512Y-115037264D01*
X207793290Y-115192932D01*
X207716609Y-115336390D01*
X207613414Y-115462134D01*
X207487670Y-115565329D01*
X207344212Y-115642010D01*
X207188544Y-115689232D01*
X207067227Y-115701180D01*
X205116093Y-115701180D01*
X204994776Y-115689232D01*
X204839108Y-115642010D01*
X204695650Y-115565329D01*
X204569906Y-115462134D01*
X204466711Y-115336390D01*
X204390030Y-115192932D01*
X204342808Y-115037264D01*
X204326865Y-114875380D01*
X204342808Y-114713496D01*
X204390030Y-114557828D01*
X204466711Y-114414370D01*
X204569906Y-114288626D01*
X204695650Y-114185431D01*
X204839108Y-114108750D01*
X204994776Y-114061528D01*
X205116093Y-114049580D01*
X207067227Y-114049580D01*
X207188544Y-114061528D01*
G37*
G36*
X199268544Y-114061528D02*
G01*
X199424212Y-114108750D01*
X199567670Y-114185431D01*
X199693414Y-114288626D01*
X199796609Y-114414370D01*
X199873290Y-114557828D01*
X199920512Y-114713496D01*
X199936455Y-114875380D01*
X199920512Y-115037264D01*
X199873290Y-115192932D01*
X199796609Y-115336390D01*
X199693414Y-115462134D01*
X199567670Y-115565329D01*
X199424212Y-115642010D01*
X199268544Y-115689232D01*
X199147227Y-115701180D01*
X197196093Y-115701180D01*
X197074776Y-115689232D01*
X196919108Y-115642010D01*
X196775650Y-115565329D01*
X196649906Y-115462134D01*
X196546711Y-115336390D01*
X196470030Y-115192932D01*
X196422808Y-115037264D01*
X196406865Y-114875380D01*
X196422808Y-114713496D01*
X196470030Y-114557828D01*
X196546711Y-114414370D01*
X196649906Y-114288626D01*
X196775650Y-114185431D01*
X196919108Y-114108750D01*
X197074776Y-114061528D01*
X197196093Y-114049580D01*
X199147227Y-114049580D01*
X199268544Y-114061528D01*
G37*
G36*
X195308544Y-114061528D02*
G01*
X195464212Y-114108750D01*
X195607670Y-114185431D01*
X195733414Y-114288626D01*
X195836609Y-114414370D01*
X195913290Y-114557828D01*
X195960512Y-114713496D01*
X195976455Y-114875380D01*
X195960512Y-115037264D01*
X195913290Y-115192932D01*
X195836609Y-115336390D01*
X195733414Y-115462134D01*
X195607670Y-115565329D01*
X195464212Y-115642010D01*
X195308544Y-115689232D01*
X195187227Y-115701180D01*
X193236093Y-115701180D01*
X193114776Y-115689232D01*
X192959108Y-115642010D01*
X192815650Y-115565329D01*
X192689906Y-115462134D01*
X192586711Y-115336390D01*
X192510030Y-115192932D01*
X192462808Y-115037264D01*
X192446865Y-114875380D01*
X192462808Y-114713496D01*
X192510030Y-114557828D01*
X192586711Y-114414370D01*
X192689906Y-114288626D01*
X192815650Y-114185431D01*
X192959108Y-114108750D01*
X193114776Y-114061528D01*
X193236093Y-114049580D01*
X195187227Y-114049580D01*
X195308544Y-114061528D01*
G37*
G36*
X191348544Y-114061528D02*
G01*
X191504212Y-114108750D01*
X191647670Y-114185431D01*
X191773414Y-114288626D01*
X191876609Y-114414370D01*
X191953290Y-114557828D01*
X192000512Y-114713496D01*
X192016455Y-114875380D01*
X192000512Y-115037264D01*
X191953290Y-115192932D01*
X191876609Y-115336390D01*
X191773414Y-115462134D01*
X191647670Y-115565329D01*
X191504212Y-115642010D01*
X191348544Y-115689232D01*
X191227227Y-115701180D01*
X189276093Y-115701180D01*
X189154776Y-115689232D01*
X188999108Y-115642010D01*
X188855650Y-115565329D01*
X188729906Y-115462134D01*
X188626711Y-115336390D01*
X188550030Y-115192932D01*
X188502808Y-115037264D01*
X188486865Y-114875380D01*
X188502808Y-114713496D01*
X188550030Y-114557828D01*
X188626711Y-114414370D01*
X188729906Y-114288626D01*
X188855650Y-114185431D01*
X188999108Y-114108750D01*
X189154776Y-114061528D01*
X189276093Y-114049580D01*
X191227227Y-114049580D01*
X191348544Y-114061528D01*
G37*
G36*
X175508544Y-114061528D02*
G01*
X175664212Y-114108750D01*
X175807670Y-114185431D01*
X175933414Y-114288626D01*
X176036609Y-114414370D01*
X176113290Y-114557828D01*
X176160512Y-114713496D01*
X176176455Y-114875380D01*
X176160512Y-115037264D01*
X176113290Y-115192932D01*
X176036609Y-115336390D01*
X175933414Y-115462134D01*
X175807670Y-115565329D01*
X175664212Y-115642010D01*
X175508544Y-115689232D01*
X175387227Y-115701180D01*
X173436093Y-115701180D01*
X173314776Y-115689232D01*
X173159108Y-115642010D01*
X173015650Y-115565329D01*
X172889906Y-115462134D01*
X172786711Y-115336390D01*
X172710030Y-115192932D01*
X172662808Y-115037264D01*
X172646865Y-114875380D01*
X172662808Y-114713496D01*
X172710030Y-114557828D01*
X172786711Y-114414370D01*
X172889906Y-114288626D01*
X173015650Y-114185431D01*
X173159108Y-114108750D01*
X173314776Y-114061528D01*
X173436093Y-114049580D01*
X175387227Y-114049580D01*
X175508544Y-114061528D01*
G37*
G36*
X250748544Y-114061528D02*
G01*
X250904212Y-114108750D01*
X251047670Y-114185431D01*
X251173414Y-114288626D01*
X251276609Y-114414370D01*
X251353290Y-114557828D01*
X251400512Y-114713496D01*
X251416455Y-114875380D01*
X251400512Y-115037264D01*
X251353290Y-115192932D01*
X251276609Y-115336390D01*
X251173414Y-115462134D01*
X251047670Y-115565329D01*
X250904212Y-115642010D01*
X250748544Y-115689232D01*
X250627227Y-115701180D01*
X248676093Y-115701180D01*
X248554776Y-115689232D01*
X248399108Y-115642010D01*
X248255650Y-115565329D01*
X248129906Y-115462134D01*
X248026711Y-115336390D01*
X247950030Y-115192932D01*
X247902808Y-115037264D01*
X247886865Y-114875380D01*
X247902808Y-114713496D01*
X247950030Y-114557828D01*
X248026711Y-114414370D01*
X248129906Y-114288626D01*
X248255650Y-114185431D01*
X248399108Y-114108750D01*
X248554776Y-114061528D01*
X248676093Y-114049580D01*
X250627227Y-114049580D01*
X250748544Y-114061528D01*
G37*
G36*
X183428544Y-114061528D02*
G01*
X183584212Y-114108750D01*
X183727670Y-114185431D01*
X183853414Y-114288626D01*
X183956609Y-114414370D01*
X184033290Y-114557828D01*
X184080512Y-114713496D01*
X184096455Y-114875380D01*
X184080512Y-115037264D01*
X184033290Y-115192932D01*
X183956609Y-115336390D01*
X183853414Y-115462134D01*
X183727670Y-115565329D01*
X183584212Y-115642010D01*
X183428544Y-115689232D01*
X183307227Y-115701180D01*
X181356093Y-115701180D01*
X181234776Y-115689232D01*
X181079108Y-115642010D01*
X180935650Y-115565329D01*
X180809906Y-115462134D01*
X180706711Y-115336390D01*
X180630030Y-115192932D01*
X180582808Y-115037264D01*
X180566865Y-114875380D01*
X180582808Y-114713496D01*
X180630030Y-114557828D01*
X180706711Y-114414370D01*
X180809906Y-114288626D01*
X180935650Y-114185431D01*
X181079108Y-114108750D01*
X181234776Y-114061528D01*
X181356093Y-114049580D01*
X183307227Y-114049580D01*
X183428544Y-114061528D01*
G37*
G36*
X238868544Y-114061528D02*
G01*
X239024212Y-114108750D01*
X239167670Y-114185431D01*
X239293414Y-114288626D01*
X239396609Y-114414370D01*
X239473290Y-114557828D01*
X239520512Y-114713496D01*
X239536455Y-114875380D01*
X239520512Y-115037264D01*
X239473290Y-115192932D01*
X239396609Y-115336390D01*
X239293414Y-115462134D01*
X239167670Y-115565329D01*
X239024212Y-115642010D01*
X238868544Y-115689232D01*
X238747227Y-115701180D01*
X236796093Y-115701180D01*
X236674776Y-115689232D01*
X236519108Y-115642010D01*
X236375650Y-115565329D01*
X236249906Y-115462134D01*
X236146711Y-115336390D01*
X236070030Y-115192932D01*
X236022808Y-115037264D01*
X236006865Y-114875380D01*
X236022808Y-114713496D01*
X236070030Y-114557828D01*
X236146711Y-114414370D01*
X236249906Y-114288626D01*
X236375650Y-114185431D01*
X236519108Y-114108750D01*
X236674776Y-114061528D01*
X236796093Y-114049580D01*
X238747227Y-114049580D01*
X238868544Y-114061528D01*
G37*
G36*
X179468544Y-114061528D02*
G01*
X179624212Y-114108750D01*
X179767670Y-114185431D01*
X179893414Y-114288626D01*
X179996609Y-114414370D01*
X180073290Y-114557828D01*
X180120512Y-114713496D01*
X180136455Y-114875380D01*
X180120512Y-115037264D01*
X180073290Y-115192932D01*
X179996609Y-115336390D01*
X179893414Y-115462134D01*
X179767670Y-115565329D01*
X179624212Y-115642010D01*
X179468544Y-115689232D01*
X179347227Y-115701180D01*
X177396093Y-115701180D01*
X177274776Y-115689232D01*
X177119108Y-115642010D01*
X176975650Y-115565329D01*
X176849906Y-115462134D01*
X176746711Y-115336390D01*
X176670030Y-115192932D01*
X176622808Y-115037264D01*
X176606865Y-114875380D01*
X176622808Y-114713496D01*
X176670030Y-114557828D01*
X176746711Y-114414370D01*
X176849906Y-114288626D01*
X176975650Y-114185431D01*
X177119108Y-114108750D01*
X177274776Y-114061528D01*
X177396093Y-114049580D01*
X179347227Y-114049580D01*
X179468544Y-114061528D01*
G37*
G36*
X171548544Y-114061528D02*
G01*
X171704212Y-114108750D01*
X171847670Y-114185431D01*
X171973414Y-114288626D01*
X172076609Y-114414370D01*
X172153290Y-114557828D01*
X172200512Y-114713496D01*
X172216455Y-114875380D01*
X172200512Y-115037264D01*
X172153290Y-115192932D01*
X172076609Y-115336390D01*
X171973414Y-115462134D01*
X171847670Y-115565329D01*
X171704212Y-115642010D01*
X171548544Y-115689232D01*
X171427227Y-115701180D01*
X169476093Y-115701180D01*
X169354776Y-115689232D01*
X169199108Y-115642010D01*
X169055650Y-115565329D01*
X168929906Y-115462134D01*
X168826711Y-115336390D01*
X168750030Y-115192932D01*
X168702808Y-115037264D01*
X168686865Y-114875380D01*
X168702808Y-114713496D01*
X168750030Y-114557828D01*
X168826711Y-114414370D01*
X168929906Y-114288626D01*
X169055650Y-114185431D01*
X169199108Y-114108750D01*
X169354776Y-114061528D01*
X169476093Y-114049580D01*
X171427227Y-114049580D01*
X171548544Y-114061528D01*
G37*
G36*
X167588544Y-114061528D02*
G01*
X167744212Y-114108750D01*
X167887670Y-114185431D01*
X168013414Y-114288626D01*
X168116609Y-114414370D01*
X168193290Y-114557828D01*
X168240512Y-114713496D01*
X168256455Y-114875380D01*
X168240512Y-115037264D01*
X168193290Y-115192932D01*
X168116609Y-115336390D01*
X168013414Y-115462134D01*
X167887670Y-115565329D01*
X167744212Y-115642010D01*
X167588544Y-115689232D01*
X167467227Y-115701180D01*
X165516093Y-115701180D01*
X165394776Y-115689232D01*
X165239108Y-115642010D01*
X165095650Y-115565329D01*
X164969906Y-115462134D01*
X164866711Y-115336390D01*
X164790030Y-115192932D01*
X164742808Y-115037264D01*
X164726865Y-114875380D01*
X164742808Y-114713496D01*
X164790030Y-114557828D01*
X164866711Y-114414370D01*
X164969906Y-114288626D01*
X165095650Y-114185431D01*
X165239108Y-114108750D01*
X165394776Y-114061528D01*
X165516093Y-114049580D01*
X167467227Y-114049580D01*
X167588544Y-114061528D01*
G37*
G36*
X163628544Y-114061528D02*
G01*
X163784212Y-114108750D01*
X163927670Y-114185431D01*
X164053414Y-114288626D01*
X164156609Y-114414370D01*
X164233290Y-114557828D01*
X164280512Y-114713496D01*
X164296455Y-114875380D01*
X164280512Y-115037264D01*
X164233290Y-115192932D01*
X164156609Y-115336390D01*
X164053414Y-115462134D01*
X163927670Y-115565329D01*
X163784212Y-115642010D01*
X163628544Y-115689232D01*
X163507227Y-115701180D01*
X161556093Y-115701180D01*
X161434776Y-115689232D01*
X161279108Y-115642010D01*
X161135650Y-115565329D01*
X161009906Y-115462134D01*
X160906711Y-115336390D01*
X160830030Y-115192932D01*
X160782808Y-115037264D01*
X160766865Y-114875380D01*
X160782808Y-114713496D01*
X160830030Y-114557828D01*
X160906711Y-114414370D01*
X161009906Y-114288626D01*
X161135650Y-114185431D01*
X161279108Y-114108750D01*
X161434776Y-114061528D01*
X161556093Y-114049580D01*
X163507227Y-114049580D01*
X163628544Y-114061528D01*
G37*
G36*
X159668544Y-114061528D02*
G01*
X159824212Y-114108750D01*
X159967670Y-114185431D01*
X160093414Y-114288626D01*
X160196609Y-114414370D01*
X160273290Y-114557828D01*
X160320512Y-114713496D01*
X160336455Y-114875380D01*
X160320512Y-115037264D01*
X160273290Y-115192932D01*
X160196609Y-115336390D01*
X160093414Y-115462134D01*
X159967670Y-115565329D01*
X159824212Y-115642010D01*
X159668544Y-115689232D01*
X159547227Y-115701180D01*
X157596093Y-115701180D01*
X157474776Y-115689232D01*
X157319108Y-115642010D01*
X157175650Y-115565329D01*
X157049906Y-115462134D01*
X156946711Y-115336390D01*
X156870030Y-115192932D01*
X156822808Y-115037264D01*
X156806865Y-114875380D01*
X156822808Y-114713496D01*
X156870030Y-114557828D01*
X156946711Y-114414370D01*
X157049906Y-114288626D01*
X157175650Y-114185431D01*
X157319108Y-114108750D01*
X157474776Y-114061528D01*
X157596093Y-114049580D01*
X159547227Y-114049580D01*
X159668544Y-114061528D01*
G37*
G36*
X155708544Y-114061528D02*
G01*
X155864212Y-114108750D01*
X156007670Y-114185431D01*
X156133414Y-114288626D01*
X156236609Y-114414370D01*
X156313290Y-114557828D01*
X156360512Y-114713496D01*
X156376455Y-114875380D01*
X156360512Y-115037264D01*
X156313290Y-115192932D01*
X156236609Y-115336390D01*
X156133414Y-115462134D01*
X156007670Y-115565329D01*
X155864212Y-115642010D01*
X155708544Y-115689232D01*
X155587227Y-115701180D01*
X153636093Y-115701180D01*
X153514776Y-115689232D01*
X153359108Y-115642010D01*
X153215650Y-115565329D01*
X153089906Y-115462134D01*
X152986711Y-115336390D01*
X152910030Y-115192932D01*
X152862808Y-115037264D01*
X152846865Y-114875380D01*
X152862808Y-114713496D01*
X152910030Y-114557828D01*
X152986711Y-114414370D01*
X153089906Y-114288626D01*
X153215650Y-114185431D01*
X153359108Y-114108750D01*
X153514776Y-114061528D01*
X153636093Y-114049580D01*
X155587227Y-114049580D01*
X155708544Y-114061528D01*
G37*
G36*
X151748544Y-114061528D02*
G01*
X151904212Y-114108750D01*
X152047670Y-114185431D01*
X152173414Y-114288626D01*
X152276609Y-114414370D01*
X152353290Y-114557828D01*
X152400512Y-114713496D01*
X152416455Y-114875380D01*
X152400512Y-115037264D01*
X152353290Y-115192932D01*
X152276609Y-115336390D01*
X152173414Y-115462134D01*
X152047670Y-115565329D01*
X151904212Y-115642010D01*
X151748544Y-115689232D01*
X151627227Y-115701180D01*
X149676093Y-115701180D01*
X149554776Y-115689232D01*
X149399108Y-115642010D01*
X149255650Y-115565329D01*
X149129906Y-115462134D01*
X149026711Y-115336390D01*
X148950030Y-115192932D01*
X148902808Y-115037264D01*
X148886865Y-114875380D01*
X148902808Y-114713496D01*
X148950030Y-114557828D01*
X149026711Y-114414370D01*
X149129906Y-114288626D01*
X149255650Y-114185431D01*
X149399108Y-114108750D01*
X149554776Y-114061528D01*
X149676093Y-114049580D01*
X151627227Y-114049580D01*
X151748544Y-114061528D01*
G37*
G36*
X147788544Y-114061528D02*
G01*
X147944212Y-114108750D01*
X148087670Y-114185431D01*
X148213414Y-114288626D01*
X148316609Y-114414370D01*
X148393290Y-114557828D01*
X148440512Y-114713496D01*
X148456455Y-114875380D01*
X148440512Y-115037264D01*
X148393290Y-115192932D01*
X148316609Y-115336390D01*
X148213414Y-115462134D01*
X148087670Y-115565329D01*
X147944212Y-115642010D01*
X147788544Y-115689232D01*
X147667227Y-115701180D01*
X145716093Y-115701180D01*
X145594776Y-115689232D01*
X145439108Y-115642010D01*
X145295650Y-115565329D01*
X145169906Y-115462134D01*
X145066711Y-115336390D01*
X144990030Y-115192932D01*
X144942808Y-115037264D01*
X144926865Y-114875380D01*
X144942808Y-114713496D01*
X144990030Y-114557828D01*
X145066711Y-114414370D01*
X145169906Y-114288626D01*
X145295650Y-114185431D01*
X145439108Y-114108750D01*
X145594776Y-114061528D01*
X145716093Y-114049580D01*
X147667227Y-114049580D01*
X147788544Y-114061528D01*
G37*
G36*
X143828544Y-114061528D02*
G01*
X143984212Y-114108750D01*
X144127670Y-114185431D01*
X144253414Y-114288626D01*
X144356609Y-114414370D01*
X144433290Y-114557828D01*
X144480512Y-114713496D01*
X144496455Y-114875380D01*
X144480512Y-115037264D01*
X144433290Y-115192932D01*
X144356609Y-115336390D01*
X144253414Y-115462134D01*
X144127670Y-115565329D01*
X143984212Y-115642010D01*
X143828544Y-115689232D01*
X143707227Y-115701180D01*
X141756093Y-115701180D01*
X141634776Y-115689232D01*
X141479108Y-115642010D01*
X141335650Y-115565329D01*
X141209906Y-115462134D01*
X141106711Y-115336390D01*
X141030030Y-115192932D01*
X140982808Y-115037264D01*
X140966865Y-114875380D01*
X140982808Y-114713496D01*
X141030030Y-114557828D01*
X141106711Y-114414370D01*
X141209906Y-114288626D01*
X141335650Y-114185431D01*
X141479108Y-114108750D01*
X141634776Y-114061528D01*
X141756093Y-114049580D01*
X143707227Y-114049580D01*
X143828544Y-114061528D01*
G37*
G36*
X258668544Y-114061528D02*
G01*
X258824212Y-114108750D01*
X258967670Y-114185431D01*
X259093414Y-114288626D01*
X259196609Y-114414370D01*
X259273290Y-114557828D01*
X259320512Y-114713496D01*
X259336455Y-114875380D01*
X259320512Y-115037264D01*
X259273290Y-115192932D01*
X259196609Y-115336390D01*
X259093414Y-115462134D01*
X258967670Y-115565329D01*
X258824212Y-115642010D01*
X258668544Y-115689232D01*
X258547227Y-115701180D01*
X256596093Y-115701180D01*
X256474776Y-115689232D01*
X256319108Y-115642010D01*
X256175650Y-115565329D01*
X256049906Y-115462134D01*
X255946711Y-115336390D01*
X255870030Y-115192932D01*
X255822808Y-115037264D01*
X255806865Y-114875380D01*
X255822808Y-114713496D01*
X255870030Y-114557828D01*
X255946711Y-114414370D01*
X256049906Y-114288626D01*
X256175650Y-114185431D01*
X256319108Y-114108750D01*
X256474776Y-114061528D01*
X256596093Y-114049580D01*
X258547227Y-114049580D01*
X258668544Y-114061528D01*
G37*
G36*
X254708544Y-114061528D02*
G01*
X254864212Y-114108750D01*
X255007670Y-114185431D01*
X255133414Y-114288626D01*
X255236609Y-114414370D01*
X255313290Y-114557828D01*
X255360512Y-114713496D01*
X255376455Y-114875380D01*
X255360512Y-115037264D01*
X255313290Y-115192932D01*
X255236609Y-115336390D01*
X255133414Y-115462134D01*
X255007670Y-115565329D01*
X254864212Y-115642010D01*
X254708544Y-115689232D01*
X254587227Y-115701180D01*
X252636093Y-115701180D01*
X252514776Y-115689232D01*
X252359108Y-115642010D01*
X252215650Y-115565329D01*
X252089906Y-115462134D01*
X251986711Y-115336390D01*
X251910030Y-115192932D01*
X251862808Y-115037264D01*
X251846865Y-114875380D01*
X251862808Y-114713496D01*
X251910030Y-114557828D01*
X251986711Y-114414370D01*
X252089906Y-114288626D01*
X252215650Y-114185431D01*
X252359108Y-114108750D01*
X252514776Y-114061528D01*
X252636093Y-114049580D01*
X254587227Y-114049580D01*
X254708544Y-114061528D01*
G37*
G36*
X263206520Y-115538980D02*
G01*
X262304920Y-115538980D01*
X262304920Y-115037380D01*
X263206520Y-115037380D01*
X263206520Y-115538980D01*
G37*
G36*
X261406520Y-115538980D02*
G01*
X260504920Y-115538980D01*
X260504920Y-115037380D01*
X261406520Y-115037380D01*
X261406520Y-115538980D01*
G37*
G36*
X136454726Y-113829120D02*
G01*
X136500362Y-113842964D01*
X136542427Y-113865448D01*
X136579295Y-113895705D01*
X136609552Y-113932573D01*
X136632036Y-113974638D01*
X136645880Y-114020274D01*
X136650800Y-114070226D01*
X136650800Y-115079774D01*
X136645880Y-115129726D01*
X136632036Y-115175362D01*
X136609552Y-115217427D01*
X136579295Y-115254295D01*
X136542427Y-115284552D01*
X136500362Y-115307036D01*
X136454726Y-115320880D01*
X136404774Y-115325800D01*
X135645226Y-115325800D01*
X135595274Y-115320880D01*
X135549638Y-115307036D01*
X135507573Y-115284552D01*
X135470705Y-115254295D01*
X135440448Y-115217427D01*
X135417964Y-115175362D01*
X135404120Y-115129726D01*
X135399200Y-115079774D01*
X135399200Y-114070226D01*
X135404120Y-114020274D01*
X135417964Y-113974638D01*
X135440448Y-113932573D01*
X135470705Y-113895705D01*
X135507573Y-113865448D01*
X135549638Y-113842964D01*
X135595274Y-113829120D01*
X135645226Y-113824200D01*
X136404774Y-113824200D01*
X136454726Y-113829120D01*
G37*
G36*
X138504726Y-113829120D02*
G01*
X138550362Y-113842964D01*
X138592427Y-113865448D01*
X138629295Y-113895705D01*
X138659552Y-113932573D01*
X138682036Y-113974638D01*
X138695880Y-114020274D01*
X138700800Y-114070226D01*
X138700800Y-115079774D01*
X138695880Y-115129726D01*
X138682036Y-115175362D01*
X138659552Y-115217427D01*
X138629295Y-115254295D01*
X138592427Y-115284552D01*
X138550362Y-115307036D01*
X138504726Y-115320880D01*
X138454774Y-115325800D01*
X137695226Y-115325800D01*
X137645274Y-115320880D01*
X137599638Y-115307036D01*
X137557573Y-115284552D01*
X137520705Y-115254295D01*
X137490448Y-115217427D01*
X137467964Y-115175362D01*
X137454120Y-115129726D01*
X137449200Y-115079774D01*
X137449200Y-114070226D01*
X137454120Y-114020274D01*
X137467964Y-113974638D01*
X137490448Y-113932573D01*
X137520705Y-113895705D01*
X137557573Y-113865448D01*
X137599638Y-113842964D01*
X137645274Y-113829120D01*
X137695226Y-113824200D01*
X138454774Y-113824200D01*
X138504726Y-113829120D01*
G37*
G36*
X266101226Y-113987580D02*
G01*
X266146862Y-114001424D01*
X266188927Y-114023908D01*
X266225795Y-114054165D01*
X266256052Y-114091033D01*
X266278536Y-114133098D01*
X266292380Y-114178734D01*
X266297300Y-114228686D01*
X266297300Y-114988234D01*
X266292380Y-115038186D01*
X266278536Y-115083822D01*
X266256052Y-115125887D01*
X266225795Y-115162755D01*
X266188927Y-115193012D01*
X266146862Y-115215496D01*
X266101226Y-115229340D01*
X266051274Y-115234260D01*
X265041726Y-115234260D01*
X264991774Y-115229340D01*
X264946138Y-115215496D01*
X264904073Y-115193012D01*
X264867205Y-115162755D01*
X264836948Y-115125887D01*
X264814464Y-115083822D01*
X264800620Y-115038186D01*
X264795700Y-114988234D01*
X264795700Y-114228686D01*
X264800620Y-114178734D01*
X264814464Y-114133098D01*
X264836948Y-114091033D01*
X264867205Y-114054165D01*
X264904073Y-114023908D01*
X264946138Y-114001424D01*
X264991774Y-113987580D01*
X265041726Y-113982660D01*
X266051274Y-113982660D01*
X266101226Y-113987580D01*
G37*
G36*
X268407546Y-113981340D02*
G01*
X268453182Y-113995184D01*
X268495247Y-114017668D01*
X268532115Y-114047925D01*
X268562372Y-114084793D01*
X268584856Y-114126858D01*
X268598700Y-114172494D01*
X268603620Y-114222446D01*
X268603620Y-114981994D01*
X268598700Y-115031946D01*
X268584856Y-115077582D01*
X268562372Y-115119647D01*
X268532115Y-115156515D01*
X268495247Y-115186772D01*
X268453182Y-115209256D01*
X268407546Y-115223100D01*
X268357594Y-115228020D01*
X267348046Y-115228020D01*
X267298094Y-115223100D01*
X267252458Y-115209256D01*
X267210393Y-115186772D01*
X267173525Y-115156515D01*
X267143268Y-115119647D01*
X267120784Y-115077582D01*
X267106940Y-115031946D01*
X267102020Y-114981994D01*
X267102020Y-114222446D01*
X267106940Y-114172494D01*
X267120784Y-114126858D01*
X267143268Y-114084793D01*
X267173525Y-114047925D01*
X267210393Y-114017668D01*
X267252458Y-113995184D01*
X267298094Y-113981340D01*
X267348046Y-113976420D01*
X268357594Y-113976420D01*
X268407546Y-113981340D01*
G37*
G36*
X261406520Y-114788980D02*
G01*
X260504920Y-114788980D01*
X260504920Y-114187380D01*
X261406520Y-114187380D01*
X261406520Y-114788980D01*
G37*
G36*
X263206520Y-114788980D02*
G01*
X262304920Y-114788980D01*
X262304920Y-114187380D01*
X263206520Y-114187380D01*
X263206520Y-114788980D01*
G37*
G36*
X136454726Y-111829120D02*
G01*
X136500362Y-111842964D01*
X136542427Y-111865448D01*
X136579295Y-111895705D01*
X136609552Y-111932573D01*
X136632036Y-111974638D01*
X136645880Y-112020274D01*
X136650800Y-112070226D01*
X136650800Y-113079774D01*
X136645880Y-113129726D01*
X136632036Y-113175362D01*
X136609552Y-113217427D01*
X136579295Y-113254295D01*
X136542427Y-113284552D01*
X136500362Y-113307036D01*
X136454726Y-113320880D01*
X136404774Y-113325800D01*
X135645226Y-113325800D01*
X135595274Y-113320880D01*
X135549638Y-113307036D01*
X135507573Y-113284552D01*
X135470705Y-113254295D01*
X135440448Y-113217427D01*
X135417964Y-113175362D01*
X135404120Y-113129726D01*
X135399200Y-113079774D01*
X135399200Y-112070226D01*
X135404120Y-112020274D01*
X135417964Y-111974638D01*
X135440448Y-111932573D01*
X135470705Y-111895705D01*
X135507573Y-111865448D01*
X135549638Y-111842964D01*
X135595274Y-111829120D01*
X135645226Y-111824200D01*
X136404774Y-111824200D01*
X136454726Y-111829120D01*
G37*
G36*
X138504726Y-111829120D02*
G01*
X138550362Y-111842964D01*
X138592427Y-111865448D01*
X138629295Y-111895705D01*
X138659552Y-111932573D01*
X138682036Y-111974638D01*
X138695880Y-112020274D01*
X138700800Y-112070226D01*
X138700800Y-113079774D01*
X138695880Y-113129726D01*
X138682036Y-113175362D01*
X138659552Y-113217427D01*
X138629295Y-113254295D01*
X138592427Y-113284552D01*
X138550362Y-113307036D01*
X138504726Y-113320880D01*
X138454774Y-113325800D01*
X137695226Y-113325800D01*
X137645274Y-113320880D01*
X137599638Y-113307036D01*
X137557573Y-113284552D01*
X137520705Y-113254295D01*
X137490448Y-113217427D01*
X137467964Y-113175362D01*
X137454120Y-113129726D01*
X137449200Y-113079774D01*
X137449200Y-112070226D01*
X137454120Y-112020274D01*
X137467964Y-111974638D01*
X137490448Y-111932573D01*
X137520705Y-111895705D01*
X137557573Y-111865448D01*
X137599638Y-111842964D01*
X137645274Y-111829120D01*
X137695226Y-111824200D01*
X138454774Y-111824200D01*
X138504726Y-111829120D01*
G37*
G36*
X147691634Y-110676717D02*
G01*
X147855569Y-110744621D01*
X148003107Y-110843203D01*
X148128577Y-110968673D01*
X148227159Y-111116211D01*
X148295063Y-111280146D01*
X148329680Y-111454179D01*
X148329680Y-111631621D01*
X148295063Y-111805654D01*
X148227159Y-111969589D01*
X148128577Y-112117127D01*
X148003107Y-112242597D01*
X147855569Y-112341179D01*
X147691634Y-112409083D01*
X147517601Y-112443700D01*
X147340159Y-112443700D01*
X147166126Y-112409083D01*
X147002191Y-112341179D01*
X146854653Y-112242597D01*
X146729183Y-112117127D01*
X146630601Y-111969589D01*
X146562697Y-111805654D01*
X146528080Y-111631621D01*
X146528080Y-111454179D01*
X146562697Y-111280146D01*
X146630601Y-111116211D01*
X146729183Y-110968673D01*
X146854653Y-110843203D01*
X147002191Y-110744621D01*
X147166126Y-110676717D01*
X147340159Y-110642100D01*
X147517601Y-110642100D01*
X147691634Y-110676717D01*
G37*
G36*
X145151634Y-110676717D02*
G01*
X145315569Y-110744621D01*
X145463107Y-110843203D01*
X145588577Y-110968673D01*
X145687159Y-111116211D01*
X145755063Y-111280146D01*
X145789680Y-111454179D01*
X145789680Y-111631621D01*
X145755063Y-111805654D01*
X145687159Y-111969589D01*
X145588577Y-112117127D01*
X145463107Y-112242597D01*
X145315569Y-112341179D01*
X145151634Y-112409083D01*
X144977601Y-112443700D01*
X144800159Y-112443700D01*
X144626126Y-112409083D01*
X144462191Y-112341179D01*
X144314653Y-112242597D01*
X144189183Y-112117127D01*
X144090601Y-111969589D01*
X144022697Y-111805654D01*
X143988080Y-111631621D01*
X143988080Y-111454179D01*
X144022697Y-111280146D01*
X144090601Y-111116211D01*
X144189183Y-110968673D01*
X144314653Y-110843203D01*
X144462191Y-110744621D01*
X144626126Y-110676717D01*
X144800159Y-110642100D01*
X144977601Y-110642100D01*
X145151634Y-110676717D01*
G37*
G36*
X143249680Y-112443700D02*
G01*
X141448080Y-112443700D01*
X141448080Y-110642100D01*
X143249680Y-110642100D01*
X143249680Y-112443700D01*
G37*
G36*
X142611634Y-108136717D02*
G01*
X142775569Y-108204621D01*
X142923107Y-108303203D01*
X143048577Y-108428673D01*
X143147159Y-108576211D01*
X143215063Y-108740146D01*
X143249680Y-108914179D01*
X143249680Y-109091621D01*
X143215063Y-109265654D01*
X143147159Y-109429589D01*
X143048577Y-109577127D01*
X142923107Y-109702597D01*
X142775569Y-109801179D01*
X142611634Y-109869083D01*
X142437601Y-109903700D01*
X142260159Y-109903700D01*
X142086126Y-109869083D01*
X141922191Y-109801179D01*
X141774653Y-109702597D01*
X141649183Y-109577127D01*
X141550601Y-109429589D01*
X141482697Y-109265654D01*
X141448080Y-109091621D01*
X141448080Y-108914179D01*
X141482697Y-108740146D01*
X141550601Y-108576211D01*
X141649183Y-108428673D01*
X141774653Y-108303203D01*
X141922191Y-108204621D01*
X142086126Y-108136717D01*
X142260159Y-108102100D01*
X142437601Y-108102100D01*
X142611634Y-108136717D01*
G37*
G36*
X147691634Y-108136717D02*
G01*
X147855569Y-108204621D01*
X148003107Y-108303203D01*
X148128577Y-108428673D01*
X148227159Y-108576211D01*
X148295063Y-108740146D01*
X148329680Y-108914179D01*
X148329680Y-109091621D01*
X148295063Y-109265654D01*
X148227159Y-109429589D01*
X148128577Y-109577127D01*
X148003107Y-109702597D01*
X147855569Y-109801179D01*
X147691634Y-109869083D01*
X147517601Y-109903700D01*
X147340159Y-109903700D01*
X147166126Y-109869083D01*
X147002191Y-109801179D01*
X146854653Y-109702597D01*
X146729183Y-109577127D01*
X146630601Y-109429589D01*
X146562697Y-109265654D01*
X146528080Y-109091621D01*
X146528080Y-108914179D01*
X146562697Y-108740146D01*
X146630601Y-108576211D01*
X146729183Y-108428673D01*
X146854653Y-108303203D01*
X147002191Y-108204621D01*
X147166126Y-108136717D01*
X147340159Y-108102100D01*
X147517601Y-108102100D01*
X147691634Y-108136717D01*
G37*
G36*
X145151634Y-108136717D02*
G01*
X145315569Y-108204621D01*
X145463107Y-108303203D01*
X145588577Y-108428673D01*
X145687159Y-108576211D01*
X145755063Y-108740146D01*
X145789680Y-108914179D01*
X145789680Y-109091621D01*
X145755063Y-109265654D01*
X145687159Y-109429589D01*
X145588577Y-109577127D01*
X145463107Y-109702597D01*
X145315569Y-109801179D01*
X145151634Y-109869083D01*
X144977601Y-109903700D01*
X144800159Y-109903700D01*
X144626126Y-109869083D01*
X144462191Y-109801179D01*
X144314653Y-109702597D01*
X144189183Y-109577127D01*
X144090601Y-109429589D01*
X144022697Y-109265654D01*
X143988080Y-109091621D01*
X143988080Y-108914179D01*
X144022697Y-108740146D01*
X144090601Y-108576211D01*
X144189183Y-108428673D01*
X144314653Y-108303203D01*
X144462191Y-108204621D01*
X144626126Y-108136717D01*
X144800159Y-108102100D01*
X144977601Y-108102100D01*
X145151634Y-108136717D01*
G37*
G36*
X130565069Y-108008515D02*
G01*
X130719905Y-108072651D01*
X130859254Y-108165760D01*
X130977760Y-108284266D01*
X131070869Y-108423615D01*
X131135005Y-108578451D01*
X131167700Y-108742823D01*
X131167700Y-108910417D01*
X131135005Y-109074789D01*
X131070869Y-109229625D01*
X130977760Y-109368974D01*
X130859254Y-109487480D01*
X130719905Y-109580589D01*
X130565069Y-109644725D01*
X130400697Y-109677420D01*
X130233103Y-109677420D01*
X130068731Y-109644725D01*
X129913895Y-109580589D01*
X129774546Y-109487480D01*
X129656040Y-109368974D01*
X129562931Y-109229625D01*
X129498795Y-109074789D01*
X129466100Y-108910417D01*
X129466100Y-108742823D01*
X129498795Y-108578451D01*
X129562931Y-108423615D01*
X129656040Y-108284266D01*
X129774546Y-108165760D01*
X129913895Y-108072651D01*
X130068731Y-108008515D01*
X130233103Y-107975820D01*
X130400697Y-107975820D01*
X130565069Y-108008515D01*
G37*
G36*
X138185069Y-108008515D02*
G01*
X138339905Y-108072651D01*
X138479254Y-108165760D01*
X138597760Y-108284266D01*
X138690869Y-108423615D01*
X138755005Y-108578451D01*
X138787700Y-108742823D01*
X138787700Y-108910417D01*
X138755005Y-109074789D01*
X138690869Y-109229625D01*
X138597760Y-109368974D01*
X138479254Y-109487480D01*
X138339905Y-109580589D01*
X138185069Y-109644725D01*
X138020697Y-109677420D01*
X137853103Y-109677420D01*
X137688731Y-109644725D01*
X137533895Y-109580589D01*
X137394546Y-109487480D01*
X137276040Y-109368974D01*
X137182931Y-109229625D01*
X137118795Y-109074789D01*
X137086100Y-108910417D01*
X137086100Y-108742823D01*
X137118795Y-108578451D01*
X137182931Y-108423615D01*
X137276040Y-108284266D01*
X137394546Y-108165760D01*
X137533895Y-108072651D01*
X137688731Y-108008515D01*
X137853103Y-107975820D01*
X138020697Y-107975820D01*
X138185069Y-108008515D01*
G37*
G36*
X135645069Y-108008515D02*
G01*
X135799905Y-108072651D01*
X135939254Y-108165760D01*
X136057760Y-108284266D01*
X136150869Y-108423615D01*
X136215005Y-108578451D01*
X136247700Y-108742823D01*
X136247700Y-108910417D01*
X136215005Y-109074789D01*
X136150869Y-109229625D01*
X136057760Y-109368974D01*
X135939254Y-109487480D01*
X135799905Y-109580589D01*
X135645069Y-109644725D01*
X135480697Y-109677420D01*
X135313103Y-109677420D01*
X135148731Y-109644725D01*
X134993895Y-109580589D01*
X134854546Y-109487480D01*
X134736040Y-109368974D01*
X134642931Y-109229625D01*
X134578795Y-109074789D01*
X134546100Y-108910417D01*
X134546100Y-108742823D01*
X134578795Y-108578451D01*
X134642931Y-108423615D01*
X134736040Y-108284266D01*
X134854546Y-108165760D01*
X134993895Y-108072651D01*
X135148731Y-108008515D01*
X135313103Y-107975820D01*
X135480697Y-107975820D01*
X135645069Y-108008515D01*
G37*
G36*
X112785069Y-108008515D02*
G01*
X112939905Y-108072651D01*
X113079254Y-108165760D01*
X113197760Y-108284266D01*
X113290869Y-108423615D01*
X113355005Y-108578451D01*
X113387700Y-108742823D01*
X113387700Y-108910417D01*
X113355005Y-109074789D01*
X113290869Y-109229625D01*
X113197760Y-109368974D01*
X113079254Y-109487480D01*
X112939905Y-109580589D01*
X112785069Y-109644725D01*
X112620697Y-109677420D01*
X112453103Y-109677420D01*
X112288731Y-109644725D01*
X112133895Y-109580589D01*
X111994546Y-109487480D01*
X111876040Y-109368974D01*
X111782931Y-109229625D01*
X111718795Y-109074789D01*
X111686100Y-108910417D01*
X111686100Y-108742823D01*
X111718795Y-108578451D01*
X111782931Y-108423615D01*
X111876040Y-108284266D01*
X111994546Y-108165760D01*
X112133895Y-108072651D01*
X112288731Y-108008515D01*
X112453103Y-107975820D01*
X112620697Y-107975820D01*
X112785069Y-108008515D01*
G37*
G36*
X115325069Y-108008515D02*
G01*
X115479905Y-108072651D01*
X115619254Y-108165760D01*
X115737760Y-108284266D01*
X115830869Y-108423615D01*
X115895005Y-108578451D01*
X115927700Y-108742823D01*
X115927700Y-108910417D01*
X115895005Y-109074789D01*
X115830869Y-109229625D01*
X115737760Y-109368974D01*
X115619254Y-109487480D01*
X115479905Y-109580589D01*
X115325069Y-109644725D01*
X115160697Y-109677420D01*
X114993103Y-109677420D01*
X114828731Y-109644725D01*
X114673895Y-109580589D01*
X114534546Y-109487480D01*
X114416040Y-109368974D01*
X114322931Y-109229625D01*
X114258795Y-109074789D01*
X114226100Y-108910417D01*
X114226100Y-108742823D01*
X114258795Y-108578451D01*
X114322931Y-108423615D01*
X114416040Y-108284266D01*
X114534546Y-108165760D01*
X114673895Y-108072651D01*
X114828731Y-108008515D01*
X114993103Y-107975820D01*
X115160697Y-107975820D01*
X115325069Y-108008515D01*
G37*
G36*
X117865069Y-108008515D02*
G01*
X118019905Y-108072651D01*
X118159254Y-108165760D01*
X118277760Y-108284266D01*
X118370869Y-108423615D01*
X118435005Y-108578451D01*
X118467700Y-108742823D01*
X118467700Y-108910417D01*
X118435005Y-109074789D01*
X118370869Y-109229625D01*
X118277760Y-109368974D01*
X118159254Y-109487480D01*
X118019905Y-109580589D01*
X117865069Y-109644725D01*
X117700697Y-109677420D01*
X117533103Y-109677420D01*
X117368731Y-109644725D01*
X117213895Y-109580589D01*
X117074546Y-109487480D01*
X116956040Y-109368974D01*
X116862931Y-109229625D01*
X116798795Y-109074789D01*
X116766100Y-108910417D01*
X116766100Y-108742823D01*
X116798795Y-108578451D01*
X116862931Y-108423615D01*
X116956040Y-108284266D01*
X117074546Y-108165760D01*
X117213895Y-108072651D01*
X117368731Y-108008515D01*
X117533103Y-107975820D01*
X117700697Y-107975820D01*
X117865069Y-108008515D01*
G37*
G36*
X120405069Y-108008515D02*
G01*
X120559905Y-108072651D01*
X120699254Y-108165760D01*
X120817760Y-108284266D01*
X120910869Y-108423615D01*
X120975005Y-108578451D01*
X121007700Y-108742823D01*
X121007700Y-108910417D01*
X120975005Y-109074789D01*
X120910869Y-109229625D01*
X120817760Y-109368974D01*
X120699254Y-109487480D01*
X120559905Y-109580589D01*
X120405069Y-109644725D01*
X120240697Y-109677420D01*
X120073103Y-109677420D01*
X119908731Y-109644725D01*
X119753895Y-109580589D01*
X119614546Y-109487480D01*
X119496040Y-109368974D01*
X119402931Y-109229625D01*
X119338795Y-109074789D01*
X119306100Y-108910417D01*
X119306100Y-108742823D01*
X119338795Y-108578451D01*
X119402931Y-108423615D01*
X119496040Y-108284266D01*
X119614546Y-108165760D01*
X119753895Y-108072651D01*
X119908731Y-108008515D01*
X120073103Y-107975820D01*
X120240697Y-107975820D01*
X120405069Y-108008515D01*
G37*
G36*
X122945069Y-108008515D02*
G01*
X123099905Y-108072651D01*
X123239254Y-108165760D01*
X123357760Y-108284266D01*
X123450869Y-108423615D01*
X123515005Y-108578451D01*
X123547700Y-108742823D01*
X123547700Y-108910417D01*
X123515005Y-109074789D01*
X123450869Y-109229625D01*
X123357760Y-109368974D01*
X123239254Y-109487480D01*
X123099905Y-109580589D01*
X122945069Y-109644725D01*
X122780697Y-109677420D01*
X122613103Y-109677420D01*
X122448731Y-109644725D01*
X122293895Y-109580589D01*
X122154546Y-109487480D01*
X122036040Y-109368974D01*
X121942931Y-109229625D01*
X121878795Y-109074789D01*
X121846100Y-108910417D01*
X121846100Y-108742823D01*
X121878795Y-108578451D01*
X121942931Y-108423615D01*
X122036040Y-108284266D01*
X122154546Y-108165760D01*
X122293895Y-108072651D01*
X122448731Y-108008515D01*
X122613103Y-107975820D01*
X122780697Y-107975820D01*
X122945069Y-108008515D01*
G37*
G36*
X125485069Y-108008515D02*
G01*
X125639905Y-108072651D01*
X125779254Y-108165760D01*
X125897760Y-108284266D01*
X125990869Y-108423615D01*
X126055005Y-108578451D01*
X126087700Y-108742823D01*
X126087700Y-108910417D01*
X126055005Y-109074789D01*
X125990869Y-109229625D01*
X125897760Y-109368974D01*
X125779254Y-109487480D01*
X125639905Y-109580589D01*
X125485069Y-109644725D01*
X125320697Y-109677420D01*
X125153103Y-109677420D01*
X124988731Y-109644725D01*
X124833895Y-109580589D01*
X124694546Y-109487480D01*
X124576040Y-109368974D01*
X124482931Y-109229625D01*
X124418795Y-109074789D01*
X124386100Y-108910417D01*
X124386100Y-108742823D01*
X124418795Y-108578451D01*
X124482931Y-108423615D01*
X124576040Y-108284266D01*
X124694546Y-108165760D01*
X124833895Y-108072651D01*
X124988731Y-108008515D01*
X125153103Y-107975820D01*
X125320697Y-107975820D01*
X125485069Y-108008515D01*
G37*
G36*
X128025069Y-108008515D02*
G01*
X128179905Y-108072651D01*
X128319254Y-108165760D01*
X128437760Y-108284266D01*
X128530869Y-108423615D01*
X128595005Y-108578451D01*
X128627700Y-108742823D01*
X128627700Y-108910417D01*
X128595005Y-109074789D01*
X128530869Y-109229625D01*
X128437760Y-109368974D01*
X128319254Y-109487480D01*
X128179905Y-109580589D01*
X128025069Y-109644725D01*
X127860697Y-109677420D01*
X127693103Y-109677420D01*
X127528731Y-109644725D01*
X127373895Y-109580589D01*
X127234546Y-109487480D01*
X127116040Y-109368974D01*
X127022931Y-109229625D01*
X126958795Y-109074789D01*
X126926100Y-108910417D01*
X126926100Y-108742823D01*
X126958795Y-108578451D01*
X127022931Y-108423615D01*
X127116040Y-108284266D01*
X127234546Y-108165760D01*
X127373895Y-108072651D01*
X127528731Y-108008515D01*
X127693103Y-107975820D01*
X127860697Y-107975820D01*
X128025069Y-108008515D01*
G37*
G36*
X110245069Y-108008515D02*
G01*
X110399905Y-108072651D01*
X110539254Y-108165760D01*
X110657760Y-108284266D01*
X110750869Y-108423615D01*
X110815005Y-108578451D01*
X110847700Y-108742823D01*
X110847700Y-108910417D01*
X110815005Y-109074789D01*
X110750869Y-109229625D01*
X110657760Y-109368974D01*
X110539254Y-109487480D01*
X110399905Y-109580589D01*
X110245069Y-109644725D01*
X110080697Y-109677420D01*
X109913103Y-109677420D01*
X109748731Y-109644725D01*
X109593895Y-109580589D01*
X109454546Y-109487480D01*
X109336040Y-109368974D01*
X109242931Y-109229625D01*
X109178795Y-109074789D01*
X109146100Y-108910417D01*
X109146100Y-108742823D01*
X109178795Y-108578451D01*
X109242931Y-108423615D01*
X109336040Y-108284266D01*
X109454546Y-108165760D01*
X109593895Y-108072651D01*
X109748731Y-108008515D01*
X109913103Y-107975820D01*
X110080697Y-107975820D01*
X110245069Y-108008515D01*
G37*
G36*
X133105069Y-108008515D02*
G01*
X133259905Y-108072651D01*
X133399254Y-108165760D01*
X133517760Y-108284266D01*
X133610869Y-108423615D01*
X133675005Y-108578451D01*
X133707700Y-108742823D01*
X133707700Y-108910417D01*
X133675005Y-109074789D01*
X133610869Y-109229625D01*
X133517760Y-109368974D01*
X133399254Y-109487480D01*
X133259905Y-109580589D01*
X133105069Y-109644725D01*
X132940697Y-109677420D01*
X132773103Y-109677420D01*
X132608731Y-109644725D01*
X132453895Y-109580589D01*
X132314546Y-109487480D01*
X132196040Y-109368974D01*
X132102931Y-109229625D01*
X132038795Y-109074789D01*
X132006100Y-108910417D01*
X132006100Y-108742823D01*
X132038795Y-108578451D01*
X132102931Y-108423615D01*
X132196040Y-108284266D01*
X132314546Y-108165760D01*
X132453895Y-108072651D01*
X132608731Y-108008515D01*
X132773103Y-107975820D01*
X132940697Y-107975820D01*
X133105069Y-108008515D01*
G37*
G36*
X264711183Y-103603823D02*
G01*
X264842943Y-103658400D01*
X264961523Y-103737633D01*
X265062367Y-103838477D01*
X265141600Y-103957057D01*
X265196177Y-104088817D01*
X265224000Y-104228692D01*
X265224000Y-104371308D01*
X265196177Y-104511183D01*
X265141600Y-104642943D01*
X265062367Y-104761523D01*
X264961523Y-104862367D01*
X264842943Y-104941600D01*
X264711183Y-104996177D01*
X264571308Y-105024000D01*
X264428692Y-105024000D01*
X264288817Y-104996177D01*
X264157057Y-104941600D01*
X264038477Y-104862367D01*
X263937633Y-104761523D01*
X263858400Y-104642943D01*
X263803823Y-104511183D01*
X263776000Y-104371308D01*
X263776000Y-104228692D01*
X263803823Y-104088817D01*
X263858400Y-103957057D01*
X263937633Y-103838477D01*
X264038477Y-103737633D01*
X264157057Y-103658400D01*
X264288817Y-103603823D01*
X264428692Y-103576000D01*
X264571308Y-103576000D01*
X264711183Y-103603823D01*
G37*
G36*
X110361183Y-103603823D02*
G01*
X110492943Y-103658400D01*
X110611523Y-103737633D01*
X110712367Y-103838477D01*
X110791600Y-103957057D01*
X110846177Y-104088817D01*
X110874000Y-104228692D01*
X110874000Y-104371308D01*
X110846177Y-104511183D01*
X110791600Y-104642943D01*
X110712367Y-104761523D01*
X110611523Y-104862367D01*
X110492943Y-104941600D01*
X110361183Y-104996177D01*
X110221308Y-105024000D01*
X110078692Y-105024000D01*
X109938817Y-104996177D01*
X109807057Y-104941600D01*
X109688477Y-104862367D01*
X109587633Y-104761523D01*
X109508400Y-104642943D01*
X109453823Y-104511183D01*
X109426000Y-104371308D01*
X109426000Y-104228692D01*
X109453823Y-104088817D01*
X109508400Y-103957057D01*
X109587633Y-103838477D01*
X109688477Y-103737633D01*
X109807057Y-103658400D01*
X109938817Y-103603823D01*
X110078692Y-103576000D01*
X110221308Y-103576000D01*
X110361183Y-103603823D01*
G37*
M02*
