G04 #@! TF.GenerationSoftware,KiCad,Pcbnew,5.1.6+dfsg1-1~bpo10+1*
G04 #@! TF.CreationDate,2020-08-19T20:33:55+03:00*
G04 #@! TF.ProjectId,CompactBeamspringP1,436f6d70-6163-4744-9265-616d73707269,0.0.3*
G04 #@! TF.SameCoordinates,PX66a9bd0PY78114e0*
G04 #@! TF.FileFunction,Profile,NP*
%FSLAX46Y46*%
G04 Gerber Fmt 4.6, Leading zero omitted, Abs format (unit mm)*
G04 Created by KiCad (PCBNEW 5.1.6+dfsg1-1~bpo10+1) date 2020-08-19 20:33:55*
%MOMM*%
%LPD*%
G01*
G04 APERTURE LIST*
G04 #@! TA.AperFunction,Profile*
%ADD10C,0.050000*%
G04 #@! TD*
G04 APERTURE END LIST*
D10*
X47250000Y15050000D02*
X47250000Y19350000D01*
X46650000Y19950000D02*
G75*
G02*
X47250000Y19350000I0J-600000D01*
G01*
X47850000Y14450000D02*
G75*
G02*
X47250000Y15050000I0J600000D01*
G01*
X157550000Y14450000D02*
X47850000Y14450000D01*
X163550000Y22900000D02*
X163550000Y15050000D01*
X163550000Y15050000D02*
G75*
G02*
X162950000Y14450000I-600000J0D01*
G01*
X162950000Y13250000D02*
G75*
G02*
X162950000Y14450000I0J600000D01*
G01*
X161150000Y14450000D02*
G75*
G02*
X161150000Y13250000I0J-600000D01*
G01*
X159350000Y14450000D02*
G75*
G02*
X159350000Y13250000I0J-600000D01*
G01*
X161150000Y13250000D02*
G75*
G02*
X161150000Y14450000I0J600000D01*
G01*
X159350000Y13250000D02*
G75*
G02*
X159350000Y14450000I0J600000D01*
G01*
X157550000Y14450000D02*
G75*
G02*
X157550000Y13250000I0J-600000D01*
G01*
X0Y22900000D02*
X0Y20550000D01*
X0Y22900000D02*
G75*
G02*
X600000Y23500000I600000J0D01*
G01*
X600000Y19950000D02*
G75*
G02*
X0Y20550000I0J600000D01*
G01*
X162950000Y23500000D02*
G75*
G02*
X163550000Y22900000I0J-600000D01*
G01*
X6000000Y19950000D02*
X46650000Y19950000D01*
X4200000Y19950000D02*
G75*
G02*
X4200000Y18750000I0J-600000D01*
G01*
X2400000Y19950000D02*
G75*
G02*
X2400000Y18750000I0J-600000D01*
G01*
X6000000Y18750000D02*
G75*
G02*
X6000000Y19950000I0J600000D01*
G01*
X4200000Y18750000D02*
G75*
G02*
X4200000Y19950000I0J600000D01*
G01*
X600000Y19950000D02*
G75*
G02*
X600000Y18750000I0J-600000D01*
G01*
X2400000Y18750000D02*
G75*
G02*
X2400000Y19950000I0J600000D01*
G01*
X162950000Y23500000D02*
X600000Y23500000D01*
X43650000Y13250000D02*
G75*
G02*
X43050000Y13850000I0J600000D01*
G01*
X42450000Y18750000D02*
G75*
G02*
X43050000Y18150000I0J-600000D01*
G01*
X0Y18150000D02*
G75*
G02*
X600000Y18750000I600000J0D01*
G01*
X600000Y0D02*
G75*
G02*
X0Y600000I0J600000D01*
G01*
X163550000Y600000D02*
G75*
G02*
X162950000Y0I-600000J0D01*
G01*
X162950000Y13250000D02*
G75*
G02*
X163550000Y12650000I0J-600000D01*
G01*
X43050000Y13850000D02*
X43050000Y18150000D01*
X6000000Y18750000D02*
X42450000Y18750000D01*
X0Y600000D02*
X0Y18150000D01*
X52300000Y0D02*
X600000Y0D01*
X133550000Y13250000D02*
X43650000Y13250000D01*
X157550000Y13250000D02*
X133550000Y13250000D01*
X163550000Y600000D02*
X163550000Y12650000D01*
X62800000Y0D02*
X162950000Y0D01*
X52300000Y0D02*
X62800000Y0D01*
M02*
