G04 #@! TF.GenerationSoftware,KiCad,Pcbnew,5.1.6+dfsg1-1~bpo10+1*
G04 #@! TF.CreationDate,2020-08-19T09:24:56+03:00*
G04 #@! TF.ProjectId,CompactBeamspringP2,436f6d70-6163-4744-9265-616d73707269,0.0.3*
G04 #@! TF.SameCoordinates,PX67aa160PY86cd470*
G04 #@! TF.FileFunction,Legend,Top*
G04 #@! TF.FilePolarity,Positive*
%FSLAX46Y46*%
G04 Gerber Fmt 4.6, Leading zero omitted, Abs format (unit mm)*
G04 Created by KiCad (PCBNEW 5.1.6+dfsg1-1~bpo10+1) date 2020-08-19 09:24:56*
%MOMM*%
%LPD*%
G01*
G04 APERTURE LIST*
%ADD10C,0.150000*%
%ADD11C,0.120000*%
G04 APERTURE END LIST*
D10*
X85180952Y7797620D02*
X85180952Y7083334D01*
X85133333Y6940477D01*
X85038095Y6845239D01*
X84895238Y6797620D01*
X84800000Y6797620D01*
X86133333Y6797620D02*
X85657142Y6797620D01*
X85657142Y7797620D01*
X87038095Y6892858D02*
X86990476Y6845239D01*
X86847619Y6797620D01*
X86752380Y6797620D01*
X86609523Y6845239D01*
X86514285Y6940477D01*
X86466666Y7035715D01*
X86419047Y7226191D01*
X86419047Y7369048D01*
X86466666Y7559524D01*
X86514285Y7654762D01*
X86609523Y7750000D01*
X86752380Y7797620D01*
X86847619Y7797620D01*
X86990476Y7750000D01*
X87038095Y7702381D01*
X87752380Y7797620D02*
X87752380Y7083334D01*
X87704761Y6940477D01*
X87609523Y6845239D01*
X87466666Y6797620D01*
X87371428Y6797620D01*
X88704761Y6797620D02*
X88228571Y6797620D01*
X88228571Y7797620D01*
X89609523Y6892858D02*
X89561904Y6845239D01*
X89419047Y6797620D01*
X89323809Y6797620D01*
X89180952Y6845239D01*
X89085714Y6940477D01*
X89038095Y7035715D01*
X88990476Y7226191D01*
X88990476Y7369048D01*
X89038095Y7559524D01*
X89085714Y7654762D01*
X89180952Y7750000D01*
X89323809Y7797620D01*
X89419047Y7797620D01*
X89561904Y7750000D01*
X89609523Y7702381D01*
X90323809Y7797620D02*
X90323809Y7083334D01*
X90276190Y6940477D01*
X90180952Y6845239D01*
X90038095Y6797620D01*
X89942857Y6797620D01*
X91276190Y6797620D02*
X90800000Y6797620D01*
X90800000Y7797620D01*
X92180952Y6892858D02*
X92133333Y6845239D01*
X91990476Y6797620D01*
X91895238Y6797620D01*
X91752380Y6845239D01*
X91657142Y6940477D01*
X91609523Y7035715D01*
X91561904Y7226191D01*
X91561904Y7369048D01*
X91609523Y7559524D01*
X91657142Y7654762D01*
X91752380Y7750000D01*
X91895238Y7797620D01*
X91990476Y7797620D01*
X92133333Y7750000D01*
X92180952Y7702381D01*
X92895238Y7797620D02*
X92895238Y7083334D01*
X92847619Y6940477D01*
X92752380Y6845239D01*
X92609523Y6797620D01*
X92514285Y6797620D01*
X93847619Y6797620D02*
X93371428Y6797620D01*
X93371428Y7797620D01*
X94752380Y6892858D02*
X94704761Y6845239D01*
X94561904Y6797620D01*
X94466666Y6797620D01*
X94323809Y6845239D01*
X94228571Y6940477D01*
X94180952Y7035715D01*
X94133333Y7226191D01*
X94133333Y7369048D01*
X94180952Y7559524D01*
X94228571Y7654762D01*
X94323809Y7750000D01*
X94466666Y7797620D01*
X94561904Y7797620D01*
X94704761Y7750000D01*
X94752380Y7702381D01*
D11*
X33368880Y13027100D02*
X33368880Y14357100D01*
X34698880Y13027100D02*
X33368880Y13027100D01*
X33368880Y15627100D02*
X33368880Y18227100D01*
X35968880Y15627100D02*
X33368880Y15627100D01*
X35968880Y13027100D02*
X35968880Y15627100D01*
X33368880Y18227100D02*
X41108880Y18227100D01*
X35968880Y13027100D02*
X41108880Y13027100D01*
X41108880Y13027100D02*
X41108880Y18227100D01*
D10*
X1076900Y563380D02*
X31556900Y563380D01*
X1076900Y563380D02*
X1076900Y5643380D01*
X1076900Y5643380D02*
X-1463100Y5643380D01*
X-1463100Y5643380D02*
X-1463100Y13263380D01*
X-1463100Y13263380D02*
X1076900Y13263380D01*
X1076900Y13263380D02*
X1076900Y18343380D01*
X1076900Y18343380D02*
X31556900Y18343380D01*
X31556900Y18343380D02*
X31556900Y563380D01*
D11*
X128881120Y20172900D02*
X128881120Y18842900D01*
X127551120Y20172900D02*
X128881120Y20172900D01*
X128881120Y17572900D02*
X128881120Y14972900D01*
X126281120Y17572900D02*
X128881120Y17572900D01*
X126281120Y20172900D02*
X126281120Y17572900D01*
X128881120Y14972900D02*
X121141120Y14972900D01*
X126281120Y20172900D02*
X121141120Y20172900D01*
X121141120Y20172900D02*
X121141120Y14972900D01*
D10*
X161173100Y32636620D02*
X130693100Y32636620D01*
X161173100Y32636620D02*
X161173100Y27556620D01*
X161173100Y27556620D02*
X163713100Y27556620D01*
X163713100Y27556620D02*
X163713100Y19936620D01*
X163713100Y19936620D02*
X161173100Y19936620D01*
X161173100Y19936620D02*
X161173100Y14856620D01*
X161173100Y14856620D02*
X130693100Y14856620D01*
X130693100Y14856620D02*
X130693100Y32636620D01*
X32916499Y15960434D02*
X32202213Y15960434D01*
X32059356Y16008053D01*
X31964118Y16103291D01*
X31916499Y16246148D01*
X31916499Y16341386D01*
X32916499Y15579481D02*
X32916499Y14960434D01*
X32535546Y15293767D01*
X32535546Y15150910D01*
X32487927Y15055672D01*
X32440308Y15008053D01*
X32345070Y14960434D01*
X32106975Y14960434D01*
X32011737Y15008053D01*
X31964118Y15055672D01*
X31916499Y15150910D01*
X31916499Y15436624D01*
X31964118Y15531862D01*
X32011737Y15579481D01*
X13727430Y14455900D02*
X13727430Y15455900D01*
X14108382Y15455900D01*
X14203620Y15408280D01*
X14251240Y15360661D01*
X14298859Y15265423D01*
X14298859Y15122566D01*
X14251240Y15027328D01*
X14203620Y14979709D01*
X14108382Y14932090D01*
X13727430Y14932090D01*
X14727430Y14455900D02*
X14727430Y15122566D01*
X14727430Y14932090D02*
X14775049Y15027328D01*
X14822668Y15074947D01*
X14917906Y15122566D01*
X15013144Y15122566D01*
X15489335Y14455900D02*
X15394097Y14503519D01*
X15346478Y14551138D01*
X15298859Y14646376D01*
X15298859Y14932090D01*
X15346478Y15027328D01*
X15394097Y15074947D01*
X15489335Y15122566D01*
X15632192Y15122566D01*
X15727430Y15074947D01*
X15775049Y15027328D01*
X15822668Y14932090D01*
X15822668Y14646376D01*
X15775049Y14551138D01*
X15727430Y14503519D01*
X15632192Y14455900D01*
X15489335Y14455900D01*
X16251240Y14455900D02*
X16251240Y15455900D01*
X16584573Y14741614D01*
X16917906Y15455900D01*
X16917906Y14455900D01*
X17394097Y14455900D02*
X17394097Y15122566D01*
X17394097Y15455900D02*
X17346478Y15408280D01*
X17394097Y15360661D01*
X17441716Y15408280D01*
X17394097Y15455900D01*
X17394097Y15360661D01*
X18298859Y14503519D02*
X18203620Y14455900D01*
X18013144Y14455900D01*
X17917906Y14503519D01*
X17870287Y14551138D01*
X17822668Y14646376D01*
X17822668Y14932090D01*
X17870287Y15027328D01*
X17917906Y15074947D01*
X18013144Y15122566D01*
X18203620Y15122566D01*
X18298859Y15074947D01*
X18727430Y14455900D02*
X18727430Y15122566D01*
X18727430Y14932090D02*
X18775049Y15027328D01*
X18822668Y15074947D01*
X18917906Y15122566D01*
X19013144Y15122566D01*
X19489335Y14455900D02*
X19394097Y14503519D01*
X19346478Y14551138D01*
X19298859Y14646376D01*
X19298859Y14932090D01*
X19346478Y15027328D01*
X19394097Y15074947D01*
X19489335Y15122566D01*
X19632192Y15122566D01*
X19727430Y15074947D01*
X19775049Y15027328D01*
X19822668Y14932090D01*
X19822668Y14646376D01*
X19775049Y14551138D01*
X19727430Y14503519D01*
X19632192Y14455900D01*
X19489335Y14455900D01*
X129333500Y17239567D02*
X130047786Y17239567D01*
X130190643Y17191948D01*
X130285881Y17096710D01*
X130333500Y16953853D01*
X130333500Y16858615D01*
X129333500Y17620520D02*
X129333500Y18239567D01*
X129714453Y17906234D01*
X129714453Y18049091D01*
X129762072Y18144329D01*
X129809691Y18191948D01*
X129904929Y18239567D01*
X130143024Y18239567D01*
X130238262Y18191948D01*
X130285881Y18144329D01*
X130333500Y18049091D01*
X130333500Y17763377D01*
X130285881Y17668139D01*
X130238262Y17620520D01*
X148522569Y18744101D02*
X148522569Y17744101D01*
X148141617Y17744101D01*
X148046379Y17791720D01*
X147998760Y17839340D01*
X147951140Y17934578D01*
X147951140Y18077435D01*
X147998760Y18172673D01*
X148046379Y18220292D01*
X148141617Y18267911D01*
X148522569Y18267911D01*
X147522569Y18744101D02*
X147522569Y18077435D01*
X147522569Y18267911D02*
X147474950Y18172673D01*
X147427331Y18125054D01*
X147332093Y18077435D01*
X147236855Y18077435D01*
X146760664Y18744101D02*
X146855902Y18696482D01*
X146903521Y18648863D01*
X146951140Y18553625D01*
X146951140Y18267911D01*
X146903521Y18172673D01*
X146855902Y18125054D01*
X146760664Y18077435D01*
X146617807Y18077435D01*
X146522569Y18125054D01*
X146474950Y18172673D01*
X146427331Y18267911D01*
X146427331Y18553625D01*
X146474950Y18648863D01*
X146522569Y18696482D01*
X146617807Y18744101D01*
X146760664Y18744101D01*
X145998760Y18744101D02*
X145998760Y17744101D01*
X145665426Y18458387D01*
X145332093Y17744101D01*
X145332093Y18744101D01*
X144855902Y18744101D02*
X144855902Y18077435D01*
X144855902Y17744101D02*
X144903521Y17791720D01*
X144855902Y17839340D01*
X144808283Y17791720D01*
X144855902Y17744101D01*
X144855902Y17839340D01*
X143951140Y18696482D02*
X144046379Y18744101D01*
X144236855Y18744101D01*
X144332093Y18696482D01*
X144379712Y18648863D01*
X144427331Y18553625D01*
X144427331Y18267911D01*
X144379712Y18172673D01*
X144332093Y18125054D01*
X144236855Y18077435D01*
X144046379Y18077435D01*
X143951140Y18125054D01*
X143522569Y18744101D02*
X143522569Y18077435D01*
X143522569Y18267911D02*
X143474950Y18172673D01*
X143427331Y18125054D01*
X143332093Y18077435D01*
X143236855Y18077435D01*
X142760664Y18744101D02*
X142855902Y18696482D01*
X142903521Y18648863D01*
X142951140Y18553625D01*
X142951140Y18267911D01*
X142903521Y18172673D01*
X142855902Y18125054D01*
X142760664Y18077435D01*
X142617807Y18077435D01*
X142522569Y18125054D01*
X142474950Y18172673D01*
X142427331Y18267911D01*
X142427331Y18553625D01*
X142474950Y18648863D01*
X142522569Y18696482D01*
X142617807Y18744101D01*
X142760664Y18744101D01*
M02*
