G04 #@! TF.GenerationSoftware,KiCad,Pcbnew,5.1.6+dfsg1-1~bpo10+1*
G04 #@! TF.CreationDate,2020-08-19T15:48:21+03:00*
G04 #@! TF.ProjectId,CompactBeamspringP2,436f6d70-6163-4744-9265-616d73707269,0.0.3*
G04 #@! TF.SameCoordinates,PX622e470PY7e2bce0*
G04 #@! TF.FileFunction,Legend,Bot*
G04 #@! TF.FilePolarity,Positive*
%FSLAX46Y46*%
G04 Gerber Fmt 4.6, Leading zero omitted, Abs format (unit mm)*
G04 Created by KiCad (PCBNEW 5.1.6+dfsg1-1~bpo10+1) date 2020-08-19 15:48:21*
%MOMM*%
%LPD*%
G01*
G04 APERTURE LIST*
%ADD10C,0.125000*%
%ADD11C,0.150000*%
%ADD12C,0.120000*%
%ADD13C,0.300000*%
G04 APERTURE END LIST*
D10*
X137061904Y998810D02*
X136895238Y498810D01*
X136728571Y998810D01*
X136490476Y498810D02*
X136538095Y522620D01*
X136561904Y546429D01*
X136585714Y594048D01*
X136585714Y736905D01*
X136561904Y784524D01*
X136538095Y808334D01*
X136490476Y832143D01*
X136419047Y832143D01*
X136371428Y808334D01*
X136347619Y784524D01*
X136323809Y736905D01*
X136323809Y594048D01*
X136347619Y546429D01*
X136371428Y522620D01*
X136419047Y498810D01*
X136490476Y498810D01*
X135895238Y832143D02*
X135895238Y498810D01*
X136109523Y832143D02*
X136109523Y570239D01*
X136085714Y522620D01*
X136038095Y498810D01*
X135966666Y498810D01*
X135919047Y522620D01*
X135895238Y546429D01*
X135728571Y832143D02*
X135538095Y832143D01*
X135657142Y998810D02*
X135657142Y570239D01*
X135633333Y522620D01*
X135585714Y498810D01*
X135538095Y498810D01*
X154958333Y998810D02*
X154791666Y498810D01*
X154625000Y998810D01*
X154386904Y498810D02*
X154434523Y522620D01*
X154458333Y546429D01*
X154482142Y594048D01*
X154482142Y736905D01*
X154458333Y784524D01*
X154434523Y808334D01*
X154386904Y832143D01*
X154315476Y832143D01*
X154267857Y808334D01*
X154244047Y784524D01*
X154220238Y736905D01*
X154220238Y594048D01*
X154244047Y546429D01*
X154267857Y522620D01*
X154315476Y498810D01*
X154386904Y498810D01*
X153934523Y498810D02*
X153982142Y522620D01*
X154005952Y570239D01*
X154005952Y998810D01*
X153815476Y832143D02*
X153625000Y832143D01*
X153744047Y998810D02*
X153744047Y570239D01*
X153720238Y522620D01*
X153672619Y498810D01*
X153625000Y498810D01*
X153244047Y498810D02*
X153244047Y760715D01*
X153267857Y808334D01*
X153315476Y832143D01*
X153410714Y832143D01*
X153458333Y808334D01*
X153244047Y522620D02*
X153291666Y498810D01*
X153410714Y498810D01*
X153458333Y522620D01*
X153482142Y570239D01*
X153482142Y617858D01*
X153458333Y665477D01*
X153410714Y689286D01*
X153291666Y689286D01*
X153244047Y713096D01*
X152791666Y832143D02*
X152791666Y427381D01*
X152815476Y379762D01*
X152839285Y355953D01*
X152886904Y332143D01*
X152958333Y332143D01*
X153005952Y355953D01*
X152791666Y522620D02*
X152839285Y498810D01*
X152934523Y498810D01*
X152982142Y522620D01*
X153005952Y546429D01*
X153029761Y594048D01*
X153029761Y736905D01*
X153005952Y784524D01*
X152982142Y808334D01*
X152934523Y832143D01*
X152839285Y832143D01*
X152791666Y808334D01*
X152363095Y522620D02*
X152410714Y498810D01*
X152505952Y498810D01*
X152553571Y522620D01*
X152577380Y570239D01*
X152577380Y760715D01*
X152553571Y808334D01*
X152505952Y832143D01*
X152410714Y832143D01*
X152363095Y808334D01*
X152339285Y760715D01*
X152339285Y713096D01*
X152577380Y665477D01*
X155450000Y1673810D02*
X155164285Y1673810D01*
X155307142Y1173810D02*
X155307142Y1673810D01*
X154997619Y1173810D02*
X154997619Y1673810D01*
X154783333Y1173810D02*
X154783333Y1435715D01*
X154807142Y1483334D01*
X154854761Y1507143D01*
X154926190Y1507143D01*
X154973809Y1483334D01*
X154997619Y1459524D01*
X154545238Y1173810D02*
X154545238Y1507143D01*
X154545238Y1411905D02*
X154521428Y1459524D01*
X154497619Y1483334D01*
X154450000Y1507143D01*
X154402380Y1507143D01*
X154045238Y1197620D02*
X154092857Y1173810D01*
X154188095Y1173810D01*
X154235714Y1197620D01*
X154259523Y1245239D01*
X154259523Y1435715D01*
X154235714Y1483334D01*
X154188095Y1507143D01*
X154092857Y1507143D01*
X154045238Y1483334D01*
X154021428Y1435715D01*
X154021428Y1388096D01*
X154259523Y1340477D01*
X153830952Y1197620D02*
X153783333Y1173810D01*
X153688095Y1173810D01*
X153640476Y1197620D01*
X153616666Y1245239D01*
X153616666Y1269048D01*
X153640476Y1316667D01*
X153688095Y1340477D01*
X153759523Y1340477D01*
X153807142Y1364286D01*
X153830952Y1411905D01*
X153830952Y1435715D01*
X153807142Y1483334D01*
X153759523Y1507143D01*
X153688095Y1507143D01*
X153640476Y1483334D01*
X153402380Y1173810D02*
X153402380Y1673810D01*
X153188095Y1173810D02*
X153188095Y1435715D01*
X153211904Y1483334D01*
X153259523Y1507143D01*
X153330952Y1507143D01*
X153378571Y1483334D01*
X153402380Y1459524D01*
X152878571Y1173810D02*
X152926190Y1197620D01*
X152950000Y1221429D01*
X152973809Y1269048D01*
X152973809Y1411905D01*
X152950000Y1459524D01*
X152926190Y1483334D01*
X152878571Y1507143D01*
X152807142Y1507143D01*
X152759523Y1483334D01*
X152735714Y1459524D01*
X152711904Y1411905D01*
X152711904Y1269048D01*
X152735714Y1221429D01*
X152759523Y1197620D01*
X152807142Y1173810D01*
X152878571Y1173810D01*
X152426190Y1173810D02*
X152473809Y1197620D01*
X152497619Y1245239D01*
X152497619Y1673810D01*
X152021428Y1173810D02*
X152021428Y1673810D01*
X152021428Y1197620D02*
X152069047Y1173810D01*
X152164285Y1173810D01*
X152211904Y1197620D01*
X152235714Y1221429D01*
X152259523Y1269048D01*
X152259523Y1411905D01*
X152235714Y1459524D01*
X152211904Y1483334D01*
X152164285Y1507143D01*
X152069047Y1507143D01*
X152021428Y1483334D01*
X136945238Y1223810D02*
X136945238Y1723810D01*
X136826190Y1723810D01*
X136754761Y1700000D01*
X136707142Y1652381D01*
X136683333Y1604762D01*
X136659523Y1509524D01*
X136659523Y1438096D01*
X136683333Y1342858D01*
X136707142Y1295239D01*
X136754761Y1247620D01*
X136826190Y1223810D01*
X136945238Y1223810D01*
X136469047Y1366667D02*
X136230952Y1366667D01*
X136516666Y1223810D02*
X136350000Y1723810D01*
X136183333Y1223810D01*
X135730952Y1271429D02*
X135754761Y1247620D01*
X135826190Y1223810D01*
X135873809Y1223810D01*
X135945238Y1247620D01*
X135992857Y1295239D01*
X136016666Y1342858D01*
X136040476Y1438096D01*
X136040476Y1509524D01*
X136016666Y1604762D01*
X135992857Y1652381D01*
X135945238Y1700000D01*
X135873809Y1723810D01*
X135826190Y1723810D01*
X135754761Y1700000D01*
X135730952Y1676191D01*
D11*
X45340476Y3046429D02*
X45197619Y2998810D01*
X45150000Y2951191D01*
X45102380Y2855953D01*
X45102380Y2713096D01*
X45150000Y2617858D01*
X45197619Y2570239D01*
X45292857Y2522620D01*
X45673809Y2522620D01*
X45673809Y3522620D01*
X45340476Y3522620D01*
X45245238Y3475000D01*
X45197619Y3427381D01*
X45150000Y3332143D01*
X45150000Y3236905D01*
X45197619Y3141667D01*
X45245238Y3094048D01*
X45340476Y3046429D01*
X45673809Y3046429D01*
X44245238Y2522620D02*
X44245238Y3046429D01*
X44292857Y3141667D01*
X44388095Y3189286D01*
X44578571Y3189286D01*
X44673809Y3141667D01*
X44245238Y2570239D02*
X44340476Y2522620D01*
X44578571Y2522620D01*
X44673809Y2570239D01*
X44721428Y2665477D01*
X44721428Y2760715D01*
X44673809Y2855953D01*
X44578571Y2903572D01*
X44340476Y2903572D01*
X44245238Y2951191D01*
X43816666Y2570239D02*
X43721428Y2522620D01*
X43530952Y2522620D01*
X43435714Y2570239D01*
X43388095Y2665477D01*
X43388095Y2713096D01*
X43435714Y2808334D01*
X43530952Y2855953D01*
X43673809Y2855953D01*
X43769047Y2903572D01*
X43816666Y2998810D01*
X43816666Y3046429D01*
X43769047Y3141667D01*
X43673809Y3189286D01*
X43530952Y3189286D01*
X43435714Y3141667D01*
X42578571Y2570239D02*
X42673809Y2522620D01*
X42864285Y2522620D01*
X42959523Y2570239D01*
X43007142Y2665477D01*
X43007142Y3046429D01*
X42959523Y3141667D01*
X42864285Y3189286D01*
X42673809Y3189286D01*
X42578571Y3141667D01*
X42530952Y3046429D01*
X42530952Y2951191D01*
X43007142Y2855953D01*
X41673809Y2522620D02*
X41673809Y3522620D01*
X41673809Y2570239D02*
X41769047Y2522620D01*
X41959523Y2522620D01*
X42054761Y2570239D01*
X42102380Y2617858D01*
X42150000Y2713096D01*
X42150000Y2998810D01*
X42102380Y3094048D01*
X42054761Y3141667D01*
X41959523Y3189286D01*
X41769047Y3189286D01*
X41673809Y3141667D01*
X40292857Y2522620D02*
X40388095Y2570239D01*
X40435714Y2617858D01*
X40483333Y2713096D01*
X40483333Y2998810D01*
X40435714Y3094048D01*
X40388095Y3141667D01*
X40292857Y3189286D01*
X40150000Y3189286D01*
X40054761Y3141667D01*
X40007142Y3094048D01*
X39959523Y2998810D01*
X39959523Y2713096D01*
X40007142Y2617858D01*
X40054761Y2570239D01*
X40150000Y2522620D01*
X40292857Y2522620D01*
X39530952Y3189286D02*
X39530952Y2522620D01*
X39530952Y3094048D02*
X39483333Y3141667D01*
X39388095Y3189286D01*
X39245238Y3189286D01*
X39150000Y3141667D01*
X39102380Y3046429D01*
X39102380Y2522620D01*
X37721428Y2522620D02*
X37816666Y2570239D01*
X37864285Y2617858D01*
X37911904Y2713096D01*
X37911904Y2998810D01*
X37864285Y3094048D01*
X37816666Y3141667D01*
X37721428Y3189286D01*
X37578571Y3189286D01*
X37483333Y3141667D01*
X37435714Y3094048D01*
X37388095Y2998810D01*
X37388095Y2713096D01*
X37435714Y2617858D01*
X37483333Y2570239D01*
X37578571Y2522620D01*
X37721428Y2522620D01*
X36959523Y2522620D02*
X36959523Y3189286D01*
X36959523Y2998810D02*
X36911904Y3094048D01*
X36864285Y3141667D01*
X36769047Y3189286D01*
X36673809Y3189286D01*
X36340476Y2522620D02*
X36340476Y3189286D01*
X36340476Y3522620D02*
X36388095Y3475000D01*
X36340476Y3427381D01*
X36292857Y3475000D01*
X36340476Y3522620D01*
X36340476Y3427381D01*
X35435714Y3189286D02*
X35435714Y2379762D01*
X35483333Y2284524D01*
X35530952Y2236905D01*
X35626190Y2189286D01*
X35769047Y2189286D01*
X35864285Y2236905D01*
X35435714Y2570239D02*
X35530952Y2522620D01*
X35721428Y2522620D01*
X35816666Y2570239D01*
X35864285Y2617858D01*
X35911904Y2713096D01*
X35911904Y2998810D01*
X35864285Y3094048D01*
X35816666Y3141667D01*
X35721428Y3189286D01*
X35530952Y3189286D01*
X35435714Y3141667D01*
X34959523Y2522620D02*
X34959523Y3189286D01*
X34959523Y3522620D02*
X35007142Y3475000D01*
X34959523Y3427381D01*
X34911904Y3475000D01*
X34959523Y3522620D01*
X34959523Y3427381D01*
X34483333Y3189286D02*
X34483333Y2522620D01*
X34483333Y3094048D02*
X34435714Y3141667D01*
X34340476Y3189286D01*
X34197619Y3189286D01*
X34102380Y3141667D01*
X34054761Y3046429D01*
X34054761Y2522620D01*
X33150000Y2522620D02*
X33150000Y3046429D01*
X33197619Y3141667D01*
X33292857Y3189286D01*
X33483333Y3189286D01*
X33578571Y3141667D01*
X33150000Y2570239D02*
X33245238Y2522620D01*
X33483333Y2522620D01*
X33578571Y2570239D01*
X33626190Y2665477D01*
X33626190Y2760715D01*
X33578571Y2855953D01*
X33483333Y2903572D01*
X33245238Y2903572D01*
X33150000Y2951191D01*
X32530952Y2522620D02*
X32626190Y2570239D01*
X32673809Y2665477D01*
X32673809Y3522620D01*
X45340476Y1539286D02*
X45150000Y872620D01*
X44959523Y1348810D01*
X44769047Y872620D01*
X44578571Y1539286D01*
X44054761Y872620D02*
X44150000Y920239D01*
X44197619Y967858D01*
X44245238Y1063096D01*
X44245238Y1348810D01*
X44197619Y1444048D01*
X44150000Y1491667D01*
X44054761Y1539286D01*
X43911904Y1539286D01*
X43816666Y1491667D01*
X43769047Y1444048D01*
X43721428Y1348810D01*
X43721428Y1063096D01*
X43769047Y967858D01*
X43816666Y920239D01*
X43911904Y872620D01*
X44054761Y872620D01*
X43292857Y872620D02*
X43292857Y1539286D01*
X43292857Y1348810D02*
X43245238Y1444048D01*
X43197619Y1491667D01*
X43102380Y1539286D01*
X43007142Y1539286D01*
X42673809Y872620D02*
X42673809Y1872620D01*
X42578571Y1253572D02*
X42292857Y872620D01*
X42292857Y1539286D02*
X42673809Y1158334D01*
X41102380Y872620D02*
X41102380Y1872620D01*
X41102380Y1491667D02*
X41007142Y1539286D01*
X40816666Y1539286D01*
X40721428Y1491667D01*
X40673809Y1444048D01*
X40626190Y1348810D01*
X40626190Y1063096D01*
X40673809Y967858D01*
X40721428Y920239D01*
X40816666Y872620D01*
X41007142Y872620D01*
X41102380Y920239D01*
X40292857Y1539286D02*
X40054761Y872620D01*
X39816666Y1539286D02*
X40054761Y872620D01*
X40150000Y634524D01*
X40197619Y586905D01*
X40292857Y539286D01*
X38769047Y872620D02*
X38245238Y1539286D01*
X38769047Y1539286D02*
X38245238Y872620D01*
X37959523Y1539286D02*
X37769047Y872620D01*
X37578571Y1348810D01*
X37388095Y872620D01*
X37197619Y1539286D01*
X36816666Y872620D02*
X36816666Y1872620D01*
X36388095Y872620D02*
X36388095Y1396429D01*
X36435714Y1491667D01*
X36530952Y1539286D01*
X36673809Y1539286D01*
X36769047Y1491667D01*
X36816666Y1444048D01*
X35483333Y872620D02*
X35483333Y1396429D01*
X35530952Y1491667D01*
X35626190Y1539286D01*
X35816666Y1539286D01*
X35911904Y1491667D01*
X35483333Y920239D02*
X35578571Y872620D01*
X35816666Y872620D01*
X35911904Y920239D01*
X35959523Y1015477D01*
X35959523Y1110715D01*
X35911904Y1205953D01*
X35816666Y1253572D01*
X35578571Y1253572D01*
X35483333Y1301191D01*
X35150000Y1539286D02*
X34769047Y1539286D01*
X35007142Y1872620D02*
X35007142Y1015477D01*
X34959523Y920239D01*
X34864285Y872620D01*
X34769047Y872620D01*
X34483333Y920239D02*
X34388095Y872620D01*
X34197619Y872620D01*
X34102380Y920239D01*
X34054761Y1015477D01*
X34054761Y1063096D01*
X34102380Y1158334D01*
X34197619Y1205953D01*
X34340476Y1205953D01*
X34435714Y1253572D01*
X34483333Y1348810D01*
X34483333Y1396429D01*
X34435714Y1491667D01*
X34340476Y1539286D01*
X34197619Y1539286D01*
X34102380Y1491667D01*
X33626190Y872620D02*
X33626190Y1539286D01*
X33626190Y1872620D02*
X33673809Y1825000D01*
X33626190Y1777381D01*
X33578571Y1825000D01*
X33626190Y1872620D01*
X33626190Y1777381D01*
X33292857Y1539286D02*
X32911904Y1539286D01*
X33150000Y1872620D02*
X33150000Y1015477D01*
X33102380Y920239D01*
X33007142Y872620D01*
X32911904Y872620D01*
X4450000Y15011905D02*
X4402380Y15107143D01*
X4402380Y15250000D01*
X4450000Y15392858D01*
X4545238Y15488096D01*
X4640476Y15535715D01*
X4830952Y15583334D01*
X4973809Y15583334D01*
X5164285Y15535715D01*
X5259523Y15488096D01*
X5354761Y15392858D01*
X5402380Y15250000D01*
X5402380Y15154762D01*
X5354761Y15011905D01*
X5307142Y14964286D01*
X4973809Y14964286D01*
X4973809Y15154762D01*
X5402380Y14535715D02*
X4402380Y14535715D01*
X5402380Y13964286D01*
X4402380Y13964286D01*
X5402380Y13488096D02*
X4402380Y13488096D01*
X4402380Y13250000D01*
X4450000Y13107143D01*
X4545238Y13011905D01*
X4640476Y12964286D01*
X4830952Y12916667D01*
X4973809Y12916667D01*
X5164285Y12964286D01*
X5259523Y13011905D01*
X5354761Y13107143D01*
X5402380Y13250000D01*
X5402380Y13488096D01*
X7902380Y14947620D02*
X7426190Y15280953D01*
X7902380Y15519048D02*
X6902380Y15519048D01*
X6902380Y15138096D01*
X6950000Y15042858D01*
X6997619Y14995239D01*
X7092857Y14947620D01*
X7235714Y14947620D01*
X7330952Y14995239D01*
X7378571Y15042858D01*
X7426190Y15138096D01*
X7426190Y15519048D01*
X7854761Y14566667D02*
X7902380Y14423810D01*
X7902380Y14185715D01*
X7854761Y14090477D01*
X7807142Y14042858D01*
X7711904Y13995239D01*
X7616666Y13995239D01*
X7521428Y14042858D01*
X7473809Y14090477D01*
X7426190Y14185715D01*
X7378571Y14376191D01*
X7330952Y14471429D01*
X7283333Y14519048D01*
X7188095Y14566667D01*
X7092857Y14566667D01*
X6997619Y14519048D01*
X6950000Y14471429D01*
X6902380Y14376191D01*
X6902380Y14138096D01*
X6950000Y13995239D01*
X6902380Y13709524D02*
X6902380Y13138096D01*
X7902380Y13423810D02*
X6902380Y13423810D01*
X111904761Y4967858D02*
X111952380Y4920239D01*
X112095238Y4872620D01*
X112190476Y4872620D01*
X112333333Y4920239D01*
X112428571Y5015477D01*
X112476190Y5110715D01*
X112523809Y5301191D01*
X112523809Y5444048D01*
X112476190Y5634524D01*
X112428571Y5729762D01*
X112333333Y5825000D01*
X112190476Y5872620D01*
X112095238Y5872620D01*
X111952380Y5825000D01*
X111904761Y5777381D01*
X111333333Y4872620D02*
X111428571Y4920239D01*
X111476190Y4967858D01*
X111523809Y5063096D01*
X111523809Y5348810D01*
X111476190Y5444048D01*
X111428571Y5491667D01*
X111333333Y5539286D01*
X111190476Y5539286D01*
X111095238Y5491667D01*
X111047619Y5444048D01*
X111000000Y5348810D01*
X111000000Y5063096D01*
X111047619Y4967858D01*
X111095238Y4920239D01*
X111190476Y4872620D01*
X111333333Y4872620D01*
X110571428Y4872620D02*
X110571428Y5539286D01*
X110571428Y5444048D02*
X110523809Y5491667D01*
X110428571Y5539286D01*
X110285714Y5539286D01*
X110190476Y5491667D01*
X110142857Y5396429D01*
X110142857Y4872620D01*
X110142857Y5396429D02*
X110095238Y5491667D01*
X110000000Y5539286D01*
X109857142Y5539286D01*
X109761904Y5491667D01*
X109714285Y5396429D01*
X109714285Y4872620D01*
X109238095Y5539286D02*
X109238095Y4539286D01*
X109238095Y5491667D02*
X109142857Y5539286D01*
X108952380Y5539286D01*
X108857142Y5491667D01*
X108809523Y5444048D01*
X108761904Y5348810D01*
X108761904Y5063096D01*
X108809523Y4967858D01*
X108857142Y4920239D01*
X108952380Y4872620D01*
X109142857Y4872620D01*
X109238095Y4920239D01*
X107904761Y4872620D02*
X107904761Y5396429D01*
X107952380Y5491667D01*
X108047619Y5539286D01*
X108238095Y5539286D01*
X108333333Y5491667D01*
X107904761Y4920239D02*
X108000000Y4872620D01*
X108238095Y4872620D01*
X108333333Y4920239D01*
X108380952Y5015477D01*
X108380952Y5110715D01*
X108333333Y5205953D01*
X108238095Y5253572D01*
X108000000Y5253572D01*
X107904761Y5301191D01*
X107000000Y4920239D02*
X107095238Y4872620D01*
X107285714Y4872620D01*
X107380952Y4920239D01*
X107428571Y4967858D01*
X107476190Y5063096D01*
X107476190Y5348810D01*
X107428571Y5444048D01*
X107380952Y5491667D01*
X107285714Y5539286D01*
X107095238Y5539286D01*
X107000000Y5491667D01*
X106714285Y5539286D02*
X106333333Y5539286D01*
X106571428Y5872620D02*
X106571428Y5015477D01*
X106523809Y4920239D01*
X106428571Y4872620D01*
X106333333Y4872620D01*
X106000000Y5253572D02*
X105238095Y5253572D01*
X104428571Y5396429D02*
X104285714Y5348810D01*
X104238095Y5301191D01*
X104190476Y5205953D01*
X104190476Y5063096D01*
X104238095Y4967858D01*
X104285714Y4920239D01*
X104380952Y4872620D01*
X104761904Y4872620D01*
X104761904Y5872620D01*
X104428571Y5872620D01*
X104333333Y5825000D01*
X104285714Y5777381D01*
X104238095Y5682143D01*
X104238095Y5586905D01*
X104285714Y5491667D01*
X104333333Y5444048D01*
X104428571Y5396429D01*
X104761904Y5396429D01*
X103380952Y4920239D02*
X103476190Y4872620D01*
X103666666Y4872620D01*
X103761904Y4920239D01*
X103809523Y5015477D01*
X103809523Y5396429D01*
X103761904Y5491667D01*
X103666666Y5539286D01*
X103476190Y5539286D01*
X103380952Y5491667D01*
X103333333Y5396429D01*
X103333333Y5301191D01*
X103809523Y5205953D01*
X102476190Y4872620D02*
X102476190Y5396429D01*
X102523809Y5491667D01*
X102619047Y5539286D01*
X102809523Y5539286D01*
X102904761Y5491667D01*
X102476190Y4920239D02*
X102571428Y4872620D01*
X102809523Y4872620D01*
X102904761Y4920239D01*
X102952380Y5015477D01*
X102952380Y5110715D01*
X102904761Y5205953D01*
X102809523Y5253572D01*
X102571428Y5253572D01*
X102476190Y5301191D01*
X102000000Y4872620D02*
X102000000Y5539286D01*
X102000000Y5444048D02*
X101952380Y5491667D01*
X101857142Y5539286D01*
X101714285Y5539286D01*
X101619047Y5491667D01*
X101571428Y5396429D01*
X101571428Y4872620D01*
X101571428Y5396429D02*
X101523809Y5491667D01*
X101428571Y5539286D01*
X101285714Y5539286D01*
X101190476Y5491667D01*
X101142857Y5396429D01*
X101142857Y4872620D01*
X100714285Y4920239D02*
X100619047Y4872620D01*
X100428571Y4872620D01*
X100333333Y4920239D01*
X100285714Y5015477D01*
X100285714Y5063096D01*
X100333333Y5158334D01*
X100428571Y5205953D01*
X100571428Y5205953D01*
X100666666Y5253572D01*
X100714285Y5348810D01*
X100714285Y5396429D01*
X100666666Y5491667D01*
X100571428Y5539286D01*
X100428571Y5539286D01*
X100333333Y5491667D01*
X99857142Y5539286D02*
X99857142Y4539286D01*
X99857142Y5491667D02*
X99761904Y5539286D01*
X99571428Y5539286D01*
X99476190Y5491667D01*
X99428571Y5444048D01*
X99380952Y5348810D01*
X99380952Y5063096D01*
X99428571Y4967858D01*
X99476190Y4920239D01*
X99571428Y4872620D01*
X99761904Y4872620D01*
X99857142Y4920239D01*
X98952380Y4872620D02*
X98952380Y5539286D01*
X98952380Y5348810D02*
X98904761Y5444048D01*
X98857142Y5491667D01*
X98761904Y5539286D01*
X98666666Y5539286D01*
X98333333Y4872620D02*
X98333333Y5539286D01*
X98333333Y5872620D02*
X98380952Y5825000D01*
X98333333Y5777381D01*
X98285714Y5825000D01*
X98333333Y5872620D01*
X98333333Y5777381D01*
X97857142Y5539286D02*
X97857142Y4872620D01*
X97857142Y5444048D02*
X97809523Y5491667D01*
X97714285Y5539286D01*
X97571428Y5539286D01*
X97476190Y5491667D01*
X97428571Y5396429D01*
X97428571Y4872620D01*
X96523809Y5539286D02*
X96523809Y4729762D01*
X96571428Y4634524D01*
X96619047Y4586905D01*
X96714285Y4539286D01*
X96857142Y4539286D01*
X96952380Y4586905D01*
X96523809Y4920239D02*
X96619047Y4872620D01*
X96809523Y4872620D01*
X96904761Y4920239D01*
X96952380Y4967858D01*
X97000000Y5063096D01*
X97000000Y5348810D01*
X96952380Y5444048D01*
X96904761Y5491667D01*
X96809523Y5539286D01*
X96619047Y5539286D01*
X96523809Y5491667D01*
X106190476Y3222620D02*
X106523809Y3698810D01*
X106761904Y3222620D02*
X106761904Y4222620D01*
X106380952Y4222620D01*
X106285714Y4175000D01*
X106238095Y4127381D01*
X106190476Y4032143D01*
X106190476Y3889286D01*
X106238095Y3794048D01*
X106285714Y3746429D01*
X106380952Y3698810D01*
X106761904Y3698810D01*
X105380952Y3270239D02*
X105476190Y3222620D01*
X105666666Y3222620D01*
X105761904Y3270239D01*
X105809523Y3365477D01*
X105809523Y3746429D01*
X105761904Y3841667D01*
X105666666Y3889286D01*
X105476190Y3889286D01*
X105380952Y3841667D01*
X105333333Y3746429D01*
X105333333Y3651191D01*
X105809523Y3555953D01*
X105000000Y3889286D02*
X104761904Y3222620D01*
X104523809Y3889286D01*
X103619047Y3222620D02*
X104190476Y3222620D01*
X103904761Y3222620D02*
X103904761Y4222620D01*
X104000000Y4079762D01*
X104095238Y3984524D01*
X104190476Y3936905D01*
X103190476Y3317858D02*
X103142857Y3270239D01*
X103190476Y3222620D01*
X103238095Y3270239D01*
X103190476Y3317858D01*
X103190476Y3222620D01*
X102761904Y4127381D02*
X102714285Y4175000D01*
X102619047Y4222620D01*
X102380952Y4222620D01*
X102285714Y4175000D01*
X102238095Y4127381D01*
X102190476Y4032143D01*
X102190476Y3936905D01*
X102238095Y3794048D01*
X102809523Y3222620D01*
X102190476Y3222620D01*
X77842976Y7942858D02*
X77890595Y7895239D01*
X78033452Y7847620D01*
X78128690Y7847620D01*
X78271547Y7895239D01*
X78366785Y7990477D01*
X78414404Y8085715D01*
X78462023Y8276191D01*
X78462023Y8419048D01*
X78414404Y8609524D01*
X78366785Y8704762D01*
X78271547Y8800000D01*
X78128690Y8847620D01*
X78033452Y8847620D01*
X77890595Y8800000D01*
X77842976Y8752381D01*
X77271547Y7847620D02*
X77366785Y7895239D01*
X77414404Y7942858D01*
X77462023Y8038096D01*
X77462023Y8323810D01*
X77414404Y8419048D01*
X77366785Y8466667D01*
X77271547Y8514286D01*
X77128690Y8514286D01*
X77033452Y8466667D01*
X76985833Y8419048D01*
X76938214Y8323810D01*
X76938214Y8038096D01*
X76985833Y7942858D01*
X77033452Y7895239D01*
X77128690Y7847620D01*
X77271547Y7847620D01*
X76509642Y8514286D02*
X76509642Y7847620D01*
X76509642Y8419048D02*
X76462023Y8466667D01*
X76366785Y8514286D01*
X76223928Y8514286D01*
X76128690Y8466667D01*
X76081071Y8371429D01*
X76081071Y7847620D01*
X75747738Y8514286D02*
X75366785Y8514286D01*
X75604880Y8847620D02*
X75604880Y7990477D01*
X75557261Y7895239D01*
X75462023Y7847620D01*
X75366785Y7847620D01*
X75033452Y7847620D02*
X75033452Y8514286D01*
X75033452Y8323810D02*
X74985833Y8419048D01*
X74938214Y8466667D01*
X74842976Y8514286D01*
X74747738Y8514286D01*
X74414404Y7847620D02*
X74414404Y8514286D01*
X74414404Y8847620D02*
X74462023Y8800000D01*
X74414404Y8752381D01*
X74366785Y8800000D01*
X74414404Y8847620D01*
X74414404Y8752381D01*
X73938214Y7847620D02*
X73938214Y8847620D01*
X73938214Y8466667D02*
X73842976Y8514286D01*
X73652500Y8514286D01*
X73557261Y8466667D01*
X73509642Y8419048D01*
X73462023Y8323810D01*
X73462023Y8038096D01*
X73509642Y7942858D01*
X73557261Y7895239D01*
X73652500Y7847620D01*
X73842976Y7847620D01*
X73938214Y7895239D01*
X72604880Y8514286D02*
X72604880Y7847620D01*
X73033452Y8514286D02*
X73033452Y7990477D01*
X72985833Y7895239D01*
X72890595Y7847620D01*
X72747738Y7847620D01*
X72652500Y7895239D01*
X72604880Y7942858D01*
X72271547Y8514286D02*
X71890595Y8514286D01*
X72128690Y8847620D02*
X72128690Y7990477D01*
X72081071Y7895239D01*
X71985833Y7847620D01*
X71890595Y7847620D01*
X71414404Y7847620D02*
X71509642Y7895239D01*
X71557261Y7942858D01*
X71604880Y8038096D01*
X71604880Y8323810D01*
X71557261Y8419048D01*
X71509642Y8466667D01*
X71414404Y8514286D01*
X71271547Y8514286D01*
X71176309Y8466667D01*
X71128690Y8419048D01*
X71081071Y8323810D01*
X71081071Y8038096D01*
X71128690Y7942858D01*
X71176309Y7895239D01*
X71271547Y7847620D01*
X71414404Y7847620D01*
X70652500Y7847620D02*
X70652500Y8514286D01*
X70652500Y8323810D02*
X70604880Y8419048D01*
X70557261Y8466667D01*
X70462023Y8514286D01*
X70366785Y8514286D01*
X70081071Y7895239D02*
X69985833Y7847620D01*
X69795357Y7847620D01*
X69700119Y7895239D01*
X69652500Y7990477D01*
X69652500Y8038096D01*
X69700119Y8133334D01*
X69795357Y8180953D01*
X69938214Y8180953D01*
X70033452Y8228572D01*
X70081071Y8323810D01*
X70081071Y8371429D01*
X70033452Y8466667D01*
X69938214Y8514286D01*
X69795357Y8514286D01*
X69700119Y8466667D01*
X69223928Y7942858D02*
X69176309Y7895239D01*
X69223928Y7847620D01*
X69271547Y7895239D01*
X69223928Y7942858D01*
X69223928Y7847620D01*
X69223928Y8466667D02*
X69176309Y8419048D01*
X69223928Y8371429D01*
X69271547Y8419048D01*
X69223928Y8466667D01*
X69223928Y8371429D01*
X76747738Y7197620D02*
X76747738Y6959524D01*
X76985833Y7054762D02*
X76747738Y6959524D01*
X76509642Y7054762D01*
X76890595Y6769048D02*
X76747738Y6959524D01*
X76604880Y6769048D01*
X75366785Y6864286D02*
X75366785Y5864286D01*
X75366785Y6816667D02*
X75271547Y6864286D01*
X75081071Y6864286D01*
X74985833Y6816667D01*
X74938214Y6769048D01*
X74890595Y6673810D01*
X74890595Y6388096D01*
X74938214Y6292858D01*
X74985833Y6245239D01*
X75081071Y6197620D01*
X75271547Y6197620D01*
X75366785Y6245239D01*
X74033452Y6197620D02*
X74033452Y6721429D01*
X74081071Y6816667D01*
X74176309Y6864286D01*
X74366785Y6864286D01*
X74462023Y6816667D01*
X74033452Y6245239D02*
X74128690Y6197620D01*
X74366785Y6197620D01*
X74462023Y6245239D01*
X74509642Y6340477D01*
X74509642Y6435715D01*
X74462023Y6530953D01*
X74366785Y6578572D01*
X74128690Y6578572D01*
X74033452Y6626191D01*
X73557261Y6864286D02*
X73557261Y6197620D01*
X73557261Y6769048D02*
X73509642Y6816667D01*
X73414404Y6864286D01*
X73271547Y6864286D01*
X73176309Y6816667D01*
X73128690Y6721429D01*
X73128690Y6197620D01*
X72223928Y6197620D02*
X72223928Y7197620D01*
X72223928Y6245239D02*
X72319166Y6197620D01*
X72509642Y6197620D01*
X72604880Y6245239D01*
X72652500Y6292858D01*
X72700119Y6388096D01*
X72700119Y6673810D01*
X72652500Y6769048D01*
X72604880Y6816667D01*
X72509642Y6864286D01*
X72319166Y6864286D01*
X72223928Y6816667D01*
X71747738Y6197620D02*
X71747738Y6864286D01*
X71747738Y6673810D02*
X71700119Y6769048D01*
X71652500Y6816667D01*
X71557261Y6864286D01*
X71462023Y6864286D01*
X70747738Y6245239D02*
X70842976Y6197620D01*
X71033452Y6197620D01*
X71128690Y6245239D01*
X71176309Y6340477D01*
X71176309Y6721429D01*
X71128690Y6816667D01*
X71033452Y6864286D01*
X70842976Y6864286D01*
X70747738Y6816667D01*
X70700119Y6721429D01*
X70700119Y6626191D01*
X71176309Y6530953D01*
X70366785Y6864286D02*
X70176309Y6197620D01*
X69985833Y6673810D01*
X69795357Y6197620D01*
X69604880Y6864286D01*
X76747738Y5547620D02*
X76747738Y5309524D01*
X76985833Y5404762D02*
X76747738Y5309524D01*
X76509642Y5404762D01*
X76890595Y5119048D02*
X76747738Y5309524D01*
X76604880Y5119048D01*
X75223928Y4547620D02*
X75319166Y4595239D01*
X75366785Y4690477D01*
X75366785Y5547620D01*
X74842976Y4547620D02*
X74842976Y5214286D01*
X74842976Y5547620D02*
X74890595Y5500000D01*
X74842976Y5452381D01*
X74795357Y5500000D01*
X74842976Y5547620D01*
X74842976Y5452381D01*
X74414404Y4595239D02*
X74319166Y4547620D01*
X74128690Y4547620D01*
X74033452Y4595239D01*
X73985833Y4690477D01*
X73985833Y4738096D01*
X74033452Y4833334D01*
X74128690Y4880953D01*
X74271547Y4880953D01*
X74366785Y4928572D01*
X74414404Y5023810D01*
X74414404Y5071429D01*
X74366785Y5166667D01*
X74271547Y5214286D01*
X74128690Y5214286D01*
X74033452Y5166667D01*
X73700119Y5214286D02*
X73319166Y5214286D01*
X73557261Y5547620D02*
X73557261Y4690477D01*
X73509642Y4595239D01*
X73414404Y4547620D01*
X73319166Y4547620D01*
X72842976Y4547620D02*
X72938214Y4595239D01*
X72985833Y4642858D01*
X73033452Y4738096D01*
X73033452Y5023810D01*
X72985833Y5119048D01*
X72938214Y5166667D01*
X72842976Y5214286D01*
X72700119Y5214286D01*
X72604880Y5166667D01*
X72557261Y5119048D01*
X72509642Y5023810D01*
X72509642Y4738096D01*
X72557261Y4642858D01*
X72604880Y4595239D01*
X72700119Y4547620D01*
X72842976Y4547620D01*
X72223928Y5214286D02*
X71842976Y5214286D01*
X72081071Y4547620D02*
X72081071Y5404762D01*
X72033452Y5500000D01*
X71938214Y5547620D01*
X71842976Y5547620D01*
X71366785Y4547620D02*
X71462023Y4595239D01*
X71509642Y4642858D01*
X71557261Y4738096D01*
X71557261Y5023810D01*
X71509642Y5119048D01*
X71462023Y5166667D01*
X71366785Y5214286D01*
X71223928Y5214286D01*
X71128690Y5166667D01*
X71081071Y5119048D01*
X71033452Y5023810D01*
X71033452Y4738096D01*
X71081071Y4642858D01*
X71128690Y4595239D01*
X71223928Y4547620D01*
X71366785Y4547620D01*
X70604880Y5214286D02*
X70604880Y4214286D01*
X70604880Y5166667D02*
X70509642Y5214286D01*
X70319166Y5214286D01*
X70223928Y5166667D01*
X70176309Y5119048D01*
X70128690Y5023810D01*
X70128690Y4738096D01*
X70176309Y4642858D01*
X70223928Y4595239D01*
X70319166Y4547620D01*
X70509642Y4547620D01*
X70604880Y4595239D01*
X69842976Y5214286D02*
X69462023Y5214286D01*
X69700119Y5547620D02*
X69700119Y4690477D01*
X69652500Y4595239D01*
X69557261Y4547620D01*
X69462023Y4547620D01*
X69128690Y4547620D02*
X69128690Y5214286D01*
X69128690Y5547620D02*
X69176309Y5500000D01*
X69128690Y5452381D01*
X69081071Y5500000D01*
X69128690Y5547620D01*
X69128690Y5452381D01*
X68509642Y4547620D02*
X68604880Y4595239D01*
X68652500Y4642858D01*
X68700119Y4738096D01*
X68700119Y5023810D01*
X68652500Y5119048D01*
X68604880Y5166667D01*
X68509642Y5214286D01*
X68366785Y5214286D01*
X68271547Y5166667D01*
X68223928Y5119048D01*
X68176309Y5023810D01*
X68176309Y4738096D01*
X68223928Y4642858D01*
X68271547Y4595239D01*
X68366785Y4547620D01*
X68509642Y4547620D01*
X67747738Y5214286D02*
X67747738Y4547620D01*
X67747738Y5119048D02*
X67700119Y5166667D01*
X67604880Y5214286D01*
X67462023Y5214286D01*
X67366785Y5166667D01*
X67319166Y5071429D01*
X67319166Y4547620D01*
X66890595Y4595239D02*
X66795357Y4547620D01*
X66604880Y4547620D01*
X66509642Y4595239D01*
X66462023Y4690477D01*
X66462023Y4738096D01*
X66509642Y4833334D01*
X66604880Y4880953D01*
X66747738Y4880953D01*
X66842976Y4928572D01*
X66890595Y5023810D01*
X66890595Y5071429D01*
X66842976Y5166667D01*
X66747738Y5214286D01*
X66604880Y5214286D01*
X66509642Y5166667D01*
X76747738Y3897620D02*
X76747738Y3659524D01*
X76985833Y3754762D02*
X76747738Y3659524D01*
X76509642Y3754762D01*
X76890595Y3469048D02*
X76747738Y3659524D01*
X76604880Y3469048D01*
X75366785Y2897620D02*
X75366785Y3897620D01*
X75271547Y3278572D02*
X74985833Y2897620D01*
X74985833Y3564286D02*
X75366785Y3183334D01*
X74557261Y2897620D02*
X74557261Y3564286D01*
X74557261Y3469048D02*
X74509642Y3516667D01*
X74414404Y3564286D01*
X74271547Y3564286D01*
X74176309Y3516667D01*
X74128690Y3421429D01*
X74128690Y2897620D01*
X74128690Y3421429D02*
X74081071Y3516667D01*
X73985833Y3564286D01*
X73842976Y3564286D01*
X73747738Y3516667D01*
X73700119Y3421429D01*
X73700119Y2897620D01*
X73223928Y3564286D02*
X73223928Y2897620D01*
X73223928Y3469048D02*
X73176309Y3516667D01*
X73081071Y3564286D01*
X72938214Y3564286D01*
X72842976Y3516667D01*
X72795357Y3421429D01*
X72795357Y2897620D01*
X72176309Y2897620D02*
X72271547Y2945239D01*
X72319166Y2992858D01*
X72366785Y3088096D01*
X72366785Y3373810D01*
X72319166Y3469048D01*
X72271547Y3516667D01*
X72176309Y3564286D01*
X72033452Y3564286D01*
X71938214Y3516667D01*
X71890595Y3469048D01*
X71842976Y3373810D01*
X71842976Y3088096D01*
X71890595Y2992858D01*
X71938214Y2945239D01*
X72033452Y2897620D01*
X72176309Y2897620D01*
X71509642Y3564286D02*
X71271547Y2897620D01*
X71033452Y3564286D01*
X70700119Y3802381D02*
X70652500Y3850000D01*
X70557261Y3897620D01*
X70319166Y3897620D01*
X70223928Y3850000D01*
X70176309Y3802381D01*
X70128690Y3707143D01*
X70128690Y3611905D01*
X70176309Y3469048D01*
X70747738Y2897620D01*
X70128690Y2897620D01*
X69509642Y3897620D02*
X69414404Y3897620D01*
X69319166Y3850000D01*
X69271547Y3802381D01*
X69223928Y3707143D01*
X69176309Y3516667D01*
X69176309Y3278572D01*
X69223928Y3088096D01*
X69271547Y2992858D01*
X69319166Y2945239D01*
X69414404Y2897620D01*
X69509642Y2897620D01*
X69604880Y2945239D01*
X69652500Y2992858D01*
X69700119Y3088096D01*
X69747738Y3278572D01*
X69747738Y3516667D01*
X69700119Y3707143D01*
X69652500Y3802381D01*
X69604880Y3850000D01*
X69509642Y3897620D01*
X68223928Y2897620D02*
X68795357Y2897620D01*
X68509642Y2897620D02*
X68509642Y3897620D01*
X68604880Y3754762D01*
X68700119Y3659524D01*
X68795357Y3611905D01*
X67890595Y3897620D02*
X67223928Y3897620D01*
X67652500Y2897620D01*
X76747738Y2247620D02*
X76747738Y2009524D01*
X76985833Y2104762D02*
X76747738Y2009524D01*
X76509642Y2104762D01*
X76890595Y1819048D02*
X76747738Y2009524D01*
X76604880Y1819048D01*
X75509642Y1914286D02*
X75128690Y1914286D01*
X75366785Y2247620D02*
X75366785Y1390477D01*
X75319166Y1295239D01*
X75223928Y1247620D01*
X75128690Y1247620D01*
X74414404Y1295239D02*
X74509642Y1247620D01*
X74700119Y1247620D01*
X74795357Y1295239D01*
X74842976Y1390477D01*
X74842976Y1771429D01*
X74795357Y1866667D01*
X74700119Y1914286D01*
X74509642Y1914286D01*
X74414404Y1866667D01*
X74366785Y1771429D01*
X74366785Y1676191D01*
X74842976Y1580953D01*
X73938214Y1914286D02*
X73938214Y1247620D01*
X73938214Y1819048D02*
X73890595Y1866667D01*
X73795357Y1914286D01*
X73652500Y1914286D01*
X73557261Y1866667D01*
X73509642Y1771429D01*
X73509642Y1247620D01*
X73176309Y1914286D02*
X72795357Y1914286D01*
X73033452Y2247620D02*
X73033452Y1390477D01*
X72985833Y1295239D01*
X72890595Y1247620D01*
X72795357Y1247620D01*
X72033452Y1247620D02*
X72033452Y1771429D01*
X72081071Y1866667D01*
X72176309Y1914286D01*
X72366785Y1914286D01*
X72462023Y1866667D01*
X72033452Y1295239D02*
X72128690Y1247620D01*
X72366785Y1247620D01*
X72462023Y1295239D01*
X72509642Y1390477D01*
X72509642Y1485715D01*
X72462023Y1580953D01*
X72366785Y1628572D01*
X72128690Y1628572D01*
X72033452Y1676191D01*
X71700119Y1914286D02*
X71319166Y1914286D01*
X71557261Y2247620D02*
X71557261Y1390477D01*
X71509642Y1295239D01*
X71414404Y1247620D01*
X71319166Y1247620D01*
X70842976Y1247620D02*
X70938214Y1295239D01*
X70985833Y1342858D01*
X71033452Y1438096D01*
X71033452Y1723810D01*
X70985833Y1819048D01*
X70938214Y1866667D01*
X70842976Y1914286D01*
X70700119Y1914286D01*
X70604880Y1866667D01*
X70557261Y1819048D01*
X70509642Y1723810D01*
X70509642Y1438096D01*
X70557261Y1342858D01*
X70604880Y1295239D01*
X70700119Y1247620D01*
X70842976Y1247620D01*
X70081071Y1247620D02*
X70081071Y1914286D01*
X70081071Y1723810D02*
X70033452Y1819048D01*
X69985833Y1866667D01*
X69890595Y1914286D01*
X69795357Y1914286D01*
X159259523Y4467858D02*
X159307142Y4420239D01*
X159450000Y4372620D01*
X159545238Y4372620D01*
X159688095Y4420239D01*
X159783333Y4515477D01*
X159830952Y4610715D01*
X159878571Y4801191D01*
X159878571Y4944048D01*
X159830952Y5134524D01*
X159783333Y5229762D01*
X159688095Y5325000D01*
X159545238Y5372620D01*
X159450000Y5372620D01*
X159307142Y5325000D01*
X159259523Y5277381D01*
X158830952Y4372620D02*
X158830952Y5372620D01*
X158830952Y4896429D02*
X158259523Y4896429D01*
X158259523Y4372620D02*
X158259523Y5372620D01*
X157830952Y4658334D02*
X157354761Y4658334D01*
X157926190Y4372620D02*
X157592857Y5372620D01*
X157259523Y4372620D01*
X156973809Y4420239D02*
X156830952Y4372620D01*
X156592857Y4372620D01*
X156497619Y4420239D01*
X156450000Y4467858D01*
X156402380Y4563096D01*
X156402380Y4658334D01*
X156450000Y4753572D01*
X156497619Y4801191D01*
X156592857Y4848810D01*
X156783333Y4896429D01*
X156878571Y4944048D01*
X156926190Y4991667D01*
X156973809Y5086905D01*
X156973809Y5182143D01*
X156926190Y5277381D01*
X156878571Y5325000D01*
X156783333Y5372620D01*
X156545238Y5372620D01*
X156402380Y5325000D01*
X156021428Y4420239D02*
X155878571Y4372620D01*
X155640476Y4372620D01*
X155545238Y4420239D01*
X155497619Y4467858D01*
X155450000Y4563096D01*
X155450000Y4658334D01*
X155497619Y4753572D01*
X155545238Y4801191D01*
X155640476Y4848810D01*
X155830952Y4896429D01*
X155926190Y4944048D01*
X155973809Y4991667D01*
X156021428Y5086905D01*
X156021428Y5182143D01*
X155973809Y5277381D01*
X155926190Y5325000D01*
X155830952Y5372620D01*
X155592857Y5372620D01*
X155450000Y5325000D01*
X155021428Y4372620D02*
X155021428Y5372620D01*
X154592857Y4420239D02*
X154450000Y4372620D01*
X154211904Y4372620D01*
X154116666Y4420239D01*
X154069047Y4467858D01*
X154021428Y4563096D01*
X154021428Y4658334D01*
X154069047Y4753572D01*
X154116666Y4801191D01*
X154211904Y4848810D01*
X154402380Y4896429D01*
X154497619Y4944048D01*
X154545238Y4991667D01*
X154592857Y5086905D01*
X154592857Y5182143D01*
X154545238Y5277381D01*
X154497619Y5325000D01*
X154402380Y5372620D01*
X154164285Y5372620D01*
X154021428Y5325000D01*
X157711904Y3675000D02*
X157807142Y3722620D01*
X157950000Y3722620D01*
X158092857Y3675000D01*
X158188095Y3579762D01*
X158235714Y3484524D01*
X158283333Y3294048D01*
X158283333Y3151191D01*
X158235714Y2960715D01*
X158188095Y2865477D01*
X158092857Y2770239D01*
X157950000Y2722620D01*
X157854761Y2722620D01*
X157711904Y2770239D01*
X157664285Y2817858D01*
X157664285Y3151191D01*
X157854761Y3151191D01*
X157235714Y2722620D02*
X157235714Y3722620D01*
X156664285Y2722620D01*
X156664285Y3722620D01*
X156188095Y2722620D02*
X156188095Y3722620D01*
X155950000Y3722620D01*
X155807142Y3675000D01*
X155711904Y3579762D01*
X155664285Y3484524D01*
X155616666Y3294048D01*
X155616666Y3151191D01*
X155664285Y2960715D01*
X155711904Y2865477D01*
X155807142Y2770239D01*
X155950000Y2722620D01*
X156188095Y2722620D01*
D10*
X25188095Y32201191D02*
X25354761Y32701191D01*
X25521428Y32201191D01*
X25759523Y32701191D02*
X25711904Y32677381D01*
X25688095Y32653572D01*
X25664285Y32605953D01*
X25664285Y32463096D01*
X25688095Y32415477D01*
X25711904Y32391667D01*
X25759523Y32367858D01*
X25830952Y32367858D01*
X25878571Y32391667D01*
X25902380Y32415477D01*
X25926190Y32463096D01*
X25926190Y32605953D01*
X25902380Y32653572D01*
X25878571Y32677381D01*
X25830952Y32701191D01*
X25759523Y32701191D01*
X26354761Y32367858D02*
X26354761Y32701191D01*
X26140476Y32367858D02*
X26140476Y32629762D01*
X26164285Y32677381D01*
X26211904Y32701191D01*
X26283333Y32701191D01*
X26330952Y32677381D01*
X26354761Y32653572D01*
X26521428Y32367858D02*
X26711904Y32367858D01*
X26592857Y32201191D02*
X26592857Y32629762D01*
X26616666Y32677381D01*
X26664285Y32701191D01*
X26711904Y32701191D01*
X7291666Y32201191D02*
X7458333Y32701191D01*
X7625000Y32201191D01*
X7863095Y32701191D02*
X7815476Y32677381D01*
X7791666Y32653572D01*
X7767857Y32605953D01*
X7767857Y32463096D01*
X7791666Y32415477D01*
X7815476Y32391667D01*
X7863095Y32367858D01*
X7934523Y32367858D01*
X7982142Y32391667D01*
X8005952Y32415477D01*
X8029761Y32463096D01*
X8029761Y32605953D01*
X8005952Y32653572D01*
X7982142Y32677381D01*
X7934523Y32701191D01*
X7863095Y32701191D01*
X8315476Y32701191D02*
X8267857Y32677381D01*
X8244047Y32629762D01*
X8244047Y32201191D01*
X8434523Y32367858D02*
X8625000Y32367858D01*
X8505952Y32201191D02*
X8505952Y32629762D01*
X8529761Y32677381D01*
X8577380Y32701191D01*
X8625000Y32701191D01*
X9005952Y32701191D02*
X9005952Y32439286D01*
X8982142Y32391667D01*
X8934523Y32367858D01*
X8839285Y32367858D01*
X8791666Y32391667D01*
X9005952Y32677381D02*
X8958333Y32701191D01*
X8839285Y32701191D01*
X8791666Y32677381D01*
X8767857Y32629762D01*
X8767857Y32582143D01*
X8791666Y32534524D01*
X8839285Y32510715D01*
X8958333Y32510715D01*
X9005952Y32486905D01*
X9458333Y32367858D02*
X9458333Y32772620D01*
X9434523Y32820239D01*
X9410714Y32844048D01*
X9363095Y32867858D01*
X9291666Y32867858D01*
X9244047Y32844048D01*
X9458333Y32677381D02*
X9410714Y32701191D01*
X9315476Y32701191D01*
X9267857Y32677381D01*
X9244047Y32653572D01*
X9220238Y32605953D01*
X9220238Y32463096D01*
X9244047Y32415477D01*
X9267857Y32391667D01*
X9315476Y32367858D01*
X9410714Y32367858D01*
X9458333Y32391667D01*
X9886904Y32677381D02*
X9839285Y32701191D01*
X9744047Y32701191D01*
X9696428Y32677381D01*
X9672619Y32629762D01*
X9672619Y32439286D01*
X9696428Y32391667D01*
X9744047Y32367858D01*
X9839285Y32367858D01*
X9886904Y32391667D01*
X9910714Y32439286D01*
X9910714Y32486905D01*
X9672619Y32534524D01*
X6800000Y31526191D02*
X7085714Y31526191D01*
X6942857Y32026191D02*
X6942857Y31526191D01*
X7252380Y32026191D02*
X7252380Y31526191D01*
X7466666Y32026191D02*
X7466666Y31764286D01*
X7442857Y31716667D01*
X7395238Y31692858D01*
X7323809Y31692858D01*
X7276190Y31716667D01*
X7252380Y31740477D01*
X7704761Y32026191D02*
X7704761Y31692858D01*
X7704761Y31788096D02*
X7728571Y31740477D01*
X7752380Y31716667D01*
X7800000Y31692858D01*
X7847619Y31692858D01*
X8204761Y32002381D02*
X8157142Y32026191D01*
X8061904Y32026191D01*
X8014285Y32002381D01*
X7990476Y31954762D01*
X7990476Y31764286D01*
X8014285Y31716667D01*
X8061904Y31692858D01*
X8157142Y31692858D01*
X8204761Y31716667D01*
X8228571Y31764286D01*
X8228571Y31811905D01*
X7990476Y31859524D01*
X8419047Y32002381D02*
X8466666Y32026191D01*
X8561904Y32026191D01*
X8609523Y32002381D01*
X8633333Y31954762D01*
X8633333Y31930953D01*
X8609523Y31883334D01*
X8561904Y31859524D01*
X8490476Y31859524D01*
X8442857Y31835715D01*
X8419047Y31788096D01*
X8419047Y31764286D01*
X8442857Y31716667D01*
X8490476Y31692858D01*
X8561904Y31692858D01*
X8609523Y31716667D01*
X8847619Y32026191D02*
X8847619Y31526191D01*
X9061904Y32026191D02*
X9061904Y31764286D01*
X9038095Y31716667D01*
X8990476Y31692858D01*
X8919047Y31692858D01*
X8871428Y31716667D01*
X8847619Y31740477D01*
X9371428Y32026191D02*
X9323809Y32002381D01*
X9300000Y31978572D01*
X9276190Y31930953D01*
X9276190Y31788096D01*
X9300000Y31740477D01*
X9323809Y31716667D01*
X9371428Y31692858D01*
X9442857Y31692858D01*
X9490476Y31716667D01*
X9514285Y31740477D01*
X9538095Y31788096D01*
X9538095Y31930953D01*
X9514285Y31978572D01*
X9490476Y32002381D01*
X9442857Y32026191D01*
X9371428Y32026191D01*
X9823809Y32026191D02*
X9776190Y32002381D01*
X9752380Y31954762D01*
X9752380Y31526191D01*
X10228571Y32026191D02*
X10228571Y31526191D01*
X10228571Y32002381D02*
X10180952Y32026191D01*
X10085714Y32026191D01*
X10038095Y32002381D01*
X10014285Y31978572D01*
X9990476Y31930953D01*
X9990476Y31788096D01*
X10014285Y31740477D01*
X10038095Y31716667D01*
X10085714Y31692858D01*
X10180952Y31692858D01*
X10228571Y31716667D01*
X25304761Y31976191D02*
X25304761Y31476191D01*
X25423809Y31476191D01*
X25495238Y31500000D01*
X25542857Y31547620D01*
X25566666Y31595239D01*
X25590476Y31690477D01*
X25590476Y31761905D01*
X25566666Y31857143D01*
X25542857Y31904762D01*
X25495238Y31952381D01*
X25423809Y31976191D01*
X25304761Y31976191D01*
X25780952Y31833334D02*
X26019047Y31833334D01*
X25733333Y31976191D02*
X25900000Y31476191D01*
X26066666Y31976191D01*
X26519047Y31928572D02*
X26495238Y31952381D01*
X26423809Y31976191D01*
X26376190Y31976191D01*
X26304761Y31952381D01*
X26257142Y31904762D01*
X26233333Y31857143D01*
X26209523Y31761905D01*
X26209523Y31690477D01*
X26233333Y31595239D01*
X26257142Y31547620D01*
X26304761Y31500000D01*
X26376190Y31476191D01*
X26423809Y31476191D01*
X26495238Y31500000D01*
X26519047Y31523810D01*
D11*
X116909523Y30153572D02*
X117052380Y30201191D01*
X117100000Y30248810D01*
X117147619Y30344048D01*
X117147619Y30486905D01*
X117100000Y30582143D01*
X117052380Y30629762D01*
X116957142Y30677381D01*
X116576190Y30677381D01*
X116576190Y29677381D01*
X116909523Y29677381D01*
X117004761Y29725000D01*
X117052380Y29772620D01*
X117100000Y29867858D01*
X117100000Y29963096D01*
X117052380Y30058334D01*
X117004761Y30105953D01*
X116909523Y30153572D01*
X116576190Y30153572D01*
X118004761Y30677381D02*
X118004761Y30153572D01*
X117957142Y30058334D01*
X117861904Y30010715D01*
X117671428Y30010715D01*
X117576190Y30058334D01*
X118004761Y30629762D02*
X117909523Y30677381D01*
X117671428Y30677381D01*
X117576190Y30629762D01*
X117528571Y30534524D01*
X117528571Y30439286D01*
X117576190Y30344048D01*
X117671428Y30296429D01*
X117909523Y30296429D01*
X118004761Y30248810D01*
X118433333Y30629762D02*
X118528571Y30677381D01*
X118719047Y30677381D01*
X118814285Y30629762D01*
X118861904Y30534524D01*
X118861904Y30486905D01*
X118814285Y30391667D01*
X118719047Y30344048D01*
X118576190Y30344048D01*
X118480952Y30296429D01*
X118433333Y30201191D01*
X118433333Y30153572D01*
X118480952Y30058334D01*
X118576190Y30010715D01*
X118719047Y30010715D01*
X118814285Y30058334D01*
X119671428Y30629762D02*
X119576190Y30677381D01*
X119385714Y30677381D01*
X119290476Y30629762D01*
X119242857Y30534524D01*
X119242857Y30153572D01*
X119290476Y30058334D01*
X119385714Y30010715D01*
X119576190Y30010715D01*
X119671428Y30058334D01*
X119719047Y30153572D01*
X119719047Y30248810D01*
X119242857Y30344048D01*
X120576190Y30677381D02*
X120576190Y29677381D01*
X120576190Y30629762D02*
X120480952Y30677381D01*
X120290476Y30677381D01*
X120195238Y30629762D01*
X120147619Y30582143D01*
X120100000Y30486905D01*
X120100000Y30201191D01*
X120147619Y30105953D01*
X120195238Y30058334D01*
X120290476Y30010715D01*
X120480952Y30010715D01*
X120576190Y30058334D01*
X121957142Y30677381D02*
X121861904Y30629762D01*
X121814285Y30582143D01*
X121766666Y30486905D01*
X121766666Y30201191D01*
X121814285Y30105953D01*
X121861904Y30058334D01*
X121957142Y30010715D01*
X122100000Y30010715D01*
X122195238Y30058334D01*
X122242857Y30105953D01*
X122290476Y30201191D01*
X122290476Y30486905D01*
X122242857Y30582143D01*
X122195238Y30629762D01*
X122100000Y30677381D01*
X121957142Y30677381D01*
X122719047Y30010715D02*
X122719047Y30677381D01*
X122719047Y30105953D02*
X122766666Y30058334D01*
X122861904Y30010715D01*
X123004761Y30010715D01*
X123100000Y30058334D01*
X123147619Y30153572D01*
X123147619Y30677381D01*
X124528571Y30677381D02*
X124433333Y30629762D01*
X124385714Y30582143D01*
X124338095Y30486905D01*
X124338095Y30201191D01*
X124385714Y30105953D01*
X124433333Y30058334D01*
X124528571Y30010715D01*
X124671428Y30010715D01*
X124766666Y30058334D01*
X124814285Y30105953D01*
X124861904Y30201191D01*
X124861904Y30486905D01*
X124814285Y30582143D01*
X124766666Y30629762D01*
X124671428Y30677381D01*
X124528571Y30677381D01*
X125290476Y30677381D02*
X125290476Y30010715D01*
X125290476Y30201191D02*
X125338095Y30105953D01*
X125385714Y30058334D01*
X125480952Y30010715D01*
X125576190Y30010715D01*
X125909523Y30677381D02*
X125909523Y30010715D01*
X125909523Y29677381D02*
X125861904Y29725000D01*
X125909523Y29772620D01*
X125957142Y29725000D01*
X125909523Y29677381D01*
X125909523Y29772620D01*
X126814285Y30010715D02*
X126814285Y30820239D01*
X126766666Y30915477D01*
X126719047Y30963096D01*
X126623809Y31010715D01*
X126480952Y31010715D01*
X126385714Y30963096D01*
X126814285Y30629762D02*
X126719047Y30677381D01*
X126528571Y30677381D01*
X126433333Y30629762D01*
X126385714Y30582143D01*
X126338095Y30486905D01*
X126338095Y30201191D01*
X126385714Y30105953D01*
X126433333Y30058334D01*
X126528571Y30010715D01*
X126719047Y30010715D01*
X126814285Y30058334D01*
X127290476Y30677381D02*
X127290476Y30010715D01*
X127290476Y29677381D02*
X127242857Y29725000D01*
X127290476Y29772620D01*
X127338095Y29725000D01*
X127290476Y29677381D01*
X127290476Y29772620D01*
X127766666Y30010715D02*
X127766666Y30677381D01*
X127766666Y30105953D02*
X127814285Y30058334D01*
X127909523Y30010715D01*
X128052380Y30010715D01*
X128147619Y30058334D01*
X128195238Y30153572D01*
X128195238Y30677381D01*
X129100000Y30677381D02*
X129100000Y30153572D01*
X129052380Y30058334D01*
X128957142Y30010715D01*
X128766666Y30010715D01*
X128671428Y30058334D01*
X129100000Y30629762D02*
X129004761Y30677381D01*
X128766666Y30677381D01*
X128671428Y30629762D01*
X128623809Y30534524D01*
X128623809Y30439286D01*
X128671428Y30344048D01*
X128766666Y30296429D01*
X129004761Y30296429D01*
X129100000Y30248810D01*
X129719047Y30677381D02*
X129623809Y30629762D01*
X129576190Y30534524D01*
X129576190Y29677381D01*
X116909523Y31660715D02*
X117100000Y32327381D01*
X117290476Y31851191D01*
X117480952Y32327381D01*
X117671428Y31660715D01*
X118195238Y32327381D02*
X118100000Y32279762D01*
X118052380Y32232143D01*
X118004761Y32136905D01*
X118004761Y31851191D01*
X118052380Y31755953D01*
X118100000Y31708334D01*
X118195238Y31660715D01*
X118338095Y31660715D01*
X118433333Y31708334D01*
X118480952Y31755953D01*
X118528571Y31851191D01*
X118528571Y32136905D01*
X118480952Y32232143D01*
X118433333Y32279762D01*
X118338095Y32327381D01*
X118195238Y32327381D01*
X118957142Y32327381D02*
X118957142Y31660715D01*
X118957142Y31851191D02*
X119004761Y31755953D01*
X119052380Y31708334D01*
X119147619Y31660715D01*
X119242857Y31660715D01*
X119576190Y32327381D02*
X119576190Y31327381D01*
X119671428Y31946429D02*
X119957142Y32327381D01*
X119957142Y31660715D02*
X119576190Y32041667D01*
X121147619Y32327381D02*
X121147619Y31327381D01*
X121147619Y31708334D02*
X121242857Y31660715D01*
X121433333Y31660715D01*
X121528571Y31708334D01*
X121576190Y31755953D01*
X121623809Y31851191D01*
X121623809Y32136905D01*
X121576190Y32232143D01*
X121528571Y32279762D01*
X121433333Y32327381D01*
X121242857Y32327381D01*
X121147619Y32279762D01*
X121957142Y31660715D02*
X122195238Y32327381D01*
X122433333Y31660715D02*
X122195238Y32327381D01*
X122100000Y32565477D01*
X122052380Y32613096D01*
X121957142Y32660715D01*
X123480952Y32327381D02*
X124004761Y31660715D01*
X123480952Y31660715D02*
X124004761Y32327381D01*
X124290476Y31660715D02*
X124480952Y32327381D01*
X124671428Y31851191D01*
X124861904Y32327381D01*
X125052380Y31660715D01*
X125433333Y32327381D02*
X125433333Y31327381D01*
X125861904Y32327381D02*
X125861904Y31803572D01*
X125814285Y31708334D01*
X125719047Y31660715D01*
X125576190Y31660715D01*
X125480952Y31708334D01*
X125433333Y31755953D01*
X126766666Y32327381D02*
X126766666Y31803572D01*
X126719047Y31708334D01*
X126623809Y31660715D01*
X126433333Y31660715D01*
X126338095Y31708334D01*
X126766666Y32279762D02*
X126671428Y32327381D01*
X126433333Y32327381D01*
X126338095Y32279762D01*
X126290476Y32184524D01*
X126290476Y32089286D01*
X126338095Y31994048D01*
X126433333Y31946429D01*
X126671428Y31946429D01*
X126766666Y31898810D01*
X127100000Y31660715D02*
X127480952Y31660715D01*
X127242857Y31327381D02*
X127242857Y32184524D01*
X127290476Y32279762D01*
X127385714Y32327381D01*
X127480952Y32327381D01*
X127766666Y32279762D02*
X127861904Y32327381D01*
X128052380Y32327381D01*
X128147619Y32279762D01*
X128195238Y32184524D01*
X128195238Y32136905D01*
X128147619Y32041667D01*
X128052380Y31994048D01*
X127909523Y31994048D01*
X127814285Y31946429D01*
X127766666Y31851191D01*
X127766666Y31803572D01*
X127814285Y31708334D01*
X127909523Y31660715D01*
X128052380Y31660715D01*
X128147619Y31708334D01*
X128623809Y32327381D02*
X128623809Y31660715D01*
X128623809Y31327381D02*
X128576190Y31375000D01*
X128623809Y31422620D01*
X128671428Y31375000D01*
X128623809Y31327381D01*
X128623809Y31422620D01*
X128957142Y31660715D02*
X129338095Y31660715D01*
X129100000Y31327381D02*
X129100000Y32184524D01*
X129147619Y32279762D01*
X129242857Y32327381D01*
X129338095Y32327381D01*
X157800000Y18188096D02*
X157847619Y18092858D01*
X157847619Y17950000D01*
X157800000Y17807143D01*
X157704761Y17711905D01*
X157609523Y17664286D01*
X157419047Y17616667D01*
X157276190Y17616667D01*
X157085714Y17664286D01*
X156990476Y17711905D01*
X156895238Y17807143D01*
X156847619Y17950000D01*
X156847619Y18045239D01*
X156895238Y18188096D01*
X156942857Y18235715D01*
X157276190Y18235715D01*
X157276190Y18045239D01*
X156847619Y18664286D02*
X157847619Y18664286D01*
X156847619Y19235715D01*
X157847619Y19235715D01*
X156847619Y19711905D02*
X157847619Y19711905D01*
X157847619Y19950000D01*
X157800000Y20092858D01*
X157704761Y20188096D01*
X157609523Y20235715D01*
X157419047Y20283334D01*
X157276190Y20283334D01*
X157085714Y20235715D01*
X156990476Y20188096D01*
X156895238Y20092858D01*
X156847619Y19950000D01*
X156847619Y19711905D01*
X154347619Y18252381D02*
X154823809Y17919048D01*
X154347619Y17680953D02*
X155347619Y17680953D01*
X155347619Y18061905D01*
X155300000Y18157143D01*
X155252380Y18204762D01*
X155157142Y18252381D01*
X155014285Y18252381D01*
X154919047Y18204762D01*
X154871428Y18157143D01*
X154823809Y18061905D01*
X154823809Y17680953D01*
X154395238Y18633334D02*
X154347619Y18776191D01*
X154347619Y19014286D01*
X154395238Y19109524D01*
X154442857Y19157143D01*
X154538095Y19204762D01*
X154633333Y19204762D01*
X154728571Y19157143D01*
X154776190Y19109524D01*
X154823809Y19014286D01*
X154871428Y18823810D01*
X154919047Y18728572D01*
X154966666Y18680953D01*
X155061904Y18633334D01*
X155157142Y18633334D01*
X155252380Y18680953D01*
X155300000Y18728572D01*
X155347619Y18823810D01*
X155347619Y19061905D01*
X155300000Y19204762D01*
X155347619Y19490477D02*
X155347619Y20061905D01*
X154347619Y19776191D02*
X155347619Y19776191D01*
X50345238Y28232143D02*
X50297619Y28279762D01*
X50154761Y28327381D01*
X50059523Y28327381D01*
X49916666Y28279762D01*
X49821428Y28184524D01*
X49773809Y28089286D01*
X49726190Y27898810D01*
X49726190Y27755953D01*
X49773809Y27565477D01*
X49821428Y27470239D01*
X49916666Y27375000D01*
X50059523Y27327381D01*
X50154761Y27327381D01*
X50297619Y27375000D01*
X50345238Y27422620D01*
X50916666Y28327381D02*
X50821428Y28279762D01*
X50773809Y28232143D01*
X50726190Y28136905D01*
X50726190Y27851191D01*
X50773809Y27755953D01*
X50821428Y27708334D01*
X50916666Y27660715D01*
X51059523Y27660715D01*
X51154761Y27708334D01*
X51202380Y27755953D01*
X51250000Y27851191D01*
X51250000Y28136905D01*
X51202380Y28232143D01*
X51154761Y28279762D01*
X51059523Y28327381D01*
X50916666Y28327381D01*
X51678571Y28327381D02*
X51678571Y27660715D01*
X51678571Y27755953D02*
X51726190Y27708334D01*
X51821428Y27660715D01*
X51964285Y27660715D01*
X52059523Y27708334D01*
X52107142Y27803572D01*
X52107142Y28327381D01*
X52107142Y27803572D02*
X52154761Y27708334D01*
X52250000Y27660715D01*
X52392857Y27660715D01*
X52488095Y27708334D01*
X52535714Y27803572D01*
X52535714Y28327381D01*
X53011904Y27660715D02*
X53011904Y28660715D01*
X53011904Y27708334D02*
X53107142Y27660715D01*
X53297619Y27660715D01*
X53392857Y27708334D01*
X53440476Y27755953D01*
X53488095Y27851191D01*
X53488095Y28136905D01*
X53440476Y28232143D01*
X53392857Y28279762D01*
X53297619Y28327381D01*
X53107142Y28327381D01*
X53011904Y28279762D01*
X54345238Y28327381D02*
X54345238Y27803572D01*
X54297619Y27708334D01*
X54202380Y27660715D01*
X54011904Y27660715D01*
X53916666Y27708334D01*
X54345238Y28279762D02*
X54250000Y28327381D01*
X54011904Y28327381D01*
X53916666Y28279762D01*
X53869047Y28184524D01*
X53869047Y28089286D01*
X53916666Y27994048D01*
X54011904Y27946429D01*
X54250000Y27946429D01*
X54345238Y27898810D01*
X55250000Y28279762D02*
X55154761Y28327381D01*
X54964285Y28327381D01*
X54869047Y28279762D01*
X54821428Y28232143D01*
X54773809Y28136905D01*
X54773809Y27851191D01*
X54821428Y27755953D01*
X54869047Y27708334D01*
X54964285Y27660715D01*
X55154761Y27660715D01*
X55250000Y27708334D01*
X55535714Y27660715D02*
X55916666Y27660715D01*
X55678571Y27327381D02*
X55678571Y28184524D01*
X55726190Y28279762D01*
X55821428Y28327381D01*
X55916666Y28327381D01*
X56250000Y27946429D02*
X57011904Y27946429D01*
X57821428Y27803572D02*
X57964285Y27851191D01*
X58011904Y27898810D01*
X58059523Y27994048D01*
X58059523Y28136905D01*
X58011904Y28232143D01*
X57964285Y28279762D01*
X57869047Y28327381D01*
X57488095Y28327381D01*
X57488095Y27327381D01*
X57821428Y27327381D01*
X57916666Y27375000D01*
X57964285Y27422620D01*
X58011904Y27517858D01*
X58011904Y27613096D01*
X57964285Y27708334D01*
X57916666Y27755953D01*
X57821428Y27803572D01*
X57488095Y27803572D01*
X58869047Y28279762D02*
X58773809Y28327381D01*
X58583333Y28327381D01*
X58488095Y28279762D01*
X58440476Y28184524D01*
X58440476Y27803572D01*
X58488095Y27708334D01*
X58583333Y27660715D01*
X58773809Y27660715D01*
X58869047Y27708334D01*
X58916666Y27803572D01*
X58916666Y27898810D01*
X58440476Y27994048D01*
X59773809Y28327381D02*
X59773809Y27803572D01*
X59726190Y27708334D01*
X59630952Y27660715D01*
X59440476Y27660715D01*
X59345238Y27708334D01*
X59773809Y28279762D02*
X59678571Y28327381D01*
X59440476Y28327381D01*
X59345238Y28279762D01*
X59297619Y28184524D01*
X59297619Y28089286D01*
X59345238Y27994048D01*
X59440476Y27946429D01*
X59678571Y27946429D01*
X59773809Y27898810D01*
X60250000Y28327381D02*
X60250000Y27660715D01*
X60250000Y27755953D02*
X60297619Y27708334D01*
X60392857Y27660715D01*
X60535714Y27660715D01*
X60630952Y27708334D01*
X60678571Y27803572D01*
X60678571Y28327381D01*
X60678571Y27803572D02*
X60726190Y27708334D01*
X60821428Y27660715D01*
X60964285Y27660715D01*
X61059523Y27708334D01*
X61107142Y27803572D01*
X61107142Y28327381D01*
X61535714Y28279762D02*
X61630952Y28327381D01*
X61821428Y28327381D01*
X61916666Y28279762D01*
X61964285Y28184524D01*
X61964285Y28136905D01*
X61916666Y28041667D01*
X61821428Y27994048D01*
X61678571Y27994048D01*
X61583333Y27946429D01*
X61535714Y27851191D01*
X61535714Y27803572D01*
X61583333Y27708334D01*
X61678571Y27660715D01*
X61821428Y27660715D01*
X61916666Y27708334D01*
X62392857Y27660715D02*
X62392857Y28660715D01*
X62392857Y27708334D02*
X62488095Y27660715D01*
X62678571Y27660715D01*
X62773809Y27708334D01*
X62821428Y27755953D01*
X62869047Y27851191D01*
X62869047Y28136905D01*
X62821428Y28232143D01*
X62773809Y28279762D01*
X62678571Y28327381D01*
X62488095Y28327381D01*
X62392857Y28279762D01*
X63297619Y28327381D02*
X63297619Y27660715D01*
X63297619Y27851191D02*
X63345238Y27755953D01*
X63392857Y27708334D01*
X63488095Y27660715D01*
X63583333Y27660715D01*
X63916666Y28327381D02*
X63916666Y27660715D01*
X63916666Y27327381D02*
X63869047Y27375000D01*
X63916666Y27422620D01*
X63964285Y27375000D01*
X63916666Y27327381D01*
X63916666Y27422620D01*
X64392857Y27660715D02*
X64392857Y28327381D01*
X64392857Y27755953D02*
X64440476Y27708334D01*
X64535714Y27660715D01*
X64678571Y27660715D01*
X64773809Y27708334D01*
X64821428Y27803572D01*
X64821428Y28327381D01*
X65726190Y27660715D02*
X65726190Y28470239D01*
X65678571Y28565477D01*
X65630952Y28613096D01*
X65535714Y28660715D01*
X65392857Y28660715D01*
X65297619Y28613096D01*
X65726190Y28279762D02*
X65630952Y28327381D01*
X65440476Y28327381D01*
X65345238Y28279762D01*
X65297619Y28232143D01*
X65250000Y28136905D01*
X65250000Y27851191D01*
X65297619Y27755953D01*
X65345238Y27708334D01*
X65440476Y27660715D01*
X65630952Y27660715D01*
X65726190Y27708334D01*
X56059523Y29977381D02*
X55726190Y29501191D01*
X55488095Y29977381D02*
X55488095Y28977381D01*
X55869047Y28977381D01*
X55964285Y29025000D01*
X56011904Y29072620D01*
X56059523Y29167858D01*
X56059523Y29310715D01*
X56011904Y29405953D01*
X55964285Y29453572D01*
X55869047Y29501191D01*
X55488095Y29501191D01*
X56869047Y29929762D02*
X56773809Y29977381D01*
X56583333Y29977381D01*
X56488095Y29929762D01*
X56440476Y29834524D01*
X56440476Y29453572D01*
X56488095Y29358334D01*
X56583333Y29310715D01*
X56773809Y29310715D01*
X56869047Y29358334D01*
X56916666Y29453572D01*
X56916666Y29548810D01*
X56440476Y29644048D01*
X57250000Y29310715D02*
X57488095Y29977381D01*
X57726190Y29310715D01*
X58630952Y29977381D02*
X58059523Y29977381D01*
X58345238Y29977381D02*
X58345238Y28977381D01*
X58250000Y29120239D01*
X58154761Y29215477D01*
X58059523Y29263096D01*
X59059523Y29882143D02*
X59107142Y29929762D01*
X59059523Y29977381D01*
X59011904Y29929762D01*
X59059523Y29882143D01*
X59059523Y29977381D01*
X59488095Y29072620D02*
X59535714Y29025000D01*
X59630952Y28977381D01*
X59869047Y28977381D01*
X59964285Y29025000D01*
X60011904Y29072620D01*
X60059523Y29167858D01*
X60059523Y29263096D01*
X60011904Y29405953D01*
X59440476Y29977381D01*
X60059523Y29977381D01*
X84407023Y25257143D02*
X84359404Y25304762D01*
X84216547Y25352381D01*
X84121309Y25352381D01*
X83978452Y25304762D01*
X83883214Y25209524D01*
X83835595Y25114286D01*
X83787976Y24923810D01*
X83787976Y24780953D01*
X83835595Y24590477D01*
X83883214Y24495239D01*
X83978452Y24400000D01*
X84121309Y24352381D01*
X84216547Y24352381D01*
X84359404Y24400000D01*
X84407023Y24447620D01*
X84978452Y25352381D02*
X84883214Y25304762D01*
X84835595Y25257143D01*
X84787976Y25161905D01*
X84787976Y24876191D01*
X84835595Y24780953D01*
X84883214Y24733334D01*
X84978452Y24685715D01*
X85121309Y24685715D01*
X85216547Y24733334D01*
X85264166Y24780953D01*
X85311785Y24876191D01*
X85311785Y25161905D01*
X85264166Y25257143D01*
X85216547Y25304762D01*
X85121309Y25352381D01*
X84978452Y25352381D01*
X85740357Y24685715D02*
X85740357Y25352381D01*
X85740357Y24780953D02*
X85787976Y24733334D01*
X85883214Y24685715D01*
X86026071Y24685715D01*
X86121309Y24733334D01*
X86168928Y24828572D01*
X86168928Y25352381D01*
X86502261Y24685715D02*
X86883214Y24685715D01*
X86645119Y24352381D02*
X86645119Y25209524D01*
X86692738Y25304762D01*
X86787976Y25352381D01*
X86883214Y25352381D01*
X87216547Y25352381D02*
X87216547Y24685715D01*
X87216547Y24876191D02*
X87264166Y24780953D01*
X87311785Y24733334D01*
X87407023Y24685715D01*
X87502261Y24685715D01*
X87835595Y25352381D02*
X87835595Y24685715D01*
X87835595Y24352381D02*
X87787976Y24400000D01*
X87835595Y24447620D01*
X87883214Y24400000D01*
X87835595Y24352381D01*
X87835595Y24447620D01*
X88311785Y25352381D02*
X88311785Y24352381D01*
X88311785Y24733334D02*
X88407023Y24685715D01*
X88597500Y24685715D01*
X88692738Y24733334D01*
X88740357Y24780953D01*
X88787976Y24876191D01*
X88787976Y25161905D01*
X88740357Y25257143D01*
X88692738Y25304762D01*
X88597500Y25352381D01*
X88407023Y25352381D01*
X88311785Y25304762D01*
X89645119Y24685715D02*
X89645119Y25352381D01*
X89216547Y24685715D02*
X89216547Y25209524D01*
X89264166Y25304762D01*
X89359404Y25352381D01*
X89502261Y25352381D01*
X89597500Y25304762D01*
X89645119Y25257143D01*
X89978452Y24685715D02*
X90359404Y24685715D01*
X90121309Y24352381D02*
X90121309Y25209524D01*
X90168928Y25304762D01*
X90264166Y25352381D01*
X90359404Y25352381D01*
X90835595Y25352381D02*
X90740357Y25304762D01*
X90692738Y25257143D01*
X90645119Y25161905D01*
X90645119Y24876191D01*
X90692738Y24780953D01*
X90740357Y24733334D01*
X90835595Y24685715D01*
X90978452Y24685715D01*
X91073690Y24733334D01*
X91121309Y24780953D01*
X91168928Y24876191D01*
X91168928Y25161905D01*
X91121309Y25257143D01*
X91073690Y25304762D01*
X90978452Y25352381D01*
X90835595Y25352381D01*
X91597500Y25352381D02*
X91597500Y24685715D01*
X91597500Y24876191D02*
X91645119Y24780953D01*
X91692738Y24733334D01*
X91787976Y24685715D01*
X91883214Y24685715D01*
X92168928Y25304762D02*
X92264166Y25352381D01*
X92454642Y25352381D01*
X92549880Y25304762D01*
X92597500Y25209524D01*
X92597500Y25161905D01*
X92549880Y25066667D01*
X92454642Y25019048D01*
X92311785Y25019048D01*
X92216547Y24971429D01*
X92168928Y24876191D01*
X92168928Y24828572D01*
X92216547Y24733334D01*
X92311785Y24685715D01*
X92454642Y24685715D01*
X92549880Y24733334D01*
X93026071Y25257143D02*
X93073690Y25304762D01*
X93026071Y25352381D01*
X92978452Y25304762D01*
X93026071Y25257143D01*
X93026071Y25352381D01*
X93026071Y24733334D02*
X93073690Y24780953D01*
X93026071Y24828572D01*
X92978452Y24780953D01*
X93026071Y24733334D01*
X93026071Y24828572D01*
X85502261Y26002381D02*
X85502261Y26240477D01*
X85264166Y26145239D02*
X85502261Y26240477D01*
X85740357Y26145239D01*
X85359404Y26430953D02*
X85502261Y26240477D01*
X85645119Y26430953D01*
X86883214Y26335715D02*
X86883214Y27335715D01*
X86883214Y26383334D02*
X86978452Y26335715D01*
X87168928Y26335715D01*
X87264166Y26383334D01*
X87311785Y26430953D01*
X87359404Y26526191D01*
X87359404Y26811905D01*
X87311785Y26907143D01*
X87264166Y26954762D01*
X87168928Y27002381D01*
X86978452Y27002381D01*
X86883214Y26954762D01*
X88216547Y27002381D02*
X88216547Y26478572D01*
X88168928Y26383334D01*
X88073690Y26335715D01*
X87883214Y26335715D01*
X87787976Y26383334D01*
X88216547Y26954762D02*
X88121309Y27002381D01*
X87883214Y27002381D01*
X87787976Y26954762D01*
X87740357Y26859524D01*
X87740357Y26764286D01*
X87787976Y26669048D01*
X87883214Y26621429D01*
X88121309Y26621429D01*
X88216547Y26573810D01*
X88692738Y26335715D02*
X88692738Y27002381D01*
X88692738Y26430953D02*
X88740357Y26383334D01*
X88835595Y26335715D01*
X88978452Y26335715D01*
X89073690Y26383334D01*
X89121309Y26478572D01*
X89121309Y27002381D01*
X90026071Y27002381D02*
X90026071Y26002381D01*
X90026071Y26954762D02*
X89930833Y27002381D01*
X89740357Y27002381D01*
X89645119Y26954762D01*
X89597500Y26907143D01*
X89549880Y26811905D01*
X89549880Y26526191D01*
X89597500Y26430953D01*
X89645119Y26383334D01*
X89740357Y26335715D01*
X89930833Y26335715D01*
X90026071Y26383334D01*
X90502261Y27002381D02*
X90502261Y26335715D01*
X90502261Y26526191D02*
X90549880Y26430953D01*
X90597500Y26383334D01*
X90692738Y26335715D01*
X90787976Y26335715D01*
X91502261Y26954762D02*
X91407023Y27002381D01*
X91216547Y27002381D01*
X91121309Y26954762D01*
X91073690Y26859524D01*
X91073690Y26478572D01*
X91121309Y26383334D01*
X91216547Y26335715D01*
X91407023Y26335715D01*
X91502261Y26383334D01*
X91549880Y26478572D01*
X91549880Y26573810D01*
X91073690Y26669048D01*
X91883214Y26335715D02*
X92073690Y27002381D01*
X92264166Y26526191D01*
X92454642Y27002381D01*
X92645119Y26335715D01*
X85502261Y27652381D02*
X85502261Y27890477D01*
X85264166Y27795239D02*
X85502261Y27890477D01*
X85740357Y27795239D01*
X85359404Y28080953D02*
X85502261Y27890477D01*
X85645119Y28080953D01*
X87026071Y28652381D02*
X86930833Y28604762D01*
X86883214Y28509524D01*
X86883214Y27652381D01*
X87407023Y28652381D02*
X87407023Y27985715D01*
X87407023Y27652381D02*
X87359404Y27700000D01*
X87407023Y27747620D01*
X87454642Y27700000D01*
X87407023Y27652381D01*
X87407023Y27747620D01*
X87835595Y28604762D02*
X87930833Y28652381D01*
X88121309Y28652381D01*
X88216547Y28604762D01*
X88264166Y28509524D01*
X88264166Y28461905D01*
X88216547Y28366667D01*
X88121309Y28319048D01*
X87978452Y28319048D01*
X87883214Y28271429D01*
X87835595Y28176191D01*
X87835595Y28128572D01*
X87883214Y28033334D01*
X87978452Y27985715D01*
X88121309Y27985715D01*
X88216547Y28033334D01*
X88549880Y27985715D02*
X88930833Y27985715D01*
X88692738Y27652381D02*
X88692738Y28509524D01*
X88740357Y28604762D01*
X88835595Y28652381D01*
X88930833Y28652381D01*
X89407023Y28652381D02*
X89311785Y28604762D01*
X89264166Y28557143D01*
X89216547Y28461905D01*
X89216547Y28176191D01*
X89264166Y28080953D01*
X89311785Y28033334D01*
X89407023Y27985715D01*
X89549880Y27985715D01*
X89645119Y28033334D01*
X89692738Y28080953D01*
X89740357Y28176191D01*
X89740357Y28461905D01*
X89692738Y28557143D01*
X89645119Y28604762D01*
X89549880Y28652381D01*
X89407023Y28652381D01*
X90026071Y27985715D02*
X90407023Y27985715D01*
X90168928Y28652381D02*
X90168928Y27795239D01*
X90216547Y27700000D01*
X90311785Y27652381D01*
X90407023Y27652381D01*
X90883214Y28652381D02*
X90787976Y28604762D01*
X90740357Y28557143D01*
X90692738Y28461905D01*
X90692738Y28176191D01*
X90740357Y28080953D01*
X90787976Y28033334D01*
X90883214Y27985715D01*
X91026071Y27985715D01*
X91121309Y28033334D01*
X91168928Y28080953D01*
X91216547Y28176191D01*
X91216547Y28461905D01*
X91168928Y28557143D01*
X91121309Y28604762D01*
X91026071Y28652381D01*
X90883214Y28652381D01*
X91645119Y27985715D02*
X91645119Y28985715D01*
X91645119Y28033334D02*
X91740357Y27985715D01*
X91930833Y27985715D01*
X92026071Y28033334D01*
X92073690Y28080953D01*
X92121309Y28176191D01*
X92121309Y28461905D01*
X92073690Y28557143D01*
X92026071Y28604762D01*
X91930833Y28652381D01*
X91740357Y28652381D01*
X91645119Y28604762D01*
X92407023Y27985715D02*
X92787976Y27985715D01*
X92549880Y27652381D02*
X92549880Y28509524D01*
X92597500Y28604762D01*
X92692738Y28652381D01*
X92787976Y28652381D01*
X93121309Y28652381D02*
X93121309Y27985715D01*
X93121309Y27652381D02*
X93073690Y27700000D01*
X93121309Y27747620D01*
X93168928Y27700000D01*
X93121309Y27652381D01*
X93121309Y27747620D01*
X93740357Y28652381D02*
X93645119Y28604762D01*
X93597500Y28557143D01*
X93549880Y28461905D01*
X93549880Y28176191D01*
X93597500Y28080953D01*
X93645119Y28033334D01*
X93740357Y27985715D01*
X93883214Y27985715D01*
X93978452Y28033334D01*
X94026071Y28080953D01*
X94073690Y28176191D01*
X94073690Y28461905D01*
X94026071Y28557143D01*
X93978452Y28604762D01*
X93883214Y28652381D01*
X93740357Y28652381D01*
X94502261Y27985715D02*
X94502261Y28652381D01*
X94502261Y28080953D02*
X94549880Y28033334D01*
X94645119Y27985715D01*
X94787976Y27985715D01*
X94883214Y28033334D01*
X94930833Y28128572D01*
X94930833Y28652381D01*
X95359404Y28604762D02*
X95454642Y28652381D01*
X95645119Y28652381D01*
X95740357Y28604762D01*
X95787976Y28509524D01*
X95787976Y28461905D01*
X95740357Y28366667D01*
X95645119Y28319048D01*
X95502261Y28319048D01*
X95407023Y28271429D01*
X95359404Y28176191D01*
X95359404Y28128572D01*
X95407023Y28033334D01*
X95502261Y27985715D01*
X95645119Y27985715D01*
X95740357Y28033334D01*
X85502261Y29302381D02*
X85502261Y29540477D01*
X85264166Y29445239D02*
X85502261Y29540477D01*
X85740357Y29445239D01*
X85359404Y29730953D02*
X85502261Y29540477D01*
X85645119Y29730953D01*
X86883214Y30302381D02*
X86883214Y29302381D01*
X86978452Y29921429D02*
X87264166Y30302381D01*
X87264166Y29635715D02*
X86883214Y30016667D01*
X87692738Y30302381D02*
X87692738Y29635715D01*
X87692738Y29730953D02*
X87740357Y29683334D01*
X87835595Y29635715D01*
X87978452Y29635715D01*
X88073690Y29683334D01*
X88121309Y29778572D01*
X88121309Y30302381D01*
X88121309Y29778572D02*
X88168928Y29683334D01*
X88264166Y29635715D01*
X88407023Y29635715D01*
X88502261Y29683334D01*
X88549880Y29778572D01*
X88549880Y30302381D01*
X89026071Y29635715D02*
X89026071Y30302381D01*
X89026071Y29730953D02*
X89073690Y29683334D01*
X89168928Y29635715D01*
X89311785Y29635715D01*
X89407023Y29683334D01*
X89454642Y29778572D01*
X89454642Y30302381D01*
X90073690Y30302381D02*
X89978452Y30254762D01*
X89930833Y30207143D01*
X89883214Y30111905D01*
X89883214Y29826191D01*
X89930833Y29730953D01*
X89978452Y29683334D01*
X90073690Y29635715D01*
X90216547Y29635715D01*
X90311785Y29683334D01*
X90359404Y29730953D01*
X90407023Y29826191D01*
X90407023Y30111905D01*
X90359404Y30207143D01*
X90311785Y30254762D01*
X90216547Y30302381D01*
X90073690Y30302381D01*
X90740357Y29635715D02*
X90978452Y30302381D01*
X91216547Y29635715D01*
X91549880Y29397620D02*
X91597500Y29350000D01*
X91692738Y29302381D01*
X91930833Y29302381D01*
X92026071Y29350000D01*
X92073690Y29397620D01*
X92121309Y29492858D01*
X92121309Y29588096D01*
X92073690Y29730953D01*
X91502261Y30302381D01*
X92121309Y30302381D01*
X92740357Y29302381D02*
X92835595Y29302381D01*
X92930833Y29350000D01*
X92978452Y29397620D01*
X93026071Y29492858D01*
X93073690Y29683334D01*
X93073690Y29921429D01*
X93026071Y30111905D01*
X92978452Y30207143D01*
X92930833Y30254762D01*
X92835595Y30302381D01*
X92740357Y30302381D01*
X92645119Y30254762D01*
X92597500Y30207143D01*
X92549880Y30111905D01*
X92502261Y29921429D01*
X92502261Y29683334D01*
X92549880Y29492858D01*
X92597500Y29397620D01*
X92645119Y29350000D01*
X92740357Y29302381D01*
X94026071Y30302381D02*
X93454642Y30302381D01*
X93740357Y30302381D02*
X93740357Y29302381D01*
X93645119Y29445239D01*
X93549880Y29540477D01*
X93454642Y29588096D01*
X94359404Y29302381D02*
X95026071Y29302381D01*
X94597500Y30302381D01*
X85502261Y30952381D02*
X85502261Y31190477D01*
X85264166Y31095239D02*
X85502261Y31190477D01*
X85740357Y31095239D01*
X85359404Y31380953D02*
X85502261Y31190477D01*
X85645119Y31380953D01*
X86740357Y31285715D02*
X87121309Y31285715D01*
X86883214Y30952381D02*
X86883214Y31809524D01*
X86930833Y31904762D01*
X87026071Y31952381D01*
X87121309Y31952381D01*
X87835595Y31904762D02*
X87740357Y31952381D01*
X87549880Y31952381D01*
X87454642Y31904762D01*
X87407023Y31809524D01*
X87407023Y31428572D01*
X87454642Y31333334D01*
X87549880Y31285715D01*
X87740357Y31285715D01*
X87835595Y31333334D01*
X87883214Y31428572D01*
X87883214Y31523810D01*
X87407023Y31619048D01*
X88311785Y31285715D02*
X88311785Y31952381D01*
X88311785Y31380953D02*
X88359404Y31333334D01*
X88454642Y31285715D01*
X88597500Y31285715D01*
X88692738Y31333334D01*
X88740357Y31428572D01*
X88740357Y31952381D01*
X89073690Y31285715D02*
X89454642Y31285715D01*
X89216547Y30952381D02*
X89216547Y31809524D01*
X89264166Y31904762D01*
X89359404Y31952381D01*
X89454642Y31952381D01*
X90216547Y31952381D02*
X90216547Y31428572D01*
X90168928Y31333334D01*
X90073690Y31285715D01*
X89883214Y31285715D01*
X89787976Y31333334D01*
X90216547Y31904762D02*
X90121309Y31952381D01*
X89883214Y31952381D01*
X89787976Y31904762D01*
X89740357Y31809524D01*
X89740357Y31714286D01*
X89787976Y31619048D01*
X89883214Y31571429D01*
X90121309Y31571429D01*
X90216547Y31523810D01*
X90549880Y31285715D02*
X90930833Y31285715D01*
X90692738Y30952381D02*
X90692738Y31809524D01*
X90740357Y31904762D01*
X90835595Y31952381D01*
X90930833Y31952381D01*
X91407023Y31952381D02*
X91311785Y31904762D01*
X91264166Y31857143D01*
X91216547Y31761905D01*
X91216547Y31476191D01*
X91264166Y31380953D01*
X91311785Y31333334D01*
X91407023Y31285715D01*
X91549880Y31285715D01*
X91645119Y31333334D01*
X91692738Y31380953D01*
X91740357Y31476191D01*
X91740357Y31761905D01*
X91692738Y31857143D01*
X91645119Y31904762D01*
X91549880Y31952381D01*
X91407023Y31952381D01*
X92168928Y31952381D02*
X92168928Y31285715D01*
X92168928Y31476191D02*
X92216547Y31380953D01*
X92264166Y31333334D01*
X92359404Y31285715D01*
X92454642Y31285715D01*
X2990476Y28732143D02*
X2942857Y28779762D01*
X2800000Y28827381D01*
X2704761Y28827381D01*
X2561904Y28779762D01*
X2466666Y28684524D01*
X2419047Y28589286D01*
X2371428Y28398810D01*
X2371428Y28255953D01*
X2419047Y28065477D01*
X2466666Y27970239D01*
X2561904Y27875000D01*
X2704761Y27827381D01*
X2800000Y27827381D01*
X2942857Y27875000D01*
X2990476Y27922620D01*
X3419047Y28827381D02*
X3419047Y27827381D01*
X3419047Y28303572D02*
X3990476Y28303572D01*
X3990476Y28827381D02*
X3990476Y27827381D01*
X4419047Y28541667D02*
X4895238Y28541667D01*
X4323809Y28827381D02*
X4657142Y27827381D01*
X4990476Y28827381D01*
X5276190Y28779762D02*
X5419047Y28827381D01*
X5657142Y28827381D01*
X5752380Y28779762D01*
X5800000Y28732143D01*
X5847619Y28636905D01*
X5847619Y28541667D01*
X5800000Y28446429D01*
X5752380Y28398810D01*
X5657142Y28351191D01*
X5466666Y28303572D01*
X5371428Y28255953D01*
X5323809Y28208334D01*
X5276190Y28113096D01*
X5276190Y28017858D01*
X5323809Y27922620D01*
X5371428Y27875000D01*
X5466666Y27827381D01*
X5704761Y27827381D01*
X5847619Y27875000D01*
X6228571Y28779762D02*
X6371428Y28827381D01*
X6609523Y28827381D01*
X6704761Y28779762D01*
X6752380Y28732143D01*
X6800000Y28636905D01*
X6800000Y28541667D01*
X6752380Y28446429D01*
X6704761Y28398810D01*
X6609523Y28351191D01*
X6419047Y28303572D01*
X6323809Y28255953D01*
X6276190Y28208334D01*
X6228571Y28113096D01*
X6228571Y28017858D01*
X6276190Y27922620D01*
X6323809Y27875000D01*
X6419047Y27827381D01*
X6657142Y27827381D01*
X6800000Y27875000D01*
X7228571Y28827381D02*
X7228571Y27827381D01*
X7657142Y28779762D02*
X7800000Y28827381D01*
X8038095Y28827381D01*
X8133333Y28779762D01*
X8180952Y28732143D01*
X8228571Y28636905D01*
X8228571Y28541667D01*
X8180952Y28446429D01*
X8133333Y28398810D01*
X8038095Y28351191D01*
X7847619Y28303572D01*
X7752380Y28255953D01*
X7704761Y28208334D01*
X7657142Y28113096D01*
X7657142Y28017858D01*
X7704761Y27922620D01*
X7752380Y27875000D01*
X7847619Y27827381D01*
X8085714Y27827381D01*
X8228571Y27875000D01*
X4538095Y29525000D02*
X4442857Y29477381D01*
X4300000Y29477381D01*
X4157142Y29525000D01*
X4061904Y29620239D01*
X4014285Y29715477D01*
X3966666Y29905953D01*
X3966666Y30048810D01*
X4014285Y30239286D01*
X4061904Y30334524D01*
X4157142Y30429762D01*
X4300000Y30477381D01*
X4395238Y30477381D01*
X4538095Y30429762D01*
X4585714Y30382143D01*
X4585714Y30048810D01*
X4395238Y30048810D01*
X5014285Y30477381D02*
X5014285Y29477381D01*
X5585714Y30477381D01*
X5585714Y29477381D01*
X6061904Y30477381D02*
X6061904Y29477381D01*
X6300000Y29477381D01*
X6442857Y29525000D01*
X6538095Y29620239D01*
X6585714Y29715477D01*
X6633333Y29905953D01*
X6633333Y30048810D01*
X6585714Y30239286D01*
X6538095Y30334524D01*
X6442857Y30429762D01*
X6300000Y30477381D01*
X6061904Y30477381D01*
D12*
X150187760Y5180080D02*
X150187760Y3230080D01*
X150187760Y5180080D02*
X150187760Y7130080D01*
X141317760Y5180080D02*
X141317760Y3230080D01*
X141317760Y5180080D02*
X141317760Y8630080D01*
X151113360Y5276968D02*
X151113360Y5799472D01*
X152533360Y5276968D02*
X152533360Y5799472D01*
X154550000Y2425000D02*
G75*
G03*
X154550000Y2425000I-700000J0D01*
G01*
X138700000Y1175000D02*
G75*
G03*
X138700000Y1175000I-700000J0D01*
G01*
X33368880Y15627100D02*
X33368880Y18227100D01*
X35968880Y15627100D02*
X33368880Y15627100D01*
X41108880Y13027100D02*
X41108880Y18227100D01*
X33368880Y18227100D02*
X41108880Y18227100D01*
X35968880Y13027100D02*
X41108880Y13027100D01*
X34698880Y13027100D02*
X33368880Y13027100D01*
X33368880Y13027100D02*
X33368880Y14357100D01*
X35968880Y13027100D02*
X35968880Y15627100D01*
D11*
X31556900Y18343380D02*
X31556900Y563380D01*
X31556900Y563380D02*
X1076900Y563380D01*
X1076900Y563380D02*
X1076900Y5643380D01*
X1076900Y5643380D02*
X-1463100Y5643380D01*
X-1463100Y5643380D02*
X-1463100Y13263380D01*
X-1463100Y13263380D02*
X1076900Y13263380D01*
X1076900Y13263380D02*
X1076900Y18343380D01*
X1076900Y18343380D02*
X31556900Y18343380D01*
D12*
X29138748Y8615000D02*
X29661252Y8615000D01*
X29138748Y10035000D02*
X29661252Y10035000D01*
X29661252Y14035000D02*
X29138748Y14035000D01*
X29661252Y12615000D02*
X29138748Y12615000D01*
D13*
X162400000Y1850000D02*
G75*
G03*
X162400000Y1850000I-2000000J0D01*
G01*
D12*
X29138748Y10615000D02*
X29661252Y10615000D01*
X29138748Y12035000D02*
X29661252Y12035000D01*
X140442960Y4958732D02*
X140442960Y4436228D01*
X139022960Y4958732D02*
X139022960Y4436228D01*
X134238572Y2130740D02*
X133716068Y2130740D01*
X134238572Y3550740D02*
X133716068Y3550740D01*
X136582020Y4807068D02*
X136582020Y5329572D01*
X138002020Y4807068D02*
X138002020Y5329572D01*
X159492820Y10011528D02*
X159492820Y10534032D01*
X160912820Y10011528D02*
X160912820Y10534032D01*
X157186500Y10005288D02*
X157186500Y10527792D01*
X158606500Y10005288D02*
X158606500Y10527792D01*
X138321088Y8841560D02*
X138843592Y8841560D01*
X138321088Y7421560D02*
X138843592Y7421560D01*
X115492540Y5827412D02*
X115492540Y5304908D01*
X114072540Y5827412D02*
X114072540Y5304908D01*
X82991720Y5827412D02*
X82991720Y5304908D01*
X81571720Y5827412D02*
X81571720Y5304908D01*
X48252140Y5827412D02*
X48252140Y5304908D01*
X46832140Y5827412D02*
X46832140Y5304908D01*
X130172032Y2130740D02*
X129649528Y2130740D01*
X130172032Y3550740D02*
X129649528Y3550740D01*
X94965780Y5596640D02*
X94965780Y3646640D01*
X94965780Y5596640D02*
X94965780Y7546640D01*
X84845780Y5596640D02*
X84845780Y3646640D01*
X84845780Y5596640D02*
X84845780Y9046640D01*
X153705720Y11891820D02*
X154705720Y11891820D01*
X153705720Y8531820D02*
X154705720Y8531820D01*
X132171380Y4146620D02*
X128721380Y4146620D01*
X132171380Y4146620D02*
X134121380Y4146620D01*
X132171380Y9266620D02*
X130221380Y9266620D01*
X132171380Y9266620D02*
X134121380Y9266620D01*
X116877720Y5596640D02*
X116877720Y9046640D01*
X116877720Y5596640D02*
X116877720Y3646640D01*
X126997720Y5596640D02*
X126997720Y7546640D01*
X126997720Y5596640D02*
X126997720Y3646640D01*
X50499900Y5596640D02*
X50499900Y9046640D01*
X50499900Y5596640D02*
X50499900Y3646640D01*
X60619900Y5596640D02*
X60619900Y7546640D01*
X60619900Y5596640D02*
X60619900Y3646640D01*
X12062240Y28019920D02*
X12062240Y29969920D01*
X12062240Y28019920D02*
X12062240Y26069920D01*
X20932240Y28019920D02*
X20932240Y29969920D01*
X20932240Y28019920D02*
X20932240Y24569920D01*
X11136640Y27923032D02*
X11136640Y27400528D01*
X9716640Y27923032D02*
X9716640Y27400528D01*
X9100000Y30775000D02*
G75*
G03*
X9100000Y30775000I-700000J0D01*
G01*
X24950000Y32025000D02*
G75*
G03*
X24950000Y32025000I-700000J0D01*
G01*
X128881120Y17572900D02*
X128881120Y14972900D01*
X126281120Y17572900D02*
X128881120Y17572900D01*
X121141120Y20172900D02*
X121141120Y14972900D01*
X128881120Y14972900D02*
X121141120Y14972900D01*
X126281120Y20172900D02*
X121141120Y20172900D01*
X127551120Y20172900D02*
X128881120Y20172900D01*
X128881120Y20172900D02*
X128881120Y18842900D01*
X126281120Y20172900D02*
X126281120Y17572900D01*
D11*
X130693100Y14856620D02*
X130693100Y32636620D01*
X130693100Y32636620D02*
X161173100Y32636620D01*
X161173100Y32636620D02*
X161173100Y27556620D01*
X161173100Y27556620D02*
X163713100Y27556620D01*
X163713100Y27556620D02*
X163713100Y19936620D01*
X163713100Y19936620D02*
X161173100Y19936620D01*
X161173100Y19936620D02*
X161173100Y14856620D01*
X161173100Y14856620D02*
X130693100Y14856620D01*
D12*
X133111252Y24585000D02*
X132588748Y24585000D01*
X133111252Y23165000D02*
X132588748Y23165000D01*
X132588748Y19165000D02*
X133111252Y19165000D01*
X132588748Y20585000D02*
X133111252Y20585000D01*
D13*
X3850000Y31350000D02*
G75*
G03*
X3850000Y31350000I-2000000J0D01*
G01*
D12*
X133111252Y22585000D02*
X132588748Y22585000D01*
X133111252Y21165000D02*
X132588748Y21165000D01*
X21807040Y28241268D02*
X21807040Y28763772D01*
X23227040Y28241268D02*
X23227040Y28763772D01*
X28011428Y31069260D02*
X28533932Y31069260D01*
X28011428Y29649260D02*
X28533932Y29649260D01*
X25667980Y28392932D02*
X25667980Y27870428D01*
X24247980Y28392932D02*
X24247980Y27870428D01*
X2757180Y23188472D02*
X2757180Y22665968D01*
X1337180Y23188472D02*
X1337180Y22665968D01*
X5063500Y23194712D02*
X5063500Y22672208D01*
X3643500Y23194712D02*
X3643500Y22672208D01*
X23928912Y24358440D02*
X23406408Y24358440D01*
X23928912Y25778440D02*
X23406408Y25778440D01*
X46757460Y27372588D02*
X46757460Y27895092D01*
X48177460Y27372588D02*
X48177460Y27895092D01*
X79258280Y27372588D02*
X79258280Y27895092D01*
X80678280Y27372588D02*
X80678280Y27895092D01*
X113997860Y27372588D02*
X113997860Y27895092D01*
X115417860Y27372588D02*
X115417860Y27895092D01*
X32077968Y31069260D02*
X32600472Y31069260D01*
X32077968Y29649260D02*
X32600472Y29649260D01*
X67284220Y27603360D02*
X67284220Y29553360D01*
X67284220Y27603360D02*
X67284220Y25653360D01*
X77404220Y27603360D02*
X77404220Y29553360D01*
X77404220Y27603360D02*
X77404220Y24153360D01*
X8544280Y21308180D02*
X7544280Y21308180D01*
X8544280Y24668180D02*
X7544280Y24668180D01*
X30078620Y29053380D02*
X33528620Y29053380D01*
X30078620Y29053380D02*
X28128620Y29053380D01*
X30078620Y23933380D02*
X32028620Y23933380D01*
X30078620Y23933380D02*
X28128620Y23933380D01*
X45372280Y27603360D02*
X45372280Y24153360D01*
X45372280Y27603360D02*
X45372280Y29553360D01*
X35252280Y27603360D02*
X35252280Y25653360D01*
X35252280Y27603360D02*
X35252280Y29553360D01*
X111750100Y27603360D02*
X111750100Y24153360D01*
X111750100Y27603360D02*
X111750100Y29553360D01*
X101630100Y27603360D02*
X101630100Y25653360D01*
X101630100Y27603360D02*
X101630100Y29553360D01*
D11*
X150386904Y1447620D02*
X150386904Y638096D01*
X150339285Y542858D01*
X150291666Y495239D01*
X150196428Y447620D01*
X150005952Y447620D01*
X149910714Y495239D01*
X149863095Y542858D01*
X149815476Y638096D01*
X149815476Y1447620D01*
X149386904Y1352381D02*
X149339285Y1400000D01*
X149244047Y1447620D01*
X149005952Y1447620D01*
X148910714Y1400000D01*
X148863095Y1352381D01*
X148815476Y1257143D01*
X148815476Y1161905D01*
X148863095Y1019048D01*
X149434523Y447620D01*
X148815476Y447620D01*
X145969047Y447620D02*
X146445238Y447620D01*
X146445238Y1447620D01*
X145635714Y447620D02*
X145635714Y1447620D01*
X145302380Y733334D01*
X144969047Y1447620D01*
X144969047Y447620D01*
X144588095Y1447620D02*
X143969047Y1447620D01*
X144302380Y1066667D01*
X144159523Y1066667D01*
X144064285Y1019048D01*
X144016666Y971429D01*
X143969047Y876191D01*
X143969047Y638096D01*
X144016666Y542858D01*
X144064285Y495239D01*
X144159523Y447620D01*
X144445238Y447620D01*
X144540476Y495239D01*
X144588095Y542858D01*
X143635714Y1447620D02*
X143016666Y1447620D01*
X143350000Y1066667D01*
X143207142Y1066667D01*
X143111904Y1019048D01*
X143064285Y971429D01*
X143016666Y876191D01*
X143016666Y638096D01*
X143064285Y542858D01*
X143111904Y495239D01*
X143207142Y447620D01*
X143492857Y447620D01*
X143588095Y495239D01*
X143635714Y542858D01*
X142540476Y447620D02*
X142350000Y447620D01*
X142254761Y495239D01*
X142207142Y542858D01*
X142111904Y685715D01*
X142064285Y876191D01*
X142064285Y1257143D01*
X142111904Y1352381D01*
X142159523Y1400000D01*
X142254761Y1447620D01*
X142445238Y1447620D01*
X142540476Y1400000D01*
X142588095Y1352381D01*
X142635714Y1257143D01*
X142635714Y1019048D01*
X142588095Y923810D01*
X142540476Y876191D01*
X142445238Y828572D01*
X142254761Y828572D01*
X142159523Y876191D01*
X142111904Y923810D01*
X142064285Y1019048D01*
X141683333Y733334D02*
X141207142Y733334D01*
X141778571Y447620D02*
X141445238Y1447620D01*
X141111904Y447620D01*
X152005266Y2642858D02*
X152052885Y2595239D01*
X152195742Y2547620D01*
X152290980Y2547620D01*
X152433838Y2595239D01*
X152529076Y2690477D01*
X152576695Y2785715D01*
X152624314Y2976191D01*
X152624314Y3119048D01*
X152576695Y3309524D01*
X152529076Y3404762D01*
X152433838Y3500000D01*
X152290980Y3547620D01*
X152195742Y3547620D01*
X152052885Y3500000D01*
X152005266Y3452381D01*
X151671933Y3547620D02*
X151052885Y3547620D01*
X151386219Y3166667D01*
X151243361Y3166667D01*
X151148123Y3119048D01*
X151100504Y3071429D01*
X151052885Y2976191D01*
X151052885Y2738096D01*
X151100504Y2642858D01*
X151148123Y2595239D01*
X151243361Y2547620D01*
X151529076Y2547620D01*
X151624314Y2595239D01*
X151671933Y2642858D01*
X26466666Y8822620D02*
X26800000Y9298810D01*
X27038095Y8822620D02*
X27038095Y9822620D01*
X26657142Y9822620D01*
X26561904Y9775000D01*
X26514285Y9727381D01*
X26466666Y9632143D01*
X26466666Y9489286D01*
X26514285Y9394048D01*
X26561904Y9346429D01*
X26657142Y9298810D01*
X27038095Y9298810D01*
X25895238Y9394048D02*
X25990476Y9441667D01*
X26038095Y9489286D01*
X26085714Y9584524D01*
X26085714Y9632143D01*
X26038095Y9727381D01*
X25990476Y9775000D01*
X25895238Y9822620D01*
X25704761Y9822620D01*
X25609523Y9775000D01*
X25561904Y9727381D01*
X25514285Y9632143D01*
X25514285Y9584524D01*
X25561904Y9489286D01*
X25609523Y9441667D01*
X25704761Y9394048D01*
X25895238Y9394048D01*
X25990476Y9346429D01*
X26038095Y9298810D01*
X26085714Y9203572D01*
X26085714Y9013096D01*
X26038095Y8917858D01*
X25990476Y8870239D01*
X25895238Y8822620D01*
X25704761Y8822620D01*
X25609523Y8870239D01*
X25561904Y8917858D01*
X25514285Y9013096D01*
X25514285Y9203572D01*
X25561904Y9298810D01*
X25609523Y9346429D01*
X25704761Y9394048D01*
X26466666Y12822620D02*
X26800000Y13298810D01*
X27038095Y12822620D02*
X27038095Y13822620D01*
X26657142Y13822620D01*
X26561904Y13775000D01*
X26514285Y13727381D01*
X26466666Y13632143D01*
X26466666Y13489286D01*
X26514285Y13394048D01*
X26561904Y13346429D01*
X26657142Y13298810D01*
X27038095Y13298810D01*
X25609523Y13822620D02*
X25800000Y13822620D01*
X25895238Y13775000D01*
X25942857Y13727381D01*
X26038095Y13584524D01*
X26085714Y13394048D01*
X26085714Y13013096D01*
X26038095Y12917858D01*
X25990476Y12870239D01*
X25895238Y12822620D01*
X25704761Y12822620D01*
X25609523Y12870239D01*
X25561904Y12917858D01*
X25514285Y13013096D01*
X25514285Y13251191D01*
X25561904Y13346429D01*
X25609523Y13394048D01*
X25704761Y13441667D01*
X25895238Y13441667D01*
X25990476Y13394048D01*
X26038095Y13346429D01*
X26085714Y13251191D01*
X26466666Y10872620D02*
X26800000Y11348810D01*
X27038095Y10872620D02*
X27038095Y11872620D01*
X26657142Y11872620D01*
X26561904Y11825000D01*
X26514285Y11777381D01*
X26466666Y11682143D01*
X26466666Y11539286D01*
X26514285Y11444048D01*
X26561904Y11396429D01*
X26657142Y11348810D01*
X27038095Y11348810D01*
X26133333Y11872620D02*
X25466666Y11872620D01*
X25895238Y10872620D01*
X139891666Y1847620D02*
X140225000Y2323810D01*
X140463095Y1847620D02*
X140463095Y2847620D01*
X140082142Y2847620D01*
X139986904Y2800000D01*
X139939285Y2752381D01*
X139891666Y2657143D01*
X139891666Y2514286D01*
X139939285Y2419048D01*
X139986904Y2371429D01*
X140082142Y2323810D01*
X140463095Y2323810D01*
X138986904Y2847620D02*
X139463095Y2847620D01*
X139510714Y2371429D01*
X139463095Y2419048D01*
X139367857Y2466667D01*
X139129761Y2466667D01*
X139034523Y2419048D01*
X138986904Y2371429D01*
X138939285Y2276191D01*
X138939285Y2038096D01*
X138986904Y1942858D01*
X139034523Y1895239D01*
X139129761Y1847620D01*
X139367857Y1847620D01*
X139463095Y1895239D01*
X139510714Y1942858D01*
X133066666Y872620D02*
X133400000Y1348810D01*
X133638095Y872620D02*
X133638095Y1872620D01*
X133257142Y1872620D01*
X133161904Y1825000D01*
X133114285Y1777381D01*
X133066666Y1682143D01*
X133066666Y1539286D01*
X133114285Y1444048D01*
X133161904Y1396429D01*
X133257142Y1348810D01*
X133638095Y1348810D01*
X132209523Y1539286D02*
X132209523Y872620D01*
X132447619Y1920239D02*
X132685714Y1205953D01*
X132066666Y1205953D01*
X137441666Y2222620D02*
X137775000Y2698810D01*
X138013095Y2222620D02*
X138013095Y3222620D01*
X137632142Y3222620D01*
X137536904Y3175000D01*
X137489285Y3127381D01*
X137441666Y3032143D01*
X137441666Y2889286D01*
X137489285Y2794048D01*
X137536904Y2746429D01*
X137632142Y2698810D01*
X138013095Y2698810D01*
X137108333Y3222620D02*
X136489285Y3222620D01*
X136822619Y2841667D01*
X136679761Y2841667D01*
X136584523Y2794048D01*
X136536904Y2746429D01*
X136489285Y2651191D01*
X136489285Y2413096D01*
X136536904Y2317858D01*
X136584523Y2270239D01*
X136679761Y2222620D01*
X136965476Y2222620D01*
X137060714Y2270239D01*
X137108333Y2317858D01*
X160415206Y7196580D02*
X160748540Y7672770D01*
X160986635Y7196580D02*
X160986635Y8196580D01*
X160605682Y8196580D01*
X160510444Y8148960D01*
X160462825Y8101341D01*
X160415206Y8006103D01*
X160415206Y7863246D01*
X160462825Y7768008D01*
X160510444Y7720389D01*
X160605682Y7672770D01*
X160986635Y7672770D01*
X160034254Y8101341D02*
X159986635Y8148960D01*
X159891397Y8196580D01*
X159653301Y8196580D01*
X159558063Y8148960D01*
X159510444Y8101341D01*
X159462825Y8006103D01*
X159462825Y7910865D01*
X159510444Y7768008D01*
X160081873Y7196580D01*
X159462825Y7196580D01*
X157908226Y7133080D02*
X158241560Y7609270D01*
X158479655Y7133080D02*
X158479655Y8133080D01*
X158098702Y8133080D01*
X158003464Y8085460D01*
X157955845Y8037841D01*
X157908226Y7942603D01*
X157908226Y7799746D01*
X157955845Y7704508D01*
X158003464Y7656889D01*
X158098702Y7609270D01*
X158479655Y7609270D01*
X156955845Y7133080D02*
X157527274Y7133080D01*
X157241560Y7133080D02*
X157241560Y8133080D01*
X157336798Y7990222D01*
X157432036Y7894984D01*
X157527274Y7847365D01*
X138751546Y8947898D02*
X138799165Y8900279D01*
X138942022Y8852660D01*
X139037260Y8852660D01*
X139180118Y8900279D01*
X139275356Y8995517D01*
X139322975Y9090755D01*
X139370594Y9281231D01*
X139370594Y9424088D01*
X139322975Y9614564D01*
X139275356Y9709802D01*
X139180118Y9805040D01*
X139037260Y9852660D01*
X138942022Y9852660D01*
X138799165Y9805040D01*
X138751546Y9757421D01*
X137894403Y9852660D02*
X138084880Y9852660D01*
X138180118Y9805040D01*
X138227737Y9757421D01*
X138322975Y9614564D01*
X138370594Y9424088D01*
X138370594Y9043136D01*
X138322975Y8947898D01*
X138275356Y8900279D01*
X138180118Y8852660D01*
X137989641Y8852660D01*
X137894403Y8900279D01*
X137846784Y8947898D01*
X137799165Y9043136D01*
X137799165Y9281231D01*
X137846784Y9376469D01*
X137894403Y9424088D01*
X137989641Y9471707D01*
X138180118Y9471707D01*
X138275356Y9424088D01*
X138322975Y9376469D01*
X138370594Y9281231D01*
X114974606Y2727438D02*
X115022225Y2679819D01*
X115165082Y2632200D01*
X115260320Y2632200D01*
X115403178Y2679819D01*
X115498416Y2775057D01*
X115546035Y2870295D01*
X115593654Y3060771D01*
X115593654Y3203628D01*
X115546035Y3394104D01*
X115498416Y3489342D01*
X115403178Y3584580D01*
X115260320Y3632200D01*
X115165082Y3632200D01*
X115022225Y3584580D01*
X114974606Y3536961D01*
X114069844Y3632200D02*
X114546035Y3632200D01*
X114593654Y3156009D01*
X114546035Y3203628D01*
X114450797Y3251247D01*
X114212701Y3251247D01*
X114117463Y3203628D01*
X114069844Y3156009D01*
X114022225Y3060771D01*
X114022225Y2822676D01*
X114069844Y2727438D01*
X114117463Y2679819D01*
X114212701Y2632200D01*
X114450797Y2632200D01*
X114546035Y2679819D01*
X114593654Y2727438D01*
X82399106Y2475978D02*
X82446725Y2428359D01*
X82589582Y2380740D01*
X82684820Y2380740D01*
X82827678Y2428359D01*
X82922916Y2523597D01*
X82970535Y2618835D01*
X83018154Y2809311D01*
X83018154Y2952168D01*
X82970535Y3142644D01*
X82922916Y3237882D01*
X82827678Y3333120D01*
X82684820Y3380740D01*
X82589582Y3380740D01*
X82446725Y3333120D01*
X82399106Y3285501D01*
X81541963Y3047406D02*
X81541963Y2380740D01*
X81780059Y3428359D02*
X82018154Y2714073D01*
X81399106Y2714073D01*
X47603646Y2483598D02*
X47651265Y2435979D01*
X47794122Y2388360D01*
X47889360Y2388360D01*
X48032218Y2435979D01*
X48127456Y2531217D01*
X48175075Y2626455D01*
X48222694Y2816931D01*
X48222694Y2959788D01*
X48175075Y3150264D01*
X48127456Y3245502D01*
X48032218Y3340740D01*
X47889360Y3388360D01*
X47794122Y3388360D01*
X47651265Y3340740D01*
X47603646Y3293121D01*
X47222694Y3293121D02*
X47175075Y3340740D01*
X47079837Y3388360D01*
X46841741Y3388360D01*
X46746503Y3340740D01*
X46698884Y3293121D01*
X46651265Y3197883D01*
X46651265Y3102645D01*
X46698884Y2959788D01*
X47270313Y2388360D01*
X46651265Y2388360D01*
X130029186Y852918D02*
X130076805Y805299D01*
X130219662Y757680D01*
X130314900Y757680D01*
X130457758Y805299D01*
X130552996Y900537D01*
X130600615Y995775D01*
X130648234Y1186251D01*
X130648234Y1329108D01*
X130600615Y1519584D01*
X130552996Y1614822D01*
X130457758Y1710060D01*
X130314900Y1757680D01*
X130219662Y1757680D01*
X130076805Y1710060D01*
X130029186Y1662441D01*
X129076805Y757680D02*
X129648234Y757680D01*
X129362520Y757680D02*
X129362520Y1757680D01*
X129457758Y1614822D01*
X129552996Y1519584D01*
X129648234Y1471965D01*
X94995844Y1531620D02*
X94995844Y722096D01*
X94948225Y626858D01*
X94900606Y579239D01*
X94805368Y531620D01*
X94614892Y531620D01*
X94519654Y579239D01*
X94472035Y626858D01*
X94424416Y722096D01*
X94424416Y1531620D01*
X93519654Y1198286D02*
X93519654Y531620D01*
X93757749Y1579239D02*
X93995844Y864953D01*
X93376797Y864953D01*
X91935096Y1531620D02*
X91268429Y1531620D01*
X91697000Y531620D01*
X90458905Y1198286D02*
X90458905Y531620D01*
X90697000Y1579239D02*
X90935096Y864953D01*
X90316048Y864953D01*
X89982715Y817334D02*
X89506524Y817334D01*
X90077953Y531620D02*
X89744620Y1531620D01*
X89411286Y531620D01*
X89077953Y531620D02*
X89077953Y1531620D01*
X89077953Y1055429D02*
X88506524Y1055429D01*
X88506524Y531620D02*
X88506524Y1531620D01*
X87458905Y626858D02*
X87506524Y579239D01*
X87649381Y531620D01*
X87744620Y531620D01*
X87887477Y579239D01*
X87982715Y674477D01*
X88030334Y769715D01*
X88077953Y960191D01*
X88077953Y1103048D01*
X88030334Y1293524D01*
X87982715Y1388762D01*
X87887477Y1484000D01*
X87744620Y1531620D01*
X87649381Y1531620D01*
X87506524Y1484000D01*
X87458905Y1436381D01*
X86554143Y1531620D02*
X87030334Y1531620D01*
X87077953Y1055429D01*
X87030334Y1103048D01*
X86935096Y1150667D01*
X86697000Y1150667D01*
X86601762Y1103048D01*
X86554143Y1055429D01*
X86506524Y960191D01*
X86506524Y722096D01*
X86554143Y626858D01*
X86601762Y579239D01*
X86697000Y531620D01*
X86935096Y531620D01*
X87030334Y579239D01*
X87077953Y626858D01*
X86030334Y531620D02*
X85839858Y531620D01*
X85744620Y579239D01*
X85697000Y626858D01*
X85601762Y769715D01*
X85554143Y960191D01*
X85554143Y1341143D01*
X85601762Y1436381D01*
X85649381Y1484000D01*
X85744620Y1531620D01*
X85935096Y1531620D01*
X86030334Y1484000D01*
X86077953Y1436381D01*
X86125572Y1341143D01*
X86125572Y1103048D01*
X86077953Y1007810D01*
X86030334Y960191D01*
X85935096Y912572D01*
X85744620Y912572D01*
X85649381Y960191D01*
X85601762Y1007810D01*
X85554143Y1103048D01*
X84649381Y1531620D02*
X85125572Y1531620D01*
X85173191Y1055429D01*
X85125572Y1103048D01*
X85030334Y1150667D01*
X84792239Y1150667D01*
X84697000Y1103048D01*
X84649381Y1055429D01*
X84601762Y960191D01*
X84601762Y722096D01*
X84649381Y626858D01*
X84697000Y579239D01*
X84792239Y531620D01*
X85030334Y531620D01*
X85125572Y579239D01*
X85173191Y626858D01*
X154774276Y6934960D02*
X155107609Y7411150D01*
X155345704Y6934960D02*
X155345704Y7934960D01*
X154964752Y7934960D01*
X154869514Y7887340D01*
X154821895Y7839721D01*
X154774276Y7744483D01*
X154774276Y7601626D01*
X154821895Y7506388D01*
X154869514Y7458769D01*
X154964752Y7411150D01*
X155345704Y7411150D01*
X154345704Y6934960D02*
X154345704Y7934960D01*
X153774276Y6934960D01*
X153774276Y7934960D01*
X152774276Y6934960D02*
X153345704Y6934960D01*
X153059990Y6934960D02*
X153059990Y7934960D01*
X153155228Y7792102D01*
X153250466Y7696864D01*
X153345704Y7649245D01*
D10*
X135657142Y10028572D02*
X135657142Y9542858D01*
X135628571Y9485715D01*
X135600000Y9457143D01*
X135542857Y9428572D01*
X135428571Y9428572D01*
X135371428Y9457143D01*
X135342857Y9485715D01*
X135314285Y9542858D01*
X135314285Y10028572D01*
X134714285Y9428572D02*
X135057142Y9428572D01*
X134885714Y9428572D02*
X134885714Y10028572D01*
X134942857Y9942858D01*
X135000000Y9885715D01*
X135057142Y9857143D01*
X133985714Y9428572D02*
X133985714Y10028572D01*
X133785714Y9600000D01*
X133585714Y10028572D01*
X133585714Y9428572D01*
X132957142Y9485715D02*
X132985714Y9457143D01*
X133071428Y9428572D01*
X133128571Y9428572D01*
X133214285Y9457143D01*
X133271428Y9514286D01*
X133300000Y9571429D01*
X133328571Y9685715D01*
X133328571Y9771429D01*
X133300000Y9885715D01*
X133271428Y9942858D01*
X133214285Y10000000D01*
X133128571Y10028572D01*
X133071428Y10028572D01*
X132985714Y10000000D01*
X132957142Y9971429D01*
X132700000Y9428572D02*
X132700000Y10028572D01*
X132471428Y10028572D01*
X132414285Y10000000D01*
X132385714Y9971429D01*
X132357142Y9914286D01*
X132357142Y9828572D01*
X132385714Y9771429D01*
X132414285Y9742858D01*
X132471428Y9714286D01*
X132700000Y9714286D01*
X131842857Y9828572D02*
X131842857Y9428572D01*
X131985714Y10057143D02*
X132128571Y9628572D01*
X131757142Y9628572D01*
X131500000Y9428572D02*
X131385714Y9428572D01*
X131328571Y9457143D01*
X131300000Y9485715D01*
X131242857Y9571429D01*
X131214285Y9685715D01*
X131214285Y9914286D01*
X131242857Y9971429D01*
X131271428Y10000000D01*
X131328571Y10028572D01*
X131442857Y10028572D01*
X131500000Y10000000D01*
X131528571Y9971429D01*
X131557142Y9914286D01*
X131557142Y9771429D01*
X131528571Y9714286D01*
X131500000Y9685715D01*
X131442857Y9657143D01*
X131328571Y9657143D01*
X131271428Y9685715D01*
X131242857Y9714286D01*
X131214285Y9771429D01*
X130985714Y9971429D02*
X130957142Y10000000D01*
X130900000Y10028572D01*
X130757142Y10028572D01*
X130700000Y10000000D01*
X130671428Y9971429D01*
X130642857Y9914286D01*
X130642857Y9857143D01*
X130671428Y9771429D01*
X131014285Y9428572D01*
X130642857Y9428572D01*
X130071428Y9428572D02*
X130414285Y9428572D01*
X130242857Y9428572D02*
X130242857Y10028572D01*
X130300000Y9942858D01*
X130357142Y9885715D01*
X130414285Y9857143D01*
X129814285Y9657143D02*
X129357142Y9657143D01*
X129071428Y9742858D02*
X128871428Y9742858D01*
X128785714Y9428572D02*
X129071428Y9428572D01*
X129071428Y10028572D01*
X128785714Y10028572D01*
D11*
X126918564Y1541780D02*
X126918564Y732256D01*
X126870945Y637018D01*
X126823326Y589399D01*
X126728088Y541780D01*
X126537612Y541780D01*
X126442374Y589399D01*
X126394755Y637018D01*
X126347136Y732256D01*
X126347136Y1541780D01*
X125966183Y1541780D02*
X125299517Y1541780D01*
X125728088Y541780D01*
X124248976Y1541780D02*
X123582309Y1541780D01*
X124010880Y541780D01*
X122772785Y1208446D02*
X122772785Y541780D01*
X123010880Y1589399D02*
X123248976Y875113D01*
X122629928Y875113D01*
X122296595Y827494D02*
X121820404Y827494D01*
X122391833Y541780D02*
X122058500Y1541780D01*
X121725166Y541780D01*
X121391833Y541780D02*
X121391833Y1541780D01*
X121391833Y1065589D02*
X120820404Y1065589D01*
X120820404Y541780D02*
X120820404Y1541780D01*
X119772785Y637018D02*
X119820404Y589399D01*
X119963261Y541780D01*
X120058500Y541780D01*
X120201357Y589399D01*
X120296595Y684637D01*
X120344214Y779875D01*
X120391833Y970351D01*
X120391833Y1113208D01*
X120344214Y1303684D01*
X120296595Y1398922D01*
X120201357Y1494160D01*
X120058500Y1541780D01*
X119963261Y1541780D01*
X119820404Y1494160D01*
X119772785Y1446541D01*
X118868023Y1541780D02*
X119344214Y1541780D01*
X119391833Y1065589D01*
X119344214Y1113208D01*
X119248976Y1160827D01*
X119010880Y1160827D01*
X118915642Y1113208D01*
X118868023Y1065589D01*
X118820404Y970351D01*
X118820404Y732256D01*
X118868023Y637018D01*
X118915642Y589399D01*
X119010880Y541780D01*
X119248976Y541780D01*
X119344214Y589399D01*
X119391833Y637018D01*
X118344214Y541780D02*
X118153738Y541780D01*
X118058500Y589399D01*
X118010880Y637018D01*
X117915642Y779875D01*
X117868023Y970351D01*
X117868023Y1351303D01*
X117915642Y1446541D01*
X117963261Y1494160D01*
X118058500Y1541780D01*
X118248976Y1541780D01*
X118344214Y1494160D01*
X118391833Y1446541D01*
X118439452Y1351303D01*
X118439452Y1113208D01*
X118391833Y1017970D01*
X118344214Y970351D01*
X118248976Y922732D01*
X118058500Y922732D01*
X117963261Y970351D01*
X117915642Y1017970D01*
X117868023Y1113208D01*
X116963261Y1541780D02*
X117439452Y1541780D01*
X117487071Y1065589D01*
X117439452Y1113208D01*
X117344214Y1160827D01*
X117106119Y1160827D01*
X117010880Y1113208D01*
X116963261Y1065589D01*
X116915642Y970351D01*
X116915642Y732256D01*
X116963261Y637018D01*
X117010880Y589399D01*
X117106119Y541780D01*
X117344214Y541780D01*
X117439452Y589399D01*
X117487071Y637018D01*
X60652504Y1595120D02*
X60652504Y785596D01*
X60604885Y690358D01*
X60557266Y642739D01*
X60462028Y595120D01*
X60271552Y595120D01*
X60176314Y642739D01*
X60128695Y690358D01*
X60081076Y785596D01*
X60081076Y1595120D01*
X59700123Y1595120D02*
X59081076Y1595120D01*
X59414409Y1214167D01*
X59271552Y1214167D01*
X59176314Y1166548D01*
X59128695Y1118929D01*
X59081076Y1023691D01*
X59081076Y785596D01*
X59128695Y690358D01*
X59176314Y642739D01*
X59271552Y595120D01*
X59557266Y595120D01*
X59652504Y642739D01*
X59700123Y690358D01*
X57622236Y1595120D02*
X56955569Y1595120D01*
X57384140Y595120D01*
X56146045Y1261786D02*
X56146045Y595120D01*
X56384140Y1642739D02*
X56622236Y928453D01*
X56003188Y928453D01*
X55669855Y880834D02*
X55193664Y880834D01*
X55765093Y595120D02*
X55431760Y1595120D01*
X55098426Y595120D01*
X54765093Y595120D02*
X54765093Y1595120D01*
X54765093Y1118929D02*
X54193664Y1118929D01*
X54193664Y595120D02*
X54193664Y1595120D01*
X53146045Y690358D02*
X53193664Y642739D01*
X53336521Y595120D01*
X53431760Y595120D01*
X53574617Y642739D01*
X53669855Y737977D01*
X53717474Y833215D01*
X53765093Y1023691D01*
X53765093Y1166548D01*
X53717474Y1357024D01*
X53669855Y1452262D01*
X53574617Y1547500D01*
X53431760Y1595120D01*
X53336521Y1595120D01*
X53193664Y1547500D01*
X53146045Y1499881D01*
X52241283Y1595120D02*
X52717474Y1595120D01*
X52765093Y1118929D01*
X52717474Y1166548D01*
X52622236Y1214167D01*
X52384140Y1214167D01*
X52288902Y1166548D01*
X52241283Y1118929D01*
X52193664Y1023691D01*
X52193664Y785596D01*
X52241283Y690358D01*
X52288902Y642739D01*
X52384140Y595120D01*
X52622236Y595120D01*
X52717474Y642739D01*
X52765093Y690358D01*
X51717474Y595120D02*
X51526998Y595120D01*
X51431760Y642739D01*
X51384140Y690358D01*
X51288902Y833215D01*
X51241283Y1023691D01*
X51241283Y1404643D01*
X51288902Y1499881D01*
X51336521Y1547500D01*
X51431760Y1595120D01*
X51622236Y1595120D01*
X51717474Y1547500D01*
X51765093Y1499881D01*
X51812712Y1404643D01*
X51812712Y1166548D01*
X51765093Y1071310D01*
X51717474Y1023691D01*
X51622236Y976072D01*
X51431760Y976072D01*
X51336521Y1023691D01*
X51288902Y1071310D01*
X51241283Y1166548D01*
X50336521Y1595120D02*
X50812712Y1595120D01*
X50860331Y1118929D01*
X50812712Y1166548D01*
X50717474Y1214167D01*
X50479379Y1214167D01*
X50384140Y1166548D01*
X50336521Y1118929D01*
X50288902Y1023691D01*
X50288902Y785596D01*
X50336521Y690358D01*
X50384140Y642739D01*
X50479379Y595120D01*
X50717474Y595120D01*
X50812712Y642739D01*
X50860331Y690358D01*
X11863095Y31752381D02*
X11863095Y32561905D01*
X11910714Y32657143D01*
X11958333Y32704762D01*
X12053571Y32752381D01*
X12244047Y32752381D01*
X12339285Y32704762D01*
X12386904Y32657143D01*
X12434523Y32561905D01*
X12434523Y31752381D01*
X12863095Y31847620D02*
X12910714Y31800000D01*
X13005952Y31752381D01*
X13244047Y31752381D01*
X13339285Y31800000D01*
X13386904Y31847620D01*
X13434523Y31942858D01*
X13434523Y32038096D01*
X13386904Y32180953D01*
X12815476Y32752381D01*
X13434523Y32752381D01*
X16280952Y32752381D02*
X15804761Y32752381D01*
X15804761Y31752381D01*
X16614285Y32752381D02*
X16614285Y31752381D01*
X16947619Y32466667D01*
X17280952Y31752381D01*
X17280952Y32752381D01*
X17661904Y31752381D02*
X18280952Y31752381D01*
X17947619Y32133334D01*
X18090476Y32133334D01*
X18185714Y32180953D01*
X18233333Y32228572D01*
X18280952Y32323810D01*
X18280952Y32561905D01*
X18233333Y32657143D01*
X18185714Y32704762D01*
X18090476Y32752381D01*
X17804761Y32752381D01*
X17709523Y32704762D01*
X17661904Y32657143D01*
X18614285Y31752381D02*
X19233333Y31752381D01*
X18900000Y32133334D01*
X19042857Y32133334D01*
X19138095Y32180953D01*
X19185714Y32228572D01*
X19233333Y32323810D01*
X19233333Y32561905D01*
X19185714Y32657143D01*
X19138095Y32704762D01*
X19042857Y32752381D01*
X18757142Y32752381D01*
X18661904Y32704762D01*
X18614285Y32657143D01*
X19709523Y32752381D02*
X19900000Y32752381D01*
X19995238Y32704762D01*
X20042857Y32657143D01*
X20138095Y32514286D01*
X20185714Y32323810D01*
X20185714Y31942858D01*
X20138095Y31847620D01*
X20090476Y31800000D01*
X19995238Y31752381D01*
X19804761Y31752381D01*
X19709523Y31800000D01*
X19661904Y31847620D01*
X19614285Y31942858D01*
X19614285Y32180953D01*
X19661904Y32276191D01*
X19709523Y32323810D01*
X19804761Y32371429D01*
X19995238Y32371429D01*
X20090476Y32323810D01*
X20138095Y32276191D01*
X20185714Y32180953D01*
X20566666Y32466667D02*
X21042857Y32466667D01*
X20471428Y32752381D02*
X20804761Y31752381D01*
X21138095Y32752381D01*
X10244733Y30557143D02*
X10197114Y30604762D01*
X10054257Y30652381D01*
X9959019Y30652381D01*
X9816161Y30604762D01*
X9720923Y30509524D01*
X9673304Y30414286D01*
X9625685Y30223810D01*
X9625685Y30080953D01*
X9673304Y29890477D01*
X9720923Y29795239D01*
X9816161Y29700000D01*
X9959019Y29652381D01*
X10054257Y29652381D01*
X10197114Y29700000D01*
X10244733Y29747620D01*
X10578066Y29652381D02*
X11197114Y29652381D01*
X10863780Y30033334D01*
X11006638Y30033334D01*
X11101876Y30080953D01*
X11149495Y30128572D01*
X11197114Y30223810D01*
X11197114Y30461905D01*
X11149495Y30557143D01*
X11101876Y30604762D01*
X11006638Y30652381D01*
X10720923Y30652381D01*
X10625685Y30604762D01*
X10578066Y30557143D01*
X135783333Y24377381D02*
X135450000Y23901191D01*
X135211904Y24377381D02*
X135211904Y23377381D01*
X135592857Y23377381D01*
X135688095Y23425000D01*
X135735714Y23472620D01*
X135783333Y23567858D01*
X135783333Y23710715D01*
X135735714Y23805953D01*
X135688095Y23853572D01*
X135592857Y23901191D01*
X135211904Y23901191D01*
X136354761Y23805953D02*
X136259523Y23758334D01*
X136211904Y23710715D01*
X136164285Y23615477D01*
X136164285Y23567858D01*
X136211904Y23472620D01*
X136259523Y23425000D01*
X136354761Y23377381D01*
X136545238Y23377381D01*
X136640476Y23425000D01*
X136688095Y23472620D01*
X136735714Y23567858D01*
X136735714Y23615477D01*
X136688095Y23710715D01*
X136640476Y23758334D01*
X136545238Y23805953D01*
X136354761Y23805953D01*
X136259523Y23853572D01*
X136211904Y23901191D01*
X136164285Y23996429D01*
X136164285Y24186905D01*
X136211904Y24282143D01*
X136259523Y24329762D01*
X136354761Y24377381D01*
X136545238Y24377381D01*
X136640476Y24329762D01*
X136688095Y24282143D01*
X136735714Y24186905D01*
X136735714Y23996429D01*
X136688095Y23901191D01*
X136640476Y23853572D01*
X136545238Y23805953D01*
X135783333Y20377381D02*
X135450000Y19901191D01*
X135211904Y20377381D02*
X135211904Y19377381D01*
X135592857Y19377381D01*
X135688095Y19425000D01*
X135735714Y19472620D01*
X135783333Y19567858D01*
X135783333Y19710715D01*
X135735714Y19805953D01*
X135688095Y19853572D01*
X135592857Y19901191D01*
X135211904Y19901191D01*
X136640476Y19377381D02*
X136450000Y19377381D01*
X136354761Y19425000D01*
X136307142Y19472620D01*
X136211904Y19615477D01*
X136164285Y19805953D01*
X136164285Y20186905D01*
X136211904Y20282143D01*
X136259523Y20329762D01*
X136354761Y20377381D01*
X136545238Y20377381D01*
X136640476Y20329762D01*
X136688095Y20282143D01*
X136735714Y20186905D01*
X136735714Y19948810D01*
X136688095Y19853572D01*
X136640476Y19805953D01*
X136545238Y19758334D01*
X136354761Y19758334D01*
X136259523Y19805953D01*
X136211904Y19853572D01*
X136164285Y19948810D01*
X135783333Y22327381D02*
X135450000Y21851191D01*
X135211904Y22327381D02*
X135211904Y21327381D01*
X135592857Y21327381D01*
X135688095Y21375000D01*
X135735714Y21422620D01*
X135783333Y21517858D01*
X135783333Y21660715D01*
X135735714Y21755953D01*
X135688095Y21803572D01*
X135592857Y21851191D01*
X135211904Y21851191D01*
X136116666Y21327381D02*
X136783333Y21327381D01*
X136354761Y22327381D01*
X22358333Y31352381D02*
X22025000Y30876191D01*
X21786904Y31352381D02*
X21786904Y30352381D01*
X22167857Y30352381D01*
X22263095Y30400000D01*
X22310714Y30447620D01*
X22358333Y30542858D01*
X22358333Y30685715D01*
X22310714Y30780953D01*
X22263095Y30828572D01*
X22167857Y30876191D01*
X21786904Y30876191D01*
X23263095Y30352381D02*
X22786904Y30352381D01*
X22739285Y30828572D01*
X22786904Y30780953D01*
X22882142Y30733334D01*
X23120238Y30733334D01*
X23215476Y30780953D01*
X23263095Y30828572D01*
X23310714Y30923810D01*
X23310714Y31161905D01*
X23263095Y31257143D01*
X23215476Y31304762D01*
X23120238Y31352381D01*
X22882142Y31352381D01*
X22786904Y31304762D01*
X22739285Y31257143D01*
X29183333Y32327381D02*
X28850000Y31851191D01*
X28611904Y32327381D02*
X28611904Y31327381D01*
X28992857Y31327381D01*
X29088095Y31375000D01*
X29135714Y31422620D01*
X29183333Y31517858D01*
X29183333Y31660715D01*
X29135714Y31755953D01*
X29088095Y31803572D01*
X28992857Y31851191D01*
X28611904Y31851191D01*
X30040476Y31660715D02*
X30040476Y32327381D01*
X29802380Y31279762D02*
X29564285Y31994048D01*
X30183333Y31994048D01*
X24808333Y30977381D02*
X24475000Y30501191D01*
X24236904Y30977381D02*
X24236904Y29977381D01*
X24617857Y29977381D01*
X24713095Y30025000D01*
X24760714Y30072620D01*
X24808333Y30167858D01*
X24808333Y30310715D01*
X24760714Y30405953D01*
X24713095Y30453572D01*
X24617857Y30501191D01*
X24236904Y30501191D01*
X25141666Y29977381D02*
X25760714Y29977381D01*
X25427380Y30358334D01*
X25570238Y30358334D01*
X25665476Y30405953D01*
X25713095Y30453572D01*
X25760714Y30548810D01*
X25760714Y30786905D01*
X25713095Y30882143D01*
X25665476Y30929762D01*
X25570238Y30977381D01*
X25284523Y30977381D01*
X25189285Y30929762D01*
X25141666Y30882143D01*
X1834793Y26003421D02*
X1501460Y25527231D01*
X1263364Y26003421D02*
X1263364Y25003421D01*
X1644317Y25003421D01*
X1739555Y25051040D01*
X1787174Y25098660D01*
X1834793Y25193898D01*
X1834793Y25336755D01*
X1787174Y25431993D01*
X1739555Y25479612D01*
X1644317Y25527231D01*
X1263364Y25527231D01*
X2215745Y25098660D02*
X2263364Y25051040D01*
X2358602Y25003421D01*
X2596698Y25003421D01*
X2691936Y25051040D01*
X2739555Y25098660D01*
X2787174Y25193898D01*
X2787174Y25289136D01*
X2739555Y25431993D01*
X2168126Y26003421D01*
X2787174Y26003421D01*
X4341773Y26066921D02*
X4008440Y25590731D01*
X3770344Y26066921D02*
X3770344Y25066921D01*
X4151297Y25066921D01*
X4246535Y25114540D01*
X4294154Y25162160D01*
X4341773Y25257398D01*
X4341773Y25400255D01*
X4294154Y25495493D01*
X4246535Y25543112D01*
X4151297Y25590731D01*
X3770344Y25590731D01*
X5294154Y26066921D02*
X4722725Y26066921D01*
X5008440Y26066921D02*
X5008440Y25066921D01*
X4913201Y25209779D01*
X4817963Y25305017D01*
X4722725Y25352636D01*
X23498453Y24252103D02*
X23450834Y24299722D01*
X23307977Y24347341D01*
X23212739Y24347341D01*
X23069881Y24299722D01*
X22974643Y24204484D01*
X22927024Y24109246D01*
X22879405Y23918770D01*
X22879405Y23775913D01*
X22927024Y23585437D01*
X22974643Y23490199D01*
X23069881Y23394960D01*
X23212739Y23347341D01*
X23307977Y23347341D01*
X23450834Y23394960D01*
X23498453Y23442580D01*
X24355596Y23347341D02*
X24165120Y23347341D01*
X24069881Y23394960D01*
X24022262Y23442580D01*
X23927024Y23585437D01*
X23879405Y23775913D01*
X23879405Y24156865D01*
X23927024Y24252103D01*
X23974643Y24299722D01*
X24069881Y24347341D01*
X24260358Y24347341D01*
X24355596Y24299722D01*
X24403215Y24252103D01*
X24450834Y24156865D01*
X24450834Y23918770D01*
X24403215Y23823532D01*
X24355596Y23775913D01*
X24260358Y23728294D01*
X24069881Y23728294D01*
X23974643Y23775913D01*
X23927024Y23823532D01*
X23879405Y23918770D01*
X47275393Y30472563D02*
X47227774Y30520182D01*
X47084917Y30567801D01*
X46989679Y30567801D01*
X46846821Y30520182D01*
X46751583Y30424944D01*
X46703964Y30329706D01*
X46656345Y30139230D01*
X46656345Y29996373D01*
X46703964Y29805897D01*
X46751583Y29710659D01*
X46846821Y29615420D01*
X46989679Y29567801D01*
X47084917Y29567801D01*
X47227774Y29615420D01*
X47275393Y29663040D01*
X48180155Y29567801D02*
X47703964Y29567801D01*
X47656345Y30043992D01*
X47703964Y29996373D01*
X47799202Y29948754D01*
X48037298Y29948754D01*
X48132536Y29996373D01*
X48180155Y30043992D01*
X48227774Y30139230D01*
X48227774Y30377325D01*
X48180155Y30472563D01*
X48132536Y30520182D01*
X48037298Y30567801D01*
X47799202Y30567801D01*
X47703964Y30520182D01*
X47656345Y30472563D01*
X79850893Y30724023D02*
X79803274Y30771642D01*
X79660417Y30819261D01*
X79565179Y30819261D01*
X79422321Y30771642D01*
X79327083Y30676404D01*
X79279464Y30581166D01*
X79231845Y30390690D01*
X79231845Y30247833D01*
X79279464Y30057357D01*
X79327083Y29962119D01*
X79422321Y29866880D01*
X79565179Y29819261D01*
X79660417Y29819261D01*
X79803274Y29866880D01*
X79850893Y29914500D01*
X80708036Y30152595D02*
X80708036Y30819261D01*
X80469940Y29771642D02*
X80231845Y30485928D01*
X80850893Y30485928D01*
X114646353Y30716403D02*
X114598734Y30764022D01*
X114455877Y30811641D01*
X114360639Y30811641D01*
X114217781Y30764022D01*
X114122543Y30668784D01*
X114074924Y30573546D01*
X114027305Y30383070D01*
X114027305Y30240213D01*
X114074924Y30049737D01*
X114122543Y29954499D01*
X114217781Y29859260D01*
X114360639Y29811641D01*
X114455877Y29811641D01*
X114598734Y29859260D01*
X114646353Y29906880D01*
X115027305Y29906880D02*
X115074924Y29859260D01*
X115170162Y29811641D01*
X115408258Y29811641D01*
X115503496Y29859260D01*
X115551115Y29906880D01*
X115598734Y30002118D01*
X115598734Y30097356D01*
X115551115Y30240213D01*
X114979686Y30811641D01*
X115598734Y30811641D01*
X32220813Y32347083D02*
X32173194Y32394702D01*
X32030337Y32442321D01*
X31935099Y32442321D01*
X31792241Y32394702D01*
X31697003Y32299464D01*
X31649384Y32204226D01*
X31601765Y32013750D01*
X31601765Y31870893D01*
X31649384Y31680417D01*
X31697003Y31585179D01*
X31792241Y31489940D01*
X31935099Y31442321D01*
X32030337Y31442321D01*
X32173194Y31489940D01*
X32220813Y31537560D01*
X33173194Y32442321D02*
X32601765Y32442321D01*
X32887480Y32442321D02*
X32887480Y31442321D01*
X32792241Y31585179D01*
X32697003Y31680417D01*
X32601765Y31728036D01*
X67254155Y31668381D02*
X67254155Y32477905D01*
X67301774Y32573143D01*
X67349393Y32620762D01*
X67444631Y32668381D01*
X67635107Y32668381D01*
X67730345Y32620762D01*
X67777964Y32573143D01*
X67825583Y32477905D01*
X67825583Y31668381D01*
X68730345Y32001715D02*
X68730345Y32668381D01*
X68492250Y31620762D02*
X68254155Y32335048D01*
X68873202Y32335048D01*
X70314903Y31668381D02*
X70981570Y31668381D01*
X70552999Y32668381D01*
X71791094Y32001715D02*
X71791094Y32668381D01*
X71552999Y31620762D02*
X71314903Y32335048D01*
X71933951Y32335048D01*
X72267284Y32382667D02*
X72743475Y32382667D01*
X72172046Y32668381D02*
X72505380Y31668381D01*
X72838713Y32668381D01*
X73172046Y32668381D02*
X73172046Y31668381D01*
X73172046Y32144572D02*
X73743475Y32144572D01*
X73743475Y32668381D02*
X73743475Y31668381D01*
X74791094Y32573143D02*
X74743475Y32620762D01*
X74600618Y32668381D01*
X74505380Y32668381D01*
X74362522Y32620762D01*
X74267284Y32525524D01*
X74219665Y32430286D01*
X74172046Y32239810D01*
X74172046Y32096953D01*
X74219665Y31906477D01*
X74267284Y31811239D01*
X74362522Y31716000D01*
X74505380Y31668381D01*
X74600618Y31668381D01*
X74743475Y31716000D01*
X74791094Y31763620D01*
X75695856Y31668381D02*
X75219665Y31668381D01*
X75172046Y32144572D01*
X75219665Y32096953D01*
X75314903Y32049334D01*
X75552999Y32049334D01*
X75648237Y32096953D01*
X75695856Y32144572D01*
X75743475Y32239810D01*
X75743475Y32477905D01*
X75695856Y32573143D01*
X75648237Y32620762D01*
X75552999Y32668381D01*
X75314903Y32668381D01*
X75219665Y32620762D01*
X75172046Y32573143D01*
X76219665Y32668381D02*
X76410141Y32668381D01*
X76505380Y32620762D01*
X76552999Y32573143D01*
X76648237Y32430286D01*
X76695856Y32239810D01*
X76695856Y31858858D01*
X76648237Y31763620D01*
X76600618Y31716000D01*
X76505380Y31668381D01*
X76314903Y31668381D01*
X76219665Y31716000D01*
X76172046Y31763620D01*
X76124427Y31858858D01*
X76124427Y32096953D01*
X76172046Y32192191D01*
X76219665Y32239810D01*
X76314903Y32287429D01*
X76505380Y32287429D01*
X76600618Y32239810D01*
X76648237Y32192191D01*
X76695856Y32096953D01*
X77600618Y31668381D02*
X77124427Y31668381D01*
X77076808Y32144572D01*
X77124427Y32096953D01*
X77219665Y32049334D01*
X77457760Y32049334D01*
X77552999Y32096953D01*
X77600618Y32144572D01*
X77648237Y32239810D01*
X77648237Y32477905D01*
X77600618Y32573143D01*
X77552999Y32620762D01*
X77457760Y32668381D01*
X77219665Y32668381D01*
X77124427Y32620762D01*
X77076808Y32573143D01*
X7475723Y26265041D02*
X7142390Y25788851D01*
X6904295Y26265041D02*
X6904295Y25265041D01*
X7285247Y25265041D01*
X7380485Y25312660D01*
X7428104Y25360280D01*
X7475723Y25455518D01*
X7475723Y25598375D01*
X7428104Y25693613D01*
X7380485Y25741232D01*
X7285247Y25788851D01*
X6904295Y25788851D01*
X7904295Y26265041D02*
X7904295Y25265041D01*
X8475723Y26265041D01*
X8475723Y25265041D01*
X9475723Y26265041D02*
X8904295Y26265041D01*
X9190009Y26265041D02*
X9190009Y25265041D01*
X9094771Y25407899D01*
X8999533Y25503137D01*
X8904295Y25550756D01*
D10*
X26592857Y23171429D02*
X26592857Y23657143D01*
X26621428Y23714286D01*
X26650000Y23742858D01*
X26707142Y23771429D01*
X26821428Y23771429D01*
X26878571Y23742858D01*
X26907142Y23714286D01*
X26935714Y23657143D01*
X26935714Y23171429D01*
X27535714Y23771429D02*
X27192857Y23771429D01*
X27364285Y23771429D02*
X27364285Y23171429D01*
X27307142Y23257143D01*
X27250000Y23314286D01*
X27192857Y23342858D01*
X28264285Y23771429D02*
X28264285Y23171429D01*
X28464285Y23600000D01*
X28664285Y23171429D01*
X28664285Y23771429D01*
X29292857Y23714286D02*
X29264285Y23742858D01*
X29178571Y23771429D01*
X29121428Y23771429D01*
X29035714Y23742858D01*
X28978571Y23685715D01*
X28950000Y23628572D01*
X28921428Y23514286D01*
X28921428Y23428572D01*
X28950000Y23314286D01*
X28978571Y23257143D01*
X29035714Y23200000D01*
X29121428Y23171429D01*
X29178571Y23171429D01*
X29264285Y23200000D01*
X29292857Y23228572D01*
X29550000Y23771429D02*
X29550000Y23171429D01*
X29778571Y23171429D01*
X29835714Y23200000D01*
X29864285Y23228572D01*
X29892857Y23285715D01*
X29892857Y23371429D01*
X29864285Y23428572D01*
X29835714Y23457143D01*
X29778571Y23485715D01*
X29550000Y23485715D01*
X30407142Y23371429D02*
X30407142Y23771429D01*
X30264285Y23142858D02*
X30121428Y23571429D01*
X30492857Y23571429D01*
X30750000Y23771429D02*
X30864285Y23771429D01*
X30921428Y23742858D01*
X30950000Y23714286D01*
X31007142Y23628572D01*
X31035714Y23514286D01*
X31035714Y23285715D01*
X31007142Y23228572D01*
X30978571Y23200000D01*
X30921428Y23171429D01*
X30807142Y23171429D01*
X30750000Y23200000D01*
X30721428Y23228572D01*
X30692857Y23285715D01*
X30692857Y23428572D01*
X30721428Y23485715D01*
X30750000Y23514286D01*
X30807142Y23542858D01*
X30921428Y23542858D01*
X30978571Y23514286D01*
X31007142Y23485715D01*
X31035714Y23428572D01*
X31264285Y23228572D02*
X31292857Y23200000D01*
X31350000Y23171429D01*
X31492857Y23171429D01*
X31550000Y23200000D01*
X31578571Y23228572D01*
X31607142Y23285715D01*
X31607142Y23342858D01*
X31578571Y23428572D01*
X31235714Y23771429D01*
X31607142Y23771429D01*
X32178571Y23771429D02*
X31835714Y23771429D01*
X32007142Y23771429D02*
X32007142Y23171429D01*
X31950000Y23257143D01*
X31892857Y23314286D01*
X31835714Y23342858D01*
X32435714Y23542858D02*
X32892857Y23542858D01*
X33178571Y23457143D02*
X33378571Y23457143D01*
X33464285Y23771429D02*
X33178571Y23771429D01*
X33178571Y23171429D01*
X33464285Y23171429D01*
D11*
X35331435Y31658221D02*
X35331435Y32467745D01*
X35379054Y32562983D01*
X35426673Y32610602D01*
X35521911Y32658221D01*
X35712387Y32658221D01*
X35807625Y32610602D01*
X35855244Y32562983D01*
X35902863Y32467745D01*
X35902863Y31658221D01*
X36283816Y31658221D02*
X36950482Y31658221D01*
X36521911Y32658221D01*
X38001023Y31658221D02*
X38667690Y31658221D01*
X38239119Y32658221D01*
X39477214Y31991555D02*
X39477214Y32658221D01*
X39239119Y31610602D02*
X39001023Y32324888D01*
X39620071Y32324888D01*
X39953404Y32372507D02*
X40429595Y32372507D01*
X39858166Y32658221D02*
X40191500Y31658221D01*
X40524833Y32658221D01*
X40858166Y32658221D02*
X40858166Y31658221D01*
X40858166Y32134412D02*
X41429595Y32134412D01*
X41429595Y32658221D02*
X41429595Y31658221D01*
X42477214Y32562983D02*
X42429595Y32610602D01*
X42286738Y32658221D01*
X42191500Y32658221D01*
X42048642Y32610602D01*
X41953404Y32515364D01*
X41905785Y32420126D01*
X41858166Y32229650D01*
X41858166Y32086793D01*
X41905785Y31896317D01*
X41953404Y31801079D01*
X42048642Y31705840D01*
X42191500Y31658221D01*
X42286738Y31658221D01*
X42429595Y31705840D01*
X42477214Y31753460D01*
X43381976Y31658221D02*
X42905785Y31658221D01*
X42858166Y32134412D01*
X42905785Y32086793D01*
X43001023Y32039174D01*
X43239119Y32039174D01*
X43334357Y32086793D01*
X43381976Y32134412D01*
X43429595Y32229650D01*
X43429595Y32467745D01*
X43381976Y32562983D01*
X43334357Y32610602D01*
X43239119Y32658221D01*
X43001023Y32658221D01*
X42905785Y32610602D01*
X42858166Y32562983D01*
X43905785Y32658221D02*
X44096261Y32658221D01*
X44191500Y32610602D01*
X44239119Y32562983D01*
X44334357Y32420126D01*
X44381976Y32229650D01*
X44381976Y31848698D01*
X44334357Y31753460D01*
X44286738Y31705840D01*
X44191500Y31658221D01*
X44001023Y31658221D01*
X43905785Y31705840D01*
X43858166Y31753460D01*
X43810547Y31848698D01*
X43810547Y32086793D01*
X43858166Y32182031D01*
X43905785Y32229650D01*
X44001023Y32277269D01*
X44191500Y32277269D01*
X44286738Y32229650D01*
X44334357Y32182031D01*
X44381976Y32086793D01*
X45286738Y31658221D02*
X44810547Y31658221D01*
X44762928Y32134412D01*
X44810547Y32086793D01*
X44905785Y32039174D01*
X45143880Y32039174D01*
X45239119Y32086793D01*
X45286738Y32134412D01*
X45334357Y32229650D01*
X45334357Y32467745D01*
X45286738Y32562983D01*
X45239119Y32610602D01*
X45143880Y32658221D01*
X44905785Y32658221D01*
X44810547Y32610602D01*
X44762928Y32562983D01*
X101597495Y31604881D02*
X101597495Y32414405D01*
X101645114Y32509643D01*
X101692733Y32557262D01*
X101787971Y32604881D01*
X101978447Y32604881D01*
X102073685Y32557262D01*
X102121304Y32509643D01*
X102168923Y32414405D01*
X102168923Y31604881D01*
X102549876Y31604881D02*
X103168923Y31604881D01*
X102835590Y31985834D01*
X102978447Y31985834D01*
X103073685Y32033453D01*
X103121304Y32081072D01*
X103168923Y32176310D01*
X103168923Y32414405D01*
X103121304Y32509643D01*
X103073685Y32557262D01*
X102978447Y32604881D01*
X102692733Y32604881D01*
X102597495Y32557262D01*
X102549876Y32509643D01*
X104627763Y31604881D02*
X105294430Y31604881D01*
X104865859Y32604881D01*
X106103954Y31938215D02*
X106103954Y32604881D01*
X105865859Y31557262D02*
X105627763Y32271548D01*
X106246811Y32271548D01*
X106580144Y32319167D02*
X107056335Y32319167D01*
X106484906Y32604881D02*
X106818240Y31604881D01*
X107151573Y32604881D01*
X107484906Y32604881D02*
X107484906Y31604881D01*
X107484906Y32081072D02*
X108056335Y32081072D01*
X108056335Y32604881D02*
X108056335Y31604881D01*
X109103954Y32509643D02*
X109056335Y32557262D01*
X108913478Y32604881D01*
X108818240Y32604881D01*
X108675382Y32557262D01*
X108580144Y32462024D01*
X108532525Y32366786D01*
X108484906Y32176310D01*
X108484906Y32033453D01*
X108532525Y31842977D01*
X108580144Y31747739D01*
X108675382Y31652500D01*
X108818240Y31604881D01*
X108913478Y31604881D01*
X109056335Y31652500D01*
X109103954Y31700120D01*
X110008716Y31604881D02*
X109532525Y31604881D01*
X109484906Y32081072D01*
X109532525Y32033453D01*
X109627763Y31985834D01*
X109865859Y31985834D01*
X109961097Y32033453D01*
X110008716Y32081072D01*
X110056335Y32176310D01*
X110056335Y32414405D01*
X110008716Y32509643D01*
X109961097Y32557262D01*
X109865859Y32604881D01*
X109627763Y32604881D01*
X109532525Y32557262D01*
X109484906Y32509643D01*
X110532525Y32604881D02*
X110723001Y32604881D01*
X110818240Y32557262D01*
X110865859Y32509643D01*
X110961097Y32366786D01*
X111008716Y32176310D01*
X111008716Y31795358D01*
X110961097Y31700120D01*
X110913478Y31652500D01*
X110818240Y31604881D01*
X110627763Y31604881D01*
X110532525Y31652500D01*
X110484906Y31700120D01*
X110437287Y31795358D01*
X110437287Y32033453D01*
X110484906Y32128691D01*
X110532525Y32176310D01*
X110627763Y32223929D01*
X110818240Y32223929D01*
X110913478Y32176310D01*
X110961097Y32128691D01*
X111008716Y32033453D01*
X111913478Y31604881D02*
X111437287Y31604881D01*
X111389668Y32081072D01*
X111437287Y32033453D01*
X111532525Y31985834D01*
X111770620Y31985834D01*
X111865859Y32033453D01*
X111913478Y32081072D01*
X111961097Y32176310D01*
X111961097Y32414405D01*
X111913478Y32509643D01*
X111865859Y32557262D01*
X111770620Y32604881D01*
X111532525Y32604881D01*
X111437287Y32557262D01*
X111389668Y32509643D01*
M02*
