M48
; DRILL file {KiCad 5.1.6+dfsg1-1~bpo10+1} date Wed Aug 19 09:25:01 2020
; FORMAT={-:-/ absolute / inch / decimal}
; #@! TF.CreationDate,2020-08-19T09:25:01+03:00
; #@! TF.GenerationSoftware,Kicad,Pcbnew,5.1.6+dfsg1-1~bpo10+1
FMAT,2
INCH
T1C0.0100
T2C0.0118
T3C0.0200
T4C0.0315
T5C0.0394
T6C0.0433
T7C0.0591
T8C0.0454
%
G90
G05
T1
X0.0719Y1.0939
X0.128Y1.0413
X0.1378Y0.9035
X0.1811Y1.1551
X0.1911Y0.8138
X0.2666Y0.8131
X0.2933Y1.2264
X0.3371Y1.077
X0.4055Y0.9154
X0.4099Y1.2089
X0.4528Y0.9626
X0.4803Y1.1282
X0.561Y1.1102
X0.5709Y0.9331
X0.6299Y1.1004
X0.6398Y0.9331
X0.7004Y1.1257
X0.7483Y1.0753
X0.7489Y1.1285
X0.7997Y1.0783
X0.8003Y1.1266
X0.8863Y1.031
X0.9277Y0.204
X0.9589Y1.2594
X0.9607Y0.5901
X1.0173Y0.9874
X1.0224Y0.5931
X1.0933Y0.2999
X1.1503Y1.0684
X1.1516Y1.1398
X1.1539Y0.5824
X1.201Y1.0104
X1.2037Y1.0696
X1.2261Y0.5835
X1.2306Y1.265
X1.2626Y0.2126
X1.2779Y0.6648
X1.3075Y0.1825
X1.3431Y0.8302
X1.3512Y1.0651
X1.3571Y0.9932
X1.3646Y1.135
X1.3953Y0.1971
X1.4728Y0.3866
X1.4788Y0.4955
X1.4789Y1.0476
X1.4792Y0.077
X1.499Y0.8302
X1.5126Y1.1144
X1.5283Y0.262
X1.5626Y1.1172
X1.6148Y0.4768
X1.6422Y0.0483
X1.6549Y0.8302
X1.6622Y1.1186
X1.7707Y0.4768
X1.8003Y0.2595
X1.8031Y1.0117
X1.8108Y0.8302
X1.8578Y0.0485
X1.9266Y0.4768
X1.9278Y1.0025
X1.9407Y0.2595
X1.9667Y0.8302
X2.0136Y0.1939
X2.0337Y1.0194
X2.0825Y0.4768
X2.1121Y0.2101
X2.1163Y1.0204
X2.1226Y0.8302
X2.2123Y0.208
X2.2368Y1.0184
X2.2384Y0.4768
X2.2591Y1.1378
X2.2626Y0.2071
X2.2785Y0.8302
X2.3476Y1.0178
X2.3943Y0.4768
X2.4216Y0.2988
X2.4229Y0.1455
X2.4344Y0.8302
X2.4828Y1.0184
X2.4949Y0.1623
X2.5502Y0.4768
X2.5528Y0.2918
X2.5903Y0.8302
X2.6052Y1.1383
X2.6266Y1.0187
X2.6723Y0.3046
X2.6963Y1.1241
X2.7061Y0.4768
X2.7134Y0.1665
X2.7462Y0.8302
X2.7729Y1.1135
X2.8121Y0.2877
X2.823Y1.1123
X2.862Y0.4768
X2.8732Y1.1093
X2.8757Y0.2831
X2.9021Y0.8302
X2.9232Y1.1129
X2.9463Y0.1614
X2.9917Y0.2899
X3.0179Y0.4768
X3.058Y0.8302
X3.0774Y1.0138
X3.1416Y0.1611
X3.1739Y0.4768
X3.1786Y0.291
X3.2092Y1.016
X3.2139Y0.8302
X3.2462Y1.1459
X3.3104Y0.2932
X3.3298Y0.4768
X3.3698Y0.8302
X3.3961Y1.0172
X3.4415Y1.1456
X3.4646Y0.1941
X3.4857Y0.4768
X3.5121Y1.0239
X3.5146Y0.1977
X3.5258Y0.8302
X3.5648Y0.1947
X3.5757Y1.0193
X3.6149Y0.1935
X3.6416Y0.4768
X3.6744Y1.1405
X3.6817Y0.8302
X3.6915Y0.1829
X3.7155Y1.0024
X3.7612Y0.2883
X3.7826Y0.1687
X3.7975Y0.4768
X3.835Y1.0152
X3.8376Y0.8302
X3.8929Y1.1447
X3.905Y0.2886
X3.9534Y0.4768
X3.9649Y1.1615
X3.9662Y1.0082
X3.9935Y0.8302
X4.0402Y0.2892
X4.1093Y0.4768
X4.1252Y1.0999
X4.1287Y0.1693
X4.1494Y0.8302
X4.151Y0.2886
X4.1755Y1.099
X4.2652Y0.4768
X4.2715Y0.2866
X4.2757Y1.0969
X4.3053Y0.8302
X4.3541Y0.2876
X4.3742Y1.1131
X4.4211Y0.4768
X4.4471Y1.0476
X4.46Y0.3045
X4.4612Y0.8302
X4.53Y1.2585
X4.577Y0.4768
X4.5847Y0.2953
X4.5875Y1.0476
X4.6171Y0.8302
X4.7256Y0.1884
X4.7329Y0.4768
X4.7456Y1.2587
X4.773Y0.8302
X4.8252Y0.1898
X4.8595Y1.045
X4.8752Y0.1926
X4.8888Y0.4768
X4.9086Y1.23
X4.9089Y0.2595
X4.909Y0.8115
X4.915Y0.9204
X4.9925Y1.1099
X5.0232Y0.172
X5.0307Y0.3138
X5.0366Y0.2419
X5.0447Y0.4768
X5.0803Y1.1245
X5.1099Y0.6422
X5.1252Y1.0945
X5.1572Y0.042
X5.1617Y0.7235
X5.1841Y0.2374
X5.1868Y0.2966
X5.2339Y0.7246
X5.2362Y0.1673
X5.2375Y0.2386
X5.2945Y1.0071
X5.3654Y0.7139
X5.3705Y0.3197
X5.4271Y0.7169
X5.4289Y0.0476
X5.4601Y1.1031
X5.5015Y0.276
X5.5875Y0.1804
X5.5881Y0.2287
X5.6389Y0.1785
X5.6395Y0.2317
X5.6874Y0.1813
X5.748Y0.374
X5.7579Y0.2067
X5.8169Y0.374
X5.8268Y0.1969
X5.9075Y0.1788
X5.935Y0.3445
X5.9779Y0.0981
X5.9823Y0.3917
X6.0507Y0.23
X6.0945Y0.0807
X6.1212Y0.4939
X6.1967Y0.4932
X6.2067Y0.1519
X6.25Y0.4035
X6.2598Y0.2657
X6.3159Y0.2131
T2
X0.3013Y0.2265
X0.3485Y0.2265
X0.3957Y0.2265
X5.948Y0.7206
X5.9952Y0.7206
X6.0424Y0.7206
X0.3454Y0.5865
X0.3926Y0.5865
X0.4398Y0.5865
X5.9921Y1.0806
X6.0393Y1.0806
X6.0865Y1.0806
T3
X0.4741Y0.3255
X0.9941Y0.4429
X5.3937Y0.8642
X5.9137Y0.9815
T5
X1.3661Y0.6652
X1.3661Y0.5652
X1.4661Y0.6652
X1.4661Y0.5652
X1.5661Y0.6652
X1.5661Y0.5652
X4.8217Y0.7418
X4.8217Y0.6418
X4.9217Y0.7418
X4.9217Y0.6418
X5.0217Y0.7418
X5.0217Y0.6418
T6
X0.0924Y0.6722
X0.0924Y0.0722
X0.1924Y0.6722
X0.1924Y0.0722
X0.2924Y0.6722
X0.2924Y0.0722
X0.3924Y0.6722
X0.3924Y0.0722
X0.4924Y0.6722
X0.4924Y0.0722
X0.5924Y0.6722
X0.5924Y0.0722
X0.6924Y0.6722
X0.6924Y0.0722
X0.7924Y0.6722
X0.7924Y0.0722
X0.8924Y0.6722
X0.8924Y0.0722
X0.9924Y0.6722
X0.9924Y0.0722
X1.0924Y0.6722
X1.0924Y0.0722
X1.1924Y0.6722
X1.1924Y0.0722
X5.1954Y1.2349
X5.1954Y0.6349
X5.2954Y1.2349
X5.2954Y0.6349
X5.3954Y1.2349
X5.3954Y0.6349
X5.4954Y1.2349
X5.4954Y0.6349
X5.5954Y1.2349
X5.5954Y0.6349
X5.6954Y1.2349
X5.6954Y0.6349
X5.7954Y1.2349
X5.7954Y0.6349
X5.8954Y1.2349
X5.8954Y0.6349
X5.9954Y1.2349
X5.9954Y0.6349
X6.0954Y1.2349
X6.0954Y0.6349
X6.1954Y1.2349
X6.1954Y0.6349
X6.2954Y1.2349
X6.2954Y0.6349
T7
X6.315Y0.0728
X0.0728Y1.2343
T8
X6.2894Y1.122
X0.0984Y0.185
X0.2126Y1.2382
X6.1752Y0.0689
T4
G00X1.4186Y0.434
M15
G01X1.3438Y0.434
M16
G05
G00X1.5745Y0.434
M15
G01X1.4997Y0.434
M16
G05
G00X1.7304Y0.434
M15
G01X1.6556Y0.434
M16
G05
G00X1.8863Y0.434
M15
G01X1.8115Y0.434
M16
G05
G00X2.0422Y0.434
M15
G01X1.9674Y0.434
M16
G05
G00X2.1981Y0.434
M15
G01X2.1233Y0.434
M16
G05
G00X2.354Y0.434
M15
G01X2.2792Y0.434
M16
G05
G00X2.5099Y0.434
M15
G01X2.4351Y0.434
M16
G05
G00X2.6658Y0.434
M15
G01X2.591Y0.434
M16
G05
G00X2.8217Y0.434
M15
G01X2.7469Y0.434
M16
G05
G00X2.9776Y0.434
M15
G01X2.9028Y0.434
M16
G05
G00X3.1335Y0.434
M15
G01X3.0587Y0.434
M16
G05
G00X3.2894Y0.434
M15
G01X3.2146Y0.434
M16
G05
G00X3.4453Y0.434
M15
G01X3.3705Y0.434
M16
G05
G00X3.6012Y0.434
M15
G01X3.5264Y0.434
M16
G05
G00X3.7572Y0.434
M15
G01X3.6823Y0.434
M16
G05
G00X3.9131Y0.434
M15
G01X3.8383Y0.434
M16
G05
G00X4.069Y0.434
M15
G01X3.9942Y0.434
M16
G05
G00X4.2249Y0.434
M15
G01X4.1501Y0.434
M16
G05
G00X4.3808Y0.434
M15
G01X4.306Y0.434
M16
G05
G00X4.5367Y0.434
M15
G01X4.4619Y0.434
M16
G05
G00X4.6926Y0.434
M15
G01X4.6178Y0.434
M16
G05
G00X4.8485Y0.434
M15
G01X4.7737Y0.434
M16
G05
G00X5.0044Y0.434
M15
G01X4.9296Y0.434
M16
G05
G00X5.1603Y0.434
M15
G01X5.0855Y0.434
M16
G05
G00X5.3162Y0.434
M15
G01X5.2414Y0.434
M16
G05
G00X5.4721Y0.434
M15
G01X5.3973Y0.434
M16
G05
G00X5.628Y0.434
M15
G01X5.5532Y0.434
M16
G05
G00X5.7839Y0.434
M15
G01X5.7091Y0.434
M16
G05
G00X5.9398Y0.434
M15
G01X5.865Y0.434
M16
G05
G00X0.448Y0.873
M15
G01X0.5228Y0.873
M16
G05
G00X0.6039Y0.873
M15
G01X0.6787Y0.873
M16
G05
G00X0.7598Y0.873
M15
G01X0.8346Y0.873
M16
G05
G00X0.9157Y0.873
M15
G01X0.9905Y0.873
M16
G05
G00X1.0716Y0.873
M15
G01X1.1464Y0.873
M16
G05
G00X1.2275Y0.873
M15
G01X1.3023Y0.873
M16
G05
G00X1.3834Y0.873
M15
G01X1.4582Y0.873
M16
G05
G00X1.5393Y0.873
M15
G01X1.6141Y0.873
M16
G05
G00X1.6952Y0.873
M15
G01X1.77Y0.873
M16
G05
G00X1.8511Y0.873
M15
G01X1.9259Y0.873
M16
G05
G00X2.007Y0.873
M15
G01X2.0818Y0.873
M16
G05
G00X2.1629Y0.873
M15
G01X2.2377Y0.873
M16
G05
G00X2.3188Y0.873
M15
G01X2.3936Y0.873
M16
G05
G00X2.4747Y0.873
M15
G01X2.5495Y0.873
M16
G05
G00X2.6306Y0.873
M15
G01X2.7054Y0.873
M16
G05
G00X2.7865Y0.873
M15
G01X2.8614Y0.873
M16
G05
G00X2.9425Y0.873
M15
G01X3.0173Y0.873
M16
G05
G00X3.0984Y0.873
M15
G01X3.1732Y0.873
M16
G05
G00X3.2543Y0.873
M15
G01X3.3291Y0.873
M16
G05
G00X3.4102Y0.873
M15
G01X3.485Y0.873
M16
G05
G00X3.5661Y0.873
M15
G01X3.6409Y0.873
M16
G05
G00X3.722Y0.873
M15
G01X3.7968Y0.873
M16
G05
G00X3.8779Y0.873
M15
G01X3.9527Y0.873
M16
G05
G00X4.0338Y0.873
M15
G01X4.1086Y0.873
M16
G05
G00X4.1897Y0.873
M15
G01X4.2645Y0.873
M16
G05
G00X4.3456Y0.873
M15
G01X4.4204Y0.873
M16
G05
G00X4.5015Y0.873
M15
G01X4.5763Y0.873
M16
G05
G00X4.6574Y0.873
M15
G01X4.7322Y0.873
M16
G05
G00X4.8133Y0.873
M15
G01X4.8881Y0.873
M16
G05
G00X4.9692Y0.873
M15
G01X5.044Y0.873
M16
G05
T0
M30
