M48
; DRILL file {KiCad 5.1.6+dfsg1-1~bpo10+1} date Wed Aug 19 20:51:47 2020
; FORMAT={-:-/ absolute / inch / decimal}
; #@! TF.CreationDate,2020-08-19T20:51:47+03:00
; #@! TF.GenerationSoftware,Kicad,Pcbnew,5.1.6+dfsg1-1~bpo10+1
FMAT,2
INCH
T1C0.0100
T2C0.0118
T3C0.0200
T4C0.0315
T5C0.0394
T6C0.0433
T7C0.0591
T8C0.0454
%
G90
G05
T1
X0.0276Y1.1398
X0.1299Y0.8445
X0.1575Y1.1654
X0.1713Y1.2756
X0.2224Y0.8465
X0.2244Y1.187
X0.315Y0.8445
X0.3622Y1.1299
X0.4124Y1.189
X0.4154Y1.2313
X0.439Y0.9528
X0.5217Y0.9272
X0.561Y1.1102
X0.5738Y0.9419
X0.6102Y0.5433
X0.6299Y1.1004
X0.6398Y0.9331
X0.7047Y0.3819
X0.7483Y1.0753
X0.7489Y1.1285
X0.7894Y0.3012
X0.7997Y1.0783
X0.8003Y1.1266
X0.8228Y0.5315
X0.8543Y0.2303
X0.8603Y0.5019
X0.8622Y0.3898
X0.8799Y0.8327
X0.8863Y1.031
X0.8937Y0.9311
X0.8967Y1.2657
X0.9277Y0.204
X0.9449Y0.8189
X0.9724Y0.2756
X0.9902Y0.5315
X1.0173Y0.9874
X1.0374Y0.2126
X1.0453Y0.313
X1.0709Y0.2106
X1.0933Y0.2999
X1.1102Y0.1594
X1.1503Y1.0684
X1.1516Y1.1398
X1.201Y1.0104
X1.2037Y1.0696
X1.2306Y1.265
X1.3138Y0.2126
X1.3291Y0.6648
X1.3431Y0.8302
X1.3512Y1.0651
X1.3571Y0.9932
X1.3587Y0.1825
X1.3622Y0.565
X1.3646Y1.135
X1.3839Y0.2756
X1.4465Y0.1971
X1.4705Y0.0512
X1.4789Y1.0476
X1.499Y0.8302
X1.5079Y0.2008
X1.5126Y1.1144
X1.524Y0.3866
X1.53Y0.4955
X1.5626Y1.1172
X1.5795Y0.262
X1.6549Y0.8302
X1.6622Y1.122
X1.666Y0.4768
X1.6897Y0.0512
X1.7992Y1.1339
X1.8031Y1.0117
X1.8108Y0.8302
X1.8219Y0.4768
X1.8514Y0.2595
X1.909Y0.0512
X1.9278Y1.0025
X1.9667Y0.8302
X1.9778Y0.4768
X1.9882Y1.0187
X1.9918Y0.2595
X2.0648Y0.1939
X2.1159Y1.0187
X2.1226Y0.8302
X2.1337Y0.4768
X2.1633Y0.2101
X2.2436Y1.0187
X2.2591Y1.1339
X2.2635Y0.208
X2.2785Y0.8302
X2.2896Y0.4768
X2.3138Y0.2071
X2.3712Y1.0187
X2.4344Y0.8302
X2.4455Y0.4768
X2.4728Y0.2913
X2.4741Y0.1455
X2.4989Y1.0187
X2.5461Y0.1623
X2.5903Y0.8302
X2.5981Y0.2913
X2.6014Y0.4768
X2.6052Y1.1383
X2.6266Y1.0187
X2.6963Y1.1241
X2.7235Y0.2913
X2.7462Y0.8302
X2.7573Y0.4768
X2.7646Y0.1665
X2.7729Y1.1135
X2.823Y1.1123
X2.8642Y0.2913
X2.8732Y1.1093
X2.9021Y0.8302
X2.9132Y0.4768
X2.9232Y1.1129
X2.9291Y0.2913
X2.9975Y0.1614
X3.0433Y0.2913
X3.058Y0.8302
X3.0691Y0.4768
X3.0768Y1.1457
X3.0774Y1.0138
X3.1928Y0.1611
X3.2092Y1.016
X3.2139Y0.8302
X3.225Y0.4768
X3.2298Y0.291
X3.2462Y1.1459
X3.3616Y0.2932
X3.3622Y0.1614
X3.3698Y0.8302
X3.3809Y0.4768
X3.3957Y1.0157
X3.4415Y1.1456
X3.5098Y1.0157
X3.5158Y0.1941
X3.5258Y0.8302
X3.5368Y0.4768
X3.5658Y0.1977
X3.5748Y1.0157
X3.616Y0.1947
X3.6661Y0.1935
X3.6744Y1.1405
X3.6817Y0.8302
X3.6928Y0.4768
X3.7155Y1.0157
X3.7427Y0.1829
X3.8124Y0.2883
X3.8338Y0.1687
X3.8376Y0.8302
X3.8408Y1.0157
X3.8487Y0.4768
X3.8929Y1.1447
X3.9401Y0.2883
X3.9649Y1.1615
X3.9662Y1.0157
X3.9935Y0.8302
X4.0046Y0.4768
X4.0677Y0.2883
X4.1252Y1.0999
X4.1494Y0.8302
X4.1605Y0.4768
X4.1755Y1.099
X4.1799Y0.1732
X4.1954Y0.2883
X4.2757Y1.0969
X4.3053Y0.8302
X4.3164Y0.4768
X4.3231Y0.2883
X4.3742Y1.1131
X4.4471Y1.0476
X4.4508Y0.2883
X4.4612Y0.8302
X4.4723Y0.4768
X4.5112Y0.3045
X4.53Y1.2559
X4.5875Y1.0476
X4.6171Y0.8302
X4.6282Y0.4768
X4.6359Y0.2953
X4.6398Y0.1732
X4.7493Y1.2559
X4.773Y0.8302
X4.7768Y0.185
X4.7841Y0.4768
X4.8595Y1.045
X4.8764Y0.1898
X4.909Y0.8115
X4.915Y0.9204
X4.9264Y0.1926
X4.9311Y1.1063
X4.94Y0.4768
X4.96Y0.2595
X4.9685Y1.2559
X4.9925Y1.1099
X5.0551Y1.0315
X5.0744Y0.172
X5.0768Y0.7421
X5.0803Y1.1245
X5.0819Y0.3138
X5.0878Y0.2419
X5.0959Y0.4768
X5.1099Y0.6422
X5.1252Y1.0945
X5.2084Y0.042
X5.2353Y0.2374
X5.238Y0.2966
X5.2874Y0.1673
X5.2887Y0.2386
X5.3287Y1.1476
X5.3457Y1.0071
X5.3681Y1.0965
X5.3937Y0.9941
X5.4016Y1.0945
X5.4217Y0.3197
X5.4488Y0.7756
X5.4665Y1.0315
X5.4941Y0.4882
X5.5113Y1.1031
X5.5423Y0.0413
X5.5453Y0.376
X5.5527Y0.276
X5.5591Y0.4744
X5.5768Y0.9173
X5.5787Y0.8052
X5.5846Y1.0768
X5.6161Y0.7756
X5.6387Y0.1804
X5.6393Y0.2287
X5.6496Y1.0059
X5.6901Y0.1785
X5.6907Y0.2317
X5.7343Y0.9252
X5.7992Y0.374
X5.8091Y0.2067
X5.8287Y0.7638
X5.8652Y0.3652
X5.878Y0.1969
X5.9173Y0.3799
X6.0Y0.3543
X6.0236Y0.0758
X6.0266Y0.1181
X6.0768Y0.1772
X6.124Y0.4626
X6.2146Y0.1201
X6.2165Y0.4606
X6.2677Y0.0315
X6.2815Y0.1417
X6.3091Y0.4626
X6.4114Y0.1673
T2
X5.9991Y0.7206
X6.0464Y0.7206
X6.0936Y0.7206
X6.0432Y1.0806
X6.0905Y1.0806
X6.1377Y1.0806
X0.3013Y0.2265
X0.3485Y0.2265
X0.3957Y0.2265
X0.3454Y0.5865
X0.3926Y0.5865
X0.4398Y0.5865
T3
X0.4741Y0.3255
X0.4754Y1.0827
X0.4793Y1.1299
X0.6998Y1.127
X0.6998Y1.0807
X0.9567Y0.4311
X5.4823Y0.876
X5.7392Y0.2264
X5.7392Y0.1801
X5.9596Y0.1772
X5.9636Y0.2244
X5.9649Y0.9815
T5
X4.8217Y0.7418
X4.8217Y0.6418
X4.9217Y0.7418
X4.9217Y0.6418
X5.0217Y0.7418
X5.0217Y0.6418
X1.4173Y0.6652
X1.4173Y0.5652
X1.5173Y0.6652
X1.5173Y0.5652
X1.6173Y0.6652
X1.6173Y0.5652
T6
X5.2466Y1.2349
X5.2466Y0.6349
X5.3466Y1.2349
X5.3466Y0.6349
X5.4466Y1.2349
X5.4466Y0.6349
X5.5466Y1.2349
X5.5466Y0.6349
X5.6466Y1.2349
X5.6466Y0.6349
X5.7466Y1.2349
X5.7466Y0.6349
X5.8466Y1.2349
X5.8466Y0.6349
X5.9466Y1.2349
X5.9466Y0.6349
X6.0466Y1.2349
X6.0466Y0.6349
X6.1466Y1.2349
X6.1466Y0.6349
X6.2466Y1.2349
X6.2466Y0.6349
X6.3466Y1.2349
X6.3466Y0.6349
X0.0924Y0.6722
X0.0924Y0.0722
X0.1924Y0.6722
X0.1924Y0.0722
X0.2924Y0.6722
X0.2924Y0.0722
X0.3924Y0.6722
X0.3924Y0.0722
X0.4924Y0.6722
X0.4924Y0.0722
X0.5924Y0.6722
X0.5924Y0.0722
X0.6924Y0.6722
X0.6924Y0.0722
X0.7924Y0.6722
X0.7924Y0.0722
X0.8924Y0.6722
X0.8924Y0.0722
X0.9924Y0.6722
X0.9924Y0.0722
X1.0924Y0.6722
X1.0924Y0.0722
X1.1924Y0.6722
X1.1924Y0.0722
T7
X0.0728Y1.2343
X6.3661Y0.0728
T8
X6.2205Y0.065
X6.3327Y1.1201
X0.1063Y0.187
X0.2185Y1.2421
T4
G00X1.4698Y0.434
M15
G01X1.3949Y0.434
M16
G05
G00X1.6257Y0.434
M15
G01X1.5509Y0.434
M16
G05
G00X1.7816Y0.434
M15
G01X1.7068Y0.434
M16
G05
G00X1.9375Y0.434
M15
G01X1.8627Y0.434
M16
G05
G00X2.0934Y0.434
M15
G01X2.0186Y0.434
M16
G05
G00X2.2493Y0.434
M15
G01X2.1745Y0.434
M16
G05
G00X2.4052Y0.434
M15
G01X2.3304Y0.434
M16
G05
G00X2.5611Y0.434
M15
G01X2.4863Y0.434
M16
G05
G00X2.717Y0.434
M15
G01X2.6422Y0.434
M16
G05
G00X2.8729Y0.434
M15
G01X2.7981Y0.434
M16
G05
G00X3.0288Y0.434
M15
G01X2.954Y0.434
M16
G05
G00X3.1847Y0.434
M15
G01X3.1099Y0.434
M16
G05
G00X3.3406Y0.434
M15
G01X3.2658Y0.434
M16
G05
G00X3.4965Y0.434
M15
G01X3.4217Y0.434
M16
G05
G00X3.6524Y0.434
M15
G01X3.5776Y0.434
M16
G05
G00X3.8083Y0.434
M15
G01X3.7335Y0.434
M16
G05
G00X3.9642Y0.434
M15
G01X3.8894Y0.434
M16
G05
G00X4.1201Y0.434
M15
G01X4.0453Y0.434
M16
G05
G00X4.276Y0.434
M15
G01X4.2012Y0.434
M16
G05
G00X4.432Y0.434
M15
G01X4.3572Y0.434
M16
G05
G00X4.5879Y0.434
M15
G01X4.5131Y0.434
M16
G05
G00X4.7438Y0.434
M15
G01X4.669Y0.434
M16
G05
G00X4.8997Y0.434
M15
G01X4.8249Y0.434
M16
G05
G00X5.0556Y0.434
M15
G01X4.9808Y0.434
M16
G05
G00X5.2115Y0.434
M15
G01X5.1367Y0.434
M16
G05
G00X5.3674Y0.434
M15
G01X5.2926Y0.434
M16
G05
G00X5.5233Y0.434
M15
G01X5.4485Y0.434
M16
G05
G00X5.6792Y0.434
M15
G01X5.6044Y0.434
M16
G05
G00X5.8351Y0.434
M15
G01X5.7603Y0.434
M16
G05
G00X5.991Y0.434
M15
G01X5.9162Y0.434
M16
G05
G00X0.448Y0.873
M15
G01X0.5228Y0.873
M16
G05
G00X0.6039Y0.873
M15
G01X0.6787Y0.873
M16
G05
G00X0.7598Y0.873
M15
G01X0.8346Y0.873
M16
G05
G00X0.9157Y0.873
M15
G01X0.9905Y0.873
M16
G05
G00X1.0716Y0.873
M15
G01X1.1464Y0.873
M16
G05
G00X1.2275Y0.873
M15
G01X1.3023Y0.873
M16
G05
G00X1.3834Y0.873
M15
G01X1.4582Y0.873
M16
G05
G00X1.5393Y0.873
M15
G01X1.6141Y0.873
M16
G05
G00X1.6952Y0.873
M15
G01X1.77Y0.873
M16
G05
G00X1.8511Y0.873
M15
G01X1.9259Y0.873
M16
G05
G00X2.007Y0.873
M15
G01X2.0818Y0.873
M16
G05
G00X2.1629Y0.873
M15
G01X2.2377Y0.873
M16
G05
G00X2.3188Y0.873
M15
G01X2.3936Y0.873
M16
G05
G00X2.4747Y0.873
M15
G01X2.5495Y0.873
M16
G05
G00X2.6306Y0.873
M15
G01X2.7054Y0.873
M16
G05
G00X2.7865Y0.873
M15
G01X2.8614Y0.873
M16
G05
G00X2.9425Y0.873
M15
G01X3.0173Y0.873
M16
G05
G00X3.0984Y0.873
M15
G01X3.1732Y0.873
M16
G05
G00X3.2543Y0.873
M15
G01X3.3291Y0.873
M16
G05
G00X3.4102Y0.873
M15
G01X3.485Y0.873
M16
G05
G00X3.5661Y0.873
M15
G01X3.6409Y0.873
M16
G05
G00X3.722Y0.873
M15
G01X3.7968Y0.873
M16
G05
G00X3.8779Y0.873
M15
G01X3.9527Y0.873
M16
G05
G00X4.0338Y0.873
M15
G01X4.1086Y0.873
M16
G05
G00X4.1897Y0.873
M15
G01X4.2645Y0.873
M16
G05
G00X4.3456Y0.873
M15
G01X4.4204Y0.873
M16
G05
G00X4.5015Y0.873
M15
G01X4.5763Y0.873
M16
G05
G00X4.6574Y0.873
M15
G01X4.7322Y0.873
M16
G05
G00X4.8133Y0.873
M15
G01X4.8881Y0.873
M16
G05
G00X4.9692Y0.873
M15
G01X5.044Y0.873
M16
G05
T0
M30
