G04 #@! TF.GenerationSoftware,KiCad,Pcbnew,5.1.6+dfsg1-1~bpo10+1*
G04 #@! TF.CreationDate,2020-08-19T20:51:39+03:00*
G04 #@! TF.ProjectId,CompactBeamspringP2,436f6d70-6163-4744-9265-616d73707269,0.0.3*
G04 #@! TF.SameCoordinates,PX68f3ad0PY7d80e80*
G04 #@! TF.FileFunction,Legend,Top*
G04 #@! TF.FilePolarity,Positive*
%FSLAX46Y46*%
G04 Gerber Fmt 4.6, Leading zero omitted, Abs format (unit mm)*
G04 Created by KiCad (PCBNEW 5.1.6+dfsg1-1~bpo10+1) date 2020-08-19 20:51:39*
%MOMM*%
%LPD*%
G01*
G04 APERTURE LIST*
%ADD10C,0.150000*%
%ADD11C,0.120000*%
G04 APERTURE END LIST*
D10*
X86430952Y7847620D02*
X86430952Y7133334D01*
X86383333Y6990477D01*
X86288095Y6895239D01*
X86145238Y6847620D01*
X86050000Y6847620D01*
X87383333Y6847620D02*
X86907142Y6847620D01*
X86907142Y7847620D01*
X88288095Y6942858D02*
X88240476Y6895239D01*
X88097619Y6847620D01*
X88002380Y6847620D01*
X87859523Y6895239D01*
X87764285Y6990477D01*
X87716666Y7085715D01*
X87669047Y7276191D01*
X87669047Y7419048D01*
X87716666Y7609524D01*
X87764285Y7704762D01*
X87859523Y7800000D01*
X88002380Y7847620D01*
X88097619Y7847620D01*
X88240476Y7800000D01*
X88288095Y7752381D01*
X89002380Y7847620D02*
X89002380Y7133334D01*
X88954761Y6990477D01*
X88859523Y6895239D01*
X88716666Y6847620D01*
X88621428Y6847620D01*
X89954761Y6847620D02*
X89478571Y6847620D01*
X89478571Y7847620D01*
X90859523Y6942858D02*
X90811904Y6895239D01*
X90669047Y6847620D01*
X90573809Y6847620D01*
X90430952Y6895239D01*
X90335714Y6990477D01*
X90288095Y7085715D01*
X90240476Y7276191D01*
X90240476Y7419048D01*
X90288095Y7609524D01*
X90335714Y7704762D01*
X90430952Y7800000D01*
X90573809Y7847620D01*
X90669047Y7847620D01*
X90811904Y7800000D01*
X90859523Y7752381D01*
X91573809Y7847620D02*
X91573809Y7133334D01*
X91526190Y6990477D01*
X91430952Y6895239D01*
X91288095Y6847620D01*
X91192857Y6847620D01*
X92526190Y6847620D02*
X92050000Y6847620D01*
X92050000Y7847620D01*
X93430952Y6942858D02*
X93383333Y6895239D01*
X93240476Y6847620D01*
X93145238Y6847620D01*
X93002380Y6895239D01*
X92907142Y6990477D01*
X92859523Y7085715D01*
X92811904Y7276191D01*
X92811904Y7419048D01*
X92859523Y7609524D01*
X92907142Y7704762D01*
X93002380Y7800000D01*
X93145238Y7847620D01*
X93240476Y7847620D01*
X93383333Y7800000D01*
X93430952Y7752381D01*
X94145238Y7847620D02*
X94145238Y7133334D01*
X94097619Y6990477D01*
X94002380Y6895239D01*
X93859523Y6847620D01*
X93764285Y6847620D01*
X95097619Y6847620D02*
X94621428Y6847620D01*
X94621428Y7847620D01*
X96002380Y6942858D02*
X95954761Y6895239D01*
X95811904Y6847620D01*
X95716666Y6847620D01*
X95573809Y6895239D01*
X95478571Y6990477D01*
X95430952Y7085715D01*
X95383333Y7276191D01*
X95383333Y7419048D01*
X95430952Y7609524D01*
X95478571Y7704762D01*
X95573809Y7800000D01*
X95716666Y7847620D01*
X95811904Y7847620D01*
X95954761Y7800000D01*
X96002380Y7752381D01*
D11*
X34668880Y13027100D02*
X34668880Y14357100D01*
X35998880Y13027100D02*
X34668880Y13027100D01*
X34668880Y15627100D02*
X34668880Y18227100D01*
X37268880Y15627100D02*
X34668880Y15627100D01*
X37268880Y13027100D02*
X37268880Y15627100D01*
X34668880Y18227100D02*
X42408880Y18227100D01*
X37268880Y13027100D02*
X42408880Y13027100D01*
X42408880Y13027100D02*
X42408880Y18227100D01*
D10*
X1076900Y563380D02*
X31556900Y563380D01*
X1076900Y563380D02*
X1076900Y5643380D01*
X1076900Y5643380D02*
X-1463100Y5643380D01*
X-1463100Y5643380D02*
X-1463100Y13263380D01*
X-1463100Y13263380D02*
X1076900Y13263380D01*
X1076900Y13263380D02*
X1076900Y18343380D01*
X1076900Y18343380D02*
X31556900Y18343380D01*
X31556900Y18343380D02*
X31556900Y563380D01*
D11*
X128881120Y20172900D02*
X128881120Y18842900D01*
X127551120Y20172900D02*
X128881120Y20172900D01*
X128881120Y17572900D02*
X128881120Y14972900D01*
X126281120Y17572900D02*
X128881120Y17572900D01*
X126281120Y20172900D02*
X126281120Y17572900D01*
X128881120Y14972900D02*
X121141120Y14972900D01*
X126281120Y20172900D02*
X121141120Y20172900D01*
X121141120Y20172900D02*
X121141120Y14972900D01*
D10*
X162473100Y32636620D02*
X131993100Y32636620D01*
X162473100Y32636620D02*
X162473100Y27556620D01*
X162473100Y27556620D02*
X165013100Y27556620D01*
X165013100Y27556620D02*
X165013100Y19936620D01*
X165013100Y19936620D02*
X162473100Y19936620D01*
X162473100Y19936620D02*
X162473100Y14856620D01*
X162473100Y14856620D02*
X131993100Y14856620D01*
X131993100Y14856620D02*
X131993100Y32636620D01*
X34216499Y15960434D02*
X33502213Y15960434D01*
X33359356Y16008053D01*
X33264118Y16103291D01*
X33216499Y16246148D01*
X33216499Y16341386D01*
X34216499Y15579481D02*
X34216499Y14960434D01*
X33835546Y15293767D01*
X33835546Y15150910D01*
X33787927Y15055672D01*
X33740308Y15008053D01*
X33645070Y14960434D01*
X33406975Y14960434D01*
X33311737Y15008053D01*
X33264118Y15055672D01*
X33216499Y15150910D01*
X33216499Y15436624D01*
X33264118Y15531862D01*
X33311737Y15579481D01*
X13727430Y14455900D02*
X13727430Y15455900D01*
X14108382Y15455900D01*
X14203620Y15408280D01*
X14251240Y15360661D01*
X14298859Y15265423D01*
X14298859Y15122566D01*
X14251240Y15027328D01*
X14203620Y14979709D01*
X14108382Y14932090D01*
X13727430Y14932090D01*
X14727430Y14455900D02*
X14727430Y15122566D01*
X14727430Y14932090D02*
X14775049Y15027328D01*
X14822668Y15074947D01*
X14917906Y15122566D01*
X15013144Y15122566D01*
X15489335Y14455900D02*
X15394097Y14503519D01*
X15346478Y14551138D01*
X15298859Y14646376D01*
X15298859Y14932090D01*
X15346478Y15027328D01*
X15394097Y15074947D01*
X15489335Y15122566D01*
X15632192Y15122566D01*
X15727430Y15074947D01*
X15775049Y15027328D01*
X15822668Y14932090D01*
X15822668Y14646376D01*
X15775049Y14551138D01*
X15727430Y14503519D01*
X15632192Y14455900D01*
X15489335Y14455900D01*
X16251240Y14455900D02*
X16251240Y15455900D01*
X16584573Y14741614D01*
X16917906Y15455900D01*
X16917906Y14455900D01*
X17394097Y14455900D02*
X17394097Y15122566D01*
X17394097Y15455900D02*
X17346478Y15408280D01*
X17394097Y15360661D01*
X17441716Y15408280D01*
X17394097Y15455900D01*
X17394097Y15360661D01*
X18298859Y14503519D02*
X18203620Y14455900D01*
X18013144Y14455900D01*
X17917906Y14503519D01*
X17870287Y14551138D01*
X17822668Y14646376D01*
X17822668Y14932090D01*
X17870287Y15027328D01*
X17917906Y15074947D01*
X18013144Y15122566D01*
X18203620Y15122566D01*
X18298859Y15074947D01*
X18727430Y14455900D02*
X18727430Y15122566D01*
X18727430Y14932090D02*
X18775049Y15027328D01*
X18822668Y15074947D01*
X18917906Y15122566D01*
X19013144Y15122566D01*
X19489335Y14455900D02*
X19394097Y14503519D01*
X19346478Y14551138D01*
X19298859Y14646376D01*
X19298859Y14932090D01*
X19346478Y15027328D01*
X19394097Y15074947D01*
X19489335Y15122566D01*
X19632192Y15122566D01*
X19727430Y15074947D01*
X19775049Y15027328D01*
X19822668Y14932090D01*
X19822668Y14646376D01*
X19775049Y14551138D01*
X19727430Y14503519D01*
X19632192Y14455900D01*
X19489335Y14455900D01*
X129333500Y17239567D02*
X130047786Y17239567D01*
X130190643Y17191948D01*
X130285881Y17096710D01*
X130333500Y16953853D01*
X130333500Y16858615D01*
X129333500Y17620520D02*
X129333500Y18239567D01*
X129714453Y17906234D01*
X129714453Y18049091D01*
X129762072Y18144329D01*
X129809691Y18191948D01*
X129904929Y18239567D01*
X130143024Y18239567D01*
X130238262Y18191948D01*
X130285881Y18144329D01*
X130333500Y18049091D01*
X130333500Y17763377D01*
X130285881Y17668139D01*
X130238262Y17620520D01*
X149822569Y18744101D02*
X149822569Y17744101D01*
X149441617Y17744101D01*
X149346379Y17791720D01*
X149298760Y17839340D01*
X149251140Y17934578D01*
X149251140Y18077435D01*
X149298760Y18172673D01*
X149346379Y18220292D01*
X149441617Y18267911D01*
X149822569Y18267911D01*
X148822569Y18744101D02*
X148822569Y18077435D01*
X148822569Y18267911D02*
X148774950Y18172673D01*
X148727331Y18125054D01*
X148632093Y18077435D01*
X148536855Y18077435D01*
X148060664Y18744101D02*
X148155902Y18696482D01*
X148203521Y18648863D01*
X148251140Y18553625D01*
X148251140Y18267911D01*
X148203521Y18172673D01*
X148155902Y18125054D01*
X148060664Y18077435D01*
X147917807Y18077435D01*
X147822569Y18125054D01*
X147774950Y18172673D01*
X147727331Y18267911D01*
X147727331Y18553625D01*
X147774950Y18648863D01*
X147822569Y18696482D01*
X147917807Y18744101D01*
X148060664Y18744101D01*
X147298760Y18744101D02*
X147298760Y17744101D01*
X146965426Y18458387D01*
X146632093Y17744101D01*
X146632093Y18744101D01*
X146155902Y18744101D02*
X146155902Y18077435D01*
X146155902Y17744101D02*
X146203521Y17791720D01*
X146155902Y17839340D01*
X146108283Y17791720D01*
X146155902Y17744101D01*
X146155902Y17839340D01*
X145251140Y18696482D02*
X145346379Y18744101D01*
X145536855Y18744101D01*
X145632093Y18696482D01*
X145679712Y18648863D01*
X145727331Y18553625D01*
X145727331Y18267911D01*
X145679712Y18172673D01*
X145632093Y18125054D01*
X145536855Y18077435D01*
X145346379Y18077435D01*
X145251140Y18125054D01*
X144822569Y18744101D02*
X144822569Y18077435D01*
X144822569Y18267911D02*
X144774950Y18172673D01*
X144727331Y18125054D01*
X144632093Y18077435D01*
X144536855Y18077435D01*
X144060664Y18744101D02*
X144155902Y18696482D01*
X144203521Y18648863D01*
X144251140Y18553625D01*
X144251140Y18267911D01*
X144203521Y18172673D01*
X144155902Y18125054D01*
X144060664Y18077435D01*
X143917807Y18077435D01*
X143822569Y18125054D01*
X143774950Y18172673D01*
X143727331Y18267911D01*
X143727331Y18553625D01*
X143774950Y18648863D01*
X143822569Y18696482D01*
X143917807Y18744101D01*
X144060664Y18744101D01*
M02*
