G04 #@! TF.GenerationSoftware,KiCad,Pcbnew,5.1.6+dfsg1-1~bpo10+1*
G04 #@! TF.CreationDate,2020-08-19T20:51:39+03:00*
G04 #@! TF.ProjectId,CompactBeamspringP2,436f6d70-6163-4744-9265-616d73707269,0.0.3*
G04 #@! TF.SameCoordinates,PX68f3ad0PY7d80e80*
G04 #@! TF.FileFunction,Paste,Bot*
G04 #@! TF.FilePolarity,Positive*
%FSLAX46Y46*%
G04 Gerber Fmt 4.6, Leading zero omitted, Abs format (unit mm)*
G04 Created by KiCad (PCBNEW 5.1.6+dfsg1-1~bpo10+1) date 2020-08-19 20:51:39*
%MOMM*%
%LPD*%
G01*
G04 APERTURE LIST*
%ADD10R,3.000000X3.000000*%
G04 APERTURE END LIST*
G36*
G01*
X157200001Y10600000D02*
X156299999Y10600000D01*
G75*
G02*
X156050000Y10849999I0J249999D01*
G01*
X156050000Y11500001D01*
G75*
G02*
X156299999Y11750000I249999J0D01*
G01*
X157200001Y11750000D01*
G75*
G02*
X157450000Y11500001I0J-249999D01*
G01*
X157450000Y10849999D01*
G75*
G02*
X157200001Y10600000I-249999J0D01*
G01*
G37*
G36*
G01*
X157200001Y8550000D02*
X156299999Y8550000D01*
G75*
G02*
X156050000Y8799999I0J249999D01*
G01*
X156050000Y9450001D01*
G75*
G02*
X156299999Y9700000I249999J0D01*
G01*
X157200001Y9700000D01*
G75*
G02*
X157450000Y9450001I0J-249999D01*
G01*
X157450000Y8799999D01*
G75*
G02*
X157200001Y8550000I-249999J0D01*
G01*
G37*
G36*
G01*
X161900001Y10600000D02*
X160999999Y10600000D01*
G75*
G02*
X160750000Y10849999I0J249999D01*
G01*
X160750000Y11500001D01*
G75*
G02*
X160999999Y11750000I249999J0D01*
G01*
X161900001Y11750000D01*
G75*
G02*
X162150000Y11500001I0J-249999D01*
G01*
X162150000Y10849999D01*
G75*
G02*
X161900001Y10600000I-249999J0D01*
G01*
G37*
G36*
G01*
X161900001Y8550000D02*
X160999999Y8550000D01*
G75*
G02*
X160750000Y8799999I0J249999D01*
G01*
X160750000Y9450001D01*
G75*
G02*
X160999999Y9700000I249999J0D01*
G01*
X161900001Y9700000D01*
G75*
G02*
X162150000Y9450001I0J-249999D01*
G01*
X162150000Y8799999D01*
G75*
G02*
X161900001Y8550000I-249999J0D01*
G01*
G37*
G36*
G01*
X159550001Y10600000D02*
X158649999Y10600000D01*
G75*
G02*
X158400000Y10849999I0J249999D01*
G01*
X158400000Y11500001D01*
G75*
G02*
X158649999Y11750000I249999J0D01*
G01*
X159550001Y11750000D01*
G75*
G02*
X159800000Y11500001I0J-249999D01*
G01*
X159800000Y10849999D01*
G75*
G02*
X159550001Y10600000I-249999J0D01*
G01*
G37*
G36*
G01*
X159550001Y8550000D02*
X158649999Y8550000D01*
G75*
G02*
X158400000Y8799999I0J249999D01*
G01*
X158400000Y9450001D01*
G75*
G02*
X158649999Y9700000I249999J0D01*
G01*
X159550001Y9700000D01*
G75*
G02*
X159800000Y9450001I0J-249999D01*
G01*
X159800000Y8799999D01*
G75*
G02*
X159550001Y8550000I-249999J0D01*
G01*
G37*
G36*
G01*
X154850001Y10600000D02*
X153949999Y10600000D01*
G75*
G02*
X153700000Y10849999I0J249999D01*
G01*
X153700000Y11500001D01*
G75*
G02*
X153949999Y11750000I249999J0D01*
G01*
X154850001Y11750000D01*
G75*
G02*
X155100000Y11500001I0J-249999D01*
G01*
X155100000Y10849999D01*
G75*
G02*
X154850001Y10600000I-249999J0D01*
G01*
G37*
G36*
G01*
X154850001Y8550000D02*
X153949999Y8550000D01*
G75*
G02*
X153700000Y8799999I0J249999D01*
G01*
X153700000Y9450001D01*
G75*
G02*
X153949999Y9700000I249999J0D01*
G01*
X154850001Y9700000D01*
G75*
G02*
X155100000Y9450001I0J-249999D01*
G01*
X155100000Y8799999D01*
G75*
G02*
X154850001Y8550000I-249999J0D01*
G01*
G37*
D10*
X7800000Y10875000D03*
X4300000Y10875000D03*
G36*
G01*
X143092760Y8630080D02*
X143392760Y8630080D01*
G75*
G02*
X143542760Y8480080I0J-150000D01*
G01*
X143542760Y6830080D01*
G75*
G02*
X143392760Y6680080I-150000J0D01*
G01*
X143092760Y6680080D01*
G75*
G02*
X142942760Y6830080I0J150000D01*
G01*
X142942760Y8480080D01*
G75*
G02*
X143092760Y8630080I150000J0D01*
G01*
G37*
G36*
G01*
X144362760Y8630080D02*
X144662760Y8630080D01*
G75*
G02*
X144812760Y8480080I0J-150000D01*
G01*
X144812760Y6830080D01*
G75*
G02*
X144662760Y6680080I-150000J0D01*
G01*
X144362760Y6680080D01*
G75*
G02*
X144212760Y6830080I0J150000D01*
G01*
X144212760Y8480080D01*
G75*
G02*
X144362760Y8630080I150000J0D01*
G01*
G37*
G36*
G01*
X145632760Y8630080D02*
X145932760Y8630080D01*
G75*
G02*
X146082760Y8480080I0J-150000D01*
G01*
X146082760Y6830080D01*
G75*
G02*
X145932760Y6680080I-150000J0D01*
G01*
X145632760Y6680080D01*
G75*
G02*
X145482760Y6830080I0J150000D01*
G01*
X145482760Y8480080D01*
G75*
G02*
X145632760Y8630080I150000J0D01*
G01*
G37*
G36*
G01*
X146902760Y8630080D02*
X147202760Y8630080D01*
G75*
G02*
X147352760Y8480080I0J-150000D01*
G01*
X147352760Y6830080D01*
G75*
G02*
X147202760Y6680080I-150000J0D01*
G01*
X146902760Y6680080D01*
G75*
G02*
X146752760Y6830080I0J150000D01*
G01*
X146752760Y8480080D01*
G75*
G02*
X146902760Y8630080I150000J0D01*
G01*
G37*
G36*
G01*
X148172760Y8630080D02*
X148472760Y8630080D01*
G75*
G02*
X148622760Y8480080I0J-150000D01*
G01*
X148622760Y6830080D01*
G75*
G02*
X148472760Y6680080I-150000J0D01*
G01*
X148172760Y6680080D01*
G75*
G02*
X148022760Y6830080I0J150000D01*
G01*
X148022760Y8480080D01*
G75*
G02*
X148172760Y8630080I150000J0D01*
G01*
G37*
G36*
G01*
X149442760Y8630080D02*
X149742760Y8630080D01*
G75*
G02*
X149892760Y8480080I0J-150000D01*
G01*
X149892760Y6830080D01*
G75*
G02*
X149742760Y6680080I-150000J0D01*
G01*
X149442760Y6680080D01*
G75*
G02*
X149292760Y6830080I0J150000D01*
G01*
X149292760Y8480080D01*
G75*
G02*
X149442760Y8630080I150000J0D01*
G01*
G37*
G36*
G01*
X150712760Y8630080D02*
X151012760Y8630080D01*
G75*
G02*
X151162760Y8480080I0J-150000D01*
G01*
X151162760Y6830080D01*
G75*
G02*
X151012760Y6680080I-150000J0D01*
G01*
X150712760Y6680080D01*
G75*
G02*
X150562760Y6830080I0J150000D01*
G01*
X150562760Y8480080D01*
G75*
G02*
X150712760Y8630080I150000J0D01*
G01*
G37*
G36*
G01*
X150712760Y3680080D02*
X151012760Y3680080D01*
G75*
G02*
X151162760Y3530080I0J-150000D01*
G01*
X151162760Y1880080D01*
G75*
G02*
X151012760Y1730080I-150000J0D01*
G01*
X150712760Y1730080D01*
G75*
G02*
X150562760Y1880080I0J150000D01*
G01*
X150562760Y3530080D01*
G75*
G02*
X150712760Y3680080I150000J0D01*
G01*
G37*
G36*
G01*
X149442760Y3680080D02*
X149742760Y3680080D01*
G75*
G02*
X149892760Y3530080I0J-150000D01*
G01*
X149892760Y1880080D01*
G75*
G02*
X149742760Y1730080I-150000J0D01*
G01*
X149442760Y1730080D01*
G75*
G02*
X149292760Y1880080I0J150000D01*
G01*
X149292760Y3530080D01*
G75*
G02*
X149442760Y3680080I150000J0D01*
G01*
G37*
G36*
G01*
X148172760Y3680080D02*
X148472760Y3680080D01*
G75*
G02*
X148622760Y3530080I0J-150000D01*
G01*
X148622760Y1880080D01*
G75*
G02*
X148472760Y1730080I-150000J0D01*
G01*
X148172760Y1730080D01*
G75*
G02*
X148022760Y1880080I0J150000D01*
G01*
X148022760Y3530080D01*
G75*
G02*
X148172760Y3680080I150000J0D01*
G01*
G37*
G36*
G01*
X146902760Y3680080D02*
X147202760Y3680080D01*
G75*
G02*
X147352760Y3530080I0J-150000D01*
G01*
X147352760Y1880080D01*
G75*
G02*
X147202760Y1730080I-150000J0D01*
G01*
X146902760Y1730080D01*
G75*
G02*
X146752760Y1880080I0J150000D01*
G01*
X146752760Y3530080D01*
G75*
G02*
X146902760Y3680080I150000J0D01*
G01*
G37*
G36*
G01*
X145632760Y3680080D02*
X145932760Y3680080D01*
G75*
G02*
X146082760Y3530080I0J-150000D01*
G01*
X146082760Y1880080D01*
G75*
G02*
X145932760Y1730080I-150000J0D01*
G01*
X145632760Y1730080D01*
G75*
G02*
X145482760Y1880080I0J150000D01*
G01*
X145482760Y3530080D01*
G75*
G02*
X145632760Y3680080I150000J0D01*
G01*
G37*
G36*
G01*
X144362760Y3680080D02*
X144662760Y3680080D01*
G75*
G02*
X144812760Y3530080I0J-150000D01*
G01*
X144812760Y1880080D01*
G75*
G02*
X144662760Y1730080I-150000J0D01*
G01*
X144362760Y1730080D01*
G75*
G02*
X144212760Y1880080I0J150000D01*
G01*
X144212760Y3530080D01*
G75*
G02*
X144362760Y3680080I150000J0D01*
G01*
G37*
G36*
G01*
X143092760Y3680080D02*
X143392760Y3680080D01*
G75*
G02*
X143542760Y3530080I0J-150000D01*
G01*
X143542760Y1880080D01*
G75*
G02*
X143392760Y1730080I-150000J0D01*
G01*
X143092760Y1730080D01*
G75*
G02*
X142942760Y1880080I0J150000D01*
G01*
X142942760Y3530080D01*
G75*
G02*
X143092760Y3680080I150000J0D01*
G01*
G37*
G36*
G01*
X153573361Y5988220D02*
X152673359Y5988220D01*
G75*
G02*
X152423360Y6238219I0J249999D01*
G01*
X152423360Y6888221D01*
G75*
G02*
X152673359Y7138220I249999J0D01*
G01*
X153573361Y7138220D01*
G75*
G02*
X153823360Y6888221I0J-249999D01*
G01*
X153823360Y6238219D01*
G75*
G02*
X153573361Y5988220I-249999J0D01*
G01*
G37*
G36*
G01*
X153573361Y3938220D02*
X152673359Y3938220D01*
G75*
G02*
X152423360Y4188219I0J249999D01*
G01*
X152423360Y4838221D01*
G75*
G02*
X152673359Y5088220I249999J0D01*
G01*
X153573361Y5088220D01*
G75*
G02*
X153823360Y4838221I0J-249999D01*
G01*
X153823360Y4188219D01*
G75*
G02*
X153573361Y3938220I-249999J0D01*
G01*
G37*
G36*
G01*
X29850000Y8874999D02*
X29850000Y9775001D01*
G75*
G02*
X30099999Y10025000I249999J0D01*
G01*
X30750001Y10025000D01*
G75*
G02*
X31000000Y9775001I0J-249999D01*
G01*
X31000000Y8874999D01*
G75*
G02*
X30750001Y8625000I-249999J0D01*
G01*
X30099999Y8625000D01*
G75*
G02*
X29850000Y8874999I0J249999D01*
G01*
G37*
G36*
G01*
X27800000Y8874999D02*
X27800000Y9775001D01*
G75*
G02*
X28049999Y10025000I249999J0D01*
G01*
X28700001Y10025000D01*
G75*
G02*
X28950000Y9775001I0J-249999D01*
G01*
X28950000Y8874999D01*
G75*
G02*
X28700001Y8625000I-249999J0D01*
G01*
X28049999Y8625000D01*
G75*
G02*
X27800000Y8874999I0J249999D01*
G01*
G37*
G36*
G01*
X28950000Y13775001D02*
X28950000Y12874999D01*
G75*
G02*
X28700001Y12625000I-249999J0D01*
G01*
X28049999Y12625000D01*
G75*
G02*
X27800000Y12874999I0J249999D01*
G01*
X27800000Y13775001D01*
G75*
G02*
X28049999Y14025000I249999J0D01*
G01*
X28700001Y14025000D01*
G75*
G02*
X28950000Y13775001I0J-249999D01*
G01*
G37*
G36*
G01*
X31000000Y13775001D02*
X31000000Y12874999D01*
G75*
G02*
X30750001Y12625000I-249999J0D01*
G01*
X30099999Y12625000D01*
G75*
G02*
X29850000Y12874999I0J249999D01*
G01*
X29850000Y13775001D01*
G75*
G02*
X30099999Y14025000I249999J0D01*
G01*
X30750001Y14025000D01*
G75*
G02*
X31000000Y13775001I0J-249999D01*
G01*
G37*
G36*
G01*
X29850000Y10874999D02*
X29850000Y11775001D01*
G75*
G02*
X30099999Y12025000I249999J0D01*
G01*
X30750001Y12025000D01*
G75*
G02*
X31000000Y11775001I0J-249999D01*
G01*
X31000000Y10874999D01*
G75*
G02*
X30750001Y10625000I-249999J0D01*
G01*
X30099999Y10625000D01*
G75*
G02*
X29850000Y10874999I0J249999D01*
G01*
G37*
G36*
G01*
X27800000Y10874999D02*
X27800000Y11775001D01*
G75*
G02*
X28049999Y12025000I249999J0D01*
G01*
X28700001Y12025000D01*
G75*
G02*
X28950000Y11775001I0J-249999D01*
G01*
X28950000Y10874999D01*
G75*
G02*
X28700001Y10625000I-249999J0D01*
G01*
X28049999Y10625000D01*
G75*
G02*
X27800000Y10874999I0J249999D01*
G01*
G37*
G36*
G01*
X140582959Y4247480D02*
X141482961Y4247480D01*
G75*
G02*
X141732960Y3997481I0J-249999D01*
G01*
X141732960Y3347479D01*
G75*
G02*
X141482961Y3097480I-249999J0D01*
G01*
X140582959Y3097480D01*
G75*
G02*
X140332960Y3347479I0J249999D01*
G01*
X140332960Y3997481D01*
G75*
G02*
X140582959Y4247480I249999J0D01*
G01*
G37*
G36*
G01*
X140582959Y6297480D02*
X141482961Y6297480D01*
G75*
G02*
X141732960Y6047481I0J-249999D01*
G01*
X141732960Y5397479D01*
G75*
G02*
X141482961Y5147480I-249999J0D01*
G01*
X140582959Y5147480D01*
G75*
G02*
X140332960Y5397479I0J249999D01*
G01*
X140332960Y6047481D01*
G75*
G02*
X140582959Y6297480I249999J0D01*
G01*
G37*
G36*
G01*
X134827320Y3290741D02*
X134827320Y2390739D01*
G75*
G02*
X134577321Y2140740I-249999J0D01*
G01*
X133927319Y2140740D01*
G75*
G02*
X133677320Y2390739I0J249999D01*
G01*
X133677320Y3290741D01*
G75*
G02*
X133927319Y3540740I249999J0D01*
G01*
X134577321Y3540740D01*
G75*
G02*
X134827320Y3290741I0J-249999D01*
G01*
G37*
G36*
G01*
X136877320Y3290741D02*
X136877320Y2390739D01*
G75*
G02*
X136627321Y2140740I-249999J0D01*
G01*
X135977319Y2140740D01*
G75*
G02*
X135727320Y2390739I0J249999D01*
G01*
X135727320Y3290741D01*
G75*
G02*
X135977319Y3540740I249999J0D01*
G01*
X136627321Y3540740D01*
G75*
G02*
X136877320Y3290741I0J-249999D01*
G01*
G37*
G36*
G01*
X139042021Y5518320D02*
X138142019Y5518320D01*
G75*
G02*
X137892020Y5768319I0J249999D01*
G01*
X137892020Y6418321D01*
G75*
G02*
X138142019Y6668320I249999J0D01*
G01*
X139042021Y6668320D01*
G75*
G02*
X139292020Y6418321I0J-249999D01*
G01*
X139292020Y5768319D01*
G75*
G02*
X139042021Y5518320I-249999J0D01*
G01*
G37*
G36*
G01*
X139042021Y3468320D02*
X138142019Y3468320D01*
G75*
G02*
X137892020Y3718319I0J249999D01*
G01*
X137892020Y4368321D01*
G75*
G02*
X138142019Y4618320I249999J0D01*
G01*
X139042021Y4618320D01*
G75*
G02*
X139292020Y4368321I0J-249999D01*
G01*
X139292020Y3718319D01*
G75*
G02*
X139042021Y3468320I-249999J0D01*
G01*
G37*
G36*
G01*
X158273361Y5988220D02*
X157373359Y5988220D01*
G75*
G02*
X157123360Y6238219I0J249999D01*
G01*
X157123360Y6888221D01*
G75*
G02*
X157373359Y7138220I249999J0D01*
G01*
X158273361Y7138220D01*
G75*
G02*
X158523360Y6888221I0J-249999D01*
G01*
X158523360Y6238219D01*
G75*
G02*
X158273361Y5988220I-249999J0D01*
G01*
G37*
G36*
G01*
X158273361Y3938220D02*
X157373359Y3938220D01*
G75*
G02*
X157123360Y4188219I0J249999D01*
G01*
X157123360Y4838221D01*
G75*
G02*
X157373359Y5088220I249999J0D01*
G01*
X158273361Y5088220D01*
G75*
G02*
X158523360Y4838221I0J-249999D01*
G01*
X158523360Y4188219D01*
G75*
G02*
X158273361Y3938220I-249999J0D01*
G01*
G37*
G36*
G01*
X155923361Y5988220D02*
X155023359Y5988220D01*
G75*
G02*
X154773360Y6238219I0J249999D01*
G01*
X154773360Y6888221D01*
G75*
G02*
X155023359Y7138220I249999J0D01*
G01*
X155923361Y7138220D01*
G75*
G02*
X156173360Y6888221I0J-249999D01*
G01*
X156173360Y6238219D01*
G75*
G02*
X155923361Y5988220I-249999J0D01*
G01*
G37*
G36*
G01*
X155923361Y3938220D02*
X155023359Y3938220D01*
G75*
G02*
X154773360Y4188219I0J249999D01*
G01*
X154773360Y4838221D01*
G75*
G02*
X155023359Y5088220I249999J0D01*
G01*
X155923361Y5088220D01*
G75*
G02*
X156173360Y4838221I0J-249999D01*
G01*
X156173360Y4188219D01*
G75*
G02*
X155923361Y3938220I-249999J0D01*
G01*
G37*
G36*
G01*
X140332340Y7681559D02*
X140332340Y8581561D01*
G75*
G02*
X140582339Y8831560I249999J0D01*
G01*
X141232341Y8831560D01*
G75*
G02*
X141482340Y8581561I0J-249999D01*
G01*
X141482340Y7681559D01*
G75*
G02*
X141232341Y7431560I-249999J0D01*
G01*
X140582339Y7431560D01*
G75*
G02*
X140332340Y7681559I0J249999D01*
G01*
G37*
G36*
G01*
X138282340Y7681559D02*
X138282340Y8581561D01*
G75*
G02*
X138532339Y8831560I249999J0D01*
G01*
X139182341Y8831560D01*
G75*
G02*
X139432340Y8581561I0J-249999D01*
G01*
X139432340Y7681559D01*
G75*
G02*
X139182341Y7431560I-249999J0D01*
G01*
X138532339Y7431560D01*
G75*
G02*
X138282340Y7681559I0J249999D01*
G01*
G37*
G36*
G01*
X115632539Y5116160D02*
X116532541Y5116160D01*
G75*
G02*
X116782540Y4866161I0J-249999D01*
G01*
X116782540Y4216159D01*
G75*
G02*
X116532541Y3966160I-249999J0D01*
G01*
X115632539Y3966160D01*
G75*
G02*
X115382540Y4216159I0J249999D01*
G01*
X115382540Y4866161D01*
G75*
G02*
X115632539Y5116160I249999J0D01*
G01*
G37*
G36*
G01*
X115632539Y7166160D02*
X116532541Y7166160D01*
G75*
G02*
X116782540Y6916161I0J-249999D01*
G01*
X116782540Y6266159D01*
G75*
G02*
X116532541Y6016160I-249999J0D01*
G01*
X115632539Y6016160D01*
G75*
G02*
X115382540Y6266159I0J249999D01*
G01*
X115382540Y6916161D01*
G75*
G02*
X115632539Y7166160I249999J0D01*
G01*
G37*
G36*
G01*
X83131719Y5116160D02*
X84031721Y5116160D01*
G75*
G02*
X84281720Y4866161I0J-249999D01*
G01*
X84281720Y4216159D01*
G75*
G02*
X84031721Y3966160I-249999J0D01*
G01*
X83131719Y3966160D01*
G75*
G02*
X82881720Y4216159I0J249999D01*
G01*
X82881720Y4866161D01*
G75*
G02*
X83131719Y5116160I249999J0D01*
G01*
G37*
G36*
G01*
X83131719Y7166160D02*
X84031721Y7166160D01*
G75*
G02*
X84281720Y6916161I0J-249999D01*
G01*
X84281720Y6266159D01*
G75*
G02*
X84031721Y6016160I-249999J0D01*
G01*
X83131719Y6016160D01*
G75*
G02*
X82881720Y6266159I0J249999D01*
G01*
X82881720Y6916161D01*
G75*
G02*
X83131719Y7166160I249999J0D01*
G01*
G37*
G36*
G01*
X48392139Y5116160D02*
X49292141Y5116160D01*
G75*
G02*
X49542140Y4866161I0J-249999D01*
G01*
X49542140Y4216159D01*
G75*
G02*
X49292141Y3966160I-249999J0D01*
G01*
X48392139Y3966160D01*
G75*
G02*
X48142140Y4216159I0J249999D01*
G01*
X48142140Y4866161D01*
G75*
G02*
X48392139Y5116160I249999J0D01*
G01*
G37*
G36*
G01*
X48392139Y7166160D02*
X49292141Y7166160D01*
G75*
G02*
X49542140Y6916161I0J-249999D01*
G01*
X49542140Y6266159D01*
G75*
G02*
X49292141Y6016160I-249999J0D01*
G01*
X48392139Y6016160D01*
G75*
G02*
X48142140Y6266159I0J249999D01*
G01*
X48142140Y6916161D01*
G75*
G02*
X48392139Y7166160I249999J0D01*
G01*
G37*
G36*
G01*
X130760780Y3290741D02*
X130760780Y2390739D01*
G75*
G02*
X130510781Y2140740I-249999J0D01*
G01*
X129860779Y2140740D01*
G75*
G02*
X129610780Y2390739I0J249999D01*
G01*
X129610780Y3290741D01*
G75*
G02*
X129860779Y3540740I249999J0D01*
G01*
X130510781Y3540740D01*
G75*
G02*
X130760780Y3290741I0J-249999D01*
G01*
G37*
G36*
G01*
X132810780Y3290741D02*
X132810780Y2390739D01*
G75*
G02*
X132560781Y2140740I-249999J0D01*
G01*
X131910779Y2140740D01*
G75*
G02*
X131660780Y2390739I0J249999D01*
G01*
X131660780Y3290741D01*
G75*
G02*
X131910779Y3540740I249999J0D01*
G01*
X132560781Y3540740D01*
G75*
G02*
X132810780Y3290741I0J-249999D01*
G01*
G37*
G36*
G01*
X86610780Y9046640D02*
X86910780Y9046640D01*
G75*
G02*
X87060780Y8896640I0J-150000D01*
G01*
X87060780Y7246640D01*
G75*
G02*
X86910780Y7096640I-150000J0D01*
G01*
X86610780Y7096640D01*
G75*
G02*
X86460780Y7246640I0J150000D01*
G01*
X86460780Y8896640D01*
G75*
G02*
X86610780Y9046640I150000J0D01*
G01*
G37*
G36*
G01*
X87880780Y9046640D02*
X88180780Y9046640D01*
G75*
G02*
X88330780Y8896640I0J-150000D01*
G01*
X88330780Y7246640D01*
G75*
G02*
X88180780Y7096640I-150000J0D01*
G01*
X87880780Y7096640D01*
G75*
G02*
X87730780Y7246640I0J150000D01*
G01*
X87730780Y8896640D01*
G75*
G02*
X87880780Y9046640I150000J0D01*
G01*
G37*
G36*
G01*
X89150780Y9046640D02*
X89450780Y9046640D01*
G75*
G02*
X89600780Y8896640I0J-150000D01*
G01*
X89600780Y7246640D01*
G75*
G02*
X89450780Y7096640I-150000J0D01*
G01*
X89150780Y7096640D01*
G75*
G02*
X89000780Y7246640I0J150000D01*
G01*
X89000780Y8896640D01*
G75*
G02*
X89150780Y9046640I150000J0D01*
G01*
G37*
G36*
G01*
X90420780Y9046640D02*
X90720780Y9046640D01*
G75*
G02*
X90870780Y8896640I0J-150000D01*
G01*
X90870780Y7246640D01*
G75*
G02*
X90720780Y7096640I-150000J0D01*
G01*
X90420780Y7096640D01*
G75*
G02*
X90270780Y7246640I0J150000D01*
G01*
X90270780Y8896640D01*
G75*
G02*
X90420780Y9046640I150000J0D01*
G01*
G37*
G36*
G01*
X91690780Y9046640D02*
X91990780Y9046640D01*
G75*
G02*
X92140780Y8896640I0J-150000D01*
G01*
X92140780Y7246640D01*
G75*
G02*
X91990780Y7096640I-150000J0D01*
G01*
X91690780Y7096640D01*
G75*
G02*
X91540780Y7246640I0J150000D01*
G01*
X91540780Y8896640D01*
G75*
G02*
X91690780Y9046640I150000J0D01*
G01*
G37*
G36*
G01*
X92960780Y9046640D02*
X93260780Y9046640D01*
G75*
G02*
X93410780Y8896640I0J-150000D01*
G01*
X93410780Y7246640D01*
G75*
G02*
X93260780Y7096640I-150000J0D01*
G01*
X92960780Y7096640D01*
G75*
G02*
X92810780Y7246640I0J150000D01*
G01*
X92810780Y8896640D01*
G75*
G02*
X92960780Y9046640I150000J0D01*
G01*
G37*
G36*
G01*
X94230780Y9046640D02*
X94530780Y9046640D01*
G75*
G02*
X94680780Y8896640I0J-150000D01*
G01*
X94680780Y7246640D01*
G75*
G02*
X94530780Y7096640I-150000J0D01*
G01*
X94230780Y7096640D01*
G75*
G02*
X94080780Y7246640I0J150000D01*
G01*
X94080780Y8896640D01*
G75*
G02*
X94230780Y9046640I150000J0D01*
G01*
G37*
G36*
G01*
X95500780Y9046640D02*
X95800780Y9046640D01*
G75*
G02*
X95950780Y8896640I0J-150000D01*
G01*
X95950780Y7246640D01*
G75*
G02*
X95800780Y7096640I-150000J0D01*
G01*
X95500780Y7096640D01*
G75*
G02*
X95350780Y7246640I0J150000D01*
G01*
X95350780Y8896640D01*
G75*
G02*
X95500780Y9046640I150000J0D01*
G01*
G37*
G36*
G01*
X95500780Y4096640D02*
X95800780Y4096640D01*
G75*
G02*
X95950780Y3946640I0J-150000D01*
G01*
X95950780Y2296640D01*
G75*
G02*
X95800780Y2146640I-150000J0D01*
G01*
X95500780Y2146640D01*
G75*
G02*
X95350780Y2296640I0J150000D01*
G01*
X95350780Y3946640D01*
G75*
G02*
X95500780Y4096640I150000J0D01*
G01*
G37*
G36*
G01*
X94230780Y4096640D02*
X94530780Y4096640D01*
G75*
G02*
X94680780Y3946640I0J-150000D01*
G01*
X94680780Y2296640D01*
G75*
G02*
X94530780Y2146640I-150000J0D01*
G01*
X94230780Y2146640D01*
G75*
G02*
X94080780Y2296640I0J150000D01*
G01*
X94080780Y3946640D01*
G75*
G02*
X94230780Y4096640I150000J0D01*
G01*
G37*
G36*
G01*
X92960780Y4096640D02*
X93260780Y4096640D01*
G75*
G02*
X93410780Y3946640I0J-150000D01*
G01*
X93410780Y2296640D01*
G75*
G02*
X93260780Y2146640I-150000J0D01*
G01*
X92960780Y2146640D01*
G75*
G02*
X92810780Y2296640I0J150000D01*
G01*
X92810780Y3946640D01*
G75*
G02*
X92960780Y4096640I150000J0D01*
G01*
G37*
G36*
G01*
X91690780Y4096640D02*
X91990780Y4096640D01*
G75*
G02*
X92140780Y3946640I0J-150000D01*
G01*
X92140780Y2296640D01*
G75*
G02*
X91990780Y2146640I-150000J0D01*
G01*
X91690780Y2146640D01*
G75*
G02*
X91540780Y2296640I0J150000D01*
G01*
X91540780Y3946640D01*
G75*
G02*
X91690780Y4096640I150000J0D01*
G01*
G37*
G36*
G01*
X90420780Y4096640D02*
X90720780Y4096640D01*
G75*
G02*
X90870780Y3946640I0J-150000D01*
G01*
X90870780Y2296640D01*
G75*
G02*
X90720780Y2146640I-150000J0D01*
G01*
X90420780Y2146640D01*
G75*
G02*
X90270780Y2296640I0J150000D01*
G01*
X90270780Y3946640D01*
G75*
G02*
X90420780Y4096640I150000J0D01*
G01*
G37*
G36*
G01*
X89150780Y4096640D02*
X89450780Y4096640D01*
G75*
G02*
X89600780Y3946640I0J-150000D01*
G01*
X89600780Y2296640D01*
G75*
G02*
X89450780Y2146640I-150000J0D01*
G01*
X89150780Y2146640D01*
G75*
G02*
X89000780Y2296640I0J150000D01*
G01*
X89000780Y3946640D01*
G75*
G02*
X89150780Y4096640I150000J0D01*
G01*
G37*
G36*
G01*
X87880780Y4096640D02*
X88180780Y4096640D01*
G75*
G02*
X88330780Y3946640I0J-150000D01*
G01*
X88330780Y2296640D01*
G75*
G02*
X88180780Y2146640I-150000J0D01*
G01*
X87880780Y2146640D01*
G75*
G02*
X87730780Y2296640I0J150000D01*
G01*
X87730780Y3946640D01*
G75*
G02*
X87880780Y4096640I150000J0D01*
G01*
G37*
G36*
G01*
X86610780Y4096640D02*
X86910780Y4096640D01*
G75*
G02*
X87060780Y3946640I0J-150000D01*
G01*
X87060780Y2296640D01*
G75*
G02*
X86910780Y2146640I-150000J0D01*
G01*
X86610780Y2146640D01*
G75*
G02*
X86460780Y2296640I0J150000D01*
G01*
X86460780Y3946640D01*
G75*
G02*
X86610780Y4096640I150000J0D01*
G01*
G37*
G36*
G01*
X134971380Y4651620D02*
X134971380Y4951620D01*
G75*
G02*
X135121380Y5101620I150000J0D01*
G01*
X136771380Y5101620D01*
G75*
G02*
X136921380Y4951620I0J-150000D01*
G01*
X136921380Y4651620D01*
G75*
G02*
X136771380Y4501620I-150000J0D01*
G01*
X135121380Y4501620D01*
G75*
G02*
X134971380Y4651620I0J150000D01*
G01*
G37*
G36*
G01*
X134971380Y5921620D02*
X134971380Y6221620D01*
G75*
G02*
X135121380Y6371620I150000J0D01*
G01*
X136771380Y6371620D01*
G75*
G02*
X136921380Y6221620I0J-150000D01*
G01*
X136921380Y5921620D01*
G75*
G02*
X136771380Y5771620I-150000J0D01*
G01*
X135121380Y5771620D01*
G75*
G02*
X134971380Y5921620I0J150000D01*
G01*
G37*
G36*
G01*
X134971380Y7191620D02*
X134971380Y7491620D01*
G75*
G02*
X135121380Y7641620I150000J0D01*
G01*
X136771380Y7641620D01*
G75*
G02*
X136921380Y7491620I0J-150000D01*
G01*
X136921380Y7191620D01*
G75*
G02*
X136771380Y7041620I-150000J0D01*
G01*
X135121380Y7041620D01*
G75*
G02*
X134971380Y7191620I0J150000D01*
G01*
G37*
G36*
G01*
X134971380Y8461620D02*
X134971380Y8761620D01*
G75*
G02*
X135121380Y8911620I150000J0D01*
G01*
X136771380Y8911620D01*
G75*
G02*
X136921380Y8761620I0J-150000D01*
G01*
X136921380Y8461620D01*
G75*
G02*
X136771380Y8311620I-150000J0D01*
G01*
X135121380Y8311620D01*
G75*
G02*
X134971380Y8461620I0J150000D01*
G01*
G37*
G36*
G01*
X130021380Y8461620D02*
X130021380Y8761620D01*
G75*
G02*
X130171380Y8911620I150000J0D01*
G01*
X131821380Y8911620D01*
G75*
G02*
X131971380Y8761620I0J-150000D01*
G01*
X131971380Y8461620D01*
G75*
G02*
X131821380Y8311620I-150000J0D01*
G01*
X130171380Y8311620D01*
G75*
G02*
X130021380Y8461620I0J150000D01*
G01*
G37*
G36*
G01*
X130021380Y7191620D02*
X130021380Y7491620D01*
G75*
G02*
X130171380Y7641620I150000J0D01*
G01*
X131821380Y7641620D01*
G75*
G02*
X131971380Y7491620I0J-150000D01*
G01*
X131971380Y7191620D01*
G75*
G02*
X131821380Y7041620I-150000J0D01*
G01*
X130171380Y7041620D01*
G75*
G02*
X130021380Y7191620I0J150000D01*
G01*
G37*
G36*
G01*
X130021380Y5921620D02*
X130021380Y6221620D01*
G75*
G02*
X130171380Y6371620I150000J0D01*
G01*
X131821380Y6371620D01*
G75*
G02*
X131971380Y6221620I0J-150000D01*
G01*
X131971380Y5921620D01*
G75*
G02*
X131821380Y5771620I-150000J0D01*
G01*
X130171380Y5771620D01*
G75*
G02*
X130021380Y5921620I0J150000D01*
G01*
G37*
G36*
G01*
X130021380Y4651620D02*
X130021380Y4951620D01*
G75*
G02*
X130171380Y5101620I150000J0D01*
G01*
X131821380Y5101620D01*
G75*
G02*
X131971380Y4951620I0J-150000D01*
G01*
X131971380Y4651620D01*
G75*
G02*
X131821380Y4501620I-150000J0D01*
G01*
X130171380Y4501620D01*
G75*
G02*
X130021380Y4651620I0J150000D01*
G01*
G37*
G36*
G01*
X118642720Y4096640D02*
X118942720Y4096640D01*
G75*
G02*
X119092720Y3946640I0J-150000D01*
G01*
X119092720Y2296640D01*
G75*
G02*
X118942720Y2146640I-150000J0D01*
G01*
X118642720Y2146640D01*
G75*
G02*
X118492720Y2296640I0J150000D01*
G01*
X118492720Y3946640D01*
G75*
G02*
X118642720Y4096640I150000J0D01*
G01*
G37*
G36*
G01*
X119912720Y4096640D02*
X120212720Y4096640D01*
G75*
G02*
X120362720Y3946640I0J-150000D01*
G01*
X120362720Y2296640D01*
G75*
G02*
X120212720Y2146640I-150000J0D01*
G01*
X119912720Y2146640D01*
G75*
G02*
X119762720Y2296640I0J150000D01*
G01*
X119762720Y3946640D01*
G75*
G02*
X119912720Y4096640I150000J0D01*
G01*
G37*
G36*
G01*
X121182720Y4096640D02*
X121482720Y4096640D01*
G75*
G02*
X121632720Y3946640I0J-150000D01*
G01*
X121632720Y2296640D01*
G75*
G02*
X121482720Y2146640I-150000J0D01*
G01*
X121182720Y2146640D01*
G75*
G02*
X121032720Y2296640I0J150000D01*
G01*
X121032720Y3946640D01*
G75*
G02*
X121182720Y4096640I150000J0D01*
G01*
G37*
G36*
G01*
X122452720Y4096640D02*
X122752720Y4096640D01*
G75*
G02*
X122902720Y3946640I0J-150000D01*
G01*
X122902720Y2296640D01*
G75*
G02*
X122752720Y2146640I-150000J0D01*
G01*
X122452720Y2146640D01*
G75*
G02*
X122302720Y2296640I0J150000D01*
G01*
X122302720Y3946640D01*
G75*
G02*
X122452720Y4096640I150000J0D01*
G01*
G37*
G36*
G01*
X123722720Y4096640D02*
X124022720Y4096640D01*
G75*
G02*
X124172720Y3946640I0J-150000D01*
G01*
X124172720Y2296640D01*
G75*
G02*
X124022720Y2146640I-150000J0D01*
G01*
X123722720Y2146640D01*
G75*
G02*
X123572720Y2296640I0J150000D01*
G01*
X123572720Y3946640D01*
G75*
G02*
X123722720Y4096640I150000J0D01*
G01*
G37*
G36*
G01*
X124992720Y4096640D02*
X125292720Y4096640D01*
G75*
G02*
X125442720Y3946640I0J-150000D01*
G01*
X125442720Y2296640D01*
G75*
G02*
X125292720Y2146640I-150000J0D01*
G01*
X124992720Y2146640D01*
G75*
G02*
X124842720Y2296640I0J150000D01*
G01*
X124842720Y3946640D01*
G75*
G02*
X124992720Y4096640I150000J0D01*
G01*
G37*
G36*
G01*
X126262720Y4096640D02*
X126562720Y4096640D01*
G75*
G02*
X126712720Y3946640I0J-150000D01*
G01*
X126712720Y2296640D01*
G75*
G02*
X126562720Y2146640I-150000J0D01*
G01*
X126262720Y2146640D01*
G75*
G02*
X126112720Y2296640I0J150000D01*
G01*
X126112720Y3946640D01*
G75*
G02*
X126262720Y4096640I150000J0D01*
G01*
G37*
G36*
G01*
X127532720Y4096640D02*
X127832720Y4096640D01*
G75*
G02*
X127982720Y3946640I0J-150000D01*
G01*
X127982720Y2296640D01*
G75*
G02*
X127832720Y2146640I-150000J0D01*
G01*
X127532720Y2146640D01*
G75*
G02*
X127382720Y2296640I0J150000D01*
G01*
X127382720Y3946640D01*
G75*
G02*
X127532720Y4096640I150000J0D01*
G01*
G37*
G36*
G01*
X127532720Y9046640D02*
X127832720Y9046640D01*
G75*
G02*
X127982720Y8896640I0J-150000D01*
G01*
X127982720Y7246640D01*
G75*
G02*
X127832720Y7096640I-150000J0D01*
G01*
X127532720Y7096640D01*
G75*
G02*
X127382720Y7246640I0J150000D01*
G01*
X127382720Y8896640D01*
G75*
G02*
X127532720Y9046640I150000J0D01*
G01*
G37*
G36*
G01*
X126262720Y9046640D02*
X126562720Y9046640D01*
G75*
G02*
X126712720Y8896640I0J-150000D01*
G01*
X126712720Y7246640D01*
G75*
G02*
X126562720Y7096640I-150000J0D01*
G01*
X126262720Y7096640D01*
G75*
G02*
X126112720Y7246640I0J150000D01*
G01*
X126112720Y8896640D01*
G75*
G02*
X126262720Y9046640I150000J0D01*
G01*
G37*
G36*
G01*
X124992720Y9046640D02*
X125292720Y9046640D01*
G75*
G02*
X125442720Y8896640I0J-150000D01*
G01*
X125442720Y7246640D01*
G75*
G02*
X125292720Y7096640I-150000J0D01*
G01*
X124992720Y7096640D01*
G75*
G02*
X124842720Y7246640I0J150000D01*
G01*
X124842720Y8896640D01*
G75*
G02*
X124992720Y9046640I150000J0D01*
G01*
G37*
G36*
G01*
X123722720Y9046640D02*
X124022720Y9046640D01*
G75*
G02*
X124172720Y8896640I0J-150000D01*
G01*
X124172720Y7246640D01*
G75*
G02*
X124022720Y7096640I-150000J0D01*
G01*
X123722720Y7096640D01*
G75*
G02*
X123572720Y7246640I0J150000D01*
G01*
X123572720Y8896640D01*
G75*
G02*
X123722720Y9046640I150000J0D01*
G01*
G37*
G36*
G01*
X122452720Y9046640D02*
X122752720Y9046640D01*
G75*
G02*
X122902720Y8896640I0J-150000D01*
G01*
X122902720Y7246640D01*
G75*
G02*
X122752720Y7096640I-150000J0D01*
G01*
X122452720Y7096640D01*
G75*
G02*
X122302720Y7246640I0J150000D01*
G01*
X122302720Y8896640D01*
G75*
G02*
X122452720Y9046640I150000J0D01*
G01*
G37*
G36*
G01*
X121182720Y9046640D02*
X121482720Y9046640D01*
G75*
G02*
X121632720Y8896640I0J-150000D01*
G01*
X121632720Y7246640D01*
G75*
G02*
X121482720Y7096640I-150000J0D01*
G01*
X121182720Y7096640D01*
G75*
G02*
X121032720Y7246640I0J150000D01*
G01*
X121032720Y8896640D01*
G75*
G02*
X121182720Y9046640I150000J0D01*
G01*
G37*
G36*
G01*
X119912720Y9046640D02*
X120212720Y9046640D01*
G75*
G02*
X120362720Y8896640I0J-150000D01*
G01*
X120362720Y7246640D01*
G75*
G02*
X120212720Y7096640I-150000J0D01*
G01*
X119912720Y7096640D01*
G75*
G02*
X119762720Y7246640I0J150000D01*
G01*
X119762720Y8896640D01*
G75*
G02*
X119912720Y9046640I150000J0D01*
G01*
G37*
G36*
G01*
X118642720Y9046640D02*
X118942720Y9046640D01*
G75*
G02*
X119092720Y8896640I0J-150000D01*
G01*
X119092720Y7246640D01*
G75*
G02*
X118942720Y7096640I-150000J0D01*
G01*
X118642720Y7096640D01*
G75*
G02*
X118492720Y7246640I0J150000D01*
G01*
X118492720Y8896640D01*
G75*
G02*
X118642720Y9046640I150000J0D01*
G01*
G37*
G36*
G01*
X52264900Y4096640D02*
X52564900Y4096640D01*
G75*
G02*
X52714900Y3946640I0J-150000D01*
G01*
X52714900Y2296640D01*
G75*
G02*
X52564900Y2146640I-150000J0D01*
G01*
X52264900Y2146640D01*
G75*
G02*
X52114900Y2296640I0J150000D01*
G01*
X52114900Y3946640D01*
G75*
G02*
X52264900Y4096640I150000J0D01*
G01*
G37*
G36*
G01*
X53534900Y4096640D02*
X53834900Y4096640D01*
G75*
G02*
X53984900Y3946640I0J-150000D01*
G01*
X53984900Y2296640D01*
G75*
G02*
X53834900Y2146640I-150000J0D01*
G01*
X53534900Y2146640D01*
G75*
G02*
X53384900Y2296640I0J150000D01*
G01*
X53384900Y3946640D01*
G75*
G02*
X53534900Y4096640I150000J0D01*
G01*
G37*
G36*
G01*
X54804900Y4096640D02*
X55104900Y4096640D01*
G75*
G02*
X55254900Y3946640I0J-150000D01*
G01*
X55254900Y2296640D01*
G75*
G02*
X55104900Y2146640I-150000J0D01*
G01*
X54804900Y2146640D01*
G75*
G02*
X54654900Y2296640I0J150000D01*
G01*
X54654900Y3946640D01*
G75*
G02*
X54804900Y4096640I150000J0D01*
G01*
G37*
G36*
G01*
X56074900Y4096640D02*
X56374900Y4096640D01*
G75*
G02*
X56524900Y3946640I0J-150000D01*
G01*
X56524900Y2296640D01*
G75*
G02*
X56374900Y2146640I-150000J0D01*
G01*
X56074900Y2146640D01*
G75*
G02*
X55924900Y2296640I0J150000D01*
G01*
X55924900Y3946640D01*
G75*
G02*
X56074900Y4096640I150000J0D01*
G01*
G37*
G36*
G01*
X57344900Y4096640D02*
X57644900Y4096640D01*
G75*
G02*
X57794900Y3946640I0J-150000D01*
G01*
X57794900Y2296640D01*
G75*
G02*
X57644900Y2146640I-150000J0D01*
G01*
X57344900Y2146640D01*
G75*
G02*
X57194900Y2296640I0J150000D01*
G01*
X57194900Y3946640D01*
G75*
G02*
X57344900Y4096640I150000J0D01*
G01*
G37*
G36*
G01*
X58614900Y4096640D02*
X58914900Y4096640D01*
G75*
G02*
X59064900Y3946640I0J-150000D01*
G01*
X59064900Y2296640D01*
G75*
G02*
X58914900Y2146640I-150000J0D01*
G01*
X58614900Y2146640D01*
G75*
G02*
X58464900Y2296640I0J150000D01*
G01*
X58464900Y3946640D01*
G75*
G02*
X58614900Y4096640I150000J0D01*
G01*
G37*
G36*
G01*
X59884900Y4096640D02*
X60184900Y4096640D01*
G75*
G02*
X60334900Y3946640I0J-150000D01*
G01*
X60334900Y2296640D01*
G75*
G02*
X60184900Y2146640I-150000J0D01*
G01*
X59884900Y2146640D01*
G75*
G02*
X59734900Y2296640I0J150000D01*
G01*
X59734900Y3946640D01*
G75*
G02*
X59884900Y4096640I150000J0D01*
G01*
G37*
G36*
G01*
X61154900Y4096640D02*
X61454900Y4096640D01*
G75*
G02*
X61604900Y3946640I0J-150000D01*
G01*
X61604900Y2296640D01*
G75*
G02*
X61454900Y2146640I-150000J0D01*
G01*
X61154900Y2146640D01*
G75*
G02*
X61004900Y2296640I0J150000D01*
G01*
X61004900Y3946640D01*
G75*
G02*
X61154900Y4096640I150000J0D01*
G01*
G37*
G36*
G01*
X61154900Y9046640D02*
X61454900Y9046640D01*
G75*
G02*
X61604900Y8896640I0J-150000D01*
G01*
X61604900Y7246640D01*
G75*
G02*
X61454900Y7096640I-150000J0D01*
G01*
X61154900Y7096640D01*
G75*
G02*
X61004900Y7246640I0J150000D01*
G01*
X61004900Y8896640D01*
G75*
G02*
X61154900Y9046640I150000J0D01*
G01*
G37*
G36*
G01*
X59884900Y9046640D02*
X60184900Y9046640D01*
G75*
G02*
X60334900Y8896640I0J-150000D01*
G01*
X60334900Y7246640D01*
G75*
G02*
X60184900Y7096640I-150000J0D01*
G01*
X59884900Y7096640D01*
G75*
G02*
X59734900Y7246640I0J150000D01*
G01*
X59734900Y8896640D01*
G75*
G02*
X59884900Y9046640I150000J0D01*
G01*
G37*
G36*
G01*
X58614900Y9046640D02*
X58914900Y9046640D01*
G75*
G02*
X59064900Y8896640I0J-150000D01*
G01*
X59064900Y7246640D01*
G75*
G02*
X58914900Y7096640I-150000J0D01*
G01*
X58614900Y7096640D01*
G75*
G02*
X58464900Y7246640I0J150000D01*
G01*
X58464900Y8896640D01*
G75*
G02*
X58614900Y9046640I150000J0D01*
G01*
G37*
G36*
G01*
X57344900Y9046640D02*
X57644900Y9046640D01*
G75*
G02*
X57794900Y8896640I0J-150000D01*
G01*
X57794900Y7246640D01*
G75*
G02*
X57644900Y7096640I-150000J0D01*
G01*
X57344900Y7096640D01*
G75*
G02*
X57194900Y7246640I0J150000D01*
G01*
X57194900Y8896640D01*
G75*
G02*
X57344900Y9046640I150000J0D01*
G01*
G37*
G36*
G01*
X56074900Y9046640D02*
X56374900Y9046640D01*
G75*
G02*
X56524900Y8896640I0J-150000D01*
G01*
X56524900Y7246640D01*
G75*
G02*
X56374900Y7096640I-150000J0D01*
G01*
X56074900Y7096640D01*
G75*
G02*
X55924900Y7246640I0J150000D01*
G01*
X55924900Y8896640D01*
G75*
G02*
X56074900Y9046640I150000J0D01*
G01*
G37*
G36*
G01*
X54804900Y9046640D02*
X55104900Y9046640D01*
G75*
G02*
X55254900Y8896640I0J-150000D01*
G01*
X55254900Y7246640D01*
G75*
G02*
X55104900Y7096640I-150000J0D01*
G01*
X54804900Y7096640D01*
G75*
G02*
X54654900Y7246640I0J150000D01*
G01*
X54654900Y8896640D01*
G75*
G02*
X54804900Y9046640I150000J0D01*
G01*
G37*
G36*
G01*
X53534900Y9046640D02*
X53834900Y9046640D01*
G75*
G02*
X53984900Y8896640I0J-150000D01*
G01*
X53984900Y7246640D01*
G75*
G02*
X53834900Y7096640I-150000J0D01*
G01*
X53534900Y7096640D01*
G75*
G02*
X53384900Y7246640I0J150000D01*
G01*
X53384900Y8896640D01*
G75*
G02*
X53534900Y9046640I150000J0D01*
G01*
G37*
G36*
G01*
X52264900Y9046640D02*
X52564900Y9046640D01*
G75*
G02*
X52714900Y8896640I0J-150000D01*
G01*
X52714900Y7246640D01*
G75*
G02*
X52564900Y7096640I-150000J0D01*
G01*
X52264900Y7096640D01*
G75*
G02*
X52114900Y7246640I0J150000D01*
G01*
X52114900Y8896640D01*
G75*
G02*
X52264900Y9046640I150000J0D01*
G01*
G37*
G36*
G01*
X6349999Y22600000D02*
X7250001Y22600000D01*
G75*
G02*
X7500000Y22350001I0J-249999D01*
G01*
X7500000Y21699999D01*
G75*
G02*
X7250001Y21450000I-249999J0D01*
G01*
X6349999Y21450000D01*
G75*
G02*
X6100000Y21699999I0J249999D01*
G01*
X6100000Y22350001D01*
G75*
G02*
X6349999Y22600000I249999J0D01*
G01*
G37*
G36*
G01*
X6349999Y24650000D02*
X7250001Y24650000D01*
G75*
G02*
X7500000Y24400001I0J-249999D01*
G01*
X7500000Y23749999D01*
G75*
G02*
X7250001Y23500000I-249999J0D01*
G01*
X6349999Y23500000D01*
G75*
G02*
X6100000Y23749999I0J249999D01*
G01*
X6100000Y24400001D01*
G75*
G02*
X6349999Y24650000I249999J0D01*
G01*
G37*
G36*
G01*
X1649999Y22600000D02*
X2550001Y22600000D01*
G75*
G02*
X2800000Y22350001I0J-249999D01*
G01*
X2800000Y21699999D01*
G75*
G02*
X2550001Y21450000I-249999J0D01*
G01*
X1649999Y21450000D01*
G75*
G02*
X1400000Y21699999I0J249999D01*
G01*
X1400000Y22350001D01*
G75*
G02*
X1649999Y22600000I249999J0D01*
G01*
G37*
G36*
G01*
X1649999Y24650000D02*
X2550001Y24650000D01*
G75*
G02*
X2800000Y24400001I0J-249999D01*
G01*
X2800000Y23749999D01*
G75*
G02*
X2550001Y23500000I-249999J0D01*
G01*
X1649999Y23500000D01*
G75*
G02*
X1400000Y23749999I0J249999D01*
G01*
X1400000Y24400001D01*
G75*
G02*
X1649999Y24650000I249999J0D01*
G01*
G37*
G36*
G01*
X3999999Y22600000D02*
X4900001Y22600000D01*
G75*
G02*
X5150000Y22350001I0J-249999D01*
G01*
X5150000Y21699999D01*
G75*
G02*
X4900001Y21450000I-249999J0D01*
G01*
X3999999Y21450000D01*
G75*
G02*
X3750000Y21699999I0J249999D01*
G01*
X3750000Y22350001D01*
G75*
G02*
X3999999Y22600000I249999J0D01*
G01*
G37*
G36*
G01*
X3999999Y24650000D02*
X4900001Y24650000D01*
G75*
G02*
X5150000Y24400001I0J-249999D01*
G01*
X5150000Y23749999D01*
G75*
G02*
X4900001Y23500000I-249999J0D01*
G01*
X3999999Y23500000D01*
G75*
G02*
X3750000Y23749999I0J249999D01*
G01*
X3750000Y24400001D01*
G75*
G02*
X3999999Y24650000I249999J0D01*
G01*
G37*
G36*
G01*
X8699999Y22600000D02*
X9600001Y22600000D01*
G75*
G02*
X9850000Y22350001I0J-249999D01*
G01*
X9850000Y21699999D01*
G75*
G02*
X9600001Y21450000I-249999J0D01*
G01*
X8699999Y21450000D01*
G75*
G02*
X8450000Y21699999I0J249999D01*
G01*
X8450000Y22350001D01*
G75*
G02*
X8699999Y22600000I249999J0D01*
G01*
G37*
G36*
G01*
X8699999Y24650000D02*
X9600001Y24650000D01*
G75*
G02*
X9850000Y24400001I0J-249999D01*
G01*
X9850000Y23749999D01*
G75*
G02*
X9600001Y23500000I-249999J0D01*
G01*
X8699999Y23500000D01*
G75*
G02*
X8450000Y23749999I0J249999D01*
G01*
X8450000Y24400001D01*
G75*
G02*
X8699999Y24650000I249999J0D01*
G01*
G37*
X155750000Y22325000D03*
X159250000Y22325000D03*
G36*
G01*
X20457240Y24569920D02*
X20157240Y24569920D01*
G75*
G02*
X20007240Y24719920I0J150000D01*
G01*
X20007240Y26369920D01*
G75*
G02*
X20157240Y26519920I150000J0D01*
G01*
X20457240Y26519920D01*
G75*
G02*
X20607240Y26369920I0J-150000D01*
G01*
X20607240Y24719920D01*
G75*
G02*
X20457240Y24569920I-150000J0D01*
G01*
G37*
G36*
G01*
X19187240Y24569920D02*
X18887240Y24569920D01*
G75*
G02*
X18737240Y24719920I0J150000D01*
G01*
X18737240Y26369920D01*
G75*
G02*
X18887240Y26519920I150000J0D01*
G01*
X19187240Y26519920D01*
G75*
G02*
X19337240Y26369920I0J-150000D01*
G01*
X19337240Y24719920D01*
G75*
G02*
X19187240Y24569920I-150000J0D01*
G01*
G37*
G36*
G01*
X17917240Y24569920D02*
X17617240Y24569920D01*
G75*
G02*
X17467240Y24719920I0J150000D01*
G01*
X17467240Y26369920D01*
G75*
G02*
X17617240Y26519920I150000J0D01*
G01*
X17917240Y26519920D01*
G75*
G02*
X18067240Y26369920I0J-150000D01*
G01*
X18067240Y24719920D01*
G75*
G02*
X17917240Y24569920I-150000J0D01*
G01*
G37*
G36*
G01*
X16647240Y24569920D02*
X16347240Y24569920D01*
G75*
G02*
X16197240Y24719920I0J150000D01*
G01*
X16197240Y26369920D01*
G75*
G02*
X16347240Y26519920I150000J0D01*
G01*
X16647240Y26519920D01*
G75*
G02*
X16797240Y26369920I0J-150000D01*
G01*
X16797240Y24719920D01*
G75*
G02*
X16647240Y24569920I-150000J0D01*
G01*
G37*
G36*
G01*
X15377240Y24569920D02*
X15077240Y24569920D01*
G75*
G02*
X14927240Y24719920I0J150000D01*
G01*
X14927240Y26369920D01*
G75*
G02*
X15077240Y26519920I150000J0D01*
G01*
X15377240Y26519920D01*
G75*
G02*
X15527240Y26369920I0J-150000D01*
G01*
X15527240Y24719920D01*
G75*
G02*
X15377240Y24569920I-150000J0D01*
G01*
G37*
G36*
G01*
X14107240Y24569920D02*
X13807240Y24569920D01*
G75*
G02*
X13657240Y24719920I0J150000D01*
G01*
X13657240Y26369920D01*
G75*
G02*
X13807240Y26519920I150000J0D01*
G01*
X14107240Y26519920D01*
G75*
G02*
X14257240Y26369920I0J-150000D01*
G01*
X14257240Y24719920D01*
G75*
G02*
X14107240Y24569920I-150000J0D01*
G01*
G37*
G36*
G01*
X12837240Y24569920D02*
X12537240Y24569920D01*
G75*
G02*
X12387240Y24719920I0J150000D01*
G01*
X12387240Y26369920D01*
G75*
G02*
X12537240Y26519920I150000J0D01*
G01*
X12837240Y26519920D01*
G75*
G02*
X12987240Y26369920I0J-150000D01*
G01*
X12987240Y24719920D01*
G75*
G02*
X12837240Y24569920I-150000J0D01*
G01*
G37*
G36*
G01*
X12837240Y29519920D02*
X12537240Y29519920D01*
G75*
G02*
X12387240Y29669920I0J150000D01*
G01*
X12387240Y31319920D01*
G75*
G02*
X12537240Y31469920I150000J0D01*
G01*
X12837240Y31469920D01*
G75*
G02*
X12987240Y31319920I0J-150000D01*
G01*
X12987240Y29669920D01*
G75*
G02*
X12837240Y29519920I-150000J0D01*
G01*
G37*
G36*
G01*
X14107240Y29519920D02*
X13807240Y29519920D01*
G75*
G02*
X13657240Y29669920I0J150000D01*
G01*
X13657240Y31319920D01*
G75*
G02*
X13807240Y31469920I150000J0D01*
G01*
X14107240Y31469920D01*
G75*
G02*
X14257240Y31319920I0J-150000D01*
G01*
X14257240Y29669920D01*
G75*
G02*
X14107240Y29519920I-150000J0D01*
G01*
G37*
G36*
G01*
X15377240Y29519920D02*
X15077240Y29519920D01*
G75*
G02*
X14927240Y29669920I0J150000D01*
G01*
X14927240Y31319920D01*
G75*
G02*
X15077240Y31469920I150000J0D01*
G01*
X15377240Y31469920D01*
G75*
G02*
X15527240Y31319920I0J-150000D01*
G01*
X15527240Y29669920D01*
G75*
G02*
X15377240Y29519920I-150000J0D01*
G01*
G37*
G36*
G01*
X16647240Y29519920D02*
X16347240Y29519920D01*
G75*
G02*
X16197240Y29669920I0J150000D01*
G01*
X16197240Y31319920D01*
G75*
G02*
X16347240Y31469920I150000J0D01*
G01*
X16647240Y31469920D01*
G75*
G02*
X16797240Y31319920I0J-150000D01*
G01*
X16797240Y29669920D01*
G75*
G02*
X16647240Y29519920I-150000J0D01*
G01*
G37*
G36*
G01*
X17917240Y29519920D02*
X17617240Y29519920D01*
G75*
G02*
X17467240Y29669920I0J150000D01*
G01*
X17467240Y31319920D01*
G75*
G02*
X17617240Y31469920I150000J0D01*
G01*
X17917240Y31469920D01*
G75*
G02*
X18067240Y31319920I0J-150000D01*
G01*
X18067240Y29669920D01*
G75*
G02*
X17917240Y29519920I-150000J0D01*
G01*
G37*
G36*
G01*
X19187240Y29519920D02*
X18887240Y29519920D01*
G75*
G02*
X18737240Y29669920I0J150000D01*
G01*
X18737240Y31319920D01*
G75*
G02*
X18887240Y31469920I150000J0D01*
G01*
X19187240Y31469920D01*
G75*
G02*
X19337240Y31319920I0J-150000D01*
G01*
X19337240Y29669920D01*
G75*
G02*
X19187240Y29519920I-150000J0D01*
G01*
G37*
G36*
G01*
X20457240Y29519920D02*
X20157240Y29519920D01*
G75*
G02*
X20007240Y29669920I0J150000D01*
G01*
X20007240Y31319920D01*
G75*
G02*
X20157240Y31469920I150000J0D01*
G01*
X20457240Y31469920D01*
G75*
G02*
X20607240Y31319920I0J-150000D01*
G01*
X20607240Y29669920D01*
G75*
G02*
X20457240Y29519920I-150000J0D01*
G01*
G37*
G36*
G01*
X9976639Y27211780D02*
X10876641Y27211780D01*
G75*
G02*
X11126640Y26961781I0J-249999D01*
G01*
X11126640Y26311779D01*
G75*
G02*
X10876641Y26061780I-249999J0D01*
G01*
X9976639Y26061780D01*
G75*
G02*
X9726640Y26311779I0J249999D01*
G01*
X9726640Y26961781D01*
G75*
G02*
X9976639Y27211780I249999J0D01*
G01*
G37*
G36*
G01*
X9976639Y29261780D02*
X10876641Y29261780D01*
G75*
G02*
X11126640Y29011781I0J-249999D01*
G01*
X11126640Y28361779D01*
G75*
G02*
X10876641Y28111780I-249999J0D01*
G01*
X9976639Y28111780D01*
G75*
G02*
X9726640Y28361779I0J249999D01*
G01*
X9726640Y29011781D01*
G75*
G02*
X9976639Y29261780I249999J0D01*
G01*
G37*
G36*
G01*
X133700000Y24325001D02*
X133700000Y23424999D01*
G75*
G02*
X133450001Y23175000I-249999J0D01*
G01*
X132799999Y23175000D01*
G75*
G02*
X132550000Y23424999I0J249999D01*
G01*
X132550000Y24325001D01*
G75*
G02*
X132799999Y24575000I249999J0D01*
G01*
X133450001Y24575000D01*
G75*
G02*
X133700000Y24325001I0J-249999D01*
G01*
G37*
G36*
G01*
X135750000Y24325001D02*
X135750000Y23424999D01*
G75*
G02*
X135500001Y23175000I-249999J0D01*
G01*
X134849999Y23175000D01*
G75*
G02*
X134600000Y23424999I0J249999D01*
G01*
X134600000Y24325001D01*
G75*
G02*
X134849999Y24575000I249999J0D01*
G01*
X135500001Y24575000D01*
G75*
G02*
X135750000Y24325001I0J-249999D01*
G01*
G37*
G36*
G01*
X134600000Y19424999D02*
X134600000Y20325001D01*
G75*
G02*
X134849999Y20575000I249999J0D01*
G01*
X135500001Y20575000D01*
G75*
G02*
X135750000Y20325001I0J-249999D01*
G01*
X135750000Y19424999D01*
G75*
G02*
X135500001Y19175000I-249999J0D01*
G01*
X134849999Y19175000D01*
G75*
G02*
X134600000Y19424999I0J249999D01*
G01*
G37*
G36*
G01*
X132550000Y19424999D02*
X132550000Y20325001D01*
G75*
G02*
X132799999Y20575000I249999J0D01*
G01*
X133450001Y20575000D01*
G75*
G02*
X133700000Y20325001I0J-249999D01*
G01*
X133700000Y19424999D01*
G75*
G02*
X133450001Y19175000I-249999J0D01*
G01*
X132799999Y19175000D01*
G75*
G02*
X132550000Y19424999I0J249999D01*
G01*
G37*
G36*
G01*
X133700000Y22325001D02*
X133700000Y21424999D01*
G75*
G02*
X133450001Y21175000I-249999J0D01*
G01*
X132799999Y21175000D01*
G75*
G02*
X132550000Y21424999I0J249999D01*
G01*
X132550000Y22325001D01*
G75*
G02*
X132799999Y22575000I249999J0D01*
G01*
X133450001Y22575000D01*
G75*
G02*
X133700000Y22325001I0J-249999D01*
G01*
G37*
G36*
G01*
X135750000Y22325001D02*
X135750000Y21424999D01*
G75*
G02*
X135500001Y21175000I-249999J0D01*
G01*
X134849999Y21175000D01*
G75*
G02*
X134600000Y21424999I0J249999D01*
G01*
X134600000Y22325001D01*
G75*
G02*
X134849999Y22575000I249999J0D01*
G01*
X135500001Y22575000D01*
G75*
G02*
X135750000Y22325001I0J-249999D01*
G01*
G37*
G36*
G01*
X22967041Y28952520D02*
X22067039Y28952520D01*
G75*
G02*
X21817040Y29202519I0J249999D01*
G01*
X21817040Y29852521D01*
G75*
G02*
X22067039Y30102520I249999J0D01*
G01*
X22967041Y30102520D01*
G75*
G02*
X23217040Y29852521I0J-249999D01*
G01*
X23217040Y29202519D01*
G75*
G02*
X22967041Y28952520I-249999J0D01*
G01*
G37*
G36*
G01*
X22967041Y26902520D02*
X22067039Y26902520D01*
G75*
G02*
X21817040Y27152519I0J249999D01*
G01*
X21817040Y27802521D01*
G75*
G02*
X22067039Y28052520I249999J0D01*
G01*
X22967041Y28052520D01*
G75*
G02*
X23217040Y27802521I0J-249999D01*
G01*
X23217040Y27152519D01*
G75*
G02*
X22967041Y26902520I-249999J0D01*
G01*
G37*
G36*
G01*
X28722680Y29909259D02*
X28722680Y30809261D01*
G75*
G02*
X28972679Y31059260I249999J0D01*
G01*
X29622681Y31059260D01*
G75*
G02*
X29872680Y30809261I0J-249999D01*
G01*
X29872680Y29909259D01*
G75*
G02*
X29622681Y29659260I-249999J0D01*
G01*
X28972679Y29659260D01*
G75*
G02*
X28722680Y29909259I0J249999D01*
G01*
G37*
G36*
G01*
X26672680Y29909259D02*
X26672680Y30809261D01*
G75*
G02*
X26922679Y31059260I249999J0D01*
G01*
X27572681Y31059260D01*
G75*
G02*
X27822680Y30809261I0J-249999D01*
G01*
X27822680Y29909259D01*
G75*
G02*
X27572681Y29659260I-249999J0D01*
G01*
X26922679Y29659260D01*
G75*
G02*
X26672680Y29909259I0J249999D01*
G01*
G37*
G36*
G01*
X24507979Y27681680D02*
X25407981Y27681680D01*
G75*
G02*
X25657980Y27431681I0J-249999D01*
G01*
X25657980Y26781679D01*
G75*
G02*
X25407981Y26531680I-249999J0D01*
G01*
X24507979Y26531680D01*
G75*
G02*
X24257980Y26781679I0J249999D01*
G01*
X24257980Y27431681D01*
G75*
G02*
X24507979Y27681680I249999J0D01*
G01*
G37*
G36*
G01*
X24507979Y29731680D02*
X25407981Y29731680D01*
G75*
G02*
X25657980Y29481681I0J-249999D01*
G01*
X25657980Y28831679D01*
G75*
G02*
X25407981Y28581680I-249999J0D01*
G01*
X24507979Y28581680D01*
G75*
G02*
X24257980Y28831679I0J249999D01*
G01*
X24257980Y29481681D01*
G75*
G02*
X24507979Y29731680I249999J0D01*
G01*
G37*
G36*
G01*
X5276639Y27211780D02*
X6176641Y27211780D01*
G75*
G02*
X6426640Y26961781I0J-249999D01*
G01*
X6426640Y26311779D01*
G75*
G02*
X6176641Y26061780I-249999J0D01*
G01*
X5276639Y26061780D01*
G75*
G02*
X5026640Y26311779I0J249999D01*
G01*
X5026640Y26961781D01*
G75*
G02*
X5276639Y27211780I249999J0D01*
G01*
G37*
G36*
G01*
X5276639Y29261780D02*
X6176641Y29261780D01*
G75*
G02*
X6426640Y29011781I0J-249999D01*
G01*
X6426640Y28361779D01*
G75*
G02*
X6176641Y28111780I-249999J0D01*
G01*
X5276639Y28111780D01*
G75*
G02*
X5026640Y28361779I0J249999D01*
G01*
X5026640Y29011781D01*
G75*
G02*
X5276639Y29261780I249999J0D01*
G01*
G37*
G36*
G01*
X7626639Y27211780D02*
X8526641Y27211780D01*
G75*
G02*
X8776640Y26961781I0J-249999D01*
G01*
X8776640Y26311779D01*
G75*
G02*
X8526641Y26061780I-249999J0D01*
G01*
X7626639Y26061780D01*
G75*
G02*
X7376640Y26311779I0J249999D01*
G01*
X7376640Y26961781D01*
G75*
G02*
X7626639Y27211780I249999J0D01*
G01*
G37*
G36*
G01*
X7626639Y29261780D02*
X8526641Y29261780D01*
G75*
G02*
X8776640Y29011781I0J-249999D01*
G01*
X8776640Y28361779D01*
G75*
G02*
X8526641Y28111780I-249999J0D01*
G01*
X7626639Y28111780D01*
G75*
G02*
X7376640Y28361779I0J249999D01*
G01*
X7376640Y29011781D01*
G75*
G02*
X7626639Y29261780I249999J0D01*
G01*
G37*
G36*
G01*
X23217660Y25518441D02*
X23217660Y24618439D01*
G75*
G02*
X22967661Y24368440I-249999J0D01*
G01*
X22317659Y24368440D01*
G75*
G02*
X22067660Y24618439I0J249999D01*
G01*
X22067660Y25518441D01*
G75*
G02*
X22317659Y25768440I249999J0D01*
G01*
X22967661Y25768440D01*
G75*
G02*
X23217660Y25518441I0J-249999D01*
G01*
G37*
G36*
G01*
X25267660Y25518441D02*
X25267660Y24618439D01*
G75*
G02*
X25017661Y24368440I-249999J0D01*
G01*
X24367659Y24368440D01*
G75*
G02*
X24117660Y24618439I0J249999D01*
G01*
X24117660Y25518441D01*
G75*
G02*
X24367659Y25768440I249999J0D01*
G01*
X25017661Y25768440D01*
G75*
G02*
X25267660Y25518441I0J-249999D01*
G01*
G37*
G36*
G01*
X47917461Y28083840D02*
X47017459Y28083840D01*
G75*
G02*
X46767460Y28333839I0J249999D01*
G01*
X46767460Y28983841D01*
G75*
G02*
X47017459Y29233840I249999J0D01*
G01*
X47917461Y29233840D01*
G75*
G02*
X48167460Y28983841I0J-249999D01*
G01*
X48167460Y28333839D01*
G75*
G02*
X47917461Y28083840I-249999J0D01*
G01*
G37*
G36*
G01*
X47917461Y26033840D02*
X47017459Y26033840D01*
G75*
G02*
X46767460Y26283839I0J249999D01*
G01*
X46767460Y26933841D01*
G75*
G02*
X47017459Y27183840I249999J0D01*
G01*
X47917461Y27183840D01*
G75*
G02*
X48167460Y26933841I0J-249999D01*
G01*
X48167460Y26283839D01*
G75*
G02*
X47917461Y26033840I-249999J0D01*
G01*
G37*
G36*
G01*
X80418281Y28083840D02*
X79518279Y28083840D01*
G75*
G02*
X79268280Y28333839I0J249999D01*
G01*
X79268280Y28983841D01*
G75*
G02*
X79518279Y29233840I249999J0D01*
G01*
X80418281Y29233840D01*
G75*
G02*
X80668280Y28983841I0J-249999D01*
G01*
X80668280Y28333839D01*
G75*
G02*
X80418281Y28083840I-249999J0D01*
G01*
G37*
G36*
G01*
X80418281Y26033840D02*
X79518279Y26033840D01*
G75*
G02*
X79268280Y26283839I0J249999D01*
G01*
X79268280Y26933841D01*
G75*
G02*
X79518279Y27183840I249999J0D01*
G01*
X80418281Y27183840D01*
G75*
G02*
X80668280Y26933841I0J-249999D01*
G01*
X80668280Y26283839D01*
G75*
G02*
X80418281Y26033840I-249999J0D01*
G01*
G37*
G36*
G01*
X115157861Y28083840D02*
X114257859Y28083840D01*
G75*
G02*
X114007860Y28333839I0J249999D01*
G01*
X114007860Y28983841D01*
G75*
G02*
X114257859Y29233840I249999J0D01*
G01*
X115157861Y29233840D01*
G75*
G02*
X115407860Y28983841I0J-249999D01*
G01*
X115407860Y28333839D01*
G75*
G02*
X115157861Y28083840I-249999J0D01*
G01*
G37*
G36*
G01*
X115157861Y26033840D02*
X114257859Y26033840D01*
G75*
G02*
X114007860Y26283839I0J249999D01*
G01*
X114007860Y26933841D01*
G75*
G02*
X114257859Y27183840I249999J0D01*
G01*
X115157861Y27183840D01*
G75*
G02*
X115407860Y26933841I0J-249999D01*
G01*
X115407860Y26283839D01*
G75*
G02*
X115157861Y26033840I-249999J0D01*
G01*
G37*
G36*
G01*
X32789220Y29909259D02*
X32789220Y30809261D01*
G75*
G02*
X33039219Y31059260I249999J0D01*
G01*
X33689221Y31059260D01*
G75*
G02*
X33939220Y30809261I0J-249999D01*
G01*
X33939220Y29909259D01*
G75*
G02*
X33689221Y29659260I-249999J0D01*
G01*
X33039219Y29659260D01*
G75*
G02*
X32789220Y29909259I0J249999D01*
G01*
G37*
G36*
G01*
X30739220Y29909259D02*
X30739220Y30809261D01*
G75*
G02*
X30989219Y31059260I249999J0D01*
G01*
X31639221Y31059260D01*
G75*
G02*
X31889220Y30809261I0J-249999D01*
G01*
X31889220Y29909259D01*
G75*
G02*
X31639221Y29659260I-249999J0D01*
G01*
X30989219Y29659260D01*
G75*
G02*
X30739220Y29909259I0J249999D01*
G01*
G37*
G36*
G01*
X76939220Y24153360D02*
X76639220Y24153360D01*
G75*
G02*
X76489220Y24303360I0J150000D01*
G01*
X76489220Y25953360D01*
G75*
G02*
X76639220Y26103360I150000J0D01*
G01*
X76939220Y26103360D01*
G75*
G02*
X77089220Y25953360I0J-150000D01*
G01*
X77089220Y24303360D01*
G75*
G02*
X76939220Y24153360I-150000J0D01*
G01*
G37*
G36*
G01*
X75669220Y24153360D02*
X75369220Y24153360D01*
G75*
G02*
X75219220Y24303360I0J150000D01*
G01*
X75219220Y25953360D01*
G75*
G02*
X75369220Y26103360I150000J0D01*
G01*
X75669220Y26103360D01*
G75*
G02*
X75819220Y25953360I0J-150000D01*
G01*
X75819220Y24303360D01*
G75*
G02*
X75669220Y24153360I-150000J0D01*
G01*
G37*
G36*
G01*
X74399220Y24153360D02*
X74099220Y24153360D01*
G75*
G02*
X73949220Y24303360I0J150000D01*
G01*
X73949220Y25953360D01*
G75*
G02*
X74099220Y26103360I150000J0D01*
G01*
X74399220Y26103360D01*
G75*
G02*
X74549220Y25953360I0J-150000D01*
G01*
X74549220Y24303360D01*
G75*
G02*
X74399220Y24153360I-150000J0D01*
G01*
G37*
G36*
G01*
X73129220Y24153360D02*
X72829220Y24153360D01*
G75*
G02*
X72679220Y24303360I0J150000D01*
G01*
X72679220Y25953360D01*
G75*
G02*
X72829220Y26103360I150000J0D01*
G01*
X73129220Y26103360D01*
G75*
G02*
X73279220Y25953360I0J-150000D01*
G01*
X73279220Y24303360D01*
G75*
G02*
X73129220Y24153360I-150000J0D01*
G01*
G37*
G36*
G01*
X71859220Y24153360D02*
X71559220Y24153360D01*
G75*
G02*
X71409220Y24303360I0J150000D01*
G01*
X71409220Y25953360D01*
G75*
G02*
X71559220Y26103360I150000J0D01*
G01*
X71859220Y26103360D01*
G75*
G02*
X72009220Y25953360I0J-150000D01*
G01*
X72009220Y24303360D01*
G75*
G02*
X71859220Y24153360I-150000J0D01*
G01*
G37*
G36*
G01*
X70589220Y24153360D02*
X70289220Y24153360D01*
G75*
G02*
X70139220Y24303360I0J150000D01*
G01*
X70139220Y25953360D01*
G75*
G02*
X70289220Y26103360I150000J0D01*
G01*
X70589220Y26103360D01*
G75*
G02*
X70739220Y25953360I0J-150000D01*
G01*
X70739220Y24303360D01*
G75*
G02*
X70589220Y24153360I-150000J0D01*
G01*
G37*
G36*
G01*
X69319220Y24153360D02*
X69019220Y24153360D01*
G75*
G02*
X68869220Y24303360I0J150000D01*
G01*
X68869220Y25953360D01*
G75*
G02*
X69019220Y26103360I150000J0D01*
G01*
X69319220Y26103360D01*
G75*
G02*
X69469220Y25953360I0J-150000D01*
G01*
X69469220Y24303360D01*
G75*
G02*
X69319220Y24153360I-150000J0D01*
G01*
G37*
G36*
G01*
X68049220Y24153360D02*
X67749220Y24153360D01*
G75*
G02*
X67599220Y24303360I0J150000D01*
G01*
X67599220Y25953360D01*
G75*
G02*
X67749220Y26103360I150000J0D01*
G01*
X68049220Y26103360D01*
G75*
G02*
X68199220Y25953360I0J-150000D01*
G01*
X68199220Y24303360D01*
G75*
G02*
X68049220Y24153360I-150000J0D01*
G01*
G37*
G36*
G01*
X68049220Y29103360D02*
X67749220Y29103360D01*
G75*
G02*
X67599220Y29253360I0J150000D01*
G01*
X67599220Y30903360D01*
G75*
G02*
X67749220Y31053360I150000J0D01*
G01*
X68049220Y31053360D01*
G75*
G02*
X68199220Y30903360I0J-150000D01*
G01*
X68199220Y29253360D01*
G75*
G02*
X68049220Y29103360I-150000J0D01*
G01*
G37*
G36*
G01*
X69319220Y29103360D02*
X69019220Y29103360D01*
G75*
G02*
X68869220Y29253360I0J150000D01*
G01*
X68869220Y30903360D01*
G75*
G02*
X69019220Y31053360I150000J0D01*
G01*
X69319220Y31053360D01*
G75*
G02*
X69469220Y30903360I0J-150000D01*
G01*
X69469220Y29253360D01*
G75*
G02*
X69319220Y29103360I-150000J0D01*
G01*
G37*
G36*
G01*
X70589220Y29103360D02*
X70289220Y29103360D01*
G75*
G02*
X70139220Y29253360I0J150000D01*
G01*
X70139220Y30903360D01*
G75*
G02*
X70289220Y31053360I150000J0D01*
G01*
X70589220Y31053360D01*
G75*
G02*
X70739220Y30903360I0J-150000D01*
G01*
X70739220Y29253360D01*
G75*
G02*
X70589220Y29103360I-150000J0D01*
G01*
G37*
G36*
G01*
X71859220Y29103360D02*
X71559220Y29103360D01*
G75*
G02*
X71409220Y29253360I0J150000D01*
G01*
X71409220Y30903360D01*
G75*
G02*
X71559220Y31053360I150000J0D01*
G01*
X71859220Y31053360D01*
G75*
G02*
X72009220Y30903360I0J-150000D01*
G01*
X72009220Y29253360D01*
G75*
G02*
X71859220Y29103360I-150000J0D01*
G01*
G37*
G36*
G01*
X73129220Y29103360D02*
X72829220Y29103360D01*
G75*
G02*
X72679220Y29253360I0J150000D01*
G01*
X72679220Y30903360D01*
G75*
G02*
X72829220Y31053360I150000J0D01*
G01*
X73129220Y31053360D01*
G75*
G02*
X73279220Y30903360I0J-150000D01*
G01*
X73279220Y29253360D01*
G75*
G02*
X73129220Y29103360I-150000J0D01*
G01*
G37*
G36*
G01*
X74399220Y29103360D02*
X74099220Y29103360D01*
G75*
G02*
X73949220Y29253360I0J150000D01*
G01*
X73949220Y30903360D01*
G75*
G02*
X74099220Y31053360I150000J0D01*
G01*
X74399220Y31053360D01*
G75*
G02*
X74549220Y30903360I0J-150000D01*
G01*
X74549220Y29253360D01*
G75*
G02*
X74399220Y29103360I-150000J0D01*
G01*
G37*
G36*
G01*
X75669220Y29103360D02*
X75369220Y29103360D01*
G75*
G02*
X75219220Y29253360I0J150000D01*
G01*
X75219220Y30903360D01*
G75*
G02*
X75369220Y31053360I150000J0D01*
G01*
X75669220Y31053360D01*
G75*
G02*
X75819220Y30903360I0J-150000D01*
G01*
X75819220Y29253360D01*
G75*
G02*
X75669220Y29103360I-150000J0D01*
G01*
G37*
G36*
G01*
X76939220Y29103360D02*
X76639220Y29103360D01*
G75*
G02*
X76489220Y29253360I0J150000D01*
G01*
X76489220Y30903360D01*
G75*
G02*
X76639220Y31053360I150000J0D01*
G01*
X76939220Y31053360D01*
G75*
G02*
X77089220Y30903360I0J-150000D01*
G01*
X77089220Y29253360D01*
G75*
G02*
X76939220Y29103360I-150000J0D01*
G01*
G37*
G36*
G01*
X28578620Y28548380D02*
X28578620Y28248380D01*
G75*
G02*
X28428620Y28098380I-150000J0D01*
G01*
X26778620Y28098380D01*
G75*
G02*
X26628620Y28248380I0J150000D01*
G01*
X26628620Y28548380D01*
G75*
G02*
X26778620Y28698380I150000J0D01*
G01*
X28428620Y28698380D01*
G75*
G02*
X28578620Y28548380I0J-150000D01*
G01*
G37*
G36*
G01*
X28578620Y27278380D02*
X28578620Y26978380D01*
G75*
G02*
X28428620Y26828380I-150000J0D01*
G01*
X26778620Y26828380D01*
G75*
G02*
X26628620Y26978380I0J150000D01*
G01*
X26628620Y27278380D01*
G75*
G02*
X26778620Y27428380I150000J0D01*
G01*
X28428620Y27428380D01*
G75*
G02*
X28578620Y27278380I0J-150000D01*
G01*
G37*
G36*
G01*
X28578620Y26008380D02*
X28578620Y25708380D01*
G75*
G02*
X28428620Y25558380I-150000J0D01*
G01*
X26778620Y25558380D01*
G75*
G02*
X26628620Y25708380I0J150000D01*
G01*
X26628620Y26008380D01*
G75*
G02*
X26778620Y26158380I150000J0D01*
G01*
X28428620Y26158380D01*
G75*
G02*
X28578620Y26008380I0J-150000D01*
G01*
G37*
G36*
G01*
X28578620Y24738380D02*
X28578620Y24438380D01*
G75*
G02*
X28428620Y24288380I-150000J0D01*
G01*
X26778620Y24288380D01*
G75*
G02*
X26628620Y24438380I0J150000D01*
G01*
X26628620Y24738380D01*
G75*
G02*
X26778620Y24888380I150000J0D01*
G01*
X28428620Y24888380D01*
G75*
G02*
X28578620Y24738380I0J-150000D01*
G01*
G37*
G36*
G01*
X33528620Y24738380D02*
X33528620Y24438380D01*
G75*
G02*
X33378620Y24288380I-150000J0D01*
G01*
X31728620Y24288380D01*
G75*
G02*
X31578620Y24438380I0J150000D01*
G01*
X31578620Y24738380D01*
G75*
G02*
X31728620Y24888380I150000J0D01*
G01*
X33378620Y24888380D01*
G75*
G02*
X33528620Y24738380I0J-150000D01*
G01*
G37*
G36*
G01*
X33528620Y26008380D02*
X33528620Y25708380D01*
G75*
G02*
X33378620Y25558380I-150000J0D01*
G01*
X31728620Y25558380D01*
G75*
G02*
X31578620Y25708380I0J150000D01*
G01*
X31578620Y26008380D01*
G75*
G02*
X31728620Y26158380I150000J0D01*
G01*
X33378620Y26158380D01*
G75*
G02*
X33528620Y26008380I0J-150000D01*
G01*
G37*
G36*
G01*
X33528620Y27278380D02*
X33528620Y26978380D01*
G75*
G02*
X33378620Y26828380I-150000J0D01*
G01*
X31728620Y26828380D01*
G75*
G02*
X31578620Y26978380I0J150000D01*
G01*
X31578620Y27278380D01*
G75*
G02*
X31728620Y27428380I150000J0D01*
G01*
X33378620Y27428380D01*
G75*
G02*
X33528620Y27278380I0J-150000D01*
G01*
G37*
G36*
G01*
X33528620Y28548380D02*
X33528620Y28248380D01*
G75*
G02*
X33378620Y28098380I-150000J0D01*
G01*
X31728620Y28098380D01*
G75*
G02*
X31578620Y28248380I0J150000D01*
G01*
X31578620Y28548380D01*
G75*
G02*
X31728620Y28698380I150000J0D01*
G01*
X33378620Y28698380D01*
G75*
G02*
X33528620Y28548380I0J-150000D01*
G01*
G37*
G36*
G01*
X44907280Y29103360D02*
X44607280Y29103360D01*
G75*
G02*
X44457280Y29253360I0J150000D01*
G01*
X44457280Y30903360D01*
G75*
G02*
X44607280Y31053360I150000J0D01*
G01*
X44907280Y31053360D01*
G75*
G02*
X45057280Y30903360I0J-150000D01*
G01*
X45057280Y29253360D01*
G75*
G02*
X44907280Y29103360I-150000J0D01*
G01*
G37*
G36*
G01*
X43637280Y29103360D02*
X43337280Y29103360D01*
G75*
G02*
X43187280Y29253360I0J150000D01*
G01*
X43187280Y30903360D01*
G75*
G02*
X43337280Y31053360I150000J0D01*
G01*
X43637280Y31053360D01*
G75*
G02*
X43787280Y30903360I0J-150000D01*
G01*
X43787280Y29253360D01*
G75*
G02*
X43637280Y29103360I-150000J0D01*
G01*
G37*
G36*
G01*
X42367280Y29103360D02*
X42067280Y29103360D01*
G75*
G02*
X41917280Y29253360I0J150000D01*
G01*
X41917280Y30903360D01*
G75*
G02*
X42067280Y31053360I150000J0D01*
G01*
X42367280Y31053360D01*
G75*
G02*
X42517280Y30903360I0J-150000D01*
G01*
X42517280Y29253360D01*
G75*
G02*
X42367280Y29103360I-150000J0D01*
G01*
G37*
G36*
G01*
X41097280Y29103360D02*
X40797280Y29103360D01*
G75*
G02*
X40647280Y29253360I0J150000D01*
G01*
X40647280Y30903360D01*
G75*
G02*
X40797280Y31053360I150000J0D01*
G01*
X41097280Y31053360D01*
G75*
G02*
X41247280Y30903360I0J-150000D01*
G01*
X41247280Y29253360D01*
G75*
G02*
X41097280Y29103360I-150000J0D01*
G01*
G37*
G36*
G01*
X39827280Y29103360D02*
X39527280Y29103360D01*
G75*
G02*
X39377280Y29253360I0J150000D01*
G01*
X39377280Y30903360D01*
G75*
G02*
X39527280Y31053360I150000J0D01*
G01*
X39827280Y31053360D01*
G75*
G02*
X39977280Y30903360I0J-150000D01*
G01*
X39977280Y29253360D01*
G75*
G02*
X39827280Y29103360I-150000J0D01*
G01*
G37*
G36*
G01*
X38557280Y29103360D02*
X38257280Y29103360D01*
G75*
G02*
X38107280Y29253360I0J150000D01*
G01*
X38107280Y30903360D01*
G75*
G02*
X38257280Y31053360I150000J0D01*
G01*
X38557280Y31053360D01*
G75*
G02*
X38707280Y30903360I0J-150000D01*
G01*
X38707280Y29253360D01*
G75*
G02*
X38557280Y29103360I-150000J0D01*
G01*
G37*
G36*
G01*
X37287280Y29103360D02*
X36987280Y29103360D01*
G75*
G02*
X36837280Y29253360I0J150000D01*
G01*
X36837280Y30903360D01*
G75*
G02*
X36987280Y31053360I150000J0D01*
G01*
X37287280Y31053360D01*
G75*
G02*
X37437280Y30903360I0J-150000D01*
G01*
X37437280Y29253360D01*
G75*
G02*
X37287280Y29103360I-150000J0D01*
G01*
G37*
G36*
G01*
X36017280Y29103360D02*
X35717280Y29103360D01*
G75*
G02*
X35567280Y29253360I0J150000D01*
G01*
X35567280Y30903360D01*
G75*
G02*
X35717280Y31053360I150000J0D01*
G01*
X36017280Y31053360D01*
G75*
G02*
X36167280Y30903360I0J-150000D01*
G01*
X36167280Y29253360D01*
G75*
G02*
X36017280Y29103360I-150000J0D01*
G01*
G37*
G36*
G01*
X36017280Y24153360D02*
X35717280Y24153360D01*
G75*
G02*
X35567280Y24303360I0J150000D01*
G01*
X35567280Y25953360D01*
G75*
G02*
X35717280Y26103360I150000J0D01*
G01*
X36017280Y26103360D01*
G75*
G02*
X36167280Y25953360I0J-150000D01*
G01*
X36167280Y24303360D01*
G75*
G02*
X36017280Y24153360I-150000J0D01*
G01*
G37*
G36*
G01*
X37287280Y24153360D02*
X36987280Y24153360D01*
G75*
G02*
X36837280Y24303360I0J150000D01*
G01*
X36837280Y25953360D01*
G75*
G02*
X36987280Y26103360I150000J0D01*
G01*
X37287280Y26103360D01*
G75*
G02*
X37437280Y25953360I0J-150000D01*
G01*
X37437280Y24303360D01*
G75*
G02*
X37287280Y24153360I-150000J0D01*
G01*
G37*
G36*
G01*
X38557280Y24153360D02*
X38257280Y24153360D01*
G75*
G02*
X38107280Y24303360I0J150000D01*
G01*
X38107280Y25953360D01*
G75*
G02*
X38257280Y26103360I150000J0D01*
G01*
X38557280Y26103360D01*
G75*
G02*
X38707280Y25953360I0J-150000D01*
G01*
X38707280Y24303360D01*
G75*
G02*
X38557280Y24153360I-150000J0D01*
G01*
G37*
G36*
G01*
X39827280Y24153360D02*
X39527280Y24153360D01*
G75*
G02*
X39377280Y24303360I0J150000D01*
G01*
X39377280Y25953360D01*
G75*
G02*
X39527280Y26103360I150000J0D01*
G01*
X39827280Y26103360D01*
G75*
G02*
X39977280Y25953360I0J-150000D01*
G01*
X39977280Y24303360D01*
G75*
G02*
X39827280Y24153360I-150000J0D01*
G01*
G37*
G36*
G01*
X41097280Y24153360D02*
X40797280Y24153360D01*
G75*
G02*
X40647280Y24303360I0J150000D01*
G01*
X40647280Y25953360D01*
G75*
G02*
X40797280Y26103360I150000J0D01*
G01*
X41097280Y26103360D01*
G75*
G02*
X41247280Y25953360I0J-150000D01*
G01*
X41247280Y24303360D01*
G75*
G02*
X41097280Y24153360I-150000J0D01*
G01*
G37*
G36*
G01*
X42367280Y24153360D02*
X42067280Y24153360D01*
G75*
G02*
X41917280Y24303360I0J150000D01*
G01*
X41917280Y25953360D01*
G75*
G02*
X42067280Y26103360I150000J0D01*
G01*
X42367280Y26103360D01*
G75*
G02*
X42517280Y25953360I0J-150000D01*
G01*
X42517280Y24303360D01*
G75*
G02*
X42367280Y24153360I-150000J0D01*
G01*
G37*
G36*
G01*
X43637280Y24153360D02*
X43337280Y24153360D01*
G75*
G02*
X43187280Y24303360I0J150000D01*
G01*
X43187280Y25953360D01*
G75*
G02*
X43337280Y26103360I150000J0D01*
G01*
X43637280Y26103360D01*
G75*
G02*
X43787280Y25953360I0J-150000D01*
G01*
X43787280Y24303360D01*
G75*
G02*
X43637280Y24153360I-150000J0D01*
G01*
G37*
G36*
G01*
X44907280Y24153360D02*
X44607280Y24153360D01*
G75*
G02*
X44457280Y24303360I0J150000D01*
G01*
X44457280Y25953360D01*
G75*
G02*
X44607280Y26103360I150000J0D01*
G01*
X44907280Y26103360D01*
G75*
G02*
X45057280Y25953360I0J-150000D01*
G01*
X45057280Y24303360D01*
G75*
G02*
X44907280Y24153360I-150000J0D01*
G01*
G37*
G36*
G01*
X111285100Y29103360D02*
X110985100Y29103360D01*
G75*
G02*
X110835100Y29253360I0J150000D01*
G01*
X110835100Y30903360D01*
G75*
G02*
X110985100Y31053360I150000J0D01*
G01*
X111285100Y31053360D01*
G75*
G02*
X111435100Y30903360I0J-150000D01*
G01*
X111435100Y29253360D01*
G75*
G02*
X111285100Y29103360I-150000J0D01*
G01*
G37*
G36*
G01*
X110015100Y29103360D02*
X109715100Y29103360D01*
G75*
G02*
X109565100Y29253360I0J150000D01*
G01*
X109565100Y30903360D01*
G75*
G02*
X109715100Y31053360I150000J0D01*
G01*
X110015100Y31053360D01*
G75*
G02*
X110165100Y30903360I0J-150000D01*
G01*
X110165100Y29253360D01*
G75*
G02*
X110015100Y29103360I-150000J0D01*
G01*
G37*
G36*
G01*
X108745100Y29103360D02*
X108445100Y29103360D01*
G75*
G02*
X108295100Y29253360I0J150000D01*
G01*
X108295100Y30903360D01*
G75*
G02*
X108445100Y31053360I150000J0D01*
G01*
X108745100Y31053360D01*
G75*
G02*
X108895100Y30903360I0J-150000D01*
G01*
X108895100Y29253360D01*
G75*
G02*
X108745100Y29103360I-150000J0D01*
G01*
G37*
G36*
G01*
X107475100Y29103360D02*
X107175100Y29103360D01*
G75*
G02*
X107025100Y29253360I0J150000D01*
G01*
X107025100Y30903360D01*
G75*
G02*
X107175100Y31053360I150000J0D01*
G01*
X107475100Y31053360D01*
G75*
G02*
X107625100Y30903360I0J-150000D01*
G01*
X107625100Y29253360D01*
G75*
G02*
X107475100Y29103360I-150000J0D01*
G01*
G37*
G36*
G01*
X106205100Y29103360D02*
X105905100Y29103360D01*
G75*
G02*
X105755100Y29253360I0J150000D01*
G01*
X105755100Y30903360D01*
G75*
G02*
X105905100Y31053360I150000J0D01*
G01*
X106205100Y31053360D01*
G75*
G02*
X106355100Y30903360I0J-150000D01*
G01*
X106355100Y29253360D01*
G75*
G02*
X106205100Y29103360I-150000J0D01*
G01*
G37*
G36*
G01*
X104935100Y29103360D02*
X104635100Y29103360D01*
G75*
G02*
X104485100Y29253360I0J150000D01*
G01*
X104485100Y30903360D01*
G75*
G02*
X104635100Y31053360I150000J0D01*
G01*
X104935100Y31053360D01*
G75*
G02*
X105085100Y30903360I0J-150000D01*
G01*
X105085100Y29253360D01*
G75*
G02*
X104935100Y29103360I-150000J0D01*
G01*
G37*
G36*
G01*
X103665100Y29103360D02*
X103365100Y29103360D01*
G75*
G02*
X103215100Y29253360I0J150000D01*
G01*
X103215100Y30903360D01*
G75*
G02*
X103365100Y31053360I150000J0D01*
G01*
X103665100Y31053360D01*
G75*
G02*
X103815100Y30903360I0J-150000D01*
G01*
X103815100Y29253360D01*
G75*
G02*
X103665100Y29103360I-150000J0D01*
G01*
G37*
G36*
G01*
X102395100Y29103360D02*
X102095100Y29103360D01*
G75*
G02*
X101945100Y29253360I0J150000D01*
G01*
X101945100Y30903360D01*
G75*
G02*
X102095100Y31053360I150000J0D01*
G01*
X102395100Y31053360D01*
G75*
G02*
X102545100Y30903360I0J-150000D01*
G01*
X102545100Y29253360D01*
G75*
G02*
X102395100Y29103360I-150000J0D01*
G01*
G37*
G36*
G01*
X102395100Y24153360D02*
X102095100Y24153360D01*
G75*
G02*
X101945100Y24303360I0J150000D01*
G01*
X101945100Y25953360D01*
G75*
G02*
X102095100Y26103360I150000J0D01*
G01*
X102395100Y26103360D01*
G75*
G02*
X102545100Y25953360I0J-150000D01*
G01*
X102545100Y24303360D01*
G75*
G02*
X102395100Y24153360I-150000J0D01*
G01*
G37*
G36*
G01*
X103665100Y24153360D02*
X103365100Y24153360D01*
G75*
G02*
X103215100Y24303360I0J150000D01*
G01*
X103215100Y25953360D01*
G75*
G02*
X103365100Y26103360I150000J0D01*
G01*
X103665100Y26103360D01*
G75*
G02*
X103815100Y25953360I0J-150000D01*
G01*
X103815100Y24303360D01*
G75*
G02*
X103665100Y24153360I-150000J0D01*
G01*
G37*
G36*
G01*
X104935100Y24153360D02*
X104635100Y24153360D01*
G75*
G02*
X104485100Y24303360I0J150000D01*
G01*
X104485100Y25953360D01*
G75*
G02*
X104635100Y26103360I150000J0D01*
G01*
X104935100Y26103360D01*
G75*
G02*
X105085100Y25953360I0J-150000D01*
G01*
X105085100Y24303360D01*
G75*
G02*
X104935100Y24153360I-150000J0D01*
G01*
G37*
G36*
G01*
X106205100Y24153360D02*
X105905100Y24153360D01*
G75*
G02*
X105755100Y24303360I0J150000D01*
G01*
X105755100Y25953360D01*
G75*
G02*
X105905100Y26103360I150000J0D01*
G01*
X106205100Y26103360D01*
G75*
G02*
X106355100Y25953360I0J-150000D01*
G01*
X106355100Y24303360D01*
G75*
G02*
X106205100Y24153360I-150000J0D01*
G01*
G37*
G36*
G01*
X107475100Y24153360D02*
X107175100Y24153360D01*
G75*
G02*
X107025100Y24303360I0J150000D01*
G01*
X107025100Y25953360D01*
G75*
G02*
X107175100Y26103360I150000J0D01*
G01*
X107475100Y26103360D01*
G75*
G02*
X107625100Y25953360I0J-150000D01*
G01*
X107625100Y24303360D01*
G75*
G02*
X107475100Y24153360I-150000J0D01*
G01*
G37*
G36*
G01*
X108745100Y24153360D02*
X108445100Y24153360D01*
G75*
G02*
X108295100Y24303360I0J150000D01*
G01*
X108295100Y25953360D01*
G75*
G02*
X108445100Y26103360I150000J0D01*
G01*
X108745100Y26103360D01*
G75*
G02*
X108895100Y25953360I0J-150000D01*
G01*
X108895100Y24303360D01*
G75*
G02*
X108745100Y24153360I-150000J0D01*
G01*
G37*
G36*
G01*
X110015100Y24153360D02*
X109715100Y24153360D01*
G75*
G02*
X109565100Y24303360I0J150000D01*
G01*
X109565100Y25953360D01*
G75*
G02*
X109715100Y26103360I150000J0D01*
G01*
X110015100Y26103360D01*
G75*
G02*
X110165100Y25953360I0J-150000D01*
G01*
X110165100Y24303360D01*
G75*
G02*
X110015100Y24153360I-150000J0D01*
G01*
G37*
G36*
G01*
X111285100Y24153360D02*
X110985100Y24153360D01*
G75*
G02*
X110835100Y24303360I0J150000D01*
G01*
X110835100Y25953360D01*
G75*
G02*
X110985100Y26103360I150000J0D01*
G01*
X111285100Y26103360D01*
G75*
G02*
X111435100Y25953360I0J-150000D01*
G01*
X111435100Y24303360D01*
G75*
G02*
X111285100Y24153360I-150000J0D01*
G01*
G37*
M02*
