G04 #@! TF.GenerationSoftware,KiCad,Pcbnew,5.1.6+dfsg1-1~bpo10+1*
G04 #@! TF.CreationDate,2020-08-19T20:51:39+03:00*
G04 #@! TF.ProjectId,CompactBeamspringP2,436f6d70-6163-4744-9265-616d73707269,0.0.3*
G04 #@! TF.SameCoordinates,PX68f3ad0PY7d80e80*
G04 #@! TF.FileFunction,Legend,Bot*
G04 #@! TF.FilePolarity,Positive*
%FSLAX46Y46*%
G04 Gerber Fmt 4.6, Leading zero omitted, Abs format (unit mm)*
G04 Created by KiCad (PCBNEW 5.1.6+dfsg1-1~bpo10+1) date 2020-08-19 20:51:39*
%MOMM*%
%LPD*%
G01*
G04 APERTURE LIST*
%ADD10C,0.125000*%
%ADD11C,0.150000*%
%ADD12C,0.120000*%
%ADD13C,0.300000*%
G04 APERTURE END LIST*
D10*
X138361904Y998810D02*
X138195238Y498810D01*
X138028571Y998810D01*
X137790476Y498810D02*
X137838095Y522620D01*
X137861904Y546429D01*
X137885714Y594048D01*
X137885714Y736905D01*
X137861904Y784524D01*
X137838095Y808334D01*
X137790476Y832143D01*
X137719047Y832143D01*
X137671428Y808334D01*
X137647619Y784524D01*
X137623809Y736905D01*
X137623809Y594048D01*
X137647619Y546429D01*
X137671428Y522620D01*
X137719047Y498810D01*
X137790476Y498810D01*
X137195238Y832143D02*
X137195238Y498810D01*
X137409523Y832143D02*
X137409523Y570239D01*
X137385714Y522620D01*
X137338095Y498810D01*
X137266666Y498810D01*
X137219047Y522620D01*
X137195238Y546429D01*
X137028571Y832143D02*
X136838095Y832143D01*
X136957142Y998810D02*
X136957142Y570239D01*
X136933333Y522620D01*
X136885714Y498810D01*
X136838095Y498810D01*
X156258333Y998810D02*
X156091666Y498810D01*
X155925000Y998810D01*
X155686904Y498810D02*
X155734523Y522620D01*
X155758333Y546429D01*
X155782142Y594048D01*
X155782142Y736905D01*
X155758333Y784524D01*
X155734523Y808334D01*
X155686904Y832143D01*
X155615476Y832143D01*
X155567857Y808334D01*
X155544047Y784524D01*
X155520238Y736905D01*
X155520238Y594048D01*
X155544047Y546429D01*
X155567857Y522620D01*
X155615476Y498810D01*
X155686904Y498810D01*
X155234523Y498810D02*
X155282142Y522620D01*
X155305952Y570239D01*
X155305952Y998810D01*
X155115476Y832143D02*
X154925000Y832143D01*
X155044047Y998810D02*
X155044047Y570239D01*
X155020238Y522620D01*
X154972619Y498810D01*
X154925000Y498810D01*
X154544047Y498810D02*
X154544047Y760715D01*
X154567857Y808334D01*
X154615476Y832143D01*
X154710714Y832143D01*
X154758333Y808334D01*
X154544047Y522620D02*
X154591666Y498810D01*
X154710714Y498810D01*
X154758333Y522620D01*
X154782142Y570239D01*
X154782142Y617858D01*
X154758333Y665477D01*
X154710714Y689286D01*
X154591666Y689286D01*
X154544047Y713096D01*
X154091666Y832143D02*
X154091666Y427381D01*
X154115476Y379762D01*
X154139285Y355953D01*
X154186904Y332143D01*
X154258333Y332143D01*
X154305952Y355953D01*
X154091666Y522620D02*
X154139285Y498810D01*
X154234523Y498810D01*
X154282142Y522620D01*
X154305952Y546429D01*
X154329761Y594048D01*
X154329761Y736905D01*
X154305952Y784524D01*
X154282142Y808334D01*
X154234523Y832143D01*
X154139285Y832143D01*
X154091666Y808334D01*
X153663095Y522620D02*
X153710714Y498810D01*
X153805952Y498810D01*
X153853571Y522620D01*
X153877380Y570239D01*
X153877380Y760715D01*
X153853571Y808334D01*
X153805952Y832143D01*
X153710714Y832143D01*
X153663095Y808334D01*
X153639285Y760715D01*
X153639285Y713096D01*
X153877380Y665477D01*
X156750000Y1673810D02*
X156464285Y1673810D01*
X156607142Y1173810D02*
X156607142Y1673810D01*
X156297619Y1173810D02*
X156297619Y1673810D01*
X156083333Y1173810D02*
X156083333Y1435715D01*
X156107142Y1483334D01*
X156154761Y1507143D01*
X156226190Y1507143D01*
X156273809Y1483334D01*
X156297619Y1459524D01*
X155845238Y1173810D02*
X155845238Y1507143D01*
X155845238Y1411905D02*
X155821428Y1459524D01*
X155797619Y1483334D01*
X155750000Y1507143D01*
X155702380Y1507143D01*
X155345238Y1197620D02*
X155392857Y1173810D01*
X155488095Y1173810D01*
X155535714Y1197620D01*
X155559523Y1245239D01*
X155559523Y1435715D01*
X155535714Y1483334D01*
X155488095Y1507143D01*
X155392857Y1507143D01*
X155345238Y1483334D01*
X155321428Y1435715D01*
X155321428Y1388096D01*
X155559523Y1340477D01*
X155130952Y1197620D02*
X155083333Y1173810D01*
X154988095Y1173810D01*
X154940476Y1197620D01*
X154916666Y1245239D01*
X154916666Y1269048D01*
X154940476Y1316667D01*
X154988095Y1340477D01*
X155059523Y1340477D01*
X155107142Y1364286D01*
X155130952Y1411905D01*
X155130952Y1435715D01*
X155107142Y1483334D01*
X155059523Y1507143D01*
X154988095Y1507143D01*
X154940476Y1483334D01*
X154702380Y1173810D02*
X154702380Y1673810D01*
X154488095Y1173810D02*
X154488095Y1435715D01*
X154511904Y1483334D01*
X154559523Y1507143D01*
X154630952Y1507143D01*
X154678571Y1483334D01*
X154702380Y1459524D01*
X154178571Y1173810D02*
X154226190Y1197620D01*
X154250000Y1221429D01*
X154273809Y1269048D01*
X154273809Y1411905D01*
X154250000Y1459524D01*
X154226190Y1483334D01*
X154178571Y1507143D01*
X154107142Y1507143D01*
X154059523Y1483334D01*
X154035714Y1459524D01*
X154011904Y1411905D01*
X154011904Y1269048D01*
X154035714Y1221429D01*
X154059523Y1197620D01*
X154107142Y1173810D01*
X154178571Y1173810D01*
X153726190Y1173810D02*
X153773809Y1197620D01*
X153797619Y1245239D01*
X153797619Y1673810D01*
X153321428Y1173810D02*
X153321428Y1673810D01*
X153321428Y1197620D02*
X153369047Y1173810D01*
X153464285Y1173810D01*
X153511904Y1197620D01*
X153535714Y1221429D01*
X153559523Y1269048D01*
X153559523Y1411905D01*
X153535714Y1459524D01*
X153511904Y1483334D01*
X153464285Y1507143D01*
X153369047Y1507143D01*
X153321428Y1483334D01*
X138245238Y1223810D02*
X138245238Y1723810D01*
X138126190Y1723810D01*
X138054761Y1700000D01*
X138007142Y1652381D01*
X137983333Y1604762D01*
X137959523Y1509524D01*
X137959523Y1438096D01*
X137983333Y1342858D01*
X138007142Y1295239D01*
X138054761Y1247620D01*
X138126190Y1223810D01*
X138245238Y1223810D01*
X137769047Y1366667D02*
X137530952Y1366667D01*
X137816666Y1223810D02*
X137650000Y1723810D01*
X137483333Y1223810D01*
X137030952Y1271429D02*
X137054761Y1247620D01*
X137126190Y1223810D01*
X137173809Y1223810D01*
X137245238Y1247620D01*
X137292857Y1295239D01*
X137316666Y1342858D01*
X137340476Y1438096D01*
X137340476Y1509524D01*
X137316666Y1604762D01*
X137292857Y1652381D01*
X137245238Y1700000D01*
X137173809Y1723810D01*
X137126190Y1723810D01*
X137054761Y1700000D01*
X137030952Y1676191D01*
D11*
X46640476Y3046429D02*
X46497619Y2998810D01*
X46450000Y2951191D01*
X46402380Y2855953D01*
X46402380Y2713096D01*
X46450000Y2617858D01*
X46497619Y2570239D01*
X46592857Y2522620D01*
X46973809Y2522620D01*
X46973809Y3522620D01*
X46640476Y3522620D01*
X46545238Y3475000D01*
X46497619Y3427381D01*
X46450000Y3332143D01*
X46450000Y3236905D01*
X46497619Y3141667D01*
X46545238Y3094048D01*
X46640476Y3046429D01*
X46973809Y3046429D01*
X45545238Y2522620D02*
X45545238Y3046429D01*
X45592857Y3141667D01*
X45688095Y3189286D01*
X45878571Y3189286D01*
X45973809Y3141667D01*
X45545238Y2570239D02*
X45640476Y2522620D01*
X45878571Y2522620D01*
X45973809Y2570239D01*
X46021428Y2665477D01*
X46021428Y2760715D01*
X45973809Y2855953D01*
X45878571Y2903572D01*
X45640476Y2903572D01*
X45545238Y2951191D01*
X45116666Y2570239D02*
X45021428Y2522620D01*
X44830952Y2522620D01*
X44735714Y2570239D01*
X44688095Y2665477D01*
X44688095Y2713096D01*
X44735714Y2808334D01*
X44830952Y2855953D01*
X44973809Y2855953D01*
X45069047Y2903572D01*
X45116666Y2998810D01*
X45116666Y3046429D01*
X45069047Y3141667D01*
X44973809Y3189286D01*
X44830952Y3189286D01*
X44735714Y3141667D01*
X43878571Y2570239D02*
X43973809Y2522620D01*
X44164285Y2522620D01*
X44259523Y2570239D01*
X44307142Y2665477D01*
X44307142Y3046429D01*
X44259523Y3141667D01*
X44164285Y3189286D01*
X43973809Y3189286D01*
X43878571Y3141667D01*
X43830952Y3046429D01*
X43830952Y2951191D01*
X44307142Y2855953D01*
X42973809Y2522620D02*
X42973809Y3522620D01*
X42973809Y2570239D02*
X43069047Y2522620D01*
X43259523Y2522620D01*
X43354761Y2570239D01*
X43402380Y2617858D01*
X43450000Y2713096D01*
X43450000Y2998810D01*
X43402380Y3094048D01*
X43354761Y3141667D01*
X43259523Y3189286D01*
X43069047Y3189286D01*
X42973809Y3141667D01*
X41592857Y2522620D02*
X41688095Y2570239D01*
X41735714Y2617858D01*
X41783333Y2713096D01*
X41783333Y2998810D01*
X41735714Y3094048D01*
X41688095Y3141667D01*
X41592857Y3189286D01*
X41450000Y3189286D01*
X41354761Y3141667D01*
X41307142Y3094048D01*
X41259523Y2998810D01*
X41259523Y2713096D01*
X41307142Y2617858D01*
X41354761Y2570239D01*
X41450000Y2522620D01*
X41592857Y2522620D01*
X40830952Y3189286D02*
X40830952Y2522620D01*
X40830952Y3094048D02*
X40783333Y3141667D01*
X40688095Y3189286D01*
X40545238Y3189286D01*
X40450000Y3141667D01*
X40402380Y3046429D01*
X40402380Y2522620D01*
X39021428Y2522620D02*
X39116666Y2570239D01*
X39164285Y2617858D01*
X39211904Y2713096D01*
X39211904Y2998810D01*
X39164285Y3094048D01*
X39116666Y3141667D01*
X39021428Y3189286D01*
X38878571Y3189286D01*
X38783333Y3141667D01*
X38735714Y3094048D01*
X38688095Y2998810D01*
X38688095Y2713096D01*
X38735714Y2617858D01*
X38783333Y2570239D01*
X38878571Y2522620D01*
X39021428Y2522620D01*
X38259523Y2522620D02*
X38259523Y3189286D01*
X38259523Y2998810D02*
X38211904Y3094048D01*
X38164285Y3141667D01*
X38069047Y3189286D01*
X37973809Y3189286D01*
X37640476Y2522620D02*
X37640476Y3189286D01*
X37640476Y3522620D02*
X37688095Y3475000D01*
X37640476Y3427381D01*
X37592857Y3475000D01*
X37640476Y3522620D01*
X37640476Y3427381D01*
X36735714Y3189286D02*
X36735714Y2379762D01*
X36783333Y2284524D01*
X36830952Y2236905D01*
X36926190Y2189286D01*
X37069047Y2189286D01*
X37164285Y2236905D01*
X36735714Y2570239D02*
X36830952Y2522620D01*
X37021428Y2522620D01*
X37116666Y2570239D01*
X37164285Y2617858D01*
X37211904Y2713096D01*
X37211904Y2998810D01*
X37164285Y3094048D01*
X37116666Y3141667D01*
X37021428Y3189286D01*
X36830952Y3189286D01*
X36735714Y3141667D01*
X36259523Y2522620D02*
X36259523Y3189286D01*
X36259523Y3522620D02*
X36307142Y3475000D01*
X36259523Y3427381D01*
X36211904Y3475000D01*
X36259523Y3522620D01*
X36259523Y3427381D01*
X35783333Y3189286D02*
X35783333Y2522620D01*
X35783333Y3094048D02*
X35735714Y3141667D01*
X35640476Y3189286D01*
X35497619Y3189286D01*
X35402380Y3141667D01*
X35354761Y3046429D01*
X35354761Y2522620D01*
X34450000Y2522620D02*
X34450000Y3046429D01*
X34497619Y3141667D01*
X34592857Y3189286D01*
X34783333Y3189286D01*
X34878571Y3141667D01*
X34450000Y2570239D02*
X34545238Y2522620D01*
X34783333Y2522620D01*
X34878571Y2570239D01*
X34926190Y2665477D01*
X34926190Y2760715D01*
X34878571Y2855953D01*
X34783333Y2903572D01*
X34545238Y2903572D01*
X34450000Y2951191D01*
X33830952Y2522620D02*
X33926190Y2570239D01*
X33973809Y2665477D01*
X33973809Y3522620D01*
X46640476Y1539286D02*
X46450000Y872620D01*
X46259523Y1348810D01*
X46069047Y872620D01*
X45878571Y1539286D01*
X45354761Y872620D02*
X45450000Y920239D01*
X45497619Y967858D01*
X45545238Y1063096D01*
X45545238Y1348810D01*
X45497619Y1444048D01*
X45450000Y1491667D01*
X45354761Y1539286D01*
X45211904Y1539286D01*
X45116666Y1491667D01*
X45069047Y1444048D01*
X45021428Y1348810D01*
X45021428Y1063096D01*
X45069047Y967858D01*
X45116666Y920239D01*
X45211904Y872620D01*
X45354761Y872620D01*
X44592857Y872620D02*
X44592857Y1539286D01*
X44592857Y1348810D02*
X44545238Y1444048D01*
X44497619Y1491667D01*
X44402380Y1539286D01*
X44307142Y1539286D01*
X43973809Y872620D02*
X43973809Y1872620D01*
X43878571Y1253572D02*
X43592857Y872620D01*
X43592857Y1539286D02*
X43973809Y1158334D01*
X42402380Y872620D02*
X42402380Y1872620D01*
X42402380Y1491667D02*
X42307142Y1539286D01*
X42116666Y1539286D01*
X42021428Y1491667D01*
X41973809Y1444048D01*
X41926190Y1348810D01*
X41926190Y1063096D01*
X41973809Y967858D01*
X42021428Y920239D01*
X42116666Y872620D01*
X42307142Y872620D01*
X42402380Y920239D01*
X41592857Y1539286D02*
X41354761Y872620D01*
X41116666Y1539286D02*
X41354761Y872620D01*
X41450000Y634524D01*
X41497619Y586905D01*
X41592857Y539286D01*
X40069047Y872620D02*
X39545238Y1539286D01*
X40069047Y1539286D02*
X39545238Y872620D01*
X39259523Y1539286D02*
X39069047Y872620D01*
X38878571Y1348810D01*
X38688095Y872620D01*
X38497619Y1539286D01*
X38116666Y872620D02*
X38116666Y1872620D01*
X37688095Y872620D02*
X37688095Y1396429D01*
X37735714Y1491667D01*
X37830952Y1539286D01*
X37973809Y1539286D01*
X38069047Y1491667D01*
X38116666Y1444048D01*
X36783333Y872620D02*
X36783333Y1396429D01*
X36830952Y1491667D01*
X36926190Y1539286D01*
X37116666Y1539286D01*
X37211904Y1491667D01*
X36783333Y920239D02*
X36878571Y872620D01*
X37116666Y872620D01*
X37211904Y920239D01*
X37259523Y1015477D01*
X37259523Y1110715D01*
X37211904Y1205953D01*
X37116666Y1253572D01*
X36878571Y1253572D01*
X36783333Y1301191D01*
X36450000Y1539286D02*
X36069047Y1539286D01*
X36307142Y1872620D02*
X36307142Y1015477D01*
X36259523Y920239D01*
X36164285Y872620D01*
X36069047Y872620D01*
X35783333Y920239D02*
X35688095Y872620D01*
X35497619Y872620D01*
X35402380Y920239D01*
X35354761Y1015477D01*
X35354761Y1063096D01*
X35402380Y1158334D01*
X35497619Y1205953D01*
X35640476Y1205953D01*
X35735714Y1253572D01*
X35783333Y1348810D01*
X35783333Y1396429D01*
X35735714Y1491667D01*
X35640476Y1539286D01*
X35497619Y1539286D01*
X35402380Y1491667D01*
X34926190Y872620D02*
X34926190Y1539286D01*
X34926190Y1872620D02*
X34973809Y1825000D01*
X34926190Y1777381D01*
X34878571Y1825000D01*
X34926190Y1872620D01*
X34926190Y1777381D01*
X34592857Y1539286D02*
X34211904Y1539286D01*
X34450000Y1872620D02*
X34450000Y1015477D01*
X34402380Y920239D01*
X34307142Y872620D01*
X34211904Y872620D01*
X4450000Y15011905D02*
X4402380Y15107143D01*
X4402380Y15250000D01*
X4450000Y15392858D01*
X4545238Y15488096D01*
X4640476Y15535715D01*
X4830952Y15583334D01*
X4973809Y15583334D01*
X5164285Y15535715D01*
X5259523Y15488096D01*
X5354761Y15392858D01*
X5402380Y15250000D01*
X5402380Y15154762D01*
X5354761Y15011905D01*
X5307142Y14964286D01*
X4973809Y14964286D01*
X4973809Y15154762D01*
X5402380Y14535715D02*
X4402380Y14535715D01*
X5402380Y13964286D01*
X4402380Y13964286D01*
X5402380Y13488096D02*
X4402380Y13488096D01*
X4402380Y13250000D01*
X4450000Y13107143D01*
X4545238Y13011905D01*
X4640476Y12964286D01*
X4830952Y12916667D01*
X4973809Y12916667D01*
X5164285Y12964286D01*
X5259523Y13011905D01*
X5354761Y13107143D01*
X5402380Y13250000D01*
X5402380Y13488096D01*
X7902380Y14947620D02*
X7426190Y15280953D01*
X7902380Y15519048D02*
X6902380Y15519048D01*
X6902380Y15138096D01*
X6950000Y15042858D01*
X6997619Y14995239D01*
X7092857Y14947620D01*
X7235714Y14947620D01*
X7330952Y14995239D01*
X7378571Y15042858D01*
X7426190Y15138096D01*
X7426190Y15519048D01*
X7854761Y14566667D02*
X7902380Y14423810D01*
X7902380Y14185715D01*
X7854761Y14090477D01*
X7807142Y14042858D01*
X7711904Y13995239D01*
X7616666Y13995239D01*
X7521428Y14042858D01*
X7473809Y14090477D01*
X7426190Y14185715D01*
X7378571Y14376191D01*
X7330952Y14471429D01*
X7283333Y14519048D01*
X7188095Y14566667D01*
X7092857Y14566667D01*
X6997619Y14519048D01*
X6950000Y14471429D01*
X6902380Y14376191D01*
X6902380Y14138096D01*
X6950000Y13995239D01*
X6902380Y13709524D02*
X6902380Y13138096D01*
X7902380Y13423810D02*
X6902380Y13423810D01*
X113204761Y4967858D02*
X113252380Y4920239D01*
X113395238Y4872620D01*
X113490476Y4872620D01*
X113633333Y4920239D01*
X113728571Y5015477D01*
X113776190Y5110715D01*
X113823809Y5301191D01*
X113823809Y5444048D01*
X113776190Y5634524D01*
X113728571Y5729762D01*
X113633333Y5825000D01*
X113490476Y5872620D01*
X113395238Y5872620D01*
X113252380Y5825000D01*
X113204761Y5777381D01*
X112633333Y4872620D02*
X112728571Y4920239D01*
X112776190Y4967858D01*
X112823809Y5063096D01*
X112823809Y5348810D01*
X112776190Y5444048D01*
X112728571Y5491667D01*
X112633333Y5539286D01*
X112490476Y5539286D01*
X112395238Y5491667D01*
X112347619Y5444048D01*
X112300000Y5348810D01*
X112300000Y5063096D01*
X112347619Y4967858D01*
X112395238Y4920239D01*
X112490476Y4872620D01*
X112633333Y4872620D01*
X111871428Y4872620D02*
X111871428Y5539286D01*
X111871428Y5444048D02*
X111823809Y5491667D01*
X111728571Y5539286D01*
X111585714Y5539286D01*
X111490476Y5491667D01*
X111442857Y5396429D01*
X111442857Y4872620D01*
X111442857Y5396429D02*
X111395238Y5491667D01*
X111300000Y5539286D01*
X111157142Y5539286D01*
X111061904Y5491667D01*
X111014285Y5396429D01*
X111014285Y4872620D01*
X110538095Y5539286D02*
X110538095Y4539286D01*
X110538095Y5491667D02*
X110442857Y5539286D01*
X110252380Y5539286D01*
X110157142Y5491667D01*
X110109523Y5444048D01*
X110061904Y5348810D01*
X110061904Y5063096D01*
X110109523Y4967858D01*
X110157142Y4920239D01*
X110252380Y4872620D01*
X110442857Y4872620D01*
X110538095Y4920239D01*
X109204761Y4872620D02*
X109204761Y5396429D01*
X109252380Y5491667D01*
X109347619Y5539286D01*
X109538095Y5539286D01*
X109633333Y5491667D01*
X109204761Y4920239D02*
X109300000Y4872620D01*
X109538095Y4872620D01*
X109633333Y4920239D01*
X109680952Y5015477D01*
X109680952Y5110715D01*
X109633333Y5205953D01*
X109538095Y5253572D01*
X109300000Y5253572D01*
X109204761Y5301191D01*
X108300000Y4920239D02*
X108395238Y4872620D01*
X108585714Y4872620D01*
X108680952Y4920239D01*
X108728571Y4967858D01*
X108776190Y5063096D01*
X108776190Y5348810D01*
X108728571Y5444048D01*
X108680952Y5491667D01*
X108585714Y5539286D01*
X108395238Y5539286D01*
X108300000Y5491667D01*
X108014285Y5539286D02*
X107633333Y5539286D01*
X107871428Y5872620D02*
X107871428Y5015477D01*
X107823809Y4920239D01*
X107728571Y4872620D01*
X107633333Y4872620D01*
X107300000Y5253572D02*
X106538095Y5253572D01*
X105728571Y5396429D02*
X105585714Y5348810D01*
X105538095Y5301191D01*
X105490476Y5205953D01*
X105490476Y5063096D01*
X105538095Y4967858D01*
X105585714Y4920239D01*
X105680952Y4872620D01*
X106061904Y4872620D01*
X106061904Y5872620D01*
X105728571Y5872620D01*
X105633333Y5825000D01*
X105585714Y5777381D01*
X105538095Y5682143D01*
X105538095Y5586905D01*
X105585714Y5491667D01*
X105633333Y5444048D01*
X105728571Y5396429D01*
X106061904Y5396429D01*
X104680952Y4920239D02*
X104776190Y4872620D01*
X104966666Y4872620D01*
X105061904Y4920239D01*
X105109523Y5015477D01*
X105109523Y5396429D01*
X105061904Y5491667D01*
X104966666Y5539286D01*
X104776190Y5539286D01*
X104680952Y5491667D01*
X104633333Y5396429D01*
X104633333Y5301191D01*
X105109523Y5205953D01*
X103776190Y4872620D02*
X103776190Y5396429D01*
X103823809Y5491667D01*
X103919047Y5539286D01*
X104109523Y5539286D01*
X104204761Y5491667D01*
X103776190Y4920239D02*
X103871428Y4872620D01*
X104109523Y4872620D01*
X104204761Y4920239D01*
X104252380Y5015477D01*
X104252380Y5110715D01*
X104204761Y5205953D01*
X104109523Y5253572D01*
X103871428Y5253572D01*
X103776190Y5301191D01*
X103300000Y4872620D02*
X103300000Y5539286D01*
X103300000Y5444048D02*
X103252380Y5491667D01*
X103157142Y5539286D01*
X103014285Y5539286D01*
X102919047Y5491667D01*
X102871428Y5396429D01*
X102871428Y4872620D01*
X102871428Y5396429D02*
X102823809Y5491667D01*
X102728571Y5539286D01*
X102585714Y5539286D01*
X102490476Y5491667D01*
X102442857Y5396429D01*
X102442857Y4872620D01*
X102014285Y4920239D02*
X101919047Y4872620D01*
X101728571Y4872620D01*
X101633333Y4920239D01*
X101585714Y5015477D01*
X101585714Y5063096D01*
X101633333Y5158334D01*
X101728571Y5205953D01*
X101871428Y5205953D01*
X101966666Y5253572D01*
X102014285Y5348810D01*
X102014285Y5396429D01*
X101966666Y5491667D01*
X101871428Y5539286D01*
X101728571Y5539286D01*
X101633333Y5491667D01*
X101157142Y5539286D02*
X101157142Y4539286D01*
X101157142Y5491667D02*
X101061904Y5539286D01*
X100871428Y5539286D01*
X100776190Y5491667D01*
X100728571Y5444048D01*
X100680952Y5348810D01*
X100680952Y5063096D01*
X100728571Y4967858D01*
X100776190Y4920239D01*
X100871428Y4872620D01*
X101061904Y4872620D01*
X101157142Y4920239D01*
X100252380Y4872620D02*
X100252380Y5539286D01*
X100252380Y5348810D02*
X100204761Y5444048D01*
X100157142Y5491667D01*
X100061904Y5539286D01*
X99966666Y5539286D01*
X99633333Y4872620D02*
X99633333Y5539286D01*
X99633333Y5872620D02*
X99680952Y5825000D01*
X99633333Y5777381D01*
X99585714Y5825000D01*
X99633333Y5872620D01*
X99633333Y5777381D01*
X99157142Y5539286D02*
X99157142Y4872620D01*
X99157142Y5444048D02*
X99109523Y5491667D01*
X99014285Y5539286D01*
X98871428Y5539286D01*
X98776190Y5491667D01*
X98728571Y5396429D01*
X98728571Y4872620D01*
X97823809Y5539286D02*
X97823809Y4729762D01*
X97871428Y4634524D01*
X97919047Y4586905D01*
X98014285Y4539286D01*
X98157142Y4539286D01*
X98252380Y4586905D01*
X97823809Y4920239D02*
X97919047Y4872620D01*
X98109523Y4872620D01*
X98204761Y4920239D01*
X98252380Y4967858D01*
X98300000Y5063096D01*
X98300000Y5348810D01*
X98252380Y5444048D01*
X98204761Y5491667D01*
X98109523Y5539286D01*
X97919047Y5539286D01*
X97823809Y5491667D01*
X107490476Y3222620D02*
X107823809Y3698810D01*
X108061904Y3222620D02*
X108061904Y4222620D01*
X107680952Y4222620D01*
X107585714Y4175000D01*
X107538095Y4127381D01*
X107490476Y4032143D01*
X107490476Y3889286D01*
X107538095Y3794048D01*
X107585714Y3746429D01*
X107680952Y3698810D01*
X108061904Y3698810D01*
X106680952Y3270239D02*
X106776190Y3222620D01*
X106966666Y3222620D01*
X107061904Y3270239D01*
X107109523Y3365477D01*
X107109523Y3746429D01*
X107061904Y3841667D01*
X106966666Y3889286D01*
X106776190Y3889286D01*
X106680952Y3841667D01*
X106633333Y3746429D01*
X106633333Y3651191D01*
X107109523Y3555953D01*
X106300000Y3889286D02*
X106061904Y3222620D01*
X105823809Y3889286D01*
X104919047Y3222620D02*
X105490476Y3222620D01*
X105204761Y3222620D02*
X105204761Y4222620D01*
X105300000Y4079762D01*
X105395238Y3984524D01*
X105490476Y3936905D01*
X104490476Y3317858D02*
X104442857Y3270239D01*
X104490476Y3222620D01*
X104538095Y3270239D01*
X104490476Y3317858D01*
X104490476Y3222620D01*
X104109523Y4222620D02*
X103490476Y4222620D01*
X103823809Y3841667D01*
X103680952Y3841667D01*
X103585714Y3794048D01*
X103538095Y3746429D01*
X103490476Y3651191D01*
X103490476Y3413096D01*
X103538095Y3317858D01*
X103585714Y3270239D01*
X103680952Y3222620D01*
X103966666Y3222620D01*
X104061904Y3270239D01*
X104109523Y3317858D01*
X79142976Y7942858D02*
X79190595Y7895239D01*
X79333452Y7847620D01*
X79428690Y7847620D01*
X79571547Y7895239D01*
X79666785Y7990477D01*
X79714404Y8085715D01*
X79762023Y8276191D01*
X79762023Y8419048D01*
X79714404Y8609524D01*
X79666785Y8704762D01*
X79571547Y8800000D01*
X79428690Y8847620D01*
X79333452Y8847620D01*
X79190595Y8800000D01*
X79142976Y8752381D01*
X78571547Y7847620D02*
X78666785Y7895239D01*
X78714404Y7942858D01*
X78762023Y8038096D01*
X78762023Y8323810D01*
X78714404Y8419048D01*
X78666785Y8466667D01*
X78571547Y8514286D01*
X78428690Y8514286D01*
X78333452Y8466667D01*
X78285833Y8419048D01*
X78238214Y8323810D01*
X78238214Y8038096D01*
X78285833Y7942858D01*
X78333452Y7895239D01*
X78428690Y7847620D01*
X78571547Y7847620D01*
X77809642Y8514286D02*
X77809642Y7847620D01*
X77809642Y8419048D02*
X77762023Y8466667D01*
X77666785Y8514286D01*
X77523928Y8514286D01*
X77428690Y8466667D01*
X77381071Y8371429D01*
X77381071Y7847620D01*
X77047738Y8514286D02*
X76666785Y8514286D01*
X76904880Y8847620D02*
X76904880Y7990477D01*
X76857261Y7895239D01*
X76762023Y7847620D01*
X76666785Y7847620D01*
X76333452Y7847620D02*
X76333452Y8514286D01*
X76333452Y8323810D02*
X76285833Y8419048D01*
X76238214Y8466667D01*
X76142976Y8514286D01*
X76047738Y8514286D01*
X75714404Y7847620D02*
X75714404Y8514286D01*
X75714404Y8847620D02*
X75762023Y8800000D01*
X75714404Y8752381D01*
X75666785Y8800000D01*
X75714404Y8847620D01*
X75714404Y8752381D01*
X75238214Y7847620D02*
X75238214Y8847620D01*
X75238214Y8466667D02*
X75142976Y8514286D01*
X74952500Y8514286D01*
X74857261Y8466667D01*
X74809642Y8419048D01*
X74762023Y8323810D01*
X74762023Y8038096D01*
X74809642Y7942858D01*
X74857261Y7895239D01*
X74952500Y7847620D01*
X75142976Y7847620D01*
X75238214Y7895239D01*
X73904880Y8514286D02*
X73904880Y7847620D01*
X74333452Y8514286D02*
X74333452Y7990477D01*
X74285833Y7895239D01*
X74190595Y7847620D01*
X74047738Y7847620D01*
X73952500Y7895239D01*
X73904880Y7942858D01*
X73571547Y8514286D02*
X73190595Y8514286D01*
X73428690Y8847620D02*
X73428690Y7990477D01*
X73381071Y7895239D01*
X73285833Y7847620D01*
X73190595Y7847620D01*
X72714404Y7847620D02*
X72809642Y7895239D01*
X72857261Y7942858D01*
X72904880Y8038096D01*
X72904880Y8323810D01*
X72857261Y8419048D01*
X72809642Y8466667D01*
X72714404Y8514286D01*
X72571547Y8514286D01*
X72476309Y8466667D01*
X72428690Y8419048D01*
X72381071Y8323810D01*
X72381071Y8038096D01*
X72428690Y7942858D01*
X72476309Y7895239D01*
X72571547Y7847620D01*
X72714404Y7847620D01*
X71952500Y7847620D02*
X71952500Y8514286D01*
X71952500Y8323810D02*
X71904880Y8419048D01*
X71857261Y8466667D01*
X71762023Y8514286D01*
X71666785Y8514286D01*
X71381071Y7895239D02*
X71285833Y7847620D01*
X71095357Y7847620D01*
X71000119Y7895239D01*
X70952500Y7990477D01*
X70952500Y8038096D01*
X71000119Y8133334D01*
X71095357Y8180953D01*
X71238214Y8180953D01*
X71333452Y8228572D01*
X71381071Y8323810D01*
X71381071Y8371429D01*
X71333452Y8466667D01*
X71238214Y8514286D01*
X71095357Y8514286D01*
X71000119Y8466667D01*
X70523928Y7942858D02*
X70476309Y7895239D01*
X70523928Y7847620D01*
X70571547Y7895239D01*
X70523928Y7942858D01*
X70523928Y7847620D01*
X70523928Y8466667D02*
X70476309Y8419048D01*
X70523928Y8371429D01*
X70571547Y8419048D01*
X70523928Y8466667D01*
X70523928Y8371429D01*
X78047738Y7197620D02*
X78047738Y6959524D01*
X78285833Y7054762D02*
X78047738Y6959524D01*
X77809642Y7054762D01*
X78190595Y6769048D02*
X78047738Y6959524D01*
X77904880Y6769048D01*
X76666785Y6864286D02*
X76666785Y5864286D01*
X76666785Y6816667D02*
X76571547Y6864286D01*
X76381071Y6864286D01*
X76285833Y6816667D01*
X76238214Y6769048D01*
X76190595Y6673810D01*
X76190595Y6388096D01*
X76238214Y6292858D01*
X76285833Y6245239D01*
X76381071Y6197620D01*
X76571547Y6197620D01*
X76666785Y6245239D01*
X75333452Y6197620D02*
X75333452Y6721429D01*
X75381071Y6816667D01*
X75476309Y6864286D01*
X75666785Y6864286D01*
X75762023Y6816667D01*
X75333452Y6245239D02*
X75428690Y6197620D01*
X75666785Y6197620D01*
X75762023Y6245239D01*
X75809642Y6340477D01*
X75809642Y6435715D01*
X75762023Y6530953D01*
X75666785Y6578572D01*
X75428690Y6578572D01*
X75333452Y6626191D01*
X74857261Y6864286D02*
X74857261Y6197620D01*
X74857261Y6769048D02*
X74809642Y6816667D01*
X74714404Y6864286D01*
X74571547Y6864286D01*
X74476309Y6816667D01*
X74428690Y6721429D01*
X74428690Y6197620D01*
X73523928Y6197620D02*
X73523928Y7197620D01*
X73523928Y6245239D02*
X73619166Y6197620D01*
X73809642Y6197620D01*
X73904880Y6245239D01*
X73952500Y6292858D01*
X74000119Y6388096D01*
X74000119Y6673810D01*
X73952500Y6769048D01*
X73904880Y6816667D01*
X73809642Y6864286D01*
X73619166Y6864286D01*
X73523928Y6816667D01*
X73047738Y6197620D02*
X73047738Y6864286D01*
X73047738Y6673810D02*
X73000119Y6769048D01*
X72952500Y6816667D01*
X72857261Y6864286D01*
X72762023Y6864286D01*
X72047738Y6245239D02*
X72142976Y6197620D01*
X72333452Y6197620D01*
X72428690Y6245239D01*
X72476309Y6340477D01*
X72476309Y6721429D01*
X72428690Y6816667D01*
X72333452Y6864286D01*
X72142976Y6864286D01*
X72047738Y6816667D01*
X72000119Y6721429D01*
X72000119Y6626191D01*
X72476309Y6530953D01*
X71666785Y6864286D02*
X71476309Y6197620D01*
X71285833Y6673810D01*
X71095357Y6197620D01*
X70904880Y6864286D01*
X78047738Y5547620D02*
X78047738Y5309524D01*
X78285833Y5404762D02*
X78047738Y5309524D01*
X77809642Y5404762D01*
X78190595Y5119048D02*
X78047738Y5309524D01*
X77904880Y5119048D01*
X76523928Y4547620D02*
X76619166Y4595239D01*
X76666785Y4690477D01*
X76666785Y5547620D01*
X76142976Y4547620D02*
X76142976Y5214286D01*
X76142976Y5547620D02*
X76190595Y5500000D01*
X76142976Y5452381D01*
X76095357Y5500000D01*
X76142976Y5547620D01*
X76142976Y5452381D01*
X75714404Y4595239D02*
X75619166Y4547620D01*
X75428690Y4547620D01*
X75333452Y4595239D01*
X75285833Y4690477D01*
X75285833Y4738096D01*
X75333452Y4833334D01*
X75428690Y4880953D01*
X75571547Y4880953D01*
X75666785Y4928572D01*
X75714404Y5023810D01*
X75714404Y5071429D01*
X75666785Y5166667D01*
X75571547Y5214286D01*
X75428690Y5214286D01*
X75333452Y5166667D01*
X75000119Y5214286D02*
X74619166Y5214286D01*
X74857261Y5547620D02*
X74857261Y4690477D01*
X74809642Y4595239D01*
X74714404Y4547620D01*
X74619166Y4547620D01*
X74142976Y4547620D02*
X74238214Y4595239D01*
X74285833Y4642858D01*
X74333452Y4738096D01*
X74333452Y5023810D01*
X74285833Y5119048D01*
X74238214Y5166667D01*
X74142976Y5214286D01*
X74000119Y5214286D01*
X73904880Y5166667D01*
X73857261Y5119048D01*
X73809642Y5023810D01*
X73809642Y4738096D01*
X73857261Y4642858D01*
X73904880Y4595239D01*
X74000119Y4547620D01*
X74142976Y4547620D01*
X73523928Y5214286D02*
X73142976Y5214286D01*
X73381071Y4547620D02*
X73381071Y5404762D01*
X73333452Y5500000D01*
X73238214Y5547620D01*
X73142976Y5547620D01*
X72666785Y4547620D02*
X72762023Y4595239D01*
X72809642Y4642858D01*
X72857261Y4738096D01*
X72857261Y5023810D01*
X72809642Y5119048D01*
X72762023Y5166667D01*
X72666785Y5214286D01*
X72523928Y5214286D01*
X72428690Y5166667D01*
X72381071Y5119048D01*
X72333452Y5023810D01*
X72333452Y4738096D01*
X72381071Y4642858D01*
X72428690Y4595239D01*
X72523928Y4547620D01*
X72666785Y4547620D01*
X71904880Y5214286D02*
X71904880Y4214286D01*
X71904880Y5166667D02*
X71809642Y5214286D01*
X71619166Y5214286D01*
X71523928Y5166667D01*
X71476309Y5119048D01*
X71428690Y5023810D01*
X71428690Y4738096D01*
X71476309Y4642858D01*
X71523928Y4595239D01*
X71619166Y4547620D01*
X71809642Y4547620D01*
X71904880Y4595239D01*
X71142976Y5214286D02*
X70762023Y5214286D01*
X71000119Y5547620D02*
X71000119Y4690477D01*
X70952500Y4595239D01*
X70857261Y4547620D01*
X70762023Y4547620D01*
X70428690Y4547620D02*
X70428690Y5214286D01*
X70428690Y5547620D02*
X70476309Y5500000D01*
X70428690Y5452381D01*
X70381071Y5500000D01*
X70428690Y5547620D01*
X70428690Y5452381D01*
X69809642Y4547620D02*
X69904880Y4595239D01*
X69952500Y4642858D01*
X70000119Y4738096D01*
X70000119Y5023810D01*
X69952500Y5119048D01*
X69904880Y5166667D01*
X69809642Y5214286D01*
X69666785Y5214286D01*
X69571547Y5166667D01*
X69523928Y5119048D01*
X69476309Y5023810D01*
X69476309Y4738096D01*
X69523928Y4642858D01*
X69571547Y4595239D01*
X69666785Y4547620D01*
X69809642Y4547620D01*
X69047738Y5214286D02*
X69047738Y4547620D01*
X69047738Y5119048D02*
X69000119Y5166667D01*
X68904880Y5214286D01*
X68762023Y5214286D01*
X68666785Y5166667D01*
X68619166Y5071429D01*
X68619166Y4547620D01*
X68190595Y4595239D02*
X68095357Y4547620D01*
X67904880Y4547620D01*
X67809642Y4595239D01*
X67762023Y4690477D01*
X67762023Y4738096D01*
X67809642Y4833334D01*
X67904880Y4880953D01*
X68047738Y4880953D01*
X68142976Y4928572D01*
X68190595Y5023810D01*
X68190595Y5071429D01*
X68142976Y5166667D01*
X68047738Y5214286D01*
X67904880Y5214286D01*
X67809642Y5166667D01*
X78047738Y3897620D02*
X78047738Y3659524D01*
X78285833Y3754762D02*
X78047738Y3659524D01*
X77809642Y3754762D01*
X78190595Y3469048D02*
X78047738Y3659524D01*
X77904880Y3469048D01*
X76666785Y2897620D02*
X76666785Y3897620D01*
X76571547Y3278572D02*
X76285833Y2897620D01*
X76285833Y3564286D02*
X76666785Y3183334D01*
X75857261Y2897620D02*
X75857261Y3564286D01*
X75857261Y3469048D02*
X75809642Y3516667D01*
X75714404Y3564286D01*
X75571547Y3564286D01*
X75476309Y3516667D01*
X75428690Y3421429D01*
X75428690Y2897620D01*
X75428690Y3421429D02*
X75381071Y3516667D01*
X75285833Y3564286D01*
X75142976Y3564286D01*
X75047738Y3516667D01*
X75000119Y3421429D01*
X75000119Y2897620D01*
X74523928Y3564286D02*
X74523928Y2897620D01*
X74523928Y3469048D02*
X74476309Y3516667D01*
X74381071Y3564286D01*
X74238214Y3564286D01*
X74142976Y3516667D01*
X74095357Y3421429D01*
X74095357Y2897620D01*
X73476309Y2897620D02*
X73571547Y2945239D01*
X73619166Y2992858D01*
X73666785Y3088096D01*
X73666785Y3373810D01*
X73619166Y3469048D01*
X73571547Y3516667D01*
X73476309Y3564286D01*
X73333452Y3564286D01*
X73238214Y3516667D01*
X73190595Y3469048D01*
X73142976Y3373810D01*
X73142976Y3088096D01*
X73190595Y2992858D01*
X73238214Y2945239D01*
X73333452Y2897620D01*
X73476309Y2897620D01*
X72809642Y3564286D02*
X72571547Y2897620D01*
X72333452Y3564286D01*
X72000119Y3802381D02*
X71952500Y3850000D01*
X71857261Y3897620D01*
X71619166Y3897620D01*
X71523928Y3850000D01*
X71476309Y3802381D01*
X71428690Y3707143D01*
X71428690Y3611905D01*
X71476309Y3469048D01*
X72047738Y2897620D01*
X71428690Y2897620D01*
X70809642Y3897620D02*
X70714404Y3897620D01*
X70619166Y3850000D01*
X70571547Y3802381D01*
X70523928Y3707143D01*
X70476309Y3516667D01*
X70476309Y3278572D01*
X70523928Y3088096D01*
X70571547Y2992858D01*
X70619166Y2945239D01*
X70714404Y2897620D01*
X70809642Y2897620D01*
X70904880Y2945239D01*
X70952500Y2992858D01*
X71000119Y3088096D01*
X71047738Y3278572D01*
X71047738Y3516667D01*
X71000119Y3707143D01*
X70952500Y3802381D01*
X70904880Y3850000D01*
X70809642Y3897620D01*
X69523928Y2897620D02*
X70095357Y2897620D01*
X69809642Y2897620D02*
X69809642Y3897620D01*
X69904880Y3754762D01*
X70000119Y3659524D01*
X70095357Y3611905D01*
X69190595Y3897620D02*
X68523928Y3897620D01*
X68952500Y2897620D01*
X78047738Y2247620D02*
X78047738Y2009524D01*
X78285833Y2104762D02*
X78047738Y2009524D01*
X77809642Y2104762D01*
X78190595Y1819048D02*
X78047738Y2009524D01*
X77904880Y1819048D01*
X76809642Y1914286D02*
X76428690Y1914286D01*
X76666785Y2247620D02*
X76666785Y1390477D01*
X76619166Y1295239D01*
X76523928Y1247620D01*
X76428690Y1247620D01*
X75714404Y1295239D02*
X75809642Y1247620D01*
X76000119Y1247620D01*
X76095357Y1295239D01*
X76142976Y1390477D01*
X76142976Y1771429D01*
X76095357Y1866667D01*
X76000119Y1914286D01*
X75809642Y1914286D01*
X75714404Y1866667D01*
X75666785Y1771429D01*
X75666785Y1676191D01*
X76142976Y1580953D01*
X75238214Y1914286D02*
X75238214Y1247620D01*
X75238214Y1819048D02*
X75190595Y1866667D01*
X75095357Y1914286D01*
X74952500Y1914286D01*
X74857261Y1866667D01*
X74809642Y1771429D01*
X74809642Y1247620D01*
X74476309Y1914286D02*
X74095357Y1914286D01*
X74333452Y2247620D02*
X74333452Y1390477D01*
X74285833Y1295239D01*
X74190595Y1247620D01*
X74095357Y1247620D01*
X73333452Y1247620D02*
X73333452Y1771429D01*
X73381071Y1866667D01*
X73476309Y1914286D01*
X73666785Y1914286D01*
X73762023Y1866667D01*
X73333452Y1295239D02*
X73428690Y1247620D01*
X73666785Y1247620D01*
X73762023Y1295239D01*
X73809642Y1390477D01*
X73809642Y1485715D01*
X73762023Y1580953D01*
X73666785Y1628572D01*
X73428690Y1628572D01*
X73333452Y1676191D01*
X73000119Y1914286D02*
X72619166Y1914286D01*
X72857261Y2247620D02*
X72857261Y1390477D01*
X72809642Y1295239D01*
X72714404Y1247620D01*
X72619166Y1247620D01*
X72142976Y1247620D02*
X72238214Y1295239D01*
X72285833Y1342858D01*
X72333452Y1438096D01*
X72333452Y1723810D01*
X72285833Y1819048D01*
X72238214Y1866667D01*
X72142976Y1914286D01*
X72000119Y1914286D01*
X71904880Y1866667D01*
X71857261Y1819048D01*
X71809642Y1723810D01*
X71809642Y1438096D01*
X71857261Y1342858D01*
X71904880Y1295239D01*
X72000119Y1247620D01*
X72142976Y1247620D01*
X71381071Y1247620D02*
X71381071Y1914286D01*
X71381071Y1723810D02*
X71333452Y1819048D01*
X71285833Y1866667D01*
X71190595Y1914286D01*
X71095357Y1914286D01*
D10*
X162104761Y5208929D02*
X162128571Y5185120D01*
X162200000Y5161310D01*
X162247619Y5161310D01*
X162319047Y5185120D01*
X162366666Y5232739D01*
X162390476Y5280358D01*
X162414285Y5375596D01*
X162414285Y5447024D01*
X162390476Y5542262D01*
X162366666Y5589881D01*
X162319047Y5637500D01*
X162247619Y5661310D01*
X162200000Y5661310D01*
X162128571Y5637500D01*
X162104761Y5613691D01*
X161890476Y5161310D02*
X161890476Y5661310D01*
X161890476Y5423215D02*
X161604761Y5423215D01*
X161604761Y5161310D02*
X161604761Y5661310D01*
X161390476Y5304167D02*
X161152380Y5304167D01*
X161438095Y5161310D02*
X161271428Y5661310D01*
X161104761Y5161310D01*
X160961904Y5185120D02*
X160890476Y5161310D01*
X160771428Y5161310D01*
X160723809Y5185120D01*
X160700000Y5208929D01*
X160676190Y5256548D01*
X160676190Y5304167D01*
X160700000Y5351786D01*
X160723809Y5375596D01*
X160771428Y5399405D01*
X160866666Y5423215D01*
X160914285Y5447024D01*
X160938095Y5470834D01*
X160961904Y5518453D01*
X160961904Y5566072D01*
X160938095Y5613691D01*
X160914285Y5637500D01*
X160866666Y5661310D01*
X160747619Y5661310D01*
X160676190Y5637500D01*
X160485714Y5185120D02*
X160414285Y5161310D01*
X160295238Y5161310D01*
X160247619Y5185120D01*
X160223809Y5208929D01*
X160200000Y5256548D01*
X160200000Y5304167D01*
X160223809Y5351786D01*
X160247619Y5375596D01*
X160295238Y5399405D01*
X160390476Y5423215D01*
X160438095Y5447024D01*
X160461904Y5470834D01*
X160485714Y5518453D01*
X160485714Y5566072D01*
X160461904Y5613691D01*
X160438095Y5637500D01*
X160390476Y5661310D01*
X160271428Y5661310D01*
X160200000Y5637500D01*
X159985714Y5161310D02*
X159985714Y5661310D01*
X159771428Y5185120D02*
X159700000Y5161310D01*
X159580952Y5161310D01*
X159533333Y5185120D01*
X159509523Y5208929D01*
X159485714Y5256548D01*
X159485714Y5304167D01*
X159509523Y5351786D01*
X159533333Y5375596D01*
X159580952Y5399405D01*
X159676190Y5423215D01*
X159723809Y5447024D01*
X159747619Y5470834D01*
X159771428Y5518453D01*
X159771428Y5566072D01*
X159747619Y5613691D01*
X159723809Y5637500D01*
X159676190Y5661310D01*
X159557142Y5661310D01*
X159485714Y5637500D01*
X161330952Y4762500D02*
X161378571Y4786310D01*
X161450000Y4786310D01*
X161521428Y4762500D01*
X161569047Y4714881D01*
X161592857Y4667262D01*
X161616666Y4572024D01*
X161616666Y4500596D01*
X161592857Y4405358D01*
X161569047Y4357739D01*
X161521428Y4310120D01*
X161450000Y4286310D01*
X161402380Y4286310D01*
X161330952Y4310120D01*
X161307142Y4333929D01*
X161307142Y4500596D01*
X161402380Y4500596D01*
X161092857Y4286310D02*
X161092857Y4786310D01*
X160807142Y4286310D01*
X160807142Y4786310D01*
X160569047Y4286310D02*
X160569047Y4786310D01*
X160450000Y4786310D01*
X160378571Y4762500D01*
X160330952Y4714881D01*
X160307142Y4667262D01*
X160283333Y4572024D01*
X160283333Y4500596D01*
X160307142Y4405358D01*
X160330952Y4357739D01*
X160378571Y4310120D01*
X160450000Y4286310D01*
X160569047Y4286310D01*
X25188095Y32201191D02*
X25354761Y32701191D01*
X25521428Y32201191D01*
X25759523Y32701191D02*
X25711904Y32677381D01*
X25688095Y32653572D01*
X25664285Y32605953D01*
X25664285Y32463096D01*
X25688095Y32415477D01*
X25711904Y32391667D01*
X25759523Y32367858D01*
X25830952Y32367858D01*
X25878571Y32391667D01*
X25902380Y32415477D01*
X25926190Y32463096D01*
X25926190Y32605953D01*
X25902380Y32653572D01*
X25878571Y32677381D01*
X25830952Y32701191D01*
X25759523Y32701191D01*
X26354761Y32367858D02*
X26354761Y32701191D01*
X26140476Y32367858D02*
X26140476Y32629762D01*
X26164285Y32677381D01*
X26211904Y32701191D01*
X26283333Y32701191D01*
X26330952Y32677381D01*
X26354761Y32653572D01*
X26521428Y32367858D02*
X26711904Y32367858D01*
X26592857Y32201191D02*
X26592857Y32629762D01*
X26616666Y32677381D01*
X26664285Y32701191D01*
X26711904Y32701191D01*
X7291666Y32201191D02*
X7458333Y32701191D01*
X7625000Y32201191D01*
X7863095Y32701191D02*
X7815476Y32677381D01*
X7791666Y32653572D01*
X7767857Y32605953D01*
X7767857Y32463096D01*
X7791666Y32415477D01*
X7815476Y32391667D01*
X7863095Y32367858D01*
X7934523Y32367858D01*
X7982142Y32391667D01*
X8005952Y32415477D01*
X8029761Y32463096D01*
X8029761Y32605953D01*
X8005952Y32653572D01*
X7982142Y32677381D01*
X7934523Y32701191D01*
X7863095Y32701191D01*
X8315476Y32701191D02*
X8267857Y32677381D01*
X8244047Y32629762D01*
X8244047Y32201191D01*
X8434523Y32367858D02*
X8625000Y32367858D01*
X8505952Y32201191D02*
X8505952Y32629762D01*
X8529761Y32677381D01*
X8577380Y32701191D01*
X8625000Y32701191D01*
X9005952Y32701191D02*
X9005952Y32439286D01*
X8982142Y32391667D01*
X8934523Y32367858D01*
X8839285Y32367858D01*
X8791666Y32391667D01*
X9005952Y32677381D02*
X8958333Y32701191D01*
X8839285Y32701191D01*
X8791666Y32677381D01*
X8767857Y32629762D01*
X8767857Y32582143D01*
X8791666Y32534524D01*
X8839285Y32510715D01*
X8958333Y32510715D01*
X9005952Y32486905D01*
X9458333Y32367858D02*
X9458333Y32772620D01*
X9434523Y32820239D01*
X9410714Y32844048D01*
X9363095Y32867858D01*
X9291666Y32867858D01*
X9244047Y32844048D01*
X9458333Y32677381D02*
X9410714Y32701191D01*
X9315476Y32701191D01*
X9267857Y32677381D01*
X9244047Y32653572D01*
X9220238Y32605953D01*
X9220238Y32463096D01*
X9244047Y32415477D01*
X9267857Y32391667D01*
X9315476Y32367858D01*
X9410714Y32367858D01*
X9458333Y32391667D01*
X9886904Y32677381D02*
X9839285Y32701191D01*
X9744047Y32701191D01*
X9696428Y32677381D01*
X9672619Y32629762D01*
X9672619Y32439286D01*
X9696428Y32391667D01*
X9744047Y32367858D01*
X9839285Y32367858D01*
X9886904Y32391667D01*
X9910714Y32439286D01*
X9910714Y32486905D01*
X9672619Y32534524D01*
X6800000Y31526191D02*
X7085714Y31526191D01*
X6942857Y32026191D02*
X6942857Y31526191D01*
X7252380Y32026191D02*
X7252380Y31526191D01*
X7466666Y32026191D02*
X7466666Y31764286D01*
X7442857Y31716667D01*
X7395238Y31692858D01*
X7323809Y31692858D01*
X7276190Y31716667D01*
X7252380Y31740477D01*
X7704761Y32026191D02*
X7704761Y31692858D01*
X7704761Y31788096D02*
X7728571Y31740477D01*
X7752380Y31716667D01*
X7800000Y31692858D01*
X7847619Y31692858D01*
X8204761Y32002381D02*
X8157142Y32026191D01*
X8061904Y32026191D01*
X8014285Y32002381D01*
X7990476Y31954762D01*
X7990476Y31764286D01*
X8014285Y31716667D01*
X8061904Y31692858D01*
X8157142Y31692858D01*
X8204761Y31716667D01*
X8228571Y31764286D01*
X8228571Y31811905D01*
X7990476Y31859524D01*
X8419047Y32002381D02*
X8466666Y32026191D01*
X8561904Y32026191D01*
X8609523Y32002381D01*
X8633333Y31954762D01*
X8633333Y31930953D01*
X8609523Y31883334D01*
X8561904Y31859524D01*
X8490476Y31859524D01*
X8442857Y31835715D01*
X8419047Y31788096D01*
X8419047Y31764286D01*
X8442857Y31716667D01*
X8490476Y31692858D01*
X8561904Y31692858D01*
X8609523Y31716667D01*
X8847619Y32026191D02*
X8847619Y31526191D01*
X9061904Y32026191D02*
X9061904Y31764286D01*
X9038095Y31716667D01*
X8990476Y31692858D01*
X8919047Y31692858D01*
X8871428Y31716667D01*
X8847619Y31740477D01*
X9371428Y32026191D02*
X9323809Y32002381D01*
X9300000Y31978572D01*
X9276190Y31930953D01*
X9276190Y31788096D01*
X9300000Y31740477D01*
X9323809Y31716667D01*
X9371428Y31692858D01*
X9442857Y31692858D01*
X9490476Y31716667D01*
X9514285Y31740477D01*
X9538095Y31788096D01*
X9538095Y31930953D01*
X9514285Y31978572D01*
X9490476Y32002381D01*
X9442857Y32026191D01*
X9371428Y32026191D01*
X9823809Y32026191D02*
X9776190Y32002381D01*
X9752380Y31954762D01*
X9752380Y31526191D01*
X10228571Y32026191D02*
X10228571Y31526191D01*
X10228571Y32002381D02*
X10180952Y32026191D01*
X10085714Y32026191D01*
X10038095Y32002381D01*
X10014285Y31978572D01*
X9990476Y31930953D01*
X9990476Y31788096D01*
X10014285Y31740477D01*
X10038095Y31716667D01*
X10085714Y31692858D01*
X10180952Y31692858D01*
X10228571Y31716667D01*
X25304761Y31976191D02*
X25304761Y31476191D01*
X25423809Y31476191D01*
X25495238Y31500000D01*
X25542857Y31547620D01*
X25566666Y31595239D01*
X25590476Y31690477D01*
X25590476Y31761905D01*
X25566666Y31857143D01*
X25542857Y31904762D01*
X25495238Y31952381D01*
X25423809Y31976191D01*
X25304761Y31976191D01*
X25780952Y31833334D02*
X26019047Y31833334D01*
X25733333Y31976191D02*
X25900000Y31476191D01*
X26066666Y31976191D01*
X26519047Y31928572D02*
X26495238Y31952381D01*
X26423809Y31976191D01*
X26376190Y31976191D01*
X26304761Y31952381D01*
X26257142Y31904762D01*
X26233333Y31857143D01*
X26209523Y31761905D01*
X26209523Y31690477D01*
X26233333Y31595239D01*
X26257142Y31547620D01*
X26304761Y31500000D01*
X26376190Y31476191D01*
X26423809Y31476191D01*
X26495238Y31500000D01*
X26519047Y31523810D01*
D11*
X116909523Y30153572D02*
X117052380Y30201191D01*
X117100000Y30248810D01*
X117147619Y30344048D01*
X117147619Y30486905D01*
X117100000Y30582143D01*
X117052380Y30629762D01*
X116957142Y30677381D01*
X116576190Y30677381D01*
X116576190Y29677381D01*
X116909523Y29677381D01*
X117004761Y29725000D01*
X117052380Y29772620D01*
X117100000Y29867858D01*
X117100000Y29963096D01*
X117052380Y30058334D01*
X117004761Y30105953D01*
X116909523Y30153572D01*
X116576190Y30153572D01*
X118004761Y30677381D02*
X118004761Y30153572D01*
X117957142Y30058334D01*
X117861904Y30010715D01*
X117671428Y30010715D01*
X117576190Y30058334D01*
X118004761Y30629762D02*
X117909523Y30677381D01*
X117671428Y30677381D01*
X117576190Y30629762D01*
X117528571Y30534524D01*
X117528571Y30439286D01*
X117576190Y30344048D01*
X117671428Y30296429D01*
X117909523Y30296429D01*
X118004761Y30248810D01*
X118433333Y30629762D02*
X118528571Y30677381D01*
X118719047Y30677381D01*
X118814285Y30629762D01*
X118861904Y30534524D01*
X118861904Y30486905D01*
X118814285Y30391667D01*
X118719047Y30344048D01*
X118576190Y30344048D01*
X118480952Y30296429D01*
X118433333Y30201191D01*
X118433333Y30153572D01*
X118480952Y30058334D01*
X118576190Y30010715D01*
X118719047Y30010715D01*
X118814285Y30058334D01*
X119671428Y30629762D02*
X119576190Y30677381D01*
X119385714Y30677381D01*
X119290476Y30629762D01*
X119242857Y30534524D01*
X119242857Y30153572D01*
X119290476Y30058334D01*
X119385714Y30010715D01*
X119576190Y30010715D01*
X119671428Y30058334D01*
X119719047Y30153572D01*
X119719047Y30248810D01*
X119242857Y30344048D01*
X120576190Y30677381D02*
X120576190Y29677381D01*
X120576190Y30629762D02*
X120480952Y30677381D01*
X120290476Y30677381D01*
X120195238Y30629762D01*
X120147619Y30582143D01*
X120100000Y30486905D01*
X120100000Y30201191D01*
X120147619Y30105953D01*
X120195238Y30058334D01*
X120290476Y30010715D01*
X120480952Y30010715D01*
X120576190Y30058334D01*
X121957142Y30677381D02*
X121861904Y30629762D01*
X121814285Y30582143D01*
X121766666Y30486905D01*
X121766666Y30201191D01*
X121814285Y30105953D01*
X121861904Y30058334D01*
X121957142Y30010715D01*
X122100000Y30010715D01*
X122195238Y30058334D01*
X122242857Y30105953D01*
X122290476Y30201191D01*
X122290476Y30486905D01*
X122242857Y30582143D01*
X122195238Y30629762D01*
X122100000Y30677381D01*
X121957142Y30677381D01*
X122719047Y30010715D02*
X122719047Y30677381D01*
X122719047Y30105953D02*
X122766666Y30058334D01*
X122861904Y30010715D01*
X123004761Y30010715D01*
X123100000Y30058334D01*
X123147619Y30153572D01*
X123147619Y30677381D01*
X124528571Y30677381D02*
X124433333Y30629762D01*
X124385714Y30582143D01*
X124338095Y30486905D01*
X124338095Y30201191D01*
X124385714Y30105953D01*
X124433333Y30058334D01*
X124528571Y30010715D01*
X124671428Y30010715D01*
X124766666Y30058334D01*
X124814285Y30105953D01*
X124861904Y30201191D01*
X124861904Y30486905D01*
X124814285Y30582143D01*
X124766666Y30629762D01*
X124671428Y30677381D01*
X124528571Y30677381D01*
X125290476Y30677381D02*
X125290476Y30010715D01*
X125290476Y30201191D02*
X125338095Y30105953D01*
X125385714Y30058334D01*
X125480952Y30010715D01*
X125576190Y30010715D01*
X125909523Y30677381D02*
X125909523Y30010715D01*
X125909523Y29677381D02*
X125861904Y29725000D01*
X125909523Y29772620D01*
X125957142Y29725000D01*
X125909523Y29677381D01*
X125909523Y29772620D01*
X126814285Y30010715D02*
X126814285Y30820239D01*
X126766666Y30915477D01*
X126719047Y30963096D01*
X126623809Y31010715D01*
X126480952Y31010715D01*
X126385714Y30963096D01*
X126814285Y30629762D02*
X126719047Y30677381D01*
X126528571Y30677381D01*
X126433333Y30629762D01*
X126385714Y30582143D01*
X126338095Y30486905D01*
X126338095Y30201191D01*
X126385714Y30105953D01*
X126433333Y30058334D01*
X126528571Y30010715D01*
X126719047Y30010715D01*
X126814285Y30058334D01*
X127290476Y30677381D02*
X127290476Y30010715D01*
X127290476Y29677381D02*
X127242857Y29725000D01*
X127290476Y29772620D01*
X127338095Y29725000D01*
X127290476Y29677381D01*
X127290476Y29772620D01*
X127766666Y30010715D02*
X127766666Y30677381D01*
X127766666Y30105953D02*
X127814285Y30058334D01*
X127909523Y30010715D01*
X128052380Y30010715D01*
X128147619Y30058334D01*
X128195238Y30153572D01*
X128195238Y30677381D01*
X129100000Y30677381D02*
X129100000Y30153572D01*
X129052380Y30058334D01*
X128957142Y30010715D01*
X128766666Y30010715D01*
X128671428Y30058334D01*
X129100000Y30629762D02*
X129004761Y30677381D01*
X128766666Y30677381D01*
X128671428Y30629762D01*
X128623809Y30534524D01*
X128623809Y30439286D01*
X128671428Y30344048D01*
X128766666Y30296429D01*
X129004761Y30296429D01*
X129100000Y30248810D01*
X129719047Y30677381D02*
X129623809Y30629762D01*
X129576190Y30534524D01*
X129576190Y29677381D01*
X116909523Y31660715D02*
X117100000Y32327381D01*
X117290476Y31851191D01*
X117480952Y32327381D01*
X117671428Y31660715D01*
X118195238Y32327381D02*
X118100000Y32279762D01*
X118052380Y32232143D01*
X118004761Y32136905D01*
X118004761Y31851191D01*
X118052380Y31755953D01*
X118100000Y31708334D01*
X118195238Y31660715D01*
X118338095Y31660715D01*
X118433333Y31708334D01*
X118480952Y31755953D01*
X118528571Y31851191D01*
X118528571Y32136905D01*
X118480952Y32232143D01*
X118433333Y32279762D01*
X118338095Y32327381D01*
X118195238Y32327381D01*
X118957142Y32327381D02*
X118957142Y31660715D01*
X118957142Y31851191D02*
X119004761Y31755953D01*
X119052380Y31708334D01*
X119147619Y31660715D01*
X119242857Y31660715D01*
X119576190Y32327381D02*
X119576190Y31327381D01*
X119671428Y31946429D02*
X119957142Y32327381D01*
X119957142Y31660715D02*
X119576190Y32041667D01*
X121147619Y32327381D02*
X121147619Y31327381D01*
X121147619Y31708334D02*
X121242857Y31660715D01*
X121433333Y31660715D01*
X121528571Y31708334D01*
X121576190Y31755953D01*
X121623809Y31851191D01*
X121623809Y32136905D01*
X121576190Y32232143D01*
X121528571Y32279762D01*
X121433333Y32327381D01*
X121242857Y32327381D01*
X121147619Y32279762D01*
X121957142Y31660715D02*
X122195238Y32327381D01*
X122433333Y31660715D02*
X122195238Y32327381D01*
X122100000Y32565477D01*
X122052380Y32613096D01*
X121957142Y32660715D01*
X123480952Y32327381D02*
X124004761Y31660715D01*
X123480952Y31660715D02*
X124004761Y32327381D01*
X124290476Y31660715D02*
X124480952Y32327381D01*
X124671428Y31851191D01*
X124861904Y32327381D01*
X125052380Y31660715D01*
X125433333Y32327381D02*
X125433333Y31327381D01*
X125861904Y32327381D02*
X125861904Y31803572D01*
X125814285Y31708334D01*
X125719047Y31660715D01*
X125576190Y31660715D01*
X125480952Y31708334D01*
X125433333Y31755953D01*
X126766666Y32327381D02*
X126766666Y31803572D01*
X126719047Y31708334D01*
X126623809Y31660715D01*
X126433333Y31660715D01*
X126338095Y31708334D01*
X126766666Y32279762D02*
X126671428Y32327381D01*
X126433333Y32327381D01*
X126338095Y32279762D01*
X126290476Y32184524D01*
X126290476Y32089286D01*
X126338095Y31994048D01*
X126433333Y31946429D01*
X126671428Y31946429D01*
X126766666Y31898810D01*
X127100000Y31660715D02*
X127480952Y31660715D01*
X127242857Y31327381D02*
X127242857Y32184524D01*
X127290476Y32279762D01*
X127385714Y32327381D01*
X127480952Y32327381D01*
X127766666Y32279762D02*
X127861904Y32327381D01*
X128052380Y32327381D01*
X128147619Y32279762D01*
X128195238Y32184524D01*
X128195238Y32136905D01*
X128147619Y32041667D01*
X128052380Y31994048D01*
X127909523Y31994048D01*
X127814285Y31946429D01*
X127766666Y31851191D01*
X127766666Y31803572D01*
X127814285Y31708334D01*
X127909523Y31660715D01*
X128052380Y31660715D01*
X128147619Y31708334D01*
X128623809Y32327381D02*
X128623809Y31660715D01*
X128623809Y31327381D02*
X128576190Y31375000D01*
X128623809Y31422620D01*
X128671428Y31375000D01*
X128623809Y31327381D01*
X128623809Y31422620D01*
X128957142Y31660715D02*
X129338095Y31660715D01*
X129100000Y31327381D02*
X129100000Y32184524D01*
X129147619Y32279762D01*
X129242857Y32327381D01*
X129338095Y32327381D01*
X159100000Y18188096D02*
X159147619Y18092858D01*
X159147619Y17950000D01*
X159100000Y17807143D01*
X159004761Y17711905D01*
X158909523Y17664286D01*
X158719047Y17616667D01*
X158576190Y17616667D01*
X158385714Y17664286D01*
X158290476Y17711905D01*
X158195238Y17807143D01*
X158147619Y17950000D01*
X158147619Y18045239D01*
X158195238Y18188096D01*
X158242857Y18235715D01*
X158576190Y18235715D01*
X158576190Y18045239D01*
X158147619Y18664286D02*
X159147619Y18664286D01*
X158147619Y19235715D01*
X159147619Y19235715D01*
X158147619Y19711905D02*
X159147619Y19711905D01*
X159147619Y19950000D01*
X159100000Y20092858D01*
X159004761Y20188096D01*
X158909523Y20235715D01*
X158719047Y20283334D01*
X158576190Y20283334D01*
X158385714Y20235715D01*
X158290476Y20188096D01*
X158195238Y20092858D01*
X158147619Y19950000D01*
X158147619Y19711905D01*
X155647619Y18252381D02*
X156123809Y17919048D01*
X155647619Y17680953D02*
X156647619Y17680953D01*
X156647619Y18061905D01*
X156600000Y18157143D01*
X156552380Y18204762D01*
X156457142Y18252381D01*
X156314285Y18252381D01*
X156219047Y18204762D01*
X156171428Y18157143D01*
X156123809Y18061905D01*
X156123809Y17680953D01*
X155695238Y18633334D02*
X155647619Y18776191D01*
X155647619Y19014286D01*
X155695238Y19109524D01*
X155742857Y19157143D01*
X155838095Y19204762D01*
X155933333Y19204762D01*
X156028571Y19157143D01*
X156076190Y19109524D01*
X156123809Y19014286D01*
X156171428Y18823810D01*
X156219047Y18728572D01*
X156266666Y18680953D01*
X156361904Y18633334D01*
X156457142Y18633334D01*
X156552380Y18680953D01*
X156600000Y18728572D01*
X156647619Y18823810D01*
X156647619Y19061905D01*
X156600000Y19204762D01*
X156647619Y19490477D02*
X156647619Y20061905D01*
X155647619Y19776191D02*
X156647619Y19776191D01*
X50345238Y28232143D02*
X50297619Y28279762D01*
X50154761Y28327381D01*
X50059523Y28327381D01*
X49916666Y28279762D01*
X49821428Y28184524D01*
X49773809Y28089286D01*
X49726190Y27898810D01*
X49726190Y27755953D01*
X49773809Y27565477D01*
X49821428Y27470239D01*
X49916666Y27375000D01*
X50059523Y27327381D01*
X50154761Y27327381D01*
X50297619Y27375000D01*
X50345238Y27422620D01*
X50916666Y28327381D02*
X50821428Y28279762D01*
X50773809Y28232143D01*
X50726190Y28136905D01*
X50726190Y27851191D01*
X50773809Y27755953D01*
X50821428Y27708334D01*
X50916666Y27660715D01*
X51059523Y27660715D01*
X51154761Y27708334D01*
X51202380Y27755953D01*
X51250000Y27851191D01*
X51250000Y28136905D01*
X51202380Y28232143D01*
X51154761Y28279762D01*
X51059523Y28327381D01*
X50916666Y28327381D01*
X51678571Y28327381D02*
X51678571Y27660715D01*
X51678571Y27755953D02*
X51726190Y27708334D01*
X51821428Y27660715D01*
X51964285Y27660715D01*
X52059523Y27708334D01*
X52107142Y27803572D01*
X52107142Y28327381D01*
X52107142Y27803572D02*
X52154761Y27708334D01*
X52250000Y27660715D01*
X52392857Y27660715D01*
X52488095Y27708334D01*
X52535714Y27803572D01*
X52535714Y28327381D01*
X53011904Y27660715D02*
X53011904Y28660715D01*
X53011904Y27708334D02*
X53107142Y27660715D01*
X53297619Y27660715D01*
X53392857Y27708334D01*
X53440476Y27755953D01*
X53488095Y27851191D01*
X53488095Y28136905D01*
X53440476Y28232143D01*
X53392857Y28279762D01*
X53297619Y28327381D01*
X53107142Y28327381D01*
X53011904Y28279762D01*
X54345238Y28327381D02*
X54345238Y27803572D01*
X54297619Y27708334D01*
X54202380Y27660715D01*
X54011904Y27660715D01*
X53916666Y27708334D01*
X54345238Y28279762D02*
X54250000Y28327381D01*
X54011904Y28327381D01*
X53916666Y28279762D01*
X53869047Y28184524D01*
X53869047Y28089286D01*
X53916666Y27994048D01*
X54011904Y27946429D01*
X54250000Y27946429D01*
X54345238Y27898810D01*
X55250000Y28279762D02*
X55154761Y28327381D01*
X54964285Y28327381D01*
X54869047Y28279762D01*
X54821428Y28232143D01*
X54773809Y28136905D01*
X54773809Y27851191D01*
X54821428Y27755953D01*
X54869047Y27708334D01*
X54964285Y27660715D01*
X55154761Y27660715D01*
X55250000Y27708334D01*
X55535714Y27660715D02*
X55916666Y27660715D01*
X55678571Y27327381D02*
X55678571Y28184524D01*
X55726190Y28279762D01*
X55821428Y28327381D01*
X55916666Y28327381D01*
X56250000Y27946429D02*
X57011904Y27946429D01*
X57821428Y27803572D02*
X57964285Y27851191D01*
X58011904Y27898810D01*
X58059523Y27994048D01*
X58059523Y28136905D01*
X58011904Y28232143D01*
X57964285Y28279762D01*
X57869047Y28327381D01*
X57488095Y28327381D01*
X57488095Y27327381D01*
X57821428Y27327381D01*
X57916666Y27375000D01*
X57964285Y27422620D01*
X58011904Y27517858D01*
X58011904Y27613096D01*
X57964285Y27708334D01*
X57916666Y27755953D01*
X57821428Y27803572D01*
X57488095Y27803572D01*
X58869047Y28279762D02*
X58773809Y28327381D01*
X58583333Y28327381D01*
X58488095Y28279762D01*
X58440476Y28184524D01*
X58440476Y27803572D01*
X58488095Y27708334D01*
X58583333Y27660715D01*
X58773809Y27660715D01*
X58869047Y27708334D01*
X58916666Y27803572D01*
X58916666Y27898810D01*
X58440476Y27994048D01*
X59773809Y28327381D02*
X59773809Y27803572D01*
X59726190Y27708334D01*
X59630952Y27660715D01*
X59440476Y27660715D01*
X59345238Y27708334D01*
X59773809Y28279762D02*
X59678571Y28327381D01*
X59440476Y28327381D01*
X59345238Y28279762D01*
X59297619Y28184524D01*
X59297619Y28089286D01*
X59345238Y27994048D01*
X59440476Y27946429D01*
X59678571Y27946429D01*
X59773809Y27898810D01*
X60250000Y28327381D02*
X60250000Y27660715D01*
X60250000Y27755953D02*
X60297619Y27708334D01*
X60392857Y27660715D01*
X60535714Y27660715D01*
X60630952Y27708334D01*
X60678571Y27803572D01*
X60678571Y28327381D01*
X60678571Y27803572D02*
X60726190Y27708334D01*
X60821428Y27660715D01*
X60964285Y27660715D01*
X61059523Y27708334D01*
X61107142Y27803572D01*
X61107142Y28327381D01*
X61535714Y28279762D02*
X61630952Y28327381D01*
X61821428Y28327381D01*
X61916666Y28279762D01*
X61964285Y28184524D01*
X61964285Y28136905D01*
X61916666Y28041667D01*
X61821428Y27994048D01*
X61678571Y27994048D01*
X61583333Y27946429D01*
X61535714Y27851191D01*
X61535714Y27803572D01*
X61583333Y27708334D01*
X61678571Y27660715D01*
X61821428Y27660715D01*
X61916666Y27708334D01*
X62392857Y27660715D02*
X62392857Y28660715D01*
X62392857Y27708334D02*
X62488095Y27660715D01*
X62678571Y27660715D01*
X62773809Y27708334D01*
X62821428Y27755953D01*
X62869047Y27851191D01*
X62869047Y28136905D01*
X62821428Y28232143D01*
X62773809Y28279762D01*
X62678571Y28327381D01*
X62488095Y28327381D01*
X62392857Y28279762D01*
X63297619Y28327381D02*
X63297619Y27660715D01*
X63297619Y27851191D02*
X63345238Y27755953D01*
X63392857Y27708334D01*
X63488095Y27660715D01*
X63583333Y27660715D01*
X63916666Y28327381D02*
X63916666Y27660715D01*
X63916666Y27327381D02*
X63869047Y27375000D01*
X63916666Y27422620D01*
X63964285Y27375000D01*
X63916666Y27327381D01*
X63916666Y27422620D01*
X64392857Y27660715D02*
X64392857Y28327381D01*
X64392857Y27755953D02*
X64440476Y27708334D01*
X64535714Y27660715D01*
X64678571Y27660715D01*
X64773809Y27708334D01*
X64821428Y27803572D01*
X64821428Y28327381D01*
X65726190Y27660715D02*
X65726190Y28470239D01*
X65678571Y28565477D01*
X65630952Y28613096D01*
X65535714Y28660715D01*
X65392857Y28660715D01*
X65297619Y28613096D01*
X65726190Y28279762D02*
X65630952Y28327381D01*
X65440476Y28327381D01*
X65345238Y28279762D01*
X65297619Y28232143D01*
X65250000Y28136905D01*
X65250000Y27851191D01*
X65297619Y27755953D01*
X65345238Y27708334D01*
X65440476Y27660715D01*
X65630952Y27660715D01*
X65726190Y27708334D01*
X56059523Y29977381D02*
X55726190Y29501191D01*
X55488095Y29977381D02*
X55488095Y28977381D01*
X55869047Y28977381D01*
X55964285Y29025000D01*
X56011904Y29072620D01*
X56059523Y29167858D01*
X56059523Y29310715D01*
X56011904Y29405953D01*
X55964285Y29453572D01*
X55869047Y29501191D01*
X55488095Y29501191D01*
X56869047Y29929762D02*
X56773809Y29977381D01*
X56583333Y29977381D01*
X56488095Y29929762D01*
X56440476Y29834524D01*
X56440476Y29453572D01*
X56488095Y29358334D01*
X56583333Y29310715D01*
X56773809Y29310715D01*
X56869047Y29358334D01*
X56916666Y29453572D01*
X56916666Y29548810D01*
X56440476Y29644048D01*
X57250000Y29310715D02*
X57488095Y29977381D01*
X57726190Y29310715D01*
X58630952Y29977381D02*
X58059523Y29977381D01*
X58345238Y29977381D02*
X58345238Y28977381D01*
X58250000Y29120239D01*
X58154761Y29215477D01*
X58059523Y29263096D01*
X59059523Y29882143D02*
X59107142Y29929762D01*
X59059523Y29977381D01*
X59011904Y29929762D01*
X59059523Y29882143D01*
X59059523Y29977381D01*
X59440476Y28977381D02*
X60059523Y28977381D01*
X59726190Y29358334D01*
X59869047Y29358334D01*
X59964285Y29405953D01*
X60011904Y29453572D01*
X60059523Y29548810D01*
X60059523Y29786905D01*
X60011904Y29882143D01*
X59964285Y29929762D01*
X59869047Y29977381D01*
X59583333Y29977381D01*
X59488095Y29929762D01*
X59440476Y29882143D01*
X84407023Y25257143D02*
X84359404Y25304762D01*
X84216547Y25352381D01*
X84121309Y25352381D01*
X83978452Y25304762D01*
X83883214Y25209524D01*
X83835595Y25114286D01*
X83787976Y24923810D01*
X83787976Y24780953D01*
X83835595Y24590477D01*
X83883214Y24495239D01*
X83978452Y24400000D01*
X84121309Y24352381D01*
X84216547Y24352381D01*
X84359404Y24400000D01*
X84407023Y24447620D01*
X84978452Y25352381D02*
X84883214Y25304762D01*
X84835595Y25257143D01*
X84787976Y25161905D01*
X84787976Y24876191D01*
X84835595Y24780953D01*
X84883214Y24733334D01*
X84978452Y24685715D01*
X85121309Y24685715D01*
X85216547Y24733334D01*
X85264166Y24780953D01*
X85311785Y24876191D01*
X85311785Y25161905D01*
X85264166Y25257143D01*
X85216547Y25304762D01*
X85121309Y25352381D01*
X84978452Y25352381D01*
X85740357Y24685715D02*
X85740357Y25352381D01*
X85740357Y24780953D02*
X85787976Y24733334D01*
X85883214Y24685715D01*
X86026071Y24685715D01*
X86121309Y24733334D01*
X86168928Y24828572D01*
X86168928Y25352381D01*
X86502261Y24685715D02*
X86883214Y24685715D01*
X86645119Y24352381D02*
X86645119Y25209524D01*
X86692738Y25304762D01*
X86787976Y25352381D01*
X86883214Y25352381D01*
X87216547Y25352381D02*
X87216547Y24685715D01*
X87216547Y24876191D02*
X87264166Y24780953D01*
X87311785Y24733334D01*
X87407023Y24685715D01*
X87502261Y24685715D01*
X87835595Y25352381D02*
X87835595Y24685715D01*
X87835595Y24352381D02*
X87787976Y24400000D01*
X87835595Y24447620D01*
X87883214Y24400000D01*
X87835595Y24352381D01*
X87835595Y24447620D01*
X88311785Y25352381D02*
X88311785Y24352381D01*
X88311785Y24733334D02*
X88407023Y24685715D01*
X88597500Y24685715D01*
X88692738Y24733334D01*
X88740357Y24780953D01*
X88787976Y24876191D01*
X88787976Y25161905D01*
X88740357Y25257143D01*
X88692738Y25304762D01*
X88597500Y25352381D01*
X88407023Y25352381D01*
X88311785Y25304762D01*
X89645119Y24685715D02*
X89645119Y25352381D01*
X89216547Y24685715D02*
X89216547Y25209524D01*
X89264166Y25304762D01*
X89359404Y25352381D01*
X89502261Y25352381D01*
X89597500Y25304762D01*
X89645119Y25257143D01*
X89978452Y24685715D02*
X90359404Y24685715D01*
X90121309Y24352381D02*
X90121309Y25209524D01*
X90168928Y25304762D01*
X90264166Y25352381D01*
X90359404Y25352381D01*
X90835595Y25352381D02*
X90740357Y25304762D01*
X90692738Y25257143D01*
X90645119Y25161905D01*
X90645119Y24876191D01*
X90692738Y24780953D01*
X90740357Y24733334D01*
X90835595Y24685715D01*
X90978452Y24685715D01*
X91073690Y24733334D01*
X91121309Y24780953D01*
X91168928Y24876191D01*
X91168928Y25161905D01*
X91121309Y25257143D01*
X91073690Y25304762D01*
X90978452Y25352381D01*
X90835595Y25352381D01*
X91597500Y25352381D02*
X91597500Y24685715D01*
X91597500Y24876191D02*
X91645119Y24780953D01*
X91692738Y24733334D01*
X91787976Y24685715D01*
X91883214Y24685715D01*
X92168928Y25304762D02*
X92264166Y25352381D01*
X92454642Y25352381D01*
X92549880Y25304762D01*
X92597500Y25209524D01*
X92597500Y25161905D01*
X92549880Y25066667D01*
X92454642Y25019048D01*
X92311785Y25019048D01*
X92216547Y24971429D01*
X92168928Y24876191D01*
X92168928Y24828572D01*
X92216547Y24733334D01*
X92311785Y24685715D01*
X92454642Y24685715D01*
X92549880Y24733334D01*
X93026071Y25257143D02*
X93073690Y25304762D01*
X93026071Y25352381D01*
X92978452Y25304762D01*
X93026071Y25257143D01*
X93026071Y25352381D01*
X93026071Y24733334D02*
X93073690Y24780953D01*
X93026071Y24828572D01*
X92978452Y24780953D01*
X93026071Y24733334D01*
X93026071Y24828572D01*
X85502261Y26002381D02*
X85502261Y26240477D01*
X85264166Y26145239D02*
X85502261Y26240477D01*
X85740357Y26145239D01*
X85359404Y26430953D02*
X85502261Y26240477D01*
X85645119Y26430953D01*
X86883214Y26335715D02*
X86883214Y27335715D01*
X86883214Y26383334D02*
X86978452Y26335715D01*
X87168928Y26335715D01*
X87264166Y26383334D01*
X87311785Y26430953D01*
X87359404Y26526191D01*
X87359404Y26811905D01*
X87311785Y26907143D01*
X87264166Y26954762D01*
X87168928Y27002381D01*
X86978452Y27002381D01*
X86883214Y26954762D01*
X88216547Y27002381D02*
X88216547Y26478572D01*
X88168928Y26383334D01*
X88073690Y26335715D01*
X87883214Y26335715D01*
X87787976Y26383334D01*
X88216547Y26954762D02*
X88121309Y27002381D01*
X87883214Y27002381D01*
X87787976Y26954762D01*
X87740357Y26859524D01*
X87740357Y26764286D01*
X87787976Y26669048D01*
X87883214Y26621429D01*
X88121309Y26621429D01*
X88216547Y26573810D01*
X88692738Y26335715D02*
X88692738Y27002381D01*
X88692738Y26430953D02*
X88740357Y26383334D01*
X88835595Y26335715D01*
X88978452Y26335715D01*
X89073690Y26383334D01*
X89121309Y26478572D01*
X89121309Y27002381D01*
X90026071Y27002381D02*
X90026071Y26002381D01*
X90026071Y26954762D02*
X89930833Y27002381D01*
X89740357Y27002381D01*
X89645119Y26954762D01*
X89597500Y26907143D01*
X89549880Y26811905D01*
X89549880Y26526191D01*
X89597500Y26430953D01*
X89645119Y26383334D01*
X89740357Y26335715D01*
X89930833Y26335715D01*
X90026071Y26383334D01*
X90502261Y27002381D02*
X90502261Y26335715D01*
X90502261Y26526191D02*
X90549880Y26430953D01*
X90597500Y26383334D01*
X90692738Y26335715D01*
X90787976Y26335715D01*
X91502261Y26954762D02*
X91407023Y27002381D01*
X91216547Y27002381D01*
X91121309Y26954762D01*
X91073690Y26859524D01*
X91073690Y26478572D01*
X91121309Y26383334D01*
X91216547Y26335715D01*
X91407023Y26335715D01*
X91502261Y26383334D01*
X91549880Y26478572D01*
X91549880Y26573810D01*
X91073690Y26669048D01*
X91883214Y26335715D02*
X92073690Y27002381D01*
X92264166Y26526191D01*
X92454642Y27002381D01*
X92645119Y26335715D01*
X85502261Y27652381D02*
X85502261Y27890477D01*
X85264166Y27795239D02*
X85502261Y27890477D01*
X85740357Y27795239D01*
X85359404Y28080953D02*
X85502261Y27890477D01*
X85645119Y28080953D01*
X87026071Y28652381D02*
X86930833Y28604762D01*
X86883214Y28509524D01*
X86883214Y27652381D01*
X87407023Y28652381D02*
X87407023Y27985715D01*
X87407023Y27652381D02*
X87359404Y27700000D01*
X87407023Y27747620D01*
X87454642Y27700000D01*
X87407023Y27652381D01*
X87407023Y27747620D01*
X87835595Y28604762D02*
X87930833Y28652381D01*
X88121309Y28652381D01*
X88216547Y28604762D01*
X88264166Y28509524D01*
X88264166Y28461905D01*
X88216547Y28366667D01*
X88121309Y28319048D01*
X87978452Y28319048D01*
X87883214Y28271429D01*
X87835595Y28176191D01*
X87835595Y28128572D01*
X87883214Y28033334D01*
X87978452Y27985715D01*
X88121309Y27985715D01*
X88216547Y28033334D01*
X88549880Y27985715D02*
X88930833Y27985715D01*
X88692738Y27652381D02*
X88692738Y28509524D01*
X88740357Y28604762D01*
X88835595Y28652381D01*
X88930833Y28652381D01*
X89407023Y28652381D02*
X89311785Y28604762D01*
X89264166Y28557143D01*
X89216547Y28461905D01*
X89216547Y28176191D01*
X89264166Y28080953D01*
X89311785Y28033334D01*
X89407023Y27985715D01*
X89549880Y27985715D01*
X89645119Y28033334D01*
X89692738Y28080953D01*
X89740357Y28176191D01*
X89740357Y28461905D01*
X89692738Y28557143D01*
X89645119Y28604762D01*
X89549880Y28652381D01*
X89407023Y28652381D01*
X90026071Y27985715D02*
X90407023Y27985715D01*
X90168928Y28652381D02*
X90168928Y27795239D01*
X90216547Y27700000D01*
X90311785Y27652381D01*
X90407023Y27652381D01*
X90883214Y28652381D02*
X90787976Y28604762D01*
X90740357Y28557143D01*
X90692738Y28461905D01*
X90692738Y28176191D01*
X90740357Y28080953D01*
X90787976Y28033334D01*
X90883214Y27985715D01*
X91026071Y27985715D01*
X91121309Y28033334D01*
X91168928Y28080953D01*
X91216547Y28176191D01*
X91216547Y28461905D01*
X91168928Y28557143D01*
X91121309Y28604762D01*
X91026071Y28652381D01*
X90883214Y28652381D01*
X91645119Y27985715D02*
X91645119Y28985715D01*
X91645119Y28033334D02*
X91740357Y27985715D01*
X91930833Y27985715D01*
X92026071Y28033334D01*
X92073690Y28080953D01*
X92121309Y28176191D01*
X92121309Y28461905D01*
X92073690Y28557143D01*
X92026071Y28604762D01*
X91930833Y28652381D01*
X91740357Y28652381D01*
X91645119Y28604762D01*
X92407023Y27985715D02*
X92787976Y27985715D01*
X92549880Y27652381D02*
X92549880Y28509524D01*
X92597500Y28604762D01*
X92692738Y28652381D01*
X92787976Y28652381D01*
X93121309Y28652381D02*
X93121309Y27985715D01*
X93121309Y27652381D02*
X93073690Y27700000D01*
X93121309Y27747620D01*
X93168928Y27700000D01*
X93121309Y27652381D01*
X93121309Y27747620D01*
X93740357Y28652381D02*
X93645119Y28604762D01*
X93597500Y28557143D01*
X93549880Y28461905D01*
X93549880Y28176191D01*
X93597500Y28080953D01*
X93645119Y28033334D01*
X93740357Y27985715D01*
X93883214Y27985715D01*
X93978452Y28033334D01*
X94026071Y28080953D01*
X94073690Y28176191D01*
X94073690Y28461905D01*
X94026071Y28557143D01*
X93978452Y28604762D01*
X93883214Y28652381D01*
X93740357Y28652381D01*
X94502261Y27985715D02*
X94502261Y28652381D01*
X94502261Y28080953D02*
X94549880Y28033334D01*
X94645119Y27985715D01*
X94787976Y27985715D01*
X94883214Y28033334D01*
X94930833Y28128572D01*
X94930833Y28652381D01*
X95359404Y28604762D02*
X95454642Y28652381D01*
X95645119Y28652381D01*
X95740357Y28604762D01*
X95787976Y28509524D01*
X95787976Y28461905D01*
X95740357Y28366667D01*
X95645119Y28319048D01*
X95502261Y28319048D01*
X95407023Y28271429D01*
X95359404Y28176191D01*
X95359404Y28128572D01*
X95407023Y28033334D01*
X95502261Y27985715D01*
X95645119Y27985715D01*
X95740357Y28033334D01*
X85502261Y29302381D02*
X85502261Y29540477D01*
X85264166Y29445239D02*
X85502261Y29540477D01*
X85740357Y29445239D01*
X85359404Y29730953D02*
X85502261Y29540477D01*
X85645119Y29730953D01*
X86883214Y30302381D02*
X86883214Y29302381D01*
X86978452Y29921429D02*
X87264166Y30302381D01*
X87264166Y29635715D02*
X86883214Y30016667D01*
X87692738Y30302381D02*
X87692738Y29635715D01*
X87692738Y29730953D02*
X87740357Y29683334D01*
X87835595Y29635715D01*
X87978452Y29635715D01*
X88073690Y29683334D01*
X88121309Y29778572D01*
X88121309Y30302381D01*
X88121309Y29778572D02*
X88168928Y29683334D01*
X88264166Y29635715D01*
X88407023Y29635715D01*
X88502261Y29683334D01*
X88549880Y29778572D01*
X88549880Y30302381D01*
X89026071Y29635715D02*
X89026071Y30302381D01*
X89026071Y29730953D02*
X89073690Y29683334D01*
X89168928Y29635715D01*
X89311785Y29635715D01*
X89407023Y29683334D01*
X89454642Y29778572D01*
X89454642Y30302381D01*
X90073690Y30302381D02*
X89978452Y30254762D01*
X89930833Y30207143D01*
X89883214Y30111905D01*
X89883214Y29826191D01*
X89930833Y29730953D01*
X89978452Y29683334D01*
X90073690Y29635715D01*
X90216547Y29635715D01*
X90311785Y29683334D01*
X90359404Y29730953D01*
X90407023Y29826191D01*
X90407023Y30111905D01*
X90359404Y30207143D01*
X90311785Y30254762D01*
X90216547Y30302381D01*
X90073690Y30302381D01*
X90740357Y29635715D02*
X90978452Y30302381D01*
X91216547Y29635715D01*
X91549880Y29397620D02*
X91597500Y29350000D01*
X91692738Y29302381D01*
X91930833Y29302381D01*
X92026071Y29350000D01*
X92073690Y29397620D01*
X92121309Y29492858D01*
X92121309Y29588096D01*
X92073690Y29730953D01*
X91502261Y30302381D01*
X92121309Y30302381D01*
X92740357Y29302381D02*
X92835595Y29302381D01*
X92930833Y29350000D01*
X92978452Y29397620D01*
X93026071Y29492858D01*
X93073690Y29683334D01*
X93073690Y29921429D01*
X93026071Y30111905D01*
X92978452Y30207143D01*
X92930833Y30254762D01*
X92835595Y30302381D01*
X92740357Y30302381D01*
X92645119Y30254762D01*
X92597500Y30207143D01*
X92549880Y30111905D01*
X92502261Y29921429D01*
X92502261Y29683334D01*
X92549880Y29492858D01*
X92597500Y29397620D01*
X92645119Y29350000D01*
X92740357Y29302381D01*
X94026071Y30302381D02*
X93454642Y30302381D01*
X93740357Y30302381D02*
X93740357Y29302381D01*
X93645119Y29445239D01*
X93549880Y29540477D01*
X93454642Y29588096D01*
X94359404Y29302381D02*
X95026071Y29302381D01*
X94597500Y30302381D01*
X85502261Y30952381D02*
X85502261Y31190477D01*
X85264166Y31095239D02*
X85502261Y31190477D01*
X85740357Y31095239D01*
X85359404Y31380953D02*
X85502261Y31190477D01*
X85645119Y31380953D01*
X86740357Y31285715D02*
X87121309Y31285715D01*
X86883214Y30952381D02*
X86883214Y31809524D01*
X86930833Y31904762D01*
X87026071Y31952381D01*
X87121309Y31952381D01*
X87835595Y31904762D02*
X87740357Y31952381D01*
X87549880Y31952381D01*
X87454642Y31904762D01*
X87407023Y31809524D01*
X87407023Y31428572D01*
X87454642Y31333334D01*
X87549880Y31285715D01*
X87740357Y31285715D01*
X87835595Y31333334D01*
X87883214Y31428572D01*
X87883214Y31523810D01*
X87407023Y31619048D01*
X88311785Y31285715D02*
X88311785Y31952381D01*
X88311785Y31380953D02*
X88359404Y31333334D01*
X88454642Y31285715D01*
X88597500Y31285715D01*
X88692738Y31333334D01*
X88740357Y31428572D01*
X88740357Y31952381D01*
X89073690Y31285715D02*
X89454642Y31285715D01*
X89216547Y30952381D02*
X89216547Y31809524D01*
X89264166Y31904762D01*
X89359404Y31952381D01*
X89454642Y31952381D01*
X90216547Y31952381D02*
X90216547Y31428572D01*
X90168928Y31333334D01*
X90073690Y31285715D01*
X89883214Y31285715D01*
X89787976Y31333334D01*
X90216547Y31904762D02*
X90121309Y31952381D01*
X89883214Y31952381D01*
X89787976Y31904762D01*
X89740357Y31809524D01*
X89740357Y31714286D01*
X89787976Y31619048D01*
X89883214Y31571429D01*
X90121309Y31571429D01*
X90216547Y31523810D01*
X90549880Y31285715D02*
X90930833Y31285715D01*
X90692738Y30952381D02*
X90692738Y31809524D01*
X90740357Y31904762D01*
X90835595Y31952381D01*
X90930833Y31952381D01*
X91407023Y31952381D02*
X91311785Y31904762D01*
X91264166Y31857143D01*
X91216547Y31761905D01*
X91216547Y31476191D01*
X91264166Y31380953D01*
X91311785Y31333334D01*
X91407023Y31285715D01*
X91549880Y31285715D01*
X91645119Y31333334D01*
X91692738Y31380953D01*
X91740357Y31476191D01*
X91740357Y31761905D01*
X91692738Y31857143D01*
X91645119Y31904762D01*
X91549880Y31952381D01*
X91407023Y31952381D01*
X92168928Y31952381D02*
X92168928Y31285715D01*
X92168928Y31476191D02*
X92216547Y31380953D01*
X92264166Y31333334D01*
X92359404Y31285715D01*
X92454642Y31285715D01*
D10*
X1445238Y27991072D02*
X1421428Y28014881D01*
X1350000Y28038691D01*
X1302380Y28038691D01*
X1230952Y28014881D01*
X1183333Y27967262D01*
X1159523Y27919643D01*
X1135714Y27824405D01*
X1135714Y27752977D01*
X1159523Y27657739D01*
X1183333Y27610120D01*
X1230952Y27562500D01*
X1302380Y27538691D01*
X1350000Y27538691D01*
X1421428Y27562500D01*
X1445238Y27586310D01*
X1659523Y28038691D02*
X1659523Y27538691D01*
X1659523Y27776786D02*
X1945238Y27776786D01*
X1945238Y28038691D02*
X1945238Y27538691D01*
X2159523Y27895834D02*
X2397619Y27895834D01*
X2111904Y28038691D02*
X2278571Y27538691D01*
X2445238Y28038691D01*
X2588095Y28014881D02*
X2659523Y28038691D01*
X2778571Y28038691D01*
X2826190Y28014881D01*
X2850000Y27991072D01*
X2873809Y27943453D01*
X2873809Y27895834D01*
X2850000Y27848215D01*
X2826190Y27824405D01*
X2778571Y27800596D01*
X2683333Y27776786D01*
X2635714Y27752977D01*
X2611904Y27729167D01*
X2588095Y27681548D01*
X2588095Y27633929D01*
X2611904Y27586310D01*
X2635714Y27562500D01*
X2683333Y27538691D01*
X2802380Y27538691D01*
X2873809Y27562500D01*
X3064285Y28014881D02*
X3135714Y28038691D01*
X3254761Y28038691D01*
X3302380Y28014881D01*
X3326190Y27991072D01*
X3350000Y27943453D01*
X3350000Y27895834D01*
X3326190Y27848215D01*
X3302380Y27824405D01*
X3254761Y27800596D01*
X3159523Y27776786D01*
X3111904Y27752977D01*
X3088095Y27729167D01*
X3064285Y27681548D01*
X3064285Y27633929D01*
X3088095Y27586310D01*
X3111904Y27562500D01*
X3159523Y27538691D01*
X3278571Y27538691D01*
X3350000Y27562500D01*
X3564285Y28038691D02*
X3564285Y27538691D01*
X3778571Y28014881D02*
X3850000Y28038691D01*
X3969047Y28038691D01*
X4016666Y28014881D01*
X4040476Y27991072D01*
X4064285Y27943453D01*
X4064285Y27895834D01*
X4040476Y27848215D01*
X4016666Y27824405D01*
X3969047Y27800596D01*
X3873809Y27776786D01*
X3826190Y27752977D01*
X3802380Y27729167D01*
X3778571Y27681548D01*
X3778571Y27633929D01*
X3802380Y27586310D01*
X3826190Y27562500D01*
X3873809Y27538691D01*
X3992857Y27538691D01*
X4064285Y27562500D01*
X2219047Y28437500D02*
X2171428Y28413691D01*
X2100000Y28413691D01*
X2028571Y28437500D01*
X1980952Y28485120D01*
X1957142Y28532739D01*
X1933333Y28627977D01*
X1933333Y28699405D01*
X1957142Y28794643D01*
X1980952Y28842262D01*
X2028571Y28889881D01*
X2100000Y28913691D01*
X2147619Y28913691D01*
X2219047Y28889881D01*
X2242857Y28866072D01*
X2242857Y28699405D01*
X2147619Y28699405D01*
X2457142Y28913691D02*
X2457142Y28413691D01*
X2742857Y28913691D01*
X2742857Y28413691D01*
X2980952Y28913691D02*
X2980952Y28413691D01*
X3100000Y28413691D01*
X3171428Y28437500D01*
X3219047Y28485120D01*
X3242857Y28532739D01*
X3266666Y28627977D01*
X3266666Y28699405D01*
X3242857Y28794643D01*
X3219047Y28842262D01*
X3171428Y28889881D01*
X3100000Y28913691D01*
X2980952Y28913691D01*
D12*
X157460000Y9888748D02*
X157460000Y10411252D01*
X156040000Y9888748D02*
X156040000Y10411252D01*
X162160000Y9888748D02*
X162160000Y10411252D01*
X160740000Y9888748D02*
X160740000Y10411252D01*
X159810000Y9888748D02*
X159810000Y10411252D01*
X158390000Y9888748D02*
X158390000Y10411252D01*
X155110000Y9888748D02*
X155110000Y10411252D01*
X153690000Y9888748D02*
X153690000Y10411252D01*
X151487760Y5180080D02*
X151487760Y3230080D01*
X151487760Y5180080D02*
X151487760Y7130080D01*
X142617760Y5180080D02*
X142617760Y3230080D01*
X142617760Y5180080D02*
X142617760Y8630080D01*
X152413360Y5276968D02*
X152413360Y5799472D01*
X153833360Y5276968D02*
X153833360Y5799472D01*
X155850000Y2425000D02*
G75*
G03*
X155850000Y2425000I-700000J0D01*
G01*
X140000000Y1175000D02*
G75*
G03*
X140000000Y1175000I-700000J0D01*
G01*
X34668880Y15627100D02*
X34668880Y18227100D01*
X37268880Y15627100D02*
X34668880Y15627100D01*
X42408880Y13027100D02*
X42408880Y18227100D01*
X34668880Y18227100D02*
X42408880Y18227100D01*
X37268880Y13027100D02*
X42408880Y13027100D01*
X35998880Y13027100D02*
X34668880Y13027100D01*
X34668880Y13027100D02*
X34668880Y14357100D01*
X37268880Y13027100D02*
X37268880Y15627100D01*
D11*
X31556900Y18343380D02*
X31556900Y563380D01*
X31556900Y563380D02*
X1076900Y563380D01*
X1076900Y563380D02*
X1076900Y5643380D01*
X1076900Y5643380D02*
X-1463100Y5643380D01*
X-1463100Y5643380D02*
X-1463100Y13263380D01*
X-1463100Y13263380D02*
X1076900Y13263380D01*
X1076900Y13263380D02*
X1076900Y18343380D01*
X1076900Y18343380D02*
X31556900Y18343380D01*
D12*
X29138748Y8615000D02*
X29661252Y8615000D01*
X29138748Y10035000D02*
X29661252Y10035000D01*
X29661252Y14035000D02*
X29138748Y14035000D01*
X29661252Y12615000D02*
X29138748Y12615000D01*
D13*
X163700000Y1850000D02*
G75*
G03*
X163700000Y1850000I-2000000J0D01*
G01*
D12*
X29138748Y10615000D02*
X29661252Y10615000D01*
X29138748Y12035000D02*
X29661252Y12035000D01*
X141742960Y4958732D02*
X141742960Y4436228D01*
X140322960Y4958732D02*
X140322960Y4436228D01*
X135538572Y2130740D02*
X135016068Y2130740D01*
X135538572Y3550740D02*
X135016068Y3550740D01*
X137882020Y4807068D02*
X137882020Y5329572D01*
X139302020Y4807068D02*
X139302020Y5329572D01*
X157113360Y5276968D02*
X157113360Y5799472D01*
X158533360Y5276968D02*
X158533360Y5799472D01*
X154763360Y5276968D02*
X154763360Y5799472D01*
X156183360Y5276968D02*
X156183360Y5799472D01*
X139621088Y8841560D02*
X140143592Y8841560D01*
X139621088Y7421560D02*
X140143592Y7421560D01*
X116792540Y5827412D02*
X116792540Y5304908D01*
X115372540Y5827412D02*
X115372540Y5304908D01*
X84291720Y5827412D02*
X84291720Y5304908D01*
X82871720Y5827412D02*
X82871720Y5304908D01*
X49552140Y5827412D02*
X49552140Y5304908D01*
X48132140Y5827412D02*
X48132140Y5304908D01*
X131472032Y2130740D02*
X130949528Y2130740D01*
X131472032Y3550740D02*
X130949528Y3550740D01*
X96265780Y5596640D02*
X96265780Y3646640D01*
X96265780Y5596640D02*
X96265780Y7546640D01*
X86145780Y5596640D02*
X86145780Y3646640D01*
X86145780Y5596640D02*
X86145780Y9046640D01*
X133471380Y4146620D02*
X130021380Y4146620D01*
X133471380Y4146620D02*
X135421380Y4146620D01*
X133471380Y9266620D02*
X131521380Y9266620D01*
X133471380Y9266620D02*
X135421380Y9266620D01*
X118177720Y5596640D02*
X118177720Y9046640D01*
X118177720Y5596640D02*
X118177720Y3646640D01*
X128297720Y5596640D02*
X128297720Y7546640D01*
X128297720Y5596640D02*
X128297720Y3646640D01*
X51799900Y5596640D02*
X51799900Y9046640D01*
X51799900Y5596640D02*
X51799900Y3646640D01*
X61919900Y5596640D02*
X61919900Y7546640D01*
X61919900Y5596640D02*
X61919900Y3646640D01*
X6090000Y23311252D02*
X6090000Y22788748D01*
X7510000Y23311252D02*
X7510000Y22788748D01*
X1390000Y23311252D02*
X1390000Y22788748D01*
X2810000Y23311252D02*
X2810000Y22788748D01*
X3740000Y23311252D02*
X3740000Y22788748D01*
X5160000Y23311252D02*
X5160000Y22788748D01*
X8440000Y23311252D02*
X8440000Y22788748D01*
X9860000Y23311252D02*
X9860000Y22788748D01*
X12062240Y28019920D02*
X12062240Y29969920D01*
X12062240Y28019920D02*
X12062240Y26069920D01*
X20932240Y28019920D02*
X20932240Y29969920D01*
X20932240Y28019920D02*
X20932240Y24569920D01*
X11136640Y27923032D02*
X11136640Y27400528D01*
X9716640Y27923032D02*
X9716640Y27400528D01*
X9100000Y30775000D02*
G75*
G03*
X9100000Y30775000I-700000J0D01*
G01*
X24950000Y32025000D02*
G75*
G03*
X24950000Y32025000I-700000J0D01*
G01*
X128881120Y17572900D02*
X128881120Y14972900D01*
X126281120Y17572900D02*
X128881120Y17572900D01*
X121141120Y20172900D02*
X121141120Y14972900D01*
X128881120Y14972900D02*
X121141120Y14972900D01*
X126281120Y20172900D02*
X121141120Y20172900D01*
X127551120Y20172900D02*
X128881120Y20172900D01*
X128881120Y20172900D02*
X128881120Y18842900D01*
X126281120Y20172900D02*
X126281120Y17572900D01*
D11*
X131993100Y14856620D02*
X131993100Y32636620D01*
X131993100Y32636620D02*
X162473100Y32636620D01*
X162473100Y32636620D02*
X162473100Y27556620D01*
X162473100Y27556620D02*
X165013100Y27556620D01*
X165013100Y27556620D02*
X165013100Y19936620D01*
X165013100Y19936620D02*
X162473100Y19936620D01*
X162473100Y19936620D02*
X162473100Y14856620D01*
X162473100Y14856620D02*
X131993100Y14856620D01*
D12*
X134411252Y24585000D02*
X133888748Y24585000D01*
X134411252Y23165000D02*
X133888748Y23165000D01*
X133888748Y19165000D02*
X134411252Y19165000D01*
X133888748Y20585000D02*
X134411252Y20585000D01*
D13*
X3850000Y31350000D02*
G75*
G03*
X3850000Y31350000I-2000000J0D01*
G01*
D12*
X134411252Y22585000D02*
X133888748Y22585000D01*
X134411252Y21165000D02*
X133888748Y21165000D01*
X21807040Y28241268D02*
X21807040Y28763772D01*
X23227040Y28241268D02*
X23227040Y28763772D01*
X28011428Y31069260D02*
X28533932Y31069260D01*
X28011428Y29649260D02*
X28533932Y29649260D01*
X25667980Y28392932D02*
X25667980Y27870428D01*
X24247980Y28392932D02*
X24247980Y27870428D01*
X6436640Y27923032D02*
X6436640Y27400528D01*
X5016640Y27923032D02*
X5016640Y27400528D01*
X8786640Y27923032D02*
X8786640Y27400528D01*
X7366640Y27923032D02*
X7366640Y27400528D01*
X23928912Y24358440D02*
X23406408Y24358440D01*
X23928912Y25778440D02*
X23406408Y25778440D01*
X46757460Y27372588D02*
X46757460Y27895092D01*
X48177460Y27372588D02*
X48177460Y27895092D01*
X79258280Y27372588D02*
X79258280Y27895092D01*
X80678280Y27372588D02*
X80678280Y27895092D01*
X113997860Y27372588D02*
X113997860Y27895092D01*
X115417860Y27372588D02*
X115417860Y27895092D01*
X32077968Y31069260D02*
X32600472Y31069260D01*
X32077968Y29649260D02*
X32600472Y29649260D01*
X67284220Y27603360D02*
X67284220Y29553360D01*
X67284220Y27603360D02*
X67284220Y25653360D01*
X77404220Y27603360D02*
X77404220Y29553360D01*
X77404220Y27603360D02*
X77404220Y24153360D01*
X30078620Y29053380D02*
X33528620Y29053380D01*
X30078620Y29053380D02*
X28128620Y29053380D01*
X30078620Y23933380D02*
X32028620Y23933380D01*
X30078620Y23933380D02*
X28128620Y23933380D01*
X45372280Y27603360D02*
X45372280Y24153360D01*
X45372280Y27603360D02*
X45372280Y29553360D01*
X35252280Y27603360D02*
X35252280Y25653360D01*
X35252280Y27603360D02*
X35252280Y29553360D01*
X111750100Y27603360D02*
X111750100Y24153360D01*
X111750100Y27603360D02*
X111750100Y29553360D01*
X101630100Y27603360D02*
X101630100Y25653360D01*
X101630100Y27603360D02*
X101630100Y29553360D01*
D11*
X156833333Y12038096D02*
X157100000Y12419048D01*
X157290476Y12038096D02*
X157290476Y12838096D01*
X156985714Y12838096D01*
X156909523Y12800000D01*
X156871428Y12761905D01*
X156833333Y12685715D01*
X156833333Y12571429D01*
X156871428Y12495239D01*
X156909523Y12457143D01*
X156985714Y12419048D01*
X157290476Y12419048D01*
X156452380Y12038096D02*
X156300000Y12038096D01*
X156223809Y12076191D01*
X156185714Y12114286D01*
X156109523Y12228572D01*
X156071428Y12380953D01*
X156071428Y12685715D01*
X156109523Y12761905D01*
X156147619Y12800000D01*
X156223809Y12838096D01*
X156376190Y12838096D01*
X156452380Y12800000D01*
X156490476Y12761905D01*
X156528571Y12685715D01*
X156528571Y12495239D01*
X156490476Y12419048D01*
X156452380Y12380953D01*
X156376190Y12342858D01*
X156223809Y12342858D01*
X156147619Y12380953D01*
X156109523Y12419048D01*
X156071428Y12495239D01*
X162014285Y12038096D02*
X162280952Y12419048D01*
X162471428Y12038096D02*
X162471428Y12838096D01*
X162166666Y12838096D01*
X162090476Y12800000D01*
X162052380Y12761905D01*
X162014285Y12685715D01*
X162014285Y12571429D01*
X162052380Y12495239D01*
X162090476Y12457143D01*
X162166666Y12419048D01*
X162471428Y12419048D01*
X161252380Y12038096D02*
X161709523Y12038096D01*
X161480952Y12038096D02*
X161480952Y12838096D01*
X161557142Y12723810D01*
X161633333Y12647620D01*
X161709523Y12609524D01*
X160947619Y12761905D02*
X160909523Y12800000D01*
X160833333Y12838096D01*
X160642857Y12838096D01*
X160566666Y12800000D01*
X160528571Y12761905D01*
X160490476Y12685715D01*
X160490476Y12609524D01*
X160528571Y12495239D01*
X160985714Y12038096D01*
X160490476Y12038096D01*
X159464285Y12038096D02*
X159730952Y12419048D01*
X159921428Y12038096D02*
X159921428Y12838096D01*
X159616666Y12838096D01*
X159540476Y12800000D01*
X159502380Y12761905D01*
X159464285Y12685715D01*
X159464285Y12571429D01*
X159502380Y12495239D01*
X159540476Y12457143D01*
X159616666Y12419048D01*
X159921428Y12419048D01*
X158702380Y12038096D02*
X159159523Y12038096D01*
X158930952Y12038096D02*
X158930952Y12838096D01*
X159007142Y12723810D01*
X159083333Y12647620D01*
X159159523Y12609524D01*
X157940476Y12038096D02*
X158397619Y12038096D01*
X158169047Y12038096D02*
X158169047Y12838096D01*
X158245238Y12723810D01*
X158321428Y12647620D01*
X158397619Y12609524D01*
X154864285Y12038096D02*
X155130952Y12419048D01*
X155321428Y12038096D02*
X155321428Y12838096D01*
X155016666Y12838096D01*
X154940476Y12800000D01*
X154902380Y12761905D01*
X154864285Y12685715D01*
X154864285Y12571429D01*
X154902380Y12495239D01*
X154940476Y12457143D01*
X155016666Y12419048D01*
X155321428Y12419048D01*
X154102380Y12038096D02*
X154559523Y12038096D01*
X154330952Y12038096D02*
X154330952Y12838096D01*
X154407142Y12723810D01*
X154483333Y12647620D01*
X154559523Y12609524D01*
X153607142Y12838096D02*
X153530952Y12838096D01*
X153454761Y12800000D01*
X153416666Y12761905D01*
X153378571Y12685715D01*
X153340476Y12533334D01*
X153340476Y12342858D01*
X153378571Y12190477D01*
X153416666Y12114286D01*
X153454761Y12076191D01*
X153530952Y12038096D01*
X153607142Y12038096D01*
X153683333Y12076191D01*
X153721428Y12114286D01*
X153759523Y12190477D01*
X153797619Y12342858D01*
X153797619Y12533334D01*
X153759523Y12685715D01*
X153721428Y12761905D01*
X153683333Y12800000D01*
X153607142Y12838096D01*
X151686904Y1447620D02*
X151686904Y638096D01*
X151639285Y542858D01*
X151591666Y495239D01*
X151496428Y447620D01*
X151305952Y447620D01*
X151210714Y495239D01*
X151163095Y542858D01*
X151115476Y638096D01*
X151115476Y1447620D01*
X150686904Y1352381D02*
X150639285Y1400000D01*
X150544047Y1447620D01*
X150305952Y1447620D01*
X150210714Y1400000D01*
X150163095Y1352381D01*
X150115476Y1257143D01*
X150115476Y1161905D01*
X150163095Y1019048D01*
X150734523Y447620D01*
X150115476Y447620D01*
X147269047Y447620D02*
X147745238Y447620D01*
X147745238Y1447620D01*
X146935714Y447620D02*
X146935714Y1447620D01*
X146602380Y733334D01*
X146269047Y1447620D01*
X146269047Y447620D01*
X145888095Y1447620D02*
X145269047Y1447620D01*
X145602380Y1066667D01*
X145459523Y1066667D01*
X145364285Y1019048D01*
X145316666Y971429D01*
X145269047Y876191D01*
X145269047Y638096D01*
X145316666Y542858D01*
X145364285Y495239D01*
X145459523Y447620D01*
X145745238Y447620D01*
X145840476Y495239D01*
X145888095Y542858D01*
X144935714Y1447620D02*
X144316666Y1447620D01*
X144650000Y1066667D01*
X144507142Y1066667D01*
X144411904Y1019048D01*
X144364285Y971429D01*
X144316666Y876191D01*
X144316666Y638096D01*
X144364285Y542858D01*
X144411904Y495239D01*
X144507142Y447620D01*
X144792857Y447620D01*
X144888095Y495239D01*
X144935714Y542858D01*
X143840476Y447620D02*
X143650000Y447620D01*
X143554761Y495239D01*
X143507142Y542858D01*
X143411904Y685715D01*
X143364285Y876191D01*
X143364285Y1257143D01*
X143411904Y1352381D01*
X143459523Y1400000D01*
X143554761Y1447620D01*
X143745238Y1447620D01*
X143840476Y1400000D01*
X143888095Y1352381D01*
X143935714Y1257143D01*
X143935714Y1019048D01*
X143888095Y923810D01*
X143840476Y876191D01*
X143745238Y828572D01*
X143554761Y828572D01*
X143459523Y876191D01*
X143411904Y923810D01*
X143364285Y1019048D01*
X142983333Y733334D02*
X142507142Y733334D01*
X143078571Y447620D02*
X142745238Y1447620D01*
X142411904Y447620D01*
X153283333Y7514286D02*
X153321428Y7476191D01*
X153435714Y7438096D01*
X153511904Y7438096D01*
X153626190Y7476191D01*
X153702380Y7552381D01*
X153740476Y7628572D01*
X153778571Y7780953D01*
X153778571Y7895239D01*
X153740476Y8047620D01*
X153702380Y8123810D01*
X153626190Y8200000D01*
X153511904Y8238096D01*
X153435714Y8238096D01*
X153321428Y8200000D01*
X153283333Y8161905D01*
X153016666Y8238096D02*
X152521428Y8238096D01*
X152788095Y7933334D01*
X152673809Y7933334D01*
X152597619Y7895239D01*
X152559523Y7857143D01*
X152521428Y7780953D01*
X152521428Y7590477D01*
X152559523Y7514286D01*
X152597619Y7476191D01*
X152673809Y7438096D01*
X152902380Y7438096D01*
X152978571Y7476191D01*
X153016666Y7514286D01*
X26466666Y8822620D02*
X26800000Y9298810D01*
X27038095Y8822620D02*
X27038095Y9822620D01*
X26657142Y9822620D01*
X26561904Y9775000D01*
X26514285Y9727381D01*
X26466666Y9632143D01*
X26466666Y9489286D01*
X26514285Y9394048D01*
X26561904Y9346429D01*
X26657142Y9298810D01*
X27038095Y9298810D01*
X25895238Y9394048D02*
X25990476Y9441667D01*
X26038095Y9489286D01*
X26085714Y9584524D01*
X26085714Y9632143D01*
X26038095Y9727381D01*
X25990476Y9775000D01*
X25895238Y9822620D01*
X25704761Y9822620D01*
X25609523Y9775000D01*
X25561904Y9727381D01*
X25514285Y9632143D01*
X25514285Y9584524D01*
X25561904Y9489286D01*
X25609523Y9441667D01*
X25704761Y9394048D01*
X25895238Y9394048D01*
X25990476Y9346429D01*
X26038095Y9298810D01*
X26085714Y9203572D01*
X26085714Y9013096D01*
X26038095Y8917858D01*
X25990476Y8870239D01*
X25895238Y8822620D01*
X25704761Y8822620D01*
X25609523Y8870239D01*
X25561904Y8917858D01*
X25514285Y9013096D01*
X25514285Y9203572D01*
X25561904Y9298810D01*
X25609523Y9346429D01*
X25704761Y9394048D01*
X26466666Y12822620D02*
X26800000Y13298810D01*
X27038095Y12822620D02*
X27038095Y13822620D01*
X26657142Y13822620D01*
X26561904Y13775000D01*
X26514285Y13727381D01*
X26466666Y13632143D01*
X26466666Y13489286D01*
X26514285Y13394048D01*
X26561904Y13346429D01*
X26657142Y13298810D01*
X27038095Y13298810D01*
X25609523Y13822620D02*
X25800000Y13822620D01*
X25895238Y13775000D01*
X25942857Y13727381D01*
X26038095Y13584524D01*
X26085714Y13394048D01*
X26085714Y13013096D01*
X26038095Y12917858D01*
X25990476Y12870239D01*
X25895238Y12822620D01*
X25704761Y12822620D01*
X25609523Y12870239D01*
X25561904Y12917858D01*
X25514285Y13013096D01*
X25514285Y13251191D01*
X25561904Y13346429D01*
X25609523Y13394048D01*
X25704761Y13441667D01*
X25895238Y13441667D01*
X25990476Y13394048D01*
X26038095Y13346429D01*
X26085714Y13251191D01*
X26466666Y10872620D02*
X26800000Y11348810D01*
X27038095Y10872620D02*
X27038095Y11872620D01*
X26657142Y11872620D01*
X26561904Y11825000D01*
X26514285Y11777381D01*
X26466666Y11682143D01*
X26466666Y11539286D01*
X26514285Y11444048D01*
X26561904Y11396429D01*
X26657142Y11348810D01*
X27038095Y11348810D01*
X26133333Y11872620D02*
X25466666Y11872620D01*
X25895238Y10872620D01*
X141191666Y1847620D02*
X141525000Y2323810D01*
X141763095Y1847620D02*
X141763095Y2847620D01*
X141382142Y2847620D01*
X141286904Y2800000D01*
X141239285Y2752381D01*
X141191666Y2657143D01*
X141191666Y2514286D01*
X141239285Y2419048D01*
X141286904Y2371429D01*
X141382142Y2323810D01*
X141763095Y2323810D01*
X140286904Y2847620D02*
X140763095Y2847620D01*
X140810714Y2371429D01*
X140763095Y2419048D01*
X140667857Y2466667D01*
X140429761Y2466667D01*
X140334523Y2419048D01*
X140286904Y2371429D01*
X140239285Y2276191D01*
X140239285Y2038096D01*
X140286904Y1942858D01*
X140334523Y1895239D01*
X140429761Y1847620D01*
X140667857Y1847620D01*
X140763095Y1895239D01*
X140810714Y1942858D01*
X134366666Y872620D02*
X134700000Y1348810D01*
X134938095Y872620D02*
X134938095Y1872620D01*
X134557142Y1872620D01*
X134461904Y1825000D01*
X134414285Y1777381D01*
X134366666Y1682143D01*
X134366666Y1539286D01*
X134414285Y1444048D01*
X134461904Y1396429D01*
X134557142Y1348810D01*
X134938095Y1348810D01*
X133509523Y1539286D02*
X133509523Y872620D01*
X133747619Y1920239D02*
X133985714Y1205953D01*
X133366666Y1205953D01*
X138741666Y2222620D02*
X139075000Y2698810D01*
X139313095Y2222620D02*
X139313095Y3222620D01*
X138932142Y3222620D01*
X138836904Y3175000D01*
X138789285Y3127381D01*
X138741666Y3032143D01*
X138741666Y2889286D01*
X138789285Y2794048D01*
X138836904Y2746429D01*
X138932142Y2698810D01*
X139313095Y2698810D01*
X138408333Y3222620D02*
X137789285Y3222620D01*
X138122619Y2841667D01*
X137979761Y2841667D01*
X137884523Y2794048D01*
X137836904Y2746429D01*
X137789285Y2651191D01*
X137789285Y2413096D01*
X137836904Y2317858D01*
X137884523Y2270239D01*
X137979761Y2222620D01*
X138265476Y2222620D01*
X138360714Y2270239D01*
X138408333Y2317858D01*
X157983333Y7438096D02*
X158250000Y7819048D01*
X158440476Y7438096D02*
X158440476Y8238096D01*
X158135714Y8238096D01*
X158059523Y8200000D01*
X158021428Y8161905D01*
X157983333Y8085715D01*
X157983333Y7971429D01*
X158021428Y7895239D01*
X158059523Y7857143D01*
X158135714Y7819048D01*
X158440476Y7819048D01*
X157678571Y8161905D02*
X157640476Y8200000D01*
X157564285Y8238096D01*
X157373809Y8238096D01*
X157297619Y8200000D01*
X157259523Y8161905D01*
X157221428Y8085715D01*
X157221428Y8009524D01*
X157259523Y7895239D01*
X157716666Y7438096D01*
X157221428Y7438096D01*
X155583333Y7438096D02*
X155850000Y7819048D01*
X156040476Y7438096D02*
X156040476Y8238096D01*
X155735714Y8238096D01*
X155659523Y8200000D01*
X155621428Y8161905D01*
X155583333Y8085715D01*
X155583333Y7971429D01*
X155621428Y7895239D01*
X155659523Y7857143D01*
X155735714Y7819048D01*
X156040476Y7819048D01*
X154821428Y7438096D02*
X155278571Y7438096D01*
X155050000Y7438096D02*
X155050000Y8238096D01*
X155126190Y8123810D01*
X155202380Y8047620D01*
X155278571Y8009524D01*
X140051546Y8947898D02*
X140099165Y8900279D01*
X140242022Y8852660D01*
X140337260Y8852660D01*
X140480118Y8900279D01*
X140575356Y8995517D01*
X140622975Y9090755D01*
X140670594Y9281231D01*
X140670594Y9424088D01*
X140622975Y9614564D01*
X140575356Y9709802D01*
X140480118Y9805040D01*
X140337260Y9852660D01*
X140242022Y9852660D01*
X140099165Y9805040D01*
X140051546Y9757421D01*
X139194403Y9852660D02*
X139384880Y9852660D01*
X139480118Y9805040D01*
X139527737Y9757421D01*
X139622975Y9614564D01*
X139670594Y9424088D01*
X139670594Y9043136D01*
X139622975Y8947898D01*
X139575356Y8900279D01*
X139480118Y8852660D01*
X139289641Y8852660D01*
X139194403Y8900279D01*
X139146784Y8947898D01*
X139099165Y9043136D01*
X139099165Y9281231D01*
X139146784Y9376469D01*
X139194403Y9424088D01*
X139289641Y9471707D01*
X139480118Y9471707D01*
X139575356Y9424088D01*
X139622975Y9376469D01*
X139670594Y9281231D01*
X116274606Y2727438D02*
X116322225Y2679819D01*
X116465082Y2632200D01*
X116560320Y2632200D01*
X116703178Y2679819D01*
X116798416Y2775057D01*
X116846035Y2870295D01*
X116893654Y3060771D01*
X116893654Y3203628D01*
X116846035Y3394104D01*
X116798416Y3489342D01*
X116703178Y3584580D01*
X116560320Y3632200D01*
X116465082Y3632200D01*
X116322225Y3584580D01*
X116274606Y3536961D01*
X115369844Y3632200D02*
X115846035Y3632200D01*
X115893654Y3156009D01*
X115846035Y3203628D01*
X115750797Y3251247D01*
X115512701Y3251247D01*
X115417463Y3203628D01*
X115369844Y3156009D01*
X115322225Y3060771D01*
X115322225Y2822676D01*
X115369844Y2727438D01*
X115417463Y2679819D01*
X115512701Y2632200D01*
X115750797Y2632200D01*
X115846035Y2679819D01*
X115893654Y2727438D01*
X83699106Y2475978D02*
X83746725Y2428359D01*
X83889582Y2380740D01*
X83984820Y2380740D01*
X84127678Y2428359D01*
X84222916Y2523597D01*
X84270535Y2618835D01*
X84318154Y2809311D01*
X84318154Y2952168D01*
X84270535Y3142644D01*
X84222916Y3237882D01*
X84127678Y3333120D01*
X83984820Y3380740D01*
X83889582Y3380740D01*
X83746725Y3333120D01*
X83699106Y3285501D01*
X82841963Y3047406D02*
X82841963Y2380740D01*
X83080059Y3428359D02*
X83318154Y2714073D01*
X82699106Y2714073D01*
X48903646Y2483598D02*
X48951265Y2435979D01*
X49094122Y2388360D01*
X49189360Y2388360D01*
X49332218Y2435979D01*
X49427456Y2531217D01*
X49475075Y2626455D01*
X49522694Y2816931D01*
X49522694Y2959788D01*
X49475075Y3150264D01*
X49427456Y3245502D01*
X49332218Y3340740D01*
X49189360Y3388360D01*
X49094122Y3388360D01*
X48951265Y3340740D01*
X48903646Y3293121D01*
X48522694Y3293121D02*
X48475075Y3340740D01*
X48379837Y3388360D01*
X48141741Y3388360D01*
X48046503Y3340740D01*
X47998884Y3293121D01*
X47951265Y3197883D01*
X47951265Y3102645D01*
X47998884Y2959788D01*
X48570313Y2388360D01*
X47951265Y2388360D01*
X131329186Y852918D02*
X131376805Y805299D01*
X131519662Y757680D01*
X131614900Y757680D01*
X131757758Y805299D01*
X131852996Y900537D01*
X131900615Y995775D01*
X131948234Y1186251D01*
X131948234Y1329108D01*
X131900615Y1519584D01*
X131852996Y1614822D01*
X131757758Y1710060D01*
X131614900Y1757680D01*
X131519662Y1757680D01*
X131376805Y1710060D01*
X131329186Y1662441D01*
X130376805Y757680D02*
X130948234Y757680D01*
X130662520Y757680D02*
X130662520Y1757680D01*
X130757758Y1614822D01*
X130852996Y1519584D01*
X130948234Y1471965D01*
X96295844Y1531620D02*
X96295844Y722096D01*
X96248225Y626858D01*
X96200606Y579239D01*
X96105368Y531620D01*
X95914892Y531620D01*
X95819654Y579239D01*
X95772035Y626858D01*
X95724416Y722096D01*
X95724416Y1531620D01*
X94819654Y1198286D02*
X94819654Y531620D01*
X95057749Y1579239D02*
X95295844Y864953D01*
X94676797Y864953D01*
X93235096Y1531620D02*
X92568429Y1531620D01*
X92997000Y531620D01*
X91758905Y1198286D02*
X91758905Y531620D01*
X91997000Y1579239D02*
X92235096Y864953D01*
X91616048Y864953D01*
X91282715Y817334D02*
X90806524Y817334D01*
X91377953Y531620D02*
X91044620Y1531620D01*
X90711286Y531620D01*
X90377953Y531620D02*
X90377953Y1531620D01*
X90377953Y1055429D02*
X89806524Y1055429D01*
X89806524Y531620D02*
X89806524Y1531620D01*
X88758905Y626858D02*
X88806524Y579239D01*
X88949381Y531620D01*
X89044620Y531620D01*
X89187477Y579239D01*
X89282715Y674477D01*
X89330334Y769715D01*
X89377953Y960191D01*
X89377953Y1103048D01*
X89330334Y1293524D01*
X89282715Y1388762D01*
X89187477Y1484000D01*
X89044620Y1531620D01*
X88949381Y1531620D01*
X88806524Y1484000D01*
X88758905Y1436381D01*
X87854143Y1531620D02*
X88330334Y1531620D01*
X88377953Y1055429D01*
X88330334Y1103048D01*
X88235096Y1150667D01*
X87997000Y1150667D01*
X87901762Y1103048D01*
X87854143Y1055429D01*
X87806524Y960191D01*
X87806524Y722096D01*
X87854143Y626858D01*
X87901762Y579239D01*
X87997000Y531620D01*
X88235096Y531620D01*
X88330334Y579239D01*
X88377953Y626858D01*
X87330334Y531620D02*
X87139858Y531620D01*
X87044620Y579239D01*
X86997000Y626858D01*
X86901762Y769715D01*
X86854143Y960191D01*
X86854143Y1341143D01*
X86901762Y1436381D01*
X86949381Y1484000D01*
X87044620Y1531620D01*
X87235096Y1531620D01*
X87330334Y1484000D01*
X87377953Y1436381D01*
X87425572Y1341143D01*
X87425572Y1103048D01*
X87377953Y1007810D01*
X87330334Y960191D01*
X87235096Y912572D01*
X87044620Y912572D01*
X86949381Y960191D01*
X86901762Y1007810D01*
X86854143Y1103048D01*
X85949381Y1531620D02*
X86425572Y1531620D01*
X86473191Y1055429D01*
X86425572Y1103048D01*
X86330334Y1150667D01*
X86092239Y1150667D01*
X85997000Y1103048D01*
X85949381Y1055429D01*
X85901762Y960191D01*
X85901762Y722096D01*
X85949381Y626858D01*
X85997000Y579239D01*
X86092239Y531620D01*
X86330334Y531620D01*
X86425572Y579239D01*
X86473191Y626858D01*
D10*
X136957142Y10028572D02*
X136957142Y9542858D01*
X136928571Y9485715D01*
X136900000Y9457143D01*
X136842857Y9428572D01*
X136728571Y9428572D01*
X136671428Y9457143D01*
X136642857Y9485715D01*
X136614285Y9542858D01*
X136614285Y10028572D01*
X136014285Y9428572D02*
X136357142Y9428572D01*
X136185714Y9428572D02*
X136185714Y10028572D01*
X136242857Y9942858D01*
X136300000Y9885715D01*
X136357142Y9857143D01*
X135285714Y9428572D02*
X135285714Y10028572D01*
X135085714Y9600000D01*
X134885714Y10028572D01*
X134885714Y9428572D01*
X134257142Y9485715D02*
X134285714Y9457143D01*
X134371428Y9428572D01*
X134428571Y9428572D01*
X134514285Y9457143D01*
X134571428Y9514286D01*
X134600000Y9571429D01*
X134628571Y9685715D01*
X134628571Y9771429D01*
X134600000Y9885715D01*
X134571428Y9942858D01*
X134514285Y10000000D01*
X134428571Y10028572D01*
X134371428Y10028572D01*
X134285714Y10000000D01*
X134257142Y9971429D01*
X134000000Y9428572D02*
X134000000Y10028572D01*
X133771428Y10028572D01*
X133714285Y10000000D01*
X133685714Y9971429D01*
X133657142Y9914286D01*
X133657142Y9828572D01*
X133685714Y9771429D01*
X133714285Y9742858D01*
X133771428Y9714286D01*
X134000000Y9714286D01*
X133142857Y9828572D02*
X133142857Y9428572D01*
X133285714Y10057143D02*
X133428571Y9628572D01*
X133057142Y9628572D01*
X132800000Y9428572D02*
X132685714Y9428572D01*
X132628571Y9457143D01*
X132600000Y9485715D01*
X132542857Y9571429D01*
X132514285Y9685715D01*
X132514285Y9914286D01*
X132542857Y9971429D01*
X132571428Y10000000D01*
X132628571Y10028572D01*
X132742857Y10028572D01*
X132800000Y10000000D01*
X132828571Y9971429D01*
X132857142Y9914286D01*
X132857142Y9771429D01*
X132828571Y9714286D01*
X132800000Y9685715D01*
X132742857Y9657143D01*
X132628571Y9657143D01*
X132571428Y9685715D01*
X132542857Y9714286D01*
X132514285Y9771429D01*
X132285714Y9971429D02*
X132257142Y10000000D01*
X132200000Y10028572D01*
X132057142Y10028572D01*
X132000000Y10000000D01*
X131971428Y9971429D01*
X131942857Y9914286D01*
X131942857Y9857143D01*
X131971428Y9771429D01*
X132314285Y9428572D01*
X131942857Y9428572D01*
X131371428Y9428572D02*
X131714285Y9428572D01*
X131542857Y9428572D02*
X131542857Y10028572D01*
X131600000Y9942858D01*
X131657142Y9885715D01*
X131714285Y9857143D01*
X131114285Y9657143D02*
X130657142Y9657143D01*
X130371428Y9742858D02*
X130171428Y9742858D01*
X130085714Y9428572D02*
X130371428Y9428572D01*
X130371428Y10028572D01*
X130085714Y10028572D01*
D11*
X128218564Y1541780D02*
X128218564Y732256D01*
X128170945Y637018D01*
X128123326Y589399D01*
X128028088Y541780D01*
X127837612Y541780D01*
X127742374Y589399D01*
X127694755Y637018D01*
X127647136Y732256D01*
X127647136Y1541780D01*
X127266183Y1541780D02*
X126599517Y1541780D01*
X127028088Y541780D01*
X125548976Y1541780D02*
X124882309Y1541780D01*
X125310880Y541780D01*
X124072785Y1208446D02*
X124072785Y541780D01*
X124310880Y1589399D02*
X124548976Y875113D01*
X123929928Y875113D01*
X123596595Y827494D02*
X123120404Y827494D01*
X123691833Y541780D02*
X123358500Y1541780D01*
X123025166Y541780D01*
X122691833Y541780D02*
X122691833Y1541780D01*
X122691833Y1065589D02*
X122120404Y1065589D01*
X122120404Y541780D02*
X122120404Y1541780D01*
X121072785Y637018D02*
X121120404Y589399D01*
X121263261Y541780D01*
X121358500Y541780D01*
X121501357Y589399D01*
X121596595Y684637D01*
X121644214Y779875D01*
X121691833Y970351D01*
X121691833Y1113208D01*
X121644214Y1303684D01*
X121596595Y1398922D01*
X121501357Y1494160D01*
X121358500Y1541780D01*
X121263261Y1541780D01*
X121120404Y1494160D01*
X121072785Y1446541D01*
X120168023Y1541780D02*
X120644214Y1541780D01*
X120691833Y1065589D01*
X120644214Y1113208D01*
X120548976Y1160827D01*
X120310880Y1160827D01*
X120215642Y1113208D01*
X120168023Y1065589D01*
X120120404Y970351D01*
X120120404Y732256D01*
X120168023Y637018D01*
X120215642Y589399D01*
X120310880Y541780D01*
X120548976Y541780D01*
X120644214Y589399D01*
X120691833Y637018D01*
X119644214Y541780D02*
X119453738Y541780D01*
X119358500Y589399D01*
X119310880Y637018D01*
X119215642Y779875D01*
X119168023Y970351D01*
X119168023Y1351303D01*
X119215642Y1446541D01*
X119263261Y1494160D01*
X119358500Y1541780D01*
X119548976Y1541780D01*
X119644214Y1494160D01*
X119691833Y1446541D01*
X119739452Y1351303D01*
X119739452Y1113208D01*
X119691833Y1017970D01*
X119644214Y970351D01*
X119548976Y922732D01*
X119358500Y922732D01*
X119263261Y970351D01*
X119215642Y1017970D01*
X119168023Y1113208D01*
X118263261Y1541780D02*
X118739452Y1541780D01*
X118787071Y1065589D01*
X118739452Y1113208D01*
X118644214Y1160827D01*
X118406119Y1160827D01*
X118310880Y1113208D01*
X118263261Y1065589D01*
X118215642Y970351D01*
X118215642Y732256D01*
X118263261Y637018D01*
X118310880Y589399D01*
X118406119Y541780D01*
X118644214Y541780D01*
X118739452Y589399D01*
X118787071Y637018D01*
X61952504Y1595120D02*
X61952504Y785596D01*
X61904885Y690358D01*
X61857266Y642739D01*
X61762028Y595120D01*
X61571552Y595120D01*
X61476314Y642739D01*
X61428695Y690358D01*
X61381076Y785596D01*
X61381076Y1595120D01*
X61000123Y1595120D02*
X60381076Y1595120D01*
X60714409Y1214167D01*
X60571552Y1214167D01*
X60476314Y1166548D01*
X60428695Y1118929D01*
X60381076Y1023691D01*
X60381076Y785596D01*
X60428695Y690358D01*
X60476314Y642739D01*
X60571552Y595120D01*
X60857266Y595120D01*
X60952504Y642739D01*
X61000123Y690358D01*
X58922236Y1595120D02*
X58255569Y1595120D01*
X58684140Y595120D01*
X57446045Y1261786D02*
X57446045Y595120D01*
X57684140Y1642739D02*
X57922236Y928453D01*
X57303188Y928453D01*
X56969855Y880834D02*
X56493664Y880834D01*
X57065093Y595120D02*
X56731760Y1595120D01*
X56398426Y595120D01*
X56065093Y595120D02*
X56065093Y1595120D01*
X56065093Y1118929D02*
X55493664Y1118929D01*
X55493664Y595120D02*
X55493664Y1595120D01*
X54446045Y690358D02*
X54493664Y642739D01*
X54636521Y595120D01*
X54731760Y595120D01*
X54874617Y642739D01*
X54969855Y737977D01*
X55017474Y833215D01*
X55065093Y1023691D01*
X55065093Y1166548D01*
X55017474Y1357024D01*
X54969855Y1452262D01*
X54874617Y1547500D01*
X54731760Y1595120D01*
X54636521Y1595120D01*
X54493664Y1547500D01*
X54446045Y1499881D01*
X53541283Y1595120D02*
X54017474Y1595120D01*
X54065093Y1118929D01*
X54017474Y1166548D01*
X53922236Y1214167D01*
X53684140Y1214167D01*
X53588902Y1166548D01*
X53541283Y1118929D01*
X53493664Y1023691D01*
X53493664Y785596D01*
X53541283Y690358D01*
X53588902Y642739D01*
X53684140Y595120D01*
X53922236Y595120D01*
X54017474Y642739D01*
X54065093Y690358D01*
X53017474Y595120D02*
X52826998Y595120D01*
X52731760Y642739D01*
X52684140Y690358D01*
X52588902Y833215D01*
X52541283Y1023691D01*
X52541283Y1404643D01*
X52588902Y1499881D01*
X52636521Y1547500D01*
X52731760Y1595120D01*
X52922236Y1595120D01*
X53017474Y1547500D01*
X53065093Y1499881D01*
X53112712Y1404643D01*
X53112712Y1166548D01*
X53065093Y1071310D01*
X53017474Y1023691D01*
X52922236Y976072D01*
X52731760Y976072D01*
X52636521Y1023691D01*
X52588902Y1071310D01*
X52541283Y1166548D01*
X51636521Y1595120D02*
X52112712Y1595120D01*
X52160331Y1118929D01*
X52112712Y1166548D01*
X52017474Y1214167D01*
X51779379Y1214167D01*
X51684140Y1166548D01*
X51636521Y1118929D01*
X51588902Y1023691D01*
X51588902Y785596D01*
X51636521Y690358D01*
X51684140Y642739D01*
X51779379Y595120D01*
X52017474Y595120D01*
X52112712Y642739D01*
X52160331Y690358D01*
X6716666Y21161905D02*
X6450000Y20780953D01*
X6259523Y21161905D02*
X6259523Y20361905D01*
X6564285Y20361905D01*
X6640476Y20400000D01*
X6678571Y20438096D01*
X6716666Y20514286D01*
X6716666Y20628572D01*
X6678571Y20704762D01*
X6640476Y20742858D01*
X6564285Y20780953D01*
X6259523Y20780953D01*
X7097619Y21161905D02*
X7250000Y21161905D01*
X7326190Y21123810D01*
X7364285Y21085715D01*
X7440476Y20971429D01*
X7478571Y20819048D01*
X7478571Y20514286D01*
X7440476Y20438096D01*
X7402380Y20400000D01*
X7326190Y20361905D01*
X7173809Y20361905D01*
X7097619Y20400000D01*
X7059523Y20438096D01*
X7021428Y20514286D01*
X7021428Y20704762D01*
X7059523Y20780953D01*
X7097619Y20819048D01*
X7173809Y20857143D01*
X7326190Y20857143D01*
X7402380Y20819048D01*
X7440476Y20780953D01*
X7478571Y20704762D01*
X1535714Y21161905D02*
X1269047Y20780953D01*
X1078571Y21161905D02*
X1078571Y20361905D01*
X1383333Y20361905D01*
X1459523Y20400000D01*
X1497619Y20438096D01*
X1535714Y20514286D01*
X1535714Y20628572D01*
X1497619Y20704762D01*
X1459523Y20742858D01*
X1383333Y20780953D01*
X1078571Y20780953D01*
X2297619Y21161905D02*
X1840476Y21161905D01*
X2069047Y21161905D02*
X2069047Y20361905D01*
X1992857Y20476191D01*
X1916666Y20552381D01*
X1840476Y20590477D01*
X2602380Y20438096D02*
X2640476Y20400000D01*
X2716666Y20361905D01*
X2907142Y20361905D01*
X2983333Y20400000D01*
X3021428Y20438096D01*
X3059523Y20514286D01*
X3059523Y20590477D01*
X3021428Y20704762D01*
X2564285Y21161905D01*
X3059523Y21161905D01*
X4085714Y21161905D02*
X3819047Y20780953D01*
X3628571Y21161905D02*
X3628571Y20361905D01*
X3933333Y20361905D01*
X4009523Y20400000D01*
X4047619Y20438096D01*
X4085714Y20514286D01*
X4085714Y20628572D01*
X4047619Y20704762D01*
X4009523Y20742858D01*
X3933333Y20780953D01*
X3628571Y20780953D01*
X4847619Y21161905D02*
X4390476Y21161905D01*
X4619047Y21161905D02*
X4619047Y20361905D01*
X4542857Y20476191D01*
X4466666Y20552381D01*
X4390476Y20590477D01*
X5609523Y21161905D02*
X5152380Y21161905D01*
X5380952Y21161905D02*
X5380952Y20361905D01*
X5304761Y20476191D01*
X5228571Y20552381D01*
X5152380Y20590477D01*
X8685714Y21161905D02*
X8419047Y20780953D01*
X8228571Y21161905D02*
X8228571Y20361905D01*
X8533333Y20361905D01*
X8609523Y20400000D01*
X8647619Y20438096D01*
X8685714Y20514286D01*
X8685714Y20628572D01*
X8647619Y20704762D01*
X8609523Y20742858D01*
X8533333Y20780953D01*
X8228571Y20780953D01*
X9447619Y21161905D02*
X8990476Y21161905D01*
X9219047Y21161905D02*
X9219047Y20361905D01*
X9142857Y20476191D01*
X9066666Y20552381D01*
X8990476Y20590477D01*
X9942857Y20361905D02*
X10019047Y20361905D01*
X10095238Y20400000D01*
X10133333Y20438096D01*
X10171428Y20514286D01*
X10209523Y20666667D01*
X10209523Y20857143D01*
X10171428Y21009524D01*
X10133333Y21085715D01*
X10095238Y21123810D01*
X10019047Y21161905D01*
X9942857Y21161905D01*
X9866666Y21123810D01*
X9828571Y21085715D01*
X9790476Y21009524D01*
X9752380Y20857143D01*
X9752380Y20666667D01*
X9790476Y20514286D01*
X9828571Y20438096D01*
X9866666Y20400000D01*
X9942857Y20361905D01*
X11863095Y31752381D02*
X11863095Y32561905D01*
X11910714Y32657143D01*
X11958333Y32704762D01*
X12053571Y32752381D01*
X12244047Y32752381D01*
X12339285Y32704762D01*
X12386904Y32657143D01*
X12434523Y32561905D01*
X12434523Y31752381D01*
X12863095Y31847620D02*
X12910714Y31800000D01*
X13005952Y31752381D01*
X13244047Y31752381D01*
X13339285Y31800000D01*
X13386904Y31847620D01*
X13434523Y31942858D01*
X13434523Y32038096D01*
X13386904Y32180953D01*
X12815476Y32752381D01*
X13434523Y32752381D01*
X16280952Y32752381D02*
X15804761Y32752381D01*
X15804761Y31752381D01*
X16614285Y32752381D02*
X16614285Y31752381D01*
X16947619Y32466667D01*
X17280952Y31752381D01*
X17280952Y32752381D01*
X17661904Y31752381D02*
X18280952Y31752381D01*
X17947619Y32133334D01*
X18090476Y32133334D01*
X18185714Y32180953D01*
X18233333Y32228572D01*
X18280952Y32323810D01*
X18280952Y32561905D01*
X18233333Y32657143D01*
X18185714Y32704762D01*
X18090476Y32752381D01*
X17804761Y32752381D01*
X17709523Y32704762D01*
X17661904Y32657143D01*
X18614285Y31752381D02*
X19233333Y31752381D01*
X18900000Y32133334D01*
X19042857Y32133334D01*
X19138095Y32180953D01*
X19185714Y32228572D01*
X19233333Y32323810D01*
X19233333Y32561905D01*
X19185714Y32657143D01*
X19138095Y32704762D01*
X19042857Y32752381D01*
X18757142Y32752381D01*
X18661904Y32704762D01*
X18614285Y32657143D01*
X19709523Y32752381D02*
X19900000Y32752381D01*
X19995238Y32704762D01*
X20042857Y32657143D01*
X20138095Y32514286D01*
X20185714Y32323810D01*
X20185714Y31942858D01*
X20138095Y31847620D01*
X20090476Y31800000D01*
X19995238Y31752381D01*
X19804761Y31752381D01*
X19709523Y31800000D01*
X19661904Y31847620D01*
X19614285Y31942858D01*
X19614285Y32180953D01*
X19661904Y32276191D01*
X19709523Y32323810D01*
X19804761Y32371429D01*
X19995238Y32371429D01*
X20090476Y32323810D01*
X20138095Y32276191D01*
X20185714Y32180953D01*
X20566666Y32466667D02*
X21042857Y32466667D01*
X20471428Y32752381D02*
X20804761Y31752381D01*
X21138095Y32752381D01*
X10266666Y25685715D02*
X10228571Y25723810D01*
X10114285Y25761905D01*
X10038095Y25761905D01*
X9923809Y25723810D01*
X9847619Y25647620D01*
X9809523Y25571429D01*
X9771428Y25419048D01*
X9771428Y25304762D01*
X9809523Y25152381D01*
X9847619Y25076191D01*
X9923809Y25000000D01*
X10038095Y24961905D01*
X10114285Y24961905D01*
X10228571Y25000000D01*
X10266666Y25038096D01*
X10533333Y24961905D02*
X11028571Y24961905D01*
X10761904Y25266667D01*
X10876190Y25266667D01*
X10952380Y25304762D01*
X10990476Y25342858D01*
X11028571Y25419048D01*
X11028571Y25609524D01*
X10990476Y25685715D01*
X10952380Y25723810D01*
X10876190Y25761905D01*
X10647619Y25761905D01*
X10571428Y25723810D01*
X10533333Y25685715D01*
X137083333Y24377381D02*
X136750000Y23901191D01*
X136511904Y24377381D02*
X136511904Y23377381D01*
X136892857Y23377381D01*
X136988095Y23425000D01*
X137035714Y23472620D01*
X137083333Y23567858D01*
X137083333Y23710715D01*
X137035714Y23805953D01*
X136988095Y23853572D01*
X136892857Y23901191D01*
X136511904Y23901191D01*
X137654761Y23805953D02*
X137559523Y23758334D01*
X137511904Y23710715D01*
X137464285Y23615477D01*
X137464285Y23567858D01*
X137511904Y23472620D01*
X137559523Y23425000D01*
X137654761Y23377381D01*
X137845238Y23377381D01*
X137940476Y23425000D01*
X137988095Y23472620D01*
X138035714Y23567858D01*
X138035714Y23615477D01*
X137988095Y23710715D01*
X137940476Y23758334D01*
X137845238Y23805953D01*
X137654761Y23805953D01*
X137559523Y23853572D01*
X137511904Y23901191D01*
X137464285Y23996429D01*
X137464285Y24186905D01*
X137511904Y24282143D01*
X137559523Y24329762D01*
X137654761Y24377381D01*
X137845238Y24377381D01*
X137940476Y24329762D01*
X137988095Y24282143D01*
X138035714Y24186905D01*
X138035714Y23996429D01*
X137988095Y23901191D01*
X137940476Y23853572D01*
X137845238Y23805953D01*
X137083333Y20377381D02*
X136750000Y19901191D01*
X136511904Y20377381D02*
X136511904Y19377381D01*
X136892857Y19377381D01*
X136988095Y19425000D01*
X137035714Y19472620D01*
X137083333Y19567858D01*
X137083333Y19710715D01*
X137035714Y19805953D01*
X136988095Y19853572D01*
X136892857Y19901191D01*
X136511904Y19901191D01*
X137940476Y19377381D02*
X137750000Y19377381D01*
X137654761Y19425000D01*
X137607142Y19472620D01*
X137511904Y19615477D01*
X137464285Y19805953D01*
X137464285Y20186905D01*
X137511904Y20282143D01*
X137559523Y20329762D01*
X137654761Y20377381D01*
X137845238Y20377381D01*
X137940476Y20329762D01*
X137988095Y20282143D01*
X138035714Y20186905D01*
X138035714Y19948810D01*
X137988095Y19853572D01*
X137940476Y19805953D01*
X137845238Y19758334D01*
X137654761Y19758334D01*
X137559523Y19805953D01*
X137511904Y19853572D01*
X137464285Y19948810D01*
X137083333Y22327381D02*
X136750000Y21851191D01*
X136511904Y22327381D02*
X136511904Y21327381D01*
X136892857Y21327381D01*
X136988095Y21375000D01*
X137035714Y21422620D01*
X137083333Y21517858D01*
X137083333Y21660715D01*
X137035714Y21755953D01*
X136988095Y21803572D01*
X136892857Y21851191D01*
X136511904Y21851191D01*
X137416666Y21327381D02*
X138083333Y21327381D01*
X137654761Y22327381D01*
X22358333Y31352381D02*
X22025000Y30876191D01*
X21786904Y31352381D02*
X21786904Y30352381D01*
X22167857Y30352381D01*
X22263095Y30400000D01*
X22310714Y30447620D01*
X22358333Y30542858D01*
X22358333Y30685715D01*
X22310714Y30780953D01*
X22263095Y30828572D01*
X22167857Y30876191D01*
X21786904Y30876191D01*
X23263095Y30352381D02*
X22786904Y30352381D01*
X22739285Y30828572D01*
X22786904Y30780953D01*
X22882142Y30733334D01*
X23120238Y30733334D01*
X23215476Y30780953D01*
X23263095Y30828572D01*
X23310714Y30923810D01*
X23310714Y31161905D01*
X23263095Y31257143D01*
X23215476Y31304762D01*
X23120238Y31352381D01*
X22882142Y31352381D01*
X22786904Y31304762D01*
X22739285Y31257143D01*
X29183333Y32327381D02*
X28850000Y31851191D01*
X28611904Y32327381D02*
X28611904Y31327381D01*
X28992857Y31327381D01*
X29088095Y31375000D01*
X29135714Y31422620D01*
X29183333Y31517858D01*
X29183333Y31660715D01*
X29135714Y31755953D01*
X29088095Y31803572D01*
X28992857Y31851191D01*
X28611904Y31851191D01*
X30040476Y31660715D02*
X30040476Y32327381D01*
X29802380Y31279762D02*
X29564285Y31994048D01*
X30183333Y31994048D01*
X24808333Y30977381D02*
X24475000Y30501191D01*
X24236904Y30977381D02*
X24236904Y29977381D01*
X24617857Y29977381D01*
X24713095Y30025000D01*
X24760714Y30072620D01*
X24808333Y30167858D01*
X24808333Y30310715D01*
X24760714Y30405953D01*
X24713095Y30453572D01*
X24617857Y30501191D01*
X24236904Y30501191D01*
X25141666Y29977381D02*
X25760714Y29977381D01*
X25427380Y30358334D01*
X25570238Y30358334D01*
X25665476Y30405953D01*
X25713095Y30453572D01*
X25760714Y30548810D01*
X25760714Y30786905D01*
X25713095Y30882143D01*
X25665476Y30929762D01*
X25570238Y30977381D01*
X25284523Y30977381D01*
X25189285Y30929762D01*
X25141666Y30882143D01*
X5566666Y25761905D02*
X5300000Y25380953D01*
X5109523Y25761905D02*
X5109523Y24961905D01*
X5414285Y24961905D01*
X5490476Y25000000D01*
X5528571Y25038096D01*
X5566666Y25114286D01*
X5566666Y25228572D01*
X5528571Y25304762D01*
X5490476Y25342858D01*
X5414285Y25380953D01*
X5109523Y25380953D01*
X5871428Y25038096D02*
X5909523Y25000000D01*
X5985714Y24961905D01*
X6176190Y24961905D01*
X6252380Y25000000D01*
X6290476Y25038096D01*
X6328571Y25114286D01*
X6328571Y25190477D01*
X6290476Y25304762D01*
X5833333Y25761905D01*
X6328571Y25761905D01*
X7966666Y25761905D02*
X7700000Y25380953D01*
X7509523Y25761905D02*
X7509523Y24961905D01*
X7814285Y24961905D01*
X7890476Y25000000D01*
X7928571Y25038096D01*
X7966666Y25114286D01*
X7966666Y25228572D01*
X7928571Y25304762D01*
X7890476Y25342858D01*
X7814285Y25380953D01*
X7509523Y25380953D01*
X8728571Y25761905D02*
X8271428Y25761905D01*
X8500000Y25761905D02*
X8500000Y24961905D01*
X8423809Y25076191D01*
X8347619Y25152381D01*
X8271428Y25190477D01*
X23498453Y24252103D02*
X23450834Y24299722D01*
X23307977Y24347341D01*
X23212739Y24347341D01*
X23069881Y24299722D01*
X22974643Y24204484D01*
X22927024Y24109246D01*
X22879405Y23918770D01*
X22879405Y23775913D01*
X22927024Y23585437D01*
X22974643Y23490199D01*
X23069881Y23394960D01*
X23212739Y23347341D01*
X23307977Y23347341D01*
X23450834Y23394960D01*
X23498453Y23442580D01*
X24355596Y23347341D02*
X24165120Y23347341D01*
X24069881Y23394960D01*
X24022262Y23442580D01*
X23927024Y23585437D01*
X23879405Y23775913D01*
X23879405Y24156865D01*
X23927024Y24252103D01*
X23974643Y24299722D01*
X24069881Y24347341D01*
X24260358Y24347341D01*
X24355596Y24299722D01*
X24403215Y24252103D01*
X24450834Y24156865D01*
X24450834Y23918770D01*
X24403215Y23823532D01*
X24355596Y23775913D01*
X24260358Y23728294D01*
X24069881Y23728294D01*
X23974643Y23775913D01*
X23927024Y23823532D01*
X23879405Y23918770D01*
X47275393Y30472563D02*
X47227774Y30520182D01*
X47084917Y30567801D01*
X46989679Y30567801D01*
X46846821Y30520182D01*
X46751583Y30424944D01*
X46703964Y30329706D01*
X46656345Y30139230D01*
X46656345Y29996373D01*
X46703964Y29805897D01*
X46751583Y29710659D01*
X46846821Y29615420D01*
X46989679Y29567801D01*
X47084917Y29567801D01*
X47227774Y29615420D01*
X47275393Y29663040D01*
X48180155Y29567801D02*
X47703964Y29567801D01*
X47656345Y30043992D01*
X47703964Y29996373D01*
X47799202Y29948754D01*
X48037298Y29948754D01*
X48132536Y29996373D01*
X48180155Y30043992D01*
X48227774Y30139230D01*
X48227774Y30377325D01*
X48180155Y30472563D01*
X48132536Y30520182D01*
X48037298Y30567801D01*
X47799202Y30567801D01*
X47703964Y30520182D01*
X47656345Y30472563D01*
X79850893Y30724023D02*
X79803274Y30771642D01*
X79660417Y30819261D01*
X79565179Y30819261D01*
X79422321Y30771642D01*
X79327083Y30676404D01*
X79279464Y30581166D01*
X79231845Y30390690D01*
X79231845Y30247833D01*
X79279464Y30057357D01*
X79327083Y29962119D01*
X79422321Y29866880D01*
X79565179Y29819261D01*
X79660417Y29819261D01*
X79803274Y29866880D01*
X79850893Y29914500D01*
X80708036Y30152595D02*
X80708036Y30819261D01*
X80469940Y29771642D02*
X80231845Y30485928D01*
X80850893Y30485928D01*
X114646353Y30716403D02*
X114598734Y30764022D01*
X114455877Y30811641D01*
X114360639Y30811641D01*
X114217781Y30764022D01*
X114122543Y30668784D01*
X114074924Y30573546D01*
X114027305Y30383070D01*
X114027305Y30240213D01*
X114074924Y30049737D01*
X114122543Y29954499D01*
X114217781Y29859260D01*
X114360639Y29811641D01*
X114455877Y29811641D01*
X114598734Y29859260D01*
X114646353Y29906880D01*
X115027305Y29906880D02*
X115074924Y29859260D01*
X115170162Y29811641D01*
X115408258Y29811641D01*
X115503496Y29859260D01*
X115551115Y29906880D01*
X115598734Y30002118D01*
X115598734Y30097356D01*
X115551115Y30240213D01*
X114979686Y30811641D01*
X115598734Y30811641D01*
X32220813Y32347083D02*
X32173194Y32394702D01*
X32030337Y32442321D01*
X31935099Y32442321D01*
X31792241Y32394702D01*
X31697003Y32299464D01*
X31649384Y32204226D01*
X31601765Y32013750D01*
X31601765Y31870893D01*
X31649384Y31680417D01*
X31697003Y31585179D01*
X31792241Y31489940D01*
X31935099Y31442321D01*
X32030337Y31442321D01*
X32173194Y31489940D01*
X32220813Y31537560D01*
X33173194Y32442321D02*
X32601765Y32442321D01*
X32887480Y32442321D02*
X32887480Y31442321D01*
X32792241Y31585179D01*
X32697003Y31680417D01*
X32601765Y31728036D01*
X67254155Y31668381D02*
X67254155Y32477905D01*
X67301774Y32573143D01*
X67349393Y32620762D01*
X67444631Y32668381D01*
X67635107Y32668381D01*
X67730345Y32620762D01*
X67777964Y32573143D01*
X67825583Y32477905D01*
X67825583Y31668381D01*
X68730345Y32001715D02*
X68730345Y32668381D01*
X68492250Y31620762D02*
X68254155Y32335048D01*
X68873202Y32335048D01*
X70314903Y31668381D02*
X70981570Y31668381D01*
X70552999Y32668381D01*
X71791094Y32001715D02*
X71791094Y32668381D01*
X71552999Y31620762D02*
X71314903Y32335048D01*
X71933951Y32335048D01*
X72267284Y32382667D02*
X72743475Y32382667D01*
X72172046Y32668381D02*
X72505380Y31668381D01*
X72838713Y32668381D01*
X73172046Y32668381D02*
X73172046Y31668381D01*
X73172046Y32144572D02*
X73743475Y32144572D01*
X73743475Y32668381D02*
X73743475Y31668381D01*
X74791094Y32573143D02*
X74743475Y32620762D01*
X74600618Y32668381D01*
X74505380Y32668381D01*
X74362522Y32620762D01*
X74267284Y32525524D01*
X74219665Y32430286D01*
X74172046Y32239810D01*
X74172046Y32096953D01*
X74219665Y31906477D01*
X74267284Y31811239D01*
X74362522Y31716000D01*
X74505380Y31668381D01*
X74600618Y31668381D01*
X74743475Y31716000D01*
X74791094Y31763620D01*
X75695856Y31668381D02*
X75219665Y31668381D01*
X75172046Y32144572D01*
X75219665Y32096953D01*
X75314903Y32049334D01*
X75552999Y32049334D01*
X75648237Y32096953D01*
X75695856Y32144572D01*
X75743475Y32239810D01*
X75743475Y32477905D01*
X75695856Y32573143D01*
X75648237Y32620762D01*
X75552999Y32668381D01*
X75314903Y32668381D01*
X75219665Y32620762D01*
X75172046Y32573143D01*
X76219665Y32668381D02*
X76410141Y32668381D01*
X76505380Y32620762D01*
X76552999Y32573143D01*
X76648237Y32430286D01*
X76695856Y32239810D01*
X76695856Y31858858D01*
X76648237Y31763620D01*
X76600618Y31716000D01*
X76505380Y31668381D01*
X76314903Y31668381D01*
X76219665Y31716000D01*
X76172046Y31763620D01*
X76124427Y31858858D01*
X76124427Y32096953D01*
X76172046Y32192191D01*
X76219665Y32239810D01*
X76314903Y32287429D01*
X76505380Y32287429D01*
X76600618Y32239810D01*
X76648237Y32192191D01*
X76695856Y32096953D01*
X77600618Y31668381D02*
X77124427Y31668381D01*
X77076808Y32144572D01*
X77124427Y32096953D01*
X77219665Y32049334D01*
X77457760Y32049334D01*
X77552999Y32096953D01*
X77600618Y32144572D01*
X77648237Y32239810D01*
X77648237Y32477905D01*
X77600618Y32573143D01*
X77552999Y32620762D01*
X77457760Y32668381D01*
X77219665Y32668381D01*
X77124427Y32620762D01*
X77076808Y32573143D01*
D10*
X26592857Y23171429D02*
X26592857Y23657143D01*
X26621428Y23714286D01*
X26650000Y23742858D01*
X26707142Y23771429D01*
X26821428Y23771429D01*
X26878571Y23742858D01*
X26907142Y23714286D01*
X26935714Y23657143D01*
X26935714Y23171429D01*
X27535714Y23771429D02*
X27192857Y23771429D01*
X27364285Y23771429D02*
X27364285Y23171429D01*
X27307142Y23257143D01*
X27250000Y23314286D01*
X27192857Y23342858D01*
X28264285Y23771429D02*
X28264285Y23171429D01*
X28464285Y23600000D01*
X28664285Y23171429D01*
X28664285Y23771429D01*
X29292857Y23714286D02*
X29264285Y23742858D01*
X29178571Y23771429D01*
X29121428Y23771429D01*
X29035714Y23742858D01*
X28978571Y23685715D01*
X28950000Y23628572D01*
X28921428Y23514286D01*
X28921428Y23428572D01*
X28950000Y23314286D01*
X28978571Y23257143D01*
X29035714Y23200000D01*
X29121428Y23171429D01*
X29178571Y23171429D01*
X29264285Y23200000D01*
X29292857Y23228572D01*
X29550000Y23771429D02*
X29550000Y23171429D01*
X29778571Y23171429D01*
X29835714Y23200000D01*
X29864285Y23228572D01*
X29892857Y23285715D01*
X29892857Y23371429D01*
X29864285Y23428572D01*
X29835714Y23457143D01*
X29778571Y23485715D01*
X29550000Y23485715D01*
X30407142Y23371429D02*
X30407142Y23771429D01*
X30264285Y23142858D02*
X30121428Y23571429D01*
X30492857Y23571429D01*
X30750000Y23771429D02*
X30864285Y23771429D01*
X30921428Y23742858D01*
X30950000Y23714286D01*
X31007142Y23628572D01*
X31035714Y23514286D01*
X31035714Y23285715D01*
X31007142Y23228572D01*
X30978571Y23200000D01*
X30921428Y23171429D01*
X30807142Y23171429D01*
X30750000Y23200000D01*
X30721428Y23228572D01*
X30692857Y23285715D01*
X30692857Y23428572D01*
X30721428Y23485715D01*
X30750000Y23514286D01*
X30807142Y23542858D01*
X30921428Y23542858D01*
X30978571Y23514286D01*
X31007142Y23485715D01*
X31035714Y23428572D01*
X31264285Y23228572D02*
X31292857Y23200000D01*
X31350000Y23171429D01*
X31492857Y23171429D01*
X31550000Y23200000D01*
X31578571Y23228572D01*
X31607142Y23285715D01*
X31607142Y23342858D01*
X31578571Y23428572D01*
X31235714Y23771429D01*
X31607142Y23771429D01*
X32178571Y23771429D02*
X31835714Y23771429D01*
X32007142Y23771429D02*
X32007142Y23171429D01*
X31950000Y23257143D01*
X31892857Y23314286D01*
X31835714Y23342858D01*
X32435714Y23542858D02*
X32892857Y23542858D01*
X33178571Y23457143D02*
X33378571Y23457143D01*
X33464285Y23771429D02*
X33178571Y23771429D01*
X33178571Y23171429D01*
X33464285Y23171429D01*
D11*
X35331435Y31658221D02*
X35331435Y32467745D01*
X35379054Y32562983D01*
X35426673Y32610602D01*
X35521911Y32658221D01*
X35712387Y32658221D01*
X35807625Y32610602D01*
X35855244Y32562983D01*
X35902863Y32467745D01*
X35902863Y31658221D01*
X36283816Y31658221D02*
X36950482Y31658221D01*
X36521911Y32658221D01*
X38001023Y31658221D02*
X38667690Y31658221D01*
X38239119Y32658221D01*
X39477214Y31991555D02*
X39477214Y32658221D01*
X39239119Y31610602D02*
X39001023Y32324888D01*
X39620071Y32324888D01*
X39953404Y32372507D02*
X40429595Y32372507D01*
X39858166Y32658221D02*
X40191500Y31658221D01*
X40524833Y32658221D01*
X40858166Y32658221D02*
X40858166Y31658221D01*
X40858166Y32134412D02*
X41429595Y32134412D01*
X41429595Y32658221D02*
X41429595Y31658221D01*
X42477214Y32562983D02*
X42429595Y32610602D01*
X42286738Y32658221D01*
X42191500Y32658221D01*
X42048642Y32610602D01*
X41953404Y32515364D01*
X41905785Y32420126D01*
X41858166Y32229650D01*
X41858166Y32086793D01*
X41905785Y31896317D01*
X41953404Y31801079D01*
X42048642Y31705840D01*
X42191500Y31658221D01*
X42286738Y31658221D01*
X42429595Y31705840D01*
X42477214Y31753460D01*
X43381976Y31658221D02*
X42905785Y31658221D01*
X42858166Y32134412D01*
X42905785Y32086793D01*
X43001023Y32039174D01*
X43239119Y32039174D01*
X43334357Y32086793D01*
X43381976Y32134412D01*
X43429595Y32229650D01*
X43429595Y32467745D01*
X43381976Y32562983D01*
X43334357Y32610602D01*
X43239119Y32658221D01*
X43001023Y32658221D01*
X42905785Y32610602D01*
X42858166Y32562983D01*
X43905785Y32658221D02*
X44096261Y32658221D01*
X44191500Y32610602D01*
X44239119Y32562983D01*
X44334357Y32420126D01*
X44381976Y32229650D01*
X44381976Y31848698D01*
X44334357Y31753460D01*
X44286738Y31705840D01*
X44191500Y31658221D01*
X44001023Y31658221D01*
X43905785Y31705840D01*
X43858166Y31753460D01*
X43810547Y31848698D01*
X43810547Y32086793D01*
X43858166Y32182031D01*
X43905785Y32229650D01*
X44001023Y32277269D01*
X44191500Y32277269D01*
X44286738Y32229650D01*
X44334357Y32182031D01*
X44381976Y32086793D01*
X45286738Y31658221D02*
X44810547Y31658221D01*
X44762928Y32134412D01*
X44810547Y32086793D01*
X44905785Y32039174D01*
X45143880Y32039174D01*
X45239119Y32086793D01*
X45286738Y32134412D01*
X45334357Y32229650D01*
X45334357Y32467745D01*
X45286738Y32562983D01*
X45239119Y32610602D01*
X45143880Y32658221D01*
X44905785Y32658221D01*
X44810547Y32610602D01*
X44762928Y32562983D01*
X101597495Y31604881D02*
X101597495Y32414405D01*
X101645114Y32509643D01*
X101692733Y32557262D01*
X101787971Y32604881D01*
X101978447Y32604881D01*
X102073685Y32557262D01*
X102121304Y32509643D01*
X102168923Y32414405D01*
X102168923Y31604881D01*
X102549876Y31604881D02*
X103168923Y31604881D01*
X102835590Y31985834D01*
X102978447Y31985834D01*
X103073685Y32033453D01*
X103121304Y32081072D01*
X103168923Y32176310D01*
X103168923Y32414405D01*
X103121304Y32509643D01*
X103073685Y32557262D01*
X102978447Y32604881D01*
X102692733Y32604881D01*
X102597495Y32557262D01*
X102549876Y32509643D01*
X104627763Y31604881D02*
X105294430Y31604881D01*
X104865859Y32604881D01*
X106103954Y31938215D02*
X106103954Y32604881D01*
X105865859Y31557262D02*
X105627763Y32271548D01*
X106246811Y32271548D01*
X106580144Y32319167D02*
X107056335Y32319167D01*
X106484906Y32604881D02*
X106818240Y31604881D01*
X107151573Y32604881D01*
X107484906Y32604881D02*
X107484906Y31604881D01*
X107484906Y32081072D02*
X108056335Y32081072D01*
X108056335Y32604881D02*
X108056335Y31604881D01*
X109103954Y32509643D02*
X109056335Y32557262D01*
X108913478Y32604881D01*
X108818240Y32604881D01*
X108675382Y32557262D01*
X108580144Y32462024D01*
X108532525Y32366786D01*
X108484906Y32176310D01*
X108484906Y32033453D01*
X108532525Y31842977D01*
X108580144Y31747739D01*
X108675382Y31652500D01*
X108818240Y31604881D01*
X108913478Y31604881D01*
X109056335Y31652500D01*
X109103954Y31700120D01*
X110008716Y31604881D02*
X109532525Y31604881D01*
X109484906Y32081072D01*
X109532525Y32033453D01*
X109627763Y31985834D01*
X109865859Y31985834D01*
X109961097Y32033453D01*
X110008716Y32081072D01*
X110056335Y32176310D01*
X110056335Y32414405D01*
X110008716Y32509643D01*
X109961097Y32557262D01*
X109865859Y32604881D01*
X109627763Y32604881D01*
X109532525Y32557262D01*
X109484906Y32509643D01*
X110532525Y32604881D02*
X110723001Y32604881D01*
X110818240Y32557262D01*
X110865859Y32509643D01*
X110961097Y32366786D01*
X111008716Y32176310D01*
X111008716Y31795358D01*
X110961097Y31700120D01*
X110913478Y31652500D01*
X110818240Y31604881D01*
X110627763Y31604881D01*
X110532525Y31652500D01*
X110484906Y31700120D01*
X110437287Y31795358D01*
X110437287Y32033453D01*
X110484906Y32128691D01*
X110532525Y32176310D01*
X110627763Y32223929D01*
X110818240Y32223929D01*
X110913478Y32176310D01*
X110961097Y32128691D01*
X111008716Y32033453D01*
X111913478Y31604881D02*
X111437287Y31604881D01*
X111389668Y32081072D01*
X111437287Y32033453D01*
X111532525Y31985834D01*
X111770620Y31985834D01*
X111865859Y32033453D01*
X111913478Y32081072D01*
X111961097Y32176310D01*
X111961097Y32414405D01*
X111913478Y32509643D01*
X111865859Y32557262D01*
X111770620Y32604881D01*
X111532525Y32604881D01*
X111437287Y32557262D01*
X111389668Y32509643D01*
M02*
