G04 #@! TF.GenerationSoftware,KiCad,Pcbnew,5.1.6+dfsg1-1~bpo10+1*
G04 #@! TF.CreationDate,2020-08-17T15:44:58+03:00*
G04 #@! TF.ProjectId,beam_p,6265616d-5f70-42e6-9b69-6361645f7063,0.0.3*
G04 #@! TF.SameCoordinates,PX6a55ae0PY872eef0*
G04 #@! TF.FileFunction,Legend,Top*
G04 #@! TF.FilePolarity,Positive*
%FSLAX46Y46*%
G04 Gerber Fmt 4.6, Leading zero omitted, Abs format (unit mm)*
G04 Created by KiCad (PCBNEW 5.1.6+dfsg1-1~bpo10+1) date 2020-08-17 15:44:58*
%MOMM*%
%LPD*%
G01*
G04 APERTURE LIST*
%ADD10C,0.120000*%
%ADD11C,0.150000*%
G04 APERTURE END LIST*
D10*
X33368880Y13027100D02*
X33368880Y14357100D01*
X34698880Y13027100D02*
X33368880Y13027100D01*
X33368880Y15627100D02*
X33368880Y18227100D01*
X35968880Y15627100D02*
X33368880Y15627100D01*
X35968880Y13027100D02*
X35968880Y15627100D01*
X33368880Y18227100D02*
X41108880Y18227100D01*
X35968880Y13027100D02*
X41108880Y13027100D01*
X41108880Y13027100D02*
X41108880Y18227100D01*
D11*
X1076900Y563380D02*
X31556900Y563380D01*
X1076900Y563380D02*
X1076900Y5643380D01*
X1076900Y5643380D02*
X-1463100Y5643380D01*
X-1463100Y5643380D02*
X-1463100Y13263380D01*
X-1463100Y13263380D02*
X1076900Y13263380D01*
X1076900Y13263380D02*
X1076900Y18343380D01*
X1076900Y18343380D02*
X31556900Y18343380D01*
X31556900Y18343380D02*
X31556900Y563380D01*
D10*
X128881120Y20172900D02*
X128881120Y18842900D01*
X127551120Y20172900D02*
X128881120Y20172900D01*
X128881120Y17572900D02*
X128881120Y14972900D01*
X126281120Y17572900D02*
X128881120Y17572900D01*
X126281120Y20172900D02*
X126281120Y17572900D01*
X128881120Y14972900D02*
X121141120Y14972900D01*
X126281120Y20172900D02*
X121141120Y20172900D01*
X121141120Y20172900D02*
X121141120Y14972900D01*
D11*
X161173100Y32636620D02*
X130693100Y32636620D01*
X161173100Y32636620D02*
X161173100Y27556620D01*
X161173100Y27556620D02*
X163713100Y27556620D01*
X163713100Y27556620D02*
X163713100Y19936620D01*
X163713100Y19936620D02*
X161173100Y19936620D01*
X161173100Y19936620D02*
X161173100Y14856620D01*
X161173100Y14856620D02*
X130693100Y14856620D01*
X130693100Y14856620D02*
X130693100Y32636620D01*
X32916499Y15960434D02*
X32202213Y15960434D01*
X32059356Y16008053D01*
X31964118Y16103291D01*
X31916499Y16246148D01*
X31916499Y16341386D01*
X32916499Y15579481D02*
X32916499Y14960434D01*
X32535546Y15293767D01*
X32535546Y15150910D01*
X32487927Y15055672D01*
X32440308Y15008053D01*
X32345070Y14960434D01*
X32106975Y14960434D01*
X32011737Y15008053D01*
X31964118Y15055672D01*
X31916499Y15150910D01*
X31916499Y15436624D01*
X31964118Y15531862D01*
X32011737Y15579481D01*
X19775049Y15360661D02*
X19775049Y14360661D01*
X19394097Y14360661D01*
X19298859Y14408280D01*
X19251240Y14455900D01*
X19203620Y14551138D01*
X19203620Y14693995D01*
X19251240Y14789233D01*
X19298859Y14836852D01*
X19394097Y14884471D01*
X19775049Y14884471D01*
X18775049Y15360661D02*
X18775049Y14693995D01*
X18775049Y14884471D02*
X18727430Y14789233D01*
X18679811Y14741614D01*
X18584573Y14693995D01*
X18489335Y14693995D01*
X18013144Y15360661D02*
X18108382Y15313042D01*
X18156001Y15265423D01*
X18203620Y15170185D01*
X18203620Y14884471D01*
X18156001Y14789233D01*
X18108382Y14741614D01*
X18013144Y14693995D01*
X17870287Y14693995D01*
X17775049Y14741614D01*
X17727430Y14789233D01*
X17679811Y14884471D01*
X17679811Y15170185D01*
X17727430Y15265423D01*
X17775049Y15313042D01*
X17870287Y15360661D01*
X18013144Y15360661D01*
X17251240Y15360661D02*
X17251240Y14360661D01*
X16917906Y15074947D01*
X16584573Y14360661D01*
X16584573Y15360661D01*
X16108382Y15360661D02*
X16108382Y14693995D01*
X16108382Y14360661D02*
X16156001Y14408280D01*
X16108382Y14455900D01*
X16060763Y14408280D01*
X16108382Y14360661D01*
X16108382Y14455900D01*
X15203620Y15313042D02*
X15298859Y15360661D01*
X15489335Y15360661D01*
X15584573Y15313042D01*
X15632192Y15265423D01*
X15679811Y15170185D01*
X15679811Y14884471D01*
X15632192Y14789233D01*
X15584573Y14741614D01*
X15489335Y14693995D01*
X15298859Y14693995D01*
X15203620Y14741614D01*
X14775049Y15360661D02*
X14775049Y14693995D01*
X14775049Y14884471D02*
X14727430Y14789233D01*
X14679811Y14741614D01*
X14584573Y14693995D01*
X14489335Y14693995D01*
X14013144Y15360661D02*
X14108382Y15313042D01*
X14156001Y15265423D01*
X14203620Y15170185D01*
X14203620Y14884471D01*
X14156001Y14789233D01*
X14108382Y14741614D01*
X14013144Y14693995D01*
X13870287Y14693995D01*
X13775049Y14741614D01*
X13727430Y14789233D01*
X13679811Y14884471D01*
X13679811Y15170185D01*
X13727430Y15265423D01*
X13775049Y15313042D01*
X13870287Y15360661D01*
X14013144Y15360661D01*
X129333500Y17239567D02*
X130047786Y17239567D01*
X130190643Y17191948D01*
X130285881Y17096710D01*
X130333500Y16953853D01*
X130333500Y16858615D01*
X129333500Y17620520D02*
X129333500Y18239567D01*
X129714453Y17906234D01*
X129714453Y18049091D01*
X129762072Y18144329D01*
X129809691Y18191948D01*
X129904929Y18239567D01*
X130143024Y18239567D01*
X130238262Y18191948D01*
X130285881Y18144329D01*
X130333500Y18049091D01*
X130333500Y17763377D01*
X130285881Y17668139D01*
X130238262Y17620520D01*
X148522569Y18744101D02*
X148522569Y17744101D01*
X148141617Y17744101D01*
X148046379Y17791720D01*
X147998760Y17839340D01*
X147951140Y17934578D01*
X147951140Y18077435D01*
X147998760Y18172673D01*
X148046379Y18220292D01*
X148141617Y18267911D01*
X148522569Y18267911D01*
X147522569Y18744101D02*
X147522569Y18077435D01*
X147522569Y18267911D02*
X147474950Y18172673D01*
X147427331Y18125054D01*
X147332093Y18077435D01*
X147236855Y18077435D01*
X146760664Y18744101D02*
X146855902Y18696482D01*
X146903521Y18648863D01*
X146951140Y18553625D01*
X146951140Y18267911D01*
X146903521Y18172673D01*
X146855902Y18125054D01*
X146760664Y18077435D01*
X146617807Y18077435D01*
X146522569Y18125054D01*
X146474950Y18172673D01*
X146427331Y18267911D01*
X146427331Y18553625D01*
X146474950Y18648863D01*
X146522569Y18696482D01*
X146617807Y18744101D01*
X146760664Y18744101D01*
X145998760Y18744101D02*
X145998760Y17744101D01*
X145665426Y18458387D01*
X145332093Y17744101D01*
X145332093Y18744101D01*
X144855902Y18744101D02*
X144855902Y18077435D01*
X144855902Y17744101D02*
X144903521Y17791720D01*
X144855902Y17839340D01*
X144808283Y17791720D01*
X144855902Y17744101D01*
X144855902Y17839340D01*
X143951140Y18696482D02*
X144046379Y18744101D01*
X144236855Y18744101D01*
X144332093Y18696482D01*
X144379712Y18648863D01*
X144427331Y18553625D01*
X144427331Y18267911D01*
X144379712Y18172673D01*
X144332093Y18125054D01*
X144236855Y18077435D01*
X144046379Y18077435D01*
X143951140Y18125054D01*
X143522569Y18744101D02*
X143522569Y18077435D01*
X143522569Y18267911D02*
X143474950Y18172673D01*
X143427331Y18125054D01*
X143332093Y18077435D01*
X143236855Y18077435D01*
X142760664Y18744101D02*
X142855902Y18696482D01*
X142903521Y18648863D01*
X142951140Y18553625D01*
X142951140Y18267911D01*
X142903521Y18172673D01*
X142855902Y18125054D01*
X142760664Y18077435D01*
X142617807Y18077435D01*
X142522569Y18125054D01*
X142474950Y18172673D01*
X142427331Y18267911D01*
X142427331Y18553625D01*
X142474950Y18648863D01*
X142522569Y18696482D01*
X142617807Y18744101D01*
X142760664Y18744101D01*
M02*
