G04 #@! TF.GenerationSoftware,KiCad,Pcbnew,5.1.6+dfsg1-1~bpo10+1*
G04 #@! TF.CreationDate,2020-08-17T15:44:58+03:00*
G04 #@! TF.ProjectId,beam_p,6265616d-5f70-42e6-9b69-6361645f7063,0.0.3*
G04 #@! TF.SameCoordinates,PX6a55ae0PY872eef0*
G04 #@! TF.FileFunction,Profile,NP*
%FSLAX46Y46*%
G04 Gerber Fmt 4.6, Leading zero omitted, Abs format (unit mm)*
G04 Created by KiCad (PCBNEW 5.1.6+dfsg1-1~bpo10+1) date 2020-08-17 15:44:58*
%MOMM*%
%LPD*%
G01*
G04 APERTURE LIST*
G04 #@! TA.AperFunction,Profile*
%ADD10C,0.050000*%
G04 #@! TD*
G04 APERTURE END LIST*
D10*
X156250000Y14450000D02*
G75*
G02*
X156250000Y13250000I0J-600000D01*
G01*
X158050000Y13250000D02*
G75*
G02*
X158050000Y14450000I0J600000D01*
G01*
X161650000Y13250000D02*
G75*
G02*
X161650000Y14450000I0J600000D01*
G01*
X158050000Y14450000D02*
G75*
G02*
X158050000Y13250000I0J-600000D01*
G01*
X159850000Y14450000D02*
G75*
G02*
X159850000Y13250000I0J-600000D01*
G01*
X159850000Y13250000D02*
G75*
G02*
X159850000Y14450000I0J600000D01*
G01*
X6000000Y18750000D02*
G75*
G02*
X6000000Y19950000I0J600000D01*
G01*
X4200000Y18750000D02*
G75*
G02*
X4200000Y19950000I0J600000D01*
G01*
X2400000Y18750000D02*
G75*
G02*
X2400000Y19950000I0J600000D01*
G01*
X4200000Y19950000D02*
G75*
G02*
X4200000Y18750000I0J-600000D01*
G01*
X2400000Y19950000D02*
G75*
G02*
X2400000Y18750000I0J-600000D01*
G01*
X600000Y19950000D02*
G75*
G02*
X600000Y18750000I0J-600000D01*
G01*
X42350000Y13250000D02*
G75*
G02*
X41750000Y13850000I0J600000D01*
G01*
X41150000Y18750000D02*
G75*
G02*
X41750000Y18150000I0J-600000D01*
G01*
X0Y18150000D02*
G75*
G02*
X600000Y18750000I600000J0D01*
G01*
X600000Y0D02*
G75*
G02*
X0Y600000I0J600000D01*
G01*
X162250000Y600000D02*
G75*
G02*
X161650000Y0I-600000J0D01*
G01*
X161650000Y13250000D02*
G75*
G02*
X162250000Y12650000I0J-600000D01*
G01*
X41750000Y13850000D02*
X41750000Y18150000D01*
X6000000Y18750000D02*
X41150000Y18750000D01*
X0Y600000D02*
X0Y18150000D01*
X51000000Y0D02*
X600000Y0D01*
X132250000Y13250000D02*
X42350000Y13250000D01*
X156250000Y13250000D02*
X132250000Y13250000D01*
X162250000Y600000D02*
X162250000Y12650000D01*
X61500000Y0D02*
X161650000Y0D01*
X51000000Y0D02*
X61500000Y0D01*
X119900000Y19950000D02*
G75*
G02*
X120500000Y19350000I0J-600000D01*
G01*
X121100000Y14450000D02*
G75*
G02*
X120500000Y15050000I0J600000D01*
G01*
X162250000Y15050000D02*
G75*
G02*
X161650000Y14450000I-600000J0D01*
G01*
X161650000Y33200000D02*
G75*
G02*
X162250000Y32600000I0J-600000D01*
G01*
X0Y32600000D02*
G75*
G02*
X600000Y33200000I600000J0D01*
G01*
X600000Y19950000D02*
G75*
G02*
X0Y20550000I0J600000D01*
G01*
X120500000Y19350000D02*
X120500000Y15050000D01*
X156250000Y14450000D02*
X121100000Y14450000D01*
X162250000Y32600000D02*
X162250000Y15050000D01*
X111250000Y33200000D02*
X161650000Y33200000D01*
X30000000Y19950000D02*
X119900000Y19950000D01*
X6000000Y19950000D02*
X30000000Y19950000D01*
X0Y32600000D02*
X0Y20550000D01*
X100750000Y33200000D02*
X600000Y33200000D01*
X111250000Y33200000D02*
X100750000Y33200000D01*
M02*
