G04 #@! TF.GenerationSoftware,KiCad,Pcbnew,5.1.6+dfsg1-1~bpo10+1*
G04 #@! TF.CreationDate,2020-08-18T06:39:38+03:00*
G04 #@! TF.ProjectId,beam_p,6265616d-5f70-42e6-9b69-6361645f7063,0.0.3*
G04 #@! TF.SameCoordinates,PX6a55ae0PY872eef0*
G04 #@! TF.FileFunction,Soldermask,Top*
G04 #@! TF.FilePolarity,Negative*
%FSLAX46Y46*%
G04 Gerber Fmt 4.6, Leading zero omitted, Abs format (unit mm)*
G04 Created by KiCad (PCBNEW 5.1.6+dfsg1-1~bpo10+1) date 2020-08-18 06:39:38*
%MOMM*%
%LPD*%
G01*
G04 APERTURE LIST*
%ADD10C,0.100000*%
G04 APERTURE END LIST*
D10*
G36*
X160852352Y3341204D02*
G01*
X160852355Y3341203D01*
X160852354Y3341203D01*
X161134580Y3224301D01*
X161388578Y3054585D01*
X161604585Y2838578D01*
X161774301Y2584580D01*
X161774301Y2584579D01*
X161891204Y2302352D01*
X161950800Y2002741D01*
X161950800Y1697259D01*
X161891204Y1397648D01*
X161891203Y1397646D01*
X161774301Y1115420D01*
X161604585Y861422D01*
X161388578Y645415D01*
X161134580Y475699D01*
X160935014Y393036D01*
X160852352Y358796D01*
X160552741Y299200D01*
X160247259Y299200D01*
X159947648Y358796D01*
X159864986Y393036D01*
X159665420Y475699D01*
X159411422Y645415D01*
X159195415Y861422D01*
X159025699Y1115420D01*
X158908797Y1397646D01*
X158908796Y1397648D01*
X158849200Y1697259D01*
X158849200Y2002741D01*
X158908796Y2302352D01*
X159025699Y2584579D01*
X159025699Y2584580D01*
X159195415Y2838578D01*
X159411422Y3054585D01*
X159665420Y3224301D01*
X159947646Y3341203D01*
X159947645Y3341203D01*
X159947648Y3341204D01*
X160247259Y3400800D01*
X160552741Y3400800D01*
X160852352Y3341204D01*
G37*
G36*
X156961183Y2196177D02*
G01*
X157092943Y2141600D01*
X157211523Y2062367D01*
X157312367Y1961523D01*
X157391600Y1842943D01*
X157446177Y1711183D01*
X157474000Y1571308D01*
X157474000Y1428692D01*
X157446177Y1288817D01*
X157391600Y1157057D01*
X157312367Y1038477D01*
X157211523Y937633D01*
X157092943Y858400D01*
X156961183Y803823D01*
X156821308Y776000D01*
X156678692Y776000D01*
X156538817Y803823D01*
X156407057Y858400D01*
X156288477Y937633D01*
X156187633Y1038477D01*
X156108400Y1157057D01*
X156053823Y1288817D01*
X156026000Y1428692D01*
X156026000Y1571308D01*
X156053823Y1711183D01*
X156108400Y1842943D01*
X156187633Y1961523D01*
X156288477Y2062367D01*
X156407057Y2141600D01*
X156538817Y2196177D01*
X156678692Y2224000D01*
X156821308Y2224000D01*
X156961183Y2196177D01*
G37*
G36*
X30535069Y2651485D02*
G01*
X30689905Y2587349D01*
X30829254Y2494240D01*
X30947760Y2375734D01*
X31040869Y2236385D01*
X31105005Y2081549D01*
X31137700Y1917177D01*
X31137700Y1749583D01*
X31105005Y1585211D01*
X31040869Y1430375D01*
X30947760Y1291026D01*
X30829254Y1172520D01*
X30689905Y1079411D01*
X30535069Y1015275D01*
X30370697Y982580D01*
X30203103Y982580D01*
X30038731Y1015275D01*
X29883895Y1079411D01*
X29744546Y1172520D01*
X29626040Y1291026D01*
X29532931Y1430375D01*
X29468795Y1585211D01*
X29436100Y1749583D01*
X29436100Y1917177D01*
X29468795Y2081549D01*
X29532931Y2236385D01*
X29626040Y2375734D01*
X29744546Y2494240D01*
X29883895Y2587349D01*
X30038731Y2651485D01*
X30203103Y2684180D01*
X30370697Y2684180D01*
X30535069Y2651485D01*
G37*
G36*
X3197700Y982580D02*
G01*
X1496100Y982580D01*
X1496100Y2684180D01*
X3197700Y2684180D01*
X3197700Y982580D01*
G37*
G36*
X5135069Y2651485D02*
G01*
X5289905Y2587349D01*
X5429254Y2494240D01*
X5547760Y2375734D01*
X5640869Y2236385D01*
X5705005Y2081549D01*
X5737700Y1917177D01*
X5737700Y1749583D01*
X5705005Y1585211D01*
X5640869Y1430375D01*
X5547760Y1291026D01*
X5429254Y1172520D01*
X5289905Y1079411D01*
X5135069Y1015275D01*
X4970697Y982580D01*
X4803103Y982580D01*
X4638731Y1015275D01*
X4483895Y1079411D01*
X4344546Y1172520D01*
X4226040Y1291026D01*
X4132931Y1430375D01*
X4068795Y1585211D01*
X4036100Y1749583D01*
X4036100Y1917177D01*
X4068795Y2081549D01*
X4132931Y2236385D01*
X4226040Y2375734D01*
X4344546Y2494240D01*
X4483895Y2587349D01*
X4638731Y2651485D01*
X4803103Y2684180D01*
X4970697Y2684180D01*
X5135069Y2651485D01*
G37*
G36*
X7675069Y2651485D02*
G01*
X7829905Y2587349D01*
X7969254Y2494240D01*
X8087760Y2375734D01*
X8180869Y2236385D01*
X8245005Y2081549D01*
X8277700Y1917177D01*
X8277700Y1749583D01*
X8245005Y1585211D01*
X8180869Y1430375D01*
X8087760Y1291026D01*
X7969254Y1172520D01*
X7829905Y1079411D01*
X7675069Y1015275D01*
X7510697Y982580D01*
X7343103Y982580D01*
X7178731Y1015275D01*
X7023895Y1079411D01*
X6884546Y1172520D01*
X6766040Y1291026D01*
X6672931Y1430375D01*
X6608795Y1585211D01*
X6576100Y1749583D01*
X6576100Y1917177D01*
X6608795Y2081549D01*
X6672931Y2236385D01*
X6766040Y2375734D01*
X6884546Y2494240D01*
X7023895Y2587349D01*
X7178731Y2651485D01*
X7343103Y2684180D01*
X7510697Y2684180D01*
X7675069Y2651485D01*
G37*
G36*
X10215069Y2651485D02*
G01*
X10369905Y2587349D01*
X10509254Y2494240D01*
X10627760Y2375734D01*
X10720869Y2236385D01*
X10785005Y2081549D01*
X10817700Y1917177D01*
X10817700Y1749583D01*
X10785005Y1585211D01*
X10720869Y1430375D01*
X10627760Y1291026D01*
X10509254Y1172520D01*
X10369905Y1079411D01*
X10215069Y1015275D01*
X10050697Y982580D01*
X9883103Y982580D01*
X9718731Y1015275D01*
X9563895Y1079411D01*
X9424546Y1172520D01*
X9306040Y1291026D01*
X9212931Y1430375D01*
X9148795Y1585211D01*
X9116100Y1749583D01*
X9116100Y1917177D01*
X9148795Y2081549D01*
X9212931Y2236385D01*
X9306040Y2375734D01*
X9424546Y2494240D01*
X9563895Y2587349D01*
X9718731Y2651485D01*
X9883103Y2684180D01*
X10050697Y2684180D01*
X10215069Y2651485D01*
G37*
G36*
X12755069Y2651485D02*
G01*
X12909905Y2587349D01*
X13049254Y2494240D01*
X13167760Y2375734D01*
X13260869Y2236385D01*
X13325005Y2081549D01*
X13357700Y1917177D01*
X13357700Y1749583D01*
X13325005Y1585211D01*
X13260869Y1430375D01*
X13167760Y1291026D01*
X13049254Y1172520D01*
X12909905Y1079411D01*
X12755069Y1015275D01*
X12590697Y982580D01*
X12423103Y982580D01*
X12258731Y1015275D01*
X12103895Y1079411D01*
X11964546Y1172520D01*
X11846040Y1291026D01*
X11752931Y1430375D01*
X11688795Y1585211D01*
X11656100Y1749583D01*
X11656100Y1917177D01*
X11688795Y2081549D01*
X11752931Y2236385D01*
X11846040Y2375734D01*
X11964546Y2494240D01*
X12103895Y2587349D01*
X12258731Y2651485D01*
X12423103Y2684180D01*
X12590697Y2684180D01*
X12755069Y2651485D01*
G37*
G36*
X15295069Y2651485D02*
G01*
X15449905Y2587349D01*
X15589254Y2494240D01*
X15707760Y2375734D01*
X15800869Y2236385D01*
X15865005Y2081549D01*
X15897700Y1917177D01*
X15897700Y1749583D01*
X15865005Y1585211D01*
X15800869Y1430375D01*
X15707760Y1291026D01*
X15589254Y1172520D01*
X15449905Y1079411D01*
X15295069Y1015275D01*
X15130697Y982580D01*
X14963103Y982580D01*
X14798731Y1015275D01*
X14643895Y1079411D01*
X14504546Y1172520D01*
X14386040Y1291026D01*
X14292931Y1430375D01*
X14228795Y1585211D01*
X14196100Y1749583D01*
X14196100Y1917177D01*
X14228795Y2081549D01*
X14292931Y2236385D01*
X14386040Y2375734D01*
X14504546Y2494240D01*
X14643895Y2587349D01*
X14798731Y2651485D01*
X14963103Y2684180D01*
X15130697Y2684180D01*
X15295069Y2651485D01*
G37*
G36*
X17835069Y2651485D02*
G01*
X17989905Y2587349D01*
X18129254Y2494240D01*
X18247760Y2375734D01*
X18340869Y2236385D01*
X18405005Y2081549D01*
X18437700Y1917177D01*
X18437700Y1749583D01*
X18405005Y1585211D01*
X18340869Y1430375D01*
X18247760Y1291026D01*
X18129254Y1172520D01*
X17989905Y1079411D01*
X17835069Y1015275D01*
X17670697Y982580D01*
X17503103Y982580D01*
X17338731Y1015275D01*
X17183895Y1079411D01*
X17044546Y1172520D01*
X16926040Y1291026D01*
X16832931Y1430375D01*
X16768795Y1585211D01*
X16736100Y1749583D01*
X16736100Y1917177D01*
X16768795Y2081549D01*
X16832931Y2236385D01*
X16926040Y2375734D01*
X17044546Y2494240D01*
X17183895Y2587349D01*
X17338731Y2651485D01*
X17503103Y2684180D01*
X17670697Y2684180D01*
X17835069Y2651485D01*
G37*
G36*
X20375069Y2651485D02*
G01*
X20529905Y2587349D01*
X20669254Y2494240D01*
X20787760Y2375734D01*
X20880869Y2236385D01*
X20945005Y2081549D01*
X20977700Y1917177D01*
X20977700Y1749583D01*
X20945005Y1585211D01*
X20880869Y1430375D01*
X20787760Y1291026D01*
X20669254Y1172520D01*
X20529905Y1079411D01*
X20375069Y1015275D01*
X20210697Y982580D01*
X20043103Y982580D01*
X19878731Y1015275D01*
X19723895Y1079411D01*
X19584546Y1172520D01*
X19466040Y1291026D01*
X19372931Y1430375D01*
X19308795Y1585211D01*
X19276100Y1749583D01*
X19276100Y1917177D01*
X19308795Y2081549D01*
X19372931Y2236385D01*
X19466040Y2375734D01*
X19584546Y2494240D01*
X19723895Y2587349D01*
X19878731Y2651485D01*
X20043103Y2684180D01*
X20210697Y2684180D01*
X20375069Y2651485D01*
G37*
G36*
X22915069Y2651485D02*
G01*
X23069905Y2587349D01*
X23209254Y2494240D01*
X23327760Y2375734D01*
X23420869Y2236385D01*
X23485005Y2081549D01*
X23517700Y1917177D01*
X23517700Y1749583D01*
X23485005Y1585211D01*
X23420869Y1430375D01*
X23327760Y1291026D01*
X23209254Y1172520D01*
X23069905Y1079411D01*
X22915069Y1015275D01*
X22750697Y982580D01*
X22583103Y982580D01*
X22418731Y1015275D01*
X22263895Y1079411D01*
X22124546Y1172520D01*
X22006040Y1291026D01*
X21912931Y1430375D01*
X21848795Y1585211D01*
X21816100Y1749583D01*
X21816100Y1917177D01*
X21848795Y2081549D01*
X21912931Y2236385D01*
X22006040Y2375734D01*
X22124546Y2494240D01*
X22263895Y2587349D01*
X22418731Y2651485D01*
X22583103Y2684180D01*
X22750697Y2684180D01*
X22915069Y2651485D01*
G37*
G36*
X25455069Y2651485D02*
G01*
X25609905Y2587349D01*
X25749254Y2494240D01*
X25867760Y2375734D01*
X25960869Y2236385D01*
X26025005Y2081549D01*
X26057700Y1917177D01*
X26057700Y1749583D01*
X26025005Y1585211D01*
X25960869Y1430375D01*
X25867760Y1291026D01*
X25749254Y1172520D01*
X25609905Y1079411D01*
X25455069Y1015275D01*
X25290697Y982580D01*
X25123103Y982580D01*
X24958731Y1015275D01*
X24803895Y1079411D01*
X24664546Y1172520D01*
X24546040Y1291026D01*
X24452931Y1430375D01*
X24388795Y1585211D01*
X24356100Y1749583D01*
X24356100Y1917177D01*
X24388795Y2081549D01*
X24452931Y2236385D01*
X24546040Y2375734D01*
X24664546Y2494240D01*
X24803895Y2587349D01*
X24958731Y2651485D01*
X25123103Y2684180D01*
X25290697Y2684180D01*
X25455069Y2651485D01*
G37*
G36*
X27995069Y2651485D02*
G01*
X28149905Y2587349D01*
X28289254Y2494240D01*
X28407760Y2375734D01*
X28500869Y2236385D01*
X28565005Y2081549D01*
X28597700Y1917177D01*
X28597700Y1749583D01*
X28565005Y1585211D01*
X28500869Y1430375D01*
X28407760Y1291026D01*
X28289254Y1172520D01*
X28149905Y1079411D01*
X27995069Y1015275D01*
X27830697Y982580D01*
X27663103Y982580D01*
X27498731Y1015275D01*
X27343895Y1079411D01*
X27204546Y1172520D01*
X27086040Y1291026D01*
X26992931Y1430375D01*
X26928795Y1585211D01*
X26896100Y1749583D01*
X26896100Y1917177D01*
X26928795Y2081549D01*
X26992931Y2236385D01*
X27086040Y2375734D01*
X27204546Y2494240D01*
X27343895Y2587349D01*
X27498731Y2651485D01*
X27663103Y2684180D01*
X27830697Y2684180D01*
X27995069Y2651485D01*
G37*
G36*
X2211183Y4696177D02*
G01*
X2342943Y4641600D01*
X2461523Y4562367D01*
X2562367Y4461523D01*
X2641600Y4342943D01*
X2696177Y4211183D01*
X2724000Y4071308D01*
X2724000Y3928692D01*
X2696177Y3788817D01*
X2641600Y3657057D01*
X2562367Y3538477D01*
X2461523Y3437633D01*
X2342943Y3358400D01*
X2211183Y3303823D01*
X2071308Y3276000D01*
X1928692Y3276000D01*
X1788817Y3303823D01*
X1657057Y3358400D01*
X1538477Y3437633D01*
X1437633Y3538477D01*
X1358400Y3657057D01*
X1303823Y3788817D01*
X1276000Y3928692D01*
X1276000Y4071308D01*
X1303823Y4211183D01*
X1358400Y4342943D01*
X1437633Y4461523D01*
X1538477Y4562367D01*
X1657057Y4641600D01*
X1788817Y4696177D01*
X1928692Y4724000D01*
X2071308Y4724000D01*
X2211183Y4696177D01*
G37*
G36*
X36178544Y11838472D02*
G01*
X36334212Y11791250D01*
X36477670Y11714569D01*
X36603414Y11611374D01*
X36706609Y11485630D01*
X36783290Y11342172D01*
X36830512Y11186504D01*
X36846455Y11024620D01*
X36830512Y10862736D01*
X36783290Y10707068D01*
X36706609Y10563610D01*
X36603414Y10437866D01*
X36477670Y10334671D01*
X36334212Y10257990D01*
X36178544Y10210768D01*
X36057227Y10198820D01*
X34106093Y10198820D01*
X33984776Y10210768D01*
X33829108Y10257990D01*
X33685650Y10334671D01*
X33559906Y10437866D01*
X33456711Y10563610D01*
X33380030Y10707068D01*
X33332808Y10862736D01*
X33316865Y11024620D01*
X33332808Y11186504D01*
X33380030Y11342172D01*
X33456711Y11485630D01*
X33559906Y11611374D01*
X33685650Y11714569D01*
X33829108Y11791250D01*
X33984776Y11838472D01*
X34106093Y11850420D01*
X36057227Y11850420D01*
X36178544Y11838472D01*
G37*
G36*
X40138544Y11838472D02*
G01*
X40294212Y11791250D01*
X40437670Y11714569D01*
X40563414Y11611374D01*
X40666609Y11485630D01*
X40743290Y11342172D01*
X40790512Y11186504D01*
X40806455Y11024620D01*
X40790512Y10862736D01*
X40743290Y10707068D01*
X40666609Y10563610D01*
X40563414Y10437866D01*
X40437670Y10334671D01*
X40294212Y10257990D01*
X40138544Y10210768D01*
X40017227Y10198820D01*
X38066093Y10198820D01*
X37944776Y10210768D01*
X37789108Y10257990D01*
X37645650Y10334671D01*
X37519906Y10437866D01*
X37416711Y10563610D01*
X37340030Y10707068D01*
X37292808Y10862736D01*
X37276865Y11024620D01*
X37292808Y11186504D01*
X37340030Y11342172D01*
X37416711Y11485630D01*
X37519906Y11611374D01*
X37645650Y11714569D01*
X37789108Y11791250D01*
X37944776Y11838472D01*
X38066093Y11850420D01*
X40017227Y11850420D01*
X40138544Y11838472D01*
G37*
G36*
X48058544Y11838472D02*
G01*
X48214212Y11791250D01*
X48357670Y11714569D01*
X48483414Y11611374D01*
X48586609Y11485630D01*
X48663290Y11342172D01*
X48710512Y11186504D01*
X48726455Y11024620D01*
X48710512Y10862736D01*
X48663290Y10707068D01*
X48586609Y10563610D01*
X48483414Y10437866D01*
X48357670Y10334671D01*
X48214212Y10257990D01*
X48058544Y10210768D01*
X47937227Y10198820D01*
X45986093Y10198820D01*
X45864776Y10210768D01*
X45709108Y10257990D01*
X45565650Y10334671D01*
X45439906Y10437866D01*
X45336711Y10563610D01*
X45260030Y10707068D01*
X45212808Y10862736D01*
X45196865Y11024620D01*
X45212808Y11186504D01*
X45260030Y11342172D01*
X45336711Y11485630D01*
X45439906Y11611374D01*
X45565650Y11714569D01*
X45709108Y11791250D01*
X45864776Y11838472D01*
X45986093Y11850420D01*
X47937227Y11850420D01*
X48058544Y11838472D01*
G37*
G36*
X52018544Y11838472D02*
G01*
X52174212Y11791250D01*
X52317670Y11714569D01*
X52443414Y11611374D01*
X52546609Y11485630D01*
X52623290Y11342172D01*
X52670512Y11186504D01*
X52686455Y11024620D01*
X52670512Y10862736D01*
X52623290Y10707068D01*
X52546609Y10563610D01*
X52443414Y10437866D01*
X52317670Y10334671D01*
X52174212Y10257990D01*
X52018544Y10210768D01*
X51897227Y10198820D01*
X49946093Y10198820D01*
X49824776Y10210768D01*
X49669108Y10257990D01*
X49525650Y10334671D01*
X49399906Y10437866D01*
X49296711Y10563610D01*
X49220030Y10707068D01*
X49172808Y10862736D01*
X49156865Y11024620D01*
X49172808Y11186504D01*
X49220030Y11342172D01*
X49296711Y11485630D01*
X49399906Y11611374D01*
X49525650Y11714569D01*
X49669108Y11791250D01*
X49824776Y11838472D01*
X49946093Y11850420D01*
X51897227Y11850420D01*
X52018544Y11838472D01*
G37*
G36*
X55978544Y11838472D02*
G01*
X56134212Y11791250D01*
X56277670Y11714569D01*
X56403414Y11611374D01*
X56506609Y11485630D01*
X56583290Y11342172D01*
X56630512Y11186504D01*
X56646455Y11024620D01*
X56630512Y10862736D01*
X56583290Y10707068D01*
X56506609Y10563610D01*
X56403414Y10437866D01*
X56277670Y10334671D01*
X56134212Y10257990D01*
X55978544Y10210768D01*
X55857227Y10198820D01*
X53906093Y10198820D01*
X53784776Y10210768D01*
X53629108Y10257990D01*
X53485650Y10334671D01*
X53359906Y10437866D01*
X53256711Y10563610D01*
X53180030Y10707068D01*
X53132808Y10862736D01*
X53116865Y11024620D01*
X53132808Y11186504D01*
X53180030Y11342172D01*
X53256711Y11485630D01*
X53359906Y11611374D01*
X53485650Y11714569D01*
X53629108Y11791250D01*
X53784776Y11838472D01*
X53906093Y11850420D01*
X55857227Y11850420D01*
X55978544Y11838472D01*
G37*
G36*
X59938544Y11838472D02*
G01*
X60094212Y11791250D01*
X60237670Y11714569D01*
X60363414Y11611374D01*
X60466609Y11485630D01*
X60543290Y11342172D01*
X60590512Y11186504D01*
X60606455Y11024620D01*
X60590512Y10862736D01*
X60543290Y10707068D01*
X60466609Y10563610D01*
X60363414Y10437866D01*
X60237670Y10334671D01*
X60094212Y10257990D01*
X59938544Y10210768D01*
X59817227Y10198820D01*
X57866093Y10198820D01*
X57744776Y10210768D01*
X57589108Y10257990D01*
X57445650Y10334671D01*
X57319906Y10437866D01*
X57216711Y10563610D01*
X57140030Y10707068D01*
X57092808Y10862736D01*
X57076865Y11024620D01*
X57092808Y11186504D01*
X57140030Y11342172D01*
X57216711Y11485630D01*
X57319906Y11611374D01*
X57445650Y11714569D01*
X57589108Y11791250D01*
X57744776Y11838472D01*
X57866093Y11850420D01*
X59817227Y11850420D01*
X59938544Y11838472D01*
G37*
G36*
X99538544Y11838472D02*
G01*
X99694212Y11791250D01*
X99837670Y11714569D01*
X99963414Y11611374D01*
X100066609Y11485630D01*
X100143290Y11342172D01*
X100190512Y11186504D01*
X100206455Y11024620D01*
X100190512Y10862736D01*
X100143290Y10707068D01*
X100066609Y10563610D01*
X99963414Y10437866D01*
X99837670Y10334671D01*
X99694212Y10257990D01*
X99538544Y10210768D01*
X99417227Y10198820D01*
X97466093Y10198820D01*
X97344776Y10210768D01*
X97189108Y10257990D01*
X97045650Y10334671D01*
X96919906Y10437866D01*
X96816711Y10563610D01*
X96740030Y10707068D01*
X96692808Y10862736D01*
X96676865Y11024620D01*
X96692808Y11186504D01*
X96740030Y11342172D01*
X96816711Y11485630D01*
X96919906Y11611374D01*
X97045650Y11714569D01*
X97189108Y11791250D01*
X97344776Y11838472D01*
X97466093Y11850420D01*
X99417227Y11850420D01*
X99538544Y11838472D01*
G37*
G36*
X67858544Y11838472D02*
G01*
X68014212Y11791250D01*
X68157670Y11714569D01*
X68283414Y11611374D01*
X68386609Y11485630D01*
X68463290Y11342172D01*
X68510512Y11186504D01*
X68526455Y11024620D01*
X68510512Y10862736D01*
X68463290Y10707068D01*
X68386609Y10563610D01*
X68283414Y10437866D01*
X68157670Y10334671D01*
X68014212Y10257990D01*
X67858544Y10210768D01*
X67737227Y10198820D01*
X65786093Y10198820D01*
X65664776Y10210768D01*
X65509108Y10257990D01*
X65365650Y10334671D01*
X65239906Y10437866D01*
X65136711Y10563610D01*
X65060030Y10707068D01*
X65012808Y10862736D01*
X64996865Y11024620D01*
X65012808Y11186504D01*
X65060030Y11342172D01*
X65136711Y11485630D01*
X65239906Y11611374D01*
X65365650Y11714569D01*
X65509108Y11791250D01*
X65664776Y11838472D01*
X65786093Y11850420D01*
X67737227Y11850420D01*
X67858544Y11838472D01*
G37*
G36*
X71818544Y11838472D02*
G01*
X71974212Y11791250D01*
X72117670Y11714569D01*
X72243414Y11611374D01*
X72346609Y11485630D01*
X72423290Y11342172D01*
X72470512Y11186504D01*
X72486455Y11024620D01*
X72470512Y10862736D01*
X72423290Y10707068D01*
X72346609Y10563610D01*
X72243414Y10437866D01*
X72117670Y10334671D01*
X71974212Y10257990D01*
X71818544Y10210768D01*
X71697227Y10198820D01*
X69746093Y10198820D01*
X69624776Y10210768D01*
X69469108Y10257990D01*
X69325650Y10334671D01*
X69199906Y10437866D01*
X69096711Y10563610D01*
X69020030Y10707068D01*
X68972808Y10862736D01*
X68956865Y11024620D01*
X68972808Y11186504D01*
X69020030Y11342172D01*
X69096711Y11485630D01*
X69199906Y11611374D01*
X69325650Y11714569D01*
X69469108Y11791250D01*
X69624776Y11838472D01*
X69746093Y11850420D01*
X71697227Y11850420D01*
X71818544Y11838472D01*
G37*
G36*
X75778544Y11838472D02*
G01*
X75934212Y11791250D01*
X76077670Y11714569D01*
X76203414Y11611374D01*
X76306609Y11485630D01*
X76383290Y11342172D01*
X76430512Y11186504D01*
X76446455Y11024620D01*
X76430512Y10862736D01*
X76383290Y10707068D01*
X76306609Y10563610D01*
X76203414Y10437866D01*
X76077670Y10334671D01*
X75934212Y10257990D01*
X75778544Y10210768D01*
X75657227Y10198820D01*
X73706093Y10198820D01*
X73584776Y10210768D01*
X73429108Y10257990D01*
X73285650Y10334671D01*
X73159906Y10437866D01*
X73056711Y10563610D01*
X72980030Y10707068D01*
X72932808Y10862736D01*
X72916865Y11024620D01*
X72932808Y11186504D01*
X72980030Y11342172D01*
X73056711Y11485630D01*
X73159906Y11611374D01*
X73285650Y11714569D01*
X73429108Y11791250D01*
X73584776Y11838472D01*
X73706093Y11850420D01*
X75657227Y11850420D01*
X75778544Y11838472D01*
G37*
G36*
X79738544Y11838472D02*
G01*
X79894212Y11791250D01*
X80037670Y11714569D01*
X80163414Y11611374D01*
X80266609Y11485630D01*
X80343290Y11342172D01*
X80390512Y11186504D01*
X80406455Y11024620D01*
X80390512Y10862736D01*
X80343290Y10707068D01*
X80266609Y10563610D01*
X80163414Y10437866D01*
X80037670Y10334671D01*
X79894212Y10257990D01*
X79738544Y10210768D01*
X79617227Y10198820D01*
X77666093Y10198820D01*
X77544776Y10210768D01*
X77389108Y10257990D01*
X77245650Y10334671D01*
X77119906Y10437866D01*
X77016711Y10563610D01*
X76940030Y10707068D01*
X76892808Y10862736D01*
X76876865Y11024620D01*
X76892808Y11186504D01*
X76940030Y11342172D01*
X77016711Y11485630D01*
X77119906Y11611374D01*
X77245650Y11714569D01*
X77389108Y11791250D01*
X77544776Y11838472D01*
X77666093Y11850420D01*
X79617227Y11850420D01*
X79738544Y11838472D01*
G37*
G36*
X83698544Y11838472D02*
G01*
X83854212Y11791250D01*
X83997670Y11714569D01*
X84123414Y11611374D01*
X84226609Y11485630D01*
X84303290Y11342172D01*
X84350512Y11186504D01*
X84366455Y11024620D01*
X84350512Y10862736D01*
X84303290Y10707068D01*
X84226609Y10563610D01*
X84123414Y10437866D01*
X83997670Y10334671D01*
X83854212Y10257990D01*
X83698544Y10210768D01*
X83577227Y10198820D01*
X81626093Y10198820D01*
X81504776Y10210768D01*
X81349108Y10257990D01*
X81205650Y10334671D01*
X81079906Y10437866D01*
X80976711Y10563610D01*
X80900030Y10707068D01*
X80852808Y10862736D01*
X80836865Y11024620D01*
X80852808Y11186504D01*
X80900030Y11342172D01*
X80976711Y11485630D01*
X81079906Y11611374D01*
X81205650Y11714569D01*
X81349108Y11791250D01*
X81504776Y11838472D01*
X81626093Y11850420D01*
X83577227Y11850420D01*
X83698544Y11838472D01*
G37*
G36*
X87658544Y11838472D02*
G01*
X87814212Y11791250D01*
X87957670Y11714569D01*
X88083414Y11611374D01*
X88186609Y11485630D01*
X88263290Y11342172D01*
X88310512Y11186504D01*
X88326455Y11024620D01*
X88310512Y10862736D01*
X88263290Y10707068D01*
X88186609Y10563610D01*
X88083414Y10437866D01*
X87957670Y10334671D01*
X87814212Y10257990D01*
X87658544Y10210768D01*
X87537227Y10198820D01*
X85586093Y10198820D01*
X85464776Y10210768D01*
X85309108Y10257990D01*
X85165650Y10334671D01*
X85039906Y10437866D01*
X84936711Y10563610D01*
X84860030Y10707068D01*
X84812808Y10862736D01*
X84796865Y11024620D01*
X84812808Y11186504D01*
X84860030Y11342172D01*
X84936711Y11485630D01*
X85039906Y11611374D01*
X85165650Y11714569D01*
X85309108Y11791250D01*
X85464776Y11838472D01*
X85586093Y11850420D01*
X87537227Y11850420D01*
X87658544Y11838472D01*
G37*
G36*
X95578544Y11838472D02*
G01*
X95734212Y11791250D01*
X95877670Y11714569D01*
X96003414Y11611374D01*
X96106609Y11485630D01*
X96183290Y11342172D01*
X96230512Y11186504D01*
X96246455Y11024620D01*
X96230512Y10862736D01*
X96183290Y10707068D01*
X96106609Y10563610D01*
X96003414Y10437866D01*
X95877670Y10334671D01*
X95734212Y10257990D01*
X95578544Y10210768D01*
X95457227Y10198820D01*
X93506093Y10198820D01*
X93384776Y10210768D01*
X93229108Y10257990D01*
X93085650Y10334671D01*
X92959906Y10437866D01*
X92856711Y10563610D01*
X92780030Y10707068D01*
X92732808Y10862736D01*
X92716865Y11024620D01*
X92732808Y11186504D01*
X92780030Y11342172D01*
X92856711Y11485630D01*
X92959906Y11611374D01*
X93085650Y11714569D01*
X93229108Y11791250D01*
X93384776Y11838472D01*
X93506093Y11850420D01*
X95457227Y11850420D01*
X95578544Y11838472D01*
G37*
G36*
X44098544Y11838472D02*
G01*
X44254212Y11791250D01*
X44397670Y11714569D01*
X44523414Y11611374D01*
X44626609Y11485630D01*
X44703290Y11342172D01*
X44750512Y11186504D01*
X44766455Y11024620D01*
X44750512Y10862736D01*
X44703290Y10707068D01*
X44626609Y10563610D01*
X44523414Y10437866D01*
X44397670Y10334671D01*
X44254212Y10257990D01*
X44098544Y10210768D01*
X43977227Y10198820D01*
X42026093Y10198820D01*
X41904776Y10210768D01*
X41749108Y10257990D01*
X41605650Y10334671D01*
X41479906Y10437866D01*
X41376711Y10563610D01*
X41300030Y10707068D01*
X41252808Y10862736D01*
X41236865Y11024620D01*
X41252808Y11186504D01*
X41300030Y11342172D01*
X41376711Y11485630D01*
X41479906Y11611374D01*
X41605650Y11714569D01*
X41749108Y11791250D01*
X41904776Y11838472D01*
X42026093Y11850420D01*
X43977227Y11850420D01*
X44098544Y11838472D01*
G37*
G36*
X91618544Y11838472D02*
G01*
X91774212Y11791250D01*
X91917670Y11714569D01*
X92043414Y11611374D01*
X92146609Y11485630D01*
X92223290Y11342172D01*
X92270512Y11186504D01*
X92286455Y11024620D01*
X92270512Y10862736D01*
X92223290Y10707068D01*
X92146609Y10563610D01*
X92043414Y10437866D01*
X91917670Y10334671D01*
X91774212Y10257990D01*
X91618544Y10210768D01*
X91497227Y10198820D01*
X89546093Y10198820D01*
X89424776Y10210768D01*
X89269108Y10257990D01*
X89125650Y10334671D01*
X88999906Y10437866D01*
X88896711Y10563610D01*
X88820030Y10707068D01*
X88772808Y10862736D01*
X88756865Y11024620D01*
X88772808Y11186504D01*
X88820030Y11342172D01*
X88896711Y11485630D01*
X88999906Y11611374D01*
X89125650Y11714569D01*
X89269108Y11791250D01*
X89424776Y11838472D01*
X89546093Y11850420D01*
X91497227Y11850420D01*
X91618544Y11838472D01*
G37*
G36*
X103498544Y11838472D02*
G01*
X103654212Y11791250D01*
X103797670Y11714569D01*
X103923414Y11611374D01*
X104026609Y11485630D01*
X104103290Y11342172D01*
X104150512Y11186504D01*
X104166455Y11024620D01*
X104150512Y10862736D01*
X104103290Y10707068D01*
X104026609Y10563610D01*
X103923414Y10437866D01*
X103797670Y10334671D01*
X103654212Y10257990D01*
X103498544Y10210768D01*
X103377227Y10198820D01*
X101426093Y10198820D01*
X101304776Y10210768D01*
X101149108Y10257990D01*
X101005650Y10334671D01*
X100879906Y10437866D01*
X100776711Y10563610D01*
X100700030Y10707068D01*
X100652808Y10862736D01*
X100636865Y11024620D01*
X100652808Y11186504D01*
X100700030Y11342172D01*
X100776711Y11485630D01*
X100879906Y11611374D01*
X101005650Y11714569D01*
X101149108Y11791250D01*
X101304776Y11838472D01*
X101426093Y11850420D01*
X103377227Y11850420D01*
X103498544Y11838472D01*
G37*
G36*
X151018544Y11838472D02*
G01*
X151174212Y11791250D01*
X151317670Y11714569D01*
X151443414Y11611374D01*
X151546609Y11485630D01*
X151623290Y11342172D01*
X151670512Y11186504D01*
X151686455Y11024620D01*
X151670512Y10862736D01*
X151623290Y10707068D01*
X151546609Y10563610D01*
X151443414Y10437866D01*
X151317670Y10334671D01*
X151174212Y10257990D01*
X151018544Y10210768D01*
X150897227Y10198820D01*
X148946093Y10198820D01*
X148824776Y10210768D01*
X148669108Y10257990D01*
X148525650Y10334671D01*
X148399906Y10437866D01*
X148296711Y10563610D01*
X148220030Y10707068D01*
X148172808Y10862736D01*
X148156865Y11024620D01*
X148172808Y11186504D01*
X148220030Y11342172D01*
X148296711Y11485630D01*
X148399906Y11611374D01*
X148525650Y11714569D01*
X148669108Y11791250D01*
X148824776Y11838472D01*
X148946093Y11850420D01*
X150897227Y11850420D01*
X151018544Y11838472D01*
G37*
G36*
X147058544Y11838472D02*
G01*
X147214212Y11791250D01*
X147357670Y11714569D01*
X147483414Y11611374D01*
X147586609Y11485630D01*
X147663290Y11342172D01*
X147710512Y11186504D01*
X147726455Y11024620D01*
X147710512Y10862736D01*
X147663290Y10707068D01*
X147586609Y10563610D01*
X147483414Y10437866D01*
X147357670Y10334671D01*
X147214212Y10257990D01*
X147058544Y10210768D01*
X146937227Y10198820D01*
X144986093Y10198820D01*
X144864776Y10210768D01*
X144709108Y10257990D01*
X144565650Y10334671D01*
X144439906Y10437866D01*
X144336711Y10563610D01*
X144260030Y10707068D01*
X144212808Y10862736D01*
X144196865Y11024620D01*
X144212808Y11186504D01*
X144260030Y11342172D01*
X144336711Y11485630D01*
X144439906Y11611374D01*
X144565650Y11714569D01*
X144709108Y11791250D01*
X144864776Y11838472D01*
X144986093Y11850420D01*
X146937227Y11850420D01*
X147058544Y11838472D01*
G37*
G36*
X143098544Y11838472D02*
G01*
X143254212Y11791250D01*
X143397670Y11714569D01*
X143523414Y11611374D01*
X143626609Y11485630D01*
X143703290Y11342172D01*
X143750512Y11186504D01*
X143766455Y11024620D01*
X143750512Y10862736D01*
X143703290Y10707068D01*
X143626609Y10563610D01*
X143523414Y10437866D01*
X143397670Y10334671D01*
X143254212Y10257990D01*
X143098544Y10210768D01*
X142977227Y10198820D01*
X141026093Y10198820D01*
X140904776Y10210768D01*
X140749108Y10257990D01*
X140605650Y10334671D01*
X140479906Y10437866D01*
X140376711Y10563610D01*
X140300030Y10707068D01*
X140252808Y10862736D01*
X140236865Y11024620D01*
X140252808Y11186504D01*
X140300030Y11342172D01*
X140376711Y11485630D01*
X140479906Y11611374D01*
X140605650Y11714569D01*
X140749108Y11791250D01*
X140904776Y11838472D01*
X141026093Y11850420D01*
X142977227Y11850420D01*
X143098544Y11838472D01*
G37*
G36*
X139138544Y11838472D02*
G01*
X139294212Y11791250D01*
X139437670Y11714569D01*
X139563414Y11611374D01*
X139666609Y11485630D01*
X139743290Y11342172D01*
X139790512Y11186504D01*
X139806455Y11024620D01*
X139790512Y10862736D01*
X139743290Y10707068D01*
X139666609Y10563610D01*
X139563414Y10437866D01*
X139437670Y10334671D01*
X139294212Y10257990D01*
X139138544Y10210768D01*
X139017227Y10198820D01*
X137066093Y10198820D01*
X136944776Y10210768D01*
X136789108Y10257990D01*
X136645650Y10334671D01*
X136519906Y10437866D01*
X136416711Y10563610D01*
X136340030Y10707068D01*
X136292808Y10862736D01*
X136276865Y11024620D01*
X136292808Y11186504D01*
X136340030Y11342172D01*
X136416711Y11485630D01*
X136519906Y11611374D01*
X136645650Y11714569D01*
X136789108Y11791250D01*
X136944776Y11838472D01*
X137066093Y11850420D01*
X139017227Y11850420D01*
X139138544Y11838472D01*
G37*
G36*
X135178544Y11838472D02*
G01*
X135334212Y11791250D01*
X135477670Y11714569D01*
X135603414Y11611374D01*
X135706609Y11485630D01*
X135783290Y11342172D01*
X135830512Y11186504D01*
X135846455Y11024620D01*
X135830512Y10862736D01*
X135783290Y10707068D01*
X135706609Y10563610D01*
X135603414Y10437866D01*
X135477670Y10334671D01*
X135334212Y10257990D01*
X135178544Y10210768D01*
X135057227Y10198820D01*
X133106093Y10198820D01*
X132984776Y10210768D01*
X132829108Y10257990D01*
X132685650Y10334671D01*
X132559906Y10437866D01*
X132456711Y10563610D01*
X132380030Y10707068D01*
X132332808Y10862736D01*
X132316865Y11024620D01*
X132332808Y11186504D01*
X132380030Y11342172D01*
X132456711Y11485630D01*
X132559906Y11611374D01*
X132685650Y11714569D01*
X132829108Y11791250D01*
X132984776Y11838472D01*
X133106093Y11850420D01*
X135057227Y11850420D01*
X135178544Y11838472D01*
G37*
G36*
X127258544Y11838472D02*
G01*
X127414212Y11791250D01*
X127557670Y11714569D01*
X127683414Y11611374D01*
X127786609Y11485630D01*
X127863290Y11342172D01*
X127910512Y11186504D01*
X127926455Y11024620D01*
X127910512Y10862736D01*
X127863290Y10707068D01*
X127786609Y10563610D01*
X127683414Y10437866D01*
X127557670Y10334671D01*
X127414212Y10257990D01*
X127258544Y10210768D01*
X127137227Y10198820D01*
X125186093Y10198820D01*
X125064776Y10210768D01*
X124909108Y10257990D01*
X124765650Y10334671D01*
X124639906Y10437866D01*
X124536711Y10563610D01*
X124460030Y10707068D01*
X124412808Y10862736D01*
X124396865Y11024620D01*
X124412808Y11186504D01*
X124460030Y11342172D01*
X124536711Y11485630D01*
X124639906Y11611374D01*
X124765650Y11714569D01*
X124909108Y11791250D01*
X125064776Y11838472D01*
X125186093Y11850420D01*
X127137227Y11850420D01*
X127258544Y11838472D01*
G37*
G36*
X123298544Y11838472D02*
G01*
X123454212Y11791250D01*
X123597670Y11714569D01*
X123723414Y11611374D01*
X123826609Y11485630D01*
X123903290Y11342172D01*
X123950512Y11186504D01*
X123966455Y11024620D01*
X123950512Y10862736D01*
X123903290Y10707068D01*
X123826609Y10563610D01*
X123723414Y10437866D01*
X123597670Y10334671D01*
X123454212Y10257990D01*
X123298544Y10210768D01*
X123177227Y10198820D01*
X121226093Y10198820D01*
X121104776Y10210768D01*
X120949108Y10257990D01*
X120805650Y10334671D01*
X120679906Y10437866D01*
X120576711Y10563610D01*
X120500030Y10707068D01*
X120452808Y10862736D01*
X120436865Y11024620D01*
X120452808Y11186504D01*
X120500030Y11342172D01*
X120576711Y11485630D01*
X120679906Y11611374D01*
X120805650Y11714569D01*
X120949108Y11791250D01*
X121104776Y11838472D01*
X121226093Y11850420D01*
X123177227Y11850420D01*
X123298544Y11838472D01*
G37*
G36*
X119338544Y11838472D02*
G01*
X119494212Y11791250D01*
X119637670Y11714569D01*
X119763414Y11611374D01*
X119866609Y11485630D01*
X119943290Y11342172D01*
X119990512Y11186504D01*
X120006455Y11024620D01*
X119990512Y10862736D01*
X119943290Y10707068D01*
X119866609Y10563610D01*
X119763414Y10437866D01*
X119637670Y10334671D01*
X119494212Y10257990D01*
X119338544Y10210768D01*
X119217227Y10198820D01*
X117266093Y10198820D01*
X117144776Y10210768D01*
X116989108Y10257990D01*
X116845650Y10334671D01*
X116719906Y10437866D01*
X116616711Y10563610D01*
X116540030Y10707068D01*
X116492808Y10862736D01*
X116476865Y11024620D01*
X116492808Y11186504D01*
X116540030Y11342172D01*
X116616711Y11485630D01*
X116719906Y11611374D01*
X116845650Y11714569D01*
X116989108Y11791250D01*
X117144776Y11838472D01*
X117266093Y11850420D01*
X119217227Y11850420D01*
X119338544Y11838472D01*
G37*
G36*
X115378544Y11838472D02*
G01*
X115534212Y11791250D01*
X115677670Y11714569D01*
X115803414Y11611374D01*
X115906609Y11485630D01*
X115983290Y11342172D01*
X116030512Y11186504D01*
X116046455Y11024620D01*
X116030512Y10862736D01*
X115983290Y10707068D01*
X115906609Y10563610D01*
X115803414Y10437866D01*
X115677670Y10334671D01*
X115534212Y10257990D01*
X115378544Y10210768D01*
X115257227Y10198820D01*
X113306093Y10198820D01*
X113184776Y10210768D01*
X113029108Y10257990D01*
X112885650Y10334671D01*
X112759906Y10437866D01*
X112656711Y10563610D01*
X112580030Y10707068D01*
X112532808Y10862736D01*
X112516865Y11024620D01*
X112532808Y11186504D01*
X112580030Y11342172D01*
X112656711Y11485630D01*
X112759906Y11611374D01*
X112885650Y11714569D01*
X113029108Y11791250D01*
X113184776Y11838472D01*
X113306093Y11850420D01*
X115257227Y11850420D01*
X115378544Y11838472D01*
G37*
G36*
X111418544Y11838472D02*
G01*
X111574212Y11791250D01*
X111717670Y11714569D01*
X111843414Y11611374D01*
X111946609Y11485630D01*
X112023290Y11342172D01*
X112070512Y11186504D01*
X112086455Y11024620D01*
X112070512Y10862736D01*
X112023290Y10707068D01*
X111946609Y10563610D01*
X111843414Y10437866D01*
X111717670Y10334671D01*
X111574212Y10257990D01*
X111418544Y10210768D01*
X111297227Y10198820D01*
X109346093Y10198820D01*
X109224776Y10210768D01*
X109069108Y10257990D01*
X108925650Y10334671D01*
X108799906Y10437866D01*
X108696711Y10563610D01*
X108620030Y10707068D01*
X108572808Y10862736D01*
X108556865Y11024620D01*
X108572808Y11186504D01*
X108620030Y11342172D01*
X108696711Y11485630D01*
X108799906Y11611374D01*
X108925650Y11714569D01*
X109069108Y11791250D01*
X109224776Y11838472D01*
X109346093Y11850420D01*
X111297227Y11850420D01*
X111418544Y11838472D01*
G37*
G36*
X107458544Y11838472D02*
G01*
X107614212Y11791250D01*
X107757670Y11714569D01*
X107883414Y11611374D01*
X107986609Y11485630D01*
X108063290Y11342172D01*
X108110512Y11186504D01*
X108126455Y11024620D01*
X108110512Y10862736D01*
X108063290Y10707068D01*
X107986609Y10563610D01*
X107883414Y10437866D01*
X107757670Y10334671D01*
X107614212Y10257990D01*
X107458544Y10210768D01*
X107337227Y10198820D01*
X105386093Y10198820D01*
X105264776Y10210768D01*
X105109108Y10257990D01*
X104965650Y10334671D01*
X104839906Y10437866D01*
X104736711Y10563610D01*
X104660030Y10707068D01*
X104612808Y10862736D01*
X104596865Y11024620D01*
X104612808Y11186504D01*
X104660030Y11342172D01*
X104736711Y11485630D01*
X104839906Y11611374D01*
X104965650Y11714569D01*
X105109108Y11791250D01*
X105264776Y11838472D01*
X105386093Y11850420D01*
X107337227Y11850420D01*
X107458544Y11838472D01*
G37*
G36*
X131218544Y11838472D02*
G01*
X131374212Y11791250D01*
X131517670Y11714569D01*
X131643414Y11611374D01*
X131746609Y11485630D01*
X131823290Y11342172D01*
X131870512Y11186504D01*
X131886455Y11024620D01*
X131870512Y10862736D01*
X131823290Y10707068D01*
X131746609Y10563610D01*
X131643414Y10437866D01*
X131517670Y10334671D01*
X131374212Y10257990D01*
X131218544Y10210768D01*
X131097227Y10198820D01*
X129146093Y10198820D01*
X129024776Y10210768D01*
X128869108Y10257990D01*
X128725650Y10334671D01*
X128599906Y10437866D01*
X128496711Y10563610D01*
X128420030Y10707068D01*
X128372808Y10862736D01*
X128356865Y11024620D01*
X128372808Y11186504D01*
X128420030Y11342172D01*
X128496711Y11485630D01*
X128599906Y11611374D01*
X128725650Y11714569D01*
X128869108Y11791250D01*
X129024776Y11838472D01*
X129146093Y11850420D01*
X131097227Y11850420D01*
X131218544Y11838472D01*
G37*
G36*
X63898544Y11838472D02*
G01*
X64054212Y11791250D01*
X64197670Y11714569D01*
X64323414Y11611374D01*
X64426609Y11485630D01*
X64503290Y11342172D01*
X64550512Y11186504D01*
X64566455Y11024620D01*
X64550512Y10862736D01*
X64503290Y10707068D01*
X64426609Y10563610D01*
X64323414Y10437866D01*
X64197670Y10334671D01*
X64054212Y10257990D01*
X63898544Y10210768D01*
X63777227Y10198820D01*
X61826093Y10198820D01*
X61704776Y10210768D01*
X61549108Y10257990D01*
X61405650Y10334671D01*
X61279906Y10437866D01*
X61176711Y10563610D01*
X61100030Y10707068D01*
X61052808Y10862736D01*
X61036865Y11024620D01*
X61052808Y11186504D01*
X61100030Y11342172D01*
X61176711Y11485630D01*
X61279906Y11611374D01*
X61405650Y11714569D01*
X61549108Y11791250D01*
X61704776Y11838472D01*
X61826093Y11850420D01*
X63777227Y11850420D01*
X63898544Y11838472D01*
G37*
G36*
X40041634Y15223283D02*
G01*
X40205569Y15155379D01*
X40353107Y15056797D01*
X40478577Y14931327D01*
X40577159Y14783789D01*
X40645063Y14619854D01*
X40679680Y14445821D01*
X40679680Y14268379D01*
X40645063Y14094346D01*
X40577159Y13930411D01*
X40478577Y13782873D01*
X40353107Y13657403D01*
X40205569Y13558821D01*
X40041634Y13490917D01*
X39867601Y13456300D01*
X39690159Y13456300D01*
X39516126Y13490917D01*
X39352191Y13558821D01*
X39204653Y13657403D01*
X39079183Y13782873D01*
X38980601Y13930411D01*
X38912697Y14094346D01*
X38878080Y14268379D01*
X38878080Y14445821D01*
X38912697Y14619854D01*
X38980601Y14783789D01*
X39079183Y14931327D01*
X39204653Y15056797D01*
X39352191Y15155379D01*
X39516126Y15223283D01*
X39690159Y15257900D01*
X39867601Y15257900D01*
X40041634Y15223283D01*
G37*
G36*
X37501634Y15223283D02*
G01*
X37665569Y15155379D01*
X37813107Y15056797D01*
X37938577Y14931327D01*
X38037159Y14783789D01*
X38105063Y14619854D01*
X38139680Y14445821D01*
X38139680Y14268379D01*
X38105063Y14094346D01*
X38037159Y13930411D01*
X37938577Y13782873D01*
X37813107Y13657403D01*
X37665569Y13558821D01*
X37501634Y13490917D01*
X37327601Y13456300D01*
X37150159Y13456300D01*
X36976126Y13490917D01*
X36812191Y13558821D01*
X36664653Y13657403D01*
X36539183Y13782873D01*
X36440601Y13930411D01*
X36372697Y14094346D01*
X36338080Y14268379D01*
X36338080Y14445821D01*
X36372697Y14619854D01*
X36440601Y14783789D01*
X36539183Y14931327D01*
X36664653Y15056797D01*
X36812191Y15155379D01*
X36976126Y15223283D01*
X37150159Y15257900D01*
X37327601Y15257900D01*
X37501634Y15223283D01*
G37*
G36*
X35599680Y13456300D02*
G01*
X33798080Y13456300D01*
X33798080Y15257900D01*
X35599680Y15257900D01*
X35599680Y13456300D01*
G37*
G36*
X139831269Y16944725D02*
G01*
X139986105Y16880589D01*
X140125454Y16787480D01*
X140243960Y16668974D01*
X140337069Y16529625D01*
X140401205Y16374789D01*
X140433900Y16210417D01*
X140433900Y16042823D01*
X140401205Y15878451D01*
X140337069Y15723615D01*
X140243960Y15584266D01*
X140125454Y15465760D01*
X139986105Y15372651D01*
X139831269Y15308515D01*
X139666897Y15275820D01*
X139499303Y15275820D01*
X139334931Y15308515D01*
X139180095Y15372651D01*
X139040746Y15465760D01*
X138922240Y15584266D01*
X138829131Y15723615D01*
X138764995Y15878451D01*
X138732300Y16042823D01*
X138732300Y16210417D01*
X138764995Y16374789D01*
X138829131Y16529625D01*
X138922240Y16668974D01*
X139040746Y16787480D01*
X139180095Y16880589D01*
X139334931Y16944725D01*
X139499303Y16977420D01*
X139666897Y16977420D01*
X139831269Y16944725D01*
G37*
G36*
X160151269Y16944725D02*
G01*
X160306105Y16880589D01*
X160445454Y16787480D01*
X160563960Y16668974D01*
X160657069Y16529625D01*
X160721205Y16374789D01*
X160753900Y16210417D01*
X160753900Y16042823D01*
X160721205Y15878451D01*
X160657069Y15723615D01*
X160563960Y15584266D01*
X160445454Y15465760D01*
X160306105Y15372651D01*
X160151269Y15308515D01*
X159986897Y15275820D01*
X159819303Y15275820D01*
X159654931Y15308515D01*
X159500095Y15372651D01*
X159360746Y15465760D01*
X159242240Y15584266D01*
X159149131Y15723615D01*
X159084995Y15878451D01*
X159052300Y16042823D01*
X159052300Y16210417D01*
X159084995Y16374789D01*
X159149131Y16529625D01*
X159242240Y16668974D01*
X159360746Y16787480D01*
X159500095Y16880589D01*
X159654931Y16944725D01*
X159819303Y16977420D01*
X159986897Y16977420D01*
X160151269Y16944725D01*
G37*
G36*
X132211269Y16944725D02*
G01*
X132366105Y16880589D01*
X132505454Y16787480D01*
X132623960Y16668974D01*
X132717069Y16529625D01*
X132781205Y16374789D01*
X132813900Y16210417D01*
X132813900Y16042823D01*
X132781205Y15878451D01*
X132717069Y15723615D01*
X132623960Y15584266D01*
X132505454Y15465760D01*
X132366105Y15372651D01*
X132211269Y15308515D01*
X132046897Y15275820D01*
X131879303Y15275820D01*
X131714931Y15308515D01*
X131560095Y15372651D01*
X131420746Y15465760D01*
X131302240Y15584266D01*
X131209131Y15723615D01*
X131144995Y15878451D01*
X131112300Y16042823D01*
X131112300Y16210417D01*
X131144995Y16374789D01*
X131209131Y16529625D01*
X131302240Y16668974D01*
X131420746Y16787480D01*
X131560095Y16880589D01*
X131714931Y16944725D01*
X131879303Y16977420D01*
X132046897Y16977420D01*
X132211269Y16944725D01*
G37*
G36*
X134751269Y16944725D02*
G01*
X134906105Y16880589D01*
X135045454Y16787480D01*
X135163960Y16668974D01*
X135257069Y16529625D01*
X135321205Y16374789D01*
X135353900Y16210417D01*
X135353900Y16042823D01*
X135321205Y15878451D01*
X135257069Y15723615D01*
X135163960Y15584266D01*
X135045454Y15465760D01*
X134906105Y15372651D01*
X134751269Y15308515D01*
X134586897Y15275820D01*
X134419303Y15275820D01*
X134254931Y15308515D01*
X134100095Y15372651D01*
X133960746Y15465760D01*
X133842240Y15584266D01*
X133749131Y15723615D01*
X133684995Y15878451D01*
X133652300Y16042823D01*
X133652300Y16210417D01*
X133684995Y16374789D01*
X133749131Y16529625D01*
X133842240Y16668974D01*
X133960746Y16787480D01*
X134100095Y16880589D01*
X134254931Y16944725D01*
X134419303Y16977420D01*
X134586897Y16977420D01*
X134751269Y16944725D01*
G37*
G36*
X137291269Y16944725D02*
G01*
X137446105Y16880589D01*
X137585454Y16787480D01*
X137703960Y16668974D01*
X137797069Y16529625D01*
X137861205Y16374789D01*
X137893900Y16210417D01*
X137893900Y16042823D01*
X137861205Y15878451D01*
X137797069Y15723615D01*
X137703960Y15584266D01*
X137585454Y15465760D01*
X137446105Y15372651D01*
X137291269Y15308515D01*
X137126897Y15275820D01*
X136959303Y15275820D01*
X136794931Y15308515D01*
X136640095Y15372651D01*
X136500746Y15465760D01*
X136382240Y15584266D01*
X136289131Y15723615D01*
X136224995Y15878451D01*
X136192300Y16042823D01*
X136192300Y16210417D01*
X136224995Y16374789D01*
X136289131Y16529625D01*
X136382240Y16668974D01*
X136500746Y16787480D01*
X136640095Y16880589D01*
X136794931Y16944725D01*
X136959303Y16977420D01*
X137126897Y16977420D01*
X137291269Y16944725D01*
G37*
G36*
X142371269Y16944725D02*
G01*
X142526105Y16880589D01*
X142665454Y16787480D01*
X142783960Y16668974D01*
X142877069Y16529625D01*
X142941205Y16374789D01*
X142973900Y16210417D01*
X142973900Y16042823D01*
X142941205Y15878451D01*
X142877069Y15723615D01*
X142783960Y15584266D01*
X142665454Y15465760D01*
X142526105Y15372651D01*
X142371269Y15308515D01*
X142206897Y15275820D01*
X142039303Y15275820D01*
X141874931Y15308515D01*
X141720095Y15372651D01*
X141580746Y15465760D01*
X141462240Y15584266D01*
X141369131Y15723615D01*
X141304995Y15878451D01*
X141272300Y16042823D01*
X141272300Y16210417D01*
X141304995Y16374789D01*
X141369131Y16529625D01*
X141462240Y16668974D01*
X141580746Y16787480D01*
X141720095Y16880589D01*
X141874931Y16944725D01*
X142039303Y16977420D01*
X142206897Y16977420D01*
X142371269Y16944725D01*
G37*
G36*
X144911269Y16944725D02*
G01*
X145066105Y16880589D01*
X145205454Y16787480D01*
X145323960Y16668974D01*
X145417069Y16529625D01*
X145481205Y16374789D01*
X145513900Y16210417D01*
X145513900Y16042823D01*
X145481205Y15878451D01*
X145417069Y15723615D01*
X145323960Y15584266D01*
X145205454Y15465760D01*
X145066105Y15372651D01*
X144911269Y15308515D01*
X144746897Y15275820D01*
X144579303Y15275820D01*
X144414931Y15308515D01*
X144260095Y15372651D01*
X144120746Y15465760D01*
X144002240Y15584266D01*
X143909131Y15723615D01*
X143844995Y15878451D01*
X143812300Y16042823D01*
X143812300Y16210417D01*
X143844995Y16374789D01*
X143909131Y16529625D01*
X144002240Y16668974D01*
X144120746Y16787480D01*
X144260095Y16880589D01*
X144414931Y16944725D01*
X144579303Y16977420D01*
X144746897Y16977420D01*
X144911269Y16944725D01*
G37*
G36*
X147451269Y16944725D02*
G01*
X147606105Y16880589D01*
X147745454Y16787480D01*
X147863960Y16668974D01*
X147957069Y16529625D01*
X148021205Y16374789D01*
X148053900Y16210417D01*
X148053900Y16042823D01*
X148021205Y15878451D01*
X147957069Y15723615D01*
X147863960Y15584266D01*
X147745454Y15465760D01*
X147606105Y15372651D01*
X147451269Y15308515D01*
X147286897Y15275820D01*
X147119303Y15275820D01*
X146954931Y15308515D01*
X146800095Y15372651D01*
X146660746Y15465760D01*
X146542240Y15584266D01*
X146449131Y15723615D01*
X146384995Y15878451D01*
X146352300Y16042823D01*
X146352300Y16210417D01*
X146384995Y16374789D01*
X146449131Y16529625D01*
X146542240Y16668974D01*
X146660746Y16787480D01*
X146800095Y16880589D01*
X146954931Y16944725D01*
X147119303Y16977420D01*
X147286897Y16977420D01*
X147451269Y16944725D01*
G37*
G36*
X149991269Y16944725D02*
G01*
X150146105Y16880589D01*
X150285454Y16787480D01*
X150403960Y16668974D01*
X150497069Y16529625D01*
X150561205Y16374789D01*
X150593900Y16210417D01*
X150593900Y16042823D01*
X150561205Y15878451D01*
X150497069Y15723615D01*
X150403960Y15584266D01*
X150285454Y15465760D01*
X150146105Y15372651D01*
X149991269Y15308515D01*
X149826897Y15275820D01*
X149659303Y15275820D01*
X149494931Y15308515D01*
X149340095Y15372651D01*
X149200746Y15465760D01*
X149082240Y15584266D01*
X148989131Y15723615D01*
X148924995Y15878451D01*
X148892300Y16042823D01*
X148892300Y16210417D01*
X148924995Y16374789D01*
X148989131Y16529625D01*
X149082240Y16668974D01*
X149200746Y16787480D01*
X149340095Y16880589D01*
X149494931Y16944725D01*
X149659303Y16977420D01*
X149826897Y16977420D01*
X149991269Y16944725D01*
G37*
G36*
X152531269Y16944725D02*
G01*
X152686105Y16880589D01*
X152825454Y16787480D01*
X152943960Y16668974D01*
X153037069Y16529625D01*
X153101205Y16374789D01*
X153133900Y16210417D01*
X153133900Y16042823D01*
X153101205Y15878451D01*
X153037069Y15723615D01*
X152943960Y15584266D01*
X152825454Y15465760D01*
X152686105Y15372651D01*
X152531269Y15308515D01*
X152366897Y15275820D01*
X152199303Y15275820D01*
X152034931Y15308515D01*
X151880095Y15372651D01*
X151740746Y15465760D01*
X151622240Y15584266D01*
X151529131Y15723615D01*
X151464995Y15878451D01*
X151432300Y16042823D01*
X151432300Y16210417D01*
X151464995Y16374789D01*
X151529131Y16529625D01*
X151622240Y16668974D01*
X151740746Y16787480D01*
X151880095Y16880589D01*
X152034931Y16944725D01*
X152199303Y16977420D01*
X152366897Y16977420D01*
X152531269Y16944725D01*
G37*
G36*
X155071269Y16944725D02*
G01*
X155226105Y16880589D01*
X155365454Y16787480D01*
X155483960Y16668974D01*
X155577069Y16529625D01*
X155641205Y16374789D01*
X155673900Y16210417D01*
X155673900Y16042823D01*
X155641205Y15878451D01*
X155577069Y15723615D01*
X155483960Y15584266D01*
X155365454Y15465760D01*
X155226105Y15372651D01*
X155071269Y15308515D01*
X154906897Y15275820D01*
X154739303Y15275820D01*
X154574931Y15308515D01*
X154420095Y15372651D01*
X154280746Y15465760D01*
X154162240Y15584266D01*
X154069131Y15723615D01*
X154004995Y15878451D01*
X153972300Y16042823D01*
X153972300Y16210417D01*
X154004995Y16374789D01*
X154069131Y16529625D01*
X154162240Y16668974D01*
X154280746Y16787480D01*
X154420095Y16880589D01*
X154574931Y16944725D01*
X154739303Y16977420D01*
X154906897Y16977420D01*
X155071269Y16944725D01*
G37*
G36*
X157611269Y16944725D02*
G01*
X157766105Y16880589D01*
X157905454Y16787480D01*
X158023960Y16668974D01*
X158117069Y16529625D01*
X158181205Y16374789D01*
X158213900Y16210417D01*
X158213900Y16042823D01*
X158181205Y15878451D01*
X158117069Y15723615D01*
X158023960Y15584266D01*
X157905454Y15465760D01*
X157766105Y15372651D01*
X157611269Y15308515D01*
X157446897Y15275820D01*
X157279303Y15275820D01*
X157114931Y15308515D01*
X156960095Y15372651D01*
X156820746Y15465760D01*
X156702240Y15584266D01*
X156609131Y15723615D01*
X156544995Y15878451D01*
X156512300Y16042823D01*
X156512300Y16210417D01*
X156544995Y16374789D01*
X156609131Y16529625D01*
X156702240Y16668974D01*
X156820746Y16787480D01*
X156960095Y16880589D01*
X157114931Y16944725D01*
X157279303Y16977420D01*
X157446897Y16977420D01*
X157611269Y16944725D01*
G37*
G36*
X127813874Y17169083D02*
G01*
X127977809Y17101179D01*
X128125347Y17002597D01*
X128250817Y16877127D01*
X128349399Y16729589D01*
X128417303Y16565654D01*
X128451920Y16391621D01*
X128451920Y16214179D01*
X128417303Y16040146D01*
X128349399Y15876211D01*
X128250817Y15728673D01*
X128125347Y15603203D01*
X127977809Y15504621D01*
X127813874Y15436717D01*
X127639841Y15402100D01*
X127462399Y15402100D01*
X127288366Y15436717D01*
X127124431Y15504621D01*
X126976893Y15603203D01*
X126851423Y15728673D01*
X126752841Y15876211D01*
X126684937Y16040146D01*
X126650320Y16214179D01*
X126650320Y16391621D01*
X126684937Y16565654D01*
X126752841Y16729589D01*
X126851423Y16877127D01*
X126976893Y17002597D01*
X127124431Y17101179D01*
X127288366Y17169083D01*
X127462399Y17203700D01*
X127639841Y17203700D01*
X127813874Y17169083D01*
G37*
G36*
X125273874Y17169083D02*
G01*
X125437809Y17101179D01*
X125585347Y17002597D01*
X125710817Y16877127D01*
X125809399Y16729589D01*
X125877303Y16565654D01*
X125911920Y16391621D01*
X125911920Y16214179D01*
X125877303Y16040146D01*
X125809399Y15876211D01*
X125710817Y15728673D01*
X125585347Y15603203D01*
X125437809Y15504621D01*
X125273874Y15436717D01*
X125099841Y15402100D01*
X124922399Y15402100D01*
X124748366Y15436717D01*
X124584431Y15504621D01*
X124436893Y15603203D01*
X124311423Y15728673D01*
X124212841Y15876211D01*
X124144937Y16040146D01*
X124110320Y16214179D01*
X124110320Y16391621D01*
X124144937Y16565654D01*
X124212841Y16729589D01*
X124311423Y16877127D01*
X124436893Y17002597D01*
X124584431Y17101179D01*
X124748366Y17169083D01*
X124922399Y17203700D01*
X125099841Y17203700D01*
X125273874Y17169083D01*
G37*
G36*
X122733874Y17169083D02*
G01*
X122897809Y17101179D01*
X123045347Y17002597D01*
X123170817Y16877127D01*
X123269399Y16729589D01*
X123337303Y16565654D01*
X123371920Y16391621D01*
X123371920Y16214179D01*
X123337303Y16040146D01*
X123269399Y15876211D01*
X123170817Y15728673D01*
X123045347Y15603203D01*
X122897809Y15504621D01*
X122733874Y15436717D01*
X122559841Y15402100D01*
X122382399Y15402100D01*
X122208366Y15436717D01*
X122044431Y15504621D01*
X121896893Y15603203D01*
X121771423Y15728673D01*
X121672841Y15876211D01*
X121604937Y16040146D01*
X121570320Y16214179D01*
X121570320Y16391621D01*
X121604937Y16565654D01*
X121672841Y16729589D01*
X121771423Y16877127D01*
X121896893Y17002597D01*
X122044431Y17101179D01*
X122208366Y17169083D01*
X122382399Y17203700D01*
X122559841Y17203700D01*
X122733874Y17169083D01*
G37*
G36*
X37501634Y17763283D02*
G01*
X37665569Y17695379D01*
X37813107Y17596797D01*
X37938577Y17471327D01*
X38037159Y17323789D01*
X38105063Y17159854D01*
X38139680Y16985821D01*
X38139680Y16808379D01*
X38105063Y16634346D01*
X38037159Y16470411D01*
X37938577Y16322873D01*
X37813107Y16197403D01*
X37665569Y16098821D01*
X37501634Y16030917D01*
X37327601Y15996300D01*
X37150159Y15996300D01*
X36976126Y16030917D01*
X36812191Y16098821D01*
X36664653Y16197403D01*
X36539183Y16322873D01*
X36440601Y16470411D01*
X36372697Y16634346D01*
X36338080Y16808379D01*
X36338080Y16985821D01*
X36372697Y17159854D01*
X36440601Y17323789D01*
X36539183Y17471327D01*
X36664653Y17596797D01*
X36812191Y17695379D01*
X36976126Y17763283D01*
X37150159Y17797900D01*
X37327601Y17797900D01*
X37501634Y17763283D01*
G37*
G36*
X40041634Y17763283D02*
G01*
X40205569Y17695379D01*
X40353107Y17596797D01*
X40478577Y17471327D01*
X40577159Y17323789D01*
X40645063Y17159854D01*
X40679680Y16985821D01*
X40679680Y16808379D01*
X40645063Y16634346D01*
X40577159Y16470411D01*
X40478577Y16322873D01*
X40353107Y16197403D01*
X40205569Y16098821D01*
X40041634Y16030917D01*
X39867601Y15996300D01*
X39690159Y15996300D01*
X39516126Y16030917D01*
X39352191Y16098821D01*
X39204653Y16197403D01*
X39079183Y16322873D01*
X38980601Y16470411D01*
X38912697Y16634346D01*
X38878080Y16808379D01*
X38878080Y16985821D01*
X38912697Y17159854D01*
X38980601Y17323789D01*
X39079183Y17471327D01*
X39204653Y17596797D01*
X39352191Y17695379D01*
X39516126Y17763283D01*
X39690159Y17797900D01*
X39867601Y17797900D01*
X40041634Y17763283D01*
G37*
G36*
X34961634Y17763283D02*
G01*
X35125569Y17695379D01*
X35273107Y17596797D01*
X35398577Y17471327D01*
X35497159Y17323789D01*
X35565063Y17159854D01*
X35599680Y16985821D01*
X35599680Y16808379D01*
X35565063Y16634346D01*
X35497159Y16470411D01*
X35398577Y16322873D01*
X35273107Y16197403D01*
X35125569Y16098821D01*
X34961634Y16030917D01*
X34787601Y15996300D01*
X34610159Y15996300D01*
X34436126Y16030917D01*
X34272191Y16098821D01*
X34124653Y16197403D01*
X33999183Y16322873D01*
X33900601Y16470411D01*
X33832697Y16634346D01*
X33798080Y16808379D01*
X33798080Y16985821D01*
X33832697Y17159854D01*
X33900601Y17323789D01*
X33999183Y17471327D01*
X34124653Y17596797D01*
X34272191Y17695379D01*
X34436126Y17763283D01*
X34610159Y17797900D01*
X34787601Y17797900D01*
X34961634Y17763283D01*
G37*
G36*
X2595069Y17891485D02*
G01*
X2749905Y17827349D01*
X2889254Y17734240D01*
X3007760Y17615734D01*
X3100869Y17476385D01*
X3165005Y17321549D01*
X3197700Y17157177D01*
X3197700Y16989583D01*
X3165005Y16825211D01*
X3100869Y16670375D01*
X3007760Y16531026D01*
X2889254Y16412520D01*
X2749905Y16319411D01*
X2595069Y16255275D01*
X2430697Y16222580D01*
X2263103Y16222580D01*
X2098731Y16255275D01*
X1943895Y16319411D01*
X1804546Y16412520D01*
X1686040Y16531026D01*
X1592931Y16670375D01*
X1528795Y16825211D01*
X1496100Y16989583D01*
X1496100Y17157177D01*
X1528795Y17321549D01*
X1592931Y17476385D01*
X1686040Y17615734D01*
X1804546Y17734240D01*
X1943895Y17827349D01*
X2098731Y17891485D01*
X2263103Y17924180D01*
X2430697Y17924180D01*
X2595069Y17891485D01*
G37*
G36*
X30535069Y17891485D02*
G01*
X30689905Y17827349D01*
X30829254Y17734240D01*
X30947760Y17615734D01*
X31040869Y17476385D01*
X31105005Y17321549D01*
X31137700Y17157177D01*
X31137700Y16989583D01*
X31105005Y16825211D01*
X31040869Y16670375D01*
X30947760Y16531026D01*
X30829254Y16412520D01*
X30689905Y16319411D01*
X30535069Y16255275D01*
X30370697Y16222580D01*
X30203103Y16222580D01*
X30038731Y16255275D01*
X29883895Y16319411D01*
X29744546Y16412520D01*
X29626040Y16531026D01*
X29532931Y16670375D01*
X29468795Y16825211D01*
X29436100Y16989583D01*
X29436100Y17157177D01*
X29468795Y17321549D01*
X29532931Y17476385D01*
X29626040Y17615734D01*
X29744546Y17734240D01*
X29883895Y17827349D01*
X30038731Y17891485D01*
X30203103Y17924180D01*
X30370697Y17924180D01*
X30535069Y17891485D01*
G37*
G36*
X27995069Y17891485D02*
G01*
X28149905Y17827349D01*
X28289254Y17734240D01*
X28407760Y17615734D01*
X28500869Y17476385D01*
X28565005Y17321549D01*
X28597700Y17157177D01*
X28597700Y16989583D01*
X28565005Y16825211D01*
X28500869Y16670375D01*
X28407760Y16531026D01*
X28289254Y16412520D01*
X28149905Y16319411D01*
X27995069Y16255275D01*
X27830697Y16222580D01*
X27663103Y16222580D01*
X27498731Y16255275D01*
X27343895Y16319411D01*
X27204546Y16412520D01*
X27086040Y16531026D01*
X26992931Y16670375D01*
X26928795Y16825211D01*
X26896100Y16989583D01*
X26896100Y17157177D01*
X26928795Y17321549D01*
X26992931Y17476385D01*
X27086040Y17615734D01*
X27204546Y17734240D01*
X27343895Y17827349D01*
X27498731Y17891485D01*
X27663103Y17924180D01*
X27830697Y17924180D01*
X27995069Y17891485D01*
G37*
G36*
X25455069Y17891485D02*
G01*
X25609905Y17827349D01*
X25749254Y17734240D01*
X25867760Y17615734D01*
X25960869Y17476385D01*
X26025005Y17321549D01*
X26057700Y17157177D01*
X26057700Y16989583D01*
X26025005Y16825211D01*
X25960869Y16670375D01*
X25867760Y16531026D01*
X25749254Y16412520D01*
X25609905Y16319411D01*
X25455069Y16255275D01*
X25290697Y16222580D01*
X25123103Y16222580D01*
X24958731Y16255275D01*
X24803895Y16319411D01*
X24664546Y16412520D01*
X24546040Y16531026D01*
X24452931Y16670375D01*
X24388795Y16825211D01*
X24356100Y16989583D01*
X24356100Y17157177D01*
X24388795Y17321549D01*
X24452931Y17476385D01*
X24546040Y17615734D01*
X24664546Y17734240D01*
X24803895Y17827349D01*
X24958731Y17891485D01*
X25123103Y17924180D01*
X25290697Y17924180D01*
X25455069Y17891485D01*
G37*
G36*
X22915069Y17891485D02*
G01*
X23069905Y17827349D01*
X23209254Y17734240D01*
X23327760Y17615734D01*
X23420869Y17476385D01*
X23485005Y17321549D01*
X23517700Y17157177D01*
X23517700Y16989583D01*
X23485005Y16825211D01*
X23420869Y16670375D01*
X23327760Y16531026D01*
X23209254Y16412520D01*
X23069905Y16319411D01*
X22915069Y16255275D01*
X22750697Y16222580D01*
X22583103Y16222580D01*
X22418731Y16255275D01*
X22263895Y16319411D01*
X22124546Y16412520D01*
X22006040Y16531026D01*
X21912931Y16670375D01*
X21848795Y16825211D01*
X21816100Y16989583D01*
X21816100Y17157177D01*
X21848795Y17321549D01*
X21912931Y17476385D01*
X22006040Y17615734D01*
X22124546Y17734240D01*
X22263895Y17827349D01*
X22418731Y17891485D01*
X22583103Y17924180D01*
X22750697Y17924180D01*
X22915069Y17891485D01*
G37*
G36*
X20375069Y17891485D02*
G01*
X20529905Y17827349D01*
X20669254Y17734240D01*
X20787760Y17615734D01*
X20880869Y17476385D01*
X20945005Y17321549D01*
X20977700Y17157177D01*
X20977700Y16989583D01*
X20945005Y16825211D01*
X20880869Y16670375D01*
X20787760Y16531026D01*
X20669254Y16412520D01*
X20529905Y16319411D01*
X20375069Y16255275D01*
X20210697Y16222580D01*
X20043103Y16222580D01*
X19878731Y16255275D01*
X19723895Y16319411D01*
X19584546Y16412520D01*
X19466040Y16531026D01*
X19372931Y16670375D01*
X19308795Y16825211D01*
X19276100Y16989583D01*
X19276100Y17157177D01*
X19308795Y17321549D01*
X19372931Y17476385D01*
X19466040Y17615734D01*
X19584546Y17734240D01*
X19723895Y17827349D01*
X19878731Y17891485D01*
X20043103Y17924180D01*
X20210697Y17924180D01*
X20375069Y17891485D01*
G37*
G36*
X15295069Y17891485D02*
G01*
X15449905Y17827349D01*
X15589254Y17734240D01*
X15707760Y17615734D01*
X15800869Y17476385D01*
X15865005Y17321549D01*
X15897700Y17157177D01*
X15897700Y16989583D01*
X15865005Y16825211D01*
X15800869Y16670375D01*
X15707760Y16531026D01*
X15589254Y16412520D01*
X15449905Y16319411D01*
X15295069Y16255275D01*
X15130697Y16222580D01*
X14963103Y16222580D01*
X14798731Y16255275D01*
X14643895Y16319411D01*
X14504546Y16412520D01*
X14386040Y16531026D01*
X14292931Y16670375D01*
X14228795Y16825211D01*
X14196100Y16989583D01*
X14196100Y17157177D01*
X14228795Y17321549D01*
X14292931Y17476385D01*
X14386040Y17615734D01*
X14504546Y17734240D01*
X14643895Y17827349D01*
X14798731Y17891485D01*
X14963103Y17924180D01*
X15130697Y17924180D01*
X15295069Y17891485D01*
G37*
G36*
X12755069Y17891485D02*
G01*
X12909905Y17827349D01*
X13049254Y17734240D01*
X13167760Y17615734D01*
X13260869Y17476385D01*
X13325005Y17321549D01*
X13357700Y17157177D01*
X13357700Y16989583D01*
X13325005Y16825211D01*
X13260869Y16670375D01*
X13167760Y16531026D01*
X13049254Y16412520D01*
X12909905Y16319411D01*
X12755069Y16255275D01*
X12590697Y16222580D01*
X12423103Y16222580D01*
X12258731Y16255275D01*
X12103895Y16319411D01*
X11964546Y16412520D01*
X11846040Y16531026D01*
X11752931Y16670375D01*
X11688795Y16825211D01*
X11656100Y16989583D01*
X11656100Y17157177D01*
X11688795Y17321549D01*
X11752931Y17476385D01*
X11846040Y17615734D01*
X11964546Y17734240D01*
X12103895Y17827349D01*
X12258731Y17891485D01*
X12423103Y17924180D01*
X12590697Y17924180D01*
X12755069Y17891485D01*
G37*
G36*
X10215069Y17891485D02*
G01*
X10369905Y17827349D01*
X10509254Y17734240D01*
X10627760Y17615734D01*
X10720869Y17476385D01*
X10785005Y17321549D01*
X10817700Y17157177D01*
X10817700Y16989583D01*
X10785005Y16825211D01*
X10720869Y16670375D01*
X10627760Y16531026D01*
X10509254Y16412520D01*
X10369905Y16319411D01*
X10215069Y16255275D01*
X10050697Y16222580D01*
X9883103Y16222580D01*
X9718731Y16255275D01*
X9563895Y16319411D01*
X9424546Y16412520D01*
X9306040Y16531026D01*
X9212931Y16670375D01*
X9148795Y16825211D01*
X9116100Y16989583D01*
X9116100Y17157177D01*
X9148795Y17321549D01*
X9212931Y17476385D01*
X9306040Y17615734D01*
X9424546Y17734240D01*
X9563895Y17827349D01*
X9718731Y17891485D01*
X9883103Y17924180D01*
X10050697Y17924180D01*
X10215069Y17891485D01*
G37*
G36*
X7675069Y17891485D02*
G01*
X7829905Y17827349D01*
X7969254Y17734240D01*
X8087760Y17615734D01*
X8180869Y17476385D01*
X8245005Y17321549D01*
X8277700Y17157177D01*
X8277700Y16989583D01*
X8245005Y16825211D01*
X8180869Y16670375D01*
X8087760Y16531026D01*
X7969254Y16412520D01*
X7829905Y16319411D01*
X7675069Y16255275D01*
X7510697Y16222580D01*
X7343103Y16222580D01*
X7178731Y16255275D01*
X7023895Y16319411D01*
X6884546Y16412520D01*
X6766040Y16531026D01*
X6672931Y16670375D01*
X6608795Y16825211D01*
X6576100Y16989583D01*
X6576100Y17157177D01*
X6608795Y17321549D01*
X6672931Y17476385D01*
X6766040Y17615734D01*
X6884546Y17734240D01*
X7023895Y17827349D01*
X7178731Y17891485D01*
X7343103Y17924180D01*
X7510697Y17924180D01*
X7675069Y17891485D01*
G37*
G36*
X5135069Y17891485D02*
G01*
X5289905Y17827349D01*
X5429254Y17734240D01*
X5547760Y17615734D01*
X5640869Y17476385D01*
X5705005Y17321549D01*
X5737700Y17157177D01*
X5737700Y16989583D01*
X5705005Y16825211D01*
X5640869Y16670375D01*
X5547760Y16531026D01*
X5429254Y16412520D01*
X5289905Y16319411D01*
X5135069Y16255275D01*
X4970697Y16222580D01*
X4803103Y16222580D01*
X4638731Y16255275D01*
X4483895Y16319411D01*
X4344546Y16412520D01*
X4226040Y16531026D01*
X4132931Y16670375D01*
X4068795Y16825211D01*
X4036100Y16989583D01*
X4036100Y17157177D01*
X4068795Y17321549D01*
X4132931Y17476385D01*
X4226040Y17615734D01*
X4344546Y17734240D01*
X4483895Y17827349D01*
X4638731Y17891485D01*
X4803103Y17924180D01*
X4970697Y17924180D01*
X5135069Y17891485D01*
G37*
G36*
X17835069Y17891485D02*
G01*
X17989905Y17827349D01*
X18129254Y17734240D01*
X18247760Y17615734D01*
X18340869Y17476385D01*
X18405005Y17321549D01*
X18437700Y17157177D01*
X18437700Y16989583D01*
X18405005Y16825211D01*
X18340869Y16670375D01*
X18247760Y16531026D01*
X18129254Y16412520D01*
X17989905Y16319411D01*
X17835069Y16255275D01*
X17670697Y16222580D01*
X17503103Y16222580D01*
X17338731Y16255275D01*
X17183895Y16319411D01*
X17044546Y16412520D01*
X16926040Y16531026D01*
X16832931Y16670375D01*
X16768795Y16825211D01*
X16736100Y16989583D01*
X16736100Y17157177D01*
X16768795Y17321549D01*
X16832931Y17476385D01*
X16926040Y17615734D01*
X17044546Y17734240D01*
X17183895Y17827349D01*
X17338731Y17891485D01*
X17503103Y17924180D01*
X17670697Y17924180D01*
X17835069Y17891485D01*
G37*
G36*
X125273874Y19709083D02*
G01*
X125437809Y19641179D01*
X125585347Y19542597D01*
X125710817Y19417127D01*
X125809399Y19269589D01*
X125877303Y19105654D01*
X125911920Y18931621D01*
X125911920Y18754179D01*
X125877303Y18580146D01*
X125809399Y18416211D01*
X125710817Y18268673D01*
X125585347Y18143203D01*
X125437809Y18044621D01*
X125273874Y17976717D01*
X125099841Y17942100D01*
X124922399Y17942100D01*
X124748366Y17976717D01*
X124584431Y18044621D01*
X124436893Y18143203D01*
X124311423Y18268673D01*
X124212841Y18416211D01*
X124144937Y18580146D01*
X124110320Y18754179D01*
X124110320Y18931621D01*
X124144937Y19105654D01*
X124212841Y19269589D01*
X124311423Y19417127D01*
X124436893Y19542597D01*
X124584431Y19641179D01*
X124748366Y19709083D01*
X124922399Y19743700D01*
X125099841Y19743700D01*
X125273874Y19709083D01*
G37*
G36*
X122733874Y19709083D02*
G01*
X122897809Y19641179D01*
X123045347Y19542597D01*
X123170817Y19417127D01*
X123269399Y19269589D01*
X123337303Y19105654D01*
X123371920Y18931621D01*
X123371920Y18754179D01*
X123337303Y18580146D01*
X123269399Y18416211D01*
X123170817Y18268673D01*
X123045347Y18143203D01*
X122897809Y18044621D01*
X122733874Y17976717D01*
X122559841Y17942100D01*
X122382399Y17942100D01*
X122208366Y17976717D01*
X122044431Y18044621D01*
X121896893Y18143203D01*
X121771423Y18268673D01*
X121672841Y18416211D01*
X121604937Y18580146D01*
X121570320Y18754179D01*
X121570320Y18931621D01*
X121604937Y19105654D01*
X121672841Y19269589D01*
X121771423Y19417127D01*
X121896893Y19542597D01*
X122044431Y19641179D01*
X122208366Y19709083D01*
X122382399Y19743700D01*
X122559841Y19743700D01*
X122733874Y19709083D01*
G37*
G36*
X128451920Y17942100D02*
G01*
X126650320Y17942100D01*
X126650320Y19743700D01*
X128451920Y19743700D01*
X128451920Y17942100D01*
G37*
G36*
X37185224Y22989232D02*
G01*
X37340892Y22942010D01*
X37484350Y22865329D01*
X37610094Y22762134D01*
X37713289Y22636390D01*
X37789970Y22492932D01*
X37837192Y22337264D01*
X37853135Y22175380D01*
X37837192Y22013496D01*
X37789970Y21857828D01*
X37713289Y21714370D01*
X37610094Y21588626D01*
X37484350Y21485431D01*
X37340892Y21408750D01*
X37185224Y21361528D01*
X37063907Y21349580D01*
X35112773Y21349580D01*
X34991456Y21361528D01*
X34835788Y21408750D01*
X34692330Y21485431D01*
X34566586Y21588626D01*
X34463391Y21714370D01*
X34386710Y21857828D01*
X34339488Y22013496D01*
X34323545Y22175380D01*
X34339488Y22337264D01*
X34386710Y22492932D01*
X34463391Y22636390D01*
X34566586Y22762134D01*
X34692330Y22865329D01*
X34835788Y22942010D01*
X34991456Y22989232D01*
X35112773Y23001180D01*
X37063907Y23001180D01*
X37185224Y22989232D01*
G37*
G36*
X13425224Y22989232D02*
G01*
X13580892Y22942010D01*
X13724350Y22865329D01*
X13850094Y22762134D01*
X13953289Y22636390D01*
X14029970Y22492932D01*
X14077192Y22337264D01*
X14093135Y22175380D01*
X14077192Y22013496D01*
X14029970Y21857828D01*
X13953289Y21714370D01*
X13850094Y21588626D01*
X13724350Y21485431D01*
X13580892Y21408750D01*
X13425224Y21361528D01*
X13303907Y21349580D01*
X11352773Y21349580D01*
X11231456Y21361528D01*
X11075788Y21408750D01*
X10932330Y21485431D01*
X10806586Y21588626D01*
X10703391Y21714370D01*
X10626710Y21857828D01*
X10579488Y22013496D01*
X10563545Y22175380D01*
X10579488Y22337264D01*
X10626710Y22492932D01*
X10703391Y22636390D01*
X10806586Y22762134D01*
X10932330Y22865329D01*
X11075788Y22942010D01*
X11231456Y22989232D01*
X11352773Y23001180D01*
X13303907Y23001180D01*
X13425224Y22989232D01*
G37*
G36*
X21345224Y22989232D02*
G01*
X21500892Y22942010D01*
X21644350Y22865329D01*
X21770094Y22762134D01*
X21873289Y22636390D01*
X21949970Y22492932D01*
X21997192Y22337264D01*
X22013135Y22175380D01*
X21997192Y22013496D01*
X21949970Y21857828D01*
X21873289Y21714370D01*
X21770094Y21588626D01*
X21644350Y21485431D01*
X21500892Y21408750D01*
X21345224Y21361528D01*
X21223907Y21349580D01*
X19272773Y21349580D01*
X19151456Y21361528D01*
X18995788Y21408750D01*
X18852330Y21485431D01*
X18726586Y21588626D01*
X18623391Y21714370D01*
X18546710Y21857828D01*
X18499488Y22013496D01*
X18483545Y22175380D01*
X18499488Y22337264D01*
X18546710Y22492932D01*
X18623391Y22636390D01*
X18726586Y22762134D01*
X18852330Y22865329D01*
X18995788Y22942010D01*
X19151456Y22989232D01*
X19272773Y23001180D01*
X21223907Y23001180D01*
X21345224Y22989232D01*
G37*
G36*
X25305224Y22989232D02*
G01*
X25460892Y22942010D01*
X25604350Y22865329D01*
X25730094Y22762134D01*
X25833289Y22636390D01*
X25909970Y22492932D01*
X25957192Y22337264D01*
X25973135Y22175380D01*
X25957192Y22013496D01*
X25909970Y21857828D01*
X25833289Y21714370D01*
X25730094Y21588626D01*
X25604350Y21485431D01*
X25460892Y21408750D01*
X25305224Y21361528D01*
X25183907Y21349580D01*
X23232773Y21349580D01*
X23111456Y21361528D01*
X22955788Y21408750D01*
X22812330Y21485431D01*
X22686586Y21588626D01*
X22583391Y21714370D01*
X22506710Y21857828D01*
X22459488Y22013496D01*
X22443545Y22175380D01*
X22459488Y22337264D01*
X22506710Y22492932D01*
X22583391Y22636390D01*
X22686586Y22762134D01*
X22812330Y22865329D01*
X22955788Y22942010D01*
X23111456Y22989232D01*
X23232773Y23001180D01*
X25183907Y23001180D01*
X25305224Y22989232D01*
G37*
G36*
X29265224Y22989232D02*
G01*
X29420892Y22942010D01*
X29564350Y22865329D01*
X29690094Y22762134D01*
X29793289Y22636390D01*
X29869970Y22492932D01*
X29917192Y22337264D01*
X29933135Y22175380D01*
X29917192Y22013496D01*
X29869970Y21857828D01*
X29793289Y21714370D01*
X29690094Y21588626D01*
X29564350Y21485431D01*
X29420892Y21408750D01*
X29265224Y21361528D01*
X29143907Y21349580D01*
X27192773Y21349580D01*
X27071456Y21361528D01*
X26915788Y21408750D01*
X26772330Y21485431D01*
X26646586Y21588626D01*
X26543391Y21714370D01*
X26466710Y21857828D01*
X26419488Y22013496D01*
X26403545Y22175380D01*
X26419488Y22337264D01*
X26466710Y22492932D01*
X26543391Y22636390D01*
X26646586Y22762134D01*
X26772330Y22865329D01*
X26915788Y22942010D01*
X27071456Y22989232D01*
X27192773Y23001180D01*
X29143907Y23001180D01*
X29265224Y22989232D01*
G37*
G36*
X33225224Y22989232D02*
G01*
X33380892Y22942010D01*
X33524350Y22865329D01*
X33650094Y22762134D01*
X33753289Y22636390D01*
X33829970Y22492932D01*
X33877192Y22337264D01*
X33893135Y22175380D01*
X33877192Y22013496D01*
X33829970Y21857828D01*
X33753289Y21714370D01*
X33650094Y21588626D01*
X33524350Y21485431D01*
X33380892Y21408750D01*
X33225224Y21361528D01*
X33103907Y21349580D01*
X31152773Y21349580D01*
X31031456Y21361528D01*
X30875788Y21408750D01*
X30732330Y21485431D01*
X30606586Y21588626D01*
X30503391Y21714370D01*
X30426710Y21857828D01*
X30379488Y22013496D01*
X30363545Y22175380D01*
X30379488Y22337264D01*
X30426710Y22492932D01*
X30503391Y22636390D01*
X30606586Y22762134D01*
X30732330Y22865329D01*
X30875788Y22942010D01*
X31031456Y22989232D01*
X31152773Y23001180D01*
X33103907Y23001180D01*
X33225224Y22989232D01*
G37*
G36*
X72825224Y22989232D02*
G01*
X72980892Y22942010D01*
X73124350Y22865329D01*
X73250094Y22762134D01*
X73353289Y22636390D01*
X73429970Y22492932D01*
X73477192Y22337264D01*
X73493135Y22175380D01*
X73477192Y22013496D01*
X73429970Y21857828D01*
X73353289Y21714370D01*
X73250094Y21588626D01*
X73124350Y21485431D01*
X72980892Y21408750D01*
X72825224Y21361528D01*
X72703907Y21349580D01*
X70752773Y21349580D01*
X70631456Y21361528D01*
X70475788Y21408750D01*
X70332330Y21485431D01*
X70206586Y21588626D01*
X70103391Y21714370D01*
X70026710Y21857828D01*
X69979488Y22013496D01*
X69963545Y22175380D01*
X69979488Y22337264D01*
X70026710Y22492932D01*
X70103391Y22636390D01*
X70206586Y22762134D01*
X70332330Y22865329D01*
X70475788Y22942010D01*
X70631456Y22989232D01*
X70752773Y23001180D01*
X72703907Y23001180D01*
X72825224Y22989232D01*
G37*
G36*
X41145224Y22989232D02*
G01*
X41300892Y22942010D01*
X41444350Y22865329D01*
X41570094Y22762134D01*
X41673289Y22636390D01*
X41749970Y22492932D01*
X41797192Y22337264D01*
X41813135Y22175380D01*
X41797192Y22013496D01*
X41749970Y21857828D01*
X41673289Y21714370D01*
X41570094Y21588626D01*
X41444350Y21485431D01*
X41300892Y21408750D01*
X41145224Y21361528D01*
X41023907Y21349580D01*
X39072773Y21349580D01*
X38951456Y21361528D01*
X38795788Y21408750D01*
X38652330Y21485431D01*
X38526586Y21588626D01*
X38423391Y21714370D01*
X38346710Y21857828D01*
X38299488Y22013496D01*
X38283545Y22175380D01*
X38299488Y22337264D01*
X38346710Y22492932D01*
X38423391Y22636390D01*
X38526586Y22762134D01*
X38652330Y22865329D01*
X38795788Y22942010D01*
X38951456Y22989232D01*
X39072773Y23001180D01*
X41023907Y23001180D01*
X41145224Y22989232D01*
G37*
G36*
X45105224Y22989232D02*
G01*
X45260892Y22942010D01*
X45404350Y22865329D01*
X45530094Y22762134D01*
X45633289Y22636390D01*
X45709970Y22492932D01*
X45757192Y22337264D01*
X45773135Y22175380D01*
X45757192Y22013496D01*
X45709970Y21857828D01*
X45633289Y21714370D01*
X45530094Y21588626D01*
X45404350Y21485431D01*
X45260892Y21408750D01*
X45105224Y21361528D01*
X44983907Y21349580D01*
X43032773Y21349580D01*
X42911456Y21361528D01*
X42755788Y21408750D01*
X42612330Y21485431D01*
X42486586Y21588626D01*
X42383391Y21714370D01*
X42306710Y21857828D01*
X42259488Y22013496D01*
X42243545Y22175380D01*
X42259488Y22337264D01*
X42306710Y22492932D01*
X42383391Y22636390D01*
X42486586Y22762134D01*
X42612330Y22865329D01*
X42755788Y22942010D01*
X42911456Y22989232D01*
X43032773Y23001180D01*
X44983907Y23001180D01*
X45105224Y22989232D01*
G37*
G36*
X49065224Y22989232D02*
G01*
X49220892Y22942010D01*
X49364350Y22865329D01*
X49490094Y22762134D01*
X49593289Y22636390D01*
X49669970Y22492932D01*
X49717192Y22337264D01*
X49733135Y22175380D01*
X49717192Y22013496D01*
X49669970Y21857828D01*
X49593289Y21714370D01*
X49490094Y21588626D01*
X49364350Y21485431D01*
X49220892Y21408750D01*
X49065224Y21361528D01*
X48943907Y21349580D01*
X46992773Y21349580D01*
X46871456Y21361528D01*
X46715788Y21408750D01*
X46572330Y21485431D01*
X46446586Y21588626D01*
X46343391Y21714370D01*
X46266710Y21857828D01*
X46219488Y22013496D01*
X46203545Y22175380D01*
X46219488Y22337264D01*
X46266710Y22492932D01*
X46343391Y22636390D01*
X46446586Y22762134D01*
X46572330Y22865329D01*
X46715788Y22942010D01*
X46871456Y22989232D01*
X46992773Y23001180D01*
X48943907Y23001180D01*
X49065224Y22989232D01*
G37*
G36*
X53025224Y22989232D02*
G01*
X53180892Y22942010D01*
X53324350Y22865329D01*
X53450094Y22762134D01*
X53553289Y22636390D01*
X53629970Y22492932D01*
X53677192Y22337264D01*
X53693135Y22175380D01*
X53677192Y22013496D01*
X53629970Y21857828D01*
X53553289Y21714370D01*
X53450094Y21588626D01*
X53324350Y21485431D01*
X53180892Y21408750D01*
X53025224Y21361528D01*
X52903907Y21349580D01*
X50952773Y21349580D01*
X50831456Y21361528D01*
X50675788Y21408750D01*
X50532330Y21485431D01*
X50406586Y21588626D01*
X50303391Y21714370D01*
X50226710Y21857828D01*
X50179488Y22013496D01*
X50163545Y22175380D01*
X50179488Y22337264D01*
X50226710Y22492932D01*
X50303391Y22636390D01*
X50406586Y22762134D01*
X50532330Y22865329D01*
X50675788Y22942010D01*
X50831456Y22989232D01*
X50952773Y23001180D01*
X52903907Y23001180D01*
X53025224Y22989232D01*
G37*
G36*
X56985224Y22989232D02*
G01*
X57140892Y22942010D01*
X57284350Y22865329D01*
X57410094Y22762134D01*
X57513289Y22636390D01*
X57589970Y22492932D01*
X57637192Y22337264D01*
X57653135Y22175380D01*
X57637192Y22013496D01*
X57589970Y21857828D01*
X57513289Y21714370D01*
X57410094Y21588626D01*
X57284350Y21485431D01*
X57140892Y21408750D01*
X56985224Y21361528D01*
X56863907Y21349580D01*
X54912773Y21349580D01*
X54791456Y21361528D01*
X54635788Y21408750D01*
X54492330Y21485431D01*
X54366586Y21588626D01*
X54263391Y21714370D01*
X54186710Y21857828D01*
X54139488Y22013496D01*
X54123545Y22175380D01*
X54139488Y22337264D01*
X54186710Y22492932D01*
X54263391Y22636390D01*
X54366586Y22762134D01*
X54492330Y22865329D01*
X54635788Y22942010D01*
X54791456Y22989232D01*
X54912773Y23001180D01*
X56863907Y23001180D01*
X56985224Y22989232D01*
G37*
G36*
X60945224Y22989232D02*
G01*
X61100892Y22942010D01*
X61244350Y22865329D01*
X61370094Y22762134D01*
X61473289Y22636390D01*
X61549970Y22492932D01*
X61597192Y22337264D01*
X61613135Y22175380D01*
X61597192Y22013496D01*
X61549970Y21857828D01*
X61473289Y21714370D01*
X61370094Y21588626D01*
X61244350Y21485431D01*
X61100892Y21408750D01*
X60945224Y21361528D01*
X60823907Y21349580D01*
X58872773Y21349580D01*
X58751456Y21361528D01*
X58595788Y21408750D01*
X58452330Y21485431D01*
X58326586Y21588626D01*
X58223391Y21714370D01*
X58146710Y21857828D01*
X58099488Y22013496D01*
X58083545Y22175380D01*
X58099488Y22337264D01*
X58146710Y22492932D01*
X58223391Y22636390D01*
X58326586Y22762134D01*
X58452330Y22865329D01*
X58595788Y22942010D01*
X58751456Y22989232D01*
X58872773Y23001180D01*
X60823907Y23001180D01*
X60945224Y22989232D01*
G37*
G36*
X104505224Y22989232D02*
G01*
X104660892Y22942010D01*
X104804350Y22865329D01*
X104930094Y22762134D01*
X105033289Y22636390D01*
X105109970Y22492932D01*
X105157192Y22337264D01*
X105173135Y22175380D01*
X105157192Y22013496D01*
X105109970Y21857828D01*
X105033289Y21714370D01*
X104930094Y21588626D01*
X104804350Y21485431D01*
X104660892Y21408750D01*
X104505224Y21361528D01*
X104383907Y21349580D01*
X102432773Y21349580D01*
X102311456Y21361528D01*
X102155788Y21408750D01*
X102012330Y21485431D01*
X101886586Y21588626D01*
X101783391Y21714370D01*
X101706710Y21857828D01*
X101659488Y22013496D01*
X101643545Y22175380D01*
X101659488Y22337264D01*
X101706710Y22492932D01*
X101783391Y22636390D01*
X101886586Y22762134D01*
X102012330Y22865329D01*
X102155788Y22942010D01*
X102311456Y22989232D01*
X102432773Y23001180D01*
X104383907Y23001180D01*
X104505224Y22989232D01*
G37*
G36*
X68865224Y22989232D02*
G01*
X69020892Y22942010D01*
X69164350Y22865329D01*
X69290094Y22762134D01*
X69393289Y22636390D01*
X69469970Y22492932D01*
X69517192Y22337264D01*
X69533135Y22175380D01*
X69517192Y22013496D01*
X69469970Y21857828D01*
X69393289Y21714370D01*
X69290094Y21588626D01*
X69164350Y21485431D01*
X69020892Y21408750D01*
X68865224Y21361528D01*
X68743907Y21349580D01*
X66792773Y21349580D01*
X66671456Y21361528D01*
X66515788Y21408750D01*
X66372330Y21485431D01*
X66246586Y21588626D01*
X66143391Y21714370D01*
X66066710Y21857828D01*
X66019488Y22013496D01*
X66003545Y22175380D01*
X66019488Y22337264D01*
X66066710Y22492932D01*
X66143391Y22636390D01*
X66246586Y22762134D01*
X66372330Y22865329D01*
X66515788Y22942010D01*
X66671456Y22989232D01*
X66792773Y23001180D01*
X68743907Y23001180D01*
X68865224Y22989232D01*
G37*
G36*
X128265224Y22989232D02*
G01*
X128420892Y22942010D01*
X128564350Y22865329D01*
X128690094Y22762134D01*
X128793289Y22636390D01*
X128869970Y22492932D01*
X128917192Y22337264D01*
X128933135Y22175380D01*
X128917192Y22013496D01*
X128869970Y21857828D01*
X128793289Y21714370D01*
X128690094Y21588626D01*
X128564350Y21485431D01*
X128420892Y21408750D01*
X128265224Y21361528D01*
X128143907Y21349580D01*
X126192773Y21349580D01*
X126071456Y21361528D01*
X125915788Y21408750D01*
X125772330Y21485431D01*
X125646586Y21588626D01*
X125543391Y21714370D01*
X125466710Y21857828D01*
X125419488Y22013496D01*
X125403545Y22175380D01*
X125419488Y22337264D01*
X125466710Y22492932D01*
X125543391Y22636390D01*
X125646586Y22762134D01*
X125772330Y22865329D01*
X125915788Y22942010D01*
X126071456Y22989232D01*
X126192773Y23001180D01*
X128143907Y23001180D01*
X128265224Y22989232D01*
G37*
G36*
X120345224Y22989232D02*
G01*
X120500892Y22942010D01*
X120644350Y22865329D01*
X120770094Y22762134D01*
X120873289Y22636390D01*
X120949970Y22492932D01*
X120997192Y22337264D01*
X121013135Y22175380D01*
X120997192Y22013496D01*
X120949970Y21857828D01*
X120873289Y21714370D01*
X120770094Y21588626D01*
X120644350Y21485431D01*
X120500892Y21408750D01*
X120345224Y21361528D01*
X120223907Y21349580D01*
X118272773Y21349580D01*
X118151456Y21361528D01*
X117995788Y21408750D01*
X117852330Y21485431D01*
X117726586Y21588626D01*
X117623391Y21714370D01*
X117546710Y21857828D01*
X117499488Y22013496D01*
X117483545Y22175380D01*
X117499488Y22337264D01*
X117546710Y22492932D01*
X117623391Y22636390D01*
X117726586Y22762134D01*
X117852330Y22865329D01*
X117995788Y22942010D01*
X118151456Y22989232D01*
X118272773Y23001180D01*
X120223907Y23001180D01*
X120345224Y22989232D01*
G37*
G36*
X116385224Y22989232D02*
G01*
X116540892Y22942010D01*
X116684350Y22865329D01*
X116810094Y22762134D01*
X116913289Y22636390D01*
X116989970Y22492932D01*
X117037192Y22337264D01*
X117053135Y22175380D01*
X117037192Y22013496D01*
X116989970Y21857828D01*
X116913289Y21714370D01*
X116810094Y21588626D01*
X116684350Y21485431D01*
X116540892Y21408750D01*
X116385224Y21361528D01*
X116263907Y21349580D01*
X114312773Y21349580D01*
X114191456Y21361528D01*
X114035788Y21408750D01*
X113892330Y21485431D01*
X113766586Y21588626D01*
X113663391Y21714370D01*
X113586710Y21857828D01*
X113539488Y22013496D01*
X113523545Y22175380D01*
X113539488Y22337264D01*
X113586710Y22492932D01*
X113663391Y22636390D01*
X113766586Y22762134D01*
X113892330Y22865329D01*
X114035788Y22942010D01*
X114191456Y22989232D01*
X114312773Y23001180D01*
X116263907Y23001180D01*
X116385224Y22989232D01*
G37*
G36*
X112425224Y22989232D02*
G01*
X112580892Y22942010D01*
X112724350Y22865329D01*
X112850094Y22762134D01*
X112953289Y22636390D01*
X113029970Y22492932D01*
X113077192Y22337264D01*
X113093135Y22175380D01*
X113077192Y22013496D01*
X113029970Y21857828D01*
X112953289Y21714370D01*
X112850094Y21588626D01*
X112724350Y21485431D01*
X112580892Y21408750D01*
X112425224Y21361528D01*
X112303907Y21349580D01*
X110352773Y21349580D01*
X110231456Y21361528D01*
X110075788Y21408750D01*
X109932330Y21485431D01*
X109806586Y21588626D01*
X109703391Y21714370D01*
X109626710Y21857828D01*
X109579488Y22013496D01*
X109563545Y22175380D01*
X109579488Y22337264D01*
X109626710Y22492932D01*
X109703391Y22636390D01*
X109806586Y22762134D01*
X109932330Y22865329D01*
X110075788Y22942010D01*
X110231456Y22989232D01*
X110352773Y23001180D01*
X112303907Y23001180D01*
X112425224Y22989232D01*
G37*
G36*
X108465224Y22989232D02*
G01*
X108620892Y22942010D01*
X108764350Y22865329D01*
X108890094Y22762134D01*
X108993289Y22636390D01*
X109069970Y22492932D01*
X109117192Y22337264D01*
X109133135Y22175380D01*
X109117192Y22013496D01*
X109069970Y21857828D01*
X108993289Y21714370D01*
X108890094Y21588626D01*
X108764350Y21485431D01*
X108620892Y21408750D01*
X108465224Y21361528D01*
X108343907Y21349580D01*
X106392773Y21349580D01*
X106271456Y21361528D01*
X106115788Y21408750D01*
X105972330Y21485431D01*
X105846586Y21588626D01*
X105743391Y21714370D01*
X105666710Y21857828D01*
X105619488Y22013496D01*
X105603545Y22175380D01*
X105619488Y22337264D01*
X105666710Y22492932D01*
X105743391Y22636390D01*
X105846586Y22762134D01*
X105972330Y22865329D01*
X106115788Y22942010D01*
X106271456Y22989232D01*
X106392773Y23001180D01*
X108343907Y23001180D01*
X108465224Y22989232D01*
G37*
G36*
X124305224Y22989232D02*
G01*
X124460892Y22942010D01*
X124604350Y22865329D01*
X124730094Y22762134D01*
X124833289Y22636390D01*
X124909970Y22492932D01*
X124957192Y22337264D01*
X124973135Y22175380D01*
X124957192Y22013496D01*
X124909970Y21857828D01*
X124833289Y21714370D01*
X124730094Y21588626D01*
X124604350Y21485431D01*
X124460892Y21408750D01*
X124305224Y21361528D01*
X124183907Y21349580D01*
X122232773Y21349580D01*
X122111456Y21361528D01*
X121955788Y21408750D01*
X121812330Y21485431D01*
X121686586Y21588626D01*
X121583391Y21714370D01*
X121506710Y21857828D01*
X121459488Y22013496D01*
X121443545Y22175380D01*
X121459488Y22337264D01*
X121506710Y22492932D01*
X121583391Y22636390D01*
X121686586Y22762134D01*
X121812330Y22865329D01*
X121955788Y22942010D01*
X122111456Y22989232D01*
X122232773Y23001180D01*
X124183907Y23001180D01*
X124305224Y22989232D01*
G37*
G36*
X100545224Y22989232D02*
G01*
X100700892Y22942010D01*
X100844350Y22865329D01*
X100970094Y22762134D01*
X101073289Y22636390D01*
X101149970Y22492932D01*
X101197192Y22337264D01*
X101213135Y22175380D01*
X101197192Y22013496D01*
X101149970Y21857828D01*
X101073289Y21714370D01*
X100970094Y21588626D01*
X100844350Y21485431D01*
X100700892Y21408750D01*
X100545224Y21361528D01*
X100423907Y21349580D01*
X98472773Y21349580D01*
X98351456Y21361528D01*
X98195788Y21408750D01*
X98052330Y21485431D01*
X97926586Y21588626D01*
X97823391Y21714370D01*
X97746710Y21857828D01*
X97699488Y22013496D01*
X97683545Y22175380D01*
X97699488Y22337264D01*
X97746710Y22492932D01*
X97823391Y22636390D01*
X97926586Y22762134D01*
X98052330Y22865329D01*
X98195788Y22942010D01*
X98351456Y22989232D01*
X98472773Y23001180D01*
X100423907Y23001180D01*
X100545224Y22989232D01*
G37*
G36*
X96585224Y22989232D02*
G01*
X96740892Y22942010D01*
X96884350Y22865329D01*
X97010094Y22762134D01*
X97113289Y22636390D01*
X97189970Y22492932D01*
X97237192Y22337264D01*
X97253135Y22175380D01*
X97237192Y22013496D01*
X97189970Y21857828D01*
X97113289Y21714370D01*
X97010094Y21588626D01*
X96884350Y21485431D01*
X96740892Y21408750D01*
X96585224Y21361528D01*
X96463907Y21349580D01*
X94512773Y21349580D01*
X94391456Y21361528D01*
X94235788Y21408750D01*
X94092330Y21485431D01*
X93966586Y21588626D01*
X93863391Y21714370D01*
X93786710Y21857828D01*
X93739488Y22013496D01*
X93723545Y22175380D01*
X93739488Y22337264D01*
X93786710Y22492932D01*
X93863391Y22636390D01*
X93966586Y22762134D01*
X94092330Y22865329D01*
X94235788Y22942010D01*
X94391456Y22989232D01*
X94512773Y23001180D01*
X96463907Y23001180D01*
X96585224Y22989232D01*
G37*
G36*
X92625224Y22989232D02*
G01*
X92780892Y22942010D01*
X92924350Y22865329D01*
X93050094Y22762134D01*
X93153289Y22636390D01*
X93229970Y22492932D01*
X93277192Y22337264D01*
X93293135Y22175380D01*
X93277192Y22013496D01*
X93229970Y21857828D01*
X93153289Y21714370D01*
X93050094Y21588626D01*
X92924350Y21485431D01*
X92780892Y21408750D01*
X92625224Y21361528D01*
X92503907Y21349580D01*
X90552773Y21349580D01*
X90431456Y21361528D01*
X90275788Y21408750D01*
X90132330Y21485431D01*
X90006586Y21588626D01*
X89903391Y21714370D01*
X89826710Y21857828D01*
X89779488Y22013496D01*
X89763545Y22175380D01*
X89779488Y22337264D01*
X89826710Y22492932D01*
X89903391Y22636390D01*
X90006586Y22762134D01*
X90132330Y22865329D01*
X90275788Y22942010D01*
X90431456Y22989232D01*
X90552773Y23001180D01*
X92503907Y23001180D01*
X92625224Y22989232D01*
G37*
G36*
X88665224Y22989232D02*
G01*
X88820892Y22942010D01*
X88964350Y22865329D01*
X89090094Y22762134D01*
X89193289Y22636390D01*
X89269970Y22492932D01*
X89317192Y22337264D01*
X89333135Y22175380D01*
X89317192Y22013496D01*
X89269970Y21857828D01*
X89193289Y21714370D01*
X89090094Y21588626D01*
X88964350Y21485431D01*
X88820892Y21408750D01*
X88665224Y21361528D01*
X88543907Y21349580D01*
X86592773Y21349580D01*
X86471456Y21361528D01*
X86315788Y21408750D01*
X86172330Y21485431D01*
X86046586Y21588626D01*
X85943391Y21714370D01*
X85866710Y21857828D01*
X85819488Y22013496D01*
X85803545Y22175380D01*
X85819488Y22337264D01*
X85866710Y22492932D01*
X85943391Y22636390D01*
X86046586Y22762134D01*
X86172330Y22865329D01*
X86315788Y22942010D01*
X86471456Y22989232D01*
X86592773Y23001180D01*
X88543907Y23001180D01*
X88665224Y22989232D01*
G37*
G36*
X84705224Y22989232D02*
G01*
X84860892Y22942010D01*
X85004350Y22865329D01*
X85130094Y22762134D01*
X85233289Y22636390D01*
X85309970Y22492932D01*
X85357192Y22337264D01*
X85373135Y22175380D01*
X85357192Y22013496D01*
X85309970Y21857828D01*
X85233289Y21714370D01*
X85130094Y21588626D01*
X85004350Y21485431D01*
X84860892Y21408750D01*
X84705224Y21361528D01*
X84583907Y21349580D01*
X82632773Y21349580D01*
X82511456Y21361528D01*
X82355788Y21408750D01*
X82212330Y21485431D01*
X82086586Y21588626D01*
X81983391Y21714370D01*
X81906710Y21857828D01*
X81859488Y22013496D01*
X81843545Y22175380D01*
X81859488Y22337264D01*
X81906710Y22492932D01*
X81983391Y22636390D01*
X82086586Y22762134D01*
X82212330Y22865329D01*
X82355788Y22942010D01*
X82511456Y22989232D01*
X82632773Y23001180D01*
X84583907Y23001180D01*
X84705224Y22989232D01*
G37*
G36*
X80745224Y22989232D02*
G01*
X80900892Y22942010D01*
X81044350Y22865329D01*
X81170094Y22762134D01*
X81273289Y22636390D01*
X81349970Y22492932D01*
X81397192Y22337264D01*
X81413135Y22175380D01*
X81397192Y22013496D01*
X81349970Y21857828D01*
X81273289Y21714370D01*
X81170094Y21588626D01*
X81044350Y21485431D01*
X80900892Y21408750D01*
X80745224Y21361528D01*
X80623907Y21349580D01*
X78672773Y21349580D01*
X78551456Y21361528D01*
X78395788Y21408750D01*
X78252330Y21485431D01*
X78126586Y21588626D01*
X78023391Y21714370D01*
X77946710Y21857828D01*
X77899488Y22013496D01*
X77883545Y22175380D01*
X77899488Y22337264D01*
X77946710Y22492932D01*
X78023391Y22636390D01*
X78126586Y22762134D01*
X78252330Y22865329D01*
X78395788Y22942010D01*
X78551456Y22989232D01*
X78672773Y23001180D01*
X80623907Y23001180D01*
X80745224Y22989232D01*
G37*
G36*
X64905224Y22989232D02*
G01*
X65060892Y22942010D01*
X65204350Y22865329D01*
X65330094Y22762134D01*
X65433289Y22636390D01*
X65509970Y22492932D01*
X65557192Y22337264D01*
X65573135Y22175380D01*
X65557192Y22013496D01*
X65509970Y21857828D01*
X65433289Y21714370D01*
X65330094Y21588626D01*
X65204350Y21485431D01*
X65060892Y21408750D01*
X64905224Y21361528D01*
X64783907Y21349580D01*
X62832773Y21349580D01*
X62711456Y21361528D01*
X62555788Y21408750D01*
X62412330Y21485431D01*
X62286586Y21588626D01*
X62183391Y21714370D01*
X62106710Y21857828D01*
X62059488Y22013496D01*
X62043545Y22175380D01*
X62059488Y22337264D01*
X62106710Y22492932D01*
X62183391Y22636390D01*
X62286586Y22762134D01*
X62412330Y22865329D01*
X62555788Y22942010D01*
X62711456Y22989232D01*
X62832773Y23001180D01*
X64783907Y23001180D01*
X64905224Y22989232D01*
G37*
G36*
X76785224Y22989232D02*
G01*
X76940892Y22942010D01*
X77084350Y22865329D01*
X77210094Y22762134D01*
X77313289Y22636390D01*
X77389970Y22492932D01*
X77437192Y22337264D01*
X77453135Y22175380D01*
X77437192Y22013496D01*
X77389970Y21857828D01*
X77313289Y21714370D01*
X77210094Y21588626D01*
X77084350Y21485431D01*
X76940892Y21408750D01*
X76785224Y21361528D01*
X76663907Y21349580D01*
X74712773Y21349580D01*
X74591456Y21361528D01*
X74435788Y21408750D01*
X74292330Y21485431D01*
X74166586Y21588626D01*
X74063391Y21714370D01*
X73986710Y21857828D01*
X73939488Y22013496D01*
X73923545Y22175380D01*
X73939488Y22337264D01*
X73986710Y22492932D01*
X74063391Y22636390D01*
X74166586Y22762134D01*
X74292330Y22865329D01*
X74435788Y22942010D01*
X74591456Y22989232D01*
X74712773Y23001180D01*
X76663907Y23001180D01*
X76785224Y22989232D01*
G37*
G36*
X17385224Y22989232D02*
G01*
X17540892Y22942010D01*
X17684350Y22865329D01*
X17810094Y22762134D01*
X17913289Y22636390D01*
X17989970Y22492932D01*
X18037192Y22337264D01*
X18053135Y22175380D01*
X18037192Y22013496D01*
X17989970Y21857828D01*
X17913289Y21714370D01*
X17810094Y21588626D01*
X17684350Y21485431D01*
X17540892Y21408750D01*
X17385224Y21361528D01*
X17263907Y21349580D01*
X15312773Y21349580D01*
X15191456Y21361528D01*
X15035788Y21408750D01*
X14892330Y21485431D01*
X14766586Y21588626D01*
X14663391Y21714370D01*
X14586710Y21857828D01*
X14539488Y22013496D01*
X14523545Y22175380D01*
X14539488Y22337264D01*
X14586710Y22492932D01*
X14663391Y22636390D01*
X14766586Y22762134D01*
X14892330Y22865329D01*
X15035788Y22942010D01*
X15191456Y22989232D01*
X15312773Y23001180D01*
X17263907Y23001180D01*
X17385224Y22989232D01*
G37*
G36*
X160461183Y29896177D02*
G01*
X160592943Y29841600D01*
X160711523Y29762367D01*
X160812367Y29661523D01*
X160891600Y29542943D01*
X160946177Y29411183D01*
X160974000Y29271308D01*
X160974000Y29128692D01*
X160946177Y28988817D01*
X160891600Y28857057D01*
X160812367Y28738477D01*
X160711523Y28637633D01*
X160592943Y28558400D01*
X160461183Y28503823D01*
X160321308Y28476000D01*
X160178692Y28476000D01*
X160038817Y28503823D01*
X159907057Y28558400D01*
X159788477Y28637633D01*
X159687633Y28738477D01*
X159608400Y28857057D01*
X159553823Y28988817D01*
X159526000Y29128692D01*
X159526000Y29271308D01*
X159553823Y29411183D01*
X159608400Y29542943D01*
X159687633Y29661523D01*
X159788477Y29762367D01*
X159907057Y29841600D01*
X160038817Y29896177D01*
X160178692Y29924000D01*
X160321308Y29924000D01*
X160461183Y29896177D01*
G37*
G36*
X2302352Y32841204D02*
G01*
X2302355Y32841203D01*
X2302354Y32841203D01*
X2584580Y32724301D01*
X2838578Y32554585D01*
X3054585Y32338578D01*
X3224301Y32084580D01*
X3296124Y31911185D01*
X3341204Y31802352D01*
X3400800Y31502741D01*
X3400800Y31197259D01*
X3341204Y30897648D01*
X3341203Y30897646D01*
X3224301Y30615420D01*
X3054585Y30361422D01*
X2838578Y30145415D01*
X2584580Y29975699D01*
X2392597Y29896177D01*
X2302352Y29858796D01*
X2002741Y29799200D01*
X1697259Y29799200D01*
X1397648Y29858796D01*
X1307403Y29896177D01*
X1115420Y29975699D01*
X861422Y30145415D01*
X645415Y30361422D01*
X475699Y30615420D01*
X358797Y30897646D01*
X358796Y30897648D01*
X299200Y31197259D01*
X299200Y31502741D01*
X358796Y31802352D01*
X403876Y31911185D01*
X475699Y32084580D01*
X645415Y32338578D01*
X861422Y32554585D01*
X1115420Y32724301D01*
X1397646Y32841203D01*
X1397645Y32841203D01*
X1397648Y32841204D01*
X1697259Y32900800D01*
X2002741Y32900800D01*
X2302352Y32841204D01*
G37*
G36*
X137291269Y32184725D02*
G01*
X137446105Y32120589D01*
X137585454Y32027480D01*
X137703960Y31908974D01*
X137797069Y31769625D01*
X137861205Y31614789D01*
X137893900Y31450417D01*
X137893900Y31282823D01*
X137861205Y31118451D01*
X137797069Y30963615D01*
X137703960Y30824266D01*
X137585454Y30705760D01*
X137446105Y30612651D01*
X137291269Y30548515D01*
X137126897Y30515820D01*
X136959303Y30515820D01*
X136794931Y30548515D01*
X136640095Y30612651D01*
X136500746Y30705760D01*
X136382240Y30824266D01*
X136289131Y30963615D01*
X136224995Y31118451D01*
X136192300Y31282823D01*
X136192300Y31450417D01*
X136224995Y31614789D01*
X136289131Y31769625D01*
X136382240Y31908974D01*
X136500746Y32027480D01*
X136640095Y32120589D01*
X136794931Y32184725D01*
X136959303Y32217420D01*
X137126897Y32217420D01*
X137291269Y32184725D01*
G37*
G36*
X160753900Y30515820D02*
G01*
X159052300Y30515820D01*
X159052300Y32217420D01*
X160753900Y32217420D01*
X160753900Y30515820D01*
G37*
G36*
X157611269Y32184725D02*
G01*
X157766105Y32120589D01*
X157905454Y32027480D01*
X158023960Y31908974D01*
X158117069Y31769625D01*
X158181205Y31614789D01*
X158213900Y31450417D01*
X158213900Y31282823D01*
X158181205Y31118451D01*
X158117069Y30963615D01*
X158023960Y30824266D01*
X157905454Y30705760D01*
X157766105Y30612651D01*
X157611269Y30548515D01*
X157446897Y30515820D01*
X157279303Y30515820D01*
X157114931Y30548515D01*
X156960095Y30612651D01*
X156820746Y30705760D01*
X156702240Y30824266D01*
X156609131Y30963615D01*
X156544995Y31118451D01*
X156512300Y31282823D01*
X156512300Y31450417D01*
X156544995Y31614789D01*
X156609131Y31769625D01*
X156702240Y31908974D01*
X156820746Y32027480D01*
X156960095Y32120589D01*
X157114931Y32184725D01*
X157279303Y32217420D01*
X157446897Y32217420D01*
X157611269Y32184725D01*
G37*
G36*
X155071269Y32184725D02*
G01*
X155226105Y32120589D01*
X155365454Y32027480D01*
X155483960Y31908974D01*
X155577069Y31769625D01*
X155641205Y31614789D01*
X155673900Y31450417D01*
X155673900Y31282823D01*
X155641205Y31118451D01*
X155577069Y30963615D01*
X155483960Y30824266D01*
X155365454Y30705760D01*
X155226105Y30612651D01*
X155071269Y30548515D01*
X154906897Y30515820D01*
X154739303Y30515820D01*
X154574931Y30548515D01*
X154420095Y30612651D01*
X154280746Y30705760D01*
X154162240Y30824266D01*
X154069131Y30963615D01*
X154004995Y31118451D01*
X153972300Y31282823D01*
X153972300Y31450417D01*
X154004995Y31614789D01*
X154069131Y31769625D01*
X154162240Y31908974D01*
X154280746Y32027480D01*
X154420095Y32120589D01*
X154574931Y32184725D01*
X154739303Y32217420D01*
X154906897Y32217420D01*
X155071269Y32184725D01*
G37*
G36*
X152531269Y32184725D02*
G01*
X152686105Y32120589D01*
X152825454Y32027480D01*
X152943960Y31908974D01*
X153037069Y31769625D01*
X153101205Y31614789D01*
X153133900Y31450417D01*
X153133900Y31282823D01*
X153101205Y31118451D01*
X153037069Y30963615D01*
X152943960Y30824266D01*
X152825454Y30705760D01*
X152686105Y30612651D01*
X152531269Y30548515D01*
X152366897Y30515820D01*
X152199303Y30515820D01*
X152034931Y30548515D01*
X151880095Y30612651D01*
X151740746Y30705760D01*
X151622240Y30824266D01*
X151529131Y30963615D01*
X151464995Y31118451D01*
X151432300Y31282823D01*
X151432300Y31450417D01*
X151464995Y31614789D01*
X151529131Y31769625D01*
X151622240Y31908974D01*
X151740746Y32027480D01*
X151880095Y32120589D01*
X152034931Y32184725D01*
X152199303Y32217420D01*
X152366897Y32217420D01*
X152531269Y32184725D01*
G37*
G36*
X149991269Y32184725D02*
G01*
X150146105Y32120589D01*
X150285454Y32027480D01*
X150403960Y31908974D01*
X150497069Y31769625D01*
X150561205Y31614789D01*
X150593900Y31450417D01*
X150593900Y31282823D01*
X150561205Y31118451D01*
X150497069Y30963615D01*
X150403960Y30824266D01*
X150285454Y30705760D01*
X150146105Y30612651D01*
X149991269Y30548515D01*
X149826897Y30515820D01*
X149659303Y30515820D01*
X149494931Y30548515D01*
X149340095Y30612651D01*
X149200746Y30705760D01*
X149082240Y30824266D01*
X148989131Y30963615D01*
X148924995Y31118451D01*
X148892300Y31282823D01*
X148892300Y31450417D01*
X148924995Y31614789D01*
X148989131Y31769625D01*
X149082240Y31908974D01*
X149200746Y32027480D01*
X149340095Y32120589D01*
X149494931Y32184725D01*
X149659303Y32217420D01*
X149826897Y32217420D01*
X149991269Y32184725D01*
G37*
G36*
X147451269Y32184725D02*
G01*
X147606105Y32120589D01*
X147745454Y32027480D01*
X147863960Y31908974D01*
X147957069Y31769625D01*
X148021205Y31614789D01*
X148053900Y31450417D01*
X148053900Y31282823D01*
X148021205Y31118451D01*
X147957069Y30963615D01*
X147863960Y30824266D01*
X147745454Y30705760D01*
X147606105Y30612651D01*
X147451269Y30548515D01*
X147286897Y30515820D01*
X147119303Y30515820D01*
X146954931Y30548515D01*
X146800095Y30612651D01*
X146660746Y30705760D01*
X146542240Y30824266D01*
X146449131Y30963615D01*
X146384995Y31118451D01*
X146352300Y31282823D01*
X146352300Y31450417D01*
X146384995Y31614789D01*
X146449131Y31769625D01*
X146542240Y31908974D01*
X146660746Y32027480D01*
X146800095Y32120589D01*
X146954931Y32184725D01*
X147119303Y32217420D01*
X147286897Y32217420D01*
X147451269Y32184725D01*
G37*
G36*
X144911269Y32184725D02*
G01*
X145066105Y32120589D01*
X145205454Y32027480D01*
X145323960Y31908974D01*
X145417069Y31769625D01*
X145481205Y31614789D01*
X145513900Y31450417D01*
X145513900Y31282823D01*
X145481205Y31118451D01*
X145417069Y30963615D01*
X145323960Y30824266D01*
X145205454Y30705760D01*
X145066105Y30612651D01*
X144911269Y30548515D01*
X144746897Y30515820D01*
X144579303Y30515820D01*
X144414931Y30548515D01*
X144260095Y30612651D01*
X144120746Y30705760D01*
X144002240Y30824266D01*
X143909131Y30963615D01*
X143844995Y31118451D01*
X143812300Y31282823D01*
X143812300Y31450417D01*
X143844995Y31614789D01*
X143909131Y31769625D01*
X144002240Y31908974D01*
X144120746Y32027480D01*
X144260095Y32120589D01*
X144414931Y32184725D01*
X144579303Y32217420D01*
X144746897Y32217420D01*
X144911269Y32184725D01*
G37*
G36*
X142371269Y32184725D02*
G01*
X142526105Y32120589D01*
X142665454Y32027480D01*
X142783960Y31908974D01*
X142877069Y31769625D01*
X142941205Y31614789D01*
X142973900Y31450417D01*
X142973900Y31282823D01*
X142941205Y31118451D01*
X142877069Y30963615D01*
X142783960Y30824266D01*
X142665454Y30705760D01*
X142526105Y30612651D01*
X142371269Y30548515D01*
X142206897Y30515820D01*
X142039303Y30515820D01*
X141874931Y30548515D01*
X141720095Y30612651D01*
X141580746Y30705760D01*
X141462240Y30824266D01*
X141369131Y30963615D01*
X141304995Y31118451D01*
X141272300Y31282823D01*
X141272300Y31450417D01*
X141304995Y31614789D01*
X141369131Y31769625D01*
X141462240Y31908974D01*
X141580746Y32027480D01*
X141720095Y32120589D01*
X141874931Y32184725D01*
X142039303Y32217420D01*
X142206897Y32217420D01*
X142371269Y32184725D01*
G37*
G36*
X132211269Y32184725D02*
G01*
X132366105Y32120589D01*
X132505454Y32027480D01*
X132623960Y31908974D01*
X132717069Y31769625D01*
X132781205Y31614789D01*
X132813900Y31450417D01*
X132813900Y31282823D01*
X132781205Y31118451D01*
X132717069Y30963615D01*
X132623960Y30824266D01*
X132505454Y30705760D01*
X132366105Y30612651D01*
X132211269Y30548515D01*
X132046897Y30515820D01*
X131879303Y30515820D01*
X131714931Y30548515D01*
X131560095Y30612651D01*
X131420746Y30705760D01*
X131302240Y30824266D01*
X131209131Y30963615D01*
X131144995Y31118451D01*
X131112300Y31282823D01*
X131112300Y31450417D01*
X131144995Y31614789D01*
X131209131Y31769625D01*
X131302240Y31908974D01*
X131420746Y32027480D01*
X131560095Y32120589D01*
X131714931Y32184725D01*
X131879303Y32217420D01*
X132046897Y32217420D01*
X132211269Y32184725D01*
G37*
G36*
X134751269Y32184725D02*
G01*
X134906105Y32120589D01*
X135045454Y32027480D01*
X135163960Y31908974D01*
X135257069Y31769625D01*
X135321205Y31614789D01*
X135353900Y31450417D01*
X135353900Y31282823D01*
X135321205Y31118451D01*
X135257069Y30963615D01*
X135163960Y30824266D01*
X135045454Y30705760D01*
X134906105Y30612651D01*
X134751269Y30548515D01*
X134586897Y30515820D01*
X134419303Y30515820D01*
X134254931Y30548515D01*
X134100095Y30612651D01*
X133960746Y30705760D01*
X133842240Y30824266D01*
X133749131Y30963615D01*
X133684995Y31118451D01*
X133652300Y31282823D01*
X133652300Y31450417D01*
X133684995Y31614789D01*
X133749131Y31769625D01*
X133842240Y31908974D01*
X133960746Y32027480D01*
X134100095Y32120589D01*
X134254931Y32184725D01*
X134419303Y32217420D01*
X134586897Y32217420D01*
X134751269Y32184725D01*
G37*
G36*
X139831269Y32184725D02*
G01*
X139986105Y32120589D01*
X140125454Y32027480D01*
X140243960Y31908974D01*
X140337069Y31769625D01*
X140401205Y31614789D01*
X140433900Y31450417D01*
X140433900Y31282823D01*
X140401205Y31118451D01*
X140337069Y30963615D01*
X140243960Y30824266D01*
X140125454Y30705760D01*
X139986105Y30612651D01*
X139831269Y30548515D01*
X139666897Y30515820D01*
X139499303Y30515820D01*
X139334931Y30548515D01*
X139180095Y30612651D01*
X139040746Y30705760D01*
X138922240Y30824266D01*
X138829131Y30963615D01*
X138764995Y31118451D01*
X138732300Y31282823D01*
X138732300Y31450417D01*
X138764995Y31614789D01*
X138829131Y31769625D01*
X138922240Y31908974D01*
X139040746Y32027480D01*
X139180095Y32120589D01*
X139334931Y32184725D01*
X139499303Y32217420D01*
X139666897Y32217420D01*
X139831269Y32184725D01*
G37*
G36*
X5711183Y32396177D02*
G01*
X5842943Y32341600D01*
X5961523Y32262367D01*
X6062367Y32161523D01*
X6141600Y32042943D01*
X6196177Y31911183D01*
X6224000Y31771308D01*
X6224000Y31628692D01*
X6196177Y31488817D01*
X6141600Y31357057D01*
X6062367Y31238477D01*
X5961523Y31137633D01*
X5842943Y31058400D01*
X5711183Y31003823D01*
X5571308Y30976000D01*
X5428692Y30976000D01*
X5288817Y31003823D01*
X5157057Y31058400D01*
X5038477Y31137633D01*
X4937633Y31238477D01*
X4858400Y31357057D01*
X4803823Y31488817D01*
X4776000Y31628692D01*
X4776000Y31771308D01*
X4803823Y31911183D01*
X4858400Y32042943D01*
X4937633Y32161523D01*
X5038477Y32262367D01*
X5157057Y32341600D01*
X5288817Y32396177D01*
X5428692Y32424000D01*
X5571308Y32424000D01*
X5711183Y32396177D01*
G37*
M02*
