G04 #@! TF.GenerationSoftware,KiCad,Pcbnew,5.1.6+dfsg1-1~bpo10+1*
G04 #@! TF.CreationDate,2020-08-17T15:44:58+03:00*
G04 #@! TF.ProjectId,beam_p,6265616d-5f70-42e6-9b69-6361645f7063,0.0.3*
G04 #@! TF.SameCoordinates,PX6a55ae0PY872eef0*
G04 #@! TF.FileFunction,Paste,Bot*
G04 #@! TF.FilePolarity,Positive*
%FSLAX46Y46*%
G04 Gerber Fmt 4.6, Leading zero omitted, Abs format (unit mm)*
G04 Created by KiCad (PCBNEW 5.1.6+dfsg1-1~bpo10+1) date 2020-08-17 15:44:58*
%MOMM*%
%LPD*%
G01*
G04 APERTURE LIST*
%ADD10R,0.800000X0.500000*%
%ADD11R,0.800000X0.400000*%
G04 APERTURE END LIST*
G36*
G01*
X30675000Y10799999D02*
X30675000Y11700001D01*
G75*
G02*
X30924999Y11950000I249999J0D01*
G01*
X31575001Y11950000D01*
G75*
G02*
X31825000Y11700001I0J-249999D01*
G01*
X31825000Y10799999D01*
G75*
G02*
X31575001Y10550000I-249999J0D01*
G01*
X30924999Y10550000D01*
G75*
G02*
X30675000Y10799999I0J249999D01*
G01*
G37*
G36*
G01*
X28625000Y10799999D02*
X28625000Y11700001D01*
G75*
G02*
X28874999Y11950000I249999J0D01*
G01*
X29525001Y11950000D01*
G75*
G02*
X29775000Y11700001I0J-249999D01*
G01*
X29775000Y10799999D01*
G75*
G02*
X29525001Y10550000I-249999J0D01*
G01*
X28874999Y10550000D01*
G75*
G02*
X28625000Y10799999I0J249999D01*
G01*
G37*
G36*
G01*
X29800000Y13700001D02*
X29800000Y12799999D01*
G75*
G02*
X29550001Y12550000I-249999J0D01*
G01*
X28899999Y12550000D01*
G75*
G02*
X28650000Y12799999I0J249999D01*
G01*
X28650000Y13700001D01*
G75*
G02*
X28899999Y13950000I249999J0D01*
G01*
X29550001Y13950000D01*
G75*
G02*
X29800000Y13700001I0J-249999D01*
G01*
G37*
G36*
G01*
X31850000Y13700001D02*
X31850000Y12799999D01*
G75*
G02*
X31600001Y12550000I-249999J0D01*
G01*
X30949999Y12550000D01*
G75*
G02*
X30700000Y12799999I0J249999D01*
G01*
X30700000Y13700001D01*
G75*
G02*
X30949999Y13950000I249999J0D01*
G01*
X31600001Y13950000D01*
G75*
G02*
X31850000Y13700001I0J-249999D01*
G01*
G37*
G36*
G01*
X139282959Y4247480D02*
X140182961Y4247480D01*
G75*
G02*
X140432960Y3997481I0J-249999D01*
G01*
X140432960Y3347479D01*
G75*
G02*
X140182961Y3097480I-249999J0D01*
G01*
X139282959Y3097480D01*
G75*
G02*
X139032960Y3347479I0J249999D01*
G01*
X139032960Y3997481D01*
G75*
G02*
X139282959Y4247480I249999J0D01*
G01*
G37*
G36*
G01*
X139282959Y6297480D02*
X140182961Y6297480D01*
G75*
G02*
X140432960Y6047481I0J-249999D01*
G01*
X140432960Y5397479D01*
G75*
G02*
X140182961Y5147480I-249999J0D01*
G01*
X139282959Y5147480D01*
G75*
G02*
X139032960Y5397479I0J249999D01*
G01*
X139032960Y6047481D01*
G75*
G02*
X139282959Y6297480I249999J0D01*
G01*
G37*
G36*
G01*
X133527320Y3290741D02*
X133527320Y2390739D01*
G75*
G02*
X133277321Y2140740I-249999J0D01*
G01*
X132627319Y2140740D01*
G75*
G02*
X132377320Y2390739I0J249999D01*
G01*
X132377320Y3290741D01*
G75*
G02*
X132627319Y3540740I249999J0D01*
G01*
X133277321Y3540740D01*
G75*
G02*
X133527320Y3290741I0J-249999D01*
G01*
G37*
G36*
G01*
X135577320Y3290741D02*
X135577320Y2390739D01*
G75*
G02*
X135327321Y2140740I-249999J0D01*
G01*
X134677319Y2140740D01*
G75*
G02*
X134427320Y2390739I0J249999D01*
G01*
X134427320Y3290741D01*
G75*
G02*
X134677319Y3540740I249999J0D01*
G01*
X135327321Y3540740D01*
G75*
G02*
X135577320Y3290741I0J-249999D01*
G01*
G37*
G36*
G01*
X137742021Y5518320D02*
X136842019Y5518320D01*
G75*
G02*
X136592020Y5768319I0J249999D01*
G01*
X136592020Y6418321D01*
G75*
G02*
X136842019Y6668320I249999J0D01*
G01*
X137742021Y6668320D01*
G75*
G02*
X137992020Y6418321I0J-249999D01*
G01*
X137992020Y5768319D01*
G75*
G02*
X137742021Y5518320I-249999J0D01*
G01*
G37*
G36*
G01*
X137742021Y3468320D02*
X136842019Y3468320D01*
G75*
G02*
X136592020Y3718319I0J249999D01*
G01*
X136592020Y4368321D01*
G75*
G02*
X136842019Y4618320I249999J0D01*
G01*
X137742021Y4618320D01*
G75*
G02*
X137992020Y4368321I0J-249999D01*
G01*
X137992020Y3718319D01*
G75*
G02*
X137742021Y3468320I-249999J0D01*
G01*
G37*
G36*
G01*
X160652821Y10722780D02*
X159752819Y10722780D01*
G75*
G02*
X159502820Y10972779I0J249999D01*
G01*
X159502820Y11622781D01*
G75*
G02*
X159752819Y11872780I249999J0D01*
G01*
X160652821Y11872780D01*
G75*
G02*
X160902820Y11622781I0J-249999D01*
G01*
X160902820Y10972779D01*
G75*
G02*
X160652821Y10722780I-249999J0D01*
G01*
G37*
G36*
G01*
X160652821Y8672780D02*
X159752819Y8672780D01*
G75*
G02*
X159502820Y8922779I0J249999D01*
G01*
X159502820Y9572781D01*
G75*
G02*
X159752819Y9822780I249999J0D01*
G01*
X160652821Y9822780D01*
G75*
G02*
X160902820Y9572781I0J-249999D01*
G01*
X160902820Y8922779D01*
G75*
G02*
X160652821Y8672780I-249999J0D01*
G01*
G37*
G36*
G01*
X158346501Y10716540D02*
X157446499Y10716540D01*
G75*
G02*
X157196500Y10966539I0J249999D01*
G01*
X157196500Y11616541D01*
G75*
G02*
X157446499Y11866540I249999J0D01*
G01*
X158346501Y11866540D01*
G75*
G02*
X158596500Y11616541I0J-249999D01*
G01*
X158596500Y10966539D01*
G75*
G02*
X158346501Y10716540I-249999J0D01*
G01*
G37*
G36*
G01*
X158346501Y8666540D02*
X157446499Y8666540D01*
G75*
G02*
X157196500Y8916539I0J249999D01*
G01*
X157196500Y9566541D01*
G75*
G02*
X157446499Y9816540I249999J0D01*
G01*
X158346501Y9816540D01*
G75*
G02*
X158596500Y9566541I0J-249999D01*
G01*
X158596500Y8916539D01*
G75*
G02*
X158346501Y8666540I-249999J0D01*
G01*
G37*
G36*
G01*
X139032340Y7681559D02*
X139032340Y8581561D01*
G75*
G02*
X139282339Y8831560I249999J0D01*
G01*
X139932341Y8831560D01*
G75*
G02*
X140182340Y8581561I0J-249999D01*
G01*
X140182340Y7681559D01*
G75*
G02*
X139932341Y7431560I-249999J0D01*
G01*
X139282339Y7431560D01*
G75*
G02*
X139032340Y7681559I0J249999D01*
G01*
G37*
G36*
G01*
X136982340Y7681559D02*
X136982340Y8581561D01*
G75*
G02*
X137232339Y8831560I249999J0D01*
G01*
X137882341Y8831560D01*
G75*
G02*
X138132340Y8581561I0J-249999D01*
G01*
X138132340Y7681559D01*
G75*
G02*
X137882341Y7431560I-249999J0D01*
G01*
X137232339Y7431560D01*
G75*
G02*
X136982340Y7681559I0J249999D01*
G01*
G37*
G36*
G01*
X114332539Y5116160D02*
X115232541Y5116160D01*
G75*
G02*
X115482540Y4866161I0J-249999D01*
G01*
X115482540Y4216159D01*
G75*
G02*
X115232541Y3966160I-249999J0D01*
G01*
X114332539Y3966160D01*
G75*
G02*
X114082540Y4216159I0J249999D01*
G01*
X114082540Y4866161D01*
G75*
G02*
X114332539Y5116160I249999J0D01*
G01*
G37*
G36*
G01*
X114332539Y7166160D02*
X115232541Y7166160D01*
G75*
G02*
X115482540Y6916161I0J-249999D01*
G01*
X115482540Y6266159D01*
G75*
G02*
X115232541Y6016160I-249999J0D01*
G01*
X114332539Y6016160D01*
G75*
G02*
X114082540Y6266159I0J249999D01*
G01*
X114082540Y6916161D01*
G75*
G02*
X114332539Y7166160I249999J0D01*
G01*
G37*
G36*
G01*
X81831719Y5116160D02*
X82731721Y5116160D01*
G75*
G02*
X82981720Y4866161I0J-249999D01*
G01*
X82981720Y4216159D01*
G75*
G02*
X82731721Y3966160I-249999J0D01*
G01*
X81831719Y3966160D01*
G75*
G02*
X81581720Y4216159I0J249999D01*
G01*
X81581720Y4866161D01*
G75*
G02*
X81831719Y5116160I249999J0D01*
G01*
G37*
G36*
G01*
X81831719Y7166160D02*
X82731721Y7166160D01*
G75*
G02*
X82981720Y6916161I0J-249999D01*
G01*
X82981720Y6266159D01*
G75*
G02*
X82731721Y6016160I-249999J0D01*
G01*
X81831719Y6016160D01*
G75*
G02*
X81581720Y6266159I0J249999D01*
G01*
X81581720Y6916161D01*
G75*
G02*
X81831719Y7166160I249999J0D01*
G01*
G37*
G36*
G01*
X152273361Y5988220D02*
X151373359Y5988220D01*
G75*
G02*
X151123360Y6238219I0J249999D01*
G01*
X151123360Y6888221D01*
G75*
G02*
X151373359Y7138220I249999J0D01*
G01*
X152273361Y7138220D01*
G75*
G02*
X152523360Y6888221I0J-249999D01*
G01*
X152523360Y6238219D01*
G75*
G02*
X152273361Y5988220I-249999J0D01*
G01*
G37*
G36*
G01*
X152273361Y3938220D02*
X151373359Y3938220D01*
G75*
G02*
X151123360Y4188219I0J249999D01*
G01*
X151123360Y4838221D01*
G75*
G02*
X151373359Y5088220I249999J0D01*
G01*
X152273361Y5088220D01*
G75*
G02*
X152523360Y4838221I0J-249999D01*
G01*
X152523360Y4188219D01*
G75*
G02*
X152273361Y3938220I-249999J0D01*
G01*
G37*
G36*
G01*
X47092139Y5116160D02*
X47992141Y5116160D01*
G75*
G02*
X48242140Y4866161I0J-249999D01*
G01*
X48242140Y4216159D01*
G75*
G02*
X47992141Y3966160I-249999J0D01*
G01*
X47092139Y3966160D01*
G75*
G02*
X46842140Y4216159I0J249999D01*
G01*
X46842140Y4866161D01*
G75*
G02*
X47092139Y5116160I249999J0D01*
G01*
G37*
G36*
G01*
X47092139Y7166160D02*
X47992141Y7166160D01*
G75*
G02*
X48242140Y6916161I0J-249999D01*
G01*
X48242140Y6266159D01*
G75*
G02*
X47992141Y6016160I-249999J0D01*
G01*
X47092139Y6016160D01*
G75*
G02*
X46842140Y6266159I0J249999D01*
G01*
X46842140Y6916161D01*
G75*
G02*
X47092139Y7166160I249999J0D01*
G01*
G37*
G36*
G01*
X129460780Y3290741D02*
X129460780Y2390739D01*
G75*
G02*
X129210781Y2140740I-249999J0D01*
G01*
X128560779Y2140740D01*
G75*
G02*
X128310780Y2390739I0J249999D01*
G01*
X128310780Y3290741D01*
G75*
G02*
X128560779Y3540740I249999J0D01*
G01*
X129210781Y3540740D01*
G75*
G02*
X129460780Y3290741I0J-249999D01*
G01*
G37*
G36*
G01*
X131510780Y3290741D02*
X131510780Y2390739D01*
G75*
G02*
X131260781Y2140740I-249999J0D01*
G01*
X130610779Y2140740D01*
G75*
G02*
X130360780Y2390739I0J249999D01*
G01*
X130360780Y3290741D01*
G75*
G02*
X130610779Y3540740I249999J0D01*
G01*
X131260781Y3540740D01*
G75*
G02*
X131510780Y3290741I0J-249999D01*
G01*
G37*
G36*
G01*
X85310780Y9046640D02*
X85610780Y9046640D01*
G75*
G02*
X85760780Y8896640I0J-150000D01*
G01*
X85760780Y7246640D01*
G75*
G02*
X85610780Y7096640I-150000J0D01*
G01*
X85310780Y7096640D01*
G75*
G02*
X85160780Y7246640I0J150000D01*
G01*
X85160780Y8896640D01*
G75*
G02*
X85310780Y9046640I150000J0D01*
G01*
G37*
G36*
G01*
X86580780Y9046640D02*
X86880780Y9046640D01*
G75*
G02*
X87030780Y8896640I0J-150000D01*
G01*
X87030780Y7246640D01*
G75*
G02*
X86880780Y7096640I-150000J0D01*
G01*
X86580780Y7096640D01*
G75*
G02*
X86430780Y7246640I0J150000D01*
G01*
X86430780Y8896640D01*
G75*
G02*
X86580780Y9046640I150000J0D01*
G01*
G37*
G36*
G01*
X87850780Y9046640D02*
X88150780Y9046640D01*
G75*
G02*
X88300780Y8896640I0J-150000D01*
G01*
X88300780Y7246640D01*
G75*
G02*
X88150780Y7096640I-150000J0D01*
G01*
X87850780Y7096640D01*
G75*
G02*
X87700780Y7246640I0J150000D01*
G01*
X87700780Y8896640D01*
G75*
G02*
X87850780Y9046640I150000J0D01*
G01*
G37*
G36*
G01*
X89120780Y9046640D02*
X89420780Y9046640D01*
G75*
G02*
X89570780Y8896640I0J-150000D01*
G01*
X89570780Y7246640D01*
G75*
G02*
X89420780Y7096640I-150000J0D01*
G01*
X89120780Y7096640D01*
G75*
G02*
X88970780Y7246640I0J150000D01*
G01*
X88970780Y8896640D01*
G75*
G02*
X89120780Y9046640I150000J0D01*
G01*
G37*
G36*
G01*
X90390780Y9046640D02*
X90690780Y9046640D01*
G75*
G02*
X90840780Y8896640I0J-150000D01*
G01*
X90840780Y7246640D01*
G75*
G02*
X90690780Y7096640I-150000J0D01*
G01*
X90390780Y7096640D01*
G75*
G02*
X90240780Y7246640I0J150000D01*
G01*
X90240780Y8896640D01*
G75*
G02*
X90390780Y9046640I150000J0D01*
G01*
G37*
G36*
G01*
X91660780Y9046640D02*
X91960780Y9046640D01*
G75*
G02*
X92110780Y8896640I0J-150000D01*
G01*
X92110780Y7246640D01*
G75*
G02*
X91960780Y7096640I-150000J0D01*
G01*
X91660780Y7096640D01*
G75*
G02*
X91510780Y7246640I0J150000D01*
G01*
X91510780Y8896640D01*
G75*
G02*
X91660780Y9046640I150000J0D01*
G01*
G37*
G36*
G01*
X92930780Y9046640D02*
X93230780Y9046640D01*
G75*
G02*
X93380780Y8896640I0J-150000D01*
G01*
X93380780Y7246640D01*
G75*
G02*
X93230780Y7096640I-150000J0D01*
G01*
X92930780Y7096640D01*
G75*
G02*
X92780780Y7246640I0J150000D01*
G01*
X92780780Y8896640D01*
G75*
G02*
X92930780Y9046640I150000J0D01*
G01*
G37*
G36*
G01*
X94200780Y9046640D02*
X94500780Y9046640D01*
G75*
G02*
X94650780Y8896640I0J-150000D01*
G01*
X94650780Y7246640D01*
G75*
G02*
X94500780Y7096640I-150000J0D01*
G01*
X94200780Y7096640D01*
G75*
G02*
X94050780Y7246640I0J150000D01*
G01*
X94050780Y8896640D01*
G75*
G02*
X94200780Y9046640I150000J0D01*
G01*
G37*
G36*
G01*
X94200780Y4096640D02*
X94500780Y4096640D01*
G75*
G02*
X94650780Y3946640I0J-150000D01*
G01*
X94650780Y2296640D01*
G75*
G02*
X94500780Y2146640I-150000J0D01*
G01*
X94200780Y2146640D01*
G75*
G02*
X94050780Y2296640I0J150000D01*
G01*
X94050780Y3946640D01*
G75*
G02*
X94200780Y4096640I150000J0D01*
G01*
G37*
G36*
G01*
X92930780Y4096640D02*
X93230780Y4096640D01*
G75*
G02*
X93380780Y3946640I0J-150000D01*
G01*
X93380780Y2296640D01*
G75*
G02*
X93230780Y2146640I-150000J0D01*
G01*
X92930780Y2146640D01*
G75*
G02*
X92780780Y2296640I0J150000D01*
G01*
X92780780Y3946640D01*
G75*
G02*
X92930780Y4096640I150000J0D01*
G01*
G37*
G36*
G01*
X91660780Y4096640D02*
X91960780Y4096640D01*
G75*
G02*
X92110780Y3946640I0J-150000D01*
G01*
X92110780Y2296640D01*
G75*
G02*
X91960780Y2146640I-150000J0D01*
G01*
X91660780Y2146640D01*
G75*
G02*
X91510780Y2296640I0J150000D01*
G01*
X91510780Y3946640D01*
G75*
G02*
X91660780Y4096640I150000J0D01*
G01*
G37*
G36*
G01*
X90390780Y4096640D02*
X90690780Y4096640D01*
G75*
G02*
X90840780Y3946640I0J-150000D01*
G01*
X90840780Y2296640D01*
G75*
G02*
X90690780Y2146640I-150000J0D01*
G01*
X90390780Y2146640D01*
G75*
G02*
X90240780Y2296640I0J150000D01*
G01*
X90240780Y3946640D01*
G75*
G02*
X90390780Y4096640I150000J0D01*
G01*
G37*
G36*
G01*
X89120780Y4096640D02*
X89420780Y4096640D01*
G75*
G02*
X89570780Y3946640I0J-150000D01*
G01*
X89570780Y2296640D01*
G75*
G02*
X89420780Y2146640I-150000J0D01*
G01*
X89120780Y2146640D01*
G75*
G02*
X88970780Y2296640I0J150000D01*
G01*
X88970780Y3946640D01*
G75*
G02*
X89120780Y4096640I150000J0D01*
G01*
G37*
G36*
G01*
X87850780Y4096640D02*
X88150780Y4096640D01*
G75*
G02*
X88300780Y3946640I0J-150000D01*
G01*
X88300780Y2296640D01*
G75*
G02*
X88150780Y2146640I-150000J0D01*
G01*
X87850780Y2146640D01*
G75*
G02*
X87700780Y2296640I0J150000D01*
G01*
X87700780Y3946640D01*
G75*
G02*
X87850780Y4096640I150000J0D01*
G01*
G37*
G36*
G01*
X86580780Y4096640D02*
X86880780Y4096640D01*
G75*
G02*
X87030780Y3946640I0J-150000D01*
G01*
X87030780Y2296640D01*
G75*
G02*
X86880780Y2146640I-150000J0D01*
G01*
X86580780Y2146640D01*
G75*
G02*
X86430780Y2296640I0J150000D01*
G01*
X86430780Y3946640D01*
G75*
G02*
X86580780Y4096640I150000J0D01*
G01*
G37*
G36*
G01*
X85310780Y4096640D02*
X85610780Y4096640D01*
G75*
G02*
X85760780Y3946640I0J-150000D01*
G01*
X85760780Y2296640D01*
G75*
G02*
X85610780Y2146640I-150000J0D01*
G01*
X85310780Y2146640D01*
G75*
G02*
X85160780Y2296640I0J150000D01*
G01*
X85160780Y3946640D01*
G75*
G02*
X85310780Y4096640I150000J0D01*
G01*
G37*
D10*
X153930720Y9011820D03*
D11*
X153930720Y9811820D03*
D10*
X153930720Y11411820D03*
D11*
X153930720Y10611820D03*
D10*
X155730720Y9011820D03*
D11*
X155730720Y10611820D03*
X155730720Y9811820D03*
D10*
X155730720Y11411820D03*
G36*
G01*
X133671380Y4651620D02*
X133671380Y4951620D01*
G75*
G02*
X133821380Y5101620I150000J0D01*
G01*
X135471380Y5101620D01*
G75*
G02*
X135621380Y4951620I0J-150000D01*
G01*
X135621380Y4651620D01*
G75*
G02*
X135471380Y4501620I-150000J0D01*
G01*
X133821380Y4501620D01*
G75*
G02*
X133671380Y4651620I0J150000D01*
G01*
G37*
G36*
G01*
X133671380Y5921620D02*
X133671380Y6221620D01*
G75*
G02*
X133821380Y6371620I150000J0D01*
G01*
X135471380Y6371620D01*
G75*
G02*
X135621380Y6221620I0J-150000D01*
G01*
X135621380Y5921620D01*
G75*
G02*
X135471380Y5771620I-150000J0D01*
G01*
X133821380Y5771620D01*
G75*
G02*
X133671380Y5921620I0J150000D01*
G01*
G37*
G36*
G01*
X133671380Y7191620D02*
X133671380Y7491620D01*
G75*
G02*
X133821380Y7641620I150000J0D01*
G01*
X135471380Y7641620D01*
G75*
G02*
X135621380Y7491620I0J-150000D01*
G01*
X135621380Y7191620D01*
G75*
G02*
X135471380Y7041620I-150000J0D01*
G01*
X133821380Y7041620D01*
G75*
G02*
X133671380Y7191620I0J150000D01*
G01*
G37*
G36*
G01*
X133671380Y8461620D02*
X133671380Y8761620D01*
G75*
G02*
X133821380Y8911620I150000J0D01*
G01*
X135471380Y8911620D01*
G75*
G02*
X135621380Y8761620I0J-150000D01*
G01*
X135621380Y8461620D01*
G75*
G02*
X135471380Y8311620I-150000J0D01*
G01*
X133821380Y8311620D01*
G75*
G02*
X133671380Y8461620I0J150000D01*
G01*
G37*
G36*
G01*
X128721380Y8461620D02*
X128721380Y8761620D01*
G75*
G02*
X128871380Y8911620I150000J0D01*
G01*
X130521380Y8911620D01*
G75*
G02*
X130671380Y8761620I0J-150000D01*
G01*
X130671380Y8461620D01*
G75*
G02*
X130521380Y8311620I-150000J0D01*
G01*
X128871380Y8311620D01*
G75*
G02*
X128721380Y8461620I0J150000D01*
G01*
G37*
G36*
G01*
X128721380Y7191620D02*
X128721380Y7491620D01*
G75*
G02*
X128871380Y7641620I150000J0D01*
G01*
X130521380Y7641620D01*
G75*
G02*
X130671380Y7491620I0J-150000D01*
G01*
X130671380Y7191620D01*
G75*
G02*
X130521380Y7041620I-150000J0D01*
G01*
X128871380Y7041620D01*
G75*
G02*
X128721380Y7191620I0J150000D01*
G01*
G37*
G36*
G01*
X128721380Y5921620D02*
X128721380Y6221620D01*
G75*
G02*
X128871380Y6371620I150000J0D01*
G01*
X130521380Y6371620D01*
G75*
G02*
X130671380Y6221620I0J-150000D01*
G01*
X130671380Y5921620D01*
G75*
G02*
X130521380Y5771620I-150000J0D01*
G01*
X128871380Y5771620D01*
G75*
G02*
X128721380Y5921620I0J150000D01*
G01*
G37*
G36*
G01*
X128721380Y4651620D02*
X128721380Y4951620D01*
G75*
G02*
X128871380Y5101620I150000J0D01*
G01*
X130521380Y5101620D01*
G75*
G02*
X130671380Y4951620I0J-150000D01*
G01*
X130671380Y4651620D01*
G75*
G02*
X130521380Y4501620I-150000J0D01*
G01*
X128871380Y4501620D01*
G75*
G02*
X128721380Y4651620I0J150000D01*
G01*
G37*
G36*
G01*
X117342720Y4096640D02*
X117642720Y4096640D01*
G75*
G02*
X117792720Y3946640I0J-150000D01*
G01*
X117792720Y2296640D01*
G75*
G02*
X117642720Y2146640I-150000J0D01*
G01*
X117342720Y2146640D01*
G75*
G02*
X117192720Y2296640I0J150000D01*
G01*
X117192720Y3946640D01*
G75*
G02*
X117342720Y4096640I150000J0D01*
G01*
G37*
G36*
G01*
X118612720Y4096640D02*
X118912720Y4096640D01*
G75*
G02*
X119062720Y3946640I0J-150000D01*
G01*
X119062720Y2296640D01*
G75*
G02*
X118912720Y2146640I-150000J0D01*
G01*
X118612720Y2146640D01*
G75*
G02*
X118462720Y2296640I0J150000D01*
G01*
X118462720Y3946640D01*
G75*
G02*
X118612720Y4096640I150000J0D01*
G01*
G37*
G36*
G01*
X119882720Y4096640D02*
X120182720Y4096640D01*
G75*
G02*
X120332720Y3946640I0J-150000D01*
G01*
X120332720Y2296640D01*
G75*
G02*
X120182720Y2146640I-150000J0D01*
G01*
X119882720Y2146640D01*
G75*
G02*
X119732720Y2296640I0J150000D01*
G01*
X119732720Y3946640D01*
G75*
G02*
X119882720Y4096640I150000J0D01*
G01*
G37*
G36*
G01*
X121152720Y4096640D02*
X121452720Y4096640D01*
G75*
G02*
X121602720Y3946640I0J-150000D01*
G01*
X121602720Y2296640D01*
G75*
G02*
X121452720Y2146640I-150000J0D01*
G01*
X121152720Y2146640D01*
G75*
G02*
X121002720Y2296640I0J150000D01*
G01*
X121002720Y3946640D01*
G75*
G02*
X121152720Y4096640I150000J0D01*
G01*
G37*
G36*
G01*
X122422720Y4096640D02*
X122722720Y4096640D01*
G75*
G02*
X122872720Y3946640I0J-150000D01*
G01*
X122872720Y2296640D01*
G75*
G02*
X122722720Y2146640I-150000J0D01*
G01*
X122422720Y2146640D01*
G75*
G02*
X122272720Y2296640I0J150000D01*
G01*
X122272720Y3946640D01*
G75*
G02*
X122422720Y4096640I150000J0D01*
G01*
G37*
G36*
G01*
X123692720Y4096640D02*
X123992720Y4096640D01*
G75*
G02*
X124142720Y3946640I0J-150000D01*
G01*
X124142720Y2296640D01*
G75*
G02*
X123992720Y2146640I-150000J0D01*
G01*
X123692720Y2146640D01*
G75*
G02*
X123542720Y2296640I0J150000D01*
G01*
X123542720Y3946640D01*
G75*
G02*
X123692720Y4096640I150000J0D01*
G01*
G37*
G36*
G01*
X124962720Y4096640D02*
X125262720Y4096640D01*
G75*
G02*
X125412720Y3946640I0J-150000D01*
G01*
X125412720Y2296640D01*
G75*
G02*
X125262720Y2146640I-150000J0D01*
G01*
X124962720Y2146640D01*
G75*
G02*
X124812720Y2296640I0J150000D01*
G01*
X124812720Y3946640D01*
G75*
G02*
X124962720Y4096640I150000J0D01*
G01*
G37*
G36*
G01*
X126232720Y4096640D02*
X126532720Y4096640D01*
G75*
G02*
X126682720Y3946640I0J-150000D01*
G01*
X126682720Y2296640D01*
G75*
G02*
X126532720Y2146640I-150000J0D01*
G01*
X126232720Y2146640D01*
G75*
G02*
X126082720Y2296640I0J150000D01*
G01*
X126082720Y3946640D01*
G75*
G02*
X126232720Y4096640I150000J0D01*
G01*
G37*
G36*
G01*
X126232720Y9046640D02*
X126532720Y9046640D01*
G75*
G02*
X126682720Y8896640I0J-150000D01*
G01*
X126682720Y7246640D01*
G75*
G02*
X126532720Y7096640I-150000J0D01*
G01*
X126232720Y7096640D01*
G75*
G02*
X126082720Y7246640I0J150000D01*
G01*
X126082720Y8896640D01*
G75*
G02*
X126232720Y9046640I150000J0D01*
G01*
G37*
G36*
G01*
X124962720Y9046640D02*
X125262720Y9046640D01*
G75*
G02*
X125412720Y8896640I0J-150000D01*
G01*
X125412720Y7246640D01*
G75*
G02*
X125262720Y7096640I-150000J0D01*
G01*
X124962720Y7096640D01*
G75*
G02*
X124812720Y7246640I0J150000D01*
G01*
X124812720Y8896640D01*
G75*
G02*
X124962720Y9046640I150000J0D01*
G01*
G37*
G36*
G01*
X123692720Y9046640D02*
X123992720Y9046640D01*
G75*
G02*
X124142720Y8896640I0J-150000D01*
G01*
X124142720Y7246640D01*
G75*
G02*
X123992720Y7096640I-150000J0D01*
G01*
X123692720Y7096640D01*
G75*
G02*
X123542720Y7246640I0J150000D01*
G01*
X123542720Y8896640D01*
G75*
G02*
X123692720Y9046640I150000J0D01*
G01*
G37*
G36*
G01*
X122422720Y9046640D02*
X122722720Y9046640D01*
G75*
G02*
X122872720Y8896640I0J-150000D01*
G01*
X122872720Y7246640D01*
G75*
G02*
X122722720Y7096640I-150000J0D01*
G01*
X122422720Y7096640D01*
G75*
G02*
X122272720Y7246640I0J150000D01*
G01*
X122272720Y8896640D01*
G75*
G02*
X122422720Y9046640I150000J0D01*
G01*
G37*
G36*
G01*
X121152720Y9046640D02*
X121452720Y9046640D01*
G75*
G02*
X121602720Y8896640I0J-150000D01*
G01*
X121602720Y7246640D01*
G75*
G02*
X121452720Y7096640I-150000J0D01*
G01*
X121152720Y7096640D01*
G75*
G02*
X121002720Y7246640I0J150000D01*
G01*
X121002720Y8896640D01*
G75*
G02*
X121152720Y9046640I150000J0D01*
G01*
G37*
G36*
G01*
X119882720Y9046640D02*
X120182720Y9046640D01*
G75*
G02*
X120332720Y8896640I0J-150000D01*
G01*
X120332720Y7246640D01*
G75*
G02*
X120182720Y7096640I-150000J0D01*
G01*
X119882720Y7096640D01*
G75*
G02*
X119732720Y7246640I0J150000D01*
G01*
X119732720Y8896640D01*
G75*
G02*
X119882720Y9046640I150000J0D01*
G01*
G37*
G36*
G01*
X118612720Y9046640D02*
X118912720Y9046640D01*
G75*
G02*
X119062720Y8896640I0J-150000D01*
G01*
X119062720Y7246640D01*
G75*
G02*
X118912720Y7096640I-150000J0D01*
G01*
X118612720Y7096640D01*
G75*
G02*
X118462720Y7246640I0J150000D01*
G01*
X118462720Y8896640D01*
G75*
G02*
X118612720Y9046640I150000J0D01*
G01*
G37*
G36*
G01*
X117342720Y9046640D02*
X117642720Y9046640D01*
G75*
G02*
X117792720Y8896640I0J-150000D01*
G01*
X117792720Y7246640D01*
G75*
G02*
X117642720Y7096640I-150000J0D01*
G01*
X117342720Y7096640D01*
G75*
G02*
X117192720Y7246640I0J150000D01*
G01*
X117192720Y8896640D01*
G75*
G02*
X117342720Y9046640I150000J0D01*
G01*
G37*
G36*
G01*
X141792760Y8630080D02*
X142092760Y8630080D01*
G75*
G02*
X142242760Y8480080I0J-150000D01*
G01*
X142242760Y6830080D01*
G75*
G02*
X142092760Y6680080I-150000J0D01*
G01*
X141792760Y6680080D01*
G75*
G02*
X141642760Y6830080I0J150000D01*
G01*
X141642760Y8480080D01*
G75*
G02*
X141792760Y8630080I150000J0D01*
G01*
G37*
G36*
G01*
X143062760Y8630080D02*
X143362760Y8630080D01*
G75*
G02*
X143512760Y8480080I0J-150000D01*
G01*
X143512760Y6830080D01*
G75*
G02*
X143362760Y6680080I-150000J0D01*
G01*
X143062760Y6680080D01*
G75*
G02*
X142912760Y6830080I0J150000D01*
G01*
X142912760Y8480080D01*
G75*
G02*
X143062760Y8630080I150000J0D01*
G01*
G37*
G36*
G01*
X144332760Y8630080D02*
X144632760Y8630080D01*
G75*
G02*
X144782760Y8480080I0J-150000D01*
G01*
X144782760Y6830080D01*
G75*
G02*
X144632760Y6680080I-150000J0D01*
G01*
X144332760Y6680080D01*
G75*
G02*
X144182760Y6830080I0J150000D01*
G01*
X144182760Y8480080D01*
G75*
G02*
X144332760Y8630080I150000J0D01*
G01*
G37*
G36*
G01*
X145602760Y8630080D02*
X145902760Y8630080D01*
G75*
G02*
X146052760Y8480080I0J-150000D01*
G01*
X146052760Y6830080D01*
G75*
G02*
X145902760Y6680080I-150000J0D01*
G01*
X145602760Y6680080D01*
G75*
G02*
X145452760Y6830080I0J150000D01*
G01*
X145452760Y8480080D01*
G75*
G02*
X145602760Y8630080I150000J0D01*
G01*
G37*
G36*
G01*
X146872760Y8630080D02*
X147172760Y8630080D01*
G75*
G02*
X147322760Y8480080I0J-150000D01*
G01*
X147322760Y6830080D01*
G75*
G02*
X147172760Y6680080I-150000J0D01*
G01*
X146872760Y6680080D01*
G75*
G02*
X146722760Y6830080I0J150000D01*
G01*
X146722760Y8480080D01*
G75*
G02*
X146872760Y8630080I150000J0D01*
G01*
G37*
G36*
G01*
X148142760Y8630080D02*
X148442760Y8630080D01*
G75*
G02*
X148592760Y8480080I0J-150000D01*
G01*
X148592760Y6830080D01*
G75*
G02*
X148442760Y6680080I-150000J0D01*
G01*
X148142760Y6680080D01*
G75*
G02*
X147992760Y6830080I0J150000D01*
G01*
X147992760Y8480080D01*
G75*
G02*
X148142760Y8630080I150000J0D01*
G01*
G37*
G36*
G01*
X149412760Y8630080D02*
X149712760Y8630080D01*
G75*
G02*
X149862760Y8480080I0J-150000D01*
G01*
X149862760Y6830080D01*
G75*
G02*
X149712760Y6680080I-150000J0D01*
G01*
X149412760Y6680080D01*
G75*
G02*
X149262760Y6830080I0J150000D01*
G01*
X149262760Y8480080D01*
G75*
G02*
X149412760Y8630080I150000J0D01*
G01*
G37*
G36*
G01*
X149412760Y3680080D02*
X149712760Y3680080D01*
G75*
G02*
X149862760Y3530080I0J-150000D01*
G01*
X149862760Y1880080D01*
G75*
G02*
X149712760Y1730080I-150000J0D01*
G01*
X149412760Y1730080D01*
G75*
G02*
X149262760Y1880080I0J150000D01*
G01*
X149262760Y3530080D01*
G75*
G02*
X149412760Y3680080I150000J0D01*
G01*
G37*
G36*
G01*
X148142760Y3680080D02*
X148442760Y3680080D01*
G75*
G02*
X148592760Y3530080I0J-150000D01*
G01*
X148592760Y1880080D01*
G75*
G02*
X148442760Y1730080I-150000J0D01*
G01*
X148142760Y1730080D01*
G75*
G02*
X147992760Y1880080I0J150000D01*
G01*
X147992760Y3530080D01*
G75*
G02*
X148142760Y3680080I150000J0D01*
G01*
G37*
G36*
G01*
X146872760Y3680080D02*
X147172760Y3680080D01*
G75*
G02*
X147322760Y3530080I0J-150000D01*
G01*
X147322760Y1880080D01*
G75*
G02*
X147172760Y1730080I-150000J0D01*
G01*
X146872760Y1730080D01*
G75*
G02*
X146722760Y1880080I0J150000D01*
G01*
X146722760Y3530080D01*
G75*
G02*
X146872760Y3680080I150000J0D01*
G01*
G37*
G36*
G01*
X145602760Y3680080D02*
X145902760Y3680080D01*
G75*
G02*
X146052760Y3530080I0J-150000D01*
G01*
X146052760Y1880080D01*
G75*
G02*
X145902760Y1730080I-150000J0D01*
G01*
X145602760Y1730080D01*
G75*
G02*
X145452760Y1880080I0J150000D01*
G01*
X145452760Y3530080D01*
G75*
G02*
X145602760Y3680080I150000J0D01*
G01*
G37*
G36*
G01*
X144332760Y3680080D02*
X144632760Y3680080D01*
G75*
G02*
X144782760Y3530080I0J-150000D01*
G01*
X144782760Y1880080D01*
G75*
G02*
X144632760Y1730080I-150000J0D01*
G01*
X144332760Y1730080D01*
G75*
G02*
X144182760Y1880080I0J150000D01*
G01*
X144182760Y3530080D01*
G75*
G02*
X144332760Y3680080I150000J0D01*
G01*
G37*
G36*
G01*
X143062760Y3680080D02*
X143362760Y3680080D01*
G75*
G02*
X143512760Y3530080I0J-150000D01*
G01*
X143512760Y1880080D01*
G75*
G02*
X143362760Y1730080I-150000J0D01*
G01*
X143062760Y1730080D01*
G75*
G02*
X142912760Y1880080I0J150000D01*
G01*
X142912760Y3530080D01*
G75*
G02*
X143062760Y3680080I150000J0D01*
G01*
G37*
G36*
G01*
X141792760Y3680080D02*
X142092760Y3680080D01*
G75*
G02*
X142242760Y3530080I0J-150000D01*
G01*
X142242760Y1880080D01*
G75*
G02*
X142092760Y1730080I-150000J0D01*
G01*
X141792760Y1730080D01*
G75*
G02*
X141642760Y1880080I0J150000D01*
G01*
X141642760Y3530080D01*
G75*
G02*
X141792760Y3680080I150000J0D01*
G01*
G37*
G36*
G01*
X50964900Y4096640D02*
X51264900Y4096640D01*
G75*
G02*
X51414900Y3946640I0J-150000D01*
G01*
X51414900Y2296640D01*
G75*
G02*
X51264900Y2146640I-150000J0D01*
G01*
X50964900Y2146640D01*
G75*
G02*
X50814900Y2296640I0J150000D01*
G01*
X50814900Y3946640D01*
G75*
G02*
X50964900Y4096640I150000J0D01*
G01*
G37*
G36*
G01*
X52234900Y4096640D02*
X52534900Y4096640D01*
G75*
G02*
X52684900Y3946640I0J-150000D01*
G01*
X52684900Y2296640D01*
G75*
G02*
X52534900Y2146640I-150000J0D01*
G01*
X52234900Y2146640D01*
G75*
G02*
X52084900Y2296640I0J150000D01*
G01*
X52084900Y3946640D01*
G75*
G02*
X52234900Y4096640I150000J0D01*
G01*
G37*
G36*
G01*
X53504900Y4096640D02*
X53804900Y4096640D01*
G75*
G02*
X53954900Y3946640I0J-150000D01*
G01*
X53954900Y2296640D01*
G75*
G02*
X53804900Y2146640I-150000J0D01*
G01*
X53504900Y2146640D01*
G75*
G02*
X53354900Y2296640I0J150000D01*
G01*
X53354900Y3946640D01*
G75*
G02*
X53504900Y4096640I150000J0D01*
G01*
G37*
G36*
G01*
X54774900Y4096640D02*
X55074900Y4096640D01*
G75*
G02*
X55224900Y3946640I0J-150000D01*
G01*
X55224900Y2296640D01*
G75*
G02*
X55074900Y2146640I-150000J0D01*
G01*
X54774900Y2146640D01*
G75*
G02*
X54624900Y2296640I0J150000D01*
G01*
X54624900Y3946640D01*
G75*
G02*
X54774900Y4096640I150000J0D01*
G01*
G37*
G36*
G01*
X56044900Y4096640D02*
X56344900Y4096640D01*
G75*
G02*
X56494900Y3946640I0J-150000D01*
G01*
X56494900Y2296640D01*
G75*
G02*
X56344900Y2146640I-150000J0D01*
G01*
X56044900Y2146640D01*
G75*
G02*
X55894900Y2296640I0J150000D01*
G01*
X55894900Y3946640D01*
G75*
G02*
X56044900Y4096640I150000J0D01*
G01*
G37*
G36*
G01*
X57314900Y4096640D02*
X57614900Y4096640D01*
G75*
G02*
X57764900Y3946640I0J-150000D01*
G01*
X57764900Y2296640D01*
G75*
G02*
X57614900Y2146640I-150000J0D01*
G01*
X57314900Y2146640D01*
G75*
G02*
X57164900Y2296640I0J150000D01*
G01*
X57164900Y3946640D01*
G75*
G02*
X57314900Y4096640I150000J0D01*
G01*
G37*
G36*
G01*
X58584900Y4096640D02*
X58884900Y4096640D01*
G75*
G02*
X59034900Y3946640I0J-150000D01*
G01*
X59034900Y2296640D01*
G75*
G02*
X58884900Y2146640I-150000J0D01*
G01*
X58584900Y2146640D01*
G75*
G02*
X58434900Y2296640I0J150000D01*
G01*
X58434900Y3946640D01*
G75*
G02*
X58584900Y4096640I150000J0D01*
G01*
G37*
G36*
G01*
X59854900Y4096640D02*
X60154900Y4096640D01*
G75*
G02*
X60304900Y3946640I0J-150000D01*
G01*
X60304900Y2296640D01*
G75*
G02*
X60154900Y2146640I-150000J0D01*
G01*
X59854900Y2146640D01*
G75*
G02*
X59704900Y2296640I0J150000D01*
G01*
X59704900Y3946640D01*
G75*
G02*
X59854900Y4096640I150000J0D01*
G01*
G37*
G36*
G01*
X59854900Y9046640D02*
X60154900Y9046640D01*
G75*
G02*
X60304900Y8896640I0J-150000D01*
G01*
X60304900Y7246640D01*
G75*
G02*
X60154900Y7096640I-150000J0D01*
G01*
X59854900Y7096640D01*
G75*
G02*
X59704900Y7246640I0J150000D01*
G01*
X59704900Y8896640D01*
G75*
G02*
X59854900Y9046640I150000J0D01*
G01*
G37*
G36*
G01*
X58584900Y9046640D02*
X58884900Y9046640D01*
G75*
G02*
X59034900Y8896640I0J-150000D01*
G01*
X59034900Y7246640D01*
G75*
G02*
X58884900Y7096640I-150000J0D01*
G01*
X58584900Y7096640D01*
G75*
G02*
X58434900Y7246640I0J150000D01*
G01*
X58434900Y8896640D01*
G75*
G02*
X58584900Y9046640I150000J0D01*
G01*
G37*
G36*
G01*
X57314900Y9046640D02*
X57614900Y9046640D01*
G75*
G02*
X57764900Y8896640I0J-150000D01*
G01*
X57764900Y7246640D01*
G75*
G02*
X57614900Y7096640I-150000J0D01*
G01*
X57314900Y7096640D01*
G75*
G02*
X57164900Y7246640I0J150000D01*
G01*
X57164900Y8896640D01*
G75*
G02*
X57314900Y9046640I150000J0D01*
G01*
G37*
G36*
G01*
X56044900Y9046640D02*
X56344900Y9046640D01*
G75*
G02*
X56494900Y8896640I0J-150000D01*
G01*
X56494900Y7246640D01*
G75*
G02*
X56344900Y7096640I-150000J0D01*
G01*
X56044900Y7096640D01*
G75*
G02*
X55894900Y7246640I0J150000D01*
G01*
X55894900Y8896640D01*
G75*
G02*
X56044900Y9046640I150000J0D01*
G01*
G37*
G36*
G01*
X54774900Y9046640D02*
X55074900Y9046640D01*
G75*
G02*
X55224900Y8896640I0J-150000D01*
G01*
X55224900Y7246640D01*
G75*
G02*
X55074900Y7096640I-150000J0D01*
G01*
X54774900Y7096640D01*
G75*
G02*
X54624900Y7246640I0J150000D01*
G01*
X54624900Y8896640D01*
G75*
G02*
X54774900Y9046640I150000J0D01*
G01*
G37*
G36*
G01*
X53504900Y9046640D02*
X53804900Y9046640D01*
G75*
G02*
X53954900Y8896640I0J-150000D01*
G01*
X53954900Y7246640D01*
G75*
G02*
X53804900Y7096640I-150000J0D01*
G01*
X53504900Y7096640D01*
G75*
G02*
X53354900Y7246640I0J150000D01*
G01*
X53354900Y8896640D01*
G75*
G02*
X53504900Y9046640I150000J0D01*
G01*
G37*
G36*
G01*
X52234900Y9046640D02*
X52534900Y9046640D01*
G75*
G02*
X52684900Y8896640I0J-150000D01*
G01*
X52684900Y7246640D01*
G75*
G02*
X52534900Y7096640I-150000J0D01*
G01*
X52234900Y7096640D01*
G75*
G02*
X52084900Y7246640I0J150000D01*
G01*
X52084900Y8896640D01*
G75*
G02*
X52234900Y9046640I150000J0D01*
G01*
G37*
G36*
G01*
X50964900Y9046640D02*
X51264900Y9046640D01*
G75*
G02*
X51414900Y8896640I0J-150000D01*
G01*
X51414900Y7246640D01*
G75*
G02*
X51264900Y7096640I-150000J0D01*
G01*
X50964900Y7096640D01*
G75*
G02*
X50814900Y7246640I0J150000D01*
G01*
X50814900Y8896640D01*
G75*
G02*
X50964900Y9046640I150000J0D01*
G01*
G37*
G36*
G01*
X131575000Y22400001D02*
X131575000Y21499999D01*
G75*
G02*
X131325001Y21250000I-249999J0D01*
G01*
X130674999Y21250000D01*
G75*
G02*
X130425000Y21499999I0J249999D01*
G01*
X130425000Y22400001D01*
G75*
G02*
X130674999Y22650000I249999J0D01*
G01*
X131325001Y22650000D01*
G75*
G02*
X131575000Y22400001I0J-249999D01*
G01*
G37*
G36*
G01*
X133625000Y22400001D02*
X133625000Y21499999D01*
G75*
G02*
X133375001Y21250000I-249999J0D01*
G01*
X132724999Y21250000D01*
G75*
G02*
X132475000Y21499999I0J249999D01*
G01*
X132475000Y22400001D01*
G75*
G02*
X132724999Y22650000I249999J0D01*
G01*
X133375001Y22650000D01*
G75*
G02*
X133625000Y22400001I0J-249999D01*
G01*
G37*
G36*
G01*
X132450000Y19499999D02*
X132450000Y20400001D01*
G75*
G02*
X132699999Y20650000I249999J0D01*
G01*
X133350001Y20650000D01*
G75*
G02*
X133600000Y20400001I0J-249999D01*
G01*
X133600000Y19499999D01*
G75*
G02*
X133350001Y19250000I-249999J0D01*
G01*
X132699999Y19250000D01*
G75*
G02*
X132450000Y19499999I0J249999D01*
G01*
G37*
G36*
G01*
X130400000Y19499999D02*
X130400000Y20400001D01*
G75*
G02*
X130649999Y20650000I249999J0D01*
G01*
X131300001Y20650000D01*
G75*
G02*
X131550000Y20400001I0J-249999D01*
G01*
X131550000Y19499999D01*
G75*
G02*
X131300001Y19250000I-249999J0D01*
G01*
X130649999Y19250000D01*
G75*
G02*
X130400000Y19499999I0J249999D01*
G01*
G37*
G36*
G01*
X22967041Y28952520D02*
X22067039Y28952520D01*
G75*
G02*
X21817040Y29202519I0J249999D01*
G01*
X21817040Y29852521D01*
G75*
G02*
X22067039Y30102520I249999J0D01*
G01*
X22967041Y30102520D01*
G75*
G02*
X23217040Y29852521I0J-249999D01*
G01*
X23217040Y29202519D01*
G75*
G02*
X22967041Y28952520I-249999J0D01*
G01*
G37*
G36*
G01*
X22967041Y26902520D02*
X22067039Y26902520D01*
G75*
G02*
X21817040Y27152519I0J249999D01*
G01*
X21817040Y27802521D01*
G75*
G02*
X22067039Y28052520I249999J0D01*
G01*
X22967041Y28052520D01*
G75*
G02*
X23217040Y27802521I0J-249999D01*
G01*
X23217040Y27152519D01*
G75*
G02*
X22967041Y26902520I-249999J0D01*
G01*
G37*
G36*
G01*
X28722680Y29909259D02*
X28722680Y30809261D01*
G75*
G02*
X28972679Y31059260I249999J0D01*
G01*
X29622681Y31059260D01*
G75*
G02*
X29872680Y30809261I0J-249999D01*
G01*
X29872680Y29909259D01*
G75*
G02*
X29622681Y29659260I-249999J0D01*
G01*
X28972679Y29659260D01*
G75*
G02*
X28722680Y29909259I0J249999D01*
G01*
G37*
G36*
G01*
X26672680Y29909259D02*
X26672680Y30809261D01*
G75*
G02*
X26922679Y31059260I249999J0D01*
G01*
X27572681Y31059260D01*
G75*
G02*
X27822680Y30809261I0J-249999D01*
G01*
X27822680Y29909259D01*
G75*
G02*
X27572681Y29659260I-249999J0D01*
G01*
X26922679Y29659260D01*
G75*
G02*
X26672680Y29909259I0J249999D01*
G01*
G37*
G36*
G01*
X24507979Y27681680D02*
X25407981Y27681680D01*
G75*
G02*
X25657980Y27431681I0J-249999D01*
G01*
X25657980Y26781679D01*
G75*
G02*
X25407981Y26531680I-249999J0D01*
G01*
X24507979Y26531680D01*
G75*
G02*
X24257980Y26781679I0J249999D01*
G01*
X24257980Y27431681D01*
G75*
G02*
X24507979Y27681680I249999J0D01*
G01*
G37*
G36*
G01*
X24507979Y29731680D02*
X25407981Y29731680D01*
G75*
G02*
X25657980Y29481681I0J-249999D01*
G01*
X25657980Y28831679D01*
G75*
G02*
X25407981Y28581680I-249999J0D01*
G01*
X24507979Y28581680D01*
G75*
G02*
X24257980Y28831679I0J249999D01*
G01*
X24257980Y29481681D01*
G75*
G02*
X24507979Y29731680I249999J0D01*
G01*
G37*
G36*
G01*
X1597179Y22477220D02*
X2497181Y22477220D01*
G75*
G02*
X2747180Y22227221I0J-249999D01*
G01*
X2747180Y21577219D01*
G75*
G02*
X2497181Y21327220I-249999J0D01*
G01*
X1597179Y21327220D01*
G75*
G02*
X1347180Y21577219I0J249999D01*
G01*
X1347180Y22227221D01*
G75*
G02*
X1597179Y22477220I249999J0D01*
G01*
G37*
G36*
G01*
X1597179Y24527220D02*
X2497181Y24527220D01*
G75*
G02*
X2747180Y24277221I0J-249999D01*
G01*
X2747180Y23627219D01*
G75*
G02*
X2497181Y23377220I-249999J0D01*
G01*
X1597179Y23377220D01*
G75*
G02*
X1347180Y23627219I0J249999D01*
G01*
X1347180Y24277221D01*
G75*
G02*
X1597179Y24527220I249999J0D01*
G01*
G37*
G36*
G01*
X3903499Y22483460D02*
X4803501Y22483460D01*
G75*
G02*
X5053500Y22233461I0J-249999D01*
G01*
X5053500Y21583459D01*
G75*
G02*
X4803501Y21333460I-249999J0D01*
G01*
X3903499Y21333460D01*
G75*
G02*
X3653500Y21583459I0J249999D01*
G01*
X3653500Y22233461D01*
G75*
G02*
X3903499Y22483460I249999J0D01*
G01*
G37*
G36*
G01*
X3903499Y24533460D02*
X4803501Y24533460D01*
G75*
G02*
X5053500Y24283461I0J-249999D01*
G01*
X5053500Y23633459D01*
G75*
G02*
X4803501Y23383460I-249999J0D01*
G01*
X3903499Y23383460D01*
G75*
G02*
X3653500Y23633459I0J249999D01*
G01*
X3653500Y24283461D01*
G75*
G02*
X3903499Y24533460I249999J0D01*
G01*
G37*
G36*
G01*
X23217660Y25518441D02*
X23217660Y24618439D01*
G75*
G02*
X22967661Y24368440I-249999J0D01*
G01*
X22317659Y24368440D01*
G75*
G02*
X22067660Y24618439I0J249999D01*
G01*
X22067660Y25518441D01*
G75*
G02*
X22317659Y25768440I249999J0D01*
G01*
X22967661Y25768440D01*
G75*
G02*
X23217660Y25518441I0J-249999D01*
G01*
G37*
G36*
G01*
X25267660Y25518441D02*
X25267660Y24618439D01*
G75*
G02*
X25017661Y24368440I-249999J0D01*
G01*
X24367659Y24368440D01*
G75*
G02*
X24117660Y24618439I0J249999D01*
G01*
X24117660Y25518441D01*
G75*
G02*
X24367659Y25768440I249999J0D01*
G01*
X25017661Y25768440D01*
G75*
G02*
X25267660Y25518441I0J-249999D01*
G01*
G37*
G36*
G01*
X47917461Y28083840D02*
X47017459Y28083840D01*
G75*
G02*
X46767460Y28333839I0J249999D01*
G01*
X46767460Y28983841D01*
G75*
G02*
X47017459Y29233840I249999J0D01*
G01*
X47917461Y29233840D01*
G75*
G02*
X48167460Y28983841I0J-249999D01*
G01*
X48167460Y28333839D01*
G75*
G02*
X47917461Y28083840I-249999J0D01*
G01*
G37*
G36*
G01*
X47917461Y26033840D02*
X47017459Y26033840D01*
G75*
G02*
X46767460Y26283839I0J249999D01*
G01*
X46767460Y26933841D01*
G75*
G02*
X47017459Y27183840I249999J0D01*
G01*
X47917461Y27183840D01*
G75*
G02*
X48167460Y26933841I0J-249999D01*
G01*
X48167460Y26283839D01*
G75*
G02*
X47917461Y26033840I-249999J0D01*
G01*
G37*
G36*
G01*
X80418281Y28083840D02*
X79518279Y28083840D01*
G75*
G02*
X79268280Y28333839I0J249999D01*
G01*
X79268280Y28983841D01*
G75*
G02*
X79518279Y29233840I249999J0D01*
G01*
X80418281Y29233840D01*
G75*
G02*
X80668280Y28983841I0J-249999D01*
G01*
X80668280Y28333839D01*
G75*
G02*
X80418281Y28083840I-249999J0D01*
G01*
G37*
G36*
G01*
X80418281Y26033840D02*
X79518279Y26033840D01*
G75*
G02*
X79268280Y26283839I0J249999D01*
G01*
X79268280Y26933841D01*
G75*
G02*
X79518279Y27183840I249999J0D01*
G01*
X80418281Y27183840D01*
G75*
G02*
X80668280Y26933841I0J-249999D01*
G01*
X80668280Y26283839D01*
G75*
G02*
X80418281Y26033840I-249999J0D01*
G01*
G37*
G36*
G01*
X9976639Y27211780D02*
X10876641Y27211780D01*
G75*
G02*
X11126640Y26961781I0J-249999D01*
G01*
X11126640Y26311779D01*
G75*
G02*
X10876641Y26061780I-249999J0D01*
G01*
X9976639Y26061780D01*
G75*
G02*
X9726640Y26311779I0J249999D01*
G01*
X9726640Y26961781D01*
G75*
G02*
X9976639Y27211780I249999J0D01*
G01*
G37*
G36*
G01*
X9976639Y29261780D02*
X10876641Y29261780D01*
G75*
G02*
X11126640Y29011781I0J-249999D01*
G01*
X11126640Y28361779D01*
G75*
G02*
X10876641Y28111780I-249999J0D01*
G01*
X9976639Y28111780D01*
G75*
G02*
X9726640Y28361779I0J249999D01*
G01*
X9726640Y29011781D01*
G75*
G02*
X9976639Y29261780I249999J0D01*
G01*
G37*
G36*
G01*
X115157861Y28083840D02*
X114257859Y28083840D01*
G75*
G02*
X114007860Y28333839I0J249999D01*
G01*
X114007860Y28983841D01*
G75*
G02*
X114257859Y29233840I249999J0D01*
G01*
X115157861Y29233840D01*
G75*
G02*
X115407860Y28983841I0J-249999D01*
G01*
X115407860Y28333839D01*
G75*
G02*
X115157861Y28083840I-249999J0D01*
G01*
G37*
G36*
G01*
X115157861Y26033840D02*
X114257859Y26033840D01*
G75*
G02*
X114007860Y26283839I0J249999D01*
G01*
X114007860Y26933841D01*
G75*
G02*
X114257859Y27183840I249999J0D01*
G01*
X115157861Y27183840D01*
G75*
G02*
X115407860Y26933841I0J-249999D01*
G01*
X115407860Y26283839D01*
G75*
G02*
X115157861Y26033840I-249999J0D01*
G01*
G37*
G36*
G01*
X32789220Y29909259D02*
X32789220Y30809261D01*
G75*
G02*
X33039219Y31059260I249999J0D01*
G01*
X33689221Y31059260D01*
G75*
G02*
X33939220Y30809261I0J-249999D01*
G01*
X33939220Y29909259D01*
G75*
G02*
X33689221Y29659260I-249999J0D01*
G01*
X33039219Y29659260D01*
G75*
G02*
X32789220Y29909259I0J249999D01*
G01*
G37*
G36*
G01*
X30739220Y29909259D02*
X30739220Y30809261D01*
G75*
G02*
X30989219Y31059260I249999J0D01*
G01*
X31639221Y31059260D01*
G75*
G02*
X31889220Y30809261I0J-249999D01*
G01*
X31889220Y29909259D01*
G75*
G02*
X31639221Y29659260I-249999J0D01*
G01*
X30989219Y29659260D01*
G75*
G02*
X30739220Y29909259I0J249999D01*
G01*
G37*
G36*
G01*
X76939220Y24153360D02*
X76639220Y24153360D01*
G75*
G02*
X76489220Y24303360I0J150000D01*
G01*
X76489220Y25953360D01*
G75*
G02*
X76639220Y26103360I150000J0D01*
G01*
X76939220Y26103360D01*
G75*
G02*
X77089220Y25953360I0J-150000D01*
G01*
X77089220Y24303360D01*
G75*
G02*
X76939220Y24153360I-150000J0D01*
G01*
G37*
G36*
G01*
X75669220Y24153360D02*
X75369220Y24153360D01*
G75*
G02*
X75219220Y24303360I0J150000D01*
G01*
X75219220Y25953360D01*
G75*
G02*
X75369220Y26103360I150000J0D01*
G01*
X75669220Y26103360D01*
G75*
G02*
X75819220Y25953360I0J-150000D01*
G01*
X75819220Y24303360D01*
G75*
G02*
X75669220Y24153360I-150000J0D01*
G01*
G37*
G36*
G01*
X74399220Y24153360D02*
X74099220Y24153360D01*
G75*
G02*
X73949220Y24303360I0J150000D01*
G01*
X73949220Y25953360D01*
G75*
G02*
X74099220Y26103360I150000J0D01*
G01*
X74399220Y26103360D01*
G75*
G02*
X74549220Y25953360I0J-150000D01*
G01*
X74549220Y24303360D01*
G75*
G02*
X74399220Y24153360I-150000J0D01*
G01*
G37*
G36*
G01*
X73129220Y24153360D02*
X72829220Y24153360D01*
G75*
G02*
X72679220Y24303360I0J150000D01*
G01*
X72679220Y25953360D01*
G75*
G02*
X72829220Y26103360I150000J0D01*
G01*
X73129220Y26103360D01*
G75*
G02*
X73279220Y25953360I0J-150000D01*
G01*
X73279220Y24303360D01*
G75*
G02*
X73129220Y24153360I-150000J0D01*
G01*
G37*
G36*
G01*
X71859220Y24153360D02*
X71559220Y24153360D01*
G75*
G02*
X71409220Y24303360I0J150000D01*
G01*
X71409220Y25953360D01*
G75*
G02*
X71559220Y26103360I150000J0D01*
G01*
X71859220Y26103360D01*
G75*
G02*
X72009220Y25953360I0J-150000D01*
G01*
X72009220Y24303360D01*
G75*
G02*
X71859220Y24153360I-150000J0D01*
G01*
G37*
G36*
G01*
X70589220Y24153360D02*
X70289220Y24153360D01*
G75*
G02*
X70139220Y24303360I0J150000D01*
G01*
X70139220Y25953360D01*
G75*
G02*
X70289220Y26103360I150000J0D01*
G01*
X70589220Y26103360D01*
G75*
G02*
X70739220Y25953360I0J-150000D01*
G01*
X70739220Y24303360D01*
G75*
G02*
X70589220Y24153360I-150000J0D01*
G01*
G37*
G36*
G01*
X69319220Y24153360D02*
X69019220Y24153360D01*
G75*
G02*
X68869220Y24303360I0J150000D01*
G01*
X68869220Y25953360D01*
G75*
G02*
X69019220Y26103360I150000J0D01*
G01*
X69319220Y26103360D01*
G75*
G02*
X69469220Y25953360I0J-150000D01*
G01*
X69469220Y24303360D01*
G75*
G02*
X69319220Y24153360I-150000J0D01*
G01*
G37*
G36*
G01*
X68049220Y24153360D02*
X67749220Y24153360D01*
G75*
G02*
X67599220Y24303360I0J150000D01*
G01*
X67599220Y25953360D01*
G75*
G02*
X67749220Y26103360I150000J0D01*
G01*
X68049220Y26103360D01*
G75*
G02*
X68199220Y25953360I0J-150000D01*
G01*
X68199220Y24303360D01*
G75*
G02*
X68049220Y24153360I-150000J0D01*
G01*
G37*
G36*
G01*
X68049220Y29103360D02*
X67749220Y29103360D01*
G75*
G02*
X67599220Y29253360I0J150000D01*
G01*
X67599220Y30903360D01*
G75*
G02*
X67749220Y31053360I150000J0D01*
G01*
X68049220Y31053360D01*
G75*
G02*
X68199220Y30903360I0J-150000D01*
G01*
X68199220Y29253360D01*
G75*
G02*
X68049220Y29103360I-150000J0D01*
G01*
G37*
G36*
G01*
X69319220Y29103360D02*
X69019220Y29103360D01*
G75*
G02*
X68869220Y29253360I0J150000D01*
G01*
X68869220Y30903360D01*
G75*
G02*
X69019220Y31053360I150000J0D01*
G01*
X69319220Y31053360D01*
G75*
G02*
X69469220Y30903360I0J-150000D01*
G01*
X69469220Y29253360D01*
G75*
G02*
X69319220Y29103360I-150000J0D01*
G01*
G37*
G36*
G01*
X70589220Y29103360D02*
X70289220Y29103360D01*
G75*
G02*
X70139220Y29253360I0J150000D01*
G01*
X70139220Y30903360D01*
G75*
G02*
X70289220Y31053360I150000J0D01*
G01*
X70589220Y31053360D01*
G75*
G02*
X70739220Y30903360I0J-150000D01*
G01*
X70739220Y29253360D01*
G75*
G02*
X70589220Y29103360I-150000J0D01*
G01*
G37*
G36*
G01*
X71859220Y29103360D02*
X71559220Y29103360D01*
G75*
G02*
X71409220Y29253360I0J150000D01*
G01*
X71409220Y30903360D01*
G75*
G02*
X71559220Y31053360I150000J0D01*
G01*
X71859220Y31053360D01*
G75*
G02*
X72009220Y30903360I0J-150000D01*
G01*
X72009220Y29253360D01*
G75*
G02*
X71859220Y29103360I-150000J0D01*
G01*
G37*
G36*
G01*
X73129220Y29103360D02*
X72829220Y29103360D01*
G75*
G02*
X72679220Y29253360I0J150000D01*
G01*
X72679220Y30903360D01*
G75*
G02*
X72829220Y31053360I150000J0D01*
G01*
X73129220Y31053360D01*
G75*
G02*
X73279220Y30903360I0J-150000D01*
G01*
X73279220Y29253360D01*
G75*
G02*
X73129220Y29103360I-150000J0D01*
G01*
G37*
G36*
G01*
X74399220Y29103360D02*
X74099220Y29103360D01*
G75*
G02*
X73949220Y29253360I0J150000D01*
G01*
X73949220Y30903360D01*
G75*
G02*
X74099220Y31053360I150000J0D01*
G01*
X74399220Y31053360D01*
G75*
G02*
X74549220Y30903360I0J-150000D01*
G01*
X74549220Y29253360D01*
G75*
G02*
X74399220Y29103360I-150000J0D01*
G01*
G37*
G36*
G01*
X75669220Y29103360D02*
X75369220Y29103360D01*
G75*
G02*
X75219220Y29253360I0J150000D01*
G01*
X75219220Y30903360D01*
G75*
G02*
X75369220Y31053360I150000J0D01*
G01*
X75669220Y31053360D01*
G75*
G02*
X75819220Y30903360I0J-150000D01*
G01*
X75819220Y29253360D01*
G75*
G02*
X75669220Y29103360I-150000J0D01*
G01*
G37*
G36*
G01*
X76939220Y29103360D02*
X76639220Y29103360D01*
G75*
G02*
X76489220Y29253360I0J150000D01*
G01*
X76489220Y30903360D01*
G75*
G02*
X76639220Y31053360I150000J0D01*
G01*
X76939220Y31053360D01*
G75*
G02*
X77089220Y30903360I0J-150000D01*
G01*
X77089220Y29253360D01*
G75*
G02*
X76939220Y29103360I-150000J0D01*
G01*
G37*
X8319280Y24188180D03*
D11*
X8319280Y23388180D03*
D10*
X8319280Y21788180D03*
D11*
X8319280Y22588180D03*
D10*
X6519280Y24188180D03*
D11*
X6519280Y22588180D03*
X6519280Y23388180D03*
D10*
X6519280Y21788180D03*
G36*
G01*
X28578620Y28548380D02*
X28578620Y28248380D01*
G75*
G02*
X28428620Y28098380I-150000J0D01*
G01*
X26778620Y28098380D01*
G75*
G02*
X26628620Y28248380I0J150000D01*
G01*
X26628620Y28548380D01*
G75*
G02*
X26778620Y28698380I150000J0D01*
G01*
X28428620Y28698380D01*
G75*
G02*
X28578620Y28548380I0J-150000D01*
G01*
G37*
G36*
G01*
X28578620Y27278380D02*
X28578620Y26978380D01*
G75*
G02*
X28428620Y26828380I-150000J0D01*
G01*
X26778620Y26828380D01*
G75*
G02*
X26628620Y26978380I0J150000D01*
G01*
X26628620Y27278380D01*
G75*
G02*
X26778620Y27428380I150000J0D01*
G01*
X28428620Y27428380D01*
G75*
G02*
X28578620Y27278380I0J-150000D01*
G01*
G37*
G36*
G01*
X28578620Y26008380D02*
X28578620Y25708380D01*
G75*
G02*
X28428620Y25558380I-150000J0D01*
G01*
X26778620Y25558380D01*
G75*
G02*
X26628620Y25708380I0J150000D01*
G01*
X26628620Y26008380D01*
G75*
G02*
X26778620Y26158380I150000J0D01*
G01*
X28428620Y26158380D01*
G75*
G02*
X28578620Y26008380I0J-150000D01*
G01*
G37*
G36*
G01*
X28578620Y24738380D02*
X28578620Y24438380D01*
G75*
G02*
X28428620Y24288380I-150000J0D01*
G01*
X26778620Y24288380D01*
G75*
G02*
X26628620Y24438380I0J150000D01*
G01*
X26628620Y24738380D01*
G75*
G02*
X26778620Y24888380I150000J0D01*
G01*
X28428620Y24888380D01*
G75*
G02*
X28578620Y24738380I0J-150000D01*
G01*
G37*
G36*
G01*
X33528620Y24738380D02*
X33528620Y24438380D01*
G75*
G02*
X33378620Y24288380I-150000J0D01*
G01*
X31728620Y24288380D01*
G75*
G02*
X31578620Y24438380I0J150000D01*
G01*
X31578620Y24738380D01*
G75*
G02*
X31728620Y24888380I150000J0D01*
G01*
X33378620Y24888380D01*
G75*
G02*
X33528620Y24738380I0J-150000D01*
G01*
G37*
G36*
G01*
X33528620Y26008380D02*
X33528620Y25708380D01*
G75*
G02*
X33378620Y25558380I-150000J0D01*
G01*
X31728620Y25558380D01*
G75*
G02*
X31578620Y25708380I0J150000D01*
G01*
X31578620Y26008380D01*
G75*
G02*
X31728620Y26158380I150000J0D01*
G01*
X33378620Y26158380D01*
G75*
G02*
X33528620Y26008380I0J-150000D01*
G01*
G37*
G36*
G01*
X33528620Y27278380D02*
X33528620Y26978380D01*
G75*
G02*
X33378620Y26828380I-150000J0D01*
G01*
X31728620Y26828380D01*
G75*
G02*
X31578620Y26978380I0J150000D01*
G01*
X31578620Y27278380D01*
G75*
G02*
X31728620Y27428380I150000J0D01*
G01*
X33378620Y27428380D01*
G75*
G02*
X33528620Y27278380I0J-150000D01*
G01*
G37*
G36*
G01*
X33528620Y28548380D02*
X33528620Y28248380D01*
G75*
G02*
X33378620Y28098380I-150000J0D01*
G01*
X31728620Y28098380D01*
G75*
G02*
X31578620Y28248380I0J150000D01*
G01*
X31578620Y28548380D01*
G75*
G02*
X31728620Y28698380I150000J0D01*
G01*
X33378620Y28698380D01*
G75*
G02*
X33528620Y28548380I0J-150000D01*
G01*
G37*
G36*
G01*
X44907280Y29103360D02*
X44607280Y29103360D01*
G75*
G02*
X44457280Y29253360I0J150000D01*
G01*
X44457280Y30903360D01*
G75*
G02*
X44607280Y31053360I150000J0D01*
G01*
X44907280Y31053360D01*
G75*
G02*
X45057280Y30903360I0J-150000D01*
G01*
X45057280Y29253360D01*
G75*
G02*
X44907280Y29103360I-150000J0D01*
G01*
G37*
G36*
G01*
X43637280Y29103360D02*
X43337280Y29103360D01*
G75*
G02*
X43187280Y29253360I0J150000D01*
G01*
X43187280Y30903360D01*
G75*
G02*
X43337280Y31053360I150000J0D01*
G01*
X43637280Y31053360D01*
G75*
G02*
X43787280Y30903360I0J-150000D01*
G01*
X43787280Y29253360D01*
G75*
G02*
X43637280Y29103360I-150000J0D01*
G01*
G37*
G36*
G01*
X42367280Y29103360D02*
X42067280Y29103360D01*
G75*
G02*
X41917280Y29253360I0J150000D01*
G01*
X41917280Y30903360D01*
G75*
G02*
X42067280Y31053360I150000J0D01*
G01*
X42367280Y31053360D01*
G75*
G02*
X42517280Y30903360I0J-150000D01*
G01*
X42517280Y29253360D01*
G75*
G02*
X42367280Y29103360I-150000J0D01*
G01*
G37*
G36*
G01*
X41097280Y29103360D02*
X40797280Y29103360D01*
G75*
G02*
X40647280Y29253360I0J150000D01*
G01*
X40647280Y30903360D01*
G75*
G02*
X40797280Y31053360I150000J0D01*
G01*
X41097280Y31053360D01*
G75*
G02*
X41247280Y30903360I0J-150000D01*
G01*
X41247280Y29253360D01*
G75*
G02*
X41097280Y29103360I-150000J0D01*
G01*
G37*
G36*
G01*
X39827280Y29103360D02*
X39527280Y29103360D01*
G75*
G02*
X39377280Y29253360I0J150000D01*
G01*
X39377280Y30903360D01*
G75*
G02*
X39527280Y31053360I150000J0D01*
G01*
X39827280Y31053360D01*
G75*
G02*
X39977280Y30903360I0J-150000D01*
G01*
X39977280Y29253360D01*
G75*
G02*
X39827280Y29103360I-150000J0D01*
G01*
G37*
G36*
G01*
X38557280Y29103360D02*
X38257280Y29103360D01*
G75*
G02*
X38107280Y29253360I0J150000D01*
G01*
X38107280Y30903360D01*
G75*
G02*
X38257280Y31053360I150000J0D01*
G01*
X38557280Y31053360D01*
G75*
G02*
X38707280Y30903360I0J-150000D01*
G01*
X38707280Y29253360D01*
G75*
G02*
X38557280Y29103360I-150000J0D01*
G01*
G37*
G36*
G01*
X37287280Y29103360D02*
X36987280Y29103360D01*
G75*
G02*
X36837280Y29253360I0J150000D01*
G01*
X36837280Y30903360D01*
G75*
G02*
X36987280Y31053360I150000J0D01*
G01*
X37287280Y31053360D01*
G75*
G02*
X37437280Y30903360I0J-150000D01*
G01*
X37437280Y29253360D01*
G75*
G02*
X37287280Y29103360I-150000J0D01*
G01*
G37*
G36*
G01*
X36017280Y29103360D02*
X35717280Y29103360D01*
G75*
G02*
X35567280Y29253360I0J150000D01*
G01*
X35567280Y30903360D01*
G75*
G02*
X35717280Y31053360I150000J0D01*
G01*
X36017280Y31053360D01*
G75*
G02*
X36167280Y30903360I0J-150000D01*
G01*
X36167280Y29253360D01*
G75*
G02*
X36017280Y29103360I-150000J0D01*
G01*
G37*
G36*
G01*
X36017280Y24153360D02*
X35717280Y24153360D01*
G75*
G02*
X35567280Y24303360I0J150000D01*
G01*
X35567280Y25953360D01*
G75*
G02*
X35717280Y26103360I150000J0D01*
G01*
X36017280Y26103360D01*
G75*
G02*
X36167280Y25953360I0J-150000D01*
G01*
X36167280Y24303360D01*
G75*
G02*
X36017280Y24153360I-150000J0D01*
G01*
G37*
G36*
G01*
X37287280Y24153360D02*
X36987280Y24153360D01*
G75*
G02*
X36837280Y24303360I0J150000D01*
G01*
X36837280Y25953360D01*
G75*
G02*
X36987280Y26103360I150000J0D01*
G01*
X37287280Y26103360D01*
G75*
G02*
X37437280Y25953360I0J-150000D01*
G01*
X37437280Y24303360D01*
G75*
G02*
X37287280Y24153360I-150000J0D01*
G01*
G37*
G36*
G01*
X38557280Y24153360D02*
X38257280Y24153360D01*
G75*
G02*
X38107280Y24303360I0J150000D01*
G01*
X38107280Y25953360D01*
G75*
G02*
X38257280Y26103360I150000J0D01*
G01*
X38557280Y26103360D01*
G75*
G02*
X38707280Y25953360I0J-150000D01*
G01*
X38707280Y24303360D01*
G75*
G02*
X38557280Y24153360I-150000J0D01*
G01*
G37*
G36*
G01*
X39827280Y24153360D02*
X39527280Y24153360D01*
G75*
G02*
X39377280Y24303360I0J150000D01*
G01*
X39377280Y25953360D01*
G75*
G02*
X39527280Y26103360I150000J0D01*
G01*
X39827280Y26103360D01*
G75*
G02*
X39977280Y25953360I0J-150000D01*
G01*
X39977280Y24303360D01*
G75*
G02*
X39827280Y24153360I-150000J0D01*
G01*
G37*
G36*
G01*
X41097280Y24153360D02*
X40797280Y24153360D01*
G75*
G02*
X40647280Y24303360I0J150000D01*
G01*
X40647280Y25953360D01*
G75*
G02*
X40797280Y26103360I150000J0D01*
G01*
X41097280Y26103360D01*
G75*
G02*
X41247280Y25953360I0J-150000D01*
G01*
X41247280Y24303360D01*
G75*
G02*
X41097280Y24153360I-150000J0D01*
G01*
G37*
G36*
G01*
X42367280Y24153360D02*
X42067280Y24153360D01*
G75*
G02*
X41917280Y24303360I0J150000D01*
G01*
X41917280Y25953360D01*
G75*
G02*
X42067280Y26103360I150000J0D01*
G01*
X42367280Y26103360D01*
G75*
G02*
X42517280Y25953360I0J-150000D01*
G01*
X42517280Y24303360D01*
G75*
G02*
X42367280Y24153360I-150000J0D01*
G01*
G37*
G36*
G01*
X43637280Y24153360D02*
X43337280Y24153360D01*
G75*
G02*
X43187280Y24303360I0J150000D01*
G01*
X43187280Y25953360D01*
G75*
G02*
X43337280Y26103360I150000J0D01*
G01*
X43637280Y26103360D01*
G75*
G02*
X43787280Y25953360I0J-150000D01*
G01*
X43787280Y24303360D01*
G75*
G02*
X43637280Y24153360I-150000J0D01*
G01*
G37*
G36*
G01*
X44907280Y24153360D02*
X44607280Y24153360D01*
G75*
G02*
X44457280Y24303360I0J150000D01*
G01*
X44457280Y25953360D01*
G75*
G02*
X44607280Y26103360I150000J0D01*
G01*
X44907280Y26103360D01*
G75*
G02*
X45057280Y25953360I0J-150000D01*
G01*
X45057280Y24303360D01*
G75*
G02*
X44907280Y24153360I-150000J0D01*
G01*
G37*
G36*
G01*
X20457240Y24569920D02*
X20157240Y24569920D01*
G75*
G02*
X20007240Y24719920I0J150000D01*
G01*
X20007240Y26369920D01*
G75*
G02*
X20157240Y26519920I150000J0D01*
G01*
X20457240Y26519920D01*
G75*
G02*
X20607240Y26369920I0J-150000D01*
G01*
X20607240Y24719920D01*
G75*
G02*
X20457240Y24569920I-150000J0D01*
G01*
G37*
G36*
G01*
X19187240Y24569920D02*
X18887240Y24569920D01*
G75*
G02*
X18737240Y24719920I0J150000D01*
G01*
X18737240Y26369920D01*
G75*
G02*
X18887240Y26519920I150000J0D01*
G01*
X19187240Y26519920D01*
G75*
G02*
X19337240Y26369920I0J-150000D01*
G01*
X19337240Y24719920D01*
G75*
G02*
X19187240Y24569920I-150000J0D01*
G01*
G37*
G36*
G01*
X17917240Y24569920D02*
X17617240Y24569920D01*
G75*
G02*
X17467240Y24719920I0J150000D01*
G01*
X17467240Y26369920D01*
G75*
G02*
X17617240Y26519920I150000J0D01*
G01*
X17917240Y26519920D01*
G75*
G02*
X18067240Y26369920I0J-150000D01*
G01*
X18067240Y24719920D01*
G75*
G02*
X17917240Y24569920I-150000J0D01*
G01*
G37*
G36*
G01*
X16647240Y24569920D02*
X16347240Y24569920D01*
G75*
G02*
X16197240Y24719920I0J150000D01*
G01*
X16197240Y26369920D01*
G75*
G02*
X16347240Y26519920I150000J0D01*
G01*
X16647240Y26519920D01*
G75*
G02*
X16797240Y26369920I0J-150000D01*
G01*
X16797240Y24719920D01*
G75*
G02*
X16647240Y24569920I-150000J0D01*
G01*
G37*
G36*
G01*
X15377240Y24569920D02*
X15077240Y24569920D01*
G75*
G02*
X14927240Y24719920I0J150000D01*
G01*
X14927240Y26369920D01*
G75*
G02*
X15077240Y26519920I150000J0D01*
G01*
X15377240Y26519920D01*
G75*
G02*
X15527240Y26369920I0J-150000D01*
G01*
X15527240Y24719920D01*
G75*
G02*
X15377240Y24569920I-150000J0D01*
G01*
G37*
G36*
G01*
X14107240Y24569920D02*
X13807240Y24569920D01*
G75*
G02*
X13657240Y24719920I0J150000D01*
G01*
X13657240Y26369920D01*
G75*
G02*
X13807240Y26519920I150000J0D01*
G01*
X14107240Y26519920D01*
G75*
G02*
X14257240Y26369920I0J-150000D01*
G01*
X14257240Y24719920D01*
G75*
G02*
X14107240Y24569920I-150000J0D01*
G01*
G37*
G36*
G01*
X12837240Y24569920D02*
X12537240Y24569920D01*
G75*
G02*
X12387240Y24719920I0J150000D01*
G01*
X12387240Y26369920D01*
G75*
G02*
X12537240Y26519920I150000J0D01*
G01*
X12837240Y26519920D01*
G75*
G02*
X12987240Y26369920I0J-150000D01*
G01*
X12987240Y24719920D01*
G75*
G02*
X12837240Y24569920I-150000J0D01*
G01*
G37*
G36*
G01*
X12837240Y29519920D02*
X12537240Y29519920D01*
G75*
G02*
X12387240Y29669920I0J150000D01*
G01*
X12387240Y31319920D01*
G75*
G02*
X12537240Y31469920I150000J0D01*
G01*
X12837240Y31469920D01*
G75*
G02*
X12987240Y31319920I0J-150000D01*
G01*
X12987240Y29669920D01*
G75*
G02*
X12837240Y29519920I-150000J0D01*
G01*
G37*
G36*
G01*
X14107240Y29519920D02*
X13807240Y29519920D01*
G75*
G02*
X13657240Y29669920I0J150000D01*
G01*
X13657240Y31319920D01*
G75*
G02*
X13807240Y31469920I150000J0D01*
G01*
X14107240Y31469920D01*
G75*
G02*
X14257240Y31319920I0J-150000D01*
G01*
X14257240Y29669920D01*
G75*
G02*
X14107240Y29519920I-150000J0D01*
G01*
G37*
G36*
G01*
X15377240Y29519920D02*
X15077240Y29519920D01*
G75*
G02*
X14927240Y29669920I0J150000D01*
G01*
X14927240Y31319920D01*
G75*
G02*
X15077240Y31469920I150000J0D01*
G01*
X15377240Y31469920D01*
G75*
G02*
X15527240Y31319920I0J-150000D01*
G01*
X15527240Y29669920D01*
G75*
G02*
X15377240Y29519920I-150000J0D01*
G01*
G37*
G36*
G01*
X16647240Y29519920D02*
X16347240Y29519920D01*
G75*
G02*
X16197240Y29669920I0J150000D01*
G01*
X16197240Y31319920D01*
G75*
G02*
X16347240Y31469920I150000J0D01*
G01*
X16647240Y31469920D01*
G75*
G02*
X16797240Y31319920I0J-150000D01*
G01*
X16797240Y29669920D01*
G75*
G02*
X16647240Y29519920I-150000J0D01*
G01*
G37*
G36*
G01*
X17917240Y29519920D02*
X17617240Y29519920D01*
G75*
G02*
X17467240Y29669920I0J150000D01*
G01*
X17467240Y31319920D01*
G75*
G02*
X17617240Y31469920I150000J0D01*
G01*
X17917240Y31469920D01*
G75*
G02*
X18067240Y31319920I0J-150000D01*
G01*
X18067240Y29669920D01*
G75*
G02*
X17917240Y29519920I-150000J0D01*
G01*
G37*
G36*
G01*
X19187240Y29519920D02*
X18887240Y29519920D01*
G75*
G02*
X18737240Y29669920I0J150000D01*
G01*
X18737240Y31319920D01*
G75*
G02*
X18887240Y31469920I150000J0D01*
G01*
X19187240Y31469920D01*
G75*
G02*
X19337240Y31319920I0J-150000D01*
G01*
X19337240Y29669920D01*
G75*
G02*
X19187240Y29519920I-150000J0D01*
G01*
G37*
G36*
G01*
X20457240Y29519920D02*
X20157240Y29519920D01*
G75*
G02*
X20007240Y29669920I0J150000D01*
G01*
X20007240Y31319920D01*
G75*
G02*
X20157240Y31469920I150000J0D01*
G01*
X20457240Y31469920D01*
G75*
G02*
X20607240Y31319920I0J-150000D01*
G01*
X20607240Y29669920D01*
G75*
G02*
X20457240Y29519920I-150000J0D01*
G01*
G37*
G36*
G01*
X111285100Y29103360D02*
X110985100Y29103360D01*
G75*
G02*
X110835100Y29253360I0J150000D01*
G01*
X110835100Y30903360D01*
G75*
G02*
X110985100Y31053360I150000J0D01*
G01*
X111285100Y31053360D01*
G75*
G02*
X111435100Y30903360I0J-150000D01*
G01*
X111435100Y29253360D01*
G75*
G02*
X111285100Y29103360I-150000J0D01*
G01*
G37*
G36*
G01*
X110015100Y29103360D02*
X109715100Y29103360D01*
G75*
G02*
X109565100Y29253360I0J150000D01*
G01*
X109565100Y30903360D01*
G75*
G02*
X109715100Y31053360I150000J0D01*
G01*
X110015100Y31053360D01*
G75*
G02*
X110165100Y30903360I0J-150000D01*
G01*
X110165100Y29253360D01*
G75*
G02*
X110015100Y29103360I-150000J0D01*
G01*
G37*
G36*
G01*
X108745100Y29103360D02*
X108445100Y29103360D01*
G75*
G02*
X108295100Y29253360I0J150000D01*
G01*
X108295100Y30903360D01*
G75*
G02*
X108445100Y31053360I150000J0D01*
G01*
X108745100Y31053360D01*
G75*
G02*
X108895100Y30903360I0J-150000D01*
G01*
X108895100Y29253360D01*
G75*
G02*
X108745100Y29103360I-150000J0D01*
G01*
G37*
G36*
G01*
X107475100Y29103360D02*
X107175100Y29103360D01*
G75*
G02*
X107025100Y29253360I0J150000D01*
G01*
X107025100Y30903360D01*
G75*
G02*
X107175100Y31053360I150000J0D01*
G01*
X107475100Y31053360D01*
G75*
G02*
X107625100Y30903360I0J-150000D01*
G01*
X107625100Y29253360D01*
G75*
G02*
X107475100Y29103360I-150000J0D01*
G01*
G37*
G36*
G01*
X106205100Y29103360D02*
X105905100Y29103360D01*
G75*
G02*
X105755100Y29253360I0J150000D01*
G01*
X105755100Y30903360D01*
G75*
G02*
X105905100Y31053360I150000J0D01*
G01*
X106205100Y31053360D01*
G75*
G02*
X106355100Y30903360I0J-150000D01*
G01*
X106355100Y29253360D01*
G75*
G02*
X106205100Y29103360I-150000J0D01*
G01*
G37*
G36*
G01*
X104935100Y29103360D02*
X104635100Y29103360D01*
G75*
G02*
X104485100Y29253360I0J150000D01*
G01*
X104485100Y30903360D01*
G75*
G02*
X104635100Y31053360I150000J0D01*
G01*
X104935100Y31053360D01*
G75*
G02*
X105085100Y30903360I0J-150000D01*
G01*
X105085100Y29253360D01*
G75*
G02*
X104935100Y29103360I-150000J0D01*
G01*
G37*
G36*
G01*
X103665100Y29103360D02*
X103365100Y29103360D01*
G75*
G02*
X103215100Y29253360I0J150000D01*
G01*
X103215100Y30903360D01*
G75*
G02*
X103365100Y31053360I150000J0D01*
G01*
X103665100Y31053360D01*
G75*
G02*
X103815100Y30903360I0J-150000D01*
G01*
X103815100Y29253360D01*
G75*
G02*
X103665100Y29103360I-150000J0D01*
G01*
G37*
G36*
G01*
X102395100Y29103360D02*
X102095100Y29103360D01*
G75*
G02*
X101945100Y29253360I0J150000D01*
G01*
X101945100Y30903360D01*
G75*
G02*
X102095100Y31053360I150000J0D01*
G01*
X102395100Y31053360D01*
G75*
G02*
X102545100Y30903360I0J-150000D01*
G01*
X102545100Y29253360D01*
G75*
G02*
X102395100Y29103360I-150000J0D01*
G01*
G37*
G36*
G01*
X102395100Y24153360D02*
X102095100Y24153360D01*
G75*
G02*
X101945100Y24303360I0J150000D01*
G01*
X101945100Y25953360D01*
G75*
G02*
X102095100Y26103360I150000J0D01*
G01*
X102395100Y26103360D01*
G75*
G02*
X102545100Y25953360I0J-150000D01*
G01*
X102545100Y24303360D01*
G75*
G02*
X102395100Y24153360I-150000J0D01*
G01*
G37*
G36*
G01*
X103665100Y24153360D02*
X103365100Y24153360D01*
G75*
G02*
X103215100Y24303360I0J150000D01*
G01*
X103215100Y25953360D01*
G75*
G02*
X103365100Y26103360I150000J0D01*
G01*
X103665100Y26103360D01*
G75*
G02*
X103815100Y25953360I0J-150000D01*
G01*
X103815100Y24303360D01*
G75*
G02*
X103665100Y24153360I-150000J0D01*
G01*
G37*
G36*
G01*
X104935100Y24153360D02*
X104635100Y24153360D01*
G75*
G02*
X104485100Y24303360I0J150000D01*
G01*
X104485100Y25953360D01*
G75*
G02*
X104635100Y26103360I150000J0D01*
G01*
X104935100Y26103360D01*
G75*
G02*
X105085100Y25953360I0J-150000D01*
G01*
X105085100Y24303360D01*
G75*
G02*
X104935100Y24153360I-150000J0D01*
G01*
G37*
G36*
G01*
X106205100Y24153360D02*
X105905100Y24153360D01*
G75*
G02*
X105755100Y24303360I0J150000D01*
G01*
X105755100Y25953360D01*
G75*
G02*
X105905100Y26103360I150000J0D01*
G01*
X106205100Y26103360D01*
G75*
G02*
X106355100Y25953360I0J-150000D01*
G01*
X106355100Y24303360D01*
G75*
G02*
X106205100Y24153360I-150000J0D01*
G01*
G37*
G36*
G01*
X107475100Y24153360D02*
X107175100Y24153360D01*
G75*
G02*
X107025100Y24303360I0J150000D01*
G01*
X107025100Y25953360D01*
G75*
G02*
X107175100Y26103360I150000J0D01*
G01*
X107475100Y26103360D01*
G75*
G02*
X107625100Y25953360I0J-150000D01*
G01*
X107625100Y24303360D01*
G75*
G02*
X107475100Y24153360I-150000J0D01*
G01*
G37*
G36*
G01*
X108745100Y24153360D02*
X108445100Y24153360D01*
G75*
G02*
X108295100Y24303360I0J150000D01*
G01*
X108295100Y25953360D01*
G75*
G02*
X108445100Y26103360I150000J0D01*
G01*
X108745100Y26103360D01*
G75*
G02*
X108895100Y25953360I0J-150000D01*
G01*
X108895100Y24303360D01*
G75*
G02*
X108745100Y24153360I-150000J0D01*
G01*
G37*
G36*
G01*
X110015100Y24153360D02*
X109715100Y24153360D01*
G75*
G02*
X109565100Y24303360I0J150000D01*
G01*
X109565100Y25953360D01*
G75*
G02*
X109715100Y26103360I150000J0D01*
G01*
X110015100Y26103360D01*
G75*
G02*
X110165100Y25953360I0J-150000D01*
G01*
X110165100Y24303360D01*
G75*
G02*
X110015100Y24153360I-150000J0D01*
G01*
G37*
G36*
G01*
X111285100Y24153360D02*
X110985100Y24153360D01*
G75*
G02*
X110835100Y24303360I0J150000D01*
G01*
X110835100Y25953360D01*
G75*
G02*
X110985100Y26103360I150000J0D01*
G01*
X111285100Y26103360D01*
G75*
G02*
X111435100Y25953360I0J-150000D01*
G01*
X111435100Y24303360D01*
G75*
G02*
X111285100Y24153360I-150000J0D01*
G01*
G37*
M02*
