G04 #@! TF.GenerationSoftware,KiCad,Pcbnew,5.1.6+dfsg1-1~bpo10+1*
G04 #@! TF.CreationDate,2020-08-17T15:44:58+03:00*
G04 #@! TF.ProjectId,beam_p,6265616d-5f70-42e6-9b69-6361645f7063,0.0.3*
G04 #@! TF.SameCoordinates,PX6a55ae0PY872eef0*
G04 #@! TF.FileFunction,Legend,Bot*
G04 #@! TF.FilePolarity,Positive*
%FSLAX46Y46*%
G04 Gerber Fmt 4.6, Leading zero omitted, Abs format (unit mm)*
G04 Created by KiCad (PCBNEW 5.1.6+dfsg1-1~bpo10+1) date 2020-08-17 15:44:58*
%MOMM*%
%LPD*%
G01*
G04 APERTURE LIST*
%ADD10C,0.150000*%
%ADD11C,0.120000*%
%ADD12C,0.300000*%
G04 APERTURE END LIST*
D10*
X45340476Y3046429D02*
X45197619Y2998810D01*
X45150000Y2951191D01*
X45102380Y2855953D01*
X45102380Y2713096D01*
X45150000Y2617858D01*
X45197619Y2570239D01*
X45292857Y2522620D01*
X45673809Y2522620D01*
X45673809Y3522620D01*
X45340476Y3522620D01*
X45245238Y3475000D01*
X45197619Y3427381D01*
X45150000Y3332143D01*
X45150000Y3236905D01*
X45197619Y3141667D01*
X45245238Y3094048D01*
X45340476Y3046429D01*
X45673809Y3046429D01*
X44245238Y2522620D02*
X44245238Y3046429D01*
X44292857Y3141667D01*
X44388095Y3189286D01*
X44578571Y3189286D01*
X44673809Y3141667D01*
X44245238Y2570239D02*
X44340476Y2522620D01*
X44578571Y2522620D01*
X44673809Y2570239D01*
X44721428Y2665477D01*
X44721428Y2760715D01*
X44673809Y2855953D01*
X44578571Y2903572D01*
X44340476Y2903572D01*
X44245238Y2951191D01*
X43816666Y2570239D02*
X43721428Y2522620D01*
X43530952Y2522620D01*
X43435714Y2570239D01*
X43388095Y2665477D01*
X43388095Y2713096D01*
X43435714Y2808334D01*
X43530952Y2855953D01*
X43673809Y2855953D01*
X43769047Y2903572D01*
X43816666Y2998810D01*
X43816666Y3046429D01*
X43769047Y3141667D01*
X43673809Y3189286D01*
X43530952Y3189286D01*
X43435714Y3141667D01*
X42578571Y2570239D02*
X42673809Y2522620D01*
X42864285Y2522620D01*
X42959523Y2570239D01*
X43007142Y2665477D01*
X43007142Y3046429D01*
X42959523Y3141667D01*
X42864285Y3189286D01*
X42673809Y3189286D01*
X42578571Y3141667D01*
X42530952Y3046429D01*
X42530952Y2951191D01*
X43007142Y2855953D01*
X41673809Y2522620D02*
X41673809Y3522620D01*
X41673809Y2570239D02*
X41769047Y2522620D01*
X41959523Y2522620D01*
X42054761Y2570239D01*
X42102380Y2617858D01*
X42150000Y2713096D01*
X42150000Y2998810D01*
X42102380Y3094048D01*
X42054761Y3141667D01*
X41959523Y3189286D01*
X41769047Y3189286D01*
X41673809Y3141667D01*
X40292857Y2522620D02*
X40388095Y2570239D01*
X40435714Y2617858D01*
X40483333Y2713096D01*
X40483333Y2998810D01*
X40435714Y3094048D01*
X40388095Y3141667D01*
X40292857Y3189286D01*
X40150000Y3189286D01*
X40054761Y3141667D01*
X40007142Y3094048D01*
X39959523Y2998810D01*
X39959523Y2713096D01*
X40007142Y2617858D01*
X40054761Y2570239D01*
X40150000Y2522620D01*
X40292857Y2522620D01*
X39530952Y3189286D02*
X39530952Y2522620D01*
X39530952Y3094048D02*
X39483333Y3141667D01*
X39388095Y3189286D01*
X39245238Y3189286D01*
X39150000Y3141667D01*
X39102380Y3046429D01*
X39102380Y2522620D01*
X37721428Y2522620D02*
X37816666Y2570239D01*
X37864285Y2617858D01*
X37911904Y2713096D01*
X37911904Y2998810D01*
X37864285Y3094048D01*
X37816666Y3141667D01*
X37721428Y3189286D01*
X37578571Y3189286D01*
X37483333Y3141667D01*
X37435714Y3094048D01*
X37388095Y2998810D01*
X37388095Y2713096D01*
X37435714Y2617858D01*
X37483333Y2570239D01*
X37578571Y2522620D01*
X37721428Y2522620D01*
X36959523Y2522620D02*
X36959523Y3189286D01*
X36959523Y2998810D02*
X36911904Y3094048D01*
X36864285Y3141667D01*
X36769047Y3189286D01*
X36673809Y3189286D01*
X36340476Y2522620D02*
X36340476Y3189286D01*
X36340476Y3522620D02*
X36388095Y3475000D01*
X36340476Y3427381D01*
X36292857Y3475000D01*
X36340476Y3522620D01*
X36340476Y3427381D01*
X35435714Y3189286D02*
X35435714Y2379762D01*
X35483333Y2284524D01*
X35530952Y2236905D01*
X35626190Y2189286D01*
X35769047Y2189286D01*
X35864285Y2236905D01*
X35435714Y2570239D02*
X35530952Y2522620D01*
X35721428Y2522620D01*
X35816666Y2570239D01*
X35864285Y2617858D01*
X35911904Y2713096D01*
X35911904Y2998810D01*
X35864285Y3094048D01*
X35816666Y3141667D01*
X35721428Y3189286D01*
X35530952Y3189286D01*
X35435714Y3141667D01*
X34959523Y2522620D02*
X34959523Y3189286D01*
X34959523Y3522620D02*
X35007142Y3475000D01*
X34959523Y3427381D01*
X34911904Y3475000D01*
X34959523Y3522620D01*
X34959523Y3427381D01*
X34483333Y3189286D02*
X34483333Y2522620D01*
X34483333Y3094048D02*
X34435714Y3141667D01*
X34340476Y3189286D01*
X34197619Y3189286D01*
X34102380Y3141667D01*
X34054761Y3046429D01*
X34054761Y2522620D01*
X33150000Y2522620D02*
X33150000Y3046429D01*
X33197619Y3141667D01*
X33292857Y3189286D01*
X33483333Y3189286D01*
X33578571Y3141667D01*
X33150000Y2570239D02*
X33245238Y2522620D01*
X33483333Y2522620D01*
X33578571Y2570239D01*
X33626190Y2665477D01*
X33626190Y2760715D01*
X33578571Y2855953D01*
X33483333Y2903572D01*
X33245238Y2903572D01*
X33150000Y2951191D01*
X32530952Y2522620D02*
X32626190Y2570239D01*
X32673809Y2665477D01*
X32673809Y3522620D01*
X45340476Y1539286D02*
X45150000Y872620D01*
X44959523Y1348810D01*
X44769047Y872620D01*
X44578571Y1539286D01*
X44054761Y872620D02*
X44150000Y920239D01*
X44197619Y967858D01*
X44245238Y1063096D01*
X44245238Y1348810D01*
X44197619Y1444048D01*
X44150000Y1491667D01*
X44054761Y1539286D01*
X43911904Y1539286D01*
X43816666Y1491667D01*
X43769047Y1444048D01*
X43721428Y1348810D01*
X43721428Y1063096D01*
X43769047Y967858D01*
X43816666Y920239D01*
X43911904Y872620D01*
X44054761Y872620D01*
X43292857Y872620D02*
X43292857Y1539286D01*
X43292857Y1348810D02*
X43245238Y1444048D01*
X43197619Y1491667D01*
X43102380Y1539286D01*
X43007142Y1539286D01*
X42673809Y872620D02*
X42673809Y1872620D01*
X42578571Y1253572D02*
X42292857Y872620D01*
X42292857Y1539286D02*
X42673809Y1158334D01*
X41102380Y872620D02*
X41102380Y1872620D01*
X41102380Y1491667D02*
X41007142Y1539286D01*
X40816666Y1539286D01*
X40721428Y1491667D01*
X40673809Y1444048D01*
X40626190Y1348810D01*
X40626190Y1063096D01*
X40673809Y967858D01*
X40721428Y920239D01*
X40816666Y872620D01*
X41007142Y872620D01*
X41102380Y920239D01*
X40292857Y1539286D02*
X40054761Y872620D01*
X39816666Y1539286D02*
X40054761Y872620D01*
X40150000Y634524D01*
X40197619Y586905D01*
X40292857Y539286D01*
X38769047Y872620D02*
X38245238Y1539286D01*
X38769047Y1539286D02*
X38245238Y872620D01*
X37959523Y1539286D02*
X37769047Y872620D01*
X37578571Y1348810D01*
X37388095Y872620D01*
X37197619Y1539286D01*
X36816666Y872620D02*
X36816666Y1872620D01*
X36388095Y872620D02*
X36388095Y1396429D01*
X36435714Y1491667D01*
X36530952Y1539286D01*
X36673809Y1539286D01*
X36769047Y1491667D01*
X36816666Y1444048D01*
X35483333Y872620D02*
X35483333Y1396429D01*
X35530952Y1491667D01*
X35626190Y1539286D01*
X35816666Y1539286D01*
X35911904Y1491667D01*
X35483333Y920239D02*
X35578571Y872620D01*
X35816666Y872620D01*
X35911904Y920239D01*
X35959523Y1015477D01*
X35959523Y1110715D01*
X35911904Y1205953D01*
X35816666Y1253572D01*
X35578571Y1253572D01*
X35483333Y1301191D01*
X35150000Y1539286D02*
X34769047Y1539286D01*
X35007142Y1872620D02*
X35007142Y1015477D01*
X34959523Y920239D01*
X34864285Y872620D01*
X34769047Y872620D01*
X34483333Y920239D02*
X34388095Y872620D01*
X34197619Y872620D01*
X34102380Y920239D01*
X34054761Y1015477D01*
X34054761Y1063096D01*
X34102380Y1158334D01*
X34197619Y1205953D01*
X34340476Y1205953D01*
X34435714Y1253572D01*
X34483333Y1348810D01*
X34483333Y1396429D01*
X34435714Y1491667D01*
X34340476Y1539286D01*
X34197619Y1539286D01*
X34102380Y1491667D01*
X33626190Y872620D02*
X33626190Y1539286D01*
X33626190Y1872620D02*
X33673809Y1825000D01*
X33626190Y1777381D01*
X33578571Y1825000D01*
X33626190Y1872620D01*
X33626190Y1777381D01*
X33292857Y1539286D02*
X32911904Y1539286D01*
X33150000Y1872620D02*
X33150000Y1015477D01*
X33102380Y920239D01*
X33007142Y872620D01*
X32911904Y872620D01*
X4450000Y15011905D02*
X4402380Y15107143D01*
X4402380Y15250000D01*
X4450000Y15392858D01*
X4545238Y15488096D01*
X4640476Y15535715D01*
X4830952Y15583334D01*
X4973809Y15583334D01*
X5164285Y15535715D01*
X5259523Y15488096D01*
X5354761Y15392858D01*
X5402380Y15250000D01*
X5402380Y15154762D01*
X5354761Y15011905D01*
X5307142Y14964286D01*
X4973809Y14964286D01*
X4973809Y15154762D01*
X5402380Y14535715D02*
X4402380Y14535715D01*
X5402380Y13964286D01*
X4402380Y13964286D01*
X5402380Y13488096D02*
X4402380Y13488096D01*
X4402380Y13250000D01*
X4450000Y13107143D01*
X4545238Y13011905D01*
X4640476Y12964286D01*
X4830952Y12916667D01*
X4973809Y12916667D01*
X5164285Y12964286D01*
X5259523Y13011905D01*
X5354761Y13107143D01*
X5402380Y13250000D01*
X5402380Y13488096D01*
X7902380Y14947620D02*
X7426190Y15280953D01*
X7902380Y15519048D02*
X6902380Y15519048D01*
X6902380Y15138096D01*
X6950000Y15042858D01*
X6997619Y14995239D01*
X7092857Y14947620D01*
X7235714Y14947620D01*
X7330952Y14995239D01*
X7378571Y15042858D01*
X7426190Y15138096D01*
X7426190Y15519048D01*
X7854761Y14566667D02*
X7902380Y14423810D01*
X7902380Y14185715D01*
X7854761Y14090477D01*
X7807142Y14042858D01*
X7711904Y13995239D01*
X7616666Y13995239D01*
X7521428Y14042858D01*
X7473809Y14090477D01*
X7426190Y14185715D01*
X7378571Y14376191D01*
X7330952Y14471429D01*
X7283333Y14519048D01*
X7188095Y14566667D01*
X7092857Y14566667D01*
X6997619Y14519048D01*
X6950000Y14471429D01*
X6902380Y14376191D01*
X6902380Y14138096D01*
X6950000Y13995239D01*
X6902380Y13709524D02*
X6902380Y13138096D01*
X7902380Y13423810D02*
X6902380Y13423810D01*
X111904761Y4967858D02*
X111952380Y4920239D01*
X112095238Y4872620D01*
X112190476Y4872620D01*
X112333333Y4920239D01*
X112428571Y5015477D01*
X112476190Y5110715D01*
X112523809Y5301191D01*
X112523809Y5444048D01*
X112476190Y5634524D01*
X112428571Y5729762D01*
X112333333Y5825000D01*
X112190476Y5872620D01*
X112095238Y5872620D01*
X111952380Y5825000D01*
X111904761Y5777381D01*
X111333333Y4872620D02*
X111428571Y4920239D01*
X111476190Y4967858D01*
X111523809Y5063096D01*
X111523809Y5348810D01*
X111476190Y5444048D01*
X111428571Y5491667D01*
X111333333Y5539286D01*
X111190476Y5539286D01*
X111095238Y5491667D01*
X111047619Y5444048D01*
X111000000Y5348810D01*
X111000000Y5063096D01*
X111047619Y4967858D01*
X111095238Y4920239D01*
X111190476Y4872620D01*
X111333333Y4872620D01*
X110571428Y4872620D02*
X110571428Y5539286D01*
X110571428Y5444048D02*
X110523809Y5491667D01*
X110428571Y5539286D01*
X110285714Y5539286D01*
X110190476Y5491667D01*
X110142857Y5396429D01*
X110142857Y4872620D01*
X110142857Y5396429D02*
X110095238Y5491667D01*
X110000000Y5539286D01*
X109857142Y5539286D01*
X109761904Y5491667D01*
X109714285Y5396429D01*
X109714285Y4872620D01*
X109238095Y5539286D02*
X109238095Y4539286D01*
X109238095Y5491667D02*
X109142857Y5539286D01*
X108952380Y5539286D01*
X108857142Y5491667D01*
X108809523Y5444048D01*
X108761904Y5348810D01*
X108761904Y5063096D01*
X108809523Y4967858D01*
X108857142Y4920239D01*
X108952380Y4872620D01*
X109142857Y4872620D01*
X109238095Y4920239D01*
X107904761Y4872620D02*
X107904761Y5396429D01*
X107952380Y5491667D01*
X108047619Y5539286D01*
X108238095Y5539286D01*
X108333333Y5491667D01*
X107904761Y4920239D02*
X108000000Y4872620D01*
X108238095Y4872620D01*
X108333333Y4920239D01*
X108380952Y5015477D01*
X108380952Y5110715D01*
X108333333Y5205953D01*
X108238095Y5253572D01*
X108000000Y5253572D01*
X107904761Y5301191D01*
X107000000Y4920239D02*
X107095238Y4872620D01*
X107285714Y4872620D01*
X107380952Y4920239D01*
X107428571Y4967858D01*
X107476190Y5063096D01*
X107476190Y5348810D01*
X107428571Y5444048D01*
X107380952Y5491667D01*
X107285714Y5539286D01*
X107095238Y5539286D01*
X107000000Y5491667D01*
X106714285Y5539286D02*
X106333333Y5539286D01*
X106571428Y5872620D02*
X106571428Y5015477D01*
X106523809Y4920239D01*
X106428571Y4872620D01*
X106333333Y4872620D01*
X106000000Y5253572D02*
X105238095Y5253572D01*
X104428571Y5396429D02*
X104285714Y5348810D01*
X104238095Y5301191D01*
X104190476Y5205953D01*
X104190476Y5063096D01*
X104238095Y4967858D01*
X104285714Y4920239D01*
X104380952Y4872620D01*
X104761904Y4872620D01*
X104761904Y5872620D01*
X104428571Y5872620D01*
X104333333Y5825000D01*
X104285714Y5777381D01*
X104238095Y5682143D01*
X104238095Y5586905D01*
X104285714Y5491667D01*
X104333333Y5444048D01*
X104428571Y5396429D01*
X104761904Y5396429D01*
X103380952Y4920239D02*
X103476190Y4872620D01*
X103666666Y4872620D01*
X103761904Y4920239D01*
X103809523Y5015477D01*
X103809523Y5396429D01*
X103761904Y5491667D01*
X103666666Y5539286D01*
X103476190Y5539286D01*
X103380952Y5491667D01*
X103333333Y5396429D01*
X103333333Y5301191D01*
X103809523Y5205953D01*
X102476190Y4872620D02*
X102476190Y5396429D01*
X102523809Y5491667D01*
X102619047Y5539286D01*
X102809523Y5539286D01*
X102904761Y5491667D01*
X102476190Y4920239D02*
X102571428Y4872620D01*
X102809523Y4872620D01*
X102904761Y4920239D01*
X102952380Y5015477D01*
X102952380Y5110715D01*
X102904761Y5205953D01*
X102809523Y5253572D01*
X102571428Y5253572D01*
X102476190Y5301191D01*
X102000000Y4872620D02*
X102000000Y5539286D01*
X102000000Y5444048D02*
X101952380Y5491667D01*
X101857142Y5539286D01*
X101714285Y5539286D01*
X101619047Y5491667D01*
X101571428Y5396429D01*
X101571428Y4872620D01*
X101571428Y5396429D02*
X101523809Y5491667D01*
X101428571Y5539286D01*
X101285714Y5539286D01*
X101190476Y5491667D01*
X101142857Y5396429D01*
X101142857Y4872620D01*
X100714285Y4920239D02*
X100619047Y4872620D01*
X100428571Y4872620D01*
X100333333Y4920239D01*
X100285714Y5015477D01*
X100285714Y5063096D01*
X100333333Y5158334D01*
X100428571Y5205953D01*
X100571428Y5205953D01*
X100666666Y5253572D01*
X100714285Y5348810D01*
X100714285Y5396429D01*
X100666666Y5491667D01*
X100571428Y5539286D01*
X100428571Y5539286D01*
X100333333Y5491667D01*
X99857142Y5539286D02*
X99857142Y4539286D01*
X99857142Y5491667D02*
X99761904Y5539286D01*
X99571428Y5539286D01*
X99476190Y5491667D01*
X99428571Y5444048D01*
X99380952Y5348810D01*
X99380952Y5063096D01*
X99428571Y4967858D01*
X99476190Y4920239D01*
X99571428Y4872620D01*
X99761904Y4872620D01*
X99857142Y4920239D01*
X98952380Y4872620D02*
X98952380Y5539286D01*
X98952380Y5348810D02*
X98904761Y5444048D01*
X98857142Y5491667D01*
X98761904Y5539286D01*
X98666666Y5539286D01*
X98333333Y4872620D02*
X98333333Y5539286D01*
X98333333Y5872620D02*
X98380952Y5825000D01*
X98333333Y5777381D01*
X98285714Y5825000D01*
X98333333Y5872620D01*
X98333333Y5777381D01*
X97857142Y5539286D02*
X97857142Y4872620D01*
X97857142Y5444048D02*
X97809523Y5491667D01*
X97714285Y5539286D01*
X97571428Y5539286D01*
X97476190Y5491667D01*
X97428571Y5396429D01*
X97428571Y4872620D01*
X96523809Y5539286D02*
X96523809Y4729762D01*
X96571428Y4634524D01*
X96619047Y4586905D01*
X96714285Y4539286D01*
X96857142Y4539286D01*
X96952380Y4586905D01*
X96523809Y4920239D02*
X96619047Y4872620D01*
X96809523Y4872620D01*
X96904761Y4920239D01*
X96952380Y4967858D01*
X97000000Y5063096D01*
X97000000Y5348810D01*
X96952380Y5444048D01*
X96904761Y5491667D01*
X96809523Y5539286D01*
X96619047Y5539286D01*
X96523809Y5491667D01*
X105476190Y3222620D02*
X105809523Y3698810D01*
X106047619Y3222620D02*
X106047619Y4222620D01*
X105666666Y4222620D01*
X105571428Y4175000D01*
X105523809Y4127381D01*
X105476190Y4032143D01*
X105476190Y3889286D01*
X105523809Y3794048D01*
X105571428Y3746429D01*
X105666666Y3698810D01*
X106047619Y3698810D01*
X104666666Y3270239D02*
X104761904Y3222620D01*
X104952380Y3222620D01*
X105047619Y3270239D01*
X105095238Y3365477D01*
X105095238Y3746429D01*
X105047619Y3841667D01*
X104952380Y3889286D01*
X104761904Y3889286D01*
X104666666Y3841667D01*
X104619047Y3746429D01*
X104619047Y3651191D01*
X105095238Y3555953D01*
X104285714Y3889286D02*
X104047619Y3222620D01*
X103809523Y3889286D01*
X102904761Y3222620D02*
X103476190Y3222620D01*
X103190476Y3222620D02*
X103190476Y4222620D01*
X103285714Y4079762D01*
X103380952Y3984524D01*
X103476190Y3936905D01*
X77842976Y7942858D02*
X77890595Y7895239D01*
X78033452Y7847620D01*
X78128690Y7847620D01*
X78271547Y7895239D01*
X78366785Y7990477D01*
X78414404Y8085715D01*
X78462023Y8276191D01*
X78462023Y8419048D01*
X78414404Y8609524D01*
X78366785Y8704762D01*
X78271547Y8800000D01*
X78128690Y8847620D01*
X78033452Y8847620D01*
X77890595Y8800000D01*
X77842976Y8752381D01*
X77271547Y7847620D02*
X77366785Y7895239D01*
X77414404Y7942858D01*
X77462023Y8038096D01*
X77462023Y8323810D01*
X77414404Y8419048D01*
X77366785Y8466667D01*
X77271547Y8514286D01*
X77128690Y8514286D01*
X77033452Y8466667D01*
X76985833Y8419048D01*
X76938214Y8323810D01*
X76938214Y8038096D01*
X76985833Y7942858D01*
X77033452Y7895239D01*
X77128690Y7847620D01*
X77271547Y7847620D01*
X76509642Y8514286D02*
X76509642Y7847620D01*
X76509642Y8419048D02*
X76462023Y8466667D01*
X76366785Y8514286D01*
X76223928Y8514286D01*
X76128690Y8466667D01*
X76081071Y8371429D01*
X76081071Y7847620D01*
X75747738Y8514286D02*
X75366785Y8514286D01*
X75604880Y8847620D02*
X75604880Y7990477D01*
X75557261Y7895239D01*
X75462023Y7847620D01*
X75366785Y7847620D01*
X75033452Y7847620D02*
X75033452Y8514286D01*
X75033452Y8323810D02*
X74985833Y8419048D01*
X74938214Y8466667D01*
X74842976Y8514286D01*
X74747738Y8514286D01*
X74414404Y7847620D02*
X74414404Y8514286D01*
X74414404Y8847620D02*
X74462023Y8800000D01*
X74414404Y8752381D01*
X74366785Y8800000D01*
X74414404Y8847620D01*
X74414404Y8752381D01*
X73938214Y7847620D02*
X73938214Y8847620D01*
X73938214Y8466667D02*
X73842976Y8514286D01*
X73652500Y8514286D01*
X73557261Y8466667D01*
X73509642Y8419048D01*
X73462023Y8323810D01*
X73462023Y8038096D01*
X73509642Y7942858D01*
X73557261Y7895239D01*
X73652500Y7847620D01*
X73842976Y7847620D01*
X73938214Y7895239D01*
X72604880Y8514286D02*
X72604880Y7847620D01*
X73033452Y8514286D02*
X73033452Y7990477D01*
X72985833Y7895239D01*
X72890595Y7847620D01*
X72747738Y7847620D01*
X72652500Y7895239D01*
X72604880Y7942858D01*
X72271547Y8514286D02*
X71890595Y8514286D01*
X72128690Y8847620D02*
X72128690Y7990477D01*
X72081071Y7895239D01*
X71985833Y7847620D01*
X71890595Y7847620D01*
X71414404Y7847620D02*
X71509642Y7895239D01*
X71557261Y7942858D01*
X71604880Y8038096D01*
X71604880Y8323810D01*
X71557261Y8419048D01*
X71509642Y8466667D01*
X71414404Y8514286D01*
X71271547Y8514286D01*
X71176309Y8466667D01*
X71128690Y8419048D01*
X71081071Y8323810D01*
X71081071Y8038096D01*
X71128690Y7942858D01*
X71176309Y7895239D01*
X71271547Y7847620D01*
X71414404Y7847620D01*
X70652500Y7847620D02*
X70652500Y8514286D01*
X70652500Y8323810D02*
X70604880Y8419048D01*
X70557261Y8466667D01*
X70462023Y8514286D01*
X70366785Y8514286D01*
X70081071Y7895239D02*
X69985833Y7847620D01*
X69795357Y7847620D01*
X69700119Y7895239D01*
X69652500Y7990477D01*
X69652500Y8038096D01*
X69700119Y8133334D01*
X69795357Y8180953D01*
X69938214Y8180953D01*
X70033452Y8228572D01*
X70081071Y8323810D01*
X70081071Y8371429D01*
X70033452Y8466667D01*
X69938214Y8514286D01*
X69795357Y8514286D01*
X69700119Y8466667D01*
X69223928Y7942858D02*
X69176309Y7895239D01*
X69223928Y7847620D01*
X69271547Y7895239D01*
X69223928Y7942858D01*
X69223928Y7847620D01*
X69223928Y8466667D02*
X69176309Y8419048D01*
X69223928Y8371429D01*
X69271547Y8419048D01*
X69223928Y8466667D01*
X69223928Y8371429D01*
X76747738Y7197620D02*
X76747738Y6959524D01*
X76985833Y7054762D02*
X76747738Y6959524D01*
X76509642Y7054762D01*
X76890595Y6769048D02*
X76747738Y6959524D01*
X76604880Y6769048D01*
X75366785Y6864286D02*
X75366785Y5864286D01*
X75366785Y6816667D02*
X75271547Y6864286D01*
X75081071Y6864286D01*
X74985833Y6816667D01*
X74938214Y6769048D01*
X74890595Y6673810D01*
X74890595Y6388096D01*
X74938214Y6292858D01*
X74985833Y6245239D01*
X75081071Y6197620D01*
X75271547Y6197620D01*
X75366785Y6245239D01*
X74033452Y6197620D02*
X74033452Y6721429D01*
X74081071Y6816667D01*
X74176309Y6864286D01*
X74366785Y6864286D01*
X74462023Y6816667D01*
X74033452Y6245239D02*
X74128690Y6197620D01*
X74366785Y6197620D01*
X74462023Y6245239D01*
X74509642Y6340477D01*
X74509642Y6435715D01*
X74462023Y6530953D01*
X74366785Y6578572D01*
X74128690Y6578572D01*
X74033452Y6626191D01*
X73557261Y6864286D02*
X73557261Y6197620D01*
X73557261Y6769048D02*
X73509642Y6816667D01*
X73414404Y6864286D01*
X73271547Y6864286D01*
X73176309Y6816667D01*
X73128690Y6721429D01*
X73128690Y6197620D01*
X72223928Y6197620D02*
X72223928Y7197620D01*
X72223928Y6245239D02*
X72319166Y6197620D01*
X72509642Y6197620D01*
X72604880Y6245239D01*
X72652500Y6292858D01*
X72700119Y6388096D01*
X72700119Y6673810D01*
X72652500Y6769048D01*
X72604880Y6816667D01*
X72509642Y6864286D01*
X72319166Y6864286D01*
X72223928Y6816667D01*
X71747738Y6197620D02*
X71747738Y6864286D01*
X71747738Y6673810D02*
X71700119Y6769048D01*
X71652500Y6816667D01*
X71557261Y6864286D01*
X71462023Y6864286D01*
X70747738Y6245239D02*
X70842976Y6197620D01*
X71033452Y6197620D01*
X71128690Y6245239D01*
X71176309Y6340477D01*
X71176309Y6721429D01*
X71128690Y6816667D01*
X71033452Y6864286D01*
X70842976Y6864286D01*
X70747738Y6816667D01*
X70700119Y6721429D01*
X70700119Y6626191D01*
X71176309Y6530953D01*
X70366785Y6864286D02*
X70176309Y6197620D01*
X69985833Y6673810D01*
X69795357Y6197620D01*
X69604880Y6864286D01*
X76747738Y5547620D02*
X76747738Y5309524D01*
X76985833Y5404762D02*
X76747738Y5309524D01*
X76509642Y5404762D01*
X76890595Y5119048D02*
X76747738Y5309524D01*
X76604880Y5119048D01*
X75223928Y4547620D02*
X75319166Y4595239D01*
X75366785Y4690477D01*
X75366785Y5547620D01*
X74842976Y4547620D02*
X74842976Y5214286D01*
X74842976Y5547620D02*
X74890595Y5500000D01*
X74842976Y5452381D01*
X74795357Y5500000D01*
X74842976Y5547620D01*
X74842976Y5452381D01*
X74414404Y4595239D02*
X74319166Y4547620D01*
X74128690Y4547620D01*
X74033452Y4595239D01*
X73985833Y4690477D01*
X73985833Y4738096D01*
X74033452Y4833334D01*
X74128690Y4880953D01*
X74271547Y4880953D01*
X74366785Y4928572D01*
X74414404Y5023810D01*
X74414404Y5071429D01*
X74366785Y5166667D01*
X74271547Y5214286D01*
X74128690Y5214286D01*
X74033452Y5166667D01*
X73700119Y5214286D02*
X73319166Y5214286D01*
X73557261Y5547620D02*
X73557261Y4690477D01*
X73509642Y4595239D01*
X73414404Y4547620D01*
X73319166Y4547620D01*
X72842976Y4547620D02*
X72938214Y4595239D01*
X72985833Y4642858D01*
X73033452Y4738096D01*
X73033452Y5023810D01*
X72985833Y5119048D01*
X72938214Y5166667D01*
X72842976Y5214286D01*
X72700119Y5214286D01*
X72604880Y5166667D01*
X72557261Y5119048D01*
X72509642Y5023810D01*
X72509642Y4738096D01*
X72557261Y4642858D01*
X72604880Y4595239D01*
X72700119Y4547620D01*
X72842976Y4547620D01*
X72223928Y5214286D02*
X71842976Y5214286D01*
X72081071Y4547620D02*
X72081071Y5404762D01*
X72033452Y5500000D01*
X71938214Y5547620D01*
X71842976Y5547620D01*
X71366785Y4547620D02*
X71462023Y4595239D01*
X71509642Y4642858D01*
X71557261Y4738096D01*
X71557261Y5023810D01*
X71509642Y5119048D01*
X71462023Y5166667D01*
X71366785Y5214286D01*
X71223928Y5214286D01*
X71128690Y5166667D01*
X71081071Y5119048D01*
X71033452Y5023810D01*
X71033452Y4738096D01*
X71081071Y4642858D01*
X71128690Y4595239D01*
X71223928Y4547620D01*
X71366785Y4547620D01*
X70604880Y5214286D02*
X70604880Y4214286D01*
X70604880Y5166667D02*
X70509642Y5214286D01*
X70319166Y5214286D01*
X70223928Y5166667D01*
X70176309Y5119048D01*
X70128690Y5023810D01*
X70128690Y4738096D01*
X70176309Y4642858D01*
X70223928Y4595239D01*
X70319166Y4547620D01*
X70509642Y4547620D01*
X70604880Y4595239D01*
X69842976Y5214286D02*
X69462023Y5214286D01*
X69700119Y5547620D02*
X69700119Y4690477D01*
X69652500Y4595239D01*
X69557261Y4547620D01*
X69462023Y4547620D01*
X69128690Y4547620D02*
X69128690Y5214286D01*
X69128690Y5547620D02*
X69176309Y5500000D01*
X69128690Y5452381D01*
X69081071Y5500000D01*
X69128690Y5547620D01*
X69128690Y5452381D01*
X68509642Y4547620D02*
X68604880Y4595239D01*
X68652500Y4642858D01*
X68700119Y4738096D01*
X68700119Y5023810D01*
X68652500Y5119048D01*
X68604880Y5166667D01*
X68509642Y5214286D01*
X68366785Y5214286D01*
X68271547Y5166667D01*
X68223928Y5119048D01*
X68176309Y5023810D01*
X68176309Y4738096D01*
X68223928Y4642858D01*
X68271547Y4595239D01*
X68366785Y4547620D01*
X68509642Y4547620D01*
X67747738Y5214286D02*
X67747738Y4547620D01*
X67747738Y5119048D02*
X67700119Y5166667D01*
X67604880Y5214286D01*
X67462023Y5214286D01*
X67366785Y5166667D01*
X67319166Y5071429D01*
X67319166Y4547620D01*
X66890595Y4595239D02*
X66795357Y4547620D01*
X66604880Y4547620D01*
X66509642Y4595239D01*
X66462023Y4690477D01*
X66462023Y4738096D01*
X66509642Y4833334D01*
X66604880Y4880953D01*
X66747738Y4880953D01*
X66842976Y4928572D01*
X66890595Y5023810D01*
X66890595Y5071429D01*
X66842976Y5166667D01*
X66747738Y5214286D01*
X66604880Y5214286D01*
X66509642Y5166667D01*
X76747738Y3897620D02*
X76747738Y3659524D01*
X76985833Y3754762D02*
X76747738Y3659524D01*
X76509642Y3754762D01*
X76890595Y3469048D02*
X76747738Y3659524D01*
X76604880Y3469048D01*
X75366785Y2897620D02*
X75366785Y3897620D01*
X75271547Y3278572D02*
X74985833Y2897620D01*
X74985833Y3564286D02*
X75366785Y3183334D01*
X74557261Y2897620D02*
X74557261Y3564286D01*
X74557261Y3469048D02*
X74509642Y3516667D01*
X74414404Y3564286D01*
X74271547Y3564286D01*
X74176309Y3516667D01*
X74128690Y3421429D01*
X74128690Y2897620D01*
X74128690Y3421429D02*
X74081071Y3516667D01*
X73985833Y3564286D01*
X73842976Y3564286D01*
X73747738Y3516667D01*
X73700119Y3421429D01*
X73700119Y2897620D01*
X73223928Y3564286D02*
X73223928Y2897620D01*
X73223928Y3469048D02*
X73176309Y3516667D01*
X73081071Y3564286D01*
X72938214Y3564286D01*
X72842976Y3516667D01*
X72795357Y3421429D01*
X72795357Y2897620D01*
X72176309Y2897620D02*
X72271547Y2945239D01*
X72319166Y2992858D01*
X72366785Y3088096D01*
X72366785Y3373810D01*
X72319166Y3469048D01*
X72271547Y3516667D01*
X72176309Y3564286D01*
X72033452Y3564286D01*
X71938214Y3516667D01*
X71890595Y3469048D01*
X71842976Y3373810D01*
X71842976Y3088096D01*
X71890595Y2992858D01*
X71938214Y2945239D01*
X72033452Y2897620D01*
X72176309Y2897620D01*
X71509642Y3564286D02*
X71271547Y2897620D01*
X71033452Y3564286D01*
X70700119Y3802381D02*
X70652500Y3850000D01*
X70557261Y3897620D01*
X70319166Y3897620D01*
X70223928Y3850000D01*
X70176309Y3802381D01*
X70128690Y3707143D01*
X70128690Y3611905D01*
X70176309Y3469048D01*
X70747738Y2897620D01*
X70128690Y2897620D01*
X69509642Y3897620D02*
X69414404Y3897620D01*
X69319166Y3850000D01*
X69271547Y3802381D01*
X69223928Y3707143D01*
X69176309Y3516667D01*
X69176309Y3278572D01*
X69223928Y3088096D01*
X69271547Y2992858D01*
X69319166Y2945239D01*
X69414404Y2897620D01*
X69509642Y2897620D01*
X69604880Y2945239D01*
X69652500Y2992858D01*
X69700119Y3088096D01*
X69747738Y3278572D01*
X69747738Y3516667D01*
X69700119Y3707143D01*
X69652500Y3802381D01*
X69604880Y3850000D01*
X69509642Y3897620D01*
X68223928Y2897620D02*
X68795357Y2897620D01*
X68509642Y2897620D02*
X68509642Y3897620D01*
X68604880Y3754762D01*
X68700119Y3659524D01*
X68795357Y3611905D01*
X67890595Y3897620D02*
X67223928Y3897620D01*
X67652500Y2897620D01*
X76747738Y2247620D02*
X76747738Y2009524D01*
X76985833Y2104762D02*
X76747738Y2009524D01*
X76509642Y2104762D01*
X76890595Y1819048D02*
X76747738Y2009524D01*
X76604880Y1819048D01*
X75509642Y1914286D02*
X75128690Y1914286D01*
X75366785Y2247620D02*
X75366785Y1390477D01*
X75319166Y1295239D01*
X75223928Y1247620D01*
X75128690Y1247620D01*
X74414404Y1295239D02*
X74509642Y1247620D01*
X74700119Y1247620D01*
X74795357Y1295239D01*
X74842976Y1390477D01*
X74842976Y1771429D01*
X74795357Y1866667D01*
X74700119Y1914286D01*
X74509642Y1914286D01*
X74414404Y1866667D01*
X74366785Y1771429D01*
X74366785Y1676191D01*
X74842976Y1580953D01*
X73938214Y1914286D02*
X73938214Y1247620D01*
X73938214Y1819048D02*
X73890595Y1866667D01*
X73795357Y1914286D01*
X73652500Y1914286D01*
X73557261Y1866667D01*
X73509642Y1771429D01*
X73509642Y1247620D01*
X73176309Y1914286D02*
X72795357Y1914286D01*
X73033452Y2247620D02*
X73033452Y1390477D01*
X72985833Y1295239D01*
X72890595Y1247620D01*
X72795357Y1247620D01*
X72033452Y1247620D02*
X72033452Y1771429D01*
X72081071Y1866667D01*
X72176309Y1914286D01*
X72366785Y1914286D01*
X72462023Y1866667D01*
X72033452Y1295239D02*
X72128690Y1247620D01*
X72366785Y1247620D01*
X72462023Y1295239D01*
X72509642Y1390477D01*
X72509642Y1485715D01*
X72462023Y1580953D01*
X72366785Y1628572D01*
X72128690Y1628572D01*
X72033452Y1676191D01*
X71700119Y1914286D02*
X71319166Y1914286D01*
X71557261Y2247620D02*
X71557261Y1390477D01*
X71509642Y1295239D01*
X71414404Y1247620D01*
X71319166Y1247620D01*
X70842976Y1247620D02*
X70938214Y1295239D01*
X70985833Y1342858D01*
X71033452Y1438096D01*
X71033452Y1723810D01*
X70985833Y1819048D01*
X70938214Y1866667D01*
X70842976Y1914286D01*
X70700119Y1914286D01*
X70604880Y1866667D01*
X70557261Y1819048D01*
X70509642Y1723810D01*
X70509642Y1438096D01*
X70557261Y1342858D01*
X70604880Y1295239D01*
X70700119Y1247620D01*
X70842976Y1247620D01*
X70081071Y1247620D02*
X70081071Y1914286D01*
X70081071Y1723810D02*
X70033452Y1819048D01*
X69985833Y1866667D01*
X69890595Y1914286D01*
X69795357Y1914286D01*
X159309523Y4217858D02*
X159357142Y4170239D01*
X159500000Y4122620D01*
X159595238Y4122620D01*
X159738095Y4170239D01*
X159833333Y4265477D01*
X159880952Y4360715D01*
X159928571Y4551191D01*
X159928571Y4694048D01*
X159880952Y4884524D01*
X159833333Y4979762D01*
X159738095Y5075000D01*
X159595238Y5122620D01*
X159500000Y5122620D01*
X159357142Y5075000D01*
X159309523Y5027381D01*
X158880952Y4122620D02*
X158880952Y5122620D01*
X158880952Y4646429D02*
X158309523Y4646429D01*
X158309523Y4122620D02*
X158309523Y5122620D01*
X157880952Y4408334D02*
X157404761Y4408334D01*
X157976190Y4122620D02*
X157642857Y5122620D01*
X157309523Y4122620D01*
X157023809Y4170239D02*
X156880952Y4122620D01*
X156642857Y4122620D01*
X156547619Y4170239D01*
X156500000Y4217858D01*
X156452380Y4313096D01*
X156452380Y4408334D01*
X156500000Y4503572D01*
X156547619Y4551191D01*
X156642857Y4598810D01*
X156833333Y4646429D01*
X156928571Y4694048D01*
X156976190Y4741667D01*
X157023809Y4836905D01*
X157023809Y4932143D01*
X156976190Y5027381D01*
X156928571Y5075000D01*
X156833333Y5122620D01*
X156595238Y5122620D01*
X156452380Y5075000D01*
X156071428Y4170239D02*
X155928571Y4122620D01*
X155690476Y4122620D01*
X155595238Y4170239D01*
X155547619Y4217858D01*
X155500000Y4313096D01*
X155500000Y4408334D01*
X155547619Y4503572D01*
X155595238Y4551191D01*
X155690476Y4598810D01*
X155880952Y4646429D01*
X155976190Y4694048D01*
X156023809Y4741667D01*
X156071428Y4836905D01*
X156071428Y4932143D01*
X156023809Y5027381D01*
X155976190Y5075000D01*
X155880952Y5122620D01*
X155642857Y5122620D01*
X155500000Y5075000D01*
X155071428Y4122620D02*
X155071428Y5122620D01*
X154642857Y4170239D02*
X154500000Y4122620D01*
X154261904Y4122620D01*
X154166666Y4170239D01*
X154119047Y4217858D01*
X154071428Y4313096D01*
X154071428Y4408334D01*
X154119047Y4503572D01*
X154166666Y4551191D01*
X154261904Y4598810D01*
X154452380Y4646429D01*
X154547619Y4694048D01*
X154595238Y4741667D01*
X154642857Y4836905D01*
X154642857Y4932143D01*
X154595238Y5027381D01*
X154547619Y5075000D01*
X154452380Y5122620D01*
X154214285Y5122620D01*
X154071428Y5075000D01*
X157761904Y3425000D02*
X157857142Y3472620D01*
X158000000Y3472620D01*
X158142857Y3425000D01*
X158238095Y3329762D01*
X158285714Y3234524D01*
X158333333Y3044048D01*
X158333333Y2901191D01*
X158285714Y2710715D01*
X158238095Y2615477D01*
X158142857Y2520239D01*
X158000000Y2472620D01*
X157904761Y2472620D01*
X157761904Y2520239D01*
X157714285Y2567858D01*
X157714285Y2901191D01*
X157904761Y2901191D01*
X157285714Y2472620D02*
X157285714Y3472620D01*
X156714285Y2472620D01*
X156714285Y3472620D01*
X156238095Y2472620D02*
X156238095Y3472620D01*
X156000000Y3472620D01*
X155857142Y3425000D01*
X155761904Y3329762D01*
X155714285Y3234524D01*
X155666666Y3044048D01*
X155666666Y2901191D01*
X155714285Y2710715D01*
X155761904Y2615477D01*
X155857142Y2520239D01*
X156000000Y2472620D01*
X156238095Y2472620D01*
X116909523Y30153572D02*
X117052380Y30201191D01*
X117100000Y30248810D01*
X117147619Y30344048D01*
X117147619Y30486905D01*
X117100000Y30582143D01*
X117052380Y30629762D01*
X116957142Y30677381D01*
X116576190Y30677381D01*
X116576190Y29677381D01*
X116909523Y29677381D01*
X117004761Y29725000D01*
X117052380Y29772620D01*
X117100000Y29867858D01*
X117100000Y29963096D01*
X117052380Y30058334D01*
X117004761Y30105953D01*
X116909523Y30153572D01*
X116576190Y30153572D01*
X118004761Y30677381D02*
X118004761Y30153572D01*
X117957142Y30058334D01*
X117861904Y30010715D01*
X117671428Y30010715D01*
X117576190Y30058334D01*
X118004761Y30629762D02*
X117909523Y30677381D01*
X117671428Y30677381D01*
X117576190Y30629762D01*
X117528571Y30534524D01*
X117528571Y30439286D01*
X117576190Y30344048D01*
X117671428Y30296429D01*
X117909523Y30296429D01*
X118004761Y30248810D01*
X118433333Y30629762D02*
X118528571Y30677381D01*
X118719047Y30677381D01*
X118814285Y30629762D01*
X118861904Y30534524D01*
X118861904Y30486905D01*
X118814285Y30391667D01*
X118719047Y30344048D01*
X118576190Y30344048D01*
X118480952Y30296429D01*
X118433333Y30201191D01*
X118433333Y30153572D01*
X118480952Y30058334D01*
X118576190Y30010715D01*
X118719047Y30010715D01*
X118814285Y30058334D01*
X119671428Y30629762D02*
X119576190Y30677381D01*
X119385714Y30677381D01*
X119290476Y30629762D01*
X119242857Y30534524D01*
X119242857Y30153572D01*
X119290476Y30058334D01*
X119385714Y30010715D01*
X119576190Y30010715D01*
X119671428Y30058334D01*
X119719047Y30153572D01*
X119719047Y30248810D01*
X119242857Y30344048D01*
X120576190Y30677381D02*
X120576190Y29677381D01*
X120576190Y30629762D02*
X120480952Y30677381D01*
X120290476Y30677381D01*
X120195238Y30629762D01*
X120147619Y30582143D01*
X120100000Y30486905D01*
X120100000Y30201191D01*
X120147619Y30105953D01*
X120195238Y30058334D01*
X120290476Y30010715D01*
X120480952Y30010715D01*
X120576190Y30058334D01*
X121957142Y30677381D02*
X121861904Y30629762D01*
X121814285Y30582143D01*
X121766666Y30486905D01*
X121766666Y30201191D01*
X121814285Y30105953D01*
X121861904Y30058334D01*
X121957142Y30010715D01*
X122100000Y30010715D01*
X122195238Y30058334D01*
X122242857Y30105953D01*
X122290476Y30201191D01*
X122290476Y30486905D01*
X122242857Y30582143D01*
X122195238Y30629762D01*
X122100000Y30677381D01*
X121957142Y30677381D01*
X122719047Y30010715D02*
X122719047Y30677381D01*
X122719047Y30105953D02*
X122766666Y30058334D01*
X122861904Y30010715D01*
X123004761Y30010715D01*
X123100000Y30058334D01*
X123147619Y30153572D01*
X123147619Y30677381D01*
X124528571Y30677381D02*
X124433333Y30629762D01*
X124385714Y30582143D01*
X124338095Y30486905D01*
X124338095Y30201191D01*
X124385714Y30105953D01*
X124433333Y30058334D01*
X124528571Y30010715D01*
X124671428Y30010715D01*
X124766666Y30058334D01*
X124814285Y30105953D01*
X124861904Y30201191D01*
X124861904Y30486905D01*
X124814285Y30582143D01*
X124766666Y30629762D01*
X124671428Y30677381D01*
X124528571Y30677381D01*
X125290476Y30677381D02*
X125290476Y30010715D01*
X125290476Y30201191D02*
X125338095Y30105953D01*
X125385714Y30058334D01*
X125480952Y30010715D01*
X125576190Y30010715D01*
X125909523Y30677381D02*
X125909523Y30010715D01*
X125909523Y29677381D02*
X125861904Y29725000D01*
X125909523Y29772620D01*
X125957142Y29725000D01*
X125909523Y29677381D01*
X125909523Y29772620D01*
X126814285Y30010715D02*
X126814285Y30820239D01*
X126766666Y30915477D01*
X126719047Y30963096D01*
X126623809Y31010715D01*
X126480952Y31010715D01*
X126385714Y30963096D01*
X126814285Y30629762D02*
X126719047Y30677381D01*
X126528571Y30677381D01*
X126433333Y30629762D01*
X126385714Y30582143D01*
X126338095Y30486905D01*
X126338095Y30201191D01*
X126385714Y30105953D01*
X126433333Y30058334D01*
X126528571Y30010715D01*
X126719047Y30010715D01*
X126814285Y30058334D01*
X127290476Y30677381D02*
X127290476Y30010715D01*
X127290476Y29677381D02*
X127242857Y29725000D01*
X127290476Y29772620D01*
X127338095Y29725000D01*
X127290476Y29677381D01*
X127290476Y29772620D01*
X127766666Y30010715D02*
X127766666Y30677381D01*
X127766666Y30105953D02*
X127814285Y30058334D01*
X127909523Y30010715D01*
X128052380Y30010715D01*
X128147619Y30058334D01*
X128195238Y30153572D01*
X128195238Y30677381D01*
X129100000Y30677381D02*
X129100000Y30153572D01*
X129052380Y30058334D01*
X128957142Y30010715D01*
X128766666Y30010715D01*
X128671428Y30058334D01*
X129100000Y30629762D02*
X129004761Y30677381D01*
X128766666Y30677381D01*
X128671428Y30629762D01*
X128623809Y30534524D01*
X128623809Y30439286D01*
X128671428Y30344048D01*
X128766666Y30296429D01*
X129004761Y30296429D01*
X129100000Y30248810D01*
X129719047Y30677381D02*
X129623809Y30629762D01*
X129576190Y30534524D01*
X129576190Y29677381D01*
X116909523Y31660715D02*
X117100000Y32327381D01*
X117290476Y31851191D01*
X117480952Y32327381D01*
X117671428Y31660715D01*
X118195238Y32327381D02*
X118100000Y32279762D01*
X118052380Y32232143D01*
X118004761Y32136905D01*
X118004761Y31851191D01*
X118052380Y31755953D01*
X118100000Y31708334D01*
X118195238Y31660715D01*
X118338095Y31660715D01*
X118433333Y31708334D01*
X118480952Y31755953D01*
X118528571Y31851191D01*
X118528571Y32136905D01*
X118480952Y32232143D01*
X118433333Y32279762D01*
X118338095Y32327381D01*
X118195238Y32327381D01*
X118957142Y32327381D02*
X118957142Y31660715D01*
X118957142Y31851191D02*
X119004761Y31755953D01*
X119052380Y31708334D01*
X119147619Y31660715D01*
X119242857Y31660715D01*
X119576190Y32327381D02*
X119576190Y31327381D01*
X119671428Y31946429D02*
X119957142Y32327381D01*
X119957142Y31660715D02*
X119576190Y32041667D01*
X121147619Y32327381D02*
X121147619Y31327381D01*
X121147619Y31708334D02*
X121242857Y31660715D01*
X121433333Y31660715D01*
X121528571Y31708334D01*
X121576190Y31755953D01*
X121623809Y31851191D01*
X121623809Y32136905D01*
X121576190Y32232143D01*
X121528571Y32279762D01*
X121433333Y32327381D01*
X121242857Y32327381D01*
X121147619Y32279762D01*
X121957142Y31660715D02*
X122195238Y32327381D01*
X122433333Y31660715D02*
X122195238Y32327381D01*
X122100000Y32565477D01*
X122052380Y32613096D01*
X121957142Y32660715D01*
X123480952Y32327381D02*
X124004761Y31660715D01*
X123480952Y31660715D02*
X124004761Y32327381D01*
X124290476Y31660715D02*
X124480952Y32327381D01*
X124671428Y31851191D01*
X124861904Y32327381D01*
X125052380Y31660715D01*
X125433333Y32327381D02*
X125433333Y31327381D01*
X125861904Y32327381D02*
X125861904Y31803572D01*
X125814285Y31708334D01*
X125719047Y31660715D01*
X125576190Y31660715D01*
X125480952Y31708334D01*
X125433333Y31755953D01*
X126766666Y32327381D02*
X126766666Y31803572D01*
X126719047Y31708334D01*
X126623809Y31660715D01*
X126433333Y31660715D01*
X126338095Y31708334D01*
X126766666Y32279762D02*
X126671428Y32327381D01*
X126433333Y32327381D01*
X126338095Y32279762D01*
X126290476Y32184524D01*
X126290476Y32089286D01*
X126338095Y31994048D01*
X126433333Y31946429D01*
X126671428Y31946429D01*
X126766666Y31898810D01*
X127100000Y31660715D02*
X127480952Y31660715D01*
X127242857Y31327381D02*
X127242857Y32184524D01*
X127290476Y32279762D01*
X127385714Y32327381D01*
X127480952Y32327381D01*
X127766666Y32279762D02*
X127861904Y32327381D01*
X128052380Y32327381D01*
X128147619Y32279762D01*
X128195238Y32184524D01*
X128195238Y32136905D01*
X128147619Y32041667D01*
X128052380Y31994048D01*
X127909523Y31994048D01*
X127814285Y31946429D01*
X127766666Y31851191D01*
X127766666Y31803572D01*
X127814285Y31708334D01*
X127909523Y31660715D01*
X128052380Y31660715D01*
X128147619Y31708334D01*
X128623809Y32327381D02*
X128623809Y31660715D01*
X128623809Y31327381D02*
X128576190Y31375000D01*
X128623809Y31422620D01*
X128671428Y31375000D01*
X128623809Y31327381D01*
X128623809Y31422620D01*
X128957142Y31660715D02*
X129338095Y31660715D01*
X129100000Y31327381D02*
X129100000Y32184524D01*
X129147619Y32279762D01*
X129242857Y32327381D01*
X129338095Y32327381D01*
X157800000Y18188096D02*
X157847619Y18092858D01*
X157847619Y17950000D01*
X157800000Y17807143D01*
X157704761Y17711905D01*
X157609523Y17664286D01*
X157419047Y17616667D01*
X157276190Y17616667D01*
X157085714Y17664286D01*
X156990476Y17711905D01*
X156895238Y17807143D01*
X156847619Y17950000D01*
X156847619Y18045239D01*
X156895238Y18188096D01*
X156942857Y18235715D01*
X157276190Y18235715D01*
X157276190Y18045239D01*
X156847619Y18664286D02*
X157847619Y18664286D01*
X156847619Y19235715D01*
X157847619Y19235715D01*
X156847619Y19711905D02*
X157847619Y19711905D01*
X157847619Y19950000D01*
X157800000Y20092858D01*
X157704761Y20188096D01*
X157609523Y20235715D01*
X157419047Y20283334D01*
X157276190Y20283334D01*
X157085714Y20235715D01*
X156990476Y20188096D01*
X156895238Y20092858D01*
X156847619Y19950000D01*
X156847619Y19711905D01*
X154347619Y18252381D02*
X154823809Y17919048D01*
X154347619Y17680953D02*
X155347619Y17680953D01*
X155347619Y18061905D01*
X155300000Y18157143D01*
X155252380Y18204762D01*
X155157142Y18252381D01*
X155014285Y18252381D01*
X154919047Y18204762D01*
X154871428Y18157143D01*
X154823809Y18061905D01*
X154823809Y17680953D01*
X154395238Y18633334D02*
X154347619Y18776191D01*
X154347619Y19014286D01*
X154395238Y19109524D01*
X154442857Y19157143D01*
X154538095Y19204762D01*
X154633333Y19204762D01*
X154728571Y19157143D01*
X154776190Y19109524D01*
X154823809Y19014286D01*
X154871428Y18823810D01*
X154919047Y18728572D01*
X154966666Y18680953D01*
X155061904Y18633334D01*
X155157142Y18633334D01*
X155252380Y18680953D01*
X155300000Y18728572D01*
X155347619Y18823810D01*
X155347619Y19061905D01*
X155300000Y19204762D01*
X155347619Y19490477D02*
X155347619Y20061905D01*
X154347619Y19776191D02*
X155347619Y19776191D01*
X50345238Y28232143D02*
X50297619Y28279762D01*
X50154761Y28327381D01*
X50059523Y28327381D01*
X49916666Y28279762D01*
X49821428Y28184524D01*
X49773809Y28089286D01*
X49726190Y27898810D01*
X49726190Y27755953D01*
X49773809Y27565477D01*
X49821428Y27470239D01*
X49916666Y27375000D01*
X50059523Y27327381D01*
X50154761Y27327381D01*
X50297619Y27375000D01*
X50345238Y27422620D01*
X50916666Y28327381D02*
X50821428Y28279762D01*
X50773809Y28232143D01*
X50726190Y28136905D01*
X50726190Y27851191D01*
X50773809Y27755953D01*
X50821428Y27708334D01*
X50916666Y27660715D01*
X51059523Y27660715D01*
X51154761Y27708334D01*
X51202380Y27755953D01*
X51250000Y27851191D01*
X51250000Y28136905D01*
X51202380Y28232143D01*
X51154761Y28279762D01*
X51059523Y28327381D01*
X50916666Y28327381D01*
X51678571Y28327381D02*
X51678571Y27660715D01*
X51678571Y27755953D02*
X51726190Y27708334D01*
X51821428Y27660715D01*
X51964285Y27660715D01*
X52059523Y27708334D01*
X52107142Y27803572D01*
X52107142Y28327381D01*
X52107142Y27803572D02*
X52154761Y27708334D01*
X52250000Y27660715D01*
X52392857Y27660715D01*
X52488095Y27708334D01*
X52535714Y27803572D01*
X52535714Y28327381D01*
X53011904Y27660715D02*
X53011904Y28660715D01*
X53011904Y27708334D02*
X53107142Y27660715D01*
X53297619Y27660715D01*
X53392857Y27708334D01*
X53440476Y27755953D01*
X53488095Y27851191D01*
X53488095Y28136905D01*
X53440476Y28232143D01*
X53392857Y28279762D01*
X53297619Y28327381D01*
X53107142Y28327381D01*
X53011904Y28279762D01*
X54345238Y28327381D02*
X54345238Y27803572D01*
X54297619Y27708334D01*
X54202380Y27660715D01*
X54011904Y27660715D01*
X53916666Y27708334D01*
X54345238Y28279762D02*
X54250000Y28327381D01*
X54011904Y28327381D01*
X53916666Y28279762D01*
X53869047Y28184524D01*
X53869047Y28089286D01*
X53916666Y27994048D01*
X54011904Y27946429D01*
X54250000Y27946429D01*
X54345238Y27898810D01*
X55250000Y28279762D02*
X55154761Y28327381D01*
X54964285Y28327381D01*
X54869047Y28279762D01*
X54821428Y28232143D01*
X54773809Y28136905D01*
X54773809Y27851191D01*
X54821428Y27755953D01*
X54869047Y27708334D01*
X54964285Y27660715D01*
X55154761Y27660715D01*
X55250000Y27708334D01*
X55535714Y27660715D02*
X55916666Y27660715D01*
X55678571Y27327381D02*
X55678571Y28184524D01*
X55726190Y28279762D01*
X55821428Y28327381D01*
X55916666Y28327381D01*
X56250000Y27946429D02*
X57011904Y27946429D01*
X57821428Y27803572D02*
X57964285Y27851191D01*
X58011904Y27898810D01*
X58059523Y27994048D01*
X58059523Y28136905D01*
X58011904Y28232143D01*
X57964285Y28279762D01*
X57869047Y28327381D01*
X57488095Y28327381D01*
X57488095Y27327381D01*
X57821428Y27327381D01*
X57916666Y27375000D01*
X57964285Y27422620D01*
X58011904Y27517858D01*
X58011904Y27613096D01*
X57964285Y27708334D01*
X57916666Y27755953D01*
X57821428Y27803572D01*
X57488095Y27803572D01*
X58869047Y28279762D02*
X58773809Y28327381D01*
X58583333Y28327381D01*
X58488095Y28279762D01*
X58440476Y28184524D01*
X58440476Y27803572D01*
X58488095Y27708334D01*
X58583333Y27660715D01*
X58773809Y27660715D01*
X58869047Y27708334D01*
X58916666Y27803572D01*
X58916666Y27898810D01*
X58440476Y27994048D01*
X59773809Y28327381D02*
X59773809Y27803572D01*
X59726190Y27708334D01*
X59630952Y27660715D01*
X59440476Y27660715D01*
X59345238Y27708334D01*
X59773809Y28279762D02*
X59678571Y28327381D01*
X59440476Y28327381D01*
X59345238Y28279762D01*
X59297619Y28184524D01*
X59297619Y28089286D01*
X59345238Y27994048D01*
X59440476Y27946429D01*
X59678571Y27946429D01*
X59773809Y27898810D01*
X60250000Y28327381D02*
X60250000Y27660715D01*
X60250000Y27755953D02*
X60297619Y27708334D01*
X60392857Y27660715D01*
X60535714Y27660715D01*
X60630952Y27708334D01*
X60678571Y27803572D01*
X60678571Y28327381D01*
X60678571Y27803572D02*
X60726190Y27708334D01*
X60821428Y27660715D01*
X60964285Y27660715D01*
X61059523Y27708334D01*
X61107142Y27803572D01*
X61107142Y28327381D01*
X61535714Y28279762D02*
X61630952Y28327381D01*
X61821428Y28327381D01*
X61916666Y28279762D01*
X61964285Y28184524D01*
X61964285Y28136905D01*
X61916666Y28041667D01*
X61821428Y27994048D01*
X61678571Y27994048D01*
X61583333Y27946429D01*
X61535714Y27851191D01*
X61535714Y27803572D01*
X61583333Y27708334D01*
X61678571Y27660715D01*
X61821428Y27660715D01*
X61916666Y27708334D01*
X62392857Y27660715D02*
X62392857Y28660715D01*
X62392857Y27708334D02*
X62488095Y27660715D01*
X62678571Y27660715D01*
X62773809Y27708334D01*
X62821428Y27755953D01*
X62869047Y27851191D01*
X62869047Y28136905D01*
X62821428Y28232143D01*
X62773809Y28279762D01*
X62678571Y28327381D01*
X62488095Y28327381D01*
X62392857Y28279762D01*
X63297619Y28327381D02*
X63297619Y27660715D01*
X63297619Y27851191D02*
X63345238Y27755953D01*
X63392857Y27708334D01*
X63488095Y27660715D01*
X63583333Y27660715D01*
X63916666Y28327381D02*
X63916666Y27660715D01*
X63916666Y27327381D02*
X63869047Y27375000D01*
X63916666Y27422620D01*
X63964285Y27375000D01*
X63916666Y27327381D01*
X63916666Y27422620D01*
X64392857Y27660715D02*
X64392857Y28327381D01*
X64392857Y27755953D02*
X64440476Y27708334D01*
X64535714Y27660715D01*
X64678571Y27660715D01*
X64773809Y27708334D01*
X64821428Y27803572D01*
X64821428Y28327381D01*
X65726190Y27660715D02*
X65726190Y28470239D01*
X65678571Y28565477D01*
X65630952Y28613096D01*
X65535714Y28660715D01*
X65392857Y28660715D01*
X65297619Y28613096D01*
X65726190Y28279762D02*
X65630952Y28327381D01*
X65440476Y28327381D01*
X65345238Y28279762D01*
X65297619Y28232143D01*
X65250000Y28136905D01*
X65250000Y27851191D01*
X65297619Y27755953D01*
X65345238Y27708334D01*
X65440476Y27660715D01*
X65630952Y27660715D01*
X65726190Y27708334D01*
X56773809Y29977381D02*
X56440476Y29501191D01*
X56202380Y29977381D02*
X56202380Y28977381D01*
X56583333Y28977381D01*
X56678571Y29025000D01*
X56726190Y29072620D01*
X56773809Y29167858D01*
X56773809Y29310715D01*
X56726190Y29405953D01*
X56678571Y29453572D01*
X56583333Y29501191D01*
X56202380Y29501191D01*
X57583333Y29929762D02*
X57488095Y29977381D01*
X57297619Y29977381D01*
X57202380Y29929762D01*
X57154761Y29834524D01*
X57154761Y29453572D01*
X57202380Y29358334D01*
X57297619Y29310715D01*
X57488095Y29310715D01*
X57583333Y29358334D01*
X57630952Y29453572D01*
X57630952Y29548810D01*
X57154761Y29644048D01*
X57964285Y29310715D02*
X58202380Y29977381D01*
X58440476Y29310715D01*
X59345238Y29977381D02*
X58773809Y29977381D01*
X59059523Y29977381D02*
X59059523Y28977381D01*
X58964285Y29120239D01*
X58869047Y29215477D01*
X58773809Y29263096D01*
X84407023Y25257143D02*
X84359404Y25304762D01*
X84216547Y25352381D01*
X84121309Y25352381D01*
X83978452Y25304762D01*
X83883214Y25209524D01*
X83835595Y25114286D01*
X83787976Y24923810D01*
X83787976Y24780953D01*
X83835595Y24590477D01*
X83883214Y24495239D01*
X83978452Y24400000D01*
X84121309Y24352381D01*
X84216547Y24352381D01*
X84359404Y24400000D01*
X84407023Y24447620D01*
X84978452Y25352381D02*
X84883214Y25304762D01*
X84835595Y25257143D01*
X84787976Y25161905D01*
X84787976Y24876191D01*
X84835595Y24780953D01*
X84883214Y24733334D01*
X84978452Y24685715D01*
X85121309Y24685715D01*
X85216547Y24733334D01*
X85264166Y24780953D01*
X85311785Y24876191D01*
X85311785Y25161905D01*
X85264166Y25257143D01*
X85216547Y25304762D01*
X85121309Y25352381D01*
X84978452Y25352381D01*
X85740357Y24685715D02*
X85740357Y25352381D01*
X85740357Y24780953D02*
X85787976Y24733334D01*
X85883214Y24685715D01*
X86026071Y24685715D01*
X86121309Y24733334D01*
X86168928Y24828572D01*
X86168928Y25352381D01*
X86502261Y24685715D02*
X86883214Y24685715D01*
X86645119Y24352381D02*
X86645119Y25209524D01*
X86692738Y25304762D01*
X86787976Y25352381D01*
X86883214Y25352381D01*
X87216547Y25352381D02*
X87216547Y24685715D01*
X87216547Y24876191D02*
X87264166Y24780953D01*
X87311785Y24733334D01*
X87407023Y24685715D01*
X87502261Y24685715D01*
X87835595Y25352381D02*
X87835595Y24685715D01*
X87835595Y24352381D02*
X87787976Y24400000D01*
X87835595Y24447620D01*
X87883214Y24400000D01*
X87835595Y24352381D01*
X87835595Y24447620D01*
X88311785Y25352381D02*
X88311785Y24352381D01*
X88311785Y24733334D02*
X88407023Y24685715D01*
X88597500Y24685715D01*
X88692738Y24733334D01*
X88740357Y24780953D01*
X88787976Y24876191D01*
X88787976Y25161905D01*
X88740357Y25257143D01*
X88692738Y25304762D01*
X88597500Y25352381D01*
X88407023Y25352381D01*
X88311785Y25304762D01*
X89645119Y24685715D02*
X89645119Y25352381D01*
X89216547Y24685715D02*
X89216547Y25209524D01*
X89264166Y25304762D01*
X89359404Y25352381D01*
X89502261Y25352381D01*
X89597500Y25304762D01*
X89645119Y25257143D01*
X89978452Y24685715D02*
X90359404Y24685715D01*
X90121309Y24352381D02*
X90121309Y25209524D01*
X90168928Y25304762D01*
X90264166Y25352381D01*
X90359404Y25352381D01*
X90835595Y25352381D02*
X90740357Y25304762D01*
X90692738Y25257143D01*
X90645119Y25161905D01*
X90645119Y24876191D01*
X90692738Y24780953D01*
X90740357Y24733334D01*
X90835595Y24685715D01*
X90978452Y24685715D01*
X91073690Y24733334D01*
X91121309Y24780953D01*
X91168928Y24876191D01*
X91168928Y25161905D01*
X91121309Y25257143D01*
X91073690Y25304762D01*
X90978452Y25352381D01*
X90835595Y25352381D01*
X91597500Y25352381D02*
X91597500Y24685715D01*
X91597500Y24876191D02*
X91645119Y24780953D01*
X91692738Y24733334D01*
X91787976Y24685715D01*
X91883214Y24685715D01*
X92168928Y25304762D02*
X92264166Y25352381D01*
X92454642Y25352381D01*
X92549880Y25304762D01*
X92597500Y25209524D01*
X92597500Y25161905D01*
X92549880Y25066667D01*
X92454642Y25019048D01*
X92311785Y25019048D01*
X92216547Y24971429D01*
X92168928Y24876191D01*
X92168928Y24828572D01*
X92216547Y24733334D01*
X92311785Y24685715D01*
X92454642Y24685715D01*
X92549880Y24733334D01*
X93026071Y25257143D02*
X93073690Y25304762D01*
X93026071Y25352381D01*
X92978452Y25304762D01*
X93026071Y25257143D01*
X93026071Y25352381D01*
X93026071Y24733334D02*
X93073690Y24780953D01*
X93026071Y24828572D01*
X92978452Y24780953D01*
X93026071Y24733334D01*
X93026071Y24828572D01*
X85502261Y26002381D02*
X85502261Y26240477D01*
X85264166Y26145239D02*
X85502261Y26240477D01*
X85740357Y26145239D01*
X85359404Y26430953D02*
X85502261Y26240477D01*
X85645119Y26430953D01*
X86883214Y26335715D02*
X86883214Y27335715D01*
X86883214Y26383334D02*
X86978452Y26335715D01*
X87168928Y26335715D01*
X87264166Y26383334D01*
X87311785Y26430953D01*
X87359404Y26526191D01*
X87359404Y26811905D01*
X87311785Y26907143D01*
X87264166Y26954762D01*
X87168928Y27002381D01*
X86978452Y27002381D01*
X86883214Y26954762D01*
X88216547Y27002381D02*
X88216547Y26478572D01*
X88168928Y26383334D01*
X88073690Y26335715D01*
X87883214Y26335715D01*
X87787976Y26383334D01*
X88216547Y26954762D02*
X88121309Y27002381D01*
X87883214Y27002381D01*
X87787976Y26954762D01*
X87740357Y26859524D01*
X87740357Y26764286D01*
X87787976Y26669048D01*
X87883214Y26621429D01*
X88121309Y26621429D01*
X88216547Y26573810D01*
X88692738Y26335715D02*
X88692738Y27002381D01*
X88692738Y26430953D02*
X88740357Y26383334D01*
X88835595Y26335715D01*
X88978452Y26335715D01*
X89073690Y26383334D01*
X89121309Y26478572D01*
X89121309Y27002381D01*
X90026071Y27002381D02*
X90026071Y26002381D01*
X90026071Y26954762D02*
X89930833Y27002381D01*
X89740357Y27002381D01*
X89645119Y26954762D01*
X89597500Y26907143D01*
X89549880Y26811905D01*
X89549880Y26526191D01*
X89597500Y26430953D01*
X89645119Y26383334D01*
X89740357Y26335715D01*
X89930833Y26335715D01*
X90026071Y26383334D01*
X90502261Y27002381D02*
X90502261Y26335715D01*
X90502261Y26526191D02*
X90549880Y26430953D01*
X90597500Y26383334D01*
X90692738Y26335715D01*
X90787976Y26335715D01*
X91502261Y26954762D02*
X91407023Y27002381D01*
X91216547Y27002381D01*
X91121309Y26954762D01*
X91073690Y26859524D01*
X91073690Y26478572D01*
X91121309Y26383334D01*
X91216547Y26335715D01*
X91407023Y26335715D01*
X91502261Y26383334D01*
X91549880Y26478572D01*
X91549880Y26573810D01*
X91073690Y26669048D01*
X91883214Y26335715D02*
X92073690Y27002381D01*
X92264166Y26526191D01*
X92454642Y27002381D01*
X92645119Y26335715D01*
X85502261Y27652381D02*
X85502261Y27890477D01*
X85264166Y27795239D02*
X85502261Y27890477D01*
X85740357Y27795239D01*
X85359404Y28080953D02*
X85502261Y27890477D01*
X85645119Y28080953D01*
X87026071Y28652381D02*
X86930833Y28604762D01*
X86883214Y28509524D01*
X86883214Y27652381D01*
X87407023Y28652381D02*
X87407023Y27985715D01*
X87407023Y27652381D02*
X87359404Y27700000D01*
X87407023Y27747620D01*
X87454642Y27700000D01*
X87407023Y27652381D01*
X87407023Y27747620D01*
X87835595Y28604762D02*
X87930833Y28652381D01*
X88121309Y28652381D01*
X88216547Y28604762D01*
X88264166Y28509524D01*
X88264166Y28461905D01*
X88216547Y28366667D01*
X88121309Y28319048D01*
X87978452Y28319048D01*
X87883214Y28271429D01*
X87835595Y28176191D01*
X87835595Y28128572D01*
X87883214Y28033334D01*
X87978452Y27985715D01*
X88121309Y27985715D01*
X88216547Y28033334D01*
X88549880Y27985715D02*
X88930833Y27985715D01*
X88692738Y27652381D02*
X88692738Y28509524D01*
X88740357Y28604762D01*
X88835595Y28652381D01*
X88930833Y28652381D01*
X89407023Y28652381D02*
X89311785Y28604762D01*
X89264166Y28557143D01*
X89216547Y28461905D01*
X89216547Y28176191D01*
X89264166Y28080953D01*
X89311785Y28033334D01*
X89407023Y27985715D01*
X89549880Y27985715D01*
X89645119Y28033334D01*
X89692738Y28080953D01*
X89740357Y28176191D01*
X89740357Y28461905D01*
X89692738Y28557143D01*
X89645119Y28604762D01*
X89549880Y28652381D01*
X89407023Y28652381D01*
X90026071Y27985715D02*
X90407023Y27985715D01*
X90168928Y28652381D02*
X90168928Y27795239D01*
X90216547Y27700000D01*
X90311785Y27652381D01*
X90407023Y27652381D01*
X90883214Y28652381D02*
X90787976Y28604762D01*
X90740357Y28557143D01*
X90692738Y28461905D01*
X90692738Y28176191D01*
X90740357Y28080953D01*
X90787976Y28033334D01*
X90883214Y27985715D01*
X91026071Y27985715D01*
X91121309Y28033334D01*
X91168928Y28080953D01*
X91216547Y28176191D01*
X91216547Y28461905D01*
X91168928Y28557143D01*
X91121309Y28604762D01*
X91026071Y28652381D01*
X90883214Y28652381D01*
X91645119Y27985715D02*
X91645119Y28985715D01*
X91645119Y28033334D02*
X91740357Y27985715D01*
X91930833Y27985715D01*
X92026071Y28033334D01*
X92073690Y28080953D01*
X92121309Y28176191D01*
X92121309Y28461905D01*
X92073690Y28557143D01*
X92026071Y28604762D01*
X91930833Y28652381D01*
X91740357Y28652381D01*
X91645119Y28604762D01*
X92407023Y27985715D02*
X92787976Y27985715D01*
X92549880Y27652381D02*
X92549880Y28509524D01*
X92597500Y28604762D01*
X92692738Y28652381D01*
X92787976Y28652381D01*
X93121309Y28652381D02*
X93121309Y27985715D01*
X93121309Y27652381D02*
X93073690Y27700000D01*
X93121309Y27747620D01*
X93168928Y27700000D01*
X93121309Y27652381D01*
X93121309Y27747620D01*
X93740357Y28652381D02*
X93645119Y28604762D01*
X93597500Y28557143D01*
X93549880Y28461905D01*
X93549880Y28176191D01*
X93597500Y28080953D01*
X93645119Y28033334D01*
X93740357Y27985715D01*
X93883214Y27985715D01*
X93978452Y28033334D01*
X94026071Y28080953D01*
X94073690Y28176191D01*
X94073690Y28461905D01*
X94026071Y28557143D01*
X93978452Y28604762D01*
X93883214Y28652381D01*
X93740357Y28652381D01*
X94502261Y27985715D02*
X94502261Y28652381D01*
X94502261Y28080953D02*
X94549880Y28033334D01*
X94645119Y27985715D01*
X94787976Y27985715D01*
X94883214Y28033334D01*
X94930833Y28128572D01*
X94930833Y28652381D01*
X95359404Y28604762D02*
X95454642Y28652381D01*
X95645119Y28652381D01*
X95740357Y28604762D01*
X95787976Y28509524D01*
X95787976Y28461905D01*
X95740357Y28366667D01*
X95645119Y28319048D01*
X95502261Y28319048D01*
X95407023Y28271429D01*
X95359404Y28176191D01*
X95359404Y28128572D01*
X95407023Y28033334D01*
X95502261Y27985715D01*
X95645119Y27985715D01*
X95740357Y28033334D01*
X85502261Y29302381D02*
X85502261Y29540477D01*
X85264166Y29445239D02*
X85502261Y29540477D01*
X85740357Y29445239D01*
X85359404Y29730953D02*
X85502261Y29540477D01*
X85645119Y29730953D01*
X86883214Y30302381D02*
X86883214Y29302381D01*
X86978452Y29921429D02*
X87264166Y30302381D01*
X87264166Y29635715D02*
X86883214Y30016667D01*
X87692738Y30302381D02*
X87692738Y29635715D01*
X87692738Y29730953D02*
X87740357Y29683334D01*
X87835595Y29635715D01*
X87978452Y29635715D01*
X88073690Y29683334D01*
X88121309Y29778572D01*
X88121309Y30302381D01*
X88121309Y29778572D02*
X88168928Y29683334D01*
X88264166Y29635715D01*
X88407023Y29635715D01*
X88502261Y29683334D01*
X88549880Y29778572D01*
X88549880Y30302381D01*
X89026071Y29635715D02*
X89026071Y30302381D01*
X89026071Y29730953D02*
X89073690Y29683334D01*
X89168928Y29635715D01*
X89311785Y29635715D01*
X89407023Y29683334D01*
X89454642Y29778572D01*
X89454642Y30302381D01*
X90073690Y30302381D02*
X89978452Y30254762D01*
X89930833Y30207143D01*
X89883214Y30111905D01*
X89883214Y29826191D01*
X89930833Y29730953D01*
X89978452Y29683334D01*
X90073690Y29635715D01*
X90216547Y29635715D01*
X90311785Y29683334D01*
X90359404Y29730953D01*
X90407023Y29826191D01*
X90407023Y30111905D01*
X90359404Y30207143D01*
X90311785Y30254762D01*
X90216547Y30302381D01*
X90073690Y30302381D01*
X90740357Y29635715D02*
X90978452Y30302381D01*
X91216547Y29635715D01*
X91549880Y29397620D02*
X91597500Y29350000D01*
X91692738Y29302381D01*
X91930833Y29302381D01*
X92026071Y29350000D01*
X92073690Y29397620D01*
X92121309Y29492858D01*
X92121309Y29588096D01*
X92073690Y29730953D01*
X91502261Y30302381D01*
X92121309Y30302381D01*
X92740357Y29302381D02*
X92835595Y29302381D01*
X92930833Y29350000D01*
X92978452Y29397620D01*
X93026071Y29492858D01*
X93073690Y29683334D01*
X93073690Y29921429D01*
X93026071Y30111905D01*
X92978452Y30207143D01*
X92930833Y30254762D01*
X92835595Y30302381D01*
X92740357Y30302381D01*
X92645119Y30254762D01*
X92597500Y30207143D01*
X92549880Y30111905D01*
X92502261Y29921429D01*
X92502261Y29683334D01*
X92549880Y29492858D01*
X92597500Y29397620D01*
X92645119Y29350000D01*
X92740357Y29302381D01*
X94026071Y30302381D02*
X93454642Y30302381D01*
X93740357Y30302381D02*
X93740357Y29302381D01*
X93645119Y29445239D01*
X93549880Y29540477D01*
X93454642Y29588096D01*
X94359404Y29302381D02*
X95026071Y29302381D01*
X94597500Y30302381D01*
X85502261Y30952381D02*
X85502261Y31190477D01*
X85264166Y31095239D02*
X85502261Y31190477D01*
X85740357Y31095239D01*
X85359404Y31380953D02*
X85502261Y31190477D01*
X85645119Y31380953D01*
X86740357Y31285715D02*
X87121309Y31285715D01*
X86883214Y30952381D02*
X86883214Y31809524D01*
X86930833Y31904762D01*
X87026071Y31952381D01*
X87121309Y31952381D01*
X87835595Y31904762D02*
X87740357Y31952381D01*
X87549880Y31952381D01*
X87454642Y31904762D01*
X87407023Y31809524D01*
X87407023Y31428572D01*
X87454642Y31333334D01*
X87549880Y31285715D01*
X87740357Y31285715D01*
X87835595Y31333334D01*
X87883214Y31428572D01*
X87883214Y31523810D01*
X87407023Y31619048D01*
X88311785Y31285715D02*
X88311785Y31952381D01*
X88311785Y31380953D02*
X88359404Y31333334D01*
X88454642Y31285715D01*
X88597500Y31285715D01*
X88692738Y31333334D01*
X88740357Y31428572D01*
X88740357Y31952381D01*
X89073690Y31285715D02*
X89454642Y31285715D01*
X89216547Y30952381D02*
X89216547Y31809524D01*
X89264166Y31904762D01*
X89359404Y31952381D01*
X89454642Y31952381D01*
X90216547Y31952381D02*
X90216547Y31428572D01*
X90168928Y31333334D01*
X90073690Y31285715D01*
X89883214Y31285715D01*
X89787976Y31333334D01*
X90216547Y31904762D02*
X90121309Y31952381D01*
X89883214Y31952381D01*
X89787976Y31904762D01*
X89740357Y31809524D01*
X89740357Y31714286D01*
X89787976Y31619048D01*
X89883214Y31571429D01*
X90121309Y31571429D01*
X90216547Y31523810D01*
X90549880Y31285715D02*
X90930833Y31285715D01*
X90692738Y30952381D02*
X90692738Y31809524D01*
X90740357Y31904762D01*
X90835595Y31952381D01*
X90930833Y31952381D01*
X91407023Y31952381D02*
X91311785Y31904762D01*
X91264166Y31857143D01*
X91216547Y31761905D01*
X91216547Y31476191D01*
X91264166Y31380953D01*
X91311785Y31333334D01*
X91407023Y31285715D01*
X91549880Y31285715D01*
X91645119Y31333334D01*
X91692738Y31380953D01*
X91740357Y31476191D01*
X91740357Y31761905D01*
X91692738Y31857143D01*
X91645119Y31904762D01*
X91549880Y31952381D01*
X91407023Y31952381D01*
X92168928Y31952381D02*
X92168928Y31285715D01*
X92168928Y31476191D02*
X92216547Y31380953D01*
X92264166Y31333334D01*
X92359404Y31285715D01*
X92454642Y31285715D01*
X2940476Y28982143D02*
X2892857Y29029762D01*
X2750000Y29077381D01*
X2654761Y29077381D01*
X2511904Y29029762D01*
X2416666Y28934524D01*
X2369047Y28839286D01*
X2321428Y28648810D01*
X2321428Y28505953D01*
X2369047Y28315477D01*
X2416666Y28220239D01*
X2511904Y28125000D01*
X2654761Y28077381D01*
X2750000Y28077381D01*
X2892857Y28125000D01*
X2940476Y28172620D01*
X3369047Y29077381D02*
X3369047Y28077381D01*
X3369047Y28553572D02*
X3940476Y28553572D01*
X3940476Y29077381D02*
X3940476Y28077381D01*
X4369047Y28791667D02*
X4845238Y28791667D01*
X4273809Y29077381D02*
X4607142Y28077381D01*
X4940476Y29077381D01*
X5226190Y29029762D02*
X5369047Y29077381D01*
X5607142Y29077381D01*
X5702380Y29029762D01*
X5750000Y28982143D01*
X5797619Y28886905D01*
X5797619Y28791667D01*
X5750000Y28696429D01*
X5702380Y28648810D01*
X5607142Y28601191D01*
X5416666Y28553572D01*
X5321428Y28505953D01*
X5273809Y28458334D01*
X5226190Y28363096D01*
X5226190Y28267858D01*
X5273809Y28172620D01*
X5321428Y28125000D01*
X5416666Y28077381D01*
X5654761Y28077381D01*
X5797619Y28125000D01*
X6178571Y29029762D02*
X6321428Y29077381D01*
X6559523Y29077381D01*
X6654761Y29029762D01*
X6702380Y28982143D01*
X6750000Y28886905D01*
X6750000Y28791667D01*
X6702380Y28696429D01*
X6654761Y28648810D01*
X6559523Y28601191D01*
X6369047Y28553572D01*
X6273809Y28505953D01*
X6226190Y28458334D01*
X6178571Y28363096D01*
X6178571Y28267858D01*
X6226190Y28172620D01*
X6273809Y28125000D01*
X6369047Y28077381D01*
X6607142Y28077381D01*
X6750000Y28125000D01*
X7178571Y29077381D02*
X7178571Y28077381D01*
X7607142Y29029762D02*
X7750000Y29077381D01*
X7988095Y29077381D01*
X8083333Y29029762D01*
X8130952Y28982143D01*
X8178571Y28886905D01*
X8178571Y28791667D01*
X8130952Y28696429D01*
X8083333Y28648810D01*
X7988095Y28601191D01*
X7797619Y28553572D01*
X7702380Y28505953D01*
X7654761Y28458334D01*
X7607142Y28363096D01*
X7607142Y28267858D01*
X7654761Y28172620D01*
X7702380Y28125000D01*
X7797619Y28077381D01*
X8035714Y28077381D01*
X8178571Y28125000D01*
X4488095Y29775000D02*
X4392857Y29727381D01*
X4250000Y29727381D01*
X4107142Y29775000D01*
X4011904Y29870239D01*
X3964285Y29965477D01*
X3916666Y30155953D01*
X3916666Y30298810D01*
X3964285Y30489286D01*
X4011904Y30584524D01*
X4107142Y30679762D01*
X4250000Y30727381D01*
X4345238Y30727381D01*
X4488095Y30679762D01*
X4535714Y30632143D01*
X4535714Y30298810D01*
X4345238Y30298810D01*
X4964285Y30727381D02*
X4964285Y29727381D01*
X5535714Y30727381D01*
X5535714Y29727381D01*
X6011904Y30727381D02*
X6011904Y29727381D01*
X6250000Y29727381D01*
X6392857Y29775000D01*
X6488095Y29870239D01*
X6535714Y29965477D01*
X6583333Y30155953D01*
X6583333Y30298810D01*
X6535714Y30489286D01*
X6488095Y30584524D01*
X6392857Y30679762D01*
X6250000Y30727381D01*
X6011904Y30727381D01*
D11*
X33368880Y15627100D02*
X33368880Y18227100D01*
X35968880Y15627100D02*
X33368880Y15627100D01*
X41108880Y13027100D02*
X41108880Y18227100D01*
X33368880Y18227100D02*
X41108880Y18227100D01*
X35968880Y13027100D02*
X41108880Y13027100D01*
X34698880Y13027100D02*
X33368880Y13027100D01*
X33368880Y13027100D02*
X33368880Y14357100D01*
X35968880Y13027100D02*
X35968880Y15627100D01*
D12*
X162400000Y1850000D02*
G75*
G03*
X162400000Y1850000I-2000000J0D01*
G01*
D11*
X29963748Y10540000D02*
X30486252Y10540000D01*
X29963748Y11960000D02*
X30486252Y11960000D01*
X30511252Y12540000D02*
X29988748Y12540000D01*
X30511252Y13960000D02*
X29988748Y13960000D01*
X140442960Y4958732D02*
X140442960Y4436228D01*
X139022960Y4958732D02*
X139022960Y4436228D01*
X134238572Y2130740D02*
X133716068Y2130740D01*
X134238572Y3550740D02*
X133716068Y3550740D01*
X136582020Y4807068D02*
X136582020Y5329572D01*
X138002020Y4807068D02*
X138002020Y5329572D01*
X159492820Y10011528D02*
X159492820Y10534032D01*
X160912820Y10011528D02*
X160912820Y10534032D01*
X157186500Y10005288D02*
X157186500Y10527792D01*
X158606500Y10005288D02*
X158606500Y10527792D01*
X138321088Y8841560D02*
X138843592Y8841560D01*
X138321088Y7421560D02*
X138843592Y7421560D01*
X115492540Y5827412D02*
X115492540Y5304908D01*
X114072540Y5827412D02*
X114072540Y5304908D01*
X82991720Y5827412D02*
X82991720Y5304908D01*
X81571720Y5827412D02*
X81571720Y5304908D01*
X151113360Y5276968D02*
X151113360Y5799472D01*
X152533360Y5276968D02*
X152533360Y5799472D01*
X48252140Y5827412D02*
X48252140Y5304908D01*
X46832140Y5827412D02*
X46832140Y5304908D01*
X130172032Y2130740D02*
X129649528Y2130740D01*
X130172032Y3550740D02*
X129649528Y3550740D01*
X94965780Y5596640D02*
X94965780Y3646640D01*
X94965780Y5596640D02*
X94965780Y7546640D01*
X84845780Y5596640D02*
X84845780Y3646640D01*
X84845780Y5596640D02*
X84845780Y9046640D01*
X154330720Y11891820D02*
X155330720Y11891820D01*
X154330720Y8531820D02*
X155330720Y8531820D01*
D10*
X31556900Y18343380D02*
X31556900Y563380D01*
X31556900Y563380D02*
X1076900Y563380D01*
X1076900Y563380D02*
X1076900Y5643380D01*
X1076900Y5643380D02*
X-1463100Y5643380D01*
X-1463100Y5643380D02*
X-1463100Y13263380D01*
X-1463100Y13263380D02*
X1076900Y13263380D01*
X1076900Y13263380D02*
X1076900Y18343380D01*
X1076900Y18343380D02*
X31556900Y18343380D01*
D11*
X132171380Y4146620D02*
X128721380Y4146620D01*
X132171380Y4146620D02*
X134121380Y4146620D01*
X132171380Y9266620D02*
X130221380Y9266620D01*
X132171380Y9266620D02*
X134121380Y9266620D01*
X116877720Y5596640D02*
X116877720Y9046640D01*
X116877720Y5596640D02*
X116877720Y3646640D01*
X126997720Y5596640D02*
X126997720Y7546640D01*
X126997720Y5596640D02*
X126997720Y3646640D01*
X150187760Y5180080D02*
X150187760Y3230080D01*
X150187760Y5180080D02*
X150187760Y7130080D01*
X141317760Y5180080D02*
X141317760Y3230080D01*
X141317760Y5180080D02*
X141317760Y8630080D01*
X50499900Y5596640D02*
X50499900Y9046640D01*
X50499900Y5596640D02*
X50499900Y3646640D01*
X60619900Y5596640D02*
X60619900Y7546640D01*
X60619900Y5596640D02*
X60619900Y3646640D01*
X128881120Y17572900D02*
X128881120Y14972900D01*
X126281120Y17572900D02*
X128881120Y17572900D01*
X121141120Y20172900D02*
X121141120Y14972900D01*
X128881120Y14972900D02*
X121141120Y14972900D01*
X126281120Y20172900D02*
X121141120Y20172900D01*
X127551120Y20172900D02*
X128881120Y20172900D01*
X128881120Y20172900D02*
X128881120Y18842900D01*
X126281120Y20172900D02*
X126281120Y17572900D01*
D12*
X3850000Y31350000D02*
G75*
G03*
X3850000Y31350000I-2000000J0D01*
G01*
D11*
X132286252Y22660000D02*
X131763748Y22660000D01*
X132286252Y21240000D02*
X131763748Y21240000D01*
X131738748Y20660000D02*
X132261252Y20660000D01*
X131738748Y19240000D02*
X132261252Y19240000D01*
X21807040Y28241268D02*
X21807040Y28763772D01*
X23227040Y28241268D02*
X23227040Y28763772D01*
X28011428Y31069260D02*
X28533932Y31069260D01*
X28011428Y29649260D02*
X28533932Y29649260D01*
X25667980Y28392932D02*
X25667980Y27870428D01*
X24247980Y28392932D02*
X24247980Y27870428D01*
X2757180Y23188472D02*
X2757180Y22665968D01*
X1337180Y23188472D02*
X1337180Y22665968D01*
X5063500Y23194712D02*
X5063500Y22672208D01*
X3643500Y23194712D02*
X3643500Y22672208D01*
X23928912Y24358440D02*
X23406408Y24358440D01*
X23928912Y25778440D02*
X23406408Y25778440D01*
X46757460Y27372588D02*
X46757460Y27895092D01*
X48177460Y27372588D02*
X48177460Y27895092D01*
X79258280Y27372588D02*
X79258280Y27895092D01*
X80678280Y27372588D02*
X80678280Y27895092D01*
X11136640Y27923032D02*
X11136640Y27400528D01*
X9716640Y27923032D02*
X9716640Y27400528D01*
X113997860Y27372588D02*
X113997860Y27895092D01*
X115417860Y27372588D02*
X115417860Y27895092D01*
X32077968Y31069260D02*
X32600472Y31069260D01*
X32077968Y29649260D02*
X32600472Y29649260D01*
X67284220Y27603360D02*
X67284220Y29553360D01*
X67284220Y27603360D02*
X67284220Y25653360D01*
X77404220Y27603360D02*
X77404220Y29553360D01*
X77404220Y27603360D02*
X77404220Y24153360D01*
X7919280Y21308180D02*
X6919280Y21308180D01*
X7919280Y24668180D02*
X6919280Y24668180D01*
D10*
X130693100Y14856620D02*
X130693100Y32636620D01*
X130693100Y32636620D02*
X161173100Y32636620D01*
X161173100Y32636620D02*
X161173100Y27556620D01*
X161173100Y27556620D02*
X163713100Y27556620D01*
X163713100Y27556620D02*
X163713100Y19936620D01*
X163713100Y19936620D02*
X161173100Y19936620D01*
X161173100Y19936620D02*
X161173100Y14856620D01*
X161173100Y14856620D02*
X130693100Y14856620D01*
D11*
X30078620Y29053380D02*
X33528620Y29053380D01*
X30078620Y29053380D02*
X28128620Y29053380D01*
X30078620Y23933380D02*
X32028620Y23933380D01*
X30078620Y23933380D02*
X28128620Y23933380D01*
X45372280Y27603360D02*
X45372280Y24153360D01*
X45372280Y27603360D02*
X45372280Y29553360D01*
X35252280Y27603360D02*
X35252280Y25653360D01*
X35252280Y27603360D02*
X35252280Y29553360D01*
X12062240Y28019920D02*
X12062240Y29969920D01*
X12062240Y28019920D02*
X12062240Y26069920D01*
X20932240Y28019920D02*
X20932240Y29969920D01*
X20932240Y28019920D02*
X20932240Y24569920D01*
X111750100Y27603360D02*
X111750100Y24153360D01*
X111750100Y27603360D02*
X111750100Y29553360D01*
X101630100Y27603360D02*
X101630100Y25653360D01*
X101630100Y27603360D02*
X101630100Y29553360D01*
D10*
X30391666Y9147620D02*
X30725000Y9623810D01*
X30963095Y9147620D02*
X30963095Y10147620D01*
X30582142Y10147620D01*
X30486904Y10100000D01*
X30439285Y10052381D01*
X30391666Y9957143D01*
X30391666Y9814286D01*
X30439285Y9719048D01*
X30486904Y9671429D01*
X30582142Y9623810D01*
X30963095Y9623810D01*
X30058333Y10147620D02*
X29391666Y10147620D01*
X29820238Y9147620D01*
X30416666Y14447620D02*
X30750000Y14923810D01*
X30988095Y14447620D02*
X30988095Y15447620D01*
X30607142Y15447620D01*
X30511904Y15400000D01*
X30464285Y15352381D01*
X30416666Y15257143D01*
X30416666Y15114286D01*
X30464285Y15019048D01*
X30511904Y14971429D01*
X30607142Y14923810D01*
X30988095Y14923810D01*
X29559523Y15447620D02*
X29750000Y15447620D01*
X29845238Y15400000D01*
X29892857Y15352381D01*
X29988095Y15209524D01*
X30035714Y15019048D01*
X30035714Y14638096D01*
X29988095Y14542858D01*
X29940476Y14495239D01*
X29845238Y14447620D01*
X29654761Y14447620D01*
X29559523Y14495239D01*
X29511904Y14542858D01*
X29464285Y14638096D01*
X29464285Y14876191D01*
X29511904Y14971429D01*
X29559523Y15019048D01*
X29654761Y15066667D01*
X29845238Y15066667D01*
X29940476Y15019048D01*
X29988095Y14971429D01*
X30035714Y14876191D01*
X139935186Y1786380D02*
X140268520Y2262570D01*
X140506615Y1786380D02*
X140506615Y2786380D01*
X140125662Y2786380D01*
X140030424Y2738760D01*
X139982805Y2691141D01*
X139935186Y2595903D01*
X139935186Y2453046D01*
X139982805Y2357808D01*
X140030424Y2310189D01*
X140125662Y2262570D01*
X140506615Y2262570D01*
X139030424Y2786380D02*
X139506615Y2786380D01*
X139554234Y2310189D01*
X139506615Y2357808D01*
X139411377Y2405427D01*
X139173281Y2405427D01*
X139078043Y2357808D01*
X139030424Y2310189D01*
X138982805Y2214951D01*
X138982805Y1976856D01*
X139030424Y1881618D01*
X139078043Y1833999D01*
X139173281Y1786380D01*
X139411377Y1786380D01*
X139506615Y1833999D01*
X139554234Y1881618D01*
X134143986Y727200D02*
X134477320Y1203390D01*
X134715415Y727200D02*
X134715415Y1727200D01*
X134334462Y1727200D01*
X134239224Y1679580D01*
X134191605Y1631961D01*
X134143986Y1536723D01*
X134143986Y1393866D01*
X134191605Y1298628D01*
X134239224Y1251009D01*
X134334462Y1203390D01*
X134715415Y1203390D01*
X133286843Y1393866D02*
X133286843Y727200D01*
X133524939Y1774819D02*
X133763034Y1060533D01*
X133143986Y1060533D01*
X137296126Y2149600D02*
X137629460Y2625790D01*
X137867555Y2149600D02*
X137867555Y3149600D01*
X137486602Y3149600D01*
X137391364Y3101980D01*
X137343745Y3054361D01*
X137296126Y2959123D01*
X137296126Y2816266D01*
X137343745Y2721028D01*
X137391364Y2673409D01*
X137486602Y2625790D01*
X137867555Y2625790D01*
X136962793Y3149600D02*
X136343745Y3149600D01*
X136677079Y2768647D01*
X136534221Y2768647D01*
X136438983Y2721028D01*
X136391364Y2673409D01*
X136343745Y2578171D01*
X136343745Y2340076D01*
X136391364Y2244838D01*
X136438983Y2197219D01*
X136534221Y2149600D01*
X136819936Y2149600D01*
X136915174Y2197219D01*
X136962793Y2244838D01*
X160415206Y7196580D02*
X160748540Y7672770D01*
X160986635Y7196580D02*
X160986635Y8196580D01*
X160605682Y8196580D01*
X160510444Y8148960D01*
X160462825Y8101341D01*
X160415206Y8006103D01*
X160415206Y7863246D01*
X160462825Y7768008D01*
X160510444Y7720389D01*
X160605682Y7672770D01*
X160986635Y7672770D01*
X160034254Y8101341D02*
X159986635Y8148960D01*
X159891397Y8196580D01*
X159653301Y8196580D01*
X159558063Y8148960D01*
X159510444Y8101341D01*
X159462825Y8006103D01*
X159462825Y7910865D01*
X159510444Y7768008D01*
X160081873Y7196580D01*
X159462825Y7196580D01*
X157908226Y7133080D02*
X158241560Y7609270D01*
X158479655Y7133080D02*
X158479655Y8133080D01*
X158098702Y8133080D01*
X158003464Y8085460D01*
X157955845Y8037841D01*
X157908226Y7942603D01*
X157908226Y7799746D01*
X157955845Y7704508D01*
X158003464Y7656889D01*
X158098702Y7609270D01*
X158479655Y7609270D01*
X156955845Y7133080D02*
X157527274Y7133080D01*
X157241560Y7133080D02*
X157241560Y8133080D01*
X157336798Y7990222D01*
X157432036Y7894984D01*
X157527274Y7847365D01*
X138751546Y8947898D02*
X138799165Y8900279D01*
X138942022Y8852660D01*
X139037260Y8852660D01*
X139180118Y8900279D01*
X139275356Y8995517D01*
X139322975Y9090755D01*
X139370594Y9281231D01*
X139370594Y9424088D01*
X139322975Y9614564D01*
X139275356Y9709802D01*
X139180118Y9805040D01*
X139037260Y9852660D01*
X138942022Y9852660D01*
X138799165Y9805040D01*
X138751546Y9757421D01*
X137894403Y9852660D02*
X138084880Y9852660D01*
X138180118Y9805040D01*
X138227737Y9757421D01*
X138322975Y9614564D01*
X138370594Y9424088D01*
X138370594Y9043136D01*
X138322975Y8947898D01*
X138275356Y8900279D01*
X138180118Y8852660D01*
X137989641Y8852660D01*
X137894403Y8900279D01*
X137846784Y8947898D01*
X137799165Y9043136D01*
X137799165Y9281231D01*
X137846784Y9376469D01*
X137894403Y9424088D01*
X137989641Y9471707D01*
X138180118Y9471707D01*
X138275356Y9424088D01*
X138322975Y9376469D01*
X138370594Y9281231D01*
X114974606Y2727438D02*
X115022225Y2679819D01*
X115165082Y2632200D01*
X115260320Y2632200D01*
X115403178Y2679819D01*
X115498416Y2775057D01*
X115546035Y2870295D01*
X115593654Y3060771D01*
X115593654Y3203628D01*
X115546035Y3394104D01*
X115498416Y3489342D01*
X115403178Y3584580D01*
X115260320Y3632200D01*
X115165082Y3632200D01*
X115022225Y3584580D01*
X114974606Y3536961D01*
X114069844Y3632200D02*
X114546035Y3632200D01*
X114593654Y3156009D01*
X114546035Y3203628D01*
X114450797Y3251247D01*
X114212701Y3251247D01*
X114117463Y3203628D01*
X114069844Y3156009D01*
X114022225Y3060771D01*
X114022225Y2822676D01*
X114069844Y2727438D01*
X114117463Y2679819D01*
X114212701Y2632200D01*
X114450797Y2632200D01*
X114546035Y2679819D01*
X114593654Y2727438D01*
X82399106Y2475978D02*
X82446725Y2428359D01*
X82589582Y2380740D01*
X82684820Y2380740D01*
X82827678Y2428359D01*
X82922916Y2523597D01*
X82970535Y2618835D01*
X83018154Y2809311D01*
X83018154Y2952168D01*
X82970535Y3142644D01*
X82922916Y3237882D01*
X82827678Y3333120D01*
X82684820Y3380740D01*
X82589582Y3380740D01*
X82446725Y3333120D01*
X82399106Y3285501D01*
X81541963Y3047406D02*
X81541963Y2380740D01*
X81780059Y3428359D02*
X82018154Y2714073D01*
X81399106Y2714073D01*
X152005266Y2859518D02*
X152052885Y2811899D01*
X152195742Y2764280D01*
X152290980Y2764280D01*
X152433838Y2811899D01*
X152529076Y2907137D01*
X152576695Y3002375D01*
X152624314Y3192851D01*
X152624314Y3335708D01*
X152576695Y3526184D01*
X152529076Y3621422D01*
X152433838Y3716660D01*
X152290980Y3764280D01*
X152195742Y3764280D01*
X152052885Y3716660D01*
X152005266Y3669041D01*
X151671933Y3764280D02*
X151052885Y3764280D01*
X151386219Y3383327D01*
X151243361Y3383327D01*
X151148123Y3335708D01*
X151100504Y3288089D01*
X151052885Y3192851D01*
X151052885Y2954756D01*
X151100504Y2859518D01*
X151148123Y2811899D01*
X151243361Y2764280D01*
X151529076Y2764280D01*
X151624314Y2811899D01*
X151671933Y2859518D01*
X47603646Y2483598D02*
X47651265Y2435979D01*
X47794122Y2388360D01*
X47889360Y2388360D01*
X48032218Y2435979D01*
X48127456Y2531217D01*
X48175075Y2626455D01*
X48222694Y2816931D01*
X48222694Y2959788D01*
X48175075Y3150264D01*
X48127456Y3245502D01*
X48032218Y3340740D01*
X47889360Y3388360D01*
X47794122Y3388360D01*
X47651265Y3340740D01*
X47603646Y3293121D01*
X47222694Y3293121D02*
X47175075Y3340740D01*
X47079837Y3388360D01*
X46841741Y3388360D01*
X46746503Y3340740D01*
X46698884Y3293121D01*
X46651265Y3197883D01*
X46651265Y3102645D01*
X46698884Y2959788D01*
X47270313Y2388360D01*
X46651265Y2388360D01*
X130029186Y852918D02*
X130076805Y805299D01*
X130219662Y757680D01*
X130314900Y757680D01*
X130457758Y805299D01*
X130552996Y900537D01*
X130600615Y995775D01*
X130648234Y1186251D01*
X130648234Y1329108D01*
X130600615Y1519584D01*
X130552996Y1614822D01*
X130457758Y1710060D01*
X130314900Y1757680D01*
X130219662Y1757680D01*
X130076805Y1710060D01*
X130029186Y1662441D01*
X129076805Y757680D02*
X129648234Y757680D01*
X129362520Y757680D02*
X129362520Y1757680D01*
X129457758Y1614822D01*
X129552996Y1519584D01*
X129648234Y1471965D01*
X94995844Y1531620D02*
X94995844Y722096D01*
X94948225Y626858D01*
X94900606Y579239D01*
X94805368Y531620D01*
X94614892Y531620D01*
X94519654Y579239D01*
X94472035Y626858D01*
X94424416Y722096D01*
X94424416Y1531620D01*
X93519654Y1198286D02*
X93519654Y531620D01*
X93757749Y1579239D02*
X93995844Y864953D01*
X93376797Y864953D01*
X91887477Y1480820D02*
X91220810Y1480820D01*
X91649381Y480820D01*
X90411286Y1147486D02*
X90411286Y480820D01*
X90649381Y1528439D02*
X90887477Y814153D01*
X90268429Y814153D01*
X89887477Y480820D02*
X89887477Y1480820D01*
X89887477Y1004629D02*
X89316048Y1004629D01*
X89316048Y480820D02*
X89316048Y1480820D01*
X88268429Y576058D02*
X88316048Y528439D01*
X88458905Y480820D01*
X88554143Y480820D01*
X88697000Y528439D01*
X88792239Y623677D01*
X88839858Y718915D01*
X88887477Y909391D01*
X88887477Y1052248D01*
X88839858Y1242724D01*
X88792239Y1337962D01*
X88697000Y1433200D01*
X88554143Y1480820D01*
X88458905Y1480820D01*
X88316048Y1433200D01*
X88268429Y1385581D01*
X87982715Y1480820D02*
X87411286Y1480820D01*
X87697000Y480820D02*
X87697000Y1480820D01*
X86601762Y1480820D02*
X87077953Y1480820D01*
X87125572Y1004629D01*
X87077953Y1052248D01*
X86982715Y1099867D01*
X86744620Y1099867D01*
X86649381Y1052248D01*
X86601762Y1004629D01*
X86554143Y909391D01*
X86554143Y671296D01*
X86601762Y576058D01*
X86649381Y528439D01*
X86744620Y480820D01*
X86982715Y480820D01*
X87077953Y528439D01*
X87125572Y576058D01*
X86077953Y480820D02*
X85887477Y480820D01*
X85792239Y528439D01*
X85744620Y576058D01*
X85649381Y718915D01*
X85601762Y909391D01*
X85601762Y1290343D01*
X85649381Y1385581D01*
X85697000Y1433200D01*
X85792239Y1480820D01*
X85982715Y1480820D01*
X86077953Y1433200D01*
X86125572Y1385581D01*
X86173191Y1290343D01*
X86173191Y1052248D01*
X86125572Y957010D01*
X86077953Y909391D01*
X85982715Y861772D01*
X85792239Y861772D01*
X85697000Y909391D01*
X85649381Y957010D01*
X85601762Y1052248D01*
X84697000Y1480820D02*
X85173191Y1480820D01*
X85220810Y1004629D01*
X85173191Y1052248D01*
X85077953Y1099867D01*
X84839858Y1099867D01*
X84744620Y1052248D01*
X84697000Y1004629D01*
X84649381Y909391D01*
X84649381Y671296D01*
X84697000Y576058D01*
X84744620Y528439D01*
X84839858Y480820D01*
X85077953Y480820D01*
X85173191Y528439D01*
X85220810Y576058D01*
X155399276Y6934960D02*
X155732609Y7411150D01*
X155970704Y6934960D02*
X155970704Y7934960D01*
X155589752Y7934960D01*
X155494514Y7887340D01*
X155446895Y7839721D01*
X155399276Y7744483D01*
X155399276Y7601626D01*
X155446895Y7506388D01*
X155494514Y7458769D01*
X155589752Y7411150D01*
X155970704Y7411150D01*
X154970704Y6934960D02*
X154970704Y7934960D01*
X154399276Y6934960D01*
X154399276Y7934960D01*
X153399276Y6934960D02*
X153970704Y6934960D01*
X153684990Y6934960D02*
X153684990Y7934960D01*
X153780228Y7792102D01*
X153875466Y7696864D01*
X153970704Y7649245D01*
X132572604Y4688840D02*
X132572604Y3879316D01*
X132524985Y3784078D01*
X132477366Y3736459D01*
X132382128Y3688840D01*
X132191652Y3688840D01*
X132096414Y3736459D01*
X132048795Y3784078D01*
X132001176Y3879316D01*
X132001176Y4688840D01*
X131001176Y3688840D02*
X131572604Y3688840D01*
X131286890Y3688840D02*
X131286890Y4688840D01*
X131382128Y4545982D01*
X131477366Y4450744D01*
X131572604Y4403125D01*
X136218903Y9030460D02*
X136218903Y10030460D01*
X135885570Y9316174D01*
X135552237Y10030460D01*
X135552237Y9030460D01*
X134504618Y9125698D02*
X134552237Y9078079D01*
X134695094Y9030460D01*
X134790332Y9030460D01*
X134933189Y9078079D01*
X135028427Y9173317D01*
X135076046Y9268555D01*
X135123665Y9459031D01*
X135123665Y9601888D01*
X135076046Y9792364D01*
X135028427Y9887602D01*
X134933189Y9982840D01*
X134790332Y10030460D01*
X134695094Y10030460D01*
X134552237Y9982840D01*
X134504618Y9935221D01*
X134076046Y9030460D02*
X134076046Y10030460D01*
X133695094Y10030460D01*
X133599856Y9982840D01*
X133552237Y9935221D01*
X133504618Y9839983D01*
X133504618Y9697126D01*
X133552237Y9601888D01*
X133599856Y9554269D01*
X133695094Y9506650D01*
X134076046Y9506650D01*
X132647475Y9697126D02*
X132647475Y9030460D01*
X132885570Y10078079D02*
X133123665Y9363793D01*
X132504618Y9363793D01*
X132076046Y9030460D02*
X131885570Y9030460D01*
X131790332Y9078079D01*
X131742713Y9125698D01*
X131647475Y9268555D01*
X131599856Y9459031D01*
X131599856Y9839983D01*
X131647475Y9935221D01*
X131695094Y9982840D01*
X131790332Y10030460D01*
X131980808Y10030460D01*
X132076046Y9982840D01*
X132123665Y9935221D01*
X132171284Y9839983D01*
X132171284Y9601888D01*
X132123665Y9506650D01*
X132076046Y9459031D01*
X131980808Y9411412D01*
X131790332Y9411412D01*
X131695094Y9459031D01*
X131647475Y9506650D01*
X131599856Y9601888D01*
X131218903Y9935221D02*
X131171284Y9982840D01*
X131076046Y10030460D01*
X130837951Y10030460D01*
X130742713Y9982840D01*
X130695094Y9935221D01*
X130647475Y9839983D01*
X130647475Y9744745D01*
X130695094Y9601888D01*
X131266522Y9030460D01*
X130647475Y9030460D01*
X129695094Y9030460D02*
X130266522Y9030460D01*
X129980808Y9030460D02*
X129980808Y10030460D01*
X130076046Y9887602D01*
X130171284Y9792364D01*
X130266522Y9744745D01*
X129266522Y9411412D02*
X128504618Y9411412D01*
X128028427Y9554269D02*
X127695094Y9554269D01*
X127552237Y9030460D02*
X128028427Y9030460D01*
X128028427Y10030460D01*
X127552237Y10030460D01*
X127123665Y9030460D02*
X127123665Y10030460D01*
X126742713Y10030460D01*
X126647475Y9982840D01*
X126599856Y9935221D01*
X126552237Y9839983D01*
X126552237Y9697126D01*
X126599856Y9601888D01*
X126647475Y9554269D01*
X126742713Y9506650D01*
X127123665Y9506650D01*
X126918564Y1691640D02*
X126918564Y882116D01*
X126870945Y786878D01*
X126823326Y739259D01*
X126728088Y691640D01*
X126537612Y691640D01*
X126442374Y739259D01*
X126394755Y786878D01*
X126347136Y882116D01*
X126347136Y1691640D01*
X125966183Y1691640D02*
X125299517Y1691640D01*
X125728088Y691640D01*
X124201357Y1541780D02*
X123534690Y1541780D01*
X123963261Y541780D01*
X122725166Y1208446D02*
X122725166Y541780D01*
X122963261Y1589399D02*
X123201357Y875113D01*
X122582309Y875113D01*
X122201357Y541780D02*
X122201357Y1541780D01*
X122201357Y1065589D02*
X121629928Y1065589D01*
X121629928Y541780D02*
X121629928Y1541780D01*
X120582309Y637018D02*
X120629928Y589399D01*
X120772785Y541780D01*
X120868023Y541780D01*
X121010880Y589399D01*
X121106119Y684637D01*
X121153738Y779875D01*
X121201357Y970351D01*
X121201357Y1113208D01*
X121153738Y1303684D01*
X121106119Y1398922D01*
X121010880Y1494160D01*
X120868023Y1541780D01*
X120772785Y1541780D01*
X120629928Y1494160D01*
X120582309Y1446541D01*
X120296595Y1541780D02*
X119725166Y1541780D01*
X120010880Y541780D02*
X120010880Y1541780D01*
X118915642Y1541780D02*
X119391833Y1541780D01*
X119439452Y1065589D01*
X119391833Y1113208D01*
X119296595Y1160827D01*
X119058500Y1160827D01*
X118963261Y1113208D01*
X118915642Y1065589D01*
X118868023Y970351D01*
X118868023Y732256D01*
X118915642Y637018D01*
X118963261Y589399D01*
X119058500Y541780D01*
X119296595Y541780D01*
X119391833Y589399D01*
X119439452Y637018D01*
X118391833Y541780D02*
X118201357Y541780D01*
X118106119Y589399D01*
X118058500Y637018D01*
X117963261Y779875D01*
X117915642Y970351D01*
X117915642Y1351303D01*
X117963261Y1446541D01*
X118010880Y1494160D01*
X118106119Y1541780D01*
X118296595Y1541780D01*
X118391833Y1494160D01*
X118439452Y1446541D01*
X118487071Y1351303D01*
X118487071Y1113208D01*
X118439452Y1017970D01*
X118391833Y970351D01*
X118296595Y922732D01*
X118106119Y922732D01*
X118010880Y970351D01*
X117963261Y1017970D01*
X117915642Y1113208D01*
X117010880Y1541780D02*
X117487071Y1541780D01*
X117534690Y1065589D01*
X117487071Y1113208D01*
X117391833Y1160827D01*
X117153738Y1160827D01*
X117058500Y1113208D01*
X117010880Y1065589D01*
X116963261Y970351D01*
X116963261Y732256D01*
X117010880Y637018D01*
X117058500Y589399D01*
X117153738Y541780D01*
X117391833Y541780D01*
X117487071Y589399D01*
X117534690Y637018D01*
X150393244Y1254760D02*
X150393244Y445236D01*
X150345625Y349998D01*
X150298006Y302379D01*
X150202768Y254760D01*
X150012292Y254760D01*
X149917054Y302379D01*
X149869435Y349998D01*
X149821816Y445236D01*
X149821816Y1254760D01*
X149393244Y1159521D02*
X149345625Y1207140D01*
X149250387Y1254760D01*
X149012292Y1254760D01*
X148917054Y1207140D01*
X148869435Y1159521D01*
X148821816Y1064283D01*
X148821816Y969045D01*
X148869435Y826188D01*
X149440863Y254760D01*
X148821816Y254760D01*
X145472196Y193800D02*
X145948386Y193800D01*
X145948386Y1193800D01*
X145138862Y193800D02*
X145138862Y1193800D01*
X144805529Y479514D01*
X144472196Y1193800D01*
X144472196Y193800D01*
X144091243Y1193800D02*
X143472196Y1193800D01*
X143805529Y812847D01*
X143662672Y812847D01*
X143567434Y765228D01*
X143519815Y717609D01*
X143472196Y622371D01*
X143472196Y384276D01*
X143519815Y289038D01*
X143567434Y241419D01*
X143662672Y193800D01*
X143948386Y193800D01*
X144043624Y241419D01*
X144091243Y289038D01*
X143138862Y1193800D02*
X142519815Y1193800D01*
X142853148Y812847D01*
X142710291Y812847D01*
X142615053Y765228D01*
X142567434Y717609D01*
X142519815Y622371D01*
X142519815Y384276D01*
X142567434Y289038D01*
X142615053Y241419D01*
X142710291Y193800D01*
X142996005Y193800D01*
X143091243Y241419D01*
X143138862Y289038D01*
X142043624Y193800D02*
X141853148Y193800D01*
X141757910Y241419D01*
X141710291Y289038D01*
X141615053Y431895D01*
X141567434Y622371D01*
X141567434Y1003323D01*
X141615053Y1098561D01*
X141662672Y1146180D01*
X141757910Y1193800D01*
X141948386Y1193800D01*
X142043624Y1146180D01*
X142091243Y1098561D01*
X142138862Y1003323D01*
X142138862Y765228D01*
X142091243Y669990D01*
X142043624Y622371D01*
X141948386Y574752D01*
X141757910Y574752D01*
X141662672Y622371D01*
X141615053Y669990D01*
X141567434Y765228D01*
X60652504Y1506220D02*
X60652504Y696696D01*
X60604885Y601458D01*
X60557266Y553839D01*
X60462028Y506220D01*
X60271552Y506220D01*
X60176314Y553839D01*
X60128695Y601458D01*
X60081076Y696696D01*
X60081076Y1506220D01*
X59700123Y1506220D02*
X59081076Y1506220D01*
X59414409Y1125267D01*
X59271552Y1125267D01*
X59176314Y1077648D01*
X59128695Y1030029D01*
X59081076Y934791D01*
X59081076Y696696D01*
X59128695Y601458D01*
X59176314Y553839D01*
X59271552Y506220D01*
X59557266Y506220D01*
X59652504Y553839D01*
X59700123Y601458D01*
X57574617Y1595120D02*
X56907950Y1595120D01*
X57336521Y595120D01*
X56098426Y1261786D02*
X56098426Y595120D01*
X56336521Y1642739D02*
X56574617Y928453D01*
X55955569Y928453D01*
X55574617Y595120D02*
X55574617Y1595120D01*
X55574617Y1118929D02*
X55003188Y1118929D01*
X55003188Y595120D02*
X55003188Y1595120D01*
X53955569Y690358D02*
X54003188Y642739D01*
X54146045Y595120D01*
X54241283Y595120D01*
X54384140Y642739D01*
X54479379Y737977D01*
X54526998Y833215D01*
X54574617Y1023691D01*
X54574617Y1166548D01*
X54526998Y1357024D01*
X54479379Y1452262D01*
X54384140Y1547500D01*
X54241283Y1595120D01*
X54146045Y1595120D01*
X54003188Y1547500D01*
X53955569Y1499881D01*
X53669855Y1595120D02*
X53098426Y1595120D01*
X53384140Y595120D02*
X53384140Y1595120D01*
X52288902Y1595120D02*
X52765093Y1595120D01*
X52812712Y1118929D01*
X52765093Y1166548D01*
X52669855Y1214167D01*
X52431760Y1214167D01*
X52336521Y1166548D01*
X52288902Y1118929D01*
X52241283Y1023691D01*
X52241283Y785596D01*
X52288902Y690358D01*
X52336521Y642739D01*
X52431760Y595120D01*
X52669855Y595120D01*
X52765093Y642739D01*
X52812712Y690358D01*
X51765093Y595120D02*
X51574617Y595120D01*
X51479379Y642739D01*
X51431760Y690358D01*
X51336521Y833215D01*
X51288902Y1023691D01*
X51288902Y1404643D01*
X51336521Y1499881D01*
X51384140Y1547500D01*
X51479379Y1595120D01*
X51669855Y1595120D01*
X51765093Y1547500D01*
X51812712Y1499881D01*
X51860331Y1404643D01*
X51860331Y1166548D01*
X51812712Y1071310D01*
X51765093Y1023691D01*
X51669855Y976072D01*
X51479379Y976072D01*
X51384140Y1023691D01*
X51336521Y1071310D01*
X51288902Y1166548D01*
X50384140Y1595120D02*
X50860331Y1595120D01*
X50907950Y1118929D01*
X50860331Y1166548D01*
X50765093Y1214167D01*
X50526998Y1214167D01*
X50431760Y1166548D01*
X50384140Y1118929D01*
X50336521Y1023691D01*
X50336521Y785596D01*
X50384140Y690358D01*
X50431760Y642739D01*
X50526998Y595120D01*
X50765093Y595120D01*
X50860331Y642739D01*
X50907950Y690358D01*
X131858333Y24052381D02*
X131525000Y23576191D01*
X131286904Y24052381D02*
X131286904Y23052381D01*
X131667857Y23052381D01*
X131763095Y23100000D01*
X131810714Y23147620D01*
X131858333Y23242858D01*
X131858333Y23385715D01*
X131810714Y23480953D01*
X131763095Y23528572D01*
X131667857Y23576191D01*
X131286904Y23576191D01*
X132191666Y23052381D02*
X132858333Y23052381D01*
X132429761Y24052381D01*
X131833333Y18752381D02*
X131500000Y18276191D01*
X131261904Y18752381D02*
X131261904Y17752381D01*
X131642857Y17752381D01*
X131738095Y17800000D01*
X131785714Y17847620D01*
X131833333Y17942858D01*
X131833333Y18085715D01*
X131785714Y18180953D01*
X131738095Y18228572D01*
X131642857Y18276191D01*
X131261904Y18276191D01*
X132690476Y17752381D02*
X132500000Y17752381D01*
X132404761Y17800000D01*
X132357142Y17847620D01*
X132261904Y17990477D01*
X132214285Y18180953D01*
X132214285Y18561905D01*
X132261904Y18657143D01*
X132309523Y18704762D01*
X132404761Y18752381D01*
X132595238Y18752381D01*
X132690476Y18704762D01*
X132738095Y18657143D01*
X132785714Y18561905D01*
X132785714Y18323810D01*
X132738095Y18228572D01*
X132690476Y18180953D01*
X132595238Y18133334D01*
X132404761Y18133334D01*
X132309523Y18180953D01*
X132261904Y18228572D01*
X132214285Y18323810D01*
X22314813Y31413621D02*
X21981480Y30937431D01*
X21743384Y31413621D02*
X21743384Y30413621D01*
X22124337Y30413621D01*
X22219575Y30461240D01*
X22267194Y30508860D01*
X22314813Y30604098D01*
X22314813Y30746955D01*
X22267194Y30842193D01*
X22219575Y30889812D01*
X22124337Y30937431D01*
X21743384Y30937431D01*
X23219575Y30413621D02*
X22743384Y30413621D01*
X22695765Y30889812D01*
X22743384Y30842193D01*
X22838622Y30794574D01*
X23076718Y30794574D01*
X23171956Y30842193D01*
X23219575Y30889812D01*
X23267194Y30985050D01*
X23267194Y31223145D01*
X23219575Y31318383D01*
X23171956Y31366002D01*
X23076718Y31413621D01*
X22838622Y31413621D01*
X22743384Y31366002D01*
X22695765Y31318383D01*
X28106013Y32472801D02*
X27772680Y31996611D01*
X27534584Y32472801D02*
X27534584Y31472801D01*
X27915537Y31472801D01*
X28010775Y31520420D01*
X28058394Y31568040D01*
X28106013Y31663278D01*
X28106013Y31806135D01*
X28058394Y31901373D01*
X28010775Y31948992D01*
X27915537Y31996611D01*
X27534584Y31996611D01*
X28963156Y31806135D02*
X28963156Y32472801D01*
X28725060Y31425182D02*
X28486965Y32139468D01*
X29106013Y32139468D01*
X24953873Y31050401D02*
X24620540Y30574211D01*
X24382444Y31050401D02*
X24382444Y30050401D01*
X24763397Y30050401D01*
X24858635Y30098020D01*
X24906254Y30145640D01*
X24953873Y30240878D01*
X24953873Y30383735D01*
X24906254Y30478973D01*
X24858635Y30526592D01*
X24763397Y30574211D01*
X24382444Y30574211D01*
X25287206Y30050401D02*
X25906254Y30050401D01*
X25572920Y30431354D01*
X25715778Y30431354D01*
X25811016Y30478973D01*
X25858635Y30526592D01*
X25906254Y30621830D01*
X25906254Y30859925D01*
X25858635Y30955163D01*
X25811016Y31002782D01*
X25715778Y31050401D01*
X25430063Y31050401D01*
X25334825Y31002782D01*
X25287206Y30955163D01*
X1834793Y26003421D02*
X1501460Y25527231D01*
X1263364Y26003421D02*
X1263364Y25003421D01*
X1644317Y25003421D01*
X1739555Y25051040D01*
X1787174Y25098660D01*
X1834793Y25193898D01*
X1834793Y25336755D01*
X1787174Y25431993D01*
X1739555Y25479612D01*
X1644317Y25527231D01*
X1263364Y25527231D01*
X2215745Y25098660D02*
X2263364Y25051040D01*
X2358602Y25003421D01*
X2596698Y25003421D01*
X2691936Y25051040D01*
X2739555Y25098660D01*
X2787174Y25193898D01*
X2787174Y25289136D01*
X2739555Y25431993D01*
X2168126Y26003421D01*
X2787174Y26003421D01*
X4341773Y26066921D02*
X4008440Y25590731D01*
X3770344Y26066921D02*
X3770344Y25066921D01*
X4151297Y25066921D01*
X4246535Y25114540D01*
X4294154Y25162160D01*
X4341773Y25257398D01*
X4341773Y25400255D01*
X4294154Y25495493D01*
X4246535Y25543112D01*
X4151297Y25590731D01*
X3770344Y25590731D01*
X5294154Y26066921D02*
X4722725Y26066921D01*
X5008440Y26066921D02*
X5008440Y25066921D01*
X4913201Y25209779D01*
X4817963Y25305017D01*
X4722725Y25352636D01*
X23498453Y24252103D02*
X23450834Y24299722D01*
X23307977Y24347341D01*
X23212739Y24347341D01*
X23069881Y24299722D01*
X22974643Y24204484D01*
X22927024Y24109246D01*
X22879405Y23918770D01*
X22879405Y23775913D01*
X22927024Y23585437D01*
X22974643Y23490199D01*
X23069881Y23394960D01*
X23212739Y23347341D01*
X23307977Y23347341D01*
X23450834Y23394960D01*
X23498453Y23442580D01*
X24355596Y23347341D02*
X24165120Y23347341D01*
X24069881Y23394960D01*
X24022262Y23442580D01*
X23927024Y23585437D01*
X23879405Y23775913D01*
X23879405Y24156865D01*
X23927024Y24252103D01*
X23974643Y24299722D01*
X24069881Y24347341D01*
X24260358Y24347341D01*
X24355596Y24299722D01*
X24403215Y24252103D01*
X24450834Y24156865D01*
X24450834Y23918770D01*
X24403215Y23823532D01*
X24355596Y23775913D01*
X24260358Y23728294D01*
X24069881Y23728294D01*
X23974643Y23775913D01*
X23927024Y23823532D01*
X23879405Y23918770D01*
X47275393Y30472563D02*
X47227774Y30520182D01*
X47084917Y30567801D01*
X46989679Y30567801D01*
X46846821Y30520182D01*
X46751583Y30424944D01*
X46703964Y30329706D01*
X46656345Y30139230D01*
X46656345Y29996373D01*
X46703964Y29805897D01*
X46751583Y29710659D01*
X46846821Y29615420D01*
X46989679Y29567801D01*
X47084917Y29567801D01*
X47227774Y29615420D01*
X47275393Y29663040D01*
X48180155Y29567801D02*
X47703964Y29567801D01*
X47656345Y30043992D01*
X47703964Y29996373D01*
X47799202Y29948754D01*
X48037298Y29948754D01*
X48132536Y29996373D01*
X48180155Y30043992D01*
X48227774Y30139230D01*
X48227774Y30377325D01*
X48180155Y30472563D01*
X48132536Y30520182D01*
X48037298Y30567801D01*
X47799202Y30567801D01*
X47703964Y30520182D01*
X47656345Y30472563D01*
X79850893Y30724023D02*
X79803274Y30771642D01*
X79660417Y30819261D01*
X79565179Y30819261D01*
X79422321Y30771642D01*
X79327083Y30676404D01*
X79279464Y30581166D01*
X79231845Y30390690D01*
X79231845Y30247833D01*
X79279464Y30057357D01*
X79327083Y29962119D01*
X79422321Y29866880D01*
X79565179Y29819261D01*
X79660417Y29819261D01*
X79803274Y29866880D01*
X79850893Y29914500D01*
X80708036Y30152595D02*
X80708036Y30819261D01*
X80469940Y29771642D02*
X80231845Y30485928D01*
X80850893Y30485928D01*
X10244733Y30340483D02*
X10197114Y30388102D01*
X10054257Y30435721D01*
X9959019Y30435721D01*
X9816161Y30388102D01*
X9720923Y30292864D01*
X9673304Y30197626D01*
X9625685Y30007150D01*
X9625685Y29864293D01*
X9673304Y29673817D01*
X9720923Y29578579D01*
X9816161Y29483340D01*
X9959019Y29435721D01*
X10054257Y29435721D01*
X10197114Y29483340D01*
X10244733Y29530960D01*
X10578066Y29435721D02*
X11197114Y29435721D01*
X10863780Y29816674D01*
X11006638Y29816674D01*
X11101876Y29864293D01*
X11149495Y29911912D01*
X11197114Y30007150D01*
X11197114Y30245245D01*
X11149495Y30340483D01*
X11101876Y30388102D01*
X11006638Y30435721D01*
X10720923Y30435721D01*
X10625685Y30388102D01*
X10578066Y30340483D01*
X114646353Y30716403D02*
X114598734Y30764022D01*
X114455877Y30811641D01*
X114360639Y30811641D01*
X114217781Y30764022D01*
X114122543Y30668784D01*
X114074924Y30573546D01*
X114027305Y30383070D01*
X114027305Y30240213D01*
X114074924Y30049737D01*
X114122543Y29954499D01*
X114217781Y29859260D01*
X114360639Y29811641D01*
X114455877Y29811641D01*
X114598734Y29859260D01*
X114646353Y29906880D01*
X115027305Y29906880D02*
X115074924Y29859260D01*
X115170162Y29811641D01*
X115408258Y29811641D01*
X115503496Y29859260D01*
X115551115Y29906880D01*
X115598734Y30002118D01*
X115598734Y30097356D01*
X115551115Y30240213D01*
X114979686Y30811641D01*
X115598734Y30811641D01*
X32220813Y32347083D02*
X32173194Y32394702D01*
X32030337Y32442321D01*
X31935099Y32442321D01*
X31792241Y32394702D01*
X31697003Y32299464D01*
X31649384Y32204226D01*
X31601765Y32013750D01*
X31601765Y31870893D01*
X31649384Y31680417D01*
X31697003Y31585179D01*
X31792241Y31489940D01*
X31935099Y31442321D01*
X32030337Y31442321D01*
X32173194Y31489940D01*
X32220813Y31537560D01*
X33173194Y32442321D02*
X32601765Y32442321D01*
X32887480Y32442321D02*
X32887480Y31442321D01*
X32792241Y31585179D01*
X32697003Y31680417D01*
X32601765Y31728036D01*
X67254155Y31668381D02*
X67254155Y32477905D01*
X67301774Y32573143D01*
X67349393Y32620762D01*
X67444631Y32668381D01*
X67635107Y32668381D01*
X67730345Y32620762D01*
X67777964Y32573143D01*
X67825583Y32477905D01*
X67825583Y31668381D01*
X68730345Y32001715D02*
X68730345Y32668381D01*
X68492250Y31620762D02*
X68254155Y32335048D01*
X68873202Y32335048D01*
X70362522Y31719181D02*
X71029189Y31719181D01*
X70600618Y32719181D01*
X71838713Y32052515D02*
X71838713Y32719181D01*
X71600618Y31671562D02*
X71362522Y32385848D01*
X71981570Y32385848D01*
X72362522Y32719181D02*
X72362522Y31719181D01*
X72362522Y32195372D02*
X72933951Y32195372D01*
X72933951Y32719181D02*
X72933951Y31719181D01*
X73981570Y32623943D02*
X73933951Y32671562D01*
X73791094Y32719181D01*
X73695856Y32719181D01*
X73552999Y32671562D01*
X73457760Y32576324D01*
X73410141Y32481086D01*
X73362522Y32290610D01*
X73362522Y32147753D01*
X73410141Y31957277D01*
X73457760Y31862039D01*
X73552999Y31766800D01*
X73695856Y31719181D01*
X73791094Y31719181D01*
X73933951Y31766800D01*
X73981570Y31814420D01*
X74267284Y31719181D02*
X74838713Y31719181D01*
X74552999Y32719181D02*
X74552999Y31719181D01*
X75648237Y31719181D02*
X75172046Y31719181D01*
X75124427Y32195372D01*
X75172046Y32147753D01*
X75267284Y32100134D01*
X75505380Y32100134D01*
X75600618Y32147753D01*
X75648237Y32195372D01*
X75695856Y32290610D01*
X75695856Y32528705D01*
X75648237Y32623943D01*
X75600618Y32671562D01*
X75505380Y32719181D01*
X75267284Y32719181D01*
X75172046Y32671562D01*
X75124427Y32623943D01*
X76172046Y32719181D02*
X76362522Y32719181D01*
X76457760Y32671562D01*
X76505380Y32623943D01*
X76600618Y32481086D01*
X76648237Y32290610D01*
X76648237Y31909658D01*
X76600618Y31814420D01*
X76552999Y31766800D01*
X76457760Y31719181D01*
X76267284Y31719181D01*
X76172046Y31766800D01*
X76124427Y31814420D01*
X76076808Y31909658D01*
X76076808Y32147753D01*
X76124427Y32242991D01*
X76172046Y32290610D01*
X76267284Y32338229D01*
X76457760Y32338229D01*
X76552999Y32290610D01*
X76600618Y32242991D01*
X76648237Y32147753D01*
X77552999Y31719181D02*
X77076808Y31719181D01*
X77029189Y32195372D01*
X77076808Y32147753D01*
X77172046Y32100134D01*
X77410141Y32100134D01*
X77505380Y32147753D01*
X77552999Y32195372D01*
X77600618Y32290610D01*
X77600618Y32528705D01*
X77552999Y32623943D01*
X77505380Y32671562D01*
X77410141Y32719181D01*
X77172046Y32719181D01*
X77076808Y32671562D01*
X77029189Y32623943D01*
X6850723Y26265041D02*
X6517390Y25788851D01*
X6279295Y26265041D02*
X6279295Y25265041D01*
X6660247Y25265041D01*
X6755485Y25312660D01*
X6803104Y25360280D01*
X6850723Y25455518D01*
X6850723Y25598375D01*
X6803104Y25693613D01*
X6755485Y25741232D01*
X6660247Y25788851D01*
X6279295Y25788851D01*
X7279295Y26265041D02*
X7279295Y25265041D01*
X7850723Y26265041D01*
X7850723Y25265041D01*
X8850723Y26265041D02*
X8279295Y26265041D01*
X8565009Y26265041D02*
X8565009Y25265041D01*
X8469771Y25407899D01*
X8374533Y25503137D01*
X8279295Y25550756D01*
X29677395Y28511161D02*
X29677395Y29320685D01*
X29725014Y29415923D01*
X29772633Y29463542D01*
X29867871Y29511161D01*
X30058347Y29511161D01*
X30153585Y29463542D01*
X30201204Y29415923D01*
X30248823Y29320685D01*
X30248823Y28511161D01*
X31248823Y29511161D02*
X30677395Y29511161D01*
X30963109Y29511161D02*
X30963109Y28511161D01*
X30867871Y28654019D01*
X30772633Y28749257D01*
X30677395Y28796876D01*
X26031096Y24169541D02*
X26031096Y23169541D01*
X26364429Y23883827D01*
X26697762Y23169541D01*
X26697762Y24169541D01*
X27745381Y24074303D02*
X27697762Y24121922D01*
X27554905Y24169541D01*
X27459667Y24169541D01*
X27316810Y24121922D01*
X27221572Y24026684D01*
X27173953Y23931446D01*
X27126334Y23740970D01*
X27126334Y23598113D01*
X27173953Y23407637D01*
X27221572Y23312399D01*
X27316810Y23217160D01*
X27459667Y23169541D01*
X27554905Y23169541D01*
X27697762Y23217160D01*
X27745381Y23264780D01*
X28173953Y24169541D02*
X28173953Y23169541D01*
X28554905Y23169541D01*
X28650143Y23217160D01*
X28697762Y23264780D01*
X28745381Y23360018D01*
X28745381Y23502875D01*
X28697762Y23598113D01*
X28650143Y23645732D01*
X28554905Y23693351D01*
X28173953Y23693351D01*
X29602524Y23502875D02*
X29602524Y24169541D01*
X29364429Y23121922D02*
X29126334Y23836208D01*
X29745381Y23836208D01*
X30173953Y24169541D02*
X30364429Y24169541D01*
X30459667Y24121922D01*
X30507286Y24074303D01*
X30602524Y23931446D01*
X30650143Y23740970D01*
X30650143Y23360018D01*
X30602524Y23264780D01*
X30554905Y23217160D01*
X30459667Y23169541D01*
X30269191Y23169541D01*
X30173953Y23217160D01*
X30126334Y23264780D01*
X30078715Y23360018D01*
X30078715Y23598113D01*
X30126334Y23693351D01*
X30173953Y23740970D01*
X30269191Y23788589D01*
X30459667Y23788589D01*
X30554905Y23740970D01*
X30602524Y23693351D01*
X30650143Y23598113D01*
X31031096Y23264780D02*
X31078715Y23217160D01*
X31173953Y23169541D01*
X31412048Y23169541D01*
X31507286Y23217160D01*
X31554905Y23264780D01*
X31602524Y23360018D01*
X31602524Y23455256D01*
X31554905Y23598113D01*
X30983477Y24169541D01*
X31602524Y24169541D01*
X32554905Y24169541D02*
X31983477Y24169541D01*
X32269191Y24169541D02*
X32269191Y23169541D01*
X32173953Y23312399D01*
X32078715Y23407637D01*
X31983477Y23455256D01*
X32983477Y23788589D02*
X33745381Y23788589D01*
X34221572Y23645732D02*
X34554905Y23645732D01*
X34697762Y24169541D02*
X34221572Y24169541D01*
X34221572Y23169541D01*
X34697762Y23169541D01*
X35126334Y24169541D02*
X35126334Y23169541D01*
X35507286Y23169541D01*
X35602524Y23217160D01*
X35650143Y23264780D01*
X35697762Y23360018D01*
X35697762Y23502875D01*
X35650143Y23598113D01*
X35602524Y23645732D01*
X35507286Y23693351D01*
X35126334Y23693351D01*
X35331435Y31508361D02*
X35331435Y32317885D01*
X35379054Y32413123D01*
X35426673Y32460742D01*
X35521911Y32508361D01*
X35712387Y32508361D01*
X35807625Y32460742D01*
X35855244Y32413123D01*
X35902863Y32317885D01*
X35902863Y31508361D01*
X36283816Y31508361D02*
X36950482Y31508361D01*
X36521911Y32508361D01*
X38048642Y31658221D02*
X38715309Y31658221D01*
X38286738Y32658221D01*
X39524833Y31991555D02*
X39524833Y32658221D01*
X39286738Y31610602D02*
X39048642Y32324888D01*
X39667690Y32324888D01*
X40048642Y32658221D02*
X40048642Y31658221D01*
X40048642Y32134412D02*
X40620071Y32134412D01*
X40620071Y32658221D02*
X40620071Y31658221D01*
X41667690Y32562983D02*
X41620071Y32610602D01*
X41477214Y32658221D01*
X41381976Y32658221D01*
X41239119Y32610602D01*
X41143880Y32515364D01*
X41096261Y32420126D01*
X41048642Y32229650D01*
X41048642Y32086793D01*
X41096261Y31896317D01*
X41143880Y31801079D01*
X41239119Y31705840D01*
X41381976Y31658221D01*
X41477214Y31658221D01*
X41620071Y31705840D01*
X41667690Y31753460D01*
X41953404Y31658221D02*
X42524833Y31658221D01*
X42239119Y32658221D02*
X42239119Y31658221D01*
X43334357Y31658221D02*
X42858166Y31658221D01*
X42810547Y32134412D01*
X42858166Y32086793D01*
X42953404Y32039174D01*
X43191500Y32039174D01*
X43286738Y32086793D01*
X43334357Y32134412D01*
X43381976Y32229650D01*
X43381976Y32467745D01*
X43334357Y32562983D01*
X43286738Y32610602D01*
X43191500Y32658221D01*
X42953404Y32658221D01*
X42858166Y32610602D01*
X42810547Y32562983D01*
X43858166Y32658221D02*
X44048642Y32658221D01*
X44143880Y32610602D01*
X44191500Y32562983D01*
X44286738Y32420126D01*
X44334357Y32229650D01*
X44334357Y31848698D01*
X44286738Y31753460D01*
X44239119Y31705840D01*
X44143880Y31658221D01*
X43953404Y31658221D01*
X43858166Y31705840D01*
X43810547Y31753460D01*
X43762928Y31848698D01*
X43762928Y32086793D01*
X43810547Y32182031D01*
X43858166Y32229650D01*
X43953404Y32277269D01*
X44143880Y32277269D01*
X44239119Y32229650D01*
X44286738Y32182031D01*
X44334357Y32086793D01*
X45239119Y31658221D02*
X44762928Y31658221D01*
X44715309Y32134412D01*
X44762928Y32086793D01*
X44858166Y32039174D01*
X45096261Y32039174D01*
X45191500Y32086793D01*
X45239119Y32134412D01*
X45286738Y32229650D01*
X45286738Y32467745D01*
X45239119Y32562983D01*
X45191500Y32610602D01*
X45096261Y32658221D01*
X44858166Y32658221D01*
X44762928Y32610602D01*
X44715309Y32562983D01*
X11856755Y31945241D02*
X11856755Y32754765D01*
X11904374Y32850003D01*
X11951993Y32897622D01*
X12047231Y32945241D01*
X12237707Y32945241D01*
X12332945Y32897622D01*
X12380564Y32850003D01*
X12428183Y32754765D01*
X12428183Y31945241D01*
X12856755Y32040480D02*
X12904374Y31992860D01*
X12999612Y31945241D01*
X13237707Y31945241D01*
X13332945Y31992860D01*
X13380564Y32040480D01*
X13428183Y32135718D01*
X13428183Y32230956D01*
X13380564Y32373813D01*
X12809136Y32945241D01*
X13428183Y32945241D01*
X16777803Y33006201D02*
X16301613Y33006201D01*
X16301613Y32006201D01*
X17111137Y33006201D02*
X17111137Y32006201D01*
X17444470Y32720487D01*
X17777803Y32006201D01*
X17777803Y33006201D01*
X18158756Y32006201D02*
X18777803Y32006201D01*
X18444470Y32387154D01*
X18587327Y32387154D01*
X18682565Y32434773D01*
X18730184Y32482392D01*
X18777803Y32577630D01*
X18777803Y32815725D01*
X18730184Y32910963D01*
X18682565Y32958582D01*
X18587327Y33006201D01*
X18301613Y33006201D01*
X18206375Y32958582D01*
X18158756Y32910963D01*
X19111137Y32006201D02*
X19730184Y32006201D01*
X19396851Y32387154D01*
X19539708Y32387154D01*
X19634946Y32434773D01*
X19682565Y32482392D01*
X19730184Y32577630D01*
X19730184Y32815725D01*
X19682565Y32910963D01*
X19634946Y32958582D01*
X19539708Y33006201D01*
X19253994Y33006201D01*
X19158756Y32958582D01*
X19111137Y32910963D01*
X20206375Y33006201D02*
X20396851Y33006201D01*
X20492089Y32958582D01*
X20539708Y32910963D01*
X20634946Y32768106D01*
X20682565Y32577630D01*
X20682565Y32196678D01*
X20634946Y32101440D01*
X20587327Y32053820D01*
X20492089Y32006201D01*
X20301613Y32006201D01*
X20206375Y32053820D01*
X20158756Y32101440D01*
X20111137Y32196678D01*
X20111137Y32434773D01*
X20158756Y32530011D01*
X20206375Y32577630D01*
X20301613Y32625249D01*
X20492089Y32625249D01*
X20587327Y32577630D01*
X20634946Y32530011D01*
X20682565Y32434773D01*
X101597495Y31693781D02*
X101597495Y32503305D01*
X101645114Y32598543D01*
X101692733Y32646162D01*
X101787971Y32693781D01*
X101978447Y32693781D01*
X102073685Y32646162D01*
X102121304Y32598543D01*
X102168923Y32503305D01*
X102168923Y31693781D01*
X102549876Y31693781D02*
X103168923Y31693781D01*
X102835590Y32074734D01*
X102978447Y32074734D01*
X103073685Y32122353D01*
X103121304Y32169972D01*
X103168923Y32265210D01*
X103168923Y32503305D01*
X103121304Y32598543D01*
X103073685Y32646162D01*
X102978447Y32693781D01*
X102692733Y32693781D01*
X102597495Y32646162D01*
X102549876Y32598543D01*
X104675382Y31604881D02*
X105342049Y31604881D01*
X104913478Y32604881D01*
X106151573Y31938215D02*
X106151573Y32604881D01*
X105913478Y31557262D02*
X105675382Y32271548D01*
X106294430Y32271548D01*
X106675382Y32604881D02*
X106675382Y31604881D01*
X106675382Y32081072D02*
X107246811Y32081072D01*
X107246811Y32604881D02*
X107246811Y31604881D01*
X108294430Y32509643D02*
X108246811Y32557262D01*
X108103954Y32604881D01*
X108008716Y32604881D01*
X107865859Y32557262D01*
X107770620Y32462024D01*
X107723001Y32366786D01*
X107675382Y32176310D01*
X107675382Y32033453D01*
X107723001Y31842977D01*
X107770620Y31747739D01*
X107865859Y31652500D01*
X108008716Y31604881D01*
X108103954Y31604881D01*
X108246811Y31652500D01*
X108294430Y31700120D01*
X108580144Y31604881D02*
X109151573Y31604881D01*
X108865859Y32604881D02*
X108865859Y31604881D01*
X109961097Y31604881D02*
X109484906Y31604881D01*
X109437287Y32081072D01*
X109484906Y32033453D01*
X109580144Y31985834D01*
X109818240Y31985834D01*
X109913478Y32033453D01*
X109961097Y32081072D01*
X110008716Y32176310D01*
X110008716Y32414405D01*
X109961097Y32509643D01*
X109913478Y32557262D01*
X109818240Y32604881D01*
X109580144Y32604881D01*
X109484906Y32557262D01*
X109437287Y32509643D01*
X110484906Y32604881D02*
X110675382Y32604881D01*
X110770620Y32557262D01*
X110818240Y32509643D01*
X110913478Y32366786D01*
X110961097Y32176310D01*
X110961097Y31795358D01*
X110913478Y31700120D01*
X110865859Y31652500D01*
X110770620Y31604881D01*
X110580144Y31604881D01*
X110484906Y31652500D01*
X110437287Y31700120D01*
X110389668Y31795358D01*
X110389668Y32033453D01*
X110437287Y32128691D01*
X110484906Y32176310D01*
X110580144Y32223929D01*
X110770620Y32223929D01*
X110865859Y32176310D01*
X110913478Y32128691D01*
X110961097Y32033453D01*
X111865859Y31604881D02*
X111389668Y31604881D01*
X111342049Y32081072D01*
X111389668Y32033453D01*
X111484906Y31985834D01*
X111723001Y31985834D01*
X111818240Y32033453D01*
X111865859Y32081072D01*
X111913478Y32176310D01*
X111913478Y32414405D01*
X111865859Y32509643D01*
X111818240Y32557262D01*
X111723001Y32604881D01*
X111484906Y32604881D01*
X111389668Y32557262D01*
X111342049Y32509643D01*
M02*
